<?xml version="1.0" encoding="UTF-8"?>
<svg id="Layer_1" data-name="Layer 1" xmlns="http://www.w3.org/2000/svg" viewBox="0 0 199 211">
  <path d="M154.5,60.75c-.5,1-1.04,2.38-1.62,4.12-.59,1.75-1.17,3.5-1.75,5.25-.59,1.75-1.12,3.38-1.62,4.88-5,15.34-11,29.38-18,42.12s-14.59,24.09-22.75,34c-8.17,9.92-16.59,18.21-25.25,24.88-8.17,6.17-17,11.34-26.5,15.5-9.5,4.17-18.67,6.25-27.5,6.25-5.34,0-10.25-1.16-14.75-3.5-4.5-2.33-8.09-5.83-10.75-10.5-2.67-4.66-4-10.5-4-17.5,0-8.5,1.83-16.96,5.5-25.38,3.66-8.41,8.71-16.38,15.12-23.88,6.41-7.5,13.75-14.21,22-20.12,8.25-5.91,17.04-10.71,26.38-14.38,8.16-3,17.04-5.41,26.62-7.25,9.58-1.83,18.38-2.75,26.38-2.75,15.83,0,29.5,2.75,41,8.25s20.38,12.96,26.62,22.38c6.25,9.42,9.38,19.96,9.38,31.62,0,9-1.54,17.59-4.62,25.75-3.09,8.17-7.92,15.62-14.5,22.38-6.59,6.75-15.04,12.54-25.38,17.38-10.34,4.83-22.75,8.41-37.25,10.75l-10.75-16.75c15.16-1.5,28.16-5,39-10.5,10.83-5.5,19.25-12.5,25.25-21s9-18.16,9-29c0-8.16-2.25-15.66-6.75-22.5-4.5-6.83-11.04-12.38-19.62-16.62-8.59-4.25-19.12-6.38-31.62-6.38-10.5,0-20.21,1.25-29.12,3.75-8.92,2.5-16.54,5.17-22.88,8-9.34,4.17-17.88,9.75-25.62,16.75s-13.88,14.54-18.38,22.62c-4.5,8.09-6.75,15.96-6.75,23.62,0,5.17,1.21,9.04,3.62,11.62,2.41,2.59,5.96,3.88,10.62,3.88,6.16,0,13.12-1.75,20.88-5.25s15.71-8.83,23.88-16c11.16-9.66,21.54-21.5,31.12-35.5,9.58-14,17.21-31.16,22.88-51.5.33-1.33.66-2.83,1-4.5.33-1.66.71-3.41,1.12-5.25.41-1.83.62-3.41.62-4.75l19.75,5ZM50.25,31.5c14.66,0,29.16-.41,43.5-1.25,14.33-.83,28.12-2.08,41.38-3.75,13.25-1.66,25.71-3.83,37.38-6.5l.25,18.5c-9,1.5-18.71,2.88-29.12,4.12-10.42,1.25-21.04,2.34-31.88,3.25-10.84.92-21.5,1.62-32,2.12s-20.42.75-29.75.75c-3.5,0-7.75-.12-12.75-.38l-15-.75c-5-.25-9.25-.46-12.75-.62l-.5-18.75c3,.5,7.08,1,12.25,1.5,5.16.5,10.41.92,15.75,1.25,5.33.34,9.75.5,13.25.5ZM90.75.5c-.67,1.5-1.21,3.29-1.62,5.38-.42,2.09-.88,4.04-1.38,5.88-1.34,6.84-2.67,15.5-4,26-1.34,10.5-2.42,21.71-3.25,33.62-.84,11.92-1.25,23.62-1.25,35.12,0,10.67.71,21.09,2.12,31.25,1.41,10.17,3.25,19.88,5.5,29.12s4.62,17.79,7.12,25.62l-18,5.5c-2.5-7.5-4.84-16.21-7-26.12-2.17-9.91-3.92-20.33-5.25-31.25-1.34-10.91-2-21.62-2-32.12,0-8.66.29-17.5.88-26.5.58-9,1.29-17.79,2.12-26.38.83-8.58,1.62-16.62,2.38-24.12s1.46-14,2.12-19.5c.16-2.16.33-4.33.5-6.5.16-2.16.16-4,0-5.5l21,.5Z" style="fill: #231f20; stroke-width: 0px;"/>
</svg>