<?xml version="1.0" encoding="UTF-8"?>
<svg id="Layer_1" data-name="Layer 1" xmlns="http://www.w3.org/2000/svg" viewBox="0 0 220.25 217.75">
  <path d="M35,17.5c-.5,1.34-1.04,3.04-1.62,5.12-.59,2.09-1.09,4.17-1.5,6.25-.42,2.09-.79,3.88-1.12,5.38-1,4.84-2.09,10.46-3.25,16.88-1.17,6.42-2.29,13.34-3.38,20.75-1.09,7.42-2.09,14.92-3,22.5-.92,7.59-1.62,14.88-2.12,21.88s-.75,13.25-.75,18.75c0,6.17.21,12,.62,17.5.41,5.5,1.04,11.34,1.88,17.5,1.33-3.83,2.83-7.91,4.5-12.25,1.66-4.33,3.38-8.66,5.12-13,1.75-4.33,3.29-8.16,4.62-11.5l10.25,8c-2,5.67-4.21,12.04-6.62,19.12-2.42,7.09-4.67,13.84-6.75,20.25-2.09,6.42-3.62,11.71-4.62,15.88-.34,1.67-.59,3.54-.75,5.62-.17,2.09-.25,3.96-.25,5.62.16,1.16.29,2.58.38,4.25.08,1.66.21,3.16.38,4.5l-17.5,1.25c-2.5-9-4.71-20.21-6.62-33.62-1.92-13.41-2.88-28.62-2.88-45.62,0-9.16.46-18.79,1.38-28.88.91-10.08,2-19.96,3.25-29.62,1.25-9.66,2.5-18.54,3.75-26.62,1.25-8.08,2.29-14.71,3.12-19.88.33-3,.66-6.04,1-9.12.33-3.08.5-6.04.5-8.88l22,2ZM158.5,15.75c-.5,2.67-.88,5.21-1.12,7.62-.25,2.42-.46,4.96-.62,7.62-.17,3-.29,6.79-.38,11.38-.09,4.59-.12,9.54-.12,14.88v15.5c0,9.5.16,19,.5,28.5.33,9.5.75,18.75,1.25,27.75s.96,17.42,1.38,25.25c.41,7.84.62,15,.62,21.5,0,5.17-.71,10.17-2.12,15-1.42,4.84-3.75,9.21-7,13.12s-7.67,7-13.25,9.25c-5.59,2.25-12.54,3.38-20.88,3.38-16.84,0-29.67-3.21-38.5-9.62-8.84-6.41-13.25-15.29-13.25-26.62,0-6.83,2-13.12,6-18.88s9.83-10.29,17.5-13.62c7.66-3.33,16.91-5,27.75-5s20.25,1.17,29.25,3.5c9,2.34,17.29,5.46,24.88,9.38,7.58,3.92,14.54,8.29,20.88,13.12,6.33,4.84,12.08,9.59,17.25,14.25l-10.75,16.75c-8.67-8.33-17.38-15.58-26.12-21.75-8.75-6.16-17.79-11-27.12-14.5-9.34-3.5-19.34-5.25-30-5.25-9.34,0-16.96,1.84-22.88,5.5-5.92,3.67-8.88,8.59-8.88,14.75s2.83,11.17,8.5,14.5c5.66,3.34,13,5,22,5,7.16,0,12.66-1.12,16.5-3.38,3.83-2.25,6.58-5.41,8.25-9.5,1.66-4.08,2.5-8.88,2.5-14.38,0-4.5-.17-10.54-.5-18.12-.34-7.58-.75-15.96-1.25-25.12-.5-9.16-.92-18.46-1.25-27.88-.34-9.41-.5-18.29-.5-26.62V31.25c0-2.16-.09-4.71-.25-7.62-.17-2.91-.42-5.54-.75-7.88h22.5ZM71,60.75c7.16.67,14.21,1.17,21.12,1.5,6.91.34,13.96.5,21.12.5,15.16,0,30.16-.58,45-1.75,14.83-1.16,28.58-3,41.25-5.5v19.25c-13.34,2-27.42,3.54-42.25,4.62-14.84,1.09-29.59,1.62-44.25,1.62-7.17,0-14.12-.12-20.88-.38s-13.79-.62-21.12-1.12v-18.75ZM180,7.75c1.5,2.84,3.16,6.38,5,10.62,1.83,4.25,3.66,8.5,5.5,12.75,1.83,4.25,3.25,8.04,4.25,11.38l-12.75,4.5c-1.17-3.66-2.59-7.58-4.25-11.75-1.67-4.16-3.34-8.33-5-12.5-1.67-4.16-3.34-7.91-5-11.25l12.25-3.75ZM205,0c1.66,3,3.41,6.59,5.25,10.75,1.83,4.17,3.62,8.34,5.38,12.5,1.75,4.17,3.29,7.92,4.62,11.25l-12.75,4.5c-2-5.5-4.29-11.54-6.88-18.12-2.59-6.58-5.21-12.21-7.88-16.88l12.25-4Z" style="fill: #231f20; stroke-width: 0px;"/>
</svg>