<?xml version="1.0" encoding="UTF-8"?>
<svg id="Layer_1" data-name="Layer 1" xmlns="http://www.w3.org/2000/svg" viewBox="0 0 223.75 177">
  <path d="M0,117.5c3.16-2.33,6.12-4.79,8.88-7.38,2.75-2.58,5.79-5.62,9.12-9.12,3.33-3.33,7.04-7.46,11.12-12.38,4.08-4.91,8.33-10.16,12.75-15.75,4.41-5.58,8.79-11.12,13.12-16.62,4.33-5.5,8.33-10.41,12-14.75,7.33-8.66,14.46-13.38,21.38-14.12,6.91-.75,14.54,3.04,22.88,11.38,5,5.17,10.33,11.12,16,17.88,5.66,6.75,11.46,13.54,17.38,20.38,5.91,6.84,11.46,13.17,16.62,19,3.83,4.17,8.16,8.84,13,14,4.83,5.17,10,10.54,15.5,16.12,5.5,5.59,11.12,11.21,16.88,16.88,5.75,5.67,11.46,11,17.12,16l-16,18c-6.34-6-12.92-12.71-19.75-20.12-6.84-7.41-13.59-14.88-20.25-22.38-6.67-7.5-12.84-14.5-18.5-21-5.5-6.16-11.12-12.71-16.88-19.62-5.75-6.91-11.25-13.5-16.5-19.75s-9.79-11.46-13.62-15.62c-3.5-4-6.54-6.5-9.12-7.5-2.59-1-5-.79-7.25.62-2.25,1.42-4.79,3.96-7.62,7.62-3,3.67-6.42,7.96-10.25,12.88-3.84,4.92-7.84,10.04-12,15.38-4.17,5.34-8.25,10.54-12.25,15.62-4,5.09-7.59,9.54-10.75,13.38-2.5,3.34-5.09,6.84-7.75,10.5-2.67,3.67-5,6.84-7,9.5L0,117.5ZM161.25,12.75c2.16,3,4.71,6.88,7.62,11.62,2.91,4.75,5.88,9.67,8.88,14.75,3,5.09,5.41,9.62,7.25,13.62l-14.75,6.5c-2-4.33-4.29-8.91-6.88-13.75-2.59-4.83-5.29-9.54-8.12-14.12-2.84-4.58-5.59-8.71-8.25-12.38l14.25-6.25ZM193.5,0c2.33,2.84,5,6.62,8,11.38s6.04,9.59,9.12,14.5c3.08,4.92,5.54,9.38,7.38,13.38l-14.25,7c-2.34-4.5-4.84-9.08-7.5-13.75-2.67-4.66-5.42-9.25-8.25-13.75-2.84-4.5-5.67-8.58-8.5-12.25l14-6.5Z" style="fill: #231f20; stroke-width: 0px;"/>
</svg>