<?xml version="1.0" encoding="UTF-8"?>
<svg id="Layer_1" data-name="Layer 1" xmlns="http://www.w3.org/2000/svg" viewBox="0 0 409.25 225.75">
  <path d="M0,37.25c3.83.34,8.33.34,13.5,0,5.5-.33,12-.88,19.5-1.62s15.08-1.75,22.75-3c7.66-1.25,14.79-2.54,21.38-3.88,6.58-1.33,11.62-2.66,15.12-4l6,17.5c-1.67.5-3.84,1.12-6.5,1.88-2.67.75-4.92,1.62-6.75,2.62-3.17,2.34-7.04,5.88-11.62,10.62-4.59,4.75-9.34,10.5-14.25,17.25-4.92,6.75-9.5,14.29-13.75,22.62-4.25,8.34-7.71,17.25-10.38,26.75-2.67,9.5-4,19.34-4,29.5,0,8.84,1.29,16.29,3.88,22.38,2.58,6.09,6.16,10.92,10.75,14.5,4.58,3.59,9.83,6.21,15.75,7.88,5.91,1.67,12.04,2.5,18.38,2.5,20,0,35.54-6.71,46.62-20.12,11.08-13.41,17.83-32.25,20.25-56.5,2.41-24.25.38-52.71-6.12-85.38l18.25,33.75c2.66,14.34,4.08,28.59,4.25,42.75.16,14.17-1.17,27.62-4,40.38-2.84,12.75-7.5,24.04-14,33.88-6.5,9.84-15.17,17.58-26,23.25-10.84,5.66-24.09,8.5-39.75,8.5-9.84,0-18.88-1.38-27.12-4.12s-15.42-6.79-21.5-12.12c-6.09-5.33-10.79-11.96-14.12-19.88-3.34-7.91-5-17.04-5-27.38,0-11.66,1.38-22.62,4.12-32.88s6.33-19.88,10.75-28.88c4.41-9,9.38-17.29,14.88-24.88,5.5-7.58,11-14.46,16.5-20.62-4.17.5-8.96,1.12-14.38,1.88-5.42.75-10.62,1.46-15.62,2.12-5,.67-9.09,1.17-12.25,1.5-2.34.34-4.62.67-6.88,1-2.25.34-4.62.75-7.12,1.25l-1.5-21ZM156.25,23.75c1.33,7.67,3.12,15.92,5.38,24.75,2.25,8.84,5.33,17.92,9.25,27.25,3.91,9.34,8.96,18.59,15.12,27.75,6.16,9.17,13.91,17.92,23.25,26.25l-13.25,17.75c-9.17-10-17.29-20.83-24.38-32.5-7.09-11.66-13.46-24.58-19.12-38.75-5.67-14.16-11-29.75-16-46.75l19.75-5.75ZM178,9.75c1.83,3,3.79,6.62,5.88,10.88,2.08,4.25,4.16,8.46,6.25,12.62,2.08,4.17,3.79,8,5.12,11.5l-13,5c-1.5-3.83-3.21-7.91-5.12-12.25-1.92-4.33-3.88-8.54-5.88-12.62-2-4.08-3.92-7.71-5.75-10.88l12.5-4.25ZM203.5,0c2.83,4.5,5.91,10.12,9.25,16.88,3.33,6.75,6.16,12.79,8.5,18.12l-13,4.75c-2.34-5.66-5-11.75-8-18.25s-6-12.08-9-16.75l12.25-4.75Z" style="fill: #231f20; stroke-width: 0px;"/>
  <path d="M271,63c-.5,1.5-1,3.17-1.5,5-.5,1.84-1,3.5-1.5,5-.67,3.34-1.42,7.5-2.25,12.5-.84,5-1.59,10.34-2.25,16-.67,5.67-1.17,11.17-1.5,16.5-.34,5.34-.42,10-.25,14,5-11.83,11.91-21.96,20.75-30.38,8.83-8.41,18.79-14.91,29.88-19.5,11.08-4.58,22.38-6.88,33.88-6.88,13.83,0,25.41,2.5,34.75,7.5,9.33,5,16.38,11.71,21.12,20.12,4.75,8.42,7.12,17.79,7.12,28.12,0,11.17-2.34,21.5-7,31-4.67,9.5-11.75,17.04-21.25,22.62-9.5,5.59-21.75,8.38-36.75,8.38-8,0-15.71-1.41-23.12-4.25-7.42-2.83-14.17-7-20.25-12.5-6.09-5.5-11.12-12.25-15.12-20.25l10.5-14.5c4.83,10.17,11.21,18.25,19.12,24.25,7.91,6,17.54,9,28.88,9,10.66,0,19.46-1.88,26.38-5.62,6.91-3.75,12.04-8.88,15.38-15.38,3.33-6.5,5-13.91,5-22.25,0-7.33-1.5-14-4.5-20s-7.84-10.79-14.5-14.38c-6.67-3.58-15.42-5.38-26.25-5.38s-21,1.88-30,5.62-16.88,8.75-23.62,15-12.29,13.12-16.62,20.62c-4.34,7.5-7.25,15-8.75,22.5-.34,1.67-.67,3.59-1,5.75-.34,2.17-.42,4.42-.25,6.75,0,1.5.16,3.54.5,6.12.33,2.59.71,5.17,1.12,7.75.41,2.59.79,4.71,1.12,6.38l-16.75,2.5c-2-6.33-3.71-14.29-5.12-23.88-1.42-9.58-2.12-19.38-2.12-29.38,0-6,.25-12.29.75-18.88.5-6.58,1.04-12.91,1.62-19,.58-6.08,1.16-11.58,1.75-16.5.58-4.91,1.12-8.79,1.62-11.62.16-1.83.25-3.66.25-5.5s-.09-3.41-.25-4.75l21,1.75ZM343.5,51c1,4.67,2,10.88,3,18.62s1.88,16.38,2.62,25.88,1.12,19.17,1.12,29c0,14.5-1.25,28.09-3.75,40.75-2.5,12.67-6.88,24.12-13.12,34.38s-14.88,18.96-25.88,26.12l-17-10.5c8.16-4.67,15-10.17,20.5-16.5s9.83-13.41,13-21.25c3.16-7.83,5.41-16.29,6.75-25.38,1.33-9.08,2-18.62,2-28.62,0-14.66-.62-27.04-1.88-37.12-1.25-10.08-2.38-17.88-3.38-23.38-.5-2.16-1.09-4.21-1.75-6.12-.67-1.91-1.25-3.71-1.75-5.38l19.5-.5Z" style="fill: #231f20; stroke-width: 0px;"/>
</svg>