<?xml version="1.0" encoding="UTF-8"?>
<svg id="Layer_1" data-name="Layer 1" xmlns="http://www.w3.org/2000/svg" viewBox="0 0 394 216.5">
  <path d="M0,33c6.66,1.17,14.38,2.17,23.12,3,8.75.84,16.88,1.25,24.38,1.25,8,0,16.91-.25,26.75-.75,9.83-.5,20.08-1.25,30.75-2.25,10.66-1,21.38-2.29,32.12-3.88,10.75-1.58,21.04-3.46,30.88-5.62l.25,19.25c-8.84,1.5-18.46,2.92-28.88,4.25-10.42,1.34-21.04,2.5-31.88,3.5-10.84,1-21.38,1.79-31.62,2.38-10.25.59-19.62.88-28.12.88s-16.71-.25-24.62-.75c-7.92-.5-15.54-1.08-22.88-1.75l-.25-19.5ZM77.75,1.25c-1,3.34-1.84,6.84-2.5,10.5-.67,3.67-1.34,7.17-2,10.5-.84,4-1.79,8.96-2.88,14.88-1.09,5.92-2.42,12.34-4,19.25-1.59,6.92-3.21,13.88-4.88,20.88-1.67,7-3.38,13.62-5.12,19.88s-3.54,11.71-5.38,16.38c11-7.66,22.21-13.12,33.62-16.38,11.41-3.25,23.71-4.88,36.88-4.88s24.66,2.09,34,6.25c9.33,4.17,16.5,9.96,21.5,17.38,5,7.42,7.5,16.04,7.5,25.88,0,13-3.17,24-9.5,33-6.34,9-15.25,16.09-26.75,21.25s-25.12,8.46-40.88,9.88c-15.75,1.41-33.21,1.12-52.38-.88l-5-19.75c14.5,2,28.54,2.79,42.12,2.38,13.58-.41,25.75-2.25,36.5-5.5s19.33-8.12,25.75-14.62c6.41-6.5,9.62-14.91,9.62-25.25,0-9.33-3.79-17.21-11.38-23.62-7.59-6.41-18.71-9.62-33.38-9.62s-28.75,2.54-41.75,7.62c-13,5.09-23.67,12.62-32,22.62-1.5,1.84-2.88,3.62-4.12,5.38s-2.46,3.79-3.62,6.12l-18.75-6.75c4.83-9.33,9.25-19.79,13.25-31.38,4-11.58,7.5-23.29,10.5-35.12,3-11.83,5.5-22.71,7.5-32.62,2-9.91,3.41-17.96,4.25-24.12.5-4,.83-7.58,1-10.75.16-3.16.16-6.5,0-10l22.25,1.25Z" style="fill: #231f20; stroke-width: 0px;"/>
  <path d="M212.25,116.25c3.83-.83,7.33-1.75,10.5-2.75,3.16-1,5.58-1.83,7.25-2.5,5.66-2.33,12.25-5.16,19.75-8.5,7.5-3.33,15.5-6.83,24-10.5,8.5-3.66,17.08-7.12,25.75-10.38,8.66-3.25,17-5.91,25-8,8-2.08,15.16-3.12,21.5-3.12,11,0,20.04,1.92,27.12,5.75,7.08,3.84,12.33,8.79,15.75,14.88,3.41,6.09,5.12,12.71,5.12,19.88,0,12.84-4,23.25-12,31.25s-20.67,12-38,12c-5.5,0-11.12-.66-16.88-2-5.75-1.33-10.46-2.75-14.12-4.25l.75-18.25c4,1.84,8.62,3.46,13.88,4.88,5.25,1.42,10.38,2.12,15.38,2.12,8.16,0,14.58-1.21,19.25-3.62,4.66-2.41,8-5.62,10-9.62s3-8.16,3-12.5c0-3.66-.96-7.25-2.88-10.75-1.92-3.5-5-6.41-9.25-8.75-4.25-2.33-10.21-3.5-17.88-3.5-6.5,0-14.21,1.29-23.12,3.88-8.92,2.59-18.25,5.88-28,9.88s-19.29,8.29-28.62,12.88c-9.34,4.59-17.79,8.75-25.38,12.5-7.59,3.75-13.62,6.62-18.12,8.62l-9.75-19.5ZM253.75,57c1,2,2.04,4.04,3.12,6.12,1.08,2.09,2.04,3.96,2.88,5.62,2.33,4.34,5.21,9.88,8.62,16.62,3.41,6.75,6.88,13.79,10.38,21.12,3.5,7.34,6.5,14.09,9,20.25,2.83,6.34,5.66,13.25,8.5,20.75,2.83,7.5,5.58,15.09,8.25,22.75,2.66,7.67,5.21,15.04,7.62,22.12,2.41,7.08,4.46,13.29,6.12,18.62l-19.75,5.5c-2.17-8-4.71-16.71-7.62-26.12-2.92-9.41-6.04-18.96-9.38-28.62-3.34-9.66-6.84-18.75-10.5-27.25-3.17-7.16-6.42-14.33-9.75-21.5-3.34-7.16-6.46-13.75-9.38-19.75-2.92-6-5.54-10.75-7.88-14.25-1.17-2-2.71-4.38-4.62-7.12-1.92-2.75-3.79-5.12-5.62-7.12l20-7.75ZM314,72.5c-3.67-3.83-7.92-7.96-12.75-12.38-4.84-4.41-9.67-8.21-14.5-11.38l14-10.5c2.16,1.5,4.96,3.67,8.38,6.5,3.41,2.84,6.79,5.75,10.12,8.75,3.33,3,6.16,5.75,8.5,8.25l-13.75,10.75Z" style="fill: #231f20; stroke-width: 0px;"/>
</svg>