<?xml version="1.0" encoding="UTF-8"?>
<svg id="Layer_1" data-name="Layer 1" xmlns="http://www.w3.org/2000/svg" viewBox="0 0 184.5 206.75">
  <path d="M0,33c6.66,1.17,14.38,2.17,23.12,3,8.75.84,16.88,1.25,24.38,1.25,8,0,16.91-.25,26.75-.75,9.83-.5,20.08-1.25,30.75-2.25,10.66-1,21.38-2.29,32.12-3.88,10.75-1.58,21.04-3.46,30.88-5.62l.25,19.25c-8.84,1.5-18.46,2.92-28.88,4.25-10.42,1.34-21.04,2.5-31.88,3.5-10.84,1-21.38,1.79-31.62,2.38-10.25.59-19.62.88-28.12.88s-16.71-.25-24.62-.75c-7.92-.5-15.54-1.08-22.88-1.75l-.25-19.5ZM77.75,1.25c-1,3.34-1.84,6.84-2.5,10.5-.67,3.67-1.34,7.17-2,10.5-.84,4-1.79,8.96-2.88,14.88-1.09,5.92-2.42,12.34-4,19.25-1.59,6.92-3.21,13.88-4.88,20.88-1.67,7-3.38,13.62-5.12,19.88s-3.54,11.71-5.38,16.38c11-7.66,22.21-13.12,33.62-16.38,11.41-3.25,23.71-4.88,36.88-4.88s24.66,2.09,34,6.25c9.33,4.17,16.5,9.96,21.5,17.38,5,7.42,7.5,16.04,7.5,25.88,0,13-3.17,24-9.5,33-6.34,9-15.25,16.09-26.75,21.25s-25.12,8.46-40.88,9.88c-15.75,1.41-33.21,1.12-52.38-.88l-5-19.75c14.5,2,28.54,2.79,42.12,2.38,13.58-.41,25.75-2.25,36.5-5.5s19.33-8.12,25.75-14.62c6.41-6.5,9.62-14.91,9.62-25.25,0-9.33-3.79-17.21-11.38-23.62-7.59-6.41-18.71-9.62-33.38-9.62s-28.75,2.54-41.75,7.62c-13,5.09-23.67,12.62-32,22.62-1.5,1.84-2.88,3.62-4.12,5.38s-2.46,3.79-3.62,6.12l-18.75-6.75c4.83-9.33,9.25-19.79,13.25-31.38,4-11.58,7.5-23.29,10.5-35.12,3-11.83,5.5-22.71,7.5-32.62,2-9.91,3.41-17.96,4.25-24.12.5-4,.83-7.58,1-10.75.16-3.16.16-6.5,0-10l22.25,1.25Z" style="fill: #231f20; stroke-width: 0px;"/>
</svg>