<?xml version="1.0" encoding="UTF-8"?>
<svg id="Layer_1" data-name="Layer 1" xmlns="http://www.w3.org/2000/svg" viewBox="0 0 366.75 213">
  <path d="M0,33c6.66,1.17,14.38,2.17,23.12,3,8.75.84,16.88,1.25,24.38,1.25,8,0,16.91-.25,26.75-.75,9.83-.5,20.08-1.25,30.75-2.25,10.66-1,21.38-2.29,32.12-3.88,10.75-1.58,21.04-3.46,30.88-5.62l.25,19.25c-8.84,1.5-18.46,2.92-28.88,4.25-10.42,1.34-21.04,2.5-31.88,3.5-10.84,1-21.38,1.79-31.62,2.38-10.25.59-19.62.88-28.12.88s-16.71-.25-24.62-.75c-7.92-.5-15.54-1.08-22.88-1.75l-.25-19.5ZM77.75,1.25c-1,3.34-1.84,6.84-2.5,10.5-.67,3.67-1.34,7.17-2,10.5-.84,4-1.79,8.96-2.88,14.88-1.09,5.92-2.42,12.34-4,19.25-1.59,6.92-3.21,13.88-4.88,20.88-1.67,7-3.38,13.62-5.12,19.88s-3.54,11.71-5.38,16.38c11-7.66,22.21-13.12,33.62-16.38,11.41-3.25,23.71-4.88,36.88-4.88s24.66,2.09,34,6.25c9.33,4.17,16.5,9.96,21.5,17.38,5,7.42,7.5,16.04,7.5,25.88,0,13-3.17,24-9.5,33-6.34,9-15.25,16.09-26.75,21.25s-25.12,8.46-40.88,9.88c-15.75,1.41-33.21,1.12-52.38-.88l-5-19.75c14.5,2,28.54,2.79,42.12,2.38,13.58-.41,25.75-2.25,36.5-5.5s19.33-8.12,25.75-14.62c6.41-6.5,9.62-14.91,9.62-25.25,0-9.33-3.79-17.21-11.38-23.62-7.59-6.41-18.71-9.62-33.38-9.62s-28.75,2.54-41.75,7.62c-13,5.09-23.67,12.62-32,22.62-1.5,1.84-2.88,3.62-4.12,5.38s-2.46,3.79-3.62,6.12l-18.75-6.75c4.83-9.33,9.25-19.79,13.25-31.38,4-11.58,7.5-23.29,10.5-35.12,3-11.83,5.5-22.71,7.5-32.62,2-9.91,3.41-17.96,4.25-24.12.5-4,.83-7.58,1-10.75.16-3.16.16-6.5,0-10l22.25,1.25Z" style="fill: #231f20; stroke-width: 0px;"/>
  <path d="M303,41.75c-.34,1.84-.67,4.84-1,9-.34,4.17-.5,8-.5,11.5v41.25c0,5.34.12,11.59.38,18.75.25,7.17.58,14.54,1,22.12.41,7.59.79,14.71,1.12,21.38.33,6.67.5,12.17.5,16.5,0,5.34-1.25,10.34-3.75,15s-6.46,8.46-11.88,11.38c-5.42,2.91-12.79,4.38-22.12,4.38s-18.34-1.29-26-3.88c-7.67-2.59-13.62-6.34-17.88-11.25s-6.38-11.04-6.38-18.38c0-10.33,4.58-18.62,13.75-24.88,9.16-6.25,22.33-9.38,39.5-9.38,10.5,0,20.5,1.21,30,3.62,9.5,2.42,18.41,5.62,26.75,9.62,8.33,4,15.88,8.34,22.62,13,6.75,4.67,12.62,9.34,17.62,14l-10.5,17.5c-5-5.17-10.75-10.25-17.25-15.25s-13.54-9.54-21.12-13.62c-7.59-4.08-15.59-7.33-24-9.75-8.42-2.41-17.12-3.62-26.12-3.62-10,0-18.09,1.54-24.25,4.62-6.17,3.09-9.25,7.54-9.25,13.38,0,4.84,2.66,8.88,8,12.12,5.33,3.25,12.83,4.88,22.5,4.88,6.83,0,12-1.79,15.5-5.38,3.5-3.58,5.25-8.29,5.25-14.12,0-4.33-.12-9.54-.38-15.62-.25-6.08-.54-12.58-.88-19.5-.34-6.91-.62-13.79-.88-20.62-.25-6.83-.38-12.91-.38-18.25v-39.75c0-3.83-.17-7.79-.5-11.88-.34-4.08-.75-7.04-1.25-8.88h21.75ZM292.5,80.25c3.33,0,7.88-.12,13.62-.38s12.04-.54,18.88-.88c6.83-.33,13.66-.75,20.5-1.25,6.83-.5,12.91-1.08,18.25-1.75l.25,17.5c-5.17.67-11.12,1.21-17.88,1.62-6.75.42-13.59.79-20.5,1.12-6.92.34-13.25.59-19,.75-5.75.17-10.46.25-14.12.25v-17Z" style="fill: #231f20; stroke-width: 0px;"/>
</svg>