<?xml version="1.0" encoding="UTF-8"?>
<svg id="Layer_1" data-name="Layer 1" xmlns="http://www.w3.org/2000/svg" viewBox="0 0 393 218">
  <path d="M0,33c6.66,1.17,14.38,2.17,23.12,3,8.75.84,16.88,1.25,24.38,1.25,8,0,16.91-.25,26.75-.75,9.83-.5,20.08-1.25,30.75-2.25,10.66-1,21.38-2.29,32.12-3.88,10.75-1.58,21.04-3.46,30.88-5.62l.25,19.25c-8.84,1.5-18.46,2.92-28.88,4.25-10.42,1.34-21.04,2.5-31.88,3.5-10.84,1-21.38,1.79-31.62,2.38-10.25.59-19.62.88-28.12.88s-16.71-.25-24.62-.75c-7.92-.5-15.54-1.08-22.88-1.75l-.25-19.5ZM77.75,1.25c-1,3.34-1.84,6.84-2.5,10.5-.67,3.67-1.34,7.17-2,10.5-.84,4-1.79,8.96-2.88,14.88-1.09,5.92-2.42,12.34-4,19.25-1.59,6.92-3.21,13.88-4.88,20.88-1.67,7-3.38,13.62-5.12,19.88s-3.54,11.71-5.38,16.38c11-7.66,22.21-13.12,33.62-16.38,11.41-3.25,23.71-4.88,36.88-4.88s24.66,2.09,34,6.25c9.33,4.17,16.5,9.96,21.5,17.38,5,7.42,7.5,16.04,7.5,25.88,0,13-3.17,24-9.5,33-6.34,9-15.25,16.09-26.75,21.25s-25.12,8.46-40.88,9.88c-15.75,1.41-33.21,1.12-52.38-.88l-5-19.75c14.5,2,28.54,2.79,42.12,2.38,13.58-.41,25.75-2.25,36.5-5.5s19.33-8.12,25.75-14.62c6.41-6.5,9.62-14.91,9.62-25.25,0-9.33-3.79-17.21-11.38-23.62-7.59-6.41-18.71-9.62-33.38-9.62s-28.75,2.54-41.75,7.62c-13,5.09-23.67,12.62-32,22.62-1.5,1.84-2.88,3.62-4.12,5.38s-2.46,3.79-3.62,6.12l-18.75-6.75c4.83-9.33,9.25-19.79,13.25-31.38,4-11.58,7.5-23.29,10.5-35.12,3-11.83,5.5-22.71,7.5-32.62,2-9.91,3.41-17.96,4.25-24.12.5-4,.83-7.58,1-10.75.16-3.16.16-6.5,0-10l22.25,1.25Z" style="fill: #231f20; stroke-width: 0px;"/>
  <path d="M254.75,55.25c-.5,1.5-1,3.17-1.5,5-.5,1.84-1,3.5-1.5,5-.67,3.34-1.42,7.5-2.25,12.5-.84,5-1.59,10.34-2.25,16-.67,5.67-1.17,11.17-1.5,16.5-.34,5.34-.42,10-.25,14,5-11.83,11.91-21.96,20.75-30.38,8.83-8.41,18.79-14.91,29.88-19.5,11.08-4.58,22.38-6.88,33.88-6.88,13.83,0,25.41,2.5,34.75,7.5,9.33,5,16.38,11.71,21.12,20.12,4.75,8.42,7.12,17.79,7.12,28.12,0,11.17-2.34,21.5-7,31-4.67,9.5-11.75,17.04-21.25,22.62-9.5,5.59-21.75,8.38-36.75,8.38-8,0-15.71-1.41-23.12-4.25-7.42-2.83-14.17-7-20.25-12.5-6.09-5.5-11.12-12.25-15.12-20.25l10.5-14.5c4.83,10.17,11.21,18.25,19.12,24.25,7.91,6,17.54,9,28.88,9,10.66,0,19.46-1.88,26.38-5.62,6.91-3.75,12.04-8.88,15.38-15.38,3.33-6.5,5-13.91,5-22.25,0-7.33-1.5-14-4.5-20s-7.84-10.79-14.5-14.38c-6.67-3.58-15.42-5.38-26.25-5.38s-21,1.88-30,5.62-16.88,8.75-23.62,15-12.29,13.12-16.62,20.62c-4.34,7.5-7.25,15-8.75,22.5-.34,1.67-.67,3.59-1,5.75-.34,2.17-.42,4.42-.25,6.75,0,1.5.16,3.54.5,6.12.33,2.59.71,5.17,1.12,7.75.41,2.59.79,4.71,1.12,6.38l-16.75,2.5c-2-6.33-3.71-14.29-5.12-23.88-1.42-9.58-2.12-19.38-2.12-29.38,0-6,.25-12.29.75-18.88.5-6.58,1.04-12.91,1.62-19,.58-6.08,1.16-11.58,1.75-16.5.58-4.91,1.12-8.79,1.62-11.62.16-1.83.25-3.66.25-5.5s-.09-3.41-.25-4.75l21,1.75ZM327.25,43.25c1,4.67,2,10.88,3,18.62s1.88,16.38,2.62,25.88,1.12,19.17,1.12,29c0,14.5-1.25,28.09-3.75,40.75-2.5,12.67-6.88,24.12-13.12,34.38s-14.88,18.96-25.88,26.12l-17-10.5c8.16-4.67,15-10.17,20.5-16.5s9.83-13.41,13-21.25c3.16-7.83,5.41-16.29,6.75-25.38,1.33-9.08,2-18.62,2-28.62,0-14.66-.62-27.04-1.88-37.12-1.25-10.08-2.38-17.88-3.38-23.38-.5-2.16-1.09-4.21-1.75-6.12-.67-1.91-1.25-3.71-1.75-5.38l19.5-.5Z" style="fill: #231f20; stroke-width: 0px;"/>
</svg>