<?xml version="1.0" encoding="UTF-8"?>
<svg id="Layer_1" data-name="Layer 1" xmlns="http://www.w3.org/2000/svg" viewBox="0 0 212.25 189.75">
  <path d="M0,16c4.66-.16,8.96-.38,12.88-.62,3.91-.25,7.04-.46,9.38-.62,4-.5,9.79-1.12,17.38-1.88,7.58-.75,16.29-1.58,26.12-2.5,9.83-.91,20.41-1.88,31.75-2.88,11.33-1,22.75-2,34.25-3,9.16-.83,17.83-1.54,26-2.12,8.16-.58,15.75-1.08,22.75-1.5,7-.41,13.25-.71,18.75-.88v20c-4.67,0-10,.09-16,.25-6,.17-11.92.5-17.75,1-5.84.5-10.92,1.42-15.25,2.75-8.84,2.84-16.79,7.12-23.88,12.88-7.09,5.75-13.12,12.38-18.12,19.88s-8.79,15.25-11.38,23.25c-2.59,8-3.88,15.75-3.88,23.25,0,9.67,1.66,18.12,5,25.38,3.33,7.25,7.88,13.38,13.62,18.38s12.29,9.09,19.62,12.25c7.33,3.17,15.12,5.54,23.38,7.12,8.25,1.59,16.46,2.46,24.62,2.62l-7.25,20.75c-9.34-.34-18.67-1.62-28-3.88-9.34-2.25-18.25-5.5-26.75-9.75s-16.09-9.62-22.75-16.12c-6.67-6.5-11.92-14.08-15.75-22.75-3.84-8.66-5.75-18.58-5.75-29.75,0-13,2.29-25.04,6.88-36.12,4.58-11.08,10.46-20.79,17.62-29.12,7.16-8.33,14.58-14.75,22.25-19.25-5.34.67-11.96,1.42-19.88,2.25-7.92.84-16.38,1.71-25.38,2.62-9,.92-18.04,1.96-27.12,3.12-9.09,1.17-17.54,2.29-25.38,3.38-7.84,1.09-14.42,2.21-19.75,3.38L0,16ZM163.25,50.75c1.83,2.67,4.04,6.04,6.62,10.12,2.58,4.09,5.12,8.25,7.62,12.5s4.58,8.29,6.25,12.12l-12.75,6c-2.84-6.16-6-12.29-9.5-18.38-3.5-6.08-7.17-11.71-11-16.88l12.75-5.5ZM190.5,40.25c2,2.67,4.33,6,7,10,2.66,4,5.29,8.12,7.88,12.38,2.58,4.25,4.88,8.29,6.88,12.12l-13,6.25c-3-6.16-6.29-12.25-9.88-18.25-3.59-6-7.29-11.58-11.12-16.75l12.25-5.75Z" style="fill: #231f20; stroke-width: 0px;"/>
</svg>