<?xml version="1.0" encoding="UTF-8"?>
<svg id="Layer_1" data-name="Layer 1" xmlns="http://www.w3.org/2000/svg" viewBox="0 0 220.25 224.21">
  <path d="M0,50.5c6.66,1.17,14.38,2.12,23.12,2.88s16.88,1.12,24.38,1.12c10.66,0,22.66-.38,36-1.12,13.33-.75,27.08-2.04,41.25-3.88,14.16-1.83,27.75-4.16,40.75-7l.25,19c-8.84,1.5-18.34,2.96-28.5,4.38-10.17,1.42-20.5,2.59-31,3.5-10.5.92-20.75,1.67-30.75,2.25-10,.59-19.25.88-27.75.88s-16.96-.25-24.88-.75c-7.92-.5-15.46-1.08-22.62-1.75l-.25-19.5ZM77.75,18.75c-1,3.17-1.88,6.62-2.62,10.38s-1.46,7.29-2.12,10.62c-.67,4-1.59,8.96-2.75,14.88-1.17,5.92-2.5,12.29-4,19.12-1.5,6.84-3.09,13.79-4.75,20.88-1.67,7.09-3.42,13.75-5.25,20-1.84,6.25-3.59,11.71-5.25,16.38,11-7.66,22.21-13.16,33.62-16.5,11.41-3.33,23.62-5,36.62-5s24.66,2.09,34,6.25c9.33,4.17,16.5,9.96,21.5,17.38,5,7.42,7.5,16.04,7.5,25.88,0,13-3.12,24.04-9.38,33.12-6.25,9.09-15.12,16.17-26.62,21.25s-25.17,8.38-41,9.88c-15.84,1.5-33.25,1.25-52.25-.75l-5.25-20c14.5,2,28.54,2.79,42.12,2.38,13.58-.41,25.79-2.25,36.62-5.5,10.83-3.25,19.41-8.12,25.75-14.62,6.33-6.5,9.5-14.91,9.5-25.25,0-9.33-3.75-17.16-11.25-23.5-7.5-6.33-18.59-9.5-33.25-9.5s-28.79,2.54-41.88,7.62c-13.09,5.09-23.79,12.54-32.12,22.38-1.5,2-2.84,3.88-4,5.62-1.17,1.75-2.42,3.79-3.75,6.12l-18.5-6.75c4.66-9.33,9-19.83,13-31.5,4-11.66,7.54-23.38,10.62-35.12,3.08-11.75,5.62-22.62,7.62-32.62s3.33-18,4-24c.5-4,.88-7.62,1.12-10.88s.29-6.54.12-9.88l22.25,1.25ZM171.5,10c2.16,2.84,4.5,6.34,7,10.5,2.5,4.17,4.96,8.34,7.38,12.5,2.41,4.17,4.46,8,6.12,11.5l-13.5,6c-1.5-3.5-3.42-7.33-5.75-11.5-2.34-4.16-4.75-8.33-7.25-12.5-2.5-4.16-4.92-7.75-7.25-10.75l13.25-5.75ZM199.25,0c2.16,3,4.58,6.59,7.25,10.75,2.66,4.17,5.21,8.34,7.62,12.5,2.41,4.17,4.46,7.75,6.12,10.75l-13.5,6.25c-2.67-5.5-5.92-11.46-9.75-17.88-3.84-6.41-7.5-11.96-11-16.62l13.25-5.75Z" style="fill: #231f20; stroke-width: 0px;"/>
</svg>