<?xml version="1.0" encoding="UTF-8"?>
<svg id="Layer_1" data-name="Layer 1" xmlns="http://www.w3.org/2000/svg" viewBox="0 0 199 214">
  <path d="M146.25,61.25c-2.67,1.67-5.59,3.34-8.75,5-3.17,1.67-6.59,3.42-10.25,5.25-5.67,3-12.34,6.42-20,10.25-7.67,3.84-15.79,8.09-24.38,12.75-8.59,4.67-16.88,9.75-24.88,15.25-11.67,7.5-20.79,15.42-27.38,23.75-6.59,8.34-9.88,17.25-9.88,26.75,0,10.34,4.91,18.54,14.75,24.62,9.83,6.09,24.66,9.12,44.5,9.12,9.16,0,18.66-.38,28.5-1.12,9.83-.75,19.29-1.79,28.38-3.12,9.08-1.33,16.79-2.75,23.12-4.25l-.25,22.25c-6.17,1.16-13.42,2.21-21.75,3.12-8.34.91-17.34,1.66-27,2.25-9.67.58-19.75.88-30.25.88-11.67,0-22.42-.96-32.25-2.88-9.84-1.92-18.38-4.88-25.62-8.88s-12.88-9.29-16.88-15.88c-4-6.58-6-14.54-6-23.88s1.88-17.62,5.62-25.38,9.25-15.12,16.5-22.12,15.71-13.75,25.38-20.25c8.5-5.83,17.16-11.16,26-16,8.83-4.83,17.21-9.29,25.12-13.38,7.91-4.08,14.54-7.62,19.88-10.62,3.5-2,6.66-3.91,9.5-5.75,2.83-1.83,5.58-3.83,8.25-6l10,18.25ZM26.5,12.5c3.83,10.67,8,21.12,12.5,31.38s9,19.79,13.5,28.62c4.5,8.84,8.66,16.59,12.5,23.25l-17,10.25c-4.17-6.83-8.59-14.91-13.25-24.25-4.67-9.33-9.38-19.25-14.12-29.75S11.25,31.09,6.75,20.75l19.75-8.25ZM150.5,10c2.16,3,4.5,6.54,7,10.62,2.5,4.09,4.96,8.21,7.38,12.38,2.41,4.17,4.46,8,6.12,11.5l-13.5,6c-2.5-5.16-5.67-11.08-9.5-17.75-3.84-6.66-7.5-12.33-11-17l13.5-5.75ZM178,0c2.33,3,4.79,6.59,7.38,10.75,2.58,4.17,5.12,8.29,7.62,12.38,2.5,4.09,4.5,7.71,6,10.88l-13.25,6c-2.84-5.33-6.12-11.25-9.88-17.75s-7.46-12.08-11.12-16.75l13.25-5.5Z" style="fill: #231f20; stroke-width: 0px;"/>
</svg>