<?xml version="1.0" encoding="UTF-8"?>
<svg id="Layer_1" data-name="Layer 1" xmlns="http://www.w3.org/2000/svg" viewBox="0 0 223 207.25">
  <path d="M0,80.25c4.5-.83,9.04-1.91,13.62-3.25,4.58-1.33,9.21-2.66,13.88-4,5.33-1.66,12.16-3.91,20.5-6.75,8.33-2.83,17.41-5.62,27.25-8.38,9.83-2.75,19.88-5.08,30.12-7,10.25-1.91,19.88-2.88,28.88-2.88,14,0,26.58,2.62,37.75,7.88,11.16,5.25,20.08,12.75,26.75,22.5,6.66,9.75,10,21.62,10,35.62,0,12-2.25,22.75-6.75,32.25s-10.92,17.88-19.25,25.12c-8.34,7.25-18.12,13.38-29.38,18.38s-23.79,8.96-37.62,11.88c-13.84,2.92-28.42,4.79-43.75,5.62l-8.75-20.75c16.33-.5,31.88-2.16,46.62-5,14.75-2.83,27.91-7.12,39.5-12.88,11.58-5.75,20.71-13.16,27.38-22.25,6.66-9.08,10-19.96,10-32.62,0-8.83-2.04-16.79-6.12-23.88-4.09-7.08-10.09-12.71-18-16.88-7.92-4.16-17.54-6.25-28.88-6.25-8.17,0-17.04.96-26.62,2.88-9.59,1.92-19.29,4.34-29.12,7.25-9.84,2.92-19.25,6.04-28.25,9.38-9,3.34-17,6.42-24,9.25-7,2.84-12.5,5-16.5,6.5L0,80.25ZM174.25,10c2.16,3,4.5,6.59,7,10.75,2.5,4.17,4.96,8.34,7.38,12.5,2.41,4.17,4.54,8,6.38,11.5l-13.75,6c-2.34-5.16-5.46-11.08-9.38-17.75-3.92-6.66-7.54-12.41-10.88-17.25l13.25-5.75ZM201.75,0c2.33,3.17,4.83,6.84,7.5,11,2.66,4.17,5.25,8.29,7.75,12.38,2.5,4.09,4.5,7.71,6,10.88l-13.5,6c-2.67-5.5-5.92-11.46-9.75-17.88-3.84-6.41-7.5-11.96-11-16.62l13-5.75Z" style="fill: #231f20; stroke-width: 0px;"/>
</svg>