<?xml version="1.0" encoding="UTF-8"?>
<svg id="Layer_1" data-name="Layer 1" xmlns="http://www.w3.org/2000/svg" viewBox="0 0 407.75 231">
  <path d="M0,50.5c6.66,1.17,14.38,2.12,23.12,2.88s16.88,1.12,24.38,1.12c10.66,0,22.66-.38,36-1.12,13.33-.75,27.08-2.04,41.25-3.88,14.16-1.83,27.75-4.16,40.75-7l.25,19c-8.84,1.5-18.34,2.96-28.5,4.38-10.17,1.42-20.5,2.59-31,3.5-10.5.92-20.75,1.67-30.75,2.25-10,.59-19.25.88-27.75.88s-16.96-.25-24.88-.75c-7.92-.5-15.46-1.08-22.62-1.75l-.25-19.5ZM77.75,18.75c-1,3.17-1.88,6.62-2.62,10.38s-1.46,7.29-2.12,10.62c-.67,4-1.59,8.96-2.75,14.88-1.17,5.92-2.5,12.29-4,19.12-1.5,6.84-3.09,13.79-4.75,20.88-1.67,7.09-3.42,13.75-5.25,20-1.84,6.25-3.59,11.71-5.25,16.38,11-7.66,22.21-13.16,33.62-16.5,11.41-3.33,23.62-5,36.62-5s24.66,2.09,34,6.25c9.33,4.17,16.5,9.96,21.5,17.38,5,7.42,7.5,16.04,7.5,25.88,0,13-3.12,24.04-9.38,33.12-6.25,9.09-15.12,16.17-26.62,21.25s-25.17,8.38-41,9.88c-15.84,1.5-33.25,1.25-52.25-.75l-5.25-20c14.5,2,28.54,2.79,42.12,2.38,13.58-.41,25.79-2.25,36.62-5.5,10.83-3.25,19.41-8.12,25.75-14.62,6.33-6.5,9.5-14.91,9.5-25.25,0-9.33-3.75-17.16-11.25-23.5-7.5-6.33-18.59-9.5-33.25-9.5s-28.79,2.54-41.88,7.62c-13.09,5.09-23.79,12.54-32.12,22.38-1.5,2-2.84,3.88-4,5.62-1.17,1.75-2.42,3.79-3.75,6.12l-18.5-6.75c4.66-9.33,9-19.83,13-31.5,4-11.66,7.54-23.38,10.62-35.12,3.08-11.75,5.62-22.62,7.62-32.62s3.33-18,4-24c.5-4,.88-7.62,1.12-10.88s.29-6.54.12-9.88l22.25,1.25ZM171.5,10c2.16,2.84,4.5,6.34,7,10.5,2.5,4.17,4.96,8.34,7.38,12.5,2.41,4.17,4.46,8,6.12,11.5l-13.5,6c-1.5-3.5-3.42-7.33-5.75-11.5-2.34-4.16-4.75-8.33-7.25-12.5-2.5-4.16-4.92-7.75-7.25-10.75l13.25-5.75ZM199.25,0c2.16,3,4.58,6.59,7.25,10.75,2.66,4.17,5.21,8.34,7.62,12.5,2.41,4.17,4.46,7.75,6.12,10.75l-13.5,6.25c-2.67-5.5-5.92-11.46-9.75-17.88-3.84-6.41-7.5-11.96-11-16.62l13.25-5.75Z" style="fill: #231f20; stroke-width: 0px;"/>
  <path d="M226,130.75c3.83-.83,7.33-1.75,10.5-2.75,3.16-1,5.58-1.83,7.25-2.5,5.66-2.33,12.25-5.16,19.75-8.5,7.5-3.33,15.5-6.83,24-10.5,8.5-3.66,17.08-7.12,25.75-10.38,8.66-3.25,17-5.91,25-8,8-2.08,15.16-3.12,21.5-3.12,11,0,20.04,1.92,27.12,5.75,7.08,3.84,12.33,8.79,15.75,14.88,3.41,6.09,5.12,12.71,5.12,19.88,0,12.84-4,23.25-12,31.25s-20.67,12-38,12c-5.5,0-11.12-.66-16.88-2-5.75-1.33-10.46-2.75-14.12-4.25l.75-18.25c4,1.84,8.62,3.46,13.88,4.88,5.25,1.42,10.38,2.12,15.38,2.12,8.16,0,14.58-1.21,19.25-3.62,4.66-2.41,8-5.62,10-9.62s3-8.16,3-12.5c0-3.66-.96-7.25-2.88-10.75-1.92-3.5-5-6.41-9.25-8.75-4.25-2.33-10.21-3.5-17.88-3.5-6.5,0-14.21,1.29-23.12,3.88-8.92,2.59-18.25,5.88-28,9.88s-19.29,8.29-28.62,12.88c-9.34,4.59-17.79,8.75-25.38,12.5-7.59,3.75-13.62,6.62-18.12,8.62l-9.75-19.5ZM267.5,71.5c1,2,2.04,4.04,3.12,6.12,1.08,2.09,2.04,3.96,2.88,5.62,2.33,4.34,5.21,9.88,8.62,16.62,3.41,6.75,6.88,13.79,10.38,21.12,3.5,7.34,6.5,14.09,9,20.25,2.83,6.34,5.66,13.25,8.5,20.75,2.83,7.5,5.58,15.09,8.25,22.75,2.66,7.67,5.21,15.04,7.62,22.12,2.41,7.08,4.46,13.29,6.12,18.62l-19.75,5.5c-2.17-8-4.71-16.71-7.62-26.12-2.92-9.41-6.04-18.96-9.38-28.62-3.34-9.66-6.84-18.75-10.5-27.25-3.17-7.16-6.42-14.33-9.75-21.5-3.34-7.16-6.46-13.75-9.38-19.75-2.92-6-5.54-10.75-7.88-14.25-1.17-2-2.71-4.38-4.62-7.12-1.92-2.75-3.79-5.12-5.62-7.12l20-7.75ZM327.75,87c-3.67-3.83-7.92-7.96-12.75-12.38-4.84-4.41-9.67-8.21-14.5-11.38l14-10.5c2.16,1.5,4.96,3.67,8.38,6.5,3.41,2.84,6.79,5.75,10.12,8.75,3.33,3,6.16,5.75,8.5,8.25l-13.75,10.75Z" style="fill: #231f20; stroke-width: 0px;"/>
</svg>