<?xml version="1.0" encoding="UTF-8"?>
<svg id="Layer_1" data-name="Layer 1" xmlns="http://www.w3.org/2000/svg" viewBox="0 0 198 207.75">
  <path d="M152.75,71.5c-2.34,1.67-4.84,3.59-7.5,5.75-2.67,2.17-4.75,4-6.25,5.5-2.5,2.17-5.88,5.21-10.12,9.12-4.25,3.92-8.75,8.17-13.5,12.75-4.75,4.59-9.25,8.88-13.5,12.88s-7.54,7.25-9.88,9.75c1.33-.16,2.96-.21,4.88-.12,1.91.09,3.54.29,4.88.62,4.83.5,8.79,2.34,11.88,5.5,3.08,3.17,5.46,7.34,7.12,12.5.83,2.34,1.71,5.17,2.62,8.5.91,3.34,1.88,6.71,2.88,10.12,1,3.42,1.91,6.54,2.75,9.38,1.66,4.67,4.08,8.09,7.25,10.25,3.16,2.17,8,3.25,14.5,3.25,5.66,0,11.38-.21,17.12-.62,5.75-.41,11.25-1.04,16.5-1.88,5.25-.83,9.79-1.66,13.62-2.5l-1.25,21c-3.5.5-8.09,1.04-13.75,1.62-5.67.58-11.46,1.08-17.38,1.5-5.92.41-11.21.62-15.88.62-10,0-18.12-1.5-24.38-4.5s-10.71-8.58-13.38-16.75c-.84-2.5-1.79-5.62-2.88-9.38-1.09-3.75-2.09-7.46-3-11.12-.92-3.66-1.79-6.66-2.62-9-1.5-4.33-3.54-7.62-6.12-9.88-2.59-2.25-5.62-3.38-9.12-3.38s-6.75.79-9.75,2.38c-3,1.59-5.92,3.79-8.75,6.62-1.84,1.84-4.34,4.29-7.5,7.38-3.17,3.09-6.62,6.67-10.38,10.75-3.75,4.09-7.62,8.34-11.62,12.75-4,4.42-7.84,8.75-11.5,13-3.67,4.25-6.92,8.21-9.75,11.88L0,194.5c1.5-1.33,3.33-2.96,5.5-4.88,2.16-1.91,4.5-4.04,7-6.38,1.66-1.66,4.75-4.79,9.25-9.38,4.5-4.58,9.96-10.04,16.38-16.38,6.41-6.33,13.21-13.12,20.38-20.38,7.16-7.25,14.33-14.41,21.5-21.5,7.16-7.08,13.79-13.71,19.88-19.88,6.08-6.16,11.21-11.33,15.38-15.5-3.84.17-8.5.46-14,.88-5.5.42-11.25.88-17.25,1.38s-11.92,1-17.75,1.5c-5.84.5-11.21.92-16.12,1.25-4.92.34-8.88.67-11.88,1-4.17.34-7.88.71-11.12,1.12-3.25.42-6.29.88-9.12,1.38l-1.75-22c2.83.17,6.08.34,9.75.5,3.66.17,7.5.17,11.5,0,2.83,0,7.16-.16,13-.5,5.83-.33,12.46-.75,19.88-1.25,7.41-.5,14.88-1.04,22.38-1.62,7.5-.58,14.46-1.12,20.88-1.62,6.41-.5,11.46-1,15.12-1.5,2.16-.33,4.41-.75,6.75-1.25,2.33-.5,4.08-1,5.25-1.5l12,13.5ZM49,0c6.83,1.5,14.66,2.96,23.5,4.38,8.83,1.42,17.91,2.75,27.25,4,9.33,1.25,18.21,2.25,26.62,3,8.41.75,15.54,1.38,21.38,1.88l-2.75,18.5c-6.17-.5-13.38-1.25-21.62-2.25s-16.88-2.08-25.88-3.25c-9-1.16-17.96-2.46-26.88-3.88-8.92-1.41-17.21-2.79-24.88-4.12L49,0Z" style="fill: #231f20; stroke-width: 0px;"/>
</svg>