<?xml version="1.0" encoding="UTF-8"?>
<svg id="Layer_1" data-name="Layer 1" xmlns="http://www.w3.org/2000/svg" viewBox="0 0 230 200.5">
  <path d="M75.5,136.5c-4.67,5-10.42,10.5-17.25,16.5-6.84,6-14.25,12-22.25,18s-16.09,11.42-24.25,16.25L0,170.5c5.16-2.83,10.71-6.21,16.62-10.12,5.91-3.91,11.83-8.12,17.75-12.62,5.91-4.5,11.41-9.04,16.5-13.62,5.08-4.58,9.46-8.79,13.12-12.62l11.5,15ZM67.25,176c6.33,1.67,12.66,3,19,4,6.33,1,13.41,1.5,21.25,1.5,3.83,0,7.71-.58,11.62-1.75,3.91-1.16,7.16-3.29,9.75-6.38,2.58-3.08,3.88-7.29,3.88-12.62,0-4.33-1-8.88-3-13.62s-4.59-9.54-7.75-14.38c-3.17-4.83-6.62-9.54-10.38-14.12-3.75-4.58-7.38-8.79-10.88-12.62-2.67-3-5.75-6.16-9.25-9.5-3.5-3.33-7.09-6.41-10.75-9.25l14.75-13c3.16,3.17,6.29,6.38,9.38,9.62,3.08,3.25,6.12,6.54,9.12,9.88,7.83,8,14.75,15.88,20.75,23.62s10.66,15.38,14,22.88c3.33,7.5,5,15.09,5,22.75s-1.38,13.75-4.12,18.75-6.29,8.84-10.62,11.5c-4.34,2.66-9,4.54-14,5.62-5,1.08-9.75,1.62-14.25,1.62-7.84,0-15.17-.38-22-1.12-6.84-.75-13.09-1.71-18.75-2.88l-2.75-20.5ZM115.5,56.5c3.33-2.16,6.58-4.46,9.75-6.88,3.16-2.41,5.66-4.38,7.5-5.88-3.5-3-8.25-6.25-14.25-9.75s-12.42-7-19.25-10.5c-6.84-3.5-13.42-6.5-19.75-9L91,0c6.33,2.67,13.33,5.88,21,9.62,7.66,3.75,15.12,7.62,22.38,11.62s13.38,7.84,18.38,11.5l4.5,13c-1.34,1.17-3.21,2.71-5.62,4.62-2.42,1.92-5,3.92-7.75,6-2.75,2.09-5.5,4.17-8.25,6.25-2.75,2.09-5.29,3.96-7.62,5.62l-12.5-11.75ZM211.5,185.25c-1.84-6-4.21-12.54-7.12-19.62-2.92-7.08-6.25-14.25-10-21.5s-7.71-14.16-11.88-20.75c-4.17-6.58-8.42-12.29-12.75-17.12l16.25-9.25c4.33,5.17,8.66,11.04,13,17.62,4.33,6.59,8.5,13.5,12.5,20.75s7.58,14.29,10.75,21.12c3.16,6.84,5.75,13,7.75,18.5l-18.5,10.25Z" style="fill: #231f20; stroke-width: 0px;"/>
</svg>