<?xml version="1.0" encoding="UTF-8"?>
<svg id="Layer_1" data-name="Layer 1" xmlns="http://www.w3.org/2000/svg" viewBox="0 0 227.5 220.5">
  <path d="M0,72.5c4,.17,7.75.25,11.25.25s7.25-.08,11.25-.25c3.66-.16,8.46-.46,14.38-.88,5.91-.41,12.29-.91,19.12-1.5,6.83-.58,13.66-1.16,20.5-1.75,6.83-.58,13.08-1.08,18.75-1.5,5.66-.41,10.16-.62,13.5-.62,7.5,0,14.29,1.21,20.38,3.62,6.08,2.42,11,6.67,14.75,12.75,3.75,6.09,5.62,14.79,5.62,26.12,0,9.84-.5,20.46-1.5,31.88-1,11.42-2.54,22.25-4.62,32.5-2.09,10.25-4.88,18.88-8.38,25.88-3.84,8.34-8.84,13.88-15,16.62-6.17,2.75-13.34,4.12-21.5,4.12-4.84,0-9.96-.38-15.38-1.12-5.42-.75-10.12-1.54-14.12-2.38l-3.25-21c3.5,1.17,7.16,2.12,11,2.88,3.83.75,7.5,1.34,11,1.75,3.5.42,6.33.62,8.5.62,4.66,0,8.83-.79,12.5-2.38,3.66-1.58,6.83-5.12,9.5-10.62,2.66-5.66,4.88-12.75,6.62-21.25s3.04-17.58,3.88-27.25c.83-9.66,1.25-19,1.25-28,0-7.66-1.09-13.41-3.25-17.25-2.17-3.83-5.25-6.41-9.25-7.75-4-1.33-8.67-2-14-2-4.17,0-9.84.29-17,.88-7.17.59-14.84,1.25-23,2-8.17.75-15.71,1.54-22.62,2.38-6.92.84-12.29,1.42-16.12,1.75-3,.34-6.71.79-11.12,1.38-4.42.59-8.21,1.12-11.38,1.62l-2.25-21.5ZM90,17.5c-.34,2.34-.75,4.79-1.25,7.38-.5,2.59-1,5.12-1.5,7.62-.67,2.84-1.42,6.84-2.25,12-.84,5.17-1.79,10.62-2.88,16.38-1.09,5.75-2.21,11.29-3.38,16.62-1.84,7-3.96,14.96-6.38,23.88-2.42,8.92-5.25,18.42-8.5,28.5-3.25,10.09-6.88,20.34-10.88,30.75-4,10.42-8.42,20.71-13.25,30.88-4.84,10.17-10.09,19.84-15.75,29l-20.25-8.25c5.66-7.5,11-16,16-25.5s9.58-19.38,13.75-29.62c4.16-10.25,7.91-20.38,11.25-30.38,3.33-10,6.21-19.29,8.62-27.88,2.41-8.58,4.29-15.96,5.62-22.12,2.33-9.83,4.25-20.16,5.75-31,1.5-10.83,2.25-21,2.25-30.5l23,2.25ZM176,46.5c4,5,8.21,11.34,12.62,19,4.41,7.67,8.75,15.75,13,24.25s8.16,16.75,11.75,24.75c3.58,8,6.38,14.92,8.38,20.75l-19.25,9.25c-1.84-6.5-4.38-13.83-7.62-22-3.25-8.16-6.92-16.46-11-24.88-4.09-8.41-8.34-16.41-12.75-24-4.42-7.58-8.88-13.88-13.38-18.88l18.25-8.25ZM179,10.25c2.16,2.84,4.46,6.29,6.88,10.38,2.41,4.09,4.88,8.25,7.38,12.5s4.58,8.04,6.25,11.38l-13.75,6c-1.5-3.33-3.42-7.08-5.75-11.25-2.34-4.16-4.75-8.33-7.25-12.5-2.5-4.16-4.92-7.83-7.25-11l13.5-5.5ZM206.5,0c2.16,3.17,4.58,6.84,7.25,11,2.66,4.17,5.25,8.29,7.75,12.38,2.5,4.09,4.5,7.71,6,10.88l-13.5,6c-2.67-5.5-5.92-11.46-9.75-17.88-3.84-6.41-7.5-11.96-11-16.62l13.25-5.75Z" style="fill: #231f20; stroke-width: 0px;"/>
</svg>