<?xml version="1.0" encoding="UTF-8"?>
<svg id="Layer_1" data-name="Layer 1" xmlns="http://www.w3.org/2000/svg" viewBox="0 0 217.75 224">
  <path d="M34.25,18c-.67,2.34-1.42,5-2.25,8-.84,3-1.59,5.75-2.25,8.25-2,9-3.92,19-5.75,30-1.84,11-3.25,22.38-4.25,34.12s-1.34,23.42-1,35c.33,11.59,1.66,22.54,4,32.88,1.83-5.33,3.96-11.5,6.38-18.5,2.41-7,4.79-13.58,7.12-19.75l10.75,6.5c-2,5.67-4.09,12.04-6.25,19.12-2.17,7.09-4.12,13.84-5.88,20.25-1.75,6.42-3.12,11.71-4.12,15.88-.5,1.84-.84,3.84-1,6-.17,2.17-.25,3.92-.25,5.25.16,1.34.29,2.75.38,4.25.08,1.5.21,2.91.38,4.25l-17,2c-1.67-5.17-3.54-11.96-5.62-20.38-2.09-8.41-3.88-17.75-5.38-28s-2.25-20.54-2.25-30.88c0-13.66.62-26.79,1.88-39.38,1.25-12.58,2.62-24.08,4.12-34.5,1.5-10.41,2.66-19.04,3.5-25.88.5-3,.83-6,1-9,.16-3,.33-5.58.5-7.75l23.25,2.25ZM69.25,66c3.66.5,7.75,1,12.25,1.5s9.21.84,14.12,1c4.91.17,9.54.25,13.88.25,10.33,0,20.96-.25,31.88-.75,10.91-.5,21.5-1.33,31.75-2.5,10.25-1.16,19.54-2.66,27.88-4.5l-.25,20.25c-8,1.34-17.04,2.46-27.12,3.38-10.09.92-20.59,1.62-31.5,2.12-10.92.5-21.71.75-32.38.75-3.84,0-8.25-.08-13.25-.25-5-.16-9.88-.38-14.62-.62s-8.96-.46-12.62-.62v-20ZM158,14.25c-.17,2.17-.34,4.46-.5,6.88-.17,2.42-.25,5.04-.25,7.88-.17,1.84-.21,4.84-.12,9,.08,4.17.16,8.88.25,14.12.08,5.25.16,10.59.25,16,.08,5.42.12,10.46.12,15.12v11.25c0,14.34-.29,27.67-.88,40-.59,12.34-2.46,23.84-5.62,34.5-3.17,10.67-8.38,20.54-15.62,29.62s-17.54,17.54-30.88,25.38l-18.25-14.25c4-1.67,8.29-3.96,12.88-6.88,4.58-2.91,8.38-5.88,11.38-8.88,6.83-5.83,12.12-12.04,15.88-18.62,3.75-6.58,6.5-13.88,8.25-21.88s2.88-16.83,3.38-26.5c.5-9.66.75-20.5.75-32.5,0-4-.04-9.12-.12-15.38-.09-6.25-.25-12.75-.5-19.5s-.46-12.88-.62-18.38c-.17-5.5-.34-9.5-.5-12-.17-3-.54-5.75-1.12-8.25-.59-2.5-1.04-4.75-1.38-6.75h23.25ZM177.75,7.75c2.33,4.5,4.91,10.09,7.75,16.75,2.83,6.67,5.08,12.59,6.75,17.75l-12.5,4.5c-1.84-5.5-4.04-11.54-6.62-18.12-2.59-6.58-5.04-12.29-7.38-17.12l12-3.75ZM202.75,0c2.33,4.5,4.96,10.09,7.88,16.75,2.91,6.67,5.29,12.5,7.12,17.5l-12.5,4.5c-2-5.66-4.25-11.71-6.75-18.12-2.5-6.41-5.09-11.96-7.75-16.62l12-4Z" style="fill: #231f20; stroke-width: 0px;"/>
</svg>