<?xml version="1.0" encoding="UTF-8"?>
<svg id="Layer_1" data-name="Layer 1" xmlns="http://www.w3.org/2000/svg" viewBox="0 0 204.75 219.75">
  <path d="M25.5,138.75c-1.67,4.84-2.92,9.62-3.75,14.38-.84,4.75-1.25,9.38-1.25,13.88,0,9.67,4.88,17.46,14.62,23.38,9.75,5.92,24.62,8.88,44.62,8.88,11.66,0,22.79-.38,33.38-1.12,10.58-.75,20.33-1.88,29.25-3.38,8.91-1.5,16.54-3.25,22.88-5.25l.25,21.5c-6,1.5-13.38,2.96-22.12,4.38-8.75,1.41-18.46,2.5-29.12,3.25-10.67.75-22,1.12-34,1.12-16.84,0-31.25-1.84-43.25-5.5s-21.17-9.08-27.5-16.25c-6.34-7.16-9.5-16-9.5-26.5,0-6.5.58-12.66,1.75-18.5,1.16-5.83,2.33-11.25,3.5-16.25l20.25,2ZM15.5,38c9,1,19.12,1.75,30.38,2.25s23.12.75,35.62.75c8,0,16.04-.16,24.12-.5,8.08-.33,15.83-.75,23.25-1.25,7.41-.5,14.12-1.08,20.12-1.75v20.5c-5.67.5-12.25,1-19.75,1.5s-15.38.88-23.62,1.12-16.21.38-23.88.38c-12.67,0-24.42-.25-35.25-.75-10.84-.5-21.17-1.16-31-2v-20.25ZM156,10c2.16,3,4.5,6.54,7,10.62,2.5,4.09,4.96,8.25,7.38,12.5,2.41,4.25,4.46,8.04,6.12,11.38l-13.5,6.25c-2.5-5.16-5.67-11.08-9.5-17.75-3.84-6.66-7.5-12.41-11-17.25l13.5-5.75ZM183.5,0c2.33,3.17,4.83,6.84,7.5,11,2.66,4.17,5.25,8.29,7.75,12.38,2.5,4.09,4.5,7.71,6,10.88l-13.75,6c-2.67-5.5-5.88-11.46-9.62-17.88-3.75-6.41-7.46-11.96-11.12-16.62l13.25-5.75Z" style="fill: #231f20; stroke-width: 0px;"/>
</svg>