<?xml version="1.0" encoding="UTF-8"?>
<svg id="Layer_1" data-name="Layer 1" xmlns="http://www.w3.org/2000/svg" viewBox="0 0 163.14 217.25">
  <path d="M124.89,16.5c-2.67,2-5.67,4.46-9,7.38-3.34,2.92-6.09,5.21-8.25,6.88-4.34,3.84-9.59,8.29-15.75,13.38-6.17,5.09-12.71,10.42-19.62,16-6.92,5.59-13.54,10.92-19.88,16-6.34,5.09-11.75,9.62-16.25,13.62-5,4.34-8.38,7.88-10.12,10.62s-1.71,5.54.12,8.38c1.83,2.84,5.41,6.59,10.75,11.25,4.5,3.67,9.75,7.96,15.75,12.88,6,4.92,12.41,10.21,19.25,15.88,6.83,5.67,13.71,11.5,20.62,17.5,6.91,6,13.62,11.92,20.12,17.75,6.5,5.84,12.41,11.42,17.75,16.75l-17.75,16.5c-2.67-3-5.46-6.04-8.38-9.12-2.92-3.09-5.88-6.12-8.88-9.12-4.34-4.5-9.79-9.75-16.38-15.75-6.59-6-13.59-12.25-21-18.75-7.42-6.5-14.71-12.79-21.88-18.88-7.17-6.08-13.75-11.54-19.75-16.38-7.84-6.66-12.84-12.54-15-17.62-2.17-5.08-1.79-10.12,1.12-15.12,2.91-5,8.12-10.58,15.62-16.75,4.83-4,10.54-8.66,17.12-14,6.58-5.33,13.46-10.96,20.62-16.88,7.16-5.91,13.91-11.66,20.25-17.25,6.33-5.58,11.58-10.54,15.75-14.88,2.5-2.5,5.16-5.33,8-8.5,2.83-3.16,4.91-5.91,6.25-8.25l18.75,16.5ZM111.89,58.75c2.16,3.17,4.58,7,7.25,11.5,2.66,4.5,5.29,9.04,7.88,13.62,2.58,4.59,4.79,8.46,6.62,11.62l-14,6c-1.67-3.5-3.75-7.46-6.25-11.88-2.5-4.41-5.04-8.91-7.62-13.5-2.59-4.58-4.96-8.46-7.12-11.62l13.25-5.75ZM141.14,47.5c2.16,2.84,4.62,6.46,7.38,10.88,2.75,4.42,5.46,8.84,8.12,13.25,2.66,4.42,4.83,8.38,6.5,11.88l-13.5,6c-2-3.5-4.29-7.46-6.88-11.88-2.59-4.41-5.17-8.79-7.75-13.12-2.59-4.33-5.04-8-7.38-11l13.5-6Z" style="fill: #231f20; stroke-width: 0px;"/>
</svg>