<?xml version="1.0" encoding="UTF-8"?>
<svg id="Layer_1" data-name="Layer 1" xmlns="http://www.w3.org/2000/svg" viewBox="0 0 382.01 229.75">
  <path d="M0,91c14.33,1.5,28.38,2.46,42.12,2.88,13.75.42,26.83.38,39.25-.12,12.41-.5,23.46-1.33,33.12-2.5,11.83-1.33,22.66-3.08,32.5-5.25,9.83-2.16,18.08-4.33,24.75-6.5l3,18.75c-6.67,1.84-14.62,3.67-23.88,5.5-9.25,1.84-19.12,3.34-29.62,4.5-10.17,1.17-21.88,2.09-35.12,2.75-13.25.67-27.12.88-41.62.62s-29-.88-43.5-1.88l-1-18.75ZM5,39.75c17.33,2,33.96,3.17,49.88,3.5,15.91.34,30.29-.08,43.12-1.25,10.33-1,20.08-2.46,29.25-4.38,9.16-1.91,17.33-4.04,24.5-6.38l2.75,18.25c-7,1.84-14.96,3.62-23.88,5.38-8.92,1.75-18.38,3.12-28.38,4.12-12.67,1.17-27.38,1.71-44.12,1.62-16.75-.08-34.12-.96-52.12-2.62l-1-18.25ZM36.25,144.75c-3,4.34-5.46,8.75-7.38,13.25-1.92,4.5-2.88,9.59-2.88,15.25,0,10.17,4.66,17.88,14,23.12,9.33,5.25,23.83,7.88,43.5,7.88,11.66,0,22.25-.46,31.75-1.38,9.5-.91,18.83-2.29,28-4.12l-1,20c-8.67,1.33-17.88,2.41-27.62,3.25-9.75.83-20.04,1.25-30.88,1.25-16.34,0-30.17-1.67-41.5-5-11.34-3.34-20-8.46-26-15.38-6-6.91-9.09-15.71-9.25-26.38,0-7.16.96-13.54,2.88-19.12,1.91-5.58,4.21-11.12,6.88-16.62l19.5,4ZM85.5,36.5c-1-3.83-2.09-7.62-3.25-11.38-1.17-3.75-2.42-7.38-3.75-10.88l21.25-2.75c.83,7,2.16,14.29,4,21.88,1.83,7.59,3.88,15,6.12,22.25s4.38,13.88,6.38,19.88c2.33,6.34,5.04,13.17,8.12,20.5,3.08,7.34,6.54,14.59,10.38,21.75,3.83,7.17,7.91,14,12.25,20.5,1.33,2,2.79,3.88,4.38,5.62,1.58,1.75,3.29,3.46,5.12,5.12l-10.5,15.25c-4.67-1.33-10.17-2.46-16.5-3.38-6.34-.91-12.79-1.75-19.38-2.5-6.59-.75-12.79-1.46-18.62-2.12l1.5-15c6.66.5,13.62,1.17,20.88,2,7.25.84,12.79,1.5,16.62,2-6.84-10.66-12.92-21.79-18.25-33.38-5.34-11.58-9.84-22.46-13.5-32.62-2-5.66-3.79-10.96-5.38-15.88-1.59-4.91-3-9.62-4.25-14.12s-2.46-8.75-3.62-12.75ZM159.5,10c3,4.17,6.54,9.59,10.62,16.25,4.08,6.67,7.46,12.84,10.12,18.5l-13,6c-2.84-6-5.96-12.08-9.38-18.25-3.42-6.16-7.04-11.83-10.88-17l12.5-5.5ZM186,0c2,2.67,4.33,6,7,10,2.66,4,5.25,8.12,7.75,12.38s4.75,8.21,6.75,11.88l-13,6.25c-3-6.16-6.25-12.21-9.75-18.12-3.5-5.91-7.25-11.46-11.25-16.62l12.5-5.75Z" style="fill: #231f20; stroke-width: 0px;"/>
  <path d="M200.26,129.5c3.83-.83,7.33-1.75,10.5-2.75,3.16-1,5.58-1.83,7.25-2.5,5.66-2.33,12.25-5.16,19.75-8.5,7.5-3.33,15.5-6.83,24-10.5,8.5-3.66,17.08-7.12,25.75-10.38,8.66-3.25,17-5.91,25-8,8-2.08,15.16-3.12,21.5-3.12,11,0,20.04,1.92,27.12,5.75,7.08,3.84,12.33,8.79,15.75,14.88,3.41,6.09,5.12,12.71,5.12,19.88,0,12.84-4,23.25-12,31.25s-20.67,12-38,12c-5.5,0-11.12-.66-16.88-2-5.75-1.33-10.46-2.75-14.12-4.25l.75-18.25c4,1.84,8.62,3.46,13.88,4.88,5.25,1.42,10.38,2.12,15.38,2.12,8.16,0,14.58-1.21,19.25-3.62,4.66-2.41,8-5.62,10-9.62s3-8.16,3-12.5c0-3.66-.96-7.25-2.88-10.75-1.92-3.5-5-6.41-9.25-8.75-4.25-2.33-10.21-3.5-17.88-3.5-6.5,0-14.21,1.29-23.12,3.88-8.92,2.59-18.25,5.88-28,9.88s-19.29,8.29-28.62,12.88c-9.34,4.59-17.79,8.75-25.38,12.5-7.59,3.75-13.62,6.62-18.12,8.62l-9.75-19.5ZM241.76,70.25c1,2,2.04,4.04,3.12,6.12,1.08,2.09,2.04,3.96,2.88,5.62,2.33,4.34,5.21,9.88,8.62,16.62,3.41,6.75,6.88,13.79,10.38,21.12,3.5,7.34,6.5,14.09,9,20.25,2.83,6.34,5.66,13.25,8.5,20.75,2.83,7.5,5.58,15.09,8.25,22.75,2.66,7.67,5.21,15.04,7.62,22.12,2.41,7.08,4.46,13.29,6.12,18.62l-19.75,5.5c-2.17-8-4.71-16.71-7.62-26.12-2.92-9.41-6.04-18.96-9.38-28.62-3.34-9.66-6.84-18.75-10.5-27.25-3.17-7.16-6.42-14.33-9.75-21.5-3.34-7.16-6.46-13.75-9.38-19.75-2.92-6-5.54-10.75-7.88-14.25-1.17-2-2.71-4.38-4.62-7.12-1.92-2.75-3.79-5.12-5.62-7.12l20-7.75ZM302.01,85.75c-3.67-3.83-7.92-7.96-12.75-12.38-4.84-4.41-9.67-8.21-14.5-11.38l14-10.5c2.16,1.5,4.96,3.67,8.38,6.5,3.41,2.84,6.79,5.75,10.12,8.75,3.33,3,6.16,5.75,8.5,8.25l-13.75,10.75Z" style="fill: #231f20; stroke-width: 0px;"/>
</svg>