<?xml version="1.0" encoding="UTF-8"?>
<svg id="Layer_1" data-name="Layer 1" xmlns="http://www.w3.org/2000/svg" viewBox="0 0 208.75 202">
  <path d="M35,1.75c-.5,1.34-1.04,3.04-1.62,5.12-.59,2.09-1.09,4.21-1.5,6.38-.42,2.17-.79,4-1.12,5.5-1,4.67-2.04,10.21-3.12,16.62-1.09,6.42-2.21,13.34-3.38,20.75-1.17,7.42-2.21,14.92-3.12,22.5-.92,7.59-1.62,14.88-2.12,21.88s-.75,13.34-.75,19c0,6,.21,11.75.62,17.25.41,5.5,1.04,11.34,1.88,17.5,1.33-3.83,2.83-7.91,4.5-12.25,1.66-4.33,3.38-8.66,5.12-13,1.75-4.33,3.29-8.16,4.62-11.5l10.25,8c-2,5.67-4.21,12.04-6.62,19.12-2.42,7.09-4.67,13.84-6.75,20.25-2.09,6.42-3.54,11.71-4.38,15.88-.34,1.67-.62,3.59-.88,5.75-.25,2.17-.29,4-.12,5.5,0,1.16.04,2.58.12,4.25.08,1.66.21,3.16.38,4.5l-17.5,1.25c-2.5-9-4.71-20.21-6.62-33.62-1.92-13.41-2.88-28.54-2.88-45.38,0-9.33.46-19.04,1.38-29.12.91-10.08,2-19.96,3.25-29.62,1.25-9.66,2.5-18.54,3.75-26.62,1.25-8.08,2.29-14.71,3.12-19.88.33-2.83.66-5.83,1-9,.33-3.16.5-6.08.5-8.75l22,1.75ZM158.5.25c-.34,2.5-.62,5-.88,7.5s-.46,5-.62,7.5c-.17,3-.34,6.84-.5,11.5-.17,4.67-.25,9.62-.25,14.88v15.38c0,9.5.16,19,.5,28.5.33,9.5.75,18.75,1.25,27.75s.96,17.46,1.38,25.38c.41,7.92.62,15.12.62,21.62,0,5-.71,9.92-2.12,14.75-1.42,4.84-3.75,9.17-7,13-3.25,3.84-7.67,6.88-13.25,9.12-5.59,2.25-12.54,3.38-20.88,3.38-16.84,0-29.71-3.17-38.62-9.5-8.92-6.33-13.38-15.08-13.38-26.25,0-7,2.04-13.38,6.12-19.12,4.08-5.75,9.91-10.29,17.5-13.62,7.58-3.33,16.88-5,27.88-5s20.46,1.21,29.38,3.62c8.91,2.42,17.16,5.59,24.75,9.5,7.58,3.92,14.54,8.25,20.88,13,6.33,4.75,12.16,9.46,17.5,14.12l-11,16.75c-8.67-8.33-17.38-15.58-26.12-21.75-8.75-6.16-17.79-11-27.12-14.5-9.34-3.5-19.25-5.25-29.75-5.25-9.5,0-17.21,1.88-23.12,5.62-5.92,3.75-8.88,8.62-8.88,14.62,0,6.34,2.83,11.21,8.5,14.62,5.66,3.42,13,5.12,22,5.12,7.16,0,12.71-1.16,16.62-3.5,3.91-2.33,6.66-5.5,8.25-9.5,1.58-4,2.38-8.75,2.38-14.25,0-4.5-.17-10.58-.5-18.25-.34-7.66-.75-16.04-1.25-25.12-.5-9.08-.92-18.38-1.25-27.88-.34-9.5-.5-18.41-.5-26.75V15.5c0-2.16-.09-4.71-.25-7.62-.17-2.91-.42-5.46-.75-7.62h22.5ZM71,45c7.16.67,14.16,1.17,21,1.5,6.83.34,14,.5,21.5.5,15,0,29.91-.58,44.75-1.75,14.83-1.16,28.58-3,41.25-5.5v19.25c-13.34,2.17-27.38,3.75-42.12,4.75s-29.54,1.59-44.38,1.75c-7.17,0-14.12-.16-20.88-.5-6.75-.33-13.79-.75-21.12-1.25v-18.75Z" style="fill: #231f20; stroke-width: 0px;"/>
</svg>