<?xml version="1.0" encoding="UTF-8"?>
<svg id="Layer_1" data-name="Layer 1" xmlns="http://www.w3.org/2000/svg" viewBox="0 0 223.75 149.61">
  <path d="M0,90.36c3.16-2.5,6.12-5.04,8.88-7.62,2.75-2.58,5.79-5.54,9.12-8.88,3.33-3.5,7.04-7.71,11.12-12.62,4.08-4.91,8.33-10.16,12.75-15.75,4.41-5.58,8.79-11.12,13.12-16.62,4.33-5.5,8.33-10.41,12-14.75C74.33,5.61,81.46.95,88.38.11c6.91-.83,14.46,2.92,22.62,11.25,5.16,5.17,10.58,11.12,16.25,17.88,5.66,6.75,11.46,13.54,17.38,20.38,5.91,6.84,11.46,13.17,16.62,19,3.83,4.17,8.16,8.84,13,14,4.83,5.17,10,10.54,15.5,16.12,5.5,5.59,11.12,11.21,16.88,16.88,5.75,5.67,11.46,10.92,17.12,15.75l-16,18.25c-6.17-6-12.71-12.62-19.62-19.88-6.92-7.25-13.71-14.62-20.38-22.12-6.67-7.5-12.92-14.41-18.75-20.75-5.34-6.16-10.88-12.71-16.62-19.62-5.75-6.91-11.25-13.54-16.5-19.88-5.25-6.33-9.79-11.66-13.62-16-3.67-3.83-6.75-6.25-9.25-7.25s-4.88-.79-7.12.62c-2.25,1.42-4.88,3.88-7.88,7.38-2.84,3.67-6.17,8-10,13-3.84,5-7.84,10.17-12,15.5-4.17,5.34-8.21,10.59-12.12,15.75-3.92,5.17-7.46,9.67-10.62,13.5-2.5,3.34-5.12,6.71-7.88,10.12-2.75,3.42-5.04,6.46-6.88,9.12L0,90.36Z" style="fill: #231f20; stroke-width: 0px;"/>
</svg>