<?xml version="1.0" encoding="UTF-8"?>
<svg id="Layer_1" data-name="Layer 1" xmlns="http://www.w3.org/2000/svg" viewBox="0 0 378 200.75">
  <path d="M0,13.25c3.83.34,8.25.34,13.25,0,5.66-.16,12.25-.66,19.75-1.5,7.5-.83,15.08-1.83,22.75-3,7.66-1.16,14.79-2.41,21.38-3.75,6.58-1.33,11.71-2.75,15.38-4.25l5.75,17.75c-1.67.34-3.84.92-6.5,1.75-2.67.84-4.92,1.75-6.75,2.75-3.17,2.34-7.04,5.84-11.62,10.5-4.59,4.67-9.34,10.38-14.25,17.12-4.92,6.75-9.5,14.29-13.75,22.62-4.25,8.34-7.71,17.25-10.38,26.75-2.67,9.5-4,19.42-4,29.75,0,8.84,1.29,16.25,3.88,22.25,2.58,6,6.21,10.84,10.88,14.5,4.66,3.67,9.91,6.34,15.75,8,5.83,1.67,11.91,2.5,18.25,2.5,20,0,35.54-6.71,46.62-20.12,11.08-13.41,17.79-32.29,20.12-56.62,2.33-24.33.33-52.83-6-85.5l18.5,34c2.5,14.17,3.88,28.38,4.12,42.62s-1.09,27.71-4,40.38c-2.92,12.67-7.62,23.92-14.12,33.75-6.5,9.84-15.17,17.59-26,23.25-10.84,5.66-24.09,8.5-39.75,8.5-9.84,0-18.88-1.38-27.12-4.12s-15.46-6.75-21.62-12c-6.17-5.25-10.92-11.83-14.25-19.75-3.34-7.91-5-17.04-5-27.38,0-11.66,1.41-22.66,4.25-33,2.83-10.33,6.5-19.96,11-28.88,4.5-8.91,9.5-17.21,15-24.88,5.5-7.66,11-14.58,16.5-20.75-4.34.67-9.21,1.38-14.62,2.12-5.42.75-10.62,1.42-15.62,2-5,.59-9.09,1.12-12.25,1.62-2.34.17-4.62.42-6.88.75-2.25.34-4.62.75-7.12,1.25L0,13.25ZM156.25,0c1.33,7.5,3.12,15.67,5.38,24.5,2.25,8.84,5.33,17.92,9.25,27.25,3.91,9.34,9,18.62,15.25,27.88s13.96,17.96,23.12,26.12l-13,17.75c-9.17-9.83-17.34-20.62-24.5-32.38-7.17-11.75-13.59-24.71-19.25-38.88-5.67-14.16-11-29.75-16-46.75l19.75-5.5Z" style="fill: #231f20; stroke-width: 0px;"/>
  <path d="M314.25,29.5c-.34,1.84-.67,4.84-1,9-.34,4.17-.5,8-.5,11.5v41.25c0,5.34.12,11.59.38,18.75.25,7.17.58,14.54,1,22.12.41,7.59.79,14.71,1.12,21.38.33,6.67.5,12.17.5,16.5,0,5.34-1.25,10.34-3.75,15s-6.46,8.46-11.88,11.38c-5.42,2.91-12.79,4.38-22.12,4.38s-18.34-1.29-26-3.88c-7.67-2.59-13.62-6.34-17.88-11.25s-6.38-11.04-6.38-18.38c0-10.33,4.58-18.62,13.75-24.88,9.16-6.25,22.33-9.38,39.5-9.38,10.5,0,20.5,1.21,30,3.62,9.5,2.42,18.41,5.62,26.75,9.62,8.33,4,15.88,8.34,22.62,13,6.75,4.67,12.62,9.34,17.62,14l-10.5,17.5c-5-5.17-10.75-10.25-17.25-15.25s-13.54-9.54-21.12-13.62c-7.59-4.08-15.59-7.33-24-9.75-8.42-2.41-17.12-3.62-26.12-3.62-10,0-18.09,1.54-24.25,4.62-6.17,3.09-9.25,7.54-9.25,13.38,0,4.84,2.66,8.88,8,12.12,5.33,3.25,12.83,4.88,22.5,4.88,6.83,0,12-1.79,15.5-5.38,3.5-3.58,5.25-8.29,5.25-14.12,0-4.33-.12-9.54-.38-15.62-.25-6.08-.54-12.58-.88-19.5-.34-6.91-.62-13.79-.88-20.62-.25-6.83-.38-12.91-.38-18.25v-39.75c0-3.83-.17-7.79-.5-11.88-.34-4.08-.75-7.04-1.25-8.88h21.75ZM303.75,68c3.33,0,7.88-.12,13.62-.38s12.04-.54,18.88-.88c6.83-.33,13.66-.75,20.5-1.25,6.83-.5,12.91-1.08,18.25-1.75l.25,17.5c-5.17.67-11.12,1.21-17.88,1.62-6.75.42-13.59.79-20.5,1.12-6.92.34-13.25.59-19,.75-5.75.17-10.46.25-14.12.25v-17Z" style="fill: #231f20; stroke-width: 0px;"/>
</svg>