<?xml version="1.0" encoding="UTF-8"?>
<svg id="Layer_1" data-name="Layer 1" xmlns="http://www.w3.org/2000/svg" viewBox="0 0 404.25 205.75">
  <path d="M0,13.25c3.83.34,8.25.34,13.25,0,5.66-.16,12.25-.66,19.75-1.5,7.5-.83,15.08-1.83,22.75-3,7.66-1.16,14.79-2.41,21.38-3.75,6.58-1.33,11.71-2.75,15.38-4.25l5.75,17.75c-1.67.34-3.84.92-6.5,1.75-2.67.84-4.92,1.75-6.75,2.75-3.17,2.34-7.04,5.84-11.62,10.5-4.59,4.67-9.34,10.38-14.25,17.12-4.92,6.75-9.5,14.29-13.75,22.62-4.25,8.34-7.71,17.25-10.38,26.75-2.67,9.5-4,19.42-4,29.75,0,8.84,1.29,16.25,3.88,22.25,2.58,6,6.21,10.84,10.88,14.5,4.66,3.67,9.91,6.34,15.75,8,5.83,1.67,11.91,2.5,18.25,2.5,20,0,35.54-6.71,46.62-20.12,11.08-13.41,17.79-32.29,20.12-56.62,2.33-24.33.33-52.83-6-85.5l18.5,34c2.5,14.17,3.88,28.38,4.12,42.62s-1.09,27.71-4,40.38c-2.92,12.67-7.62,23.92-14.12,33.75-6.5,9.84-15.17,17.59-26,23.25-10.84,5.66-24.09,8.5-39.75,8.5-9.84,0-18.88-1.38-27.12-4.12s-15.46-6.75-21.62-12c-6.17-5.25-10.92-11.83-14.25-19.75-3.34-7.91-5-17.04-5-27.38,0-11.66,1.41-22.66,4.25-33,2.83-10.33,6.5-19.96,11-28.88,4.5-8.91,9.5-17.21,15-24.88,5.5-7.66,11-14.58,16.5-20.75-4.34.67-9.21,1.38-14.62,2.12-5.42.75-10.62,1.42-15.62,2-5,.59-9.09,1.12-12.25,1.62-2.34.17-4.62.42-6.88.75-2.25.34-4.62.75-7.12,1.25L0,13.25ZM156.25,0c1.33,7.5,3.12,15.67,5.38,24.5,2.25,8.84,5.33,17.92,9.25,27.25,3.91,9.34,9,18.62,15.25,27.88s13.96,17.96,23.12,26.12l-13,17.75c-9.17-9.83-17.34-20.62-24.5-32.38-7.17-11.75-13.59-24.71-19.25-38.88-5.67-14.16-11-29.75-16-46.75l19.75-5.5Z" style="fill: #231f20; stroke-width: 0px;"/>
  <path d="M266,43c-.5,1.5-1,3.17-1.5,5-.5,1.84-1,3.5-1.5,5-.67,3.34-1.42,7.5-2.25,12.5-.84,5-1.59,10.34-2.25,16-.67,5.67-1.17,11.17-1.5,16.5-.34,5.34-.42,10-.25,14,5-11.83,11.91-21.96,20.75-30.38,8.83-8.41,18.79-14.91,29.88-19.5,11.08-4.58,22.38-6.88,33.88-6.88,13.83,0,25.41,2.5,34.75,7.5,9.33,5,16.38,11.71,21.12,20.12,4.75,8.42,7.12,17.79,7.12,28.12,0,11.17-2.34,21.5-7,31-4.67,9.5-11.75,17.04-21.25,22.62-9.5,5.59-21.75,8.38-36.75,8.38-8,0-15.71-1.41-23.12-4.25-7.42-2.83-14.17-7-20.25-12.5-6.09-5.5-11.12-12.25-15.12-20.25l10.5-14.5c4.83,10.17,11.21,18.25,19.12,24.25,7.91,6,17.54,9,28.88,9,10.66,0,19.46-1.88,26.38-5.62,6.91-3.75,12.04-8.88,15.38-15.38,3.33-6.5,5-13.91,5-22.25,0-7.33-1.5-14-4.5-20s-7.84-10.79-14.5-14.38c-6.67-3.58-15.42-5.38-26.25-5.38s-21,1.88-30,5.62-16.88,8.75-23.62,15-12.29,13.12-16.62,20.62c-4.34,7.5-7.25,15-8.75,22.5-.34,1.67-.67,3.59-1,5.75-.34,2.17-.42,4.42-.25,6.75,0,1.5.16,3.54.5,6.12.33,2.59.71,5.17,1.12,7.75.41,2.59.79,4.71,1.12,6.38l-16.75,2.5c-2-6.33-3.71-14.29-5.12-23.88-1.42-9.58-2.12-19.38-2.12-29.38,0-6,.25-12.29.75-18.88.5-6.58,1.04-12.91,1.62-19,.58-6.08,1.16-11.58,1.75-16.5.58-4.91,1.12-8.79,1.62-11.62.16-1.83.25-3.66.25-5.5s-.09-3.41-.25-4.75l21,1.75ZM338.5,31c1,4.67,2,10.88,3,18.62s1.88,16.38,2.62,25.88,1.12,19.17,1.12,29c0,14.5-1.25,28.09-3.75,40.75-2.5,12.67-6.88,24.12-13.12,34.38s-14.88,18.96-25.88,26.12l-17-10.5c8.16-4.67,15-10.17,20.5-16.5s9.83-13.41,13-21.25c3.16-7.83,5.41-16.29,6.75-25.38,1.33-9.08,2-18.62,2-28.62,0-14.66-.62-27.04-1.88-37.12-1.25-10.08-2.38-17.88-3.38-23.38-.5-2.16-1.09-4.21-1.75-6.12-.67-1.91-1.25-3.71-1.75-5.38l19.5-.5Z" style="fill: #231f20; stroke-width: 0px;"/>
</svg>