<?xml version="1.0" encoding="UTF-8"?>
<svg id="Layer_1" data-name="Layer 1" xmlns="http://www.w3.org/2000/svg" viewBox="0 0 198.5 177.25">
  <path d="M24.25.5c-.34,2-.62,4.5-.88,7.5l-.75,9c-.25,3-.38,5.59-.38,7.75-.17,5.17-.21,11.04-.12,17.62.08,6.59.25,13.42.5,20.5.25,7.09.71,14.12,1.38,21.12,1.33,13.84,3.58,25.96,6.75,36.38,3.16,10.42,7.04,18.54,11.62,24.38,4.58,5.84,9.79,8.75,15.62,8.75,3.16,0,6.25-1.46,9.25-4.38,3-2.91,5.88-6.83,8.62-11.75,2.75-4.91,5.25-10.41,7.5-16.5,2.25-6.08,4.12-12.21,5.62-18.38l15.75,17.75c-5,14.17-10.04,25.38-15.12,33.62-5.09,8.25-10.25,14.21-15.5,17.88s-10.71,5.5-16.38,5.5c-7.84,0-15.42-2.88-22.75-8.62-7.34-5.75-13.67-15.08-19-28-5.34-12.91-9.17-30.12-11.5-51.62-.84-7.33-1.46-15.25-1.88-23.75-.42-8.5-.67-16.58-.75-24.25-.09-7.66-.12-13.91-.12-18.75,0-2.83-.09-6.5-.25-11C1.33,6.75.83,3,0,0l24.25.5ZM154.5,7.5c4.5,5.67,8.79,12.29,12.88,19.88,4.08,7.59,7.83,15.67,11.25,24.25,3.41,8.59,6.5,17.46,9.25,26.62,2.75,9.17,5,18.29,6.75,27.38,1.75,9.09,3.04,17.79,3.88,26.12l-20,8.25c-1-11.33-2.75-22.88-5.25-34.62s-5.59-23.16-9.25-34.25c-3.67-11.08-7.92-21.54-12.75-31.38-4.84-9.83-10.25-18.33-16.25-25.5l19.5-6.75Z" style="fill: #231f20; stroke-width: 0px;"/>
</svg>