<?xml version="1.0" encoding="UTF-8"?>
<svg id="Layer_1" data-name="Layer 1" xmlns="http://www.w3.org/2000/svg" viewBox="0 0 165.25 207.75">
  <path d="M25.75.25c-.5,4.17-.96,8.34-1.38,12.5-.42,4.17-.71,8.42-.88,12.75-.17,7-.46,15.67-.88,26-.42,10.34-.75,21.29-1,32.88-.25,11.59-.5,23.12-.75,34.62s-.38,21.84-.38,31,1.75,16.46,5.25,21.88c3.5,5.42,8.33,9.34,14.5,11.75,6.16,2.42,13.25,3.62,21.25,3.62,11.33,0,21.58-1.46,30.75-4.38,9.16-2.91,17.33-6.83,24.5-11.75,7.16-4.91,13.54-10.46,19.12-16.62,5.58-6.16,10.62-12.5,15.12-19l14.25,17c-4.34,5.84-9.62,12-15.88,18.5s-13.62,12.5-22.12,18-18.25,10-29.25,13.5-23.34,5.25-37,5.25c-12,0-22.59-1.84-31.75-5.5-9.17-3.67-16.34-9.58-21.5-17.75-5.17-8.16-7.75-19-7.75-32.5,0-7.5.08-15.79.25-24.88.16-9.08.41-18.46.75-28.12.33-9.66.62-19.12.88-28.38s.46-17.79.62-25.62c.16-7.83.25-14.33.25-19.5,0-4.83-.17-9.38-.5-13.62C1.91,7.62,1.33,3.67.5,0l25.25.25ZM95,20.75c2.16,2.84,4.75,6.67,7.75,11.5,3,4.84,5.96,9.75,8.88,14.75,2.91,5,5.38,9.5,7.38,13.5l-14.75,6.75c-2.17-4.5-4.54-9.12-7.12-13.88-2.59-4.75-5.25-9.41-8-14-2.75-4.58-5.54-8.79-8.38-12.62l14.25-6ZM127.25,8c2.33,2.84,5.04,6.59,8.12,11.25,3.08,4.67,6.12,9.5,9.12,14.5s5.5,9.42,7.5,13.25l-14.5,7c-2.17-4.33-4.59-8.83-7.25-13.5-2.67-4.66-5.46-9.25-8.38-13.75-2.92-4.5-5.79-8.58-8.62-12.25l14-6.5Z" style="fill: #231f20; stroke-width: 0px;"/>
</svg>