<?xml version="1.0" encoding="UTF-8"?>
<svg id="Layer_1" data-name="Layer 1" xmlns="http://www.w3.org/2000/svg" viewBox="0 0 369 214.25">
  <path d="M25.75.25c-.5,4.17-.96,8.34-1.38,12.5-.42,4.17-.71,8.42-.88,12.75-.17,7-.46,15.67-.88,26-.42,10.34-.75,21.29-1,32.88-.25,11.59-.5,23.12-.75,34.62s-.38,21.84-.38,31,1.75,16.46,5.25,21.88c3.5,5.42,8.33,9.34,14.5,11.75,6.16,2.42,13.25,3.62,21.25,3.62,11.33,0,21.58-1.46,30.75-4.38,9.16-2.91,17.33-6.83,24.5-11.75,7.16-4.91,13.54-10.46,19.12-16.62,5.58-6.16,10.62-12.5,15.12-19l14.25,17c-4.34,5.84-9.62,12-15.88,18.5s-13.62,12.5-22.12,18-18.25,10-29.25,13.5-23.34,5.25-37,5.25c-12,0-22.59-1.84-31.75-5.5-9.17-3.67-16.34-9.58-21.5-17.75-5.17-8.16-7.75-19-7.75-32.5,0-7.5.08-15.79.25-24.88.16-9.08.41-18.46.75-28.12.33-9.66.62-19.12.88-28.38s.46-17.79.62-25.62c.16-7.83.25-14.33.25-19.5,0-4.83-.17-9.38-.5-13.62C1.91,7.62,1.33,3.67.5,0l25.25.25ZM95,20.75c2.16,2.84,4.75,6.67,7.75,11.5,3,4.84,5.96,9.75,8.88,14.75,2.91,5,5.38,9.5,7.38,13.5l-14.75,6.75c-2.17-4.5-4.54-9.12-7.12-13.88-2.59-4.75-5.25-9.41-8-14-2.75-4.58-5.54-8.79-8.38-12.62l14.25-6ZM127.25,8c2.33,2.84,5.04,6.59,8.12,11.25,3.08,4.67,6.12,9.5,9.12,14.5s5.5,9.42,7.5,13.25l-14.5,7c-2.17-4.33-4.59-8.83-7.25-13.5-2.67-4.66-5.46-9.25-8.38-13.75-2.92-4.5-5.79-8.58-8.62-12.25l14-6.5Z" style="fill: #231f20; stroke-width: 0px;"/>
  <path d="M230.75,51.5c-.5,1.5-1,3.17-1.5,5-.5,1.84-1,3.5-1.5,5-.67,3.34-1.42,7.5-2.25,12.5-.84,5-1.59,10.34-2.25,16-.67,5.67-1.17,11.17-1.5,16.5-.34,5.34-.42,10-.25,14,5-11.83,11.91-21.96,20.75-30.38,8.83-8.41,18.79-14.91,29.88-19.5,11.08-4.58,22.38-6.88,33.88-6.88,13.83,0,25.41,2.5,34.75,7.5,9.33,5,16.38,11.71,21.12,20.12,4.75,8.42,7.12,17.79,7.12,28.12,0,11.17-2.34,21.5-7,31-4.67,9.5-11.75,17.04-21.25,22.62-9.5,5.59-21.75,8.38-36.75,8.38-8,0-15.71-1.41-23.12-4.25-7.42-2.83-14.17-7-20.25-12.5-6.09-5.5-11.12-12.25-15.12-20.25l10.5-14.5c4.83,10.17,11.21,18.25,19.12,24.25,7.91,6,17.54,9,28.88,9,10.66,0,19.46-1.88,26.38-5.62,6.91-3.75,12.04-8.88,15.38-15.38,3.33-6.5,5-13.91,5-22.25,0-7.33-1.5-14-4.5-20s-7.84-10.79-14.5-14.38c-6.67-3.58-15.42-5.38-26.25-5.38s-21,1.88-30,5.62-16.88,8.75-23.62,15-12.29,13.12-16.62,20.62c-4.34,7.5-7.25,15-8.75,22.5-.34,1.67-.67,3.59-1,5.75-.34,2.17-.42,4.42-.25,6.75,0,1.5.16,3.54.5,6.12.33,2.59.71,5.17,1.12,7.75.41,2.59.79,4.71,1.12,6.38l-16.75,2.5c-2-6.33-3.71-14.29-5.12-23.88-1.42-9.58-2.12-19.38-2.12-29.38,0-6,.25-12.29.75-18.88.5-6.58,1.04-12.91,1.62-19,.58-6.08,1.16-11.58,1.75-16.5.58-4.91,1.12-8.79,1.62-11.62.16-1.83.25-3.66.25-5.5s-.09-3.41-.25-4.75l21,1.75ZM303.25,39.5c1,4.67,2,10.88,3,18.62s1.88,16.38,2.62,25.88,1.12,19.17,1.12,29c0,14.5-1.25,28.09-3.75,40.75-2.5,12.67-6.88,24.12-13.12,34.38s-14.88,18.96-25.88,26.12l-17-10.5c8.16-4.67,15-10.17,20.5-16.5s9.83-13.41,13-21.25c3.16-7.83,5.41-16.29,6.75-25.38,1.33-9.08,2-18.62,2-28.62,0-14.66-.62-27.04-1.88-37.12-1.25-10.08-2.38-17.88-3.38-23.38-.5-2.16-1.09-4.21-1.75-6.12-.67-1.91-1.25-3.71-1.75-5.38l19.5-.5Z" style="fill: #231f20; stroke-width: 0px;"/>
</svg>