<?xml version="1.0" encoding="UTF-8"?>
<svg id="Layer_1" data-name="Layer 1" xmlns="http://www.w3.org/2000/svg" viewBox="0 0 221.75 205.25">
  <path d="M0,57.25c3.83.34,7.5.46,11,.38,3.5-.08,7.25-.21,11.25-.38,3.83-.16,8.66-.46,14.5-.88,5.83-.41,12.21-.88,19.12-1.38,6.91-.5,13.75-1.04,20.5-1.62,6.75-.58,13-1.08,18.75-1.5,5.75-.41,10.29-.62,13.62-.62,7.5,0,14.29,1.17,20.38,3.5,6.08,2.34,10.96,6.59,14.62,12.75,3.66,6.17,5.5,14.84,5.5,26,0,9.84-.46,20.46-1.38,31.88-.92,11.42-2.46,22.29-4.62,32.62-2.17,10.34-5,18.92-8.5,25.75-3.84,8.5-8.84,14.12-15,16.88-6.17,2.75-13.34,4.12-21.5,4.12-4.67,0-9.75-.38-15.25-1.12s-10.25-1.62-14.25-2.62l-3.25-20.75c3.66,1,7.38,1.92,11.12,2.75,3.75.84,7.38,1.42,10.88,1.75,3.5.34,6.41.5,8.75.5,4.5,0,8.62-.79,12.38-2.38,3.75-1.58,6.88-5.04,9.38-10.38,2.66-5.66,4.88-12.79,6.62-21.38,1.75-8.58,3.08-17.71,4-27.38.91-9.66,1.38-18.91,1.38-27.75,0-7.83-1.09-13.62-3.25-17.38-2.17-3.75-5.25-6.33-9.25-7.75-4-1.41-8.67-2.12-14-2.12-4.34,0-10.09.29-17.25.88-7.17.59-14.79,1.29-22.88,2.12-8.09.84-15.62,1.62-22.62,2.38s-12.42,1.38-16.25,1.88c-2.84.34-6.46.79-10.88,1.38-4.42.59-8.29,1.12-11.62,1.62L0,57.25ZM90,2.5c-.5,2.17-1,4.54-1.5,7.12-.5,2.59-1,5.12-1.5,7.62-.5,3-1.21,7.09-2.12,12.25-.92,5.17-1.88,10.62-2.88,16.38s-2.17,11.21-3.5,16.38c-1.67,7.17-3.75,15.21-6.25,24.12-2.5,8.92-5.34,18.38-8.5,28.38-3.17,10-6.75,20.21-10.75,30.62-4,10.42-8.42,20.75-13.25,31-4.84,10.25-10.09,19.88-15.75,28.88l-20.5-8c5.83-7.66,11.21-16.25,16.12-25.75,4.91-9.5,9.46-19.38,13.62-29.62,4.16-10.25,7.96-20.38,11.38-30.38,3.41-10,6.29-19.25,8.62-27.75,2.33-8.5,4.16-15.83,5.5-22,2.33-10,4.25-20.38,5.75-31.12s2.25-20.96,2.25-30.62l23.25,2.5ZM176,29c4,5.17,8.21,11.59,12.62,19.25,4.41,7.67,8.75,15.84,13,24.5,4.25,8.67,8.12,17,11.62,25s6.33,14.92,8.5,20.75l-19.5,9.25c-1.84-6.33-4.34-13.62-7.5-21.88-3.17-8.25-6.79-16.66-10.88-25.25-4.09-8.58-8.34-16.66-12.75-24.25-4.42-7.58-8.88-13.96-13.38-19.12l18.25-8.25Z" style="fill: #231f20; stroke-width: 0px;"/>
</svg>