<?xml version="1.0" encoding="UTF-8"?>
<svg id="Layer_1" data-name="Layer 1" xmlns="http://www.w3.org/2000/svg" viewBox="0 0 200.75 209.75">
  <path d="M34,3.75c-.67,2.34-1.38,5.04-2.12,8.12-.75,3.09-1.46,5.79-2.12,8.12-2,9-3.92,19-5.75,30-1.84,11-3.25,22.42-4.25,34.25-1,11.84-1.34,23.5-1,35,.33,11.5,1.66,22.42,4,32.75,1.83-5.33,3.96-11.5,6.38-18.5,2.41-7,4.79-13.58,7.12-19.75l10.75,6.5c-2,5.67-4.09,12.04-6.25,19.12-2.17,7.09-4.17,13.84-6,20.25-1.84,6.42-3.17,11.71-4,15.88-.5,1.84-.88,3.84-1.12,6-.25,2.17-.29,3.92-.12,5.25.16,1.34.29,2.75.38,4.25.08,1.5.21,2.92.38,4.25l-17,2c-1.67-5-3.54-11.75-5.62-20.25-2.09-8.5-3.88-17.88-5.38-28.12s-2.25-20.54-2.25-30.88c0-13.66.62-26.75,1.88-39.25s2.62-24,4.12-34.5,2.66-19.16,3.5-26c.5-3,.83-6,1-9,.16-3,.25-5.58.25-7.75l23.25,2.25ZM69.25,51.75c3.66.5,7.75,1,12.25,1.5s9.21.84,14.12,1c4.91.17,9.54.25,13.88.25,10.33,0,20.96-.25,31.88-.75,10.91-.5,21.5-1.33,31.75-2.5,10.25-1.16,19.46-2.66,27.62-4.5v20.5c-8,1.17-17.04,2.25-27.12,3.25-10.09,1-20.59,1.71-31.5,2.12-10.92.42-21.71.62-32.38.62-4,0-8.46-.08-13.38-.25-4.92-.16-9.75-.33-14.5-.5-4.75-.16-8.96-.41-12.62-.75v-20ZM160.5,0c-.34,2.17-.54,4.46-.62,6.88-.09,2.42-.12,5.04-.12,7.88-.17,1.84-.21,4.84-.12,9,.08,4.17.16,8.88.25,14.12.08,5.25.16,10.62.25,16.12.08,5.5.12,10.54.12,15.12v11.12c0,14.34-.29,27.67-.88,40-.59,12.34-2.46,23.84-5.62,34.5-3.17,10.67-8.38,20.54-15.62,29.62-7.25,9.09-17.54,17.54-30.88,25.38l-18.25-14.25c4-1.66,8.29-3.91,12.88-6.75,4.58-2.83,8.38-5.75,11.38-8.75,6.66-5.83,11.91-12.08,15.75-18.75,3.83-6.66,6.62-14,8.38-22s2.88-16.83,3.38-26.5c.5-9.66.75-20.5.75-32.5,0-4-.09-9.12-.25-15.38-.17-6.25-.34-12.75-.5-19.5-.17-6.75-.34-12.88-.5-18.38-.17-5.5-.42-9.5-.75-12-.17-2.83-.5-5.54-1-8.12-.5-2.58-.92-4.88-1.25-6.88h23.25Z" style="fill: #231f20; stroke-width: 0px;"/>
</svg>