<?xml version="1.0" encoding="UTF-8"?>
<svg id="Layer_1" data-name="Layer 1" xmlns="http://www.w3.org/2000/svg" viewBox="0 0 165.5 182">
  <path d="M25.5,101c-1.67,5-2.96,9.84-3.88,14.5-.92,4.67-1.38,9.34-1.38,14,0,9.5,4.91,17.25,14.75,23.25,9.83,6,24.75,9,44.75,9,11.5,0,22.58-.41,33.25-1.25,10.66-.83,20.46-2,29.38-3.5,8.91-1.5,16.54-3.25,22.88-5.25l.25,21.5c-6,1.67-13.38,3.16-22.12,4.5-8.75,1.33-18.46,2.38-29.12,3.12-10.67.75-22,1.12-34,1.12-16.84,0-31.25-1.84-43.25-5.5s-21.17-9.08-27.5-16.25c-6.34-7.16-9.5-16-9.5-26.5,0-6.5.58-12.66,1.75-18.5,1.16-5.83,2.33-11.25,3.5-16.25l20.25,2ZM15.5.25c9,1.17,19.12,2,30.38,2.5s23.12.75,35.62.75c8,0,16.04-.16,24.12-.5,8.08-.33,15.83-.79,23.25-1.38,7.41-.58,14.12-1.12,20.12-1.62v20.5c-5.67.34-12.25.75-19.75,1.25s-15.38.92-23.62,1.25c-8.25.34-16.29.5-24.12.5-12.5,0-24.17-.29-35-.88-10.84-.58-21.17-1.21-31-1.88V.25Z" style="fill: #231f20; stroke-width: 0px;"/>
</svg>