<?xml version="1.0" encoding="UTF-8"?>
<svg id="Layer_1" data-name="Layer 1" xmlns="http://www.w3.org/2000/svg" viewBox="0 0 130.36 217.25">
  <path d="M124.86,16.5c-2.67,2-5.67,4.46-9,7.38-3.34,2.92-6.09,5.21-8.25,6.88-4.34,3.84-9.59,8.29-15.75,13.38-6.17,5.09-12.67,10.42-19.5,16-6.84,5.59-13.42,10.92-19.75,16-6.34,5.09-11.84,9.62-16.5,13.62-5,4.34-8.34,7.88-10,10.62-1.67,2.75-1.62,5.54.12,8.38,1.75,2.84,5.29,6.59,10.62,11.25,4.66,3.67,10,7.96,16,12.88,6,4.92,12.38,10.21,19.12,15.88,6.75,5.67,13.62,11.5,20.62,17.5s13.75,11.92,20.25,17.75c6.5,5.84,12.33,11.42,17.5,16.75l-17.75,16.5c-5.17-6-10.92-12.09-17.25-18.25-4.34-4.5-9.75-9.75-16.25-15.75s-13.46-12.25-20.88-18.75c-7.42-6.5-14.75-12.79-22-18.88-7.25-6.08-13.79-11.54-19.62-16.38-8-6.66-13.09-12.54-15.25-17.62-2.17-5.08-1.75-10.12,1.25-15.12s8.25-10.58,15.75-16.75c4.66-4,10.29-8.66,16.88-14,6.58-5.33,13.46-10.96,20.62-16.88,7.16-5.91,13.96-11.66,20.38-17.25,6.41-5.58,11.71-10.54,15.88-14.88,2.5-2.5,5.12-5.33,7.88-8.5,2.75-3.16,4.88-5.91,6.38-8.25l18.5,16.5Z" style="fill: #231f20; stroke-width: 0px;"/>
</svg>