<?xml version="1.0" encoding="UTF-8"?>
<svg id="Layer_1" data-name="Layer 1" xmlns="http://www.w3.org/2000/svg" viewBox="0 0 381.75 219">
  <path d="M0,79.5c14.16,1.5,28.16,2.46,42,2.88,13.83.42,26.91.38,39.25-.12,12.33-.5,23.33-1.33,33-2.5,12-1.33,22.91-3.08,32.75-5.25,9.83-2.16,18.08-4.33,24.75-6.5l3,18.75c-6.84,1.84-14.84,3.62-24,5.38-9.17,1.75-19,3.29-29.5,4.62-10.34,1.17-22.09,2.04-35.25,2.62-13.17.59-27.04.75-41.62.5-14.59-.25-29.04-.79-43.38-1.62l-1-18.75ZM4.75,28.25c17.5,2,34.21,3.17,50.12,3.5,15.91.34,30.29-.08,43.12-1.25,10.16-1,20.29-2.54,30.38-4.62,10.08-2.08,19.62-4.54,28.62-7.38l2.75,18c-8.17,2.34-17.29,4.5-27.38,6.5-10.09,2-20.12,3.5-30.12,4.5-12.67,1.17-27.38,1.71-44.12,1.62-16.75-.08-34.12-.96-52.12-2.62l-1.25-18.25ZM36.25,133.25c-3,4.34-5.5,8.75-7.5,13.25s-3,9.5-3,15c0,10.34,4.71,18.09,14.12,23.25,9.41,5.17,23.96,7.75,43.62,7.75,11.66,0,22.25-.41,31.75-1.25,9.5-.83,18.75-2.16,27.75-4l-.75,20c-8.67,1.33-17.92,2.38-27.75,3.12-9.84.75-20.09,1.12-30.75,1.12-16.34,0-30.21-1.67-41.62-5-11.42-3.34-20.09-8.41-26-15.25-5.92-6.83-8.96-15.58-9.12-26.25-.17-7.16.71-13.54,2.62-19.12,1.91-5.58,4.29-11.12,7.12-16.62l19.5,4ZM85.5,25c-1-3.83-2.12-7.62-3.38-11.38s-2.46-7.38-3.62-10.88l21.25-2.75c.83,7,2.16,14.29,4,21.88,1.83,7.59,3.83,15,6,22.25,2.16,7.25,4.25,13.79,6.25,19.62,2.33,6.5,5.08,13.42,8.25,20.75,3.16,7.34,6.66,14.59,10.5,21.75,3.83,7.17,7.91,14,12.25,20.5,1.33,1.84,2.79,3.62,4.38,5.38,1.58,1.75,3.21,3.54,4.88,5.38l-10.25,15.25c-4.67-1.33-10.17-2.46-16.5-3.38-6.34-.91-12.84-1.75-19.5-2.5-6.67-.75-12.92-1.46-18.75-2.12l1.75-15.25c6.66.67,13.58,1.42,20.75,2.25,7.16.84,12.75,1.5,16.75,2-7-10.83-13.12-22-18.38-33.5s-9.71-22.33-13.38-32.5c-2-5.66-3.79-10.96-5.38-15.88-1.59-4.91-3-9.62-4.25-14.12s-2.46-8.75-3.62-12.75Z" style="fill: #231f20; stroke-width: 0px;"/>
  <path d="M200,118.75c3.83-.83,7.33-1.75,10.5-2.75,3.16-1,5.58-1.83,7.25-2.5,5.66-2.33,12.25-5.16,19.75-8.5,7.5-3.33,15.5-6.83,24-10.5,8.5-3.66,17.08-7.12,25.75-10.38,8.66-3.25,17-5.91,25-8,8-2.08,15.16-3.12,21.5-3.12,11,0,20.04,1.92,27.12,5.75,7.08,3.84,12.33,8.79,15.75,14.88,3.41,6.09,5.12,12.71,5.12,19.88,0,12.84-4,23.25-12,31.25s-20.67,12-38,12c-5.5,0-11.12-.66-16.88-2-5.75-1.33-10.46-2.75-14.12-4.25l.75-18.25c4,1.84,8.62,3.46,13.88,4.88,5.25,1.42,10.38,2.12,15.38,2.12,8.16,0,14.58-1.21,19.25-3.62,4.66-2.41,8-5.62,10-9.62s3-8.16,3-12.5c0-3.66-.96-7.25-2.88-10.75-1.92-3.5-5-6.41-9.25-8.75-4.25-2.33-10.21-3.5-17.88-3.5-6.5,0-14.21,1.29-23.12,3.88-8.92,2.59-18.25,5.88-28,9.88s-19.29,8.29-28.62,12.88c-9.34,4.59-17.79,8.75-25.38,12.5-7.59,3.75-13.62,6.62-18.12,8.62l-9.75-19.5ZM241.5,59.5c1,2,2.04,4.04,3.12,6.12,1.08,2.09,2.04,3.96,2.88,5.62,2.33,4.34,5.21,9.88,8.62,16.62,3.41,6.75,6.88,13.79,10.38,21.12,3.5,7.34,6.5,14.09,9,20.25,2.83,6.34,5.66,13.25,8.5,20.75,2.83,7.5,5.58,15.09,8.25,22.75,2.66,7.67,5.21,15.04,7.62,22.12,2.41,7.08,4.46,13.29,6.12,18.62l-19.75,5.5c-2.17-8-4.71-16.71-7.62-26.12-2.92-9.41-6.04-18.96-9.38-28.62-3.34-9.66-6.84-18.75-10.5-27.25-3.17-7.16-6.42-14.33-9.75-21.5-3.34-7.16-6.46-13.75-9.38-19.75-2.92-6-5.54-10.75-7.88-14.25-1.17-2-2.71-4.38-4.62-7.12-1.92-2.75-3.79-5.12-5.62-7.12l20-7.75ZM301.75,75c-3.67-3.83-7.92-7.96-12.75-12.38-4.84-4.41-9.67-8.21-14.5-11.38l14-10.5c2.16,1.5,4.96,3.67,8.38,6.5,3.41,2.84,6.79,5.75,10.12,8.75,3.33,3,6.16,5.75,8.5,8.25l-13.75,10.75Z" style="fill: #231f20; stroke-width: 0px;"/>
</svg>