<?xml version="1.0" encoding="UTF-8"?>
<svg id="Layer_1" data-name="Layer 1" xmlns="http://www.w3.org/2000/svg" viewBox="0 0 354.5 215.5">
  <path d="M0,79.5c14.16,1.5,28.16,2.46,42,2.88,13.83.42,26.91.38,39.25-.12,12.33-.5,23.33-1.33,33-2.5,12-1.33,22.91-3.08,32.75-5.25,9.83-2.16,18.08-4.33,24.75-6.5l3,18.75c-6.84,1.84-14.84,3.62-24,5.38-9.17,1.75-19,3.29-29.5,4.62-10.34,1.17-22.09,2.04-35.25,2.62-13.17.59-27.04.75-41.62.5-14.59-.25-29.04-.79-43.38-1.62l-1-18.75ZM4.75,28.25c17.5,2,34.21,3.17,50.12,3.5,15.91.34,30.29-.08,43.12-1.25,10.16-1,20.29-2.54,30.38-4.62,10.08-2.08,19.62-4.54,28.62-7.38l2.75,18c-8.17,2.34-17.29,4.5-27.38,6.5-10.09,2-20.12,3.5-30.12,4.5-12.67,1.17-27.38,1.71-44.12,1.62-16.75-.08-34.12-.96-52.12-2.62l-1.25-18.25ZM36.25,133.25c-3,4.34-5.5,8.75-7.5,13.25s-3,9.5-3,15c0,10.34,4.71,18.09,14.12,23.25,9.41,5.17,23.96,7.75,43.62,7.75,11.66,0,22.25-.41,31.75-1.25,9.5-.83,18.75-2.16,27.75-4l-.75,20c-8.67,1.33-17.92,2.38-27.75,3.12-9.84.75-20.09,1.12-30.75,1.12-16.34,0-30.21-1.67-41.62-5-11.42-3.34-20.09-8.41-26-15.25-5.92-6.83-8.96-15.58-9.12-26.25-.17-7.16.71-13.54,2.62-19.12,1.91-5.58,4.29-11.12,7.12-16.62l19.5,4ZM85.5,25c-1-3.83-2.12-7.62-3.38-11.38s-2.46-7.38-3.62-10.88l21.25-2.75c.83,7,2.16,14.29,4,21.88,1.83,7.59,3.83,15,6,22.25,2.16,7.25,4.25,13.79,6.25,19.62,2.33,6.5,5.08,13.42,8.25,20.75,3.16,7.34,6.66,14.59,10.5,21.75,3.83,7.17,7.91,14,12.25,20.5,1.33,1.84,2.79,3.62,4.38,5.38,1.58,1.75,3.21,3.54,4.88,5.38l-10.25,15.25c-4.67-1.33-10.17-2.46-16.5-3.38-6.34-.91-12.84-1.75-19.5-2.5-6.67-.75-12.92-1.46-18.75-2.12l1.75-15.25c6.66.67,13.58,1.42,20.75,2.25,7.16.84,12.75,1.5,16.75,2-7-10.83-13.12-22-18.38-33.5s-9.71-22.33-13.38-32.5c-2-5.66-3.79-10.96-5.38-15.88-1.59-4.91-3-9.62-4.25-14.12s-2.46-8.75-3.62-12.75Z" style="fill: #231f20; stroke-width: 0px;"/>
  <path d="M290.75,44.25c-.34,1.84-.67,4.84-1,9-.34,4.17-.5,8-.5,11.5v41.25c0,5.34.12,11.59.38,18.75.25,7.17.58,14.54,1,22.12.41,7.59.79,14.71,1.12,21.38.33,6.67.5,12.17.5,16.5,0,5.34-1.25,10.34-3.75,15s-6.46,8.46-11.88,11.38c-5.42,2.91-12.79,4.38-22.12,4.38s-18.34-1.29-26-3.88c-7.67-2.59-13.62-6.34-17.88-11.25s-6.38-11.04-6.38-18.38c0-10.33,4.58-18.62,13.75-24.88,9.16-6.25,22.33-9.38,39.5-9.38,10.5,0,20.5,1.21,30,3.62,9.5,2.42,18.41,5.62,26.75,9.62,8.33,4,15.88,8.34,22.62,13,6.75,4.67,12.62,9.34,17.62,14l-10.5,17.5c-5-5.17-10.75-10.25-17.25-15.25s-13.54-9.54-21.12-13.62c-7.59-4.08-15.59-7.33-24-9.75-8.42-2.41-17.12-3.62-26.12-3.62-10,0-18.09,1.54-24.25,4.62-6.17,3.09-9.25,7.54-9.25,13.38,0,4.84,2.66,8.88,8,12.12,5.33,3.25,12.83,4.88,22.5,4.88,6.83,0,12-1.79,15.5-5.38,3.5-3.58,5.25-8.29,5.25-14.12,0-4.33-.12-9.54-.38-15.62-.25-6.08-.54-12.58-.88-19.5-.34-6.91-.62-13.79-.88-20.62-.25-6.83-.38-12.91-.38-18.25v-39.75c0-3.83-.17-7.79-.5-11.88-.34-4.08-.75-7.04-1.25-8.88h21.75ZM280.25,82.75c3.33,0,7.88-.12,13.62-.38s12.04-.54,18.88-.88c6.83-.33,13.66-.75,20.5-1.25,6.83-.5,12.91-1.08,18.25-1.75l.25,17.5c-5.17.67-11.12,1.21-17.88,1.62-6.75.42-13.59.79-20.5,1.12-6.92.34-13.25.59-19,.75-5.75.17-10.46.25-14.12.25v-17Z" style="fill: #231f20; stroke-width: 0px;"/>
</svg>