<?xml version="1.0" encoding="UTF-8"?>
<svg id="Layer_1" data-name="Layer 1" xmlns="http://www.w3.org/2000/svg" viewBox="0 0 380.75 220.5">
  <path d="M0,79.5c14.16,1.5,28.16,2.46,42,2.88,13.83.42,26.91.38,39.25-.12,12.33-.5,23.33-1.33,33-2.5,12-1.33,22.91-3.08,32.75-5.25,9.83-2.16,18.08-4.33,24.75-6.5l3,18.75c-6.84,1.84-14.84,3.62-24,5.38-9.17,1.75-19,3.29-29.5,4.62-10.34,1.17-22.09,2.04-35.25,2.62-13.17.59-27.04.75-41.62.5-14.59-.25-29.04-.79-43.38-1.62l-1-18.75ZM4.75,28.25c17.5,2,34.21,3.17,50.12,3.5,15.91.34,30.29-.08,43.12-1.25,10.16-1,20.29-2.54,30.38-4.62,10.08-2.08,19.62-4.54,28.62-7.38l2.75,18c-8.17,2.34-17.29,4.5-27.38,6.5-10.09,2-20.12,3.5-30.12,4.5-12.67,1.17-27.38,1.71-44.12,1.62-16.75-.08-34.12-.96-52.12-2.62l-1.25-18.25ZM36.25,133.25c-3,4.34-5.5,8.75-7.5,13.25s-3,9.5-3,15c0,10.34,4.71,18.09,14.12,23.25,9.41,5.17,23.96,7.75,43.62,7.75,11.66,0,22.25-.41,31.75-1.25,9.5-.83,18.75-2.16,27.75-4l-.75,20c-8.67,1.33-17.92,2.38-27.75,3.12-9.84.75-20.09,1.12-30.75,1.12-16.34,0-30.21-1.67-41.62-5-11.42-3.34-20.09-8.41-26-15.25-5.92-6.83-8.96-15.58-9.12-26.25-.17-7.16.71-13.54,2.62-19.12,1.91-5.58,4.29-11.12,7.12-16.62l19.5,4ZM85.5,25c-1-3.83-2.12-7.62-3.38-11.38s-2.46-7.38-3.62-10.88l21.25-2.75c.83,7,2.16,14.29,4,21.88,1.83,7.59,3.83,15,6,22.25,2.16,7.25,4.25,13.79,6.25,19.62,2.33,6.5,5.08,13.42,8.25,20.75,3.16,7.34,6.66,14.59,10.5,21.75,3.83,7.17,7.91,14,12.25,20.5,1.33,1.84,2.79,3.62,4.38,5.38,1.58,1.75,3.21,3.54,4.88,5.38l-10.25,15.25c-4.67-1.33-10.17-2.46-16.5-3.38-6.34-.91-12.84-1.75-19.5-2.5-6.67-.75-12.92-1.46-18.75-2.12l1.75-15.25c6.66.67,13.58,1.42,20.75,2.25,7.16.84,12.75,1.5,16.75,2-7-10.83-13.12-22-18.38-33.5s-9.71-22.33-13.38-32.5c-2-5.66-3.79-10.96-5.38-15.88-1.59-4.91-3-9.62-4.25-14.12s-2.46-8.75-3.62-12.75Z" style="fill: #231f20; stroke-width: 0px;"/>
  <path d="M242.5,57.75c-.5,1.5-1,3.17-1.5,5-.5,1.84-1,3.5-1.5,5-.67,3.34-1.42,7.5-2.25,12.5-.84,5-1.59,10.34-2.25,16-.67,5.67-1.17,11.17-1.5,16.5-.34,5.34-.42,10-.25,14,5-11.83,11.91-21.96,20.75-30.38,8.83-8.41,18.79-14.91,29.88-19.5,11.08-4.58,22.38-6.88,33.88-6.88,13.83,0,25.41,2.5,34.75,7.5,9.33,5,16.38,11.71,21.12,20.12,4.75,8.42,7.12,17.79,7.12,28.12,0,11.17-2.34,21.5-7,31-4.67,9.5-11.75,17.04-21.25,22.62-9.5,5.59-21.75,8.38-36.75,8.38-8,0-15.71-1.41-23.12-4.25-7.42-2.83-14.17-7-20.25-12.5-6.09-5.5-11.12-12.25-15.12-20.25l10.5-14.5c4.83,10.17,11.21,18.25,19.12,24.25,7.91,6,17.54,9,28.88,9,10.66,0,19.46-1.88,26.38-5.62,6.91-3.75,12.04-8.88,15.38-15.38,3.33-6.5,5-13.91,5-22.25,0-7.33-1.5-14-4.5-20s-7.84-10.79-14.5-14.38c-6.67-3.58-15.42-5.38-26.25-5.38s-21,1.88-30,5.62-16.88,8.75-23.62,15-12.29,13.12-16.62,20.62c-4.34,7.5-7.25,15-8.75,22.5-.34,1.67-.67,3.59-1,5.75-.34,2.17-.42,4.42-.25,6.75,0,1.5.16,3.54.5,6.12.33,2.59.71,5.17,1.12,7.75.41,2.59.79,4.71,1.12,6.38l-16.75,2.5c-2-6.33-3.71-14.29-5.12-23.88-1.42-9.58-2.12-19.38-2.12-29.38,0-6,.25-12.29.75-18.88.5-6.58,1.04-12.91,1.62-19,.58-6.08,1.16-11.58,1.75-16.5.58-4.91,1.12-8.79,1.62-11.62.16-1.83.25-3.66.25-5.5s-.09-3.41-.25-4.75l21,1.75ZM315,45.75c1,4.67,2,10.88,3,18.62s1.88,16.38,2.62,25.88,1.12,19.17,1.12,29c0,14.5-1.25,28.09-3.75,40.75-2.5,12.67-6.88,24.12-13.12,34.38s-14.88,18.96-25.88,26.12l-17-10.5c8.16-4.67,15-10.17,20.5-16.5s9.83-13.41,13-21.25c3.16-7.83,5.41-16.29,6.75-25.38,1.33-9.08,2-18.62,2-28.62,0-14.66-.62-27.04-1.88-37.12-1.25-10.08-2.38-17.88-3.38-23.38-.5-2.16-1.09-4.21-1.75-6.12-.67-1.91-1.25-3.71-1.75-5.38l19.5-.5Z" style="fill: #231f20; stroke-width: 0px;"/>
</svg>