<?xml version="1.0" encoding="UTF-8"?>
<svg id="Layer_1" data-name="Layer 1" xmlns="http://www.w3.org/2000/svg" viewBox="0 0 172.75 132.25">
  <path d="M0,26.75c3.83-.83,7.71-1.79,11.62-2.88,3.91-1.08,7.88-2.21,11.88-3.38,4.33-1.33,10-3.16,17-5.5,7-2.33,14.58-4.58,22.75-6.75,8.16-2.16,16.46-4.08,24.88-5.75,8.41-1.66,16.29-2.5,23.62-2.5,11.83,0,22.33,2.25,31.5,6.75,9.16,4.5,16.38,10.88,21.62,19.12s7.88,18.12,7.88,29.62-2.75,22.54-8.25,31.62c-5.5,9.09-13.29,16.79-23.38,23.12-10.09,6.34-22.09,11.34-36,15-13.92,3.66-29.29,6-46.12,7l-8-19.25c13.5-.5,26.33-1.88,38.5-4.12,12.16-2.25,23-5.62,32.5-10.12s16.96-10.38,22.38-17.62c5.41-7.25,8.12-15.96,8.12-26.12,0-7.16-1.75-13.5-5.25-19s-8.38-9.88-14.62-13.12-13.71-4.88-22.38-4.88c-6.17,0-13.09.79-20.75,2.38-7.67,1.59-15.59,3.62-23.75,6.12-8.17,2.5-16,5.12-23.5,7.88s-14.17,5.25-20,7.5c-5.84,2.25-10.42,4.04-13.75,5.38L0,26.75Z" style="fill: #231f20; stroke-width: 0px;"/>
</svg>