<?xml version="1.0" encoding="UTF-8"?>
<svg id="Layer_1" data-name="Layer 1" xmlns="http://www.w3.org/2000/svg" viewBox="0 0 171 210">
  <path d="M97.75,0c-.34,2.17-.62,4.59-.88,7.25-.25,2.67-.46,5.84-.62,9.5,0,2.5-.04,6.25-.12,11.25-.09,5-.12,10.62-.12,16.88v36.38c0,8.34.16,17.09.5,26.25.33,9.17.75,18.09,1.25,26.75.5,8.67.91,16.59,1.25,23.75.33,7.17.5,12.84.5,17,0,5.84-1.38,11.42-4.12,16.75-2.75,5.34-7.34,9.71-13.75,13.12-6.42,3.41-15.12,5.12-26.12,5.12-18,0-31.75-3.12-41.25-9.38S0,185.25,0,173.25c0-7.66,2.29-14.33,6.88-20,4.58-5.66,11.21-10.12,19.88-13.38,8.66-3.25,19-4.88,31-4.88,13.16,0,25.54,1.54,37.12,4.62,11.58,3.09,22.21,6.96,31.88,11.62,9.66,4.67,18.25,9.54,25.75,14.62,7.5,5.09,13.66,9.62,18.5,13.62l-11.5,17.75c-5.67-5.33-12.21-10.66-19.62-16-7.42-5.33-15.5-10.25-24.25-14.75s-18.17-8.12-28.25-10.88c-10.09-2.75-20.79-4.12-32.12-4.12-12,0-21.12,2-27.38,6s-9.38,8.92-9.38,14.75c0,3.67,1.16,7.04,3.5,10.12,2.33,3.09,6.08,5.54,11.25,7.38,5.16,1.84,11.83,2.75,20,2.75,4.83,0,9.25-.62,13.25-1.88s7.21-3.46,9.62-6.62c2.41-3.16,3.62-7.58,3.62-13.25,0-4.83-.12-11.12-.38-18.88s-.54-16-.88-24.75c-.34-8.75-.62-17.21-.88-25.38-.25-8.16-.38-15-.38-20.5v-35c0-5.83.04-11.41.12-16.75.08-5.33.12-10.16.12-14.5,0-2-.09-4.58-.25-7.75-.17-3.16-.42-5.58-.75-7.25h21.25ZM.75,80.25c4.5.67,9.5,1.34,15,2,5.5.67,11.16,1.17,17,1.5,5.83.34,11.41.62,16.75.88,5.33.25,10.08.38,14.25.38,12.16,0,23.96-.29,35.38-.88,11.41-.58,22.66-1.41,33.75-2.5,11.08-1.08,22.04-2.46,32.88-4.12l-.25,18.75c-8.34,1.17-16.62,2.12-24.88,2.88s-16.5,1.38-24.75,1.88-16.67.88-25.25,1.12c-8.59.25-17.62.38-27.12.38-5.67,0-12.21-.16-19.62-.5-7.42-.33-14.92-.75-22.5-1.25-7.59-.5-14.38-1.08-20.38-1.75l-.25-18.75ZM2,27.25c4.16.67,9,1.34,14.5,2,5.5.67,11.29,1.29,17.38,1.88,6.08.59,11.91,1,17.5,1.25,5.58.25,10.46.38,14.62.38,15.83,0,32.04-.58,48.62-1.75,16.58-1.16,32.96-3.08,49.12-5.75l-.25,18.25c-9.17,1-19.17,2-30,3-10.84,1-21.96,1.84-33.38,2.5-11.42.67-22.71,1-33.88,1-5.84,0-12.75-.25-20.75-.75s-15.88-1.08-23.62-1.75c-7.75-.66-14.29-1.25-19.62-1.75l-.25-18.5Z" style="fill: #231f20; stroke-width: 0px;"/>
</svg>