<?xml version="1.0" encoding="UTF-8"?>
<svg id="Layer_1" data-name="Layer 1" xmlns="http://www.w3.org/2000/svg" viewBox="0 0 205 206.5">
  <path d="M145.75,2c-.5,2-1,4.21-1.5,6.62-.5,2.42-.96,4.79-1.38,7.12-.42,2.34-.88,4.25-1.38,5.75-2.34,10.5-5.12,21.34-8.38,32.5-3.25,11.17-6.88,22.25-10.88,33.25s-8.29,21.25-12.88,30.75c-4.59,9.5-9.38,17.75-14.38,24.75-6.34,8.67-12.71,16.46-19.12,23.38-6.42,6.92-12.96,12.29-19.62,16.12-6.67,3.84-13.84,5.75-21.5,5.75-6.17,0-11.92-1.75-17.25-5.25-5.34-3.5-9.59-8.58-12.75-15.25-3.17-6.66-4.75-14.83-4.75-24.5,0-10.5,1.96-21,5.88-31.5,3.91-10.5,9.33-20.16,16.25-29,6.91-8.83,14.71-16.16,23.38-22,12.33-8.5,24.75-14.5,37.25-18s25.08-5.25,37.75-5.25c16.33,0,30.88,3.42,43.62,10.25,12.75,6.84,22.75,16.38,30,28.62s10.88,26.54,10.88,42.88-3.71,30.88-11.12,43.12c-7.42,12.25-17.84,22.09-31.25,29.5-13.42,7.41-29.04,12.38-46.88,14.88l-11.75-17.75c13.16-1.16,24.79-3.66,34.88-7.5,10.08-3.83,18.54-8.83,25.38-15,6.83-6.16,12.04-13.33,15.62-21.5,3.58-8.16,5.38-17,5.38-26.5,0-12.33-2.75-23.29-8.25-32.88-5.5-9.58-13.29-17.12-23.38-22.62-10.09-5.5-21.79-8.25-35.12-8.25-12.17,0-23.71,1.96-34.62,5.88-10.92,3.92-21.29,9.46-31.12,16.62-7,5-13.09,11.17-18.25,18.5-5.17,7.34-9.21,14.96-12.12,22.88-2.92,7.92-4.38,15.62-4.38,23.12,0,8.34,1.71,14.88,5.12,19.62,3.41,4.75,7.96,7.12,13.62,7.12,4,0,8.08-1.21,12.25-3.62,4.16-2.41,8.25-5.62,12.25-9.62s7.88-8.46,11.62-13.38c3.75-4.91,7.12-9.88,10.12-14.88,4.16-6.5,8.25-14,12.25-22.5s7.79-17.62,11.38-27.38c3.58-9.75,6.75-19.58,9.5-29.5,2.75-9.91,4.96-19.38,6.62-28.38.5-2.5.88-5.58,1.12-9.25.25-3.66.38-6.91.38-9.75l21.5,2ZM43.5,13.25c.66,3.5,1.46,7.21,2.38,11.12.91,3.92,1.79,7.62,2.62,11.12,1.66,6,3.75,12.75,6.25,20.25s5.12,15,7.88,22.5,5.62,14.54,8.62,21.12c3,6.59,5.83,12.04,8.5,16.38,4.33,7.34,9.25,14.84,14.75,22.5,5.5,7.67,11.25,14.34,17.25,20l-15.75,13c-5-5.66-9.84-11.66-14.5-18-4.67-6.33-9.34-13.58-14-21.75-3.17-4.83-6.34-10.71-9.5-17.62-3.17-6.91-6.38-14.38-9.62-22.38s-6.38-16.21-9.38-24.62c-3-8.41-5.67-16.54-8-24.38-1.17-4-2.46-7.96-3.88-11.88-1.42-3.91-2.88-7.46-4.38-10.62l20.75-6.75Z" style="fill: #231f20; stroke-width: 0px;"/>
</svg>