<?xml version="1.0" encoding="UTF-8"?>
<svg id="Layer_1" data-name="Layer 1" xmlns="http://www.w3.org/2000/svg" viewBox="0 0 219 202.75">
  <path d="M37.75,4.5c3.16.17,6.46.34,9.88.5,3.41.17,6.38.25,8.88.25,3.33,0,7.62-.08,12.88-.25,5.25-.16,10.71-.41,16.38-.75,5.66-.33,11-.62,16-.88s8.75-.46,11.25-.62c2.5-.33,4.79-.71,6.88-1.12,2.08-.41,3.96-.96,5.62-1.62l12.5,10.25c-1.17,1.34-2.29,2.67-3.38,4-1.09,1.34-2.12,2.75-3.12,4.25-2.67,4.34-5.84,10.46-9.5,18.38-3.67,7.92-7.54,16.5-11.62,25.75-4.09,9.25-8.12,18.12-12.12,26.62-2.5,5.67-5.21,11.79-8.12,18.38-2.92,6.59-5.88,13.25-8.88,20s-5.96,13.04-8.88,18.88c-2.92,5.84-5.71,10.67-8.38,14.5-4.5,6.34-9.25,10.79-14.25,13.38-5,2.59-10.75,3.88-17.25,3.88-9.34,0-17.09-3.08-23.25-9.25-6.17-6.16-9.25-14.5-9.25-25,0-9.33,2.12-18.04,6.38-26.12,4.25-8.08,10.16-15.12,17.75-21.12,7.58-6,16.66-10.66,27.25-14,10.58-3.33,22.21-5,34.88-5,14,0,27.54,1.62,40.62,4.88,13.08,3.25,25.33,7.42,36.75,12.5,11.41,5.09,21.83,10.42,31.25,16,9.41,5.59,17.46,10.79,24.12,15.62l-9.25,21.5c-7.34-6.33-15.59-12.62-24.75-18.88-9.17-6.25-19.17-11.96-30-17.12-10.84-5.16-22.29-9.33-34.38-12.5-12.09-3.16-24.54-4.75-37.38-4.75-13.67,0-25.38,2.29-35.12,6.88-9.75,4.59-17.17,10.42-22.25,17.5-5.09,7.09-7.62,14.46-7.62,22.12,0,5.5,1.54,9.71,4.62,12.62,3.08,2.92,6.54,4.38,10.38,4.38,2.83,0,5.41-.66,7.75-2,2.33-1.33,4.75-3.58,7.25-6.75,2.66-3.5,5.33-7.75,8-12.75,2.66-5,5.33-10.41,8-16.25,2.66-5.83,5.25-11.75,7.75-17.75s5-11.58,7.5-16.75c3.33-7.33,6.71-14.91,10.12-22.75,3.41-7.83,6.83-15.41,10.25-22.75,3.41-7.33,6.54-14,9.38-20-2.5.17-6.04.34-10.62.5-4.59.17-9.54.38-14.88.62-5.34.25-10.38.5-15.12.75s-8.54.46-11.38.62c-2.67.17-5.67.38-9,.62-3.34.25-6.5.54-9.5.88l-1-20.25ZM194,59.25c-.84,17.67-2.59,33.75-5.25,48.25-2.67,14.5-6.75,27.59-12.25,39.25-5.5,11.67-13,22.12-22.5,31.38s-21.5,17.46-36,24.62l-16.5-13.75c14.66-6.16,26.58-13.54,35.75-22.12,9.16-8.58,16.29-17.83,21.38-27.75,5.08-9.91,8.66-19.96,10.75-30.12,2.08-10.16,3.54-19.83,4.38-29,.16-3.83.29-7.75.38-11.75.08-4-.04-7.75-.38-11.25l20.25,2.25Z" style="fill: #231f20; stroke-width: 0px;"/>
</svg>