<?xml version="1.0" encoding="UTF-8"?>
<svg id="Layer_1" data-name="Layer 1" xmlns="http://www.w3.org/2000/svg" viewBox="0 0 194 209.5">
  <path d="M1,96.75c8,2.84,16.46,5.04,25.38,6.62,8.91,1.59,17.71,2.71,26.38,3.38,8.66.67,16.91,1,24.75,1,8.5,0,17.12-.21,25.88-.62,8.75-.41,17.46-1.29,26.12-2.62l-.5,19c-8.17,1-16.25,1.67-24.25,2-8,.34-16.25.5-24.75.5-13.5,0-27.38-.83-41.62-2.5-14.25-1.66-27.04-4.16-38.38-7.5l1-19.25ZM7,34.75c7.16,2.17,15,4,23.5,5.5s17.08,2.62,25.75,3.38c8.66.75,16.66,1.12,24,1.12,9.66,0,18.79-.25,27.38-.75,8.58-.5,16.46-1.33,23.62-2.5l-.5,18.75c-8,.67-15.92,1.21-23.75,1.62-7.84.42-16.84.62-27,.62-7.34,0-15.34-.38-24-1.12-8.67-.75-17.34-1.88-26-3.38-8.67-1.5-16.67-3.16-24-5l1-18.25ZM87.25,1.5c-.84,3.34-1.46,6.38-1.88,9.12-.42,2.75-.88,5.54-1.38,8.38-.67,4.67-1.46,10.5-2.38,17.5-.92,7-1.92,14.67-3,23-1.09,8.34-2.17,16.92-3.25,25.75-1.09,8.84-2.09,17.42-3,25.75-.92,8.34-1.62,15.92-2.12,22.75-.5,6.84-.75,12.5-.75,17,0,12.17,3.46,21.75,10.38,28.75,6.91,7,17.46,10.5,31.62,10.5,12.83,0,23.88-1.75,33.12-5.25s16.41-8.46,21.5-14.88c5.08-6.41,7.62-13.88,7.62-22.38s-2.25-16.96-6.75-25.88c-4.5-8.91-11.34-17.29-20.5-25.12l22-4.5c8.5,9.5,14.88,18.79,19.12,27.88,4.25,9.09,6.38,19.04,6.38,29.88,0,12.34-3.46,23-10.38,32-6.92,9-16.54,15.88-28.88,20.62-12.34,4.75-26.75,7.12-43.25,7.12-11.34,0-21.62-1.79-30.88-5.38-9.25-3.59-16.62-9.46-22.12-17.62-5.5-8.16-8.25-19.08-8.25-32.75,0-5.33.38-12.33,1.12-21,.75-8.66,1.75-18.12,3-28.38s2.58-20.75,4-31.5c1.41-10.75,2.66-20.88,3.75-30.38,1.08-9.5,1.88-17.75,2.38-24.75.5-4.33.75-7.79.75-10.38s-.17-5.04-.5-7.38l22.5,1.5Z" style="fill: #231f20; stroke-width: 0px;"/>
</svg>