<?xml version="1.0" encoding="UTF-8"?>
<svg id="Layer_1" data-name="Layer 1" xmlns="http://www.w3.org/2000/svg" viewBox="0 0 207.5 208.75">
  <path d="M0,33.25c7.5,1.17,14.41,2.04,20.75,2.62,6.33.59,12.58.88,18.75.88,12,0,24.66-.96,38-2.88,13.33-1.91,26.33-4.54,39-7.88v19.25c-8.5,1.84-17.29,3.42-26.38,4.75-9.09,1.34-17.84,2.38-26.25,3.12-8.42.75-16.12,1.12-23.12,1.12-5.34,0-11.46-.21-18.38-.62-6.92-.41-14.04-1.04-21.38-1.88l-1-18.5ZM74.75,112.75c0,5.67-.62,11.62-1.88,17.88s-3.38,12.12-6.38,17.62-7.09,10-12.25,13.5c-5.17,3.5-11.75,5.25-19.75,5.25-4.67,0-9.5-1.29-14.5-3.88-5-2.58-9.21-6.75-12.62-12.5-3.42-5.75-5.12-13.46-5.12-23.12,0-8.5,1.71-16.5,5.12-24,3.41-7.5,8.21-13.58,14.38-18.25,6.16-4.66,13.33-7,21.5-7,10.16,0,17.96,3.25,23.38,9.75,5.41,6.5,8.12,14.75,8.12,24.75ZM36.5,148.5c5.16,0,9.21-1.71,12.12-5.12,2.91-3.41,5-7.83,6.25-13.25,1.25-5.41,1.88-10.88,1.88-16.38,0-6-1.34-10.71-4-14.12-2.67-3.41-6.17-5.12-10.5-5.12s-8,1.38-11.5,4.12-6.29,6.5-8.38,11.25c-2.09,4.75-3.12,10.29-3.12,16.62,0,7,1.75,12.42,5.25,16.25,3.5,3.84,7.5,5.75,12,5.75ZM62.25,146c-.17,1.67-.34,3.96-.5,6.88-.17,2.92-.34,6-.5,9.25-.17,3.25-.25,6.21-.25,8.88,0,3.34.41,6.25,1.25,8.75.83,2.5,2.54,4.5,5.12,6,2.58,1.5,6.58,2.62,12,3.38,5.41.75,12.62,1.12,21.62,1.12,4.66,0,9.71-.21,15.12-.62,5.41-.41,10.58-.96,15.5-1.62,4.91-.66,8.88-1.41,11.88-2.25,6.5-1.83,11.58-4.88,15.25-9.12,3.66-4.25,5.5-10.46,5.5-18.62,0-5-.12-9.75-.38-14.25s-.62-9.16-1.12-14l21.25,6.5c.16,3.34.25,6.42.25,9.25s.04,5.62.12,8.38c.08,2.75-.04,5.88-.38,9.38-.34,7.84-1.62,14.38-3.88,19.62s-5.67,9.54-10.25,12.88c-4.59,3.33-10.71,6-18.38,8-3.67,1-8.5,1.88-14.5,2.62s-12.34,1.33-19,1.75c-6.67.41-12.75.62-18.25.62-10,0-18.42-.46-25.25-1.38-6.84-.92-12.38-2.25-16.62-4s-7.5-3.88-9.75-6.38-3.79-5.29-4.62-8.38c-.84-3.08-1.25-6.54-1.25-10.38,0-4.5.12-8.91.38-13.25.25-4.33.46-8.5.62-12.5l19-6.5ZM70,0c-.34,2.67-.67,6.12-1,10.38-.34,4.25-.5,8.71-.5,13.38v76.5l-18.5-10V23.75c0-5-.17-9.54-.5-13.62-.34-4.08-.84-7.46-1.5-10.12h22ZM157.5,25.25c3.66,2.5,7.79,5.62,12.38,9.38,4.58,3.75,9.21,7.79,13.88,12.12,4.66,4.34,9.08,8.62,13.25,12.88,4.16,4.25,7.66,8.12,10.5,11.62l-14,14.25c-4-5.33-8.96-11-14.88-17-5.92-6-11.88-11.71-17.88-17.12-6-5.41-11.34-9.79-16-13.12l12.75-13Z" style="fill: #231f20; stroke-width: 0px;"/>
</svg>