<?xml version="1.0" encoding="UTF-8"?>
<svg id="Layer_1" data-name="Layer 1" xmlns="http://www.w3.org/2000/svg" viewBox="0 0 418 208.75">
  <path d="M37.75,4.5c3.16.17,6.46.34,9.88.5,3.41.17,6.38.25,8.88.25,3.33,0,7.62-.08,12.88-.25,5.25-.16,10.71-.41,16.38-.75,5.66-.33,11-.62,16-.88s8.75-.46,11.25-.62c2.5-.33,4.79-.71,6.88-1.12,2.08-.41,3.96-.96,5.62-1.62l12.5,10.25c-1.17,1.34-2.29,2.67-3.38,4-1.09,1.34-2.12,2.75-3.12,4.25-2.67,4.34-5.84,10.46-9.5,18.38-3.67,7.92-7.54,16.5-11.62,25.75-4.09,9.25-8.12,18.12-12.12,26.62-2.5,5.67-5.21,11.79-8.12,18.38-2.92,6.59-5.88,13.25-8.88,20s-5.96,13.04-8.88,18.88c-2.92,5.84-5.71,10.67-8.38,14.5-4.5,6.34-9.25,10.79-14.25,13.38-5,2.59-10.75,3.88-17.25,3.88-9.34,0-17.09-3.08-23.25-9.25-6.17-6.16-9.25-14.5-9.25-25,0-9.33,2.12-18.04,6.38-26.12,4.25-8.08,10.16-15.12,17.75-21.12,7.58-6,16.66-10.66,27.25-14,10.58-3.33,22.21-5,34.88-5,14,0,27.54,1.62,40.62,4.88,13.08,3.25,25.33,7.42,36.75,12.5,11.41,5.09,21.83,10.42,31.25,16,9.41,5.59,17.46,10.79,24.12,15.62l-9.25,21.5c-7.34-6.33-15.59-12.62-24.75-18.88-9.17-6.25-19.17-11.96-30-17.12-10.84-5.16-22.29-9.33-34.38-12.5-12.09-3.16-24.54-4.75-37.38-4.75-13.67,0-25.38,2.29-35.12,6.88-9.75,4.59-17.17,10.42-22.25,17.5-5.09,7.09-7.62,14.46-7.62,22.12,0,5.5,1.54,9.71,4.62,12.62,3.08,2.92,6.54,4.38,10.38,4.38,2.83,0,5.41-.66,7.75-2,2.33-1.33,4.75-3.58,7.25-6.75,2.66-3.5,5.33-7.75,8-12.75,2.66-5,5.33-10.41,8-16.25,2.66-5.83,5.25-11.75,7.75-17.75s5-11.58,7.5-16.75c3.33-7.33,6.71-14.91,10.12-22.75,3.41-7.83,6.83-15.41,10.25-22.75,3.41-7.33,6.54-14,9.38-20-2.5.17-6.04.34-10.62.5-4.59.17-9.54.38-14.88.62-5.34.25-10.38.5-15.12.75s-8.54.46-11.38.62c-2.67.17-5.67.38-9,.62-3.34.25-6.5.54-9.5.88l-1-20.25ZM194,59.25c-.84,17.67-2.59,33.75-5.25,48.25-2.67,14.5-6.75,27.59-12.25,39.25-5.5,11.67-13,22.12-22.5,31.38s-21.5,17.46-36,24.62l-16.5-13.75c14.66-6.16,26.58-13.54,35.75-22.12,9.16-8.58,16.29-17.83,21.38-27.75,5.08-9.91,8.66-19.96,10.75-30.12,2.08-10.16,3.54-19.83,4.38-29,.16-3.83.29-7.75.38-11.75.08-4-.04-7.75-.38-11.25l20.25,2.25Z" style="fill: #231f20; stroke-width: 0px;"/>
  <path d="M279.75,46c-.5,1.5-1,3.17-1.5,5-.5,1.84-1,3.5-1.5,5-.67,3.34-1.42,7.5-2.25,12.5-.84,5-1.59,10.34-2.25,16-.67,5.67-1.17,11.17-1.5,16.5-.34,5.34-.42,10-.25,14,5-11.83,11.91-21.96,20.75-30.38,8.83-8.41,18.79-14.91,29.88-19.5,11.08-4.58,22.38-6.88,33.88-6.88,13.83,0,25.41,2.5,34.75,7.5,9.33,5,16.38,11.71,21.12,20.12,4.75,8.42,7.12,17.79,7.12,28.12,0,11.17-2.34,21.5-7,31-4.67,9.5-11.75,17.04-21.25,22.62-9.5,5.59-21.75,8.38-36.75,8.38-8,0-15.71-1.41-23.12-4.25-7.42-2.83-14.17-7-20.25-12.5-6.09-5.5-11.12-12.25-15.12-20.25l10.5-14.5c4.83,10.17,11.21,18.25,19.12,24.25,7.91,6,17.54,9,28.88,9,10.66,0,19.46-1.88,26.38-5.62,6.91-3.75,12.04-8.88,15.38-15.38,3.33-6.5,5-13.91,5-22.25,0-7.33-1.5-14-4.5-20s-7.84-10.79-14.5-14.38c-6.67-3.58-15.42-5.38-26.25-5.38s-21,1.88-30,5.62-16.88,8.75-23.62,15-12.29,13.12-16.62,20.62c-4.34,7.5-7.25,15-8.75,22.5-.34,1.67-.67,3.59-1,5.75-.34,2.17-.42,4.42-.25,6.75,0,1.5.16,3.54.5,6.12.33,2.59.71,5.17,1.12,7.75.41,2.59.79,4.71,1.12,6.38l-16.75,2.5c-2-6.33-3.71-14.29-5.12-23.88-1.42-9.58-2.12-19.38-2.12-29.38,0-6,.25-12.29.75-18.88.5-6.58,1.04-12.91,1.62-19,.58-6.08,1.16-11.58,1.75-16.5.58-4.91,1.12-8.79,1.62-11.62.16-1.83.25-3.66.25-5.5s-.09-3.41-.25-4.75l21,1.75ZM352.25,34c1,4.67,2,10.88,3,18.62s1.88,16.38,2.62,25.88,1.12,19.17,1.12,29c0,14.5-1.25,28.09-3.75,40.75-2.5,12.67-6.88,24.12-13.12,34.38s-14.88,18.96-25.88,26.12l-17-10.5c8.16-4.67,15-10.17,20.5-16.5s9.83-13.41,13-21.25c3.16-7.83,5.41-16.29,6.75-25.38,1.33-9.08,2-18.62,2-28.62,0-14.66-.62-27.04-1.88-37.12-1.25-10.08-2.38-17.88-3.38-23.38-.5-2.16-1.09-4.21-1.75-6.12-.67-1.91-1.25-3.71-1.75-5.38l19.5-.5Z" style="fill: #231f20; stroke-width: 0px;"/>
</svg>