<?xml version="1.0" encoding="UTF-8"?>
<svg id="Layer_1" data-name="Layer 1" xmlns="http://www.w3.org/2000/svg" viewBox="0 0 217.75 204">
  <path d="M117.75,9c-1,1.34-2.21,3.12-3.62,5.38-1.42,2.25-2.88,4.54-4.38,6.88-2.84,4.17-6.21,9.71-10.12,16.62-3.92,6.92-8.12,14.34-12.62,22.25-4.5,7.92-8.88,15.71-13.12,23.38-4.25,7.67-7.96,14.59-11.12,20.75,6-5.5,12.21-9.46,18.62-11.88,6.41-2.41,12.62-3.62,18.62-3.62,8.33,0,15.21,2.59,20.62,7.75,5.41,5.17,8.29,12.67,8.62,22.5.16,5,.29,10.29.38,15.88.08,5.59.12,11,.12,16.25s.16,9.96.5,14.12c.5,6.34,2.66,10.88,6.5,13.62,3.83,2.75,8.41,4.12,13.75,4.12,6.83,0,13.04-1.88,18.62-5.62,5.58-3.75,10.5-8.71,14.75-14.88,4.25-6.16,7.79-12.83,10.62-20,2.83-7.16,5.08-14,6.75-20.5l16.5,13.5c-4.34,13.34-9.67,25.12-16,35.38-6.34,10.25-13.96,18.29-22.88,24.12-8.92,5.83-19.46,8.75-31.62,8.75-8.84,0-15.88-1.62-21.12-4.88s-9-7.29-11.25-12.12c-2.25-4.83-3.54-9.75-3.88-14.75-.17-4.83-.29-10.08-.38-15.75-.09-5.66-.12-11.25-.12-16.75s-.17-10.5-.5-15c-.34-5.5-2.04-9.79-5.12-12.88-3.09-3.08-7.46-4.62-13.12-4.62-6.67,0-13.12,1.96-19.38,5.88-6.25,3.92-11.92,8.96-17,15.12-5.09,6.17-9.21,12.59-12.38,19.25-1.84,3.67-3.88,8.09-6.12,13.25-2.25,5.17-4.38,10.5-6.38,16s-3.79,10.67-5.38,15.5c-1.59,4.83-2.79,8.83-3.62,12l-21.5-7.5c3-8.5,6.91-18.16,11.75-29,4.83-10.83,10.08-22.21,15.75-34.12,5.66-11.91,11.5-23.75,17.5-35.5s11.71-22.83,17.12-33.25c5.41-10.41,10.29-19.58,14.62-27.5,4.33-7.91,7.58-13.88,9.75-17.88,1.5-3,3.04-6.04,4.62-9.12,1.58-3.08,3.12-6.46,4.62-10.12l22,9Z" style="fill: #231f20; stroke-width: 0px;"/>
</svg>