<?xml version="1.0" encoding="UTF-8"?>
<svg id="Layer_1" data-name="Layer 1" xmlns="http://www.w3.org/2000/svg" viewBox="0 0 209.5 213.25">
  <path d="M89.25,2c-1,4-2.25,9.09-3.75,15.25-1.5,6.17-3.12,12.62-4.88,19.38s-3.62,13.12-5.62,19.12c-4,12-9.09,24.62-15.25,37.88-6.17,13.25-12.75,26.12-19.75,38.62s-13.92,23.42-20.75,32.75L0,155c5.5-6.5,11.04-13.91,16.62-22.25,5.58-8.33,10.83-17.08,15.75-26.25,4.91-9.16,9.38-18.16,13.38-27,4-8.83,7.33-16.91,10-24.25,2.66-8,5.16-17.04,7.5-27.12,2.33-10.08,3.66-19.46,4-28.12l22,2ZM.75,42.75c4.66.67,9.58,1.12,14.75,1.38,5.16.25,10.41.38,15.75.38,9.16,0,18.62-.41,28.38-1.25,9.75-.83,19.62-2.21,29.62-4.12,10-1.91,19.83-4.46,29.5-7.62l.5,18.75c-8.17,2.17-17.12,4.17-26.88,6-9.75,1.84-19.84,3.29-30.25,4.38-10.42,1.09-20.71,1.62-30.88,1.62-4.5,0-9.29-.04-14.38-.12-5.09-.08-10.04-.29-14.88-.62l-1.25-18.75ZM148.25,79.25c-.17,5.17-.29,9.79-.38,13.88-.09,4.09-.04,8.46.12,13.12.16,4,.38,9.12.62,15.38s.54,12.84.88,19.75c.33,6.92.62,13.54.88,19.88.25,6.34.38,11.59.38,15.75,0,6.67-1.5,12.75-4.5,18.25s-7.71,9.88-14.12,13.12c-6.42,3.25-14.79,4.88-25.12,4.88-9.17,0-17.5-1.29-25-3.88-7.5-2.59-13.54-6.54-18.12-11.88-4.59-5.33-6.88-12.08-6.88-20.25s2.21-14.54,6.62-20.12c4.41-5.58,10.41-9.88,18-12.88,7.58-3,16.04-4.5,25.38-4.5,14,0,26.88,1.96,38.62,5.88,11.75,3.92,22.33,8.88,31.75,14.88,9.41,6,17.54,11.92,24.38,17.75l-10.75,17c-4.84-4.33-10.21-8.83-16.12-13.5-5.92-4.66-12.46-8.96-19.62-12.88-7.17-3.91-14.84-7.12-23-9.62-8.17-2.5-16.84-3.75-26-3.75s-16.59,1.92-22.25,5.75c-5.67,3.84-8.5,8.59-8.5,14.25s2.41,10.59,7.25,14.25c4.83,3.67,12.08,5.5,21.75,5.5,7,0,12.5-1.12,16.5-3.38s6.88-5.25,8.62-9,2.62-7.88,2.62-12.38-.12-10.75-.38-18.25-.59-15.54-1-24.12c-.42-8.58-.84-17.16-1.25-25.75-.42-8.58-.71-16.29-.88-23.12h19.5ZM198.25,86c-4.5-4-10.17-8.16-17-12.5-6.84-4.33-13.88-8.46-21.12-12.38-7.25-3.91-13.62-7.12-19.12-9.62l10.25-15.25c4.5,2,9.5,4.42,15,7.25,5.5,2.84,11,5.84,16.5,9,5.5,3.17,10.62,6.21,15.38,9.12,4.75,2.92,8.54,5.54,11.38,7.88l-11.25,16.5Z" style="fill: #231f20; stroke-width: 0px;"/>
</svg>