<?xml version="1.0" encoding="UTF-8"?>
<svg id="Layer_1" data-name="Layer 1" xmlns="http://www.w3.org/2000/svg" viewBox="0 0 229.5 208">
  <path d="M61.75,60.25c-2,.17-5.04.54-9.12,1.12-4.09.59-8.71,1.21-13.88,1.88-5.17.67-10.42,1.34-15.75,2-5.34.67-10.34,1.42-15,2.25l-2-20.5c2.66.17,5.29.21,7.88.12,2.58-.08,5.38-.21,8.38-.38,3.5-.33,7.79-.79,12.88-1.38,5.08-.58,10.41-1.25,16-2,5.58-.75,10.83-1.58,15.75-2.5,4.91-.91,8.79-1.88,11.62-2.88l7.25,8.75c-1.34,2.17-2.96,4.71-4.88,7.62-1.92,2.92-3.79,5.84-5.62,8.75-1.84,2.92-3.42,5.54-4.75,7.88l-7.75,34c-2.84,4.5-6.34,9.79-10.5,15.88-4.17,6.09-8.59,12.5-13.25,19.25-4.67,6.75-9.29,13.46-13.88,20.12-4.59,6.67-8.88,12.67-12.88,18L0,161.25c3-3.83,6.66-8.58,11-14.25,4.33-5.66,8.88-11.71,13.62-18.12,4.75-6.41,9.38-12.79,13.88-19.12,4.5-6.33,8.54-12.16,12.12-17.5,3.58-5.33,6.29-9.58,8.12-12.75l1-12.75,2-6.5ZM59.5,18.5v-9c0-3.16-.25-6.33-.75-9.5l23.25.75c-.67,3.34-1.46,8.54-2.38,15.62-.92,7.09-1.88,15.46-2.88,25.12-1,9.67-1.96,19.84-2.88,30.5-.92,10.67-1.62,21.21-2.12,31.62-.5,10.42-.75,20.04-.75,28.88v20.88c0,6.42.08,12.75.25,19,.16,6.25.41,13.04.75,20.38.16,2.17.33,4.67.5,7.5.16,2.83.41,5.41.75,7.75h-21.75c.33-1.67.54-4.04.62-7.12.08-3.08.12-5.62.12-7.62.16-8,.25-15.08.25-21.25s.04-12.54.12-19.12c.08-6.58.21-14.46.38-23.62,0-3.66.16-8.71.5-15.12.33-6.41.75-13.5,1.25-21.25s1-15.62,1.5-23.62,1-15.54,1.5-22.62c.5-7.08.91-13.12,1.25-18.12.33-5,.5-8.33.5-10ZM218.75,189.5c-7.67-8.83-15.34-16.38-23-22.62-7.67-6.25-15.62-11.08-23.88-14.5-8.25-3.41-16.96-5.12-26.12-5.12-4.34,0-8.38.71-12.12,2.12-3.75,1.42-6.79,3.46-9.12,6.12-2.34,2.67-3.5,5.84-3.5,9.5,0,6.34,2.54,11.04,7.62,14.12,5.08,3.09,11.12,4.62,18.12,4.62,8.16,0,14.79-2.08,19.88-6.25,5.08-4.16,9-9.88,11.75-17.12s4.66-15.66,5.75-25.25c1.08-9.58,1.62-19.88,1.62-30.88s-1.54-19.58-4.62-27.25c-3.09-7.66-7.29-13.58-12.62-17.75-5.34-4.16-11.59-6.25-18.75-6.25-6.34,0-13.29,1.62-20.88,4.88-7.59,3.25-15.21,7.59-22.88,13-7.67,5.42-15.04,11.38-22.12,17.88-7.09,6.5-13.38,12.92-18.88,19.25l.5-24c5.16-5,11.16-10.29,18-15.88,6.83-5.58,14.16-10.83,22-15.75,7.83-4.91,15.79-8.96,23.88-12.12,8.08-3.16,16.04-4.75,23.88-4.75,11.16,0,20.58,3.09,28.25,9.25,7.66,6.17,13.46,14.62,17.38,25.38,3.91,10.75,5.88,23.04,5.88,36.88s-.88,27.34-2.62,39c-1.75,11.67-4.79,21.59-9.12,29.75-4.34,8.17-10.17,14.42-17.5,18.75-7.34,4.33-16.42,6.5-27.25,6.5-8,0-15.38-1.17-22.12-3.5s-12.12-6.08-16.12-11.25c-4-5.16-6-12-6-20.5,0-6.66,1.83-12.58,5.5-17.75,3.66-5.16,8.79-9.21,15.38-12.12,6.58-2.91,14.04-4.38,22.38-4.38,15.16,0,29.29,3.38,42.38,10.12,13.08,6.75,26.38,17.29,39.88,31.62l-10.75,16.25Z" style="fill: #231f20; stroke-width: 0px;"/>
</svg>