<?xml version="1.0" encoding="UTF-8"?>
<svg id="Layer_1" data-name="Layer 1" xmlns="http://www.w3.org/2000/svg" viewBox="0 0 193.75 198.25">
  <path d="M35.25,2c-.34,1.34-.79,3.04-1.38,5.12-.59,2.09-1.17,4.17-1.75,6.25-.59,2.09-1.04,3.88-1.38,5.38-.84,4.67-1.84,10.04-3,16.12-1.17,6.09-2.29,12.59-3.38,19.5-1.09,6.92-2.09,13.92-3,21-.92,7.09-1.67,13.96-2.25,20.62-.59,6.67-.88,12.84-.88,18.5,0,6.17.21,12,.62,17.5.41,5.5.96,11.34,1.62,17.5,1.5-3.83,3.08-7.91,4.75-12.25,1.66-4.33,3.38-8.62,5.12-12.88s3.29-8.04,4.62-11.38l10.5,8c-2.17,6-4.5,12.59-7,19.75-2.5,7.17-4.71,14.04-6.62,20.62-1.92,6.59-3.29,11.79-4.12,15.62-.34,1.84-.67,3.84-1,6-.34,2.17-.42,3.92-.25,5.25.16,1.34.29,2.79.38,4.38.08,1.58.21,3.04.38,4.38l-18,1.25c-2.5-8.83-4.67-20.21-6.5-34.12-1.84-13.91-2.75-29.29-2.75-46.12,0-9.16.41-18.54,1.25-28.12.83-9.58,1.91-18.91,3.25-28,1.33-9.08,2.62-17.41,3.88-25,1.25-7.58,2.21-13.96,2.88-19.12.5-3,.91-6.04,1.25-9.12.33-3.08.5-5.96.5-8.62l22.25,2ZM92.75,123c-1.17,4.5-2.09,8.59-2.75,12.25-.67,3.67-1,7.25-1,10.75,0,2.84.62,5.62,1.88,8.38s3.41,5.17,6.5,7.25c3.08,2.09,7.38,3.75,12.88,5s12.5,1.88,21,1.88c11.33,0,22-.54,32-1.62,10-1.08,20-2.71,30-4.88l.5,21c-7.84,1.67-16.96,2.96-27.38,3.88-10.42.92-22.12,1.38-35.12,1.38-21,0-36.38-3.33-46.12-10-9.75-6.66-14.62-15.83-14.62-27.5,0-4.16.38-8.62,1.12-13.38s1.79-10.12,3.12-16.12l18,1.75ZM83,21.25c6.83,1,14.79,1.79,23.88,2.38,9.08.59,18.5.84,28.25.75,9.75-.08,19.08-.41,28-1,8.91-.58,16.46-1.38,22.62-2.38v20.25c-6.67.67-14.46,1.21-23.38,1.62-8.92.42-18.17.62-27.75.62s-18.88-.21-27.88-.62c-9-.41-16.92-.96-23.75-1.62v-20Z" style="fill: #231f20; stroke-width: 0px;"/>
</svg>