<?xml version="1.0" encoding="UTF-8"?>
<svg id="Layer_1" data-name="Layer 1" xmlns="http://www.w3.org/2000/svg" viewBox="0 0 205 187.25">
  <path d="M119,8.75c-1.67,13-3.79,26.59-6.38,40.75-2.59,14.17-5.88,27.92-9.88,41.25-5,17.17-10.54,31.5-16.62,43-6.09,11.5-12.62,20.17-19.62,26-7,5.84-14.34,8.75-22,8.75s-14.42-2.66-21.25-8c-6.84-5.33-12.42-13.04-16.75-23.12C2.16,127.29,0,115.42,0,101.75s2.79-26.58,8.38-38.75c5.58-12.16,13.33-22.96,23.25-32.38,9.91-9.41,21.54-16.88,34.88-22.38C79.83,2.75,94.08,0,109.25,0s27.88,2.42,39.62,7.25c11.75,4.84,21.79,11.46,30.12,19.88,8.33,8.42,14.75,18.17,19.25,29.25,4.5,11.09,6.75,22.96,6.75,35.62,0,17.5-3.71,32.92-11.12,46.25-7.42,13.34-18.09,24.17-32,32.5-13.92,8.34-30.79,13.83-50.62,16.5l-11.75-18.5c4-.5,7.83-1,11.5-1.5,3.66-.5,7-1.08,10-1.75,8-1.83,15.79-4.71,23.38-8.62,7.58-3.91,14.38-8.91,20.38-15,6-6.08,10.79-13.33,14.38-21.75,3.58-8.41,5.38-18.04,5.38-28.88,0-10.16-1.67-19.62-5-28.38-3.34-8.75-8.25-16.46-14.75-23.12-6.5-6.66-14.42-11.91-23.75-15.75-9.34-3.83-20-5.75-32-5.75-13.67,0-26.04,2.5-37.12,7.5-11.09,5-20.5,11.54-28.25,19.62-7.75,8.09-13.71,16.92-17.88,26.5-4.17,9.59-6.25,18.96-6.25,28.12,0,10.5,1.38,19.12,4.12,25.88s6.08,11.71,10,14.88c3.91,3.17,7.79,4.75,11.62,4.75s8.08-1.96,12.25-5.88c4.16-3.91,8.41-10.25,12.75-19,4.33-8.75,8.58-20.12,12.75-34.12,3.66-12,6.79-24.75,9.38-38.25,2.58-13.5,4.46-26.75,5.62-39.75l21,.25Z" style="fill: #231f20; stroke-width: 0px;"/>
</svg>