<?xml version="1.0" encoding="UTF-8"?>
<svg id="Layer_1" data-name="Layer 1" xmlns="http://www.w3.org/2000/svg" viewBox="0 0 222.75 199.25">
  <path d="M128.75.75c-.67,3-1.21,6.42-1.62,10.25-.42,3.84-.79,7-1.12,9.5-1,8.84-2.17,18.04-3.5,27.62-1.34,9.59-3.04,19.21-5.12,28.88-2.09,9.67-4.71,19.17-7.88,28.5-4,11.17-8.79,22-14.38,32.5-5.59,10.5-11.71,19.92-18.38,28.25-6.67,8.34-13.79,14.88-21.38,19.62-7.59,4.75-15.46,7.12-23.62,7.12-5.84,0-11.17-1.5-16-4.5-4.84-3-8.67-7.41-11.5-13.25-2.84-5.83-4.25-12.75-4.25-20.75,0-13,1.96-24.83,5.88-35.5,3.91-10.66,8.88-20.16,14.88-28.5,4.66-6.83,10.41-13.54,17.25-20.12,6.83-6.58,14.71-12.62,23.62-18.12,8.91-5.5,18.83-9.88,29.75-13.12,10.91-3.25,22.88-4.88,35.88-4.88,10.16,0,19.75,1.67,28.75,5,9,3.34,17,8.12,24,14.38s12.5,13.92,16.5,23c4,9.09,6,19.46,6,31.12,0,13.17-1.17,25.34-3.5,36.5-2.34,11.17-5.96,20.88-10.88,29.12-4.92,8.25-11.17,14.62-18.75,19.12-7.59,4.5-16.62,6.75-27.12,6.75-11.84,0-21.25-2.84-28.25-8.5s-10.5-13.58-10.5-23.75c0-5.83,1.62-11.29,4.88-16.38,3.25-5.08,7.83-9.21,13.75-12.38,5.91-3.16,12.71-4.75,20.38-4.75,9.5,0,18.29,1.42,26.38,4.25,8.08,2.84,15.5,6.46,22.25,10.88,6.75,4.42,12.75,9.12,18,14.12s9.79,9.75,13.62,14.25l-12.25,15.25c-3.17-4-7.09-8.46-11.75-13.38-4.67-4.91-9.84-9.66-15.5-14.25-5.67-4.58-11.88-8.38-18.62-11.38s-13.96-4.5-21.62-4.5-12.92,1.75-16.75,5.25c-3.84,3.5-5.75,7.25-5.75,11.25,0,5,1.83,9.04,5.5,12.12,3.66,3.09,8.83,4.62,15.5,4.62,7.66,0,14.16-2.04,19.5-6.12,5.33-4.08,9.62-9.66,12.88-16.75,3.25-7.08,5.62-15,7.12-23.75s2.25-17.71,2.25-26.88c0-8.16-1.25-15.71-3.75-22.62-2.5-6.91-6.21-13.04-11.12-18.38-4.92-5.33-10.92-9.41-18-12.25-7.09-2.83-15.21-4.25-24.38-4.25-13.5,0-25.92,2.17-37.25,6.5-11.34,4.34-21.42,10.17-30.25,17.5-8.84,7.34-16.42,15.67-22.75,25-3.67,5.5-6.84,11.12-9.5,16.88-2.67,5.75-4.75,11.5-6.25,17.25s-2.25,11.54-2.25,17.38c0,6.34,1.54,11.54,4.62,15.62,3.08,4.09,6.46,6.12,10.12,6.12,5.16,0,10.5-1.91,16-5.75,5.5-3.83,10.88-9.16,16.12-16,5.25-6.83,10.25-14.66,15-23.5,4.75-8.83,8.96-18.33,12.62-28.5,2.83-8.16,5.25-17,7.25-26.5s3.58-18.83,4.75-28c1.16-9.16,2-17.25,2.5-24.25.33-4.33.46-7.96.38-10.88-.09-2.91-.29-6.21-.62-9.88l22.25.75ZM32.75,22.5c1.5,7.17,3.46,14.67,5.88,22.5,2.41,7.84,5,15.5,7.75,23s5.46,14.42,8.12,20.75c2.66,6.34,5,11.75,7,16.25,3.66,7.5,7.54,14.67,11.62,21.5,4.08,6.84,8.38,13.09,12.88,18.75l-11.75,15.25c-2.67-3.16-5.54-6.88-8.62-11.12-3.09-4.25-6.09-8.88-9-13.88-2.92-5-5.71-10.16-8.38-15.5-2.5-5.5-5.29-12.04-8.38-19.62-3.09-7.58-6.09-15.33-9-23.25-2.92-7.91-5.46-14.96-7.62-21.12-.84-3-1.67-5.83-2.5-8.5-.84-2.66-1.79-5.41-2.88-8.25-1.09-2.83-2.29-5.91-3.62-9.25l18.5-7.5Z" style="fill: #231f20; stroke-width: 0px;"/>
</svg>