<?xml version="1.0" encoding="UTF-8"?>
<svg id="Layer_1" data-name="Layer 1" xmlns="http://www.w3.org/2000/svg" viewBox="0 0 403.75 209.5">
  <path d="M35.25,2c-.34,1.34-.79,3.04-1.38,5.12-.59,2.09-1.17,4.17-1.75,6.25-.59,2.09-1.04,3.88-1.38,5.38-.84,4.67-1.84,10.04-3,16.12-1.17,6.09-2.29,12.59-3.38,19.5-1.09,6.92-2.09,13.92-3,21-.92,7.09-1.67,13.96-2.25,20.62-.59,6.67-.88,12.84-.88,18.5,0,6.17.21,12,.62,17.5.41,5.5.96,11.34,1.62,17.5,1.5-3.83,3.08-7.91,4.75-12.25,1.66-4.33,3.38-8.62,5.12-12.88s3.29-8.04,4.62-11.38l10.5,8c-2.17,6-4.5,12.59-7,19.75-2.5,7.17-4.71,14.04-6.62,20.62-1.92,6.59-3.29,11.79-4.12,15.62-.34,1.84-.67,3.84-1,6-.34,2.17-.42,3.92-.25,5.25.16,1.34.29,2.79.38,4.38.08,1.58.21,3.04.38,4.38l-18,1.25c-2.5-8.83-4.67-20.21-6.5-34.12-1.84-13.91-2.75-29.29-2.75-46.12,0-9.16.41-18.54,1.25-28.12.83-9.58,1.91-18.91,3.25-28,1.33-9.08,2.62-17.41,3.88-25,1.25-7.58,2.21-13.96,2.88-19.12.5-3,.91-6.04,1.25-9.12.33-3.08.5-5.96.5-8.62l22.25,2ZM92.75,123c-1.17,4.5-2.09,8.59-2.75,12.25-.67,3.67-1,7.25-1,10.75,0,2.84.62,5.62,1.88,8.38s3.41,5.17,6.5,7.25c3.08,2.09,7.38,3.75,12.88,5s12.5,1.88,21,1.88c11.33,0,22-.54,32-1.62,10-1.08,20-2.71,30-4.88l.5,21c-7.84,1.67-16.96,2.96-27.38,3.88-10.42.92-22.12,1.38-35.12,1.38-21,0-36.38-3.33-46.12-10-9.75-6.66-14.62-15.83-14.62-27.5,0-4.16.38-8.62,1.12-13.38s1.79-10.12,3.12-16.12l18,1.75ZM83,21.25c6.83,1,14.79,1.79,23.88,2.38,9.08.59,18.5.84,28.25.75,9.75-.08,19.08-.41,28-1,8.91-.58,16.46-1.38,22.62-2.38v20.25c-6.67.67-14.46,1.21-23.38,1.62-8.92.42-18.17.62-27.75.62s-18.88-.21-27.88-.62c-9-.41-16.92-.96-23.75-1.62v-20Z" style="fill: #231f20; stroke-width: 0px;"/>
  <path d="M222,109.25c3.83-.83,7.33-1.75,10.5-2.75,3.16-1,5.58-1.83,7.25-2.5,5.66-2.33,12.25-5.16,19.75-8.5,7.5-3.33,15.5-6.83,24-10.5,8.5-3.66,17.08-7.12,25.75-10.38,8.66-3.25,17-5.91,25-8,8-2.08,15.16-3.12,21.5-3.12,11,0,20.04,1.92,27.12,5.75,7.08,3.84,12.33,8.79,15.75,14.88,3.41,6.09,5.12,12.71,5.12,19.88,0,12.84-4,23.25-12,31.25s-20.67,12-38,12c-5.5,0-11.12-.66-16.88-2-5.75-1.33-10.46-2.75-14.12-4.25l.75-18.25c4,1.84,8.62,3.46,13.88,4.88,5.25,1.42,10.38,2.12,15.38,2.12,8.16,0,14.58-1.21,19.25-3.62,4.66-2.41,8-5.62,10-9.62s3-8.16,3-12.5c0-3.66-.96-7.25-2.88-10.75-1.92-3.5-5-6.41-9.25-8.75-4.25-2.33-10.21-3.5-17.88-3.5-6.5,0-14.21,1.29-23.12,3.88-8.92,2.59-18.25,5.88-28,9.88s-19.29,8.29-28.62,12.88c-9.34,4.59-17.79,8.75-25.38,12.5-7.59,3.75-13.62,6.62-18.12,8.62l-9.75-19.5ZM263.5,50c1,2,2.04,4.04,3.12,6.12,1.08,2.09,2.04,3.96,2.88,5.62,2.33,4.34,5.21,9.88,8.62,16.62,3.41,6.75,6.88,13.79,10.38,21.12,3.5,7.34,6.5,14.09,9,20.25,2.83,6.34,5.66,13.25,8.5,20.75,2.83,7.5,5.58,15.09,8.25,22.75,2.66,7.67,5.21,15.04,7.62,22.12,2.41,7.08,4.46,13.29,6.12,18.62l-19.75,5.5c-2.17-8-4.71-16.71-7.62-26.12-2.92-9.41-6.04-18.96-9.38-28.62-3.34-9.66-6.84-18.75-10.5-27.25-3.17-7.16-6.42-14.33-9.75-21.5-3.34-7.16-6.46-13.75-9.38-19.75-2.92-6-5.54-10.75-7.88-14.25-1.17-2-2.71-4.38-4.62-7.12-1.92-2.75-3.79-5.12-5.62-7.12l20-7.75ZM323.75,65.5c-3.67-3.83-7.92-7.96-12.75-12.38-4.84-4.41-9.67-8.21-14.5-11.38l14-10.5c2.16,1.5,4.96,3.67,8.38,6.5,3.41,2.84,6.79,5.75,10.12,8.75,3.33,3,6.16,5.75,8.5,8.25l-13.75,10.75Z" style="fill: #231f20; stroke-width: 0px;"/>
</svg>