<?xml version="1.0" encoding="UTF-8"?>
<svg id="Layer_1" data-name="Layer 1" xmlns="http://www.w3.org/2000/svg" viewBox="0 0 211.25 207.75">
  <path d="M76.5,0c-.34,1.5-.59,3.21-.75,5.12-.17,1.92-.34,3.96-.5,6.12-.17,2.17-.34,4.17-.5,6-.17,3.84-.38,8.84-.62,15-.25,6.17-.46,12.96-.62,20.38-.17,7.42-.34,14.92-.5,22.5-.17,7.59-.25,14.62-.25,21.12s.04,13.62.12,21.38c.08,7.75.25,15.42.5,23,.25,7.59.41,14.59.5,21,.08,6.42.12,11.54.12,15.38,0,7.67-.92,13.75-2.75,18.25-1.84,4.5-4.38,7.71-7.62,9.62-3.25,1.91-7.12,2.88-11.62,2.88-4.84,0-10.25-1.12-16.25-3.38s-11.71-5.29-17.12-9.12c-5.42-3.83-9.88-8.25-13.38-13.25s-5.25-10.25-5.25-15.75c0-7.5,2.88-14.83,8.62-22,5.75-7.16,13.25-13.83,22.5-20,9.25-6.16,19.04-11.16,29.38-15,11.33-4.5,22.91-7.88,34.75-10.12,11.83-2.25,22.66-3.38,32.5-3.38,12.16,0,22.96,2.09,32.38,6.25,9.41,4.17,16.83,9.96,22.25,17.38,5.41,7.42,8.12,16.12,8.12,26.12s-2.04,18.84-6.12,26.5c-4.09,7.67-10.09,14.09-18,19.25-7.92,5.17-17.62,9.16-29.12,12-5.5,1.16-10.96,1.96-16.38,2.38-5.42.41-10.29.79-14.62,1.12l-7-20.25c4.66.17,9.54.17,14.62,0,5.08-.16,9.96-.75,14.62-1.75,7.33-1.33,14.21-3.62,20.62-6.88,6.41-3.25,11.58-7.54,15.5-12.88,3.91-5.33,5.88-11.75,5.88-19.25s-1.92-13.16-5.75-18c-3.84-4.83-9-8.5-15.5-11s-13.75-3.75-21.75-3.75c-11,0-21.75,1.17-32.25,3.5-10.5,2.34-21.17,5.67-32,10-8,3-15.34,6.71-22,11.12-6.67,4.42-11.96,9.04-15.88,13.88-3.92,4.84-5.88,9.42-5.88,13.75,0,2.84.96,5.54,2.88,8.12,1.91,2.59,4.29,4.88,7.12,6.88,2.83,2,5.83,3.54,9,4.62,3.16,1.09,5.91,1.62,8.25,1.62,2.83,0,5.04-1,6.62-3,1.58-2,2.38-5.08,2.38-9.25,0-4.83-.09-11.54-.25-20.12-.17-8.58-.34-17.91-.5-28-.17-10.08-.25-19.71-.25-28.88,0-7.16.04-14.83.12-23,.08-8.16.16-16.08.25-23.75.08-7.66.16-14.41.25-20.25.08-5.83.12-10,.12-12.5,0-1.66-.04-3.62-.12-5.88-.09-2.25-.21-4.46-.38-6.62-.17-2.16-.42-3.91-.75-5.25h22.25ZM4,45c6.83.84,12.71,1.38,17.62,1.62,4.91.25,9.71.38,14.38.38,6.16,0,13.08-.33,20.75-1,7.66-.66,15.58-1.54,23.75-2.62,8.16-1.08,16.12-2.41,23.88-4,7.75-1.58,14.71-3.29,20.88-5.12l.5,19.5c-6.5,1.5-13.75,2.96-21.75,4.38-8,1.42-16.12,2.62-24.38,3.62s-16.12,1.84-23.62,2.5c-7.5.67-14,1-19.5,1-7.17,0-13.21-.08-18.12-.25-4.92-.16-9.54-.5-13.88-1l-.5-19ZM154,27.75c6,3.17,12.66,6.96,20,11.38,7.33,4.42,14.38,8.88,21.12,13.38s12.12,8.42,16.12,11.75l-10.25,16c-3-3-6.84-6.21-11.5-9.62-4.67-3.41-9.67-6.83-15-10.25-5.34-3.41-10.59-6.66-15.75-9.75-5.17-3.08-9.75-5.71-13.75-7.88l9-15Z" style="fill: #231f20; stroke-width: 0px;"/>
</svg>