<?xml version="1.0" encoding="UTF-8"?>
<svg id="Layer_1" data-name="Layer 1" xmlns="http://www.w3.org/2000/svg" viewBox="0 0 222.75 221">
  <path d="M0,37c3.83.34,8.33.34,13.5,0,5.5-.33,12-.88,19.5-1.62s15.08-1.75,22.75-3c7.66-1.25,14.79-2.54,21.38-3.88,6.58-1.33,11.62-2.66,15.12-4l6,17.5c-1.67.5-3.84,1.12-6.5,1.88-2.67.75-4.92,1.62-6.75,2.62-3.17,2.34-7.04,5.88-11.62,10.62-4.59,4.75-9.34,10.5-14.25,17.25-4.92,6.75-9.5,14.29-13.75,22.62-4.25,8.34-7.71,17.25-10.38,26.75-2.67,9.5-4,19.34-4,29.5,0,8.84,1.29,16.29,3.88,22.38,2.58,6.09,6.16,10.92,10.75,14.5,4.58,3.59,9.83,6.21,15.75,7.88,5.91,1.67,12.04,2.5,18.38,2.5,20,0,35.54-6.71,46.62-20.12,11.08-13.41,17.83-32.25,20.25-56.5,2.41-24.25.38-52.71-6.12-85.38l18.25,33.75c2.66,14.34,4.08,28.59,4.25,42.75.16,14.17-1.17,27.62-4,40.38-2.84,12.75-7.5,24.04-14,33.88-6.5,9.84-15.17,17.58-26,23.25-10.84,5.66-24.09,8.5-39.75,8.5-9.84,0-18.88-1.38-27.12-4.12s-15.42-6.79-21.5-12.12c-6.09-5.33-10.79-11.96-14.12-19.88-3.34-7.91-5-17.04-5-27.38,0-11.66,1.38-22.62,4.12-32.88s6.33-19.88,10.75-28.88c4.41-9,9.38-17.29,14.88-24.88,5.5-7.58,11-14.46,16.5-20.62-4.17.5-8.96,1.12-14.38,1.88-5.42.75-10.62,1.46-15.62,2.12-5,.67-9.09,1.17-12.25,1.5-2.34.34-4.62.67-6.88,1-2.25.34-4.62.75-7.12,1.25l-1.5-21ZM156.25,23.5c1.33,7.67,3.12,15.92,5.38,24.75,2.25,8.84,5.33,17.92,9.25,27.25,3.91,9.34,8.96,18.59,15.12,27.75,6.16,9.17,13.91,17.92,23.25,26.25l-13.25,17.75c-9.17-10-17.29-20.83-24.38-32.5-7.09-11.66-13.46-24.58-19.12-38.75-5.67-14.16-11-29.75-16-46.75l19.75-5.75ZM167.75,27.5c0-5,1.21-9.62,3.62-13.88,2.41-4.25,5.71-7.58,9.88-10,4.16-2.41,8.83-3.62,14-3.62s9.58,1.21,13.75,3.62c4.16,2.42,7.5,5.75,10,10s3.75,8.88,3.75,13.88-1.25,9.59-3.75,13.75c-2.5,4.17-5.84,7.5-10,10-4.17,2.5-8.75,3.75-13.75,3.75s-9.84-1.25-14-3.75c-4.17-2.5-7.46-5.83-9.88-10-2.42-4.16-3.62-8.75-3.62-13.75ZM179,27.5c0,4.5,1.58,8.29,4.75,11.38,3.16,3.09,7,4.62,11.5,4.62s8.08-1.54,11.25-4.62c3.16-3.08,4.75-6.88,4.75-11.38s-1.59-8.33-4.75-11.5c-3.17-3.16-6.92-4.75-11.25-4.75s-8.34,1.59-11.5,4.75-4.75,7-4.75,11.5Z" style="fill: #231f20; stroke-width: 0px;"/>
</svg>