<?xml version="1.0" encoding="UTF-8"?>
<svg id="Layer_1" data-name="Layer 1" xmlns="http://www.w3.org/2000/svg" viewBox="0 0 226.25 227.75">
  <path d="M35,28.75c-.5,1.34-1.04,3.04-1.62,5.12-.59,2.09-1.12,4.17-1.62,6.25-.5,2.09-.92,3.88-1.25,5.38-.84,4.67-1.84,10.17-3,16.5-1.17,6.34-2.25,13.17-3.25,20.5-1,7.34-1.92,14.71-2.75,22.12-.84,7.42-1.54,14.62-2.12,21.62-.59,7-.88,13.25-.88,18.75,0,6,.21,11.84.62,17.5.41,5.67,1.04,11.59,1.88,17.75,1.33-3.83,2.83-8,4.5-12.5,1.66-4.5,3.38-8.91,5.12-13.25,1.75-4.33,3.29-8.16,4.62-11.5l10.25,8.25c-2,5.67-4.21,12-6.62,19-2.42,7-4.62,13.75-6.62,20.25s-3.5,11.84-4.5,16c-.34,1.67-.62,3.54-.88,5.62-.25,2.09-.38,3.96-.38,5.62.16,1.16.29,2.54.38,4.12.08,1.58.21,3.12.38,4.62l-17.75,1.25c-2.5-9-4.71-20.21-6.62-33.62-1.92-13.41-2.88-28.62-2.88-45.62,0-9.16.46-18.75,1.38-28.75.91-10,2-19.75,3.25-29.25s2.5-18.25,3.75-26.25,2.21-14.58,2.88-19.75c.5-2.83.91-5.83,1.25-9,.33-3.16.5-6.08.5-8.75l22,2ZM152.5,48.25v57.75c0,7.84.16,15.79.5,23.88.33,8.09.71,15.96,1.12,23.62.41,7.67.79,14.79,1.12,21.38.33,6.59.5,12.38.5,17.38,0,10.17-3.5,18.09-10.5,23.75s-17.17,8.5-30.5,8.5c-9.17,0-17.38-1.29-24.62-3.88-7.25-2.59-13-6.46-17.25-11.62-4.25-5.16-6.38-11.66-6.38-19.5,0-6,1.71-11.58,5.12-16.75,3.41-5.16,8.62-9.38,15.62-12.62s16-4.88,27-4.88,21.46,1.17,30.88,3.5c9.41,2.34,17.96,5.46,25.62,9.38,7.66,3.92,14.58,8.12,20.75,12.62,6.16,4.5,11.58,8.84,16.25,13l-10.5,17.5c-8-8.16-16.54-15.33-25.62-21.5-9.09-6.16-18.5-10.96-28.25-14.38-9.75-3.41-19.62-5.12-29.62-5.12-8.84,0-15.96,1.71-21.38,5.12-5.42,3.42-8.12,7.79-8.12,13.12,0,6.17,2.62,10.84,7.88,14,5.25,3.17,12.21,4.75,20.88,4.75,6.5,0,11.5-1.04,15-3.12,3.5-2.08,5.96-4.88,7.38-8.38,1.41-3.5,2.12-7.41,2.12-11.75,0-3.66-.17-8.5-.5-14.5-.34-6-.71-12.58-1.12-19.75-.42-7.16-.75-14.46-1-21.88-.25-7.41-.38-14.38-.38-20.88v-58.75h18ZM74,97c15.16,1.17,30.12,1.71,44.88,1.62,14.75-.08,28.96-.62,42.62-1.62,13.66-1,26.16-2.16,37.5-3.5v18.25c-10.5,1.17-22.67,2.17-36.5,3-13.84.84-28.29,1.34-43.38,1.5-15.09.17-30.04-.08-44.88-.75l-.25-18.5ZM78,39.25c13.5,1,26.58,1.46,39.25,1.38,12.66-.08,24.75-.5,36.25-1.25s21.91-1.79,31.25-3.12v17.75c-9.34.84-19.71,1.59-31.12,2.25-11.42.67-23.5,1.04-36.25,1.12-12.75.09-25.88-.12-39.38-.62v-17.5ZM174,26.25c0-7.16,2.5-13.33,7.5-18.5,5-5.16,11.16-7.75,18.5-7.75s13.33,2.59,18.5,7.75c5.16,5.17,7.75,11.34,7.75,18.5s-2.59,13.5-7.75,18.5c-5.17,5-11.34,7.5-18.5,7.5s-13.5-2.5-18.5-7.5-7.5-11.16-7.5-18.5ZM185,26.25c0,4.34,1.46,7.92,4.38,10.75,2.91,2.84,6.46,4.25,10.62,4.25s7.75-1.41,10.75-4.25c3-2.83,4.5-6.41,4.5-10.75s-1.5-7.71-4.5-10.62c-3-2.91-6.59-4.38-10.75-4.38s-7.71,1.46-10.62,4.38-4.38,6.46-4.38,10.62Z" style="fill: #231f20; stroke-width: 0px;"/>
</svg>