<?xml version="1.0" encoding="UTF-8"?>
<svg id="Layer_1" data-name="Layer 1" xmlns="http://www.w3.org/2000/svg" viewBox="0 0 234.75 200.5">
  <path d="M75.5,136.5c-4.84,4.84-10.67,10.29-17.5,16.38-6.84,6.09-14.21,12.09-22.12,18-7.92,5.92-15.96,11.29-24.12,16.12L0,170.5c5.16-2.83,10.71-6.25,16.62-10.25,5.91-4,11.79-8.25,17.62-12.75,5.83-4.5,11.33-9,16.5-13.5,5.16-4.5,9.5-8.66,13-12.5l11.75,15ZM67,175.75c6.33,1.84,12.71,3.25,19.12,4.25,6.41,1,13.54,1.5,21.38,1.5,3.83,0,7.71-.58,11.62-1.75,3.91-1.16,7.16-3.29,9.75-6.38,2.58-3.08,3.88-7.29,3.88-12.62,0-4.33-1-8.88-3-13.62s-4.62-9.58-7.88-14.5c-3.25-4.91-6.71-9.66-10.38-14.25-3.67-4.58-7.25-8.71-10.75-12.38-2.67-3-5.79-6.16-9.38-9.5-3.59-3.33-7.12-6.5-10.62-9.5l14.75-12.75c3.16,3.17,6.29,6.38,9.38,9.62,3.08,3.25,6.04,6.46,8.88,9.62,7.83,8.17,14.75,16.12,20.75,23.88s10.71,15.38,14.12,22.88c3.41,7.5,5.12,15,5.12,22.5s-1.38,13.96-4.12,18.88c-2.75,4.92-6.29,8.75-10.62,11.5-4.34,2.75-9,4.66-14,5.75-5,1.08-9.75,1.62-14.25,1.62-8,0-15.42-.42-22.25-1.25-6.84-.84-13-1.75-18.5-2.75l-3-20.75ZM115.25,56.5c3.33-2.33,6.62-4.71,9.88-7.12,3.25-2.41,5.79-4.29,7.62-5.62-3.5-3-8.25-6.29-14.25-9.88-6-3.58-12.42-7.08-19.25-10.5-6.84-3.41-13.5-6.38-20-8.88L90.75,0c6.5,2.67,13.58,5.84,21.25,9.5,7.66,3.67,15.12,7.54,22.38,11.62,7.25,4.09,13.29,7.96,18.12,11.62l4.75,12.75c-1.5,1.34-3.42,2.92-5.75,4.75-2.34,1.84-4.88,3.84-7.62,6-2.75,2.17-5.5,4.29-8.25,6.38-2.75,2.09-5.29,3.96-7.62,5.62l-12.75-11.75ZM211.25,185.25c-1.67-6-3.96-12.54-6.88-19.62-2.92-7.08-6.25-14.25-10-21.5s-7.71-14.16-11.88-20.75c-4.17-6.58-8.42-12.29-12.75-17.12l16.25-9.25c4.33,5,8.66,10.84,13,17.5,4.33,6.67,8.5,13.59,12.5,20.75,4,7.17,7.58,14.21,10.75,21.12,3.16,6.92,5.75,13.12,7.75,18.62l-18.75,10.25ZM178,40.5c0-5.33,1.29-10.12,3.88-14.38,2.58-4.25,6-7.66,10.25-10.25,4.25-2.58,8.96-3.88,14.12-3.88s10.16,1.29,14.5,3.88c4.33,2.59,7.75,6,10.25,10.25s3.75,9.04,3.75,14.38-1.25,9.92-3.75,14.25c-2.5,4.34-5.92,7.75-10.25,10.25-4.34,2.5-9.17,3.75-14.5,3.75s-9.88-1.25-14.12-3.75-7.67-5.91-10.25-10.25c-2.59-4.33-3.88-9.08-3.88-14.25ZM189.75,40.5c0,4.5,1.62,8.42,4.88,11.75,3.25,3.34,7.12,5,11.62,5,4.83,0,8.88-1.66,12.12-5,3.25-3.33,4.88-7.25,4.88-11.75s-1.62-8.66-4.88-12c-3.25-3.33-7.29-5-12.12-5-4.5,0-8.38,1.67-11.62,5-3.25,3.34-4.88,7.34-4.88,12Z" style="fill: #231f20; stroke-width: 0px;"/>
</svg>