<?xml version="1.0" encoding="UTF-8"?>
<svg id="Layer_1" data-name="Layer 1" xmlns="http://www.w3.org/2000/svg" viewBox="0 0 168.5 206.06">
  <path d="M33.75,45.5c-.84,4.34-1.71,9.62-2.62,15.88-.92,6.25-1.88,12.79-2.88,19.62-1,6.84-1.92,13.34-2.75,19.5-.84,6.17-1.59,11.25-2.25,15.25,12.16-10.5,25.04-18.21,38.62-23.12,13.58-4.91,27.88-7.38,42.88-7.38,12.83,0,24,2.29,33.5,6.88,9.5,4.59,16.91,10.84,22.25,18.75,5.33,7.92,8,16.79,8,26.62,0,11.17-2.54,21.29-7.62,30.38-5.09,9.09-13,16.71-23.75,22.88s-24.46,10.54-41.12,13.12c-16.67,2.58-36.67,2.88-60,.88l-6-20.5c26.5,3.17,48.41,3.04,65.75-.38,17.33-3.41,30.29-9.25,38.88-17.5,8.58-8.25,12.88-18.04,12.88-29.38,0-6.66-1.92-12.58-5.75-17.75-3.84-5.16-9.04-9.21-15.62-12.12-6.59-2.91-14.12-4.38-22.62-4.38-16.34,0-31.12,2.96-44.38,8.88-13.25,5.92-24.29,14.12-33.12,24.62-1.84,2.17-3.34,4.29-4.5,6.38-1.17,2.09-2.17,4.12-3,6.12l-18.5-4.5c1-4.66,2-10.29,3-16.88,1-6.58,2-13.66,3-21.25,1-7.58,1.96-15.21,2.88-22.88.91-7.66,1.71-15.04,2.38-22.12.66-7.08,1.16-13.21,1.5-18.38l21,2.75ZM39.25,0c5.33,1.67,12.29,3.5,20.88,5.5,8.58,2,17.66,3.96,27.25,5.88,9.58,1.92,18.71,3.59,27.38,5,8.66,1.42,15.75,2.38,21.25,2.88l-4.75,19.25c-4.67-.66-10.38-1.58-17.12-2.75-6.75-1.16-13.96-2.5-21.62-4-7.67-1.5-15.25-3.04-22.75-4.62-7.5-1.58-14.34-3.08-20.5-4.5-6.17-1.41-11.17-2.62-15-3.62L39.25,0Z" style="fill: #231f20; stroke-width: 0px;"/>
</svg>