<?xml version="1.0" encoding="UTF-8"?>
<svg id="Layer_1" data-name="Layer 1" xmlns="http://www.w3.org/2000/svg" viewBox="0 0 230 208">
  <path d="M62,60c-2,.17-5.04.54-9.12,1.12-4.09.59-8.71,1.21-13.88,1.88-5.17.67-10.42,1.38-15.75,2.12-5.34.75-10.34,1.46-15,2.12l-2-20.5c2.66.17,5.29.21,7.88.12,2.58-.08,5.38-.21,8.38-.38,3.5-.16,7.79-.54,12.88-1.12,5.08-.58,10.41-1.25,16-2,5.58-.75,10.83-1.58,15.75-2.5,4.91-.91,8.79-1.88,11.62-2.88l7.25,8.75c-1.5,2-3.17,4.46-5,7.38-1.84,2.92-3.67,5.88-5.5,8.88-1.84,3-3.42,5.67-4.75,8l-7.75,34c-2.84,4.5-6.34,9.84-10.5,16-4.17,6.17-8.54,12.62-13.12,19.38-4.59,6.75-9.21,13.42-13.88,20-4.67,6.59-8.92,12.62-12.75,18.12L0,161.25c3.16-3.83,6.88-8.54,11.12-14.12,4.25-5.58,8.75-11.62,13.5-18.12s9.41-12.88,14-19.12c4.58-6.25,8.66-12.04,12.25-17.38,3.58-5.33,6.29-9.66,8.12-13l1-12.75,2-6.75ZM59.75,18.5c0-2.83-.04-5.83-.12-9-.09-3.16-.38-6.33-.88-9.5l23.5.75c-.67,3.34-1.5,8.54-2.5,15.62-1,7.09-1.96,15.46-2.88,25.12-.92,9.67-1.84,19.84-2.75,30.5-.92,10.67-1.62,21.21-2.12,31.62-.5,10.42-.75,20.04-.75,28.88v20.88c0,6.42.08,12.75.25,19,.16,6.25.41,13.04.75,20.38.16,2.17.33,4.67.5,7.5.16,2.83.41,5.41.75,7.75h-21.75c.33-2.34.54-4.88.62-7.62.08-2.75.12-5.12.12-7.12.16-8,.25-15.08.25-21.25s.04-12.54.12-19.12c.08-6.58.21-14.46.38-23.62,0-3.66.16-8.71.5-15.12.33-6.41.75-13.5,1.25-21.25s1-15.62,1.5-23.62,1-15.54,1.5-22.62c.5-7.08.91-13.12,1.25-18.12.33-5,.5-8.33.5-10ZM230,179.5c-6.67,6.67-13.84,11.79-21.5,15.38-7.67,3.59-15.84,5.38-24.5,5.38-8.17,0-14.84-2.66-20-8-5.17-5.33-7.75-13.16-7.75-23.5,0-7,.5-14.58,1.5-22.75,1-8.16,2.08-16.54,3.25-25.12,1.16-8.58,2.25-16.75,3.25-24.5s1.5-14.71,1.5-20.88c0-7.16-1.75-12.38-5.25-15.62s-8.5-4.88-15-4.88c-5.84,0-12.34,1.71-19.5,5.12-7.17,3.42-14.5,8-22,13.75s-14.84,12.17-22,19.25c-7.17,7.09-13.75,14.12-19.75,21.12l.5-24.75c3.16-3.33,7.21-7.25,12.12-11.75,4.91-4.5,10.41-9.16,16.5-14,6.08-4.83,12.54-9.33,19.38-13.5,6.83-4.16,13.62-7.5,20.38-10s13.21-3.75,19.38-3.75c7.83,0,14.33,1.38,19.5,4.12,5.16,2.75,9,6.67,11.5,11.75,2.5,5.09,3.75,10.96,3.75,17.62,0,6.17-.46,13.29-1.38,21.38-.92,8.09-2,16.46-3.25,25.12-1.25,8.67-2.34,17.09-3.25,25.25-.92,8.17-1.38,15.42-1.38,21.75,0,4.17,1.04,7.75,3.12,10.75,2.08,3,5.38,4.5,9.88,4.5,6,0,12.21-1.79,18.62-5.38,6.41-3.58,12.79-8.71,19.12-15.38l3.25,21.5Z" style="fill: #231f20; stroke-width: 0px;"/>
</svg>