<?xml version="1.0" encoding="UTF-8"?>
<svg id="Layer_1" data-name="Layer 1" xmlns="http://www.w3.org/2000/svg" viewBox="0 0 145 210.5">
  <path d="M31.75.75c-1.34,4.67-2.62,10.04-3.88,16.12-1.25,6.09-2.42,12.42-3.5,19-1.09,6.59-2,12.88-2.75,18.88s-1.29,11.17-1.62,15.5c2.66-6.33,6.16-12.83,10.5-19.5,4.33-6.66,9.5-12.79,15.5-18.38,6-5.58,12.54-10.12,19.62-13.62,7.08-3.5,14.54-5.25,22.38-5.25,11.16,0,21.04,3.5,29.62,10.5,8.58,7,15.29,16.92,20.12,29.75,4.83,12.84,7.25,28,7.25,45.5s-2.59,32.38-7.75,45.12c-5.17,12.75-12.42,23.54-21.75,32.38-9.34,8.84-20.46,16-33.38,21.5-12.92,5.5-27.12,9.58-42.62,12.25l-11.75-18c13.5-2,26.12-5.04,37.88-9.12,11.75-4.08,22.04-9.66,30.88-16.75,8.83-7.08,15.71-16.12,20.62-27.12,4.91-11,7.38-24.33,7.38-40,0-13.16-1.5-24.88-4.5-35.12s-7.42-18.29-13.25-24.12c-5.84-5.83-13.17-8.75-22-8.75-7.84,0-15.34,2.5-22.5,7.5-7.17,5-13.71,11.46-19.62,19.38-5.92,7.92-10.71,16.42-14.38,25.5-3.67,9.09-5.92,17.71-6.75,25.88-.67,4.84-.96,9.59-.88,14.25.08,4.67.54,10.17,1.38,16.5l-19.25,1.5c-.67-4.66-1.29-10.41-1.88-17.25-.59-6.83-.88-14.33-.88-22.5,0-5.83.29-12.38.88-19.62.58-7.25,1.25-14.58,2-22,.75-7.41,1.58-14.54,2.5-21.38.91-6.83,1.71-12.75,2.38-17.75.5-3.83.91-7.54,1.25-11.12.33-3.58.58-7.04.75-10.38l22,.75Z" style="fill: #231f20; stroke-width: 0px;"/>
</svg>