<?xml version="1.0" encoding="UTF-8"?>
<svg id="Layer_1" data-name="Layer 1" xmlns="http://www.w3.org/2000/svg" viewBox="0 0 186 197.28">
  <path d="M31,3.75c2.33.17,4.96.34,7.88.5,2.91.17,6.12.25,9.62.25,2.66,0,6.79-.04,12.38-.12,5.58-.08,11.91-.21,19-.38,7.08-.16,14.21-.38,21.38-.62,7.16-.25,13.71-.46,19.62-.62,5.91-.16,10.46-.33,13.62-.5,2.16-.33,4.58-.66,7.25-1,2.66-.33,4.91-.75,6.75-1.25l12,14.5c-1.67.84-3.59,2-5.75,3.5-2.17,1.5-3.92,2.75-5.25,3.75-4.67,3.84-9.88,8.17-15.62,13-5.75,4.84-11.79,9.84-18.12,15-6.34,5.17-12.54,10.21-18.62,15.12-6.09,4.92-11.71,9.54-16.88,13.88,6.83-2.66,13.25-4.46,19.25-5.38,6-.91,11.5-1.38,16.5-1.38,14,0,26.21,2.42,36.62,7.25,10.41,4.84,18.58,11.54,24.5,20.12,5.91,8.59,8.88,18.54,8.88,29.88,0,16-5.09,29.38-15.25,40.12-10.17,10.75-24.92,18.46-44.25,23.12-19.34,4.66-42.84,5.91-70.5,3.75l-5.5-20.25c17.33,2.17,33.04,2.67,47.12,1.5,14.08-1.16,26.12-3.83,36.12-8,10-4.16,17.71-9.66,23.12-16.5,5.41-6.83,8.12-14.83,8.12-24,0-12-4.75-21.75-14.25-29.25s-22.25-11.25-38.25-11.25c-10.84,0-20.54,1.29-29.12,3.88-8.59,2.59-16.59,6.21-24,10.88-7.42,4.67-14.67,10.17-21.75,16.5-7.09,6.34-14.54,13.25-22.38,20.75L0,125c7.33-5.83,15.58-12.46,24.75-19.88,9.16-7.41,18.62-15.21,28.38-23.38,9.75-8.16,19.25-16.16,28.5-24,9.25-7.83,17.54-15.08,24.88-21.75,7.33-6.66,13.08-12.16,17.25-16.5-3,.17-7.09.38-12.25.62-5.17.25-10.84.5-17,.75-6.17.25-12.25.5-18.25.75s-11.38.5-16.12.75-8.38.46-10.88.62c-2.84.17-5.88.38-9.12.62s-6.12.62-8.62,1.12l-.5-21Z" style="fill: #231f20; stroke-width: 0px;"/>
</svg>