<?xml version="1.0" encoding="UTF-8"?>
<svg id="Layer_1" data-name="Layer 1" xmlns="http://www.w3.org/2000/svg" viewBox="0 0 186 199.25">
  <path d="M31.5,4.25c2.83.34,5.88.59,9.12.75,3.25.17,6.12.25,8.62.25s6.62-.08,12.38-.25c5.75-.16,12.25-.38,19.5-.62l21.75-.75c7.25-.25,13.75-.54,19.5-.88,5.75-.33,9.96-.58,12.62-.75,3.66-.33,6.5-.66,8.5-1,2-.33,3.66-.66,5-1l11.5,14.5c-2.17,1.5-4.46,3.09-6.88,4.75-2.42,1.67-4.79,3.5-7.12,5.5-3.17,2.34-7.42,5.71-12.75,10.12-5.34,4.42-11.21,9.34-17.62,14.75-6.42,5.42-12.71,10.71-18.88,15.88-6.17,5.17-11.75,9.84-16.75,14,5.83-2,11.71-3.38,17.62-4.12,5.91-.75,11.62-1.12,17.12-1.12,13.83,0,26.12,2.54,36.88,7.62,10.75,5.09,19.16,12.04,25.25,20.88,6.08,8.84,9.12,18.92,9.12,30.25,0,13.34-3.5,25-10.5,35s-16.92,17.71-29.75,23.12c-12.84,5.41-28.09,8.12-45.75,8.12-11.34,0-21.09-1.5-29.25-4.5-8.17-3-14.46-7.16-18.88-12.5-4.42-5.33-6.62-11.5-6.62-18.5,0-5.66,1.58-11,4.75-16,3.16-5,7.66-9,13.5-12,5.83-3,12.58-4.5,20.25-4.5,11.16,0,20.41,2.29,27.75,6.88,7.33,4.59,13,10.59,17,18,4,7.42,6.25,15.38,6.75,23.88l-18,3c-.67-10.66-3.96-19.46-9.88-26.38-5.92-6.91-13.88-10.38-23.88-10.38-5.67,0-10.42,1.59-14.25,4.75-3.84,3.17-5.75,6.92-5.75,11.25,0,6,3.08,10.75,9.25,14.25,6.16,3.5,14.16,5.25,24,5.25,14.16,0,26.46-1.91,36.88-5.75,10.41-3.83,18.41-9.41,24-16.75,5.58-7.33,8.38-16.16,8.38-26.5,0-8.16-2.42-15.5-7.25-22-4.84-6.5-11.46-11.62-19.88-15.38-8.42-3.75-18.04-5.62-28.88-5.62s-19.92,1.12-28.25,3.38c-8.34,2.25-16.12,5.46-23.38,9.62-7.25,4.17-14.42,9.38-21.5,15.62-7.09,6.25-14.62,13.38-22.62,21.38L0,125c5.16-4.16,10.88-8.88,17.12-14.12s12.54-10.5,18.88-15.75c6.33-5.25,12.21-10.16,17.62-14.75,5.41-4.58,9.96-8.38,13.62-11.38,3.5-2.83,7.88-6.46,13.12-10.88,5.25-4.41,10.71-9.04,16.38-13.88,5.66-4.83,11.04-9.41,16.12-13.75,5.08-4.33,9.21-7.83,12.38-10.5-2.67,0-6.59.12-11.75.38-5.17.25-10.92.5-17.25.75-6.34.25-12.62.54-18.88.88-6.25.34-11.92.62-17,.88-5.09.25-8.96.46-11.62.62-2.67.17-5.42.34-8.25.5-2.84.17-5.59.5-8.25,1l-.75-20.75Z" style="fill: #231f20; stroke-width: 0px;"/>
</svg>