<?xml version="1.0" encoding="UTF-8"?>
<svg id="Layer_1" data-name="Layer 1" xmlns="http://www.w3.org/2000/svg" viewBox="0 0 361.75 217.5">
  <path d="M31.75.75c-1.34,4.67-2.62,10.04-3.88,16.12-1.25,6.09-2.42,12.42-3.5,19-1.09,6.59-2,12.88-2.75,18.88s-1.29,11.17-1.62,15.5c2.66-6.33,6.16-12.83,10.5-19.5,4.33-6.66,9.5-12.79,15.5-18.38,6-5.58,12.54-10.12,19.62-13.62,7.08-3.5,14.54-5.25,22.38-5.25,11.16,0,21.04,3.5,29.62,10.5,8.58,7,15.29,16.92,20.12,29.75,4.83,12.84,7.25,28,7.25,45.5s-2.59,32.38-7.75,45.12c-5.17,12.75-12.42,23.54-21.75,32.38-9.34,8.84-20.46,16-33.38,21.5-12.92,5.5-27.12,9.58-42.62,12.25l-11.75-18c13.5-2,26.12-5.04,37.88-9.12,11.75-4.08,22.04-9.66,30.88-16.75,8.83-7.08,15.71-16.12,20.62-27.12,4.91-11,7.38-24.33,7.38-40,0-13.16-1.5-24.88-4.5-35.12s-7.42-18.29-13.25-24.12c-5.84-5.83-13.17-8.75-22-8.75-7.84,0-15.34,2.5-22.5,7.5-7.17,5-13.71,11.46-19.62,19.38-5.92,7.92-10.71,16.42-14.38,25.5-3.67,9.09-5.92,17.71-6.75,25.88-.67,4.84-.96,9.59-.88,14.25.08,4.67.54,10.17,1.38,16.5l-19.25,1.5c-.67-4.66-1.29-10.41-1.88-17.25-.59-6.83-.88-14.33-.88-22.5,0-5.83.29-12.38.88-19.62.58-7.25,1.25-14.58,2-22,.75-7.41,1.58-14.54,2.5-21.38.91-6.83,1.71-12.75,2.38-17.75.5-3.83.91-7.54,1.25-11.12.33-3.58.58-7.04.75-10.38l22,.75Z" style="fill: #231f20; stroke-width: 0px;"/>
  <path d="M180,117.25c3.83-.83,7.33-1.75,10.5-2.75,3.16-1,5.58-1.83,7.25-2.5,5.66-2.33,12.25-5.16,19.75-8.5,7.5-3.33,15.5-6.83,24-10.5,8.5-3.66,17.08-7.12,25.75-10.38,8.66-3.25,17-5.91,25-8,8-2.08,15.16-3.12,21.5-3.12,11,0,20.04,1.92,27.12,5.75,7.08,3.84,12.33,8.79,15.75,14.88,3.41,6.09,5.12,12.71,5.12,19.88,0,12.84-4,23.25-12,31.25s-20.67,12-38,12c-5.5,0-11.12-.66-16.88-2-5.75-1.33-10.46-2.75-14.12-4.25l.75-18.25c4,1.84,8.62,3.46,13.88,4.88,5.25,1.42,10.38,2.12,15.38,2.12,8.16,0,14.58-1.21,19.25-3.62,4.66-2.41,8-5.62,10-9.62s3-8.16,3-12.5c0-3.66-.96-7.25-2.88-10.75-1.92-3.5-5-6.41-9.25-8.75-4.25-2.33-10.21-3.5-17.88-3.5-6.5,0-14.21,1.29-23.12,3.88-8.92,2.59-18.25,5.88-28,9.88s-19.29,8.29-28.62,12.88c-9.34,4.59-17.79,8.75-25.38,12.5-7.59,3.75-13.62,6.62-18.12,8.62l-9.75-19.5ZM221.5,58c1,2,2.04,4.04,3.12,6.12,1.08,2.09,2.04,3.96,2.88,5.62,2.33,4.34,5.21,9.88,8.62,16.62,3.41,6.75,6.88,13.79,10.38,21.12,3.5,7.34,6.5,14.09,9,20.25,2.83,6.34,5.66,13.25,8.5,20.75,2.83,7.5,5.58,15.09,8.25,22.75,2.66,7.67,5.21,15.04,7.62,22.12,2.41,7.08,4.46,13.29,6.12,18.62l-19.75,5.5c-2.17-8-4.71-16.71-7.62-26.12-2.92-9.41-6.04-18.96-9.38-28.62-3.34-9.66-6.84-18.75-10.5-27.25-3.17-7.16-6.42-14.33-9.75-21.5-3.34-7.16-6.46-13.75-9.38-19.75-2.92-6-5.54-10.75-7.88-14.25-1.17-2-2.71-4.38-4.62-7.12-1.92-2.75-3.79-5.12-5.62-7.12l20-7.75ZM281.75,73.5c-3.67-3.83-7.92-7.96-12.75-12.38-4.84-4.41-9.67-8.21-14.5-11.38l14-10.5c2.16,1.5,4.96,3.67,8.38,6.5,3.41,2.84,6.79,5.75,10.12,8.75,3.33,3,6.16,5.75,8.5,8.25l-13.75,10.75Z" style="fill: #231f20; stroke-width: 0px;"/>
</svg>