<?xml version="1.0" encoding="UTF-8"?>
<svg id="Layer_1" data-name="Layer 1" xmlns="http://www.w3.org/2000/svg" viewBox="0 0 360.75 219">
  <path d="M31.75.75c-1.34,4.67-2.62,10.04-3.88,16.12-1.25,6.09-2.42,12.42-3.5,19-1.09,6.59-2,12.88-2.75,18.88s-1.29,11.17-1.62,15.5c2.66-6.33,6.16-12.83,10.5-19.5,4.33-6.66,9.5-12.79,15.5-18.38,6-5.58,12.54-10.12,19.62-13.62,7.08-3.5,14.54-5.25,22.38-5.25,11.16,0,21.04,3.5,29.62,10.5,8.58,7,15.29,16.92,20.12,29.75,4.83,12.84,7.25,28,7.25,45.5s-2.59,32.38-7.75,45.12c-5.17,12.75-12.42,23.54-21.75,32.38-9.34,8.84-20.46,16-33.38,21.5-12.92,5.5-27.12,9.58-42.62,12.25l-11.75-18c13.5-2,26.12-5.04,37.88-9.12,11.75-4.08,22.04-9.66,30.88-16.75,8.83-7.08,15.71-16.12,20.62-27.12,4.91-11,7.38-24.33,7.38-40,0-13.16-1.5-24.88-4.5-35.12s-7.42-18.29-13.25-24.12c-5.84-5.83-13.17-8.75-22-8.75-7.84,0-15.34,2.5-22.5,7.5-7.17,5-13.71,11.46-19.62,19.38-5.92,7.92-10.71,16.42-14.38,25.5-3.67,9.09-5.92,17.71-6.75,25.88-.67,4.84-.96,9.59-.88,14.25.08,4.67.54,10.17,1.38,16.5l-19.25,1.5c-.67-4.66-1.29-10.41-1.88-17.25-.59-6.83-.88-14.33-.88-22.5,0-5.83.29-12.38.88-19.62.58-7.25,1.25-14.58,2-22,.75-7.41,1.58-14.54,2.5-21.38.91-6.83,1.71-12.75,2.38-17.75.5-3.83.91-7.54,1.25-11.12.33-3.58.58-7.04.75-10.38l22,.75Z" style="fill: #231f20; stroke-width: 0px;"/>
  <path d="M222.5,56.25c-.5,1.5-1,3.17-1.5,5-.5,1.84-1,3.5-1.5,5-.67,3.34-1.42,7.5-2.25,12.5-.84,5-1.59,10.34-2.25,16-.67,5.67-1.17,11.17-1.5,16.5-.34,5.34-.42,10-.25,14,5-11.83,11.91-21.96,20.75-30.38,8.83-8.41,18.79-14.91,29.88-19.5,11.08-4.58,22.38-6.88,33.88-6.88,13.83,0,25.41,2.5,34.75,7.5,9.33,5,16.38,11.71,21.12,20.12,4.75,8.42,7.12,17.79,7.12,28.12,0,11.17-2.34,21.5-7,31-4.67,9.5-11.75,17.04-21.25,22.62-9.5,5.59-21.75,8.38-36.75,8.38-8,0-15.71-1.41-23.12-4.25-7.42-2.83-14.17-7-20.25-12.5-6.09-5.5-11.12-12.25-15.12-20.25l10.5-14.5c4.83,10.17,11.21,18.25,19.12,24.25,7.91,6,17.54,9,28.88,9,10.66,0,19.46-1.88,26.38-5.62,6.91-3.75,12.04-8.88,15.38-15.38,3.33-6.5,5-13.91,5-22.25,0-7.33-1.5-14-4.5-20s-7.84-10.79-14.5-14.38c-6.67-3.58-15.42-5.38-26.25-5.38s-21,1.88-30,5.62-16.88,8.75-23.62,15-12.29,13.12-16.62,20.62c-4.34,7.5-7.25,15-8.75,22.5-.34,1.67-.67,3.59-1,5.75-.34,2.17-.42,4.42-.25,6.75,0,1.5.16,3.54.5,6.12.33,2.59.71,5.17,1.12,7.75.41,2.59.79,4.71,1.12,6.38l-16.75,2.5c-2-6.33-3.71-14.29-5.12-23.88-1.42-9.58-2.12-19.38-2.12-29.38,0-6,.25-12.29.75-18.88.5-6.58,1.04-12.91,1.62-19,.58-6.08,1.16-11.58,1.75-16.5.58-4.91,1.12-8.79,1.62-11.62.16-1.83.25-3.66.25-5.5s-.09-3.41-.25-4.75l21,1.75ZM295,44.25c1,4.67,2,10.88,3,18.62s1.88,16.38,2.62,25.88,1.12,19.17,1.12,29c0,14.5-1.25,28.09-3.75,40.75-2.5,12.67-6.88,24.12-13.12,34.38s-14.88,18.96-25.88,26.12l-17-10.5c8.16-4.67,15-10.17,20.5-16.5s9.83-13.41,13-21.25c3.16-7.83,5.41-16.29,6.75-25.38,1.33-9.08,2-18.62,2-28.62,0-14.66-.62-27.04-1.88-37.12-1.25-10.08-2.38-17.88-3.38-23.38-.5-2.16-1.09-4.21-1.75-6.12-.67-1.91-1.25-3.71-1.75-5.38l19.5-.5Z" style="fill: #231f20; stroke-width: 0px;"/>
</svg>