<?xml version="1.0" encoding="UTF-8"?>
<svg id="Layer_1" data-name="Layer 1" xmlns="http://www.w3.org/2000/svg" viewBox="0 0 176 210">
  <path d="M0,41.75c14,1.67,27.54,2.84,40.62,3.5,13.08.67,25.5.84,37.25.5,11.75-.33,22.38-1,31.88-2,6.66-.83,13.71-1.83,21.12-3,7.41-1.16,14.79-2.66,22.12-4.5,7.33-1.83,14.25-3.75,20.75-5.75l2.25,19.5c-5.84,1.84-12.25,3.42-19.25,4.75-7,1.34-14,2.59-21,3.75-7,1.17-13.59,2.09-19.75,2.75-15.84,1.84-33.54,2.84-53.12,3-19.59.17-40.38-.66-62.38-2.5l-.5-20ZM38.5,121.5c-3.67,6-6.54,11.79-8.62,17.38-2.09,5.59-3.12,11.38-3.12,17.38,0,11.84,5.16,20.5,15.5,26,10.33,5.5,24.75,8.34,43.25,8.5,12.83.17,24.62-.33,35.38-1.5,10.75-1.16,20.46-2.75,29.12-4.75l-1,20c-7.67,1.33-16.84,2.58-27.5,3.75-10.67,1.16-23,1.75-37,1.75-15.84-.17-29.54-2.17-41.12-6-11.59-3.84-20.54-9.54-26.88-17.12-6.34-7.58-9.5-17.04-9.5-28.38,0-6.83,1.12-13.62,3.38-20.38s5.12-13.79,8.62-21.12l19.5,4.5ZM91.5,22.25c-.84-2.66-1.79-5.75-2.88-9.25-1.09-3.5-2.21-6.91-3.38-10.25l21.25-2.75c.83,4.84,2,10.29,3.5,16.38,1.5,6.09,3.25,12.25,5.25,18.5s4,12.04,6,17.38c3.83,10.84,8.66,21.62,14.5,32.38,5.83,10.75,11.33,19.79,16.5,27.12,1.83,2.34,3.66,4.59,5.5,6.75,1.83,2.17,3.66,4.34,5.5,6.5l-10.25,14c-3-.66-6.96-1.33-11.88-2-4.92-.66-10.25-1.29-16-1.88-5.75-.58-11.46-1.12-17.12-1.62-5.67-.5-10.75-.91-15.25-1.25l1.5-16.75c4.66.34,9.62.75,14.88,1.25s10.25.96,15,1.38c4.75.42,8.62.79,11.62,1.12-3.5-5.33-7.25-11.46-11.25-18.38-4-6.91-7.88-14.25-11.62-22s-7.04-15.38-9.88-22.88c-2.67-7.33-4.92-13.83-6.75-19.5-1.84-5.66-3.42-10.41-4.75-14.25Z" style="fill: #231f20; stroke-width: 0px;"/>
</svg>