<?xml version="1.0" encoding="UTF-8"?>
<svg id="Layer_1" data-name="Layer 1" xmlns="http://www.w3.org/2000/svg" viewBox="0 0 219.25 197">
  <path d="M0,67.75c4,0,8.21-.16,12.62-.5,4.41-.33,8.88-.66,13.38-1,5.5-.5,13.33-1.25,23.5-2.25,10.16-1,21.71-2.08,34.62-3.25,12.91-1.16,26.29-2.38,40.12-3.62,13.83-1.25,27.29-2.41,40.38-3.5,13.08-1.08,24.79-1.88,35.12-2.38,3.16-.33,6.46-.58,9.88-.75,3.41-.16,6.62-.33,9.62-.5v19.5c-1.34-.16-3.12-.21-5.38-.12-2.25.09-4.67.12-7.25.12h-7.12c-6.67.17-14.75.54-24.25,1.12-9.5.59-19.79,1.34-30.88,2.25-11.09.92-22.38,1.92-33.88,3-11.5,1.09-22.59,2.21-33.25,3.38-10.67,1.17-20.29,2.21-28.88,3.12-8.59.92-15.54,1.71-20.88,2.38-2.5.34-5.29.71-8.38,1.12-3.09.42-6.12.84-9.12,1.25-3,.42-5.59.79-7.75,1.12l-2.25-20.5ZM74.75,7.75c-.34,3-.59,6.17-.75,9.5-.17,3.34-.25,6.92-.25,10.75,0,5.34-.04,12.12-.12,20.38-.09,8.25-.17,17-.25,26.25-.09,9.25-.12,18.29-.12,27.12v23.75c0,7,.08,12.25.25,15.75.33,6.67.79,12.34,1.38,17,.58,4.67,2.21,8.42,4.88,11.25,2.66,2.84,7,4.92,13,6.25,6,1.34,14.41,2,25.25,2,9,0,18.16-.29,27.5-.88,9.33-.58,18.12-1.33,26.38-2.25,8.25-.91,15.04-1.88,20.38-2.88l-.75,21.25c-5.5.5-12.34,1.08-20.5,1.75-8.17.66-16.75,1.21-25.75,1.62-9,.41-17.75.62-26.25.62-14.5,0-26-.92-34.5-2.75s-14.84-4.79-19-8.88c-4.17-4.08-6.96-9.54-8.38-16.38-1.42-6.83-2.29-15.16-2.62-25,0-3.5-.04-8.46-.12-14.88-.09-6.41-.12-13.66-.12-21.75v-24.62c0-8.33.04-16.25.12-23.75.08-7.5.12-13.91.12-19.25v-10.75c0-3.83-.12-7.38-.38-10.62s-.62-6.79-1.12-10.62h21.75ZM173.75,0c-.17,1.34-.34,3.09-.5,5.25-.17,2.17-.29,4.38-.38,6.62-.09,2.25-.21,4.29-.38,6.12,0,5.17-.04,10.5-.12,16-.09,5.5-.17,10.79-.25,15.88-.09,5.09-.21,9.79-.38,14.12-.17,6.34-.38,13.29-.62,20.88-.25,7.59-.59,14.79-1,21.62-.42,6.84-1.12,12.42-2.12,16.75-1.17,5.5-3.21,9.25-6.12,11.25-2.92,2-7.29,3-13.12,3-3,0-6.67-.21-11-.62-4.34-.41-8.5-.88-12.5-1.38s-7.17-1-9.5-1.5l.5-17.25c4.33,1,8.88,1.79,13.62,2.38,4.75.59,8.54.88,11.38.88,3.16,0,5.46-.41,6.88-1.25,1.41-.83,2.29-2.66,2.62-5.5.66-3.33,1.16-7.71,1.5-13.12.33-5.41.62-11.33.88-17.75.25-6.41.46-12.54.62-18.38V18.75c0-1.83-.04-3.91-.12-6.25-.09-2.33-.21-4.62-.38-6.88-.17-2.25-.42-4.12-.75-5.62h21.25Z" style="fill: #231f20; stroke-width: 0px;"/>
</svg>