<?xml version="1.0" encoding="UTF-8"?>
<svg id="Layer_1" data-name="Layer 1" xmlns="http://www.w3.org/2000/svg" viewBox="0 0 363 214.5">
  <path d="M25.75.25c-.67,4.17-1.17,8.38-1.5,12.62-.34,4.25-.59,8.46-.75,12.62-.34,7-.67,15.67-1,26-.34,10.34-.67,21.29-1,32.88-.34,11.59-.59,23.12-.75,34.62-.17,11.5-.25,21.84-.25,31s1.75,16.5,5.25,22,8.33,9.42,14.5,11.75c6.16,2.34,13.25,3.5,21.25,3.5,11.33,0,21.58-1.46,30.75-4.38,9.16-2.91,17.33-6.83,24.5-11.75,7.16-4.91,13.54-10.46,19.12-16.62,5.58-6.16,10.62-12.5,15.12-19l14.25,17c-4.34,6-9.62,12.21-15.88,18.62-6.25,6.42-13.62,12.38-22.12,17.88s-18.29,10-29.38,13.5c-11.09,3.5-23.46,5.25-37.12,5.25-11.84,0-22.34-1.84-31.5-5.5-9.17-3.67-16.34-9.58-21.5-17.75-5.17-8.16-7.75-19-7.75-32.5,0-7.5.08-15.79.25-24.88.16-9.08.41-18.46.75-28.12.33-9.66.58-19.12.75-28.38.16-9.25.33-17.79.5-25.62.16-7.83.25-14.33.25-19.5,0-4.66-.17-9.16-.5-13.5C1.66,7.67,1.16,3.67.5,0l25.25.25Z" style="fill: #231f20; stroke-width: 0px;"/>
  <path d="M181.25,114.25c3.83-.83,7.33-1.75,10.5-2.75,3.16-1,5.58-1.83,7.25-2.5,5.66-2.33,12.25-5.16,19.75-8.5,7.5-3.33,15.5-6.83,24-10.5,8.5-3.66,17.08-7.12,25.75-10.38,8.66-3.25,17-5.91,25-8,8-2.08,15.16-3.12,21.5-3.12,11,0,20.04,1.92,27.12,5.75,7.08,3.84,12.33,8.79,15.75,14.88,3.41,6.09,5.12,12.71,5.12,19.88,0,12.84-4,23.25-12,31.25s-20.67,12-38,12c-5.5,0-11.12-.66-16.88-2-5.75-1.33-10.46-2.75-14.12-4.25l.75-18.25c4,1.84,8.62,3.46,13.88,4.88,5.25,1.42,10.38,2.12,15.38,2.12,8.16,0,14.58-1.21,19.25-3.62,4.66-2.41,8-5.62,10-9.62s3-8.16,3-12.5c0-3.66-.96-7.25-2.88-10.75-1.92-3.5-5-6.41-9.25-8.75-4.25-2.33-10.21-3.5-17.88-3.5-6.5,0-14.21,1.29-23.12,3.88-8.92,2.59-18.25,5.88-28,9.88s-19.29,8.29-28.62,12.88c-9.34,4.59-17.79,8.75-25.38,12.5-7.59,3.75-13.62,6.62-18.12,8.62l-9.75-19.5ZM222.75,55c1,2,2.04,4.04,3.12,6.12,1.08,2.09,2.04,3.96,2.88,5.62,2.33,4.34,5.21,9.88,8.62,16.62,3.41,6.75,6.88,13.79,10.38,21.12,3.5,7.34,6.5,14.09,9,20.25,2.83,6.34,5.66,13.25,8.5,20.75,2.83,7.5,5.58,15.09,8.25,22.75,2.66,7.67,5.21,15.04,7.62,22.12,2.41,7.08,4.46,13.29,6.12,18.62l-19.75,5.5c-2.17-8-4.71-16.71-7.62-26.12-2.92-9.41-6.04-18.96-9.38-28.62-3.34-9.66-6.84-18.75-10.5-27.25-3.17-7.16-6.42-14.33-9.75-21.5-3.34-7.16-6.46-13.75-9.38-19.75-2.92-6-5.54-10.75-7.88-14.25-1.17-2-2.71-4.38-4.62-7.12-1.92-2.75-3.79-5.12-5.62-7.12l20-7.75ZM283,70.5c-3.67-3.83-7.92-7.96-12.75-12.38-4.84-4.41-9.67-8.21-14.5-11.38l14-10.5c2.16,1.5,4.96,3.67,8.38,6.5,3.41,2.84,6.79,5.75,10.12,8.75,3.33,3,6.16,5.75,8.5,8.25l-13.75,10.75Z" style="fill: #231f20; stroke-width: 0px;"/>
</svg>