<?xml version="1.0" encoding="UTF-8"?>
<svg id="Layer_1" data-name="Layer 1" xmlns="http://www.w3.org/2000/svg" viewBox="0 0 165.25 207.75">
  <path d="M25.75.25c-.67,4.17-1.17,8.38-1.5,12.62-.34,4.25-.59,8.46-.75,12.62-.34,7-.67,15.67-1,26-.34,10.34-.67,21.29-1,32.88-.34,11.59-.59,23.12-.75,34.62-.17,11.5-.25,21.84-.25,31s1.75,16.5,5.25,22,8.33,9.42,14.5,11.75c6.16,2.34,13.25,3.5,21.25,3.5,11.33,0,21.58-1.46,30.75-4.38,9.16-2.91,17.33-6.83,24.5-11.75,7.16-4.91,13.54-10.46,19.12-16.62,5.58-6.16,10.62-12.5,15.12-19l14.25,17c-4.34,6-9.62,12.21-15.88,18.62-6.25,6.42-13.62,12.38-22.12,17.88s-18.29,10-29.38,13.5c-11.09,3.5-23.46,5.25-37.12,5.25-11.84,0-22.34-1.84-31.5-5.5-9.17-3.67-16.34-9.58-21.5-17.75-5.17-8.16-7.75-19-7.75-32.5,0-7.5.08-15.79.25-24.88.16-9.08.41-18.46.75-28.12.33-9.66.58-19.12.75-28.38.16-9.25.33-17.79.5-25.62.16-7.83.25-14.33.25-19.5,0-4.66-.17-9.16-.5-13.5C1.66,7.67,1.16,3.67.5,0l25.25.25Z" style="fill: #231f20; stroke-width: 0px;"/>
</svg>