<?xml version="1.0" encoding="UTF-8"?>
<svg id="Layer_1" data-name="Layer 1" xmlns="http://www.w3.org/2000/svg" viewBox="0 0 335.75 211">
  <path d="M25.75.25c-.67,4.17-1.17,8.38-1.5,12.62-.34,4.25-.59,8.46-.75,12.62-.34,7-.67,15.67-1,26-.34,10.34-.67,21.29-1,32.88-.34,11.59-.59,23.12-.75,34.62-.17,11.5-.25,21.84-.25,31s1.75,16.5,5.25,22,8.33,9.42,14.5,11.75c6.16,2.34,13.25,3.5,21.25,3.5,11.33,0,21.58-1.46,30.75-4.38,9.16-2.91,17.33-6.83,24.5-11.75,7.16-4.91,13.54-10.46,19.12-16.62,5.58-6.16,10.62-12.5,15.12-19l14.25,17c-4.34,6-9.62,12.21-15.88,18.62-6.25,6.42-13.62,12.38-22.12,17.88s-18.29,10-29.38,13.5c-11.09,3.5-23.46,5.25-37.12,5.25-11.84,0-22.34-1.84-31.5-5.5-9.17-3.67-16.34-9.58-21.5-17.75-5.17-8.16-7.75-19-7.75-32.5,0-7.5.08-15.79.25-24.88.16-9.08.41-18.46.75-28.12.33-9.66.58-19.12.75-28.38.16-9.25.33-17.79.5-25.62.16-7.83.25-14.33.25-19.5,0-4.66-.17-9.16-.5-13.5C1.66,7.67,1.16,3.67.5,0l25.25.25Z" style="fill: #231f20; stroke-width: 0px;"/>
  <path d="M272,39.75c-.34,1.84-.67,4.84-1,9-.34,4.17-.5,8-.5,11.5v41.25c0,5.34.12,11.59.38,18.75.25,7.17.58,14.54,1,22.12.41,7.59.79,14.71,1.12,21.38.33,6.67.5,12.17.5,16.5,0,5.34-1.25,10.34-3.75,15s-6.46,8.46-11.88,11.38c-5.42,2.91-12.79,4.38-22.12,4.38s-18.34-1.29-26-3.88c-7.67-2.59-13.62-6.34-17.88-11.25s-6.38-11.04-6.38-18.38c0-10.33,4.58-18.62,13.75-24.88,9.16-6.25,22.33-9.38,39.5-9.38,10.5,0,20.5,1.21,30,3.62,9.5,2.42,18.41,5.62,26.75,9.62,8.33,4,15.88,8.34,22.62,13,6.75,4.67,12.62,9.34,17.62,14l-10.5,17.5c-5-5.17-10.75-10.25-17.25-15.25s-13.54-9.54-21.12-13.62c-7.59-4.08-15.59-7.33-24-9.75-8.42-2.41-17.12-3.62-26.12-3.62-10,0-18.09,1.54-24.25,4.62-6.17,3.09-9.25,7.54-9.25,13.38,0,4.84,2.66,8.88,8,12.12,5.33,3.25,12.83,4.88,22.5,4.88,6.83,0,12-1.79,15.5-5.38,3.5-3.58,5.25-8.29,5.25-14.12,0-4.33-.12-9.54-.38-15.62-.25-6.08-.54-12.58-.88-19.5-.34-6.91-.62-13.79-.88-20.62-.25-6.83-.38-12.91-.38-18.25v-39.75c0-3.83-.17-7.79-.5-11.88-.34-4.08-.75-7.04-1.25-8.88h21.75ZM261.5,78.25c3.33,0,7.88-.12,13.62-.38s12.04-.54,18.88-.88c6.83-.33,13.66-.75,20.5-1.25,6.83-.5,12.91-1.08,18.25-1.75l.25,17.5c-5.17.67-11.12,1.21-17.88,1.62-6.75.42-13.59.79-20.5,1.12-6.92.34-13.25.59-19,.75-5.75.17-10.46.25-14.12.25v-17Z" style="fill: #231f20; stroke-width: 0px;"/>
</svg>