<?xml version="1.0" encoding="UTF-8"?>
<svg id="Layer_1" data-name="Layer 1" xmlns="http://www.w3.org/2000/svg" viewBox="0 0 193.75 203">
  <path d="M40,5.25c3,.34,6.08.59,9.25.75,3.16.17,6.66.25,10.5.25,2.33,0,5.96-.08,10.88-.25,4.91-.16,10.5-.38,16.75-.62s12.62-.54,19.12-.88c6.5-.33,12.46-.71,17.88-1.12,5.41-.41,9.54-.79,12.38-1.12,3-.33,5.62-.71,7.88-1.12,2.25-.41,4.12-.79,5.62-1.12l12.75,14.25c-1.67,1-3.88,2.42-6.62,4.25-2.75,1.84-5.04,3.5-6.88,5-3.67,3.17-7.96,6.79-12.88,10.88-4.92,4.09-10.12,8.42-15.62,13-5.5,4.59-11.04,9.17-16.62,13.75-5.59,4.59-10.88,8.92-15.88,13-5,4.09-9.59,7.71-13.75,10.88,12.66-1.33,25.91-2.54,39.75-3.62,13.83-1.08,27.5-1.96,41-2.62,13.5-.66,26.25-1,38.25-1v18.5c-12.17-.66-23.92-.91-35.25-.75-11.34.17-20.75.75-28.25,1.75-6,1-11.88,2.92-17.62,5.75-5.75,2.84-10.92,6.38-15.5,10.62-4.59,4.25-8.21,9.04-10.88,14.38-2.67,5.34-4,11-4,17,0,8.34,2,15,6,20s9.29,8.75,15.88,11.25c6.58,2.5,13.62,4.34,21.12,5.5,7.5,1,14.25,1.46,20.25,1.38,6-.08,11.25-.29,15.75-.62l-4.25,20.25c-30.5,1.33-53.84-2.67-70-12-16.17-9.33-24.25-23.58-24.25-42.75,0-7.16,1.54-13.88,4.62-20.12,3.08-6.25,6.88-11.71,11.38-16.38,4.5-4.66,8.83-8.25,13-10.75-13.17,1-27.71,2.46-43.62,4.38-15.92,1.92-31.38,4.12-46.38,6.62l-1.75-18.75c6.66-.83,13.96-1.71,21.88-2.62,7.91-.91,15.04-1.71,21.38-2.38,6.66-4.66,13.96-10.12,21.88-16.38,7.91-6.25,15.75-12.66,23.5-19.25,7.75-6.58,14.88-12.66,21.38-18.25,6.5-5.58,11.75-10.12,15.75-13.62-2.17.17-5.46.38-9.88.62-4.42.25-9.38.5-14.88.75s-10.96.5-16.38.75c-5.42.25-10.29.5-14.62.75-4.34.25-7.67.46-10,.62-3.17.17-6.46.46-9.88.88-3.42.42-6.46.71-9.12.88l-1-20.5Z" style="fill: #231f20; stroke-width: 0px;"/>
</svg>