<?xml version="1.0" encoding="UTF-8"?>
<svg id="Layer_1" data-name="Layer 1" xmlns="http://www.w3.org/2000/svg" viewBox="0 0 208.25 211.5">
  <path d="M0,34.75c6.83,0,14.58-.12,23.25-.38,8.66-.25,17.88-.54,27.62-.88,9.75-.33,19.62-.58,29.62-.75,10-.16,19.62-.33,28.88-.5,9.25-.16,17.79-.25,25.62-.25h43.62c6.58,0,12.41.04,17.5.12,5.08.09,9.12.12,12.12.12l-.25,18.5c-7-.33-16.38-.62-28.12-.88s-26.79-.38-45.12-.38c-10.84,0-22.12.12-33.88.38s-23.54.54-35.38.88c-11.84.34-23.29.79-34.38,1.38-11.09.59-21.29,1.21-30.62,1.88l-.5-19.25ZM131.25,107.5c0,11-1.62,20.25-4.88,27.75s-7.75,13.09-13.5,16.75c-5.75,3.67-12.46,5.5-20.12,5.5-5.17,0-10.21-.88-15.12-2.62-4.92-1.75-9.34-4.41-13.25-8-3.92-3.58-7-8-9.25-13.25s-3.38-11.21-3.38-17.88c0-8.33,2-15.75,6-22.25s9.38-11.66,16.12-15.5c6.75-3.83,14.04-5.75,21.88-5.75,9.83,0,17.96,2.21,24.38,6.62,6.41,4.42,11.29,10.42,14.62,18,3.33,7.59,5,16.21,5,25.88,0,8.34-1.21,16.84-3.62,25.5-2.42,8.67-6.42,17-12,25-5.59,8-13.17,15.29-22.75,21.88-9.59,6.58-21.71,12.04-36.38,16.38l-16.75-16.5c11.33-2.66,21.5-6.08,30.5-10.25,9-4.16,16.58-9.25,22.75-15.25,6.16-6,10.88-13,14.12-21s4.88-17.16,4.88-27.5c0-11.33-2.42-19.5-7.25-24.5-4.84-5-10.67-7.5-17.5-7.5-4.34,0-8.42,1.04-12.25,3.12-3.84,2.09-6.96,5.12-9.38,9.12-2.42,4-3.62,8.75-3.62,14.25,0,7.84,2.54,13.92,7.62,18.25,5.08,4.34,11.04,6.5,17.88,6.5,5.16,0,9.58-1.46,13.25-4.38,3.66-2.91,6.29-7.33,7.88-13.25,1.58-5.91,1.71-13.29.38-22.12l13.75,7ZM132.75,0c0,.84-.12,2.34-.38,4.5-.25,2.17-.42,4.29-.5,6.38-.09,2.09-.21,3.71-.38,4.88-.17,3.17-.25,7.5-.25,13v18c0,6.5.04,13.09.12,19.75.08,6.67.16,12.92.25,18.75.08,5.84.12,10.75.12,14.75l-19.25-9.5v-27.12c0-6.25-.04-12.46-.12-18.62-.09-6.16-.21-11.83-.38-17-.17-5.16-.34-9.16-.5-12-.17-3.33-.42-6.54-.75-9.62-.34-3.08-.59-5.12-.75-6.12h22.75Z" style="fill: #231f20; stroke-width: 0px;"/>
</svg>