<?xml version="1.0" encoding="UTF-8"?>
<svg id="Layer_1" data-name="Layer 1" xmlns="http://www.w3.org/2000/svg" viewBox="0 0 201.75 207.75">
  <path d="M30,43.75c9.33,0,19.38-.46,30.12-1.38,10.75-.91,21.71-2.29,32.88-4.12,11.16-1.83,21.91-4.08,32.25-6.75v19.75c-10.34,2.34-21.17,4.34-32.5,6-11.34,1.67-22.46,2.96-33.38,3.88-10.92.92-20.79,1.38-29.62,1.38-5.5,0-10.59-.12-15.25-.38-4.67-.25-9.25-.46-13.75-.62l-.75-19.5c6,.67,11.38,1.12,16.12,1.38s9.38.38,13.88.38ZM85.5,2c-.84,2.84-1.67,6.25-2.5,10.25-.84,4-1.5,7.25-2,9.75-1.17,6-2.54,12.96-4.12,20.88-1.59,7.92-3.34,16.21-5.25,24.88-1.92,8.67-4.04,17.17-6.38,25.5-2.17,8.84-4.84,18.46-8,28.88-3.17,10.42-6.5,20.88-10,31.38s-7.09,20.42-10.75,29.75c-3.67,9.34-7.09,17.5-10.25,24.5l-22-7.5c3.83-6.5,7.71-14.29,11.62-23.38,3.91-9.08,7.75-18.79,11.5-29.12,3.75-10.33,7.25-20.62,10.5-30.88s6.04-19.71,8.38-28.38c1.66-5.83,3.25-12,4.75-18.5s2.91-12.88,4.25-19.12c1.33-6.25,2.46-12,3.38-17.25.91-5.25,1.62-9.54,2.12-12.88.5-3.5.83-7.16,1-11,.16-3.83.08-7.08-.25-9.75l24,2ZM114.25,139c-1,4-1.84,7.92-2.5,11.75-.67,3.84-1,7.42-1,10.75,0,3,.54,5.88,1.62,8.62,1.08,2.75,3.12,5.21,6.12,7.38,3,2.17,7.29,3.92,12.88,5.25,5.58,1.34,12.79,2,21.62,2,8.16,0,16.41-.41,24.75-1.25,8.33-.83,16.33-2.08,24-3.75l-.75,20.25c-6.67,1-14.09,1.83-22.25,2.5-8.17.66-16.84,1-26,1-19.67,0-34.75-3.04-45.25-9.12s-15.75-15.29-15.75-27.62c0-4.83.38-9.66,1.12-14.5.75-4.83,1.62-9.83,2.62-15l18.75,1.75ZM109,78.25c6.66-.66,13.96-1.21,21.88-1.62,7.91-.41,15.88-.62,23.88-.62,7.33,0,14.71.17,22.12.5,7.41.34,14.46.92,21.12,1.75l-.5,19c-6.34-.83-13.09-1.54-20.25-2.12-7.17-.58-14.42-.88-21.75-.88-7.84,0-15.62.21-23.38.62-7.75.42-15.46,1.04-23.12,1.88v-18.5Z" style="fill: #231f20; stroke-width: 0px;"/>
</svg>