<?xml version="1.0" encoding="UTF-8"?>
<svg id="Layer_1" data-name="Layer 1" xmlns="http://www.w3.org/2000/svg" viewBox="0 0 199.25 189.75">
  <path d="M0,16c4.83-.16,9.16-.38,13-.62,3.83-.25,6.91-.46,9.25-.62,4-.5,9.79-1.12,17.38-1.88,7.58-.75,16.29-1.58,26.12-2.5,9.83-.91,20.41-1.88,31.75-2.88,11.33-1,22.75-2,34.25-3,9.16-.83,17.83-1.54,26-2.12,8.16-.58,15.75-1.08,22.75-1.5,7-.41,13.25-.71,18.75-.88v20c-4.67-.16-10-.16-16,0-6,.17-11.92.54-17.75,1.12-5.84.59-10.92,1.54-15.25,2.88-8.84,2.84-16.79,7.12-23.88,12.88-7.09,5.75-13.12,12.34-18.12,19.75-5,7.42-8.79,15.17-11.38,23.25-2.59,8.09-3.88,15.79-3.88,23.12,0,9.84,1.66,18.38,5,25.62,3.33,7.25,7.88,13.38,13.62,18.38s12.33,9.09,19.75,12.25c7.41,3.17,15.21,5.5,23.38,7,8.16,1.5,16.33,2.42,24.5,2.75l-7.25,20.75c-9.17-.34-18.46-1.62-27.88-3.88-9.42-2.25-18.38-5.5-26.88-9.75s-16.09-9.62-22.75-16.12c-6.67-6.5-11.92-14.08-15.75-22.75-3.84-8.66-5.75-18.58-5.75-29.75,0-13,2.29-25.04,6.88-36.12,4.58-11.08,10.46-20.79,17.62-29.12,7.16-8.33,14.58-14.75,22.25-19.25-5.34.67-11.92,1.42-19.75,2.25-7.84.84-16.29,1.71-25.38,2.62-9.09.92-18.12,1.96-27.12,3.12-9,1.17-17.46,2.29-25.38,3.38-7.92,1.09-14.54,2.21-19.88,3.38L0,16Z" style="fill: #231f20; stroke-width: 0px;"/>
</svg>