<?xml version="1.0" encoding="UTF-8"?>
<svg id="Layer_1" data-name="Layer 1" xmlns="http://www.w3.org/2000/svg" viewBox="0 0 160 201.5">
  <path d="M153.25,45.25c-2.84,1.84-5.84,3.59-9,5.25-3.17,1.67-6.59,3.42-10.25,5.25-4.17,2.34-9.34,5-15.5,8-6.17,3-12.75,6.34-19.75,10-7,3.67-14,7.5-21,11.5s-13.59,8-19.75,12c-11.67,7.5-20.79,15.42-27.38,23.75-6.59,8.34-9.88,17.25-9.88,26.75,0,10.34,4.96,18.54,14.88,24.62,9.91,6.09,24.71,9.12,44.38,9.12,9.16,0,18.66-.38,28.5-1.12,9.83-.75,19.29-1.79,28.38-3.12,9.08-1.33,16.79-2.75,23.12-4.25v22.25c-6.17,1.16-13.46,2.21-21.88,3.12-8.42.91-17.46,1.66-27.12,2.25-9.67.58-19.67.88-30,.88-11.84,0-22.67-.96-32.5-2.88-9.84-1.92-18.38-4.88-25.62-8.88s-12.88-9.29-16.88-15.88c-4-6.58-6-14.54-6-23.88s1.91-17.62,5.75-25.38c3.83-7.75,9.33-15.12,16.5-22.12,7.16-7,15.66-13.75,25.5-20.25,6.33-4.33,13.12-8.54,20.38-12.62,7.25-4.08,14.38-8.04,21.38-11.88,7-3.83,13.54-7.33,19.62-10.5,6.08-3.16,11.21-5.83,15.38-8,3.5-2.16,6.66-4.12,9.5-5.88,2.83-1.75,5.58-3.71,8.25-5.88l11,17.75ZM26.75,0c3.83,10.67,7.96,21.09,12.38,31.25,4.41,10.17,8.91,19.67,13.5,28.5,4.58,8.84,8.79,16.67,12.62,23.5l-17.25,10.25c-4.17-6.83-8.59-14.91-13.25-24.25-4.67-9.33-9.34-19.25-14-29.75-4.67-10.5-9.25-20.91-13.75-31.25L26.75,0Z" style="fill: #231f20; stroke-width: 0px;"/>
</svg>