<?xml version="1.0" encoding="UTF-8"?>
<svg id="Layer_1" data-name="Layer 1" xmlns="http://www.w3.org/2000/svg" viewBox="0 0 208.75 159">
  <path d="M0,32c4.5-.83,9.04-1.88,13.62-3.12,4.58-1.25,9.21-2.62,13.88-4.12,5.33-1.66,12.16-3.88,20.5-6.62,8.33-2.75,17.41-5.5,27.25-8.25,9.83-2.75,19.88-5.08,30.12-7,10.25-1.91,19.88-2.88,28.88-2.88,14,0,26.58,2.59,37.75,7.75,11.16,5.17,20.08,12.67,26.75,22.5,6.66,9.84,10,21.75,10,35.75,0,12-2.29,22.75-6.88,32.25-4.59,9.5-11,17.88-19.25,25.12s-18.04,13.34-29.38,18.25c-11.34,4.92-23.88,8.84-37.62,11.75-13.75,2.92-28.29,4.79-43.62,5.62l-9-20.75c16.5-.33,32.16-1.96,47-4.88,14.83-2.91,28.04-7.21,39.62-12.88,11.58-5.66,20.71-13.04,27.38-22.12,6.66-9.08,10-20.04,10-32.88,0-8.66-2.09-16.54-6.25-23.62-4.17-7.08-10.21-12.71-18.12-16.88-7.92-4.16-17.54-6.25-28.88-6.25-8.17,0-17.09.96-26.75,2.88-9.67,1.92-19.42,4.34-29.25,7.25-9.84,2.92-19.21,6.04-28.12,9.38-8.92,3.34-16.88,6.42-23.88,9.25-7,2.84-12.5,5-16.5,6.5L0,32Z" style="fill: #231f20; stroke-width: 0px;"/>
</svg>