<?xml version="1.0" encoding="UTF-8"?>
<svg id="Layer_1" data-name="Layer 1" xmlns="http://www.w3.org/2000/svg" viewBox="0 0 159.75 207.75">
  <path d="M138.5,112.5c0-7-1.79-13.21-5.38-18.62-3.59-5.41-8.59-9.66-15-12.75-6.42-3.08-13.88-4.62-22.38-4.62-9.67,0-18.75.75-27.25,2.25s-16.21,3.25-23.12,5.25c-6.92,2-12.88,3.67-17.88,5-3.84,1.17-7.54,2.42-11.12,3.75-3.59,1.34-6.88,2.67-9.88,4L0,73.5c3.5-.33,7.29-.83,11.38-1.5,4.08-.66,7.96-1.41,11.62-2.25,6-1.33,12.96-2.91,20.88-4.75,7.91-1.83,16.5-3.5,25.75-5s18.62-2.25,28.12-2.25c11.83,0,22.41,2.17,31.75,6.5,9.33,4.34,16.71,10.62,22.12,18.88,5.41,8.25,8.12,18.29,8.12,30.12,0,13.67-2.84,25.79-8.5,36.38-5.67,10.59-13.62,19.75-23.88,27.5s-22.29,14.21-36.12,19.38c-13.84,5.16-28.84,8.91-45,11.25l-11.25-19c15-1.83,28.83-4.79,41.5-8.88,12.66-4.08,23.62-9.21,32.88-15.38,9.25-6.16,16.41-13.58,21.5-22.25,5.08-8.66,7.62-18.58,7.62-29.75ZM33.5,0c6.83,1.5,15.04,2.92,24.62,4.25,9.58,1.34,19.5,2.54,29.75,3.62,10.25,1.09,19.91,1.96,29,2.62,9.08.67,16.71,1,22.88,1l-3,19.25c-7-.5-15.12-1.12-24.38-1.88s-18.84-1.66-28.75-2.75c-9.92-1.08-19.5-2.25-28.75-3.5s-17.46-2.46-24.62-3.62L33.5,0Z" style="fill: #231f20; stroke-width: 0px;"/>
</svg>