<?xml version="1.0" encoding="UTF-8"?>
<svg id="Layer_1" data-name="Layer 1" xmlns="http://www.w3.org/2000/svg" viewBox="0 0 218.5 208">
  <path d="M62,60c-2,.34-5.04.75-9.12,1.25-4.09.5-8.75,1.12-14,1.88s-10.54,1.46-15.88,2.12c-5.34.67-10.34,1.42-15,2.25l-2-20.75c2.66.17,5.29.21,7.88.12,2.58-.08,5.38-.21,8.38-.38,3.5-.16,7.79-.54,12.88-1.12,5.08-.58,10.38-1.25,15.88-2s10.71-1.58,15.62-2.5c4.91-.91,8.79-1.88,11.62-2.88l7.5,8.75c-1.5,2-3.17,4.46-5,7.38-1.84,2.92-3.67,5.88-5.5,8.88-1.84,3-3.42,5.67-4.75,8l-7.75,34c-2.84,4.5-6.34,9.84-10.5,16-4.17,6.17-8.54,12.62-13.12,19.38-4.59,6.75-9.21,13.42-13.88,20-4.67,6.59-8.92,12.62-12.75,18.12L0,161.25c3-3.83,6.66-8.58,11-14.25,4.33-5.66,8.88-11.71,13.62-18.12,4.75-6.41,9.38-12.79,13.88-19.12,4.5-6.33,8.54-12.16,12.12-17.5,3.58-5.33,6.29-9.58,8.12-12.75l1-12.75,2.25-6.75ZM59.5,18.5c0-2.83-.04-5.83-.12-9-.09-3.16-.38-6.33-.88-9.5l23.5.75c-.67,3.34-1.46,8.54-2.38,15.62-.92,7.09-1.88,15.46-2.88,25.12-1,9.67-1.96,19.84-2.88,30.5-.92,10.67-1.62,21.21-2.12,31.62-.5,10.42-.75,20.04-.75,28.88v20.88c0,6.42.08,12.75.25,19,.16,6.25.41,13.04.75,20.38.16,2.17.33,4.67.5,7.5.16,2.83.41,5.41.75,7.75h-21.75c.33-1.67.54-4.04.62-7.12.08-3.08.12-5.62.12-7.62.16-8,.25-15.08.25-21.25s.04-12.54.12-19.12c.08-6.58.21-14.46.38-23.62,0-3.66.16-8.71.5-15.12.33-6.41.75-13.5,1.25-21.25s1-15.62,1.5-23.62,1-15.54,1.5-22.62c.5-7.08.91-13.12,1.25-18.12.33-5,.5-8.33.5-10ZM118.25,180.5c10.66-1.5,20.79-3.91,30.38-7.25,9.58-3.33,18.12-7.75,25.62-13.25s13.41-12.25,17.75-20.25c4.33-8,6.41-17.33,6.25-28,0-4.83-.96-9.83-2.88-15-1.92-5.16-4.84-10-8.75-14.5-3.92-4.5-8.96-8.12-15.12-10.88-6.17-2.75-13.34-4.12-21.5-4.12-16,0-31.17,3.96-45.5,11.88-14.34,7.92-27.59,18.21-39.75,30.88v-22c15.16-14.33,30.38-24.41,45.62-30.25,15.25-5.83,29.46-8.75,42.62-8.75,11.5,0,22.21,2.54,32.12,7.62,9.91,5.09,17.96,12.38,24.12,21.88,6.16,9.5,9.25,20.75,9.25,33.75s-2.17,23.62-6.5,33.38c-4.34,9.75-10.54,18.12-18.62,25.12-8.09,7-17.67,12.88-28.75,17.62-11.09,4.75-23.46,8.38-37.12,10.88l-9.25-18.75Z" style="fill: #231f20; stroke-width: 0px;"/>
</svg>