<?xml version="1.0" encoding="UTF-8"?>
<svg id="Layer_1" data-name="Layer 1" xmlns="http://www.w3.org/2000/svg" viewBox="0 0 196.75 210.75">
  <path d="M91.25,1.75c-1,5-2.29,10.88-3.88,17.62-1.59,6.75-4.12,14.38-7.62,22.88-3,7.5-6.71,15.25-11.12,23.25-4.42,8-9.12,15.25-14.12,21.75,3.16-2,6.75-3.71,10.75-5.12,4-1.41,8.12-2.46,12.38-3.12,4.25-.66,8.12-1,11.62-1,9.66,0,17.83,2.71,24.5,8.12,6.66,5.42,10,13.29,10,23.62v12.12c0,4.92.04,10.09.12,15.5.08,5.42.21,10.71.38,15.88.16,5.17.25,9.67.25,13.5h-19.25c.16-3.33.33-7.25.5-11.75.16-4.5.29-9.25.38-14.25.08-5,.08-9.75,0-14.25-.09-4.5-.12-8.33-.12-11.5,0-7.33-2.21-12.71-6.62-16.12-4.42-3.41-9.96-5.12-16.62-5.12-7.84,0-15.54,1.71-23.12,5.12-7.59,3.42-14.21,7.79-19.88,13.12-3.67,3.5-7.29,7.46-10.88,11.88-3.59,4.42-7.54,9.12-11.88,14.12L0,125.5c12-11.66,22-22.58,30-32.75,8-10.16,14.5-19.62,19.5-28.38s8.91-16.62,11.75-23.62c2.66-7,4.83-14.04,6.5-21.12,1.66-7.08,2.66-13.62,3-19.62l20.5,1.75ZM5.75,28.75c6.66.84,13.91,1.5,21.75,2,7.83.5,14.66.75,20.5.75,11.16,0,23.16-.29,36-.88,12.83-.58,25.79-1.46,38.88-2.62,13.08-1.16,25.54-2.83,37.38-5l-.25,18.5c-8.67,1.5-17.92,2.71-27.75,3.62-9.84.92-19.84,1.67-30,2.25-10.17.59-19.96,1-29.38,1.25-9.42.25-18.12.38-26.12.38-3.5,0-7.54-.04-12.12-.12-4.59-.08-9.38-.25-14.38-.5s-9.84-.54-14.5-.88v-18.75ZM196.75,89.25c-2.17.5-4.54,1.21-7.12,2.12-2.59.92-5.17,1.88-7.75,2.88-2.59,1-5.04,2-7.38,3-8.67,3.34-18.75,7.42-30.25,12.25-11.5,4.84-23.25,10.42-35.25,16.75-8.34,4.17-15.67,8.54-22,13.12-6.34,4.59-11.34,9.34-15,14.25-3.67,4.92-5.5,10.29-5.5,16.12,0,4.84,1.12,8.75,3.38,11.75s5.46,5.29,9.62,6.88c4.16,1.59,8.96,2.62,14.38,3.12,5.41.5,11.38.75,17.88.75,9.66,0,20.71-.54,33.12-1.62,12.41-1.08,24.12-2.54,35.12-4.38l-.5,20c-6.34.83-13.46,1.58-21.38,2.25-7.92.66-15.92,1.21-24,1.62-8.09.41-15.79.62-23.12.62-11.84,0-22.62-1.09-32.38-3.25-9.75-2.17-17.54-6-23.38-11.5-5.84-5.5-8.75-13.33-8.75-23.5,0-7.5,1.75-14.38,5.25-20.62s8.21-11.96,14.12-17.12c5.91-5.16,12.46-9.96,19.62-14.38,7.16-4.41,14.5-8.46,22-12.12,8-4.33,15.54-8.08,22.62-11.25,7.08-3.16,13.79-6.08,20.12-8.75,6.33-2.66,12.25-5.33,17.75-8,3.66-1.66,7.16-3.25,10.5-4.75,3.33-1.5,6.66-3.16,10-5l8.25,18.75Z" style="fill: #231f20; stroke-width: 0px;"/>
</svg>