<?xml version="1.0" encoding="UTF-8"?>
<svg id="Layer_1" data-name="Layer 1" xmlns="http://www.w3.org/2000/svg" viewBox="0 0 213.25 214.75">
  <path d="M0,94.5c3.5-1,7.21-2.16,11.12-3.5,3.91-1.33,7.04-2.41,9.38-3.25,6.83-2.83,14.62-6.21,23.38-10.12,8.75-3.91,18-8.04,27.75-12.38,9.75-4.33,19.62-8.38,29.62-12.12s19.79-6.83,29.38-9.25c9.58-2.41,18.54-3.62,26.88-3.62,11.66,0,21.62,2,29.88,6s14.62,9.54,19.12,16.62c4.5,7.09,6.75,15.21,6.75,24.38s-2.09,18.09-6.25,25.75c-4.17,7.67-10.46,13.71-18.88,18.12-8.42,4.42-19.21,6.62-32.38,6.62-7,0-13.79-.75-20.38-2.25-6.59-1.5-12.29-3.08-17.12-4.75l.75-19.5c4.83,2.17,10.29,4.04,16.38,5.62,6.08,1.59,12.46,2.38,19.12,2.38,9.16,0,16.58-1.5,22.25-4.5,5.66-3,9.83-7,12.5-12,2.66-5,4-10.5,4-16.5,0-4.83-1.34-9.41-4-13.75-2.67-4.33-6.67-7.83-12-10.5-5.34-2.66-12.09-4-20.25-4s-17.96,1.5-28.38,4.5c-10.42,3-21.25,6.84-32.5,11.5-11.25,4.67-22.29,9.62-33.12,14.88-10.84,5.25-20.88,10.21-30.12,14.88-9.25,4.67-17.04,8.42-23.38,11.25L0,94.5ZM44.25,21.5c.66,1.34,1.5,3,2.5,5s2.08,4.09,3.25,6.25c1.16,2.17,2.16,4,3,5.5,4.83,8.84,10.08,19.12,15.75,30.88,5.66,11.75,11,23.38,16,34.88,3.5,7.67,7.04,16.17,10.62,25.5,3.58,9.34,7.04,18.79,10.38,28.38,3.33,9.59,6.5,18.75,9.5,27.5s5.5,16.62,7.5,23.62l-21.5,5.75c-2.5-9.84-5.5-20.62-9-32.38s-7.34-23.62-11.5-35.62c-4.17-12-8.67-23.5-13.5-34.5-3.84-8.66-7.62-17.04-11.38-25.12-3.75-8.08-7.29-15.5-10.62-22.25-3.34-6.75-6.42-12.54-9.25-17.38-1.5-2.5-3.42-5.46-5.75-8.88-2.34-3.41-4.5-6.38-6.5-8.88l20.5-8.25ZM123.75,43c-3.34-3.16-7.17-6.79-11.5-10.88-4.34-4.08-8.75-8.08-13.25-12-4.5-3.91-8.5-7.21-12-9.88L101.25,0c2.83,2,6.54,4.92,11.12,8.75,4.58,3.84,9.21,7.79,13.88,11.88,4.66,4.09,8.58,7.79,11.75,11.12l-14.25,11.25Z" style="fill: #231f20; stroke-width: 0px;"/>
</svg>