<?xml version="1.0" encoding="UTF-8"?>
<svg id="Layer_1" data-name="Layer 1" xmlns="http://www.w3.org/2000/svg" viewBox="0 0 182.25 207.75">
  <path d="M103.75,0c-.17,1.67-.38,4-.62,7s-.5,6.09-.75,9.25c-.25,3.17-.38,6-.38,8.5v45.75c0,6.84.21,14.79.62,23.88.41,9.09.83,18.38,1.25,27.88.41,9.5.83,18.46,1.25,26.88.41,8.42.62,15.29.62,20.62s-.84,10.04-2.5,14.62c-1.67,4.59-4.29,8.62-7.88,12.12-3.59,3.5-8.29,6.25-14.12,8.25-5.84,2-12.92,3-21.25,3-11.5,0-21.75-1.34-30.75-4-9-2.67-16.12-6.88-21.38-12.62s-7.88-13.38-7.88-22.88c0-7.5,2.25-14.33,6.75-20.5,4.5-6.16,11.41-11.12,20.75-14.88,9.33-3.75,21.16-5.62,35.5-5.62,12.33,0,24.29,1.42,35.88,4.25,11.58,2.84,22.5,6.59,32.75,11.25,10.25,4.67,19.66,9.88,28.25,15.62,8.58,5.75,16.04,11.46,22.38,17.12l-12,19c-6.17-6.33-13.29-12.46-21.38-18.38-8.09-5.91-16.88-11.25-26.38-16s-19.46-8.5-29.88-11.25c-10.42-2.75-21.12-4.12-32.12-4.12-13,0-23,2.09-30,6.25-7,4.17-10.5,9.67-10.5,16.5s3.33,12.12,10,15.88c6.66,3.75,16,5.62,28,5.62,9.16,0,16-2.12,20.5-6.38s6.75-10.71,6.75-19.38c0-4.66-.17-10.88-.5-18.62-.34-7.75-.67-16.12-1-25.12-.34-9-.67-17.79-1-26.38-.34-8.58-.5-16.12-.5-22.62v-32.38c0-5.41-.09-9.88-.25-13.38,0-3-.09-6.12-.25-9.38-.17-3.25-.38-6.25-.62-9s-.62-4.88-1.12-6.38h23.75ZM91,50.25c4.16,0,9.66-.08,16.5-.25,6.83-.16,14.25-.41,22.25-.75,8-.33,16-.79,24-1.38,8-.58,15.41-1.29,22.25-2.12l.75,18.75c-6.84.67-14.29,1.25-22.38,1.75-8.09.5-16.12.96-24.12,1.38-8,.42-15.46.71-22.38.88-6.92.17-12.54.25-16.88.25v-18.5Z" style="fill: #231f20; stroke-width: 0px;"/>
</svg>