<?xml version="1.0" encoding="UTF-8"?>
<svg id="Layer_1" data-name="Layer 1" xmlns="http://www.w3.org/2000/svg" viewBox="0 0 193.75 214.25">
  <path d="M28.25,20.5c-.67,1.67-1.25,3.5-1.75,5.5s-1,4.09-1.5,6.25c-.84,4-1.75,9.17-2.75,15.5-1,6.34-1.84,13.04-2.5,20.12-.67,7.09-1.21,13.96-1.62,20.62-.42,6.67-.46,12.5-.12,17.5,4.16-10.83,9.71-20.62,16.62-29.38,6.91-8.75,14.88-16.33,23.88-22.75,9-6.41,18.66-11.33,29-14.75,10.33-3.41,21-5.12,32-5.12,15.66,0,29,2.96,40,8.88,11,5.92,19.46,13.92,25.38,24,5.91,10.09,8.88,21.29,8.88,33.62,0,13.67-2.84,25.96-8.5,36.88-5.67,10.92-14.17,19.59-25.5,26-11.34,6.42-25.59,9.62-42.75,9.62-9.67,0-18.92-1.71-27.75-5.12-8.84-3.41-16.79-8.38-23.88-14.88-7.09-6.5-12.96-14.41-17.62-23.75l12-14c4,8,8.66,14.96,14,20.88,5.33,5.92,11.58,10.42,18.75,13.5,7.16,3.09,15.33,4.62,24.5,4.62,11.66,0,21.83-2.12,30.5-6.38,8.66-4.25,15.38-10.33,20.12-18.25,4.75-7.91,7.12-17.38,7.12-28.38,0-9.16-2.04-17.54-6.12-25.12-4.09-7.58-10.25-13.66-18.5-18.25-8.25-4.58-18.71-6.88-31.38-6.88s-24.88,2.38-35.62,7.12-20.17,11.04-28.25,18.88c-8.09,7.84-14.71,16.38-19.88,25.62-5.17,9.25-8.92,18.29-11.25,27.12-.5,2.34-.92,4.84-1.25,7.5-.34,2.67-.42,5.34-.25,8,0,1.84.21,4.21.62,7.12.41,2.92.83,5.84,1.25,8.75.41,2.92.88,5.46,1.38,7.62l-17.5,2.75c-2.17-7.83-4.04-17.62-5.62-29.38-1.59-11.75-2.38-23.54-2.38-35.38,0-7,.25-14.25.75-21.75s1.12-14.79,1.88-21.88c.75-7.08,1.46-13.5,2.12-19.25.66-5.75,1.25-10.29,1.75-13.62.16-2.16.29-4.21.38-6.12.08-1.91.04-3.71-.12-5.38l21.5,1.75ZM114.5,0c1.16,5.84,2.41,13.59,3.75,23.25,1.33,9.67,2.46,20.38,3.38,32.12.91,11.75,1.38,23.79,1.38,36.12,0,13-.79,25.46-2.38,37.38-1.59,11.92-4.21,23.12-7.88,33.62-3.67,10.5-8.75,20.12-15.25,28.88s-14.75,16.38-24.75,22.88l-18.5-11.25c9.83-5.16,17.96-11.62,24.38-19.38,6.41-7.75,11.54-16.41,15.38-26,3.83-9.58,6.54-19.96,8.12-31.12,1.58-11.16,2.38-22.83,2.38-35,0-10.83-.38-21.12-1.12-30.88s-1.62-18.54-2.62-26.38c-1-7.83-2-13.91-3-18.25-.5-2.83-1.12-5.62-1.88-8.38s-1.46-5.12-2.12-7.12l20.75-.5Z" style="fill: #231f20; stroke-width: 0px;"/>
</svg>