<?xml version="1.0" encoding="UTF-8"?>
<svg id="Layer_1" data-name="Layer 1" xmlns="http://www.w3.org/2000/svg" viewBox="0 0 205 227.78">
  <path d="M0,59.5c14,1.67,27.54,2.84,40.62,3.5,13.08.67,25.5.84,37.25.5,11.75-.33,22.38-1,31.88-2,6.66-.66,13.71-1.62,21.12-2.88,7.41-1.25,14.83-2.75,22.25-4.5,7.41-1.75,14.29-3.71,20.62-5.88l2.25,19.75c-5.84,1.67-12.25,3.21-19.25,4.62-7,1.42-14,2.67-21,3.75-7,1.09-13.5,2.04-19.5,2.88-16,1.84-33.75,2.79-53.25,2.88-19.5.09-40.34-.79-62.5-2.62l-.5-20ZM38.75,139.25c-3.67,6.17-6.59,12.04-8.75,17.62-2.17,5.59-3.25,11.29-3.25,17.12,0,11.84,5.16,20.5,15.5,26,10.33,5.5,24.83,8.34,43.5,8.5,12.66.17,24.38-.29,35.12-1.38,10.75-1.08,20.46-2.62,29.12-4.62l-.75,20c-7.84,1.33-17.09,2.58-27.75,3.75-10.67,1.16-23,1.66-37,1.5-15.67,0-29.34-1.92-41-5.75-11.67-3.84-20.67-9.58-27-17.25-6.34-7.66-9.5-17.08-9.5-28.25,0-7,1.12-13.88,3.38-20.62s5.12-13.79,8.62-21.12l19.75,4.5ZM91.5,40.25c-.84-2.83-1.79-6-2.88-9.5-1.09-3.5-2.21-6.91-3.38-10.25l21.5-2.5c.66,4.67,1.79,10.04,3.38,16.12,1.58,6.09,3.38,12.25,5.38,18.5s3.91,12.12,5.75,17.62c3.83,10.84,8.66,21.59,14.5,32.25,5.83,10.67,11.41,19.67,16.75,27,1.66,2.34,3.41,4.62,5.25,6.88,1.83,2.25,3.66,4.38,5.5,6.38l-10,14.25c-3-.83-7-1.58-12-2.25-5-.66-10.34-1.29-16-1.88-5.67-.58-11.34-1.12-17-1.62-5.67-.5-10.84-.91-15.5-1.25l1.5-16.5c4.83.34,9.88.75,15.12,1.25s10.25.92,15,1.25c4.75.34,8.54.75,11.38,1.25-3.5-5.33-7.25-11.5-11.25-18.5s-7.88-14.38-11.62-22.12-7.04-15.38-9.88-22.88c-2.67-7.16-4.92-13.58-6.75-19.25-1.84-5.66-3.42-10.41-4.75-14.25ZM156.5,10c2.16,2.84,4.46,6.34,6.88,10.5,2.41,4.17,4.83,8.34,7.25,12.5,2.41,4.17,4.46,8,6.12,11.5l-13.5,6c-1.5-3.5-3.42-7.33-5.75-11.5-2.34-4.16-4.75-8.33-7.25-12.5-2.5-4.16-4.92-7.75-7.25-10.75l13.5-5.75ZM184,0c2.33,3.17,4.79,6.84,7.38,11,2.58,4.17,5.12,8.34,7.62,12.5,2.5,4.17,4.5,7.84,6,11l-13.5,6c-2.67-5.66-5.88-11.71-9.62-18.12-3.75-6.41-7.46-11.96-11.12-16.62l13.25-5.75Z" style="fill: #231f20; stroke-width: 0px;"/>
</svg>