<?xml version="1.0" encoding="UTF-8"?>
<svg id="Layer_1" data-name="Layer 1" xmlns="http://www.w3.org/2000/svg" viewBox="0 0 235.25 206">
  <path d="M0,76.5c4,0,8.21-.12,12.62-.38,4.41-.25,8.88-.54,13.38-.88,5.5-.5,13.33-1.25,23.5-2.25,10.16-1,21.71-2.12,34.62-3.38,12.91-1.25,26.29-2.5,40.12-3.75,13.83-1.25,27.29-2.41,40.38-3.5,13.08-1.08,24.79-1.88,35.12-2.38,3.16-.33,6.46-.58,9.88-.75,3.41-.16,6.62-.33,9.62-.5v19.5c-1.34-.16-3.12-.21-5.38-.12-2.25.09-4.67.12-7.25.12s-4.96.09-7.12.25c-6.67,0-14.75.34-24.25,1-9.5.67-19.79,1.46-30.88,2.38-11.09.92-22.38,1.92-33.88,3-11.5,1.09-22.59,2.17-33.25,3.25-10.67,1.09-20.29,2.09-28.88,3-8.59.92-15.54,1.71-20.88,2.38-2.5.34-5.29.67-8.38,1-3.09.34-6.12.75-9.12,1.25s-5.67.92-8,1.25l-2-20.5ZM74.75,16.75c-.34,2.84-.59,5.92-.75,9.25-.17,3.34-.25,6.92-.25,10.75,0,5.5-.04,12.34-.12,20.5-.09,8.17-.17,16.88-.25,26.12-.09,9.25-.12,18.29-.12,27.12v23.75c0,7,.08,12.25.25,15.75.33,6.84.79,12.54,1.38,17.12.58,4.59,2.21,8.29,4.88,11.12,2.66,2.84,7,4.92,13,6.25,6,1.34,14.41,2,25.25,2,9,0,18.16-.29,27.5-.88,9.33-.58,18.12-1.33,26.38-2.25,8.25-.91,15.04-1.88,20.38-2.88l-.75,21.25c-5.5.5-12.34,1.08-20.5,1.75-8.17.66-16.75,1.25-25.75,1.75s-17.75.75-26.25.75c-14.5,0-26-.92-34.5-2.75-8.5-1.84-14.84-4.84-19-9-4.17-4.16-6.96-9.62-8.38-16.38-1.42-6.75-2.29-15.12-2.62-25.12,0-3.5-.04-8.46-.12-14.88-.09-6.41-.12-13.62-.12-21.62v-24.62c0-8.41.04-16.33.12-23.75.08-7.41.12-13.83.12-19.25v-10.88c0-3.83-.12-7.38-.38-10.62s-.62-6.71-1.12-10.38h21.75ZM173.75,8.75c-.17,1.34-.34,3.09-.5,5.25-.17,2.17-.29,4.38-.38,6.62-.09,2.25-.21,4.38-.38,6.38,0,5-.04,10.25-.12,15.75-.09,5.5-.17,10.79-.25,15.88-.09,5.09-.21,9.79-.38,14.12-.17,6.34-.38,13.29-.62,20.88-.25,7.59-.62,14.79-1.12,21.62-.5,6.84-1.17,12.42-2,16.75-1.17,5.5-3.25,9.29-6.25,11.38-3,2.09-7.34,3.12-13,3.12-3,0-6.67-.21-11-.62-4.34-.41-8.5-.91-12.5-1.5-4-.58-7.17-1.12-9.5-1.62l.5-17.25c4.33,1,8.88,1.79,13.62,2.38,4.75.59,8.54.88,11.38.88,3.16,0,5.46-.41,6.88-1.25,1.41-.83,2.29-2.66,2.62-5.5.66-3.33,1.16-7.71,1.5-13.12.33-5.41.62-11.29.88-17.62.25-6.33.46-12.41.62-18.25V27.5c0-1.83-.04-3.91-.12-6.25-.09-2.33-.21-4.62-.38-6.88-.17-2.25-.42-4.12-.75-5.62h21.25ZM195.25,8c1.5,3,3.16,6.62,5,10.88,1.83,4.25,3.62,8.46,5.38,12.62,1.75,4.17,3.21,8,4.38,11.5l-12.5,4.25c-1.17-3.66-2.59-7.58-4.25-11.75-1.67-4.16-3.34-8.33-5-12.5-1.67-4.16-3.34-7.91-5-11.25l12-3.75ZM220.25,0c1.66,3.17,3.41,6.79,5.25,10.88,1.83,4.09,3.62,8.21,5.38,12.38,1.75,4.17,3.21,8,4.38,11.5l-12.5,4.25c-2-5.66-4.29-11.75-6.88-18.25-2.59-6.5-5.21-12.08-7.88-16.75l12.25-4Z" style="fill: #231f20; stroke-width: 0px;"/>
</svg>