<?xml version="1.0" encoding="UTF-8"?>
<svg id="Layer_1" data-name="Layer 1" xmlns="http://www.w3.org/2000/svg" viewBox="0 0 210 203.19">
  <path d="M40,5.5c3,.17,6.08.34,9.25.5,3.16.17,6.66.25,10.5.25,2.33,0,5.96-.08,10.88-.25,4.91-.16,10.5-.38,16.75-.62s12.62-.54,19.12-.88c6.5-.33,12.46-.66,17.88-1,5.41-.33,9.54-.66,12.38-1,2.83-.33,5.41-.71,7.75-1.12,2.33-.41,4.25-.88,5.75-1.38l12.75,14.25c-1.67,1.17-3.88,2.67-6.62,4.5-2.75,1.84-5.04,3.5-6.88,5-3.67,3-7.96,6.54-12.88,10.62-4.92,4.09-10.12,8.42-15.62,13-5.5,4.59-11.04,9.17-16.62,13.75-5.59,4.59-10.92,8.96-16,13.12-5.09,4.17-9.62,7.84-13.62,11,12.66-1.5,25.88-2.79,39.62-3.88,13.75-1.08,27.41-1.96,41-2.62,13.58-.66,26.38-1,38.38-1v18.5c-12.17-.66-23.92-.91-35.25-.75-11.34.17-20.75.84-28.25,2-6,.84-11.88,2.67-17.62,5.5-5.75,2.84-10.92,6.42-15.5,10.75-4.59,4.34-8.25,9.17-11,14.5-2.75,5.34-4.12,10.92-4.12,16.75,0,8.34,2.04,15,6.12,20,4.08,5,9.41,8.79,16,11.38,6.58,2.59,13.62,4.46,21.12,5.62,7.33.84,14.04,1.21,20.12,1.12,6.08-.08,11.29-.29,15.62-.62l-4,20.5c-30.5,1.16-53.84-2.92-70-12.25-16.17-9.33-24.25-23.58-24.25-42.75,0-7.16,1.54-13.83,4.62-20,3.08-6.16,6.83-11.58,11.25-16.25,4.41-4.66,8.79-8.33,13.12-11-13.17,1.17-27.71,2.67-43.62,4.5-15.92,1.84-31.38,4-46.38,6.5l-1.75-18.75c6.66-.66,13.96-1.5,21.88-2.5,7.91-1,14.96-1.83,21.12-2.5,6.83-4.66,14.21-10.12,22.12-16.38,7.91-6.25,15.75-12.62,23.5-19.12s14.88-12.58,21.38-18.25c6.5-5.66,11.75-10.25,15.75-13.75-2.17.17-5.46.38-9.88.62-4.42.25-9.38.54-14.88.88-5.5.34-10.96.62-16.38.88-5.42.25-10.29.5-14.62.75-4.34.25-7.67.46-10,.62-3.17.17-6.46.42-9.88.75-3.42.34-6.46.67-9.12,1l-1-20.5ZM164,31.5c3,4.17,6.21,9.09,9.62,14.75,3.41,5.67,6.46,11.34,9.12,17l-12.75,6c-2.67-5.5-5.54-11-8.62-16.5-3.09-5.5-6.46-10.75-10.12-15.75l12.75-5.5ZM190.25,21.5c3,3.84,6.38,8.67,10.12,14.5,3.75,5.84,6.96,11.42,9.62,16.75l-12.75,6.25c-2.67-5.33-5.67-10.79-9-16.38-3.34-5.58-6.84-10.71-10.5-15.38l12.5-5.75Z" style="fill: #231f20; stroke-width: 0px;"/>
</svg>