<?xml version="1.0" encoding="UTF-8"?>
<svg id="Layer_1" data-name="Layer 1" xmlns="http://www.w3.org/2000/svg" viewBox="0 0 216.5 223">
  <path d="M0,46.25c6.83,0,14.62-.12,23.38-.38s18-.5,27.75-.75,19.62-.5,29.62-.75,19.62-.46,28.88-.62c9.25-.16,17.71-.25,25.38-.25s15.21.04,22.62.12c7.41.09,14.41.12,21,.12h29.62l-.25,18.75c-7-.33-16.38-.62-28.12-.88s-26.79-.38-45.12-.38c-10.67,0-21.88.09-33.62.25-11.75.17-23.54.46-35.38.88-11.84.42-23.29.92-34.38,1.5-11.09.59-21.29,1.21-30.62,1.88l-.75-19.5ZM131.25,119c0,11.17-1.62,20.46-4.88,27.88-3.25,7.42-7.75,12.96-13.5,16.62-5.75,3.67-12.38,5.5-19.88,5.5-5.34,0-10.46-.88-15.38-2.62-4.92-1.75-9.34-4.41-13.25-8-3.92-3.58-7-8-9.25-13.25s-3.38-11.21-3.38-17.88c0-8.33,2-15.75,6-22.25s9.38-11.66,16.12-15.5c6.75-3.83,14.12-5.75,22.12-5.75,9.66,0,17.75,2.21,24.25,6.62,6.5,4.42,11.38,10.42,14.62,18,3.25,7.59,4.88,16.21,4.88,25.88,0,8.34-1.17,16.84-3.5,25.5-2.34,8.67-6.34,17-12,25-5.67,8-13.29,15.29-22.88,21.88-9.59,6.58-21.62,12.04-36.12,16.38l-16.75-16.5c11.33-2.5,21.46-5.88,30.38-10.12,8.91-4.25,16.5-9.38,22.75-15.38s10.96-13,14.12-21c3.16-8,4.75-17.16,4.75-27.5,0-11.33-2.38-19.5-7.12-24.5s-10.62-7.5-17.62-7.5c-4.34,0-8.42,1.09-12.25,3.25-3.84,2.17-6.96,5.21-9.38,9.12-2.42,3.92-3.62,8.62-3.62,14.12,0,7.84,2.54,13.92,7.62,18.25,5.08,4.34,11.04,6.5,17.88,6.5,5.16,0,9.62-1.46,13.38-4.38,3.75-2.91,6.38-7.33,7.88-13.25,1.5-5.91,1.66-13.29.5-22.12l13.5,7ZM132.75,11.5c0,.84-.12,2.34-.38,4.5-.25,2.17-.42,4.34-.5,6.5-.09,2.17-.21,3.75-.38,4.75-.17,3.17-.25,7.5-.25,13v18c0,6.5.04,13.09.12,19.75.08,6.67.16,12.96.25,18.88.08,5.92.12,10.88.12,14.88l-19-9.75v-10.62c0-4.75-.04-10.21-.12-16.38-.09-6.16-.17-12.38-.25-18.62-.09-6.25-.17-11.96-.25-17.12-.09-5.16-.21-9.16-.38-12-.17-3.33-.42-6.54-.75-9.62-.34-3.08-.67-5.12-1-6.12h22.75ZM167.25,6.5c3,4.17,6.25,9.09,9.75,14.75,3.5,5.67,6.5,10.84,9,15.5l-14.25,6.25c-2.5-5-5.38-10.29-8.62-15.88-3.25-5.58-6.46-10.54-9.62-14.88l13.75-5.75ZM197.75,0c2.83,4.17,6,9,9.5,14.5s6.58,10.67,9.25,15.5l-14.25,6.25c-2.67-5.16-5.62-10.46-8.88-15.88-3.25-5.41-6.46-10.21-9.62-14.38l14-6Z" style="fill: #231f20; stroke-width: 0px;"/>
</svg>