<?xml version="1.0" encoding="UTF-8"?>
<svg id="Layer_1" data-name="Layer 1" xmlns="http://www.w3.org/2000/svg" viewBox="0 0 194.25 227.5">
  <path d="M14.75,65.5h19.25c-1.5,9-3.12,18.54-4.88,28.62-1.75,10.09-3.5,19.79-5.25,29.12-1.75,9.34-3.46,17.59-5.12,24.75l-18.75-3c1.66-7,3.46-15.04,5.38-24.12,1.91-9.08,3.66-18.5,5.25-28.25,1.58-9.75,2.96-18.79,4.12-27.12ZM21.5,65.5h67V25.5H6.25V8h100.5v75H21.5v-17.5ZM15.25,118.5h79.25v17.5H12.5l2.75-17.5ZM88.75,118.5h19.25c-.17,2.17-.25,3.92-.25,5.25s-.09,2.5-.25,3.5c-1.5,19.67-3.04,35.67-4.62,48-1.59,12.34-3.42,21.92-5.5,28.75-2.09,6.83-4.54,11.75-7.38,14.75-2.67,2.83-5.54,4.79-8.62,5.88-3.09,1.08-6.96,1.79-11.62,2.12-4,.33-9.62.46-16.88.38-7.25-.09-14.88-.29-22.88-.62-.17-3-.84-6.34-2-10-1.17-3.67-2.75-6.84-4.75-9.5,8.33.66,16.25,1.12,23.75,1.38s12.75.38,15.75.38c2.66,0,4.83-.17,6.5-.5,1.66-.34,3.16-1.08,4.5-2.25,2.33-2,4.38-6.08,6.12-12.25,1.75-6.16,3.33-15.12,4.75-26.88,1.41-11.75,2.79-26.96,4.12-45.62v-2.75ZM175.5,0h18.75v227.5h-18.75V0Z" style="fill: #231f20; stroke-width: 0px;"/>
</svg>