<?xml version="1.0" encoding="UTF-8"?>
<svg id="Layer_1" data-name="Layer 1" xmlns="http://www.w3.org/2000/svg" viewBox="0 0 234 229.5">
  <path d="M0,118.25h130.75v16H0v-16ZM2.5,13.5h125.5v15.75H2.5v-15.75ZM12,149.5h14.5v62h-14.5v-62ZM13.25,42.75h14.5v57.75h-14.5v-57.75ZM20.75,149.5h54v51.75H20.75v-13.5h39.5v-25H20.75v-13.25ZM21.5,42.75h52.25v48.75H21.5v-12.75h37.75v-23.25H21.5v-12.75ZM92.75,126.25h17.25v83.75c0,4.5-.59,8-1.75,10.5-1.17,2.5-3.42,4.41-6.75,5.75-3.17,1.33-7.34,2.12-12.5,2.38-5.17.25-11.75.38-19.75.38-.34-2.17-1-4.71-2-7.62-1-2.92-2.09-5.54-3.25-7.88,5.83.16,11.04.25,15.62.25h9.12c1.66-.17,2.75-.5,3.25-1s.75-1.42.75-2.75v-83.75ZM92.75,21.75h17v72.25c0,4.17-.54,7.38-1.62,9.62-1.09,2.25-3.12,3.96-6.12,5.12-3.17,1.17-7.29,1.92-12.38,2.25-5.09.34-11.62.5-19.62.5-.34-2.16-1-4.62-2-7.38s-2.09-5.12-3.25-7.12c5.5.17,10.54.25,15.12.25h8.88c2.66-.16,4-1.33,4-3.5V21.75ZM172.25,51.5h9v46.75c0,3.84.41,9.25,1.25,16.25.83,7,2.25,14.84,4.25,23.5,2,8.67,4.96,17.59,8.88,26.75,3.91,9.17,9.04,18,15.38,26.5,6.33,8.5,14,15.84,23,22-1,1.33-2.25,2.96-3.75,4.88-1.5,1.91-2.92,3.88-4.25,5.88-1.34,2-2.5,3.75-3.5,5.25-9-6.17-16.54-13.54-22.62-22.12-6.09-8.58-11.09-17.38-15-26.38-3.92-9-6.84-17.41-8.75-25.25-1.92-7.83-3.21-14.08-3.88-18.75-.5,4.84-1.79,11.12-3.88,18.88-2.09,7.75-5.12,16.09-9.12,25-4,8.92-9.21,17.67-15.62,26.25-6.42,8.58-14.29,16.12-23.62,22.62-.67-1.34-1.67-3-3-5-1.34-2-2.67-3.92-4-5.75-1.34-1.84-2.59-3.42-3.75-4.75,9.5-6.5,17.46-14,23.88-22.5,6.41-8.5,11.62-17.29,15.62-26.38,4-9.08,7.04-18,9.12-26.75,2.08-8.75,3.5-16.62,4.25-23.62s1.12-12.5,1.12-16.5v-46.75h9ZM142.25,0l18,2.75c-2,13.84-4.5,27.29-7.5,40.38-3,13.09-6.59,25.29-10.75,36.62-4.17,11.34-8.92,21.34-14.25,30-1-1-2.5-2.12-4.5-3.38s-4-2.46-6-3.62c-2-1.16-3.84-2.08-5.5-2.75,5.33-8,10-17.33,14-28,4-10.66,7.33-22.12,10-34.38,2.66-12.25,4.83-24.79,6.5-37.62ZM140.75,44h77.75v17.5h-77.75v-17.5ZM213,44h2.75l3-.75,12.25,3c-1.17,7.17-2.5,14.59-4,22.25-1.5,7.67-3.09,14.96-4.75,21.88-1.67,6.92-3.42,13.04-5.25,18.38l-15.25-3.5c1.5-4.83,2.96-10.58,4.38-17.25,1.41-6.66,2.71-13.54,3.88-20.62,1.16-7.08,2.16-13.71,3-19.88v-3.5Z" style="fill: #231f20; stroke-width: 0px;"/>
</svg>