<?xml version="1.0" encoding="UTF-8"?>
<svg id="Layer_1" data-name="Layer 1" xmlns="http://www.w3.org/2000/svg" viewBox="0 0 218.25 231">
  <path d="M162.25,21.5h3.75l3.25-.75,12,7.25c-8.17,14.5-18.59,27.62-31.25,39.38-12.67,11.75-26.79,22.09-42.38,31-15.59,8.92-31.84,16.5-48.75,22.75-16.92,6.25-33.62,11.21-50.12,14.88-.84-2.5-2.09-5.38-3.75-8.62-1.67-3.25-3.34-5.96-5-8.12,15.83-2.83,31.83-7.04,48-12.62,16.16-5.58,31.66-12.41,46.5-20.5,14.83-8.08,28.12-17.29,39.88-27.62,11.75-10.33,21.04-21.66,27.88-34v-3ZM97,0l21.25,4.5c-11.67,13.34-26.04,26-43.12,38-17.09,12-37.21,22.67-60.38,32-.84-1.5-2-3.16-3.5-5-1.5-1.83-3.09-3.54-4.75-5.12-1.67-1.58-3.25-2.88-4.75-3.88,15.16-5.33,28.83-11.33,41-18,12.16-6.66,22.83-13.66,32-21,9.16-7.33,16.58-14.5,22.25-21.5ZM198.5,109h4l3.5-.75,12.25,6.75c-8,18.17-18.59,33.92-31.75,47.25-13.17,13.34-28.25,24.54-45.25,33.62-17,9.09-35.21,16.46-54.62,22.12-19.42,5.66-39.29,10-59.62,13-.67-2.5-1.79-5.46-3.38-8.88-1.59-3.42-3.21-6.12-4.88-8.12,19.33-2.34,38.29-6.04,56.88-11.12,18.58-5.08,35.91-11.71,52-19.88,16.08-8.16,30.25-18.12,42.5-29.88s21.71-25.46,28.38-41.12v-3ZM137.5,85.75l21,4.75c-12.67,14.67-28.92,28.59-48.75,41.75-19.84,13.17-43.5,24.59-71,34.25-.67-1.5-1.71-3.16-3.12-5-1.42-1.83-2.84-3.62-4.25-5.38-1.42-1.75-2.79-3.12-4.12-4.12,17.5-5.66,33.41-12.08,47.75-19.25,14.33-7.16,26.75-14.83,37.25-23,10.5-8.16,18.91-16.16,25.25-24ZM46.5,55.75l12.75-11c6.16,2.84,12.62,6.17,19.38,10,6.75,3.84,13.08,7.75,19,11.75,5.91,4,10.79,7.75,14.62,11.25l-13.25,12.25c-3.67-3.5-8.42-7.29-14.25-11.38-5.84-4.08-12.09-8.16-18.75-12.25-6.67-4.08-13.17-7.62-19.5-10.62ZM78.5,21.5h88.25v16h-88.25v-16ZM78.5,147.25l14-10.75c6.5,3.34,13.29,7.21,20.38,11.62,7.08,4.42,13.71,8.92,19.88,13.5,6.16,4.59,11.25,8.96,15.25,13.12l-14.75,12c-3.67-4.16-8.54-8.54-14.62-13.12-6.09-4.58-12.62-9.21-19.62-13.88-7-4.66-13.84-8.83-20.5-12.5ZM117.5,109h86v16.25h-86v-16.25Z" style="fill: #231f20; stroke-width: 0px;"/>
</svg>