<?xml version="1.0" encoding="UTF-8"?>
<svg id="Layer_1" data-name="Layer 1" xmlns="http://www.w3.org/2000/svg" viewBox="0 0 233.5 230.25">
  <path d="M104,0h20.25c0,11.34-.29,23.71-.88,37.12-.59,13.42-1.88,27.29-3.88,41.62-2,14.34-5.25,28.71-9.75,43.12-4.5,14.42-10.75,28.25-18.75,41.5s-18.25,25.54-30.75,36.88-27.84,21.16-46,29.5c-1.5-2.5-3.59-5.21-6.25-8.12-2.67-2.92-5.34-5.38-8-7.38,17.66-7.5,32.54-16.58,44.62-27.25,12.08-10.66,21.88-22.21,29.38-34.62,7.5-12.41,13.33-25.38,17.5-38.88,4.16-13.5,7.12-26.96,8.88-40.38,1.75-13.41,2.79-26.38,3.12-38.88.33-12.5.5-23.91.5-34.25ZM6.25,66.25h220.75v19H6.25v-19ZM87,173.5l15.75-11c6,4.67,12.21,9.88,18.62,15.62,6.41,5.75,12.46,11.5,18.12,17.25,5.66,5.75,10.25,10.88,13.75,15.38l-16.75,13.25c-3.34-4.67-7.75-9.96-13.25-15.88s-11.42-11.91-17.75-18c-6.34-6.08-12.5-11.62-18.5-16.62ZM130.5,75c5.5,21,12.91,40.54,22.25,58.62,9.33,18.09,20.71,33.92,34.12,47.5,13.41,13.59,28.96,24.21,46.62,31.88-1.5,1.33-3.17,3-5,5-1.84,2-3.54,4.08-5.12,6.25-1.59,2.16-2.88,4.16-3.88,6-18.34-8.84-34.38-20.62-48.12-35.38s-25.46-31.88-35.12-51.38c-9.67-19.5-17.59-40.91-23.75-64.25l18-4.25Z" style="fill: #231f20; stroke-width: 0px;"/>
</svg>