<?xml version="1.0" encoding="UTF-8"?>
<svg id="Layer_1" data-name="Layer 1" xmlns="http://www.w3.org/2000/svg" viewBox="0 0 235.75 228.75">
  <path d="M55.25.25l17.5,5c-4.67,14.17-10.25,28.12-16.75,41.88s-13.54,26.71-21.12,38.88c-7.59,12.17-15.54,23-23.88,32.5-.5-1.5-1.42-3.41-2.75-5.75-1.34-2.33-2.71-4.71-4.12-7.12-1.42-2.41-2.79-4.29-4.12-5.62,7.5-8.16,14.66-17.62,21.5-28.38,6.83-10.75,13.12-22.21,18.88-34.38,5.75-12.16,10.71-24.5,14.88-37ZM32.5,64.5l17.5-17.75.5.25v181.75h-18V64.5ZM129.75,58l14,4c-5.17,16.84-11.54,33.21-19.12,49.12-7.59,15.92-15.96,30.59-25.12,44-9.17,13.42-18.75,24.71-28.75,33.88-1-1.5-2.29-3.16-3.88-5-1.59-1.83-3.21-3.58-4.88-5.25-1.67-1.66-3.25-3-4.75-4,9.83-7.83,19.33-18,28.5-30.5,9.16-12.5,17.58-26.21,25.25-41.12,7.66-14.91,13.91-29.96,18.75-45.12ZM67,49.75h164v18H67v-18ZM96.5,165.5h99.75v17.25h-99.75v-17.25ZM137.75,0h18.25v227.75h-18.25V0ZM165,59c4.83,14.84,10.91,29.54,18.25,44.12,7.33,14.59,15.5,28,24.5,40.25s18.33,22.29,28,30.12c-2.17,1.67-4.62,3.92-7.38,6.75-2.75,2.84-5.04,5.5-6.88,8-9.67-9-18.96-20.12-27.88-33.38-8.92-13.25-17.04-27.75-24.38-43.5-7.34-15.75-13.5-31.79-18.5-48.12l14.25-4.25Z" style="fill: #231f20; stroke-width: 0px;"/>
</svg>