<?xml version="1.0" encoding="UTF-8"?>
<svg id="Layer_1" data-name="Layer 1" xmlns="http://www.w3.org/2000/svg" viewBox="0 0 222.75 231">
  <path d="M0,77.75c11.83-.33,25.33-.79,40.5-1.38,15.16-.58,31.38-1.21,48.62-1.88,17.25-.66,34.91-1.41,53-2.25,18.08-.83,35.96-1.58,53.62-2.25l-1,18c-17.5,1-35.12,1.88-52.88,2.62s-35.12,1.54-52.12,2.38c-17,.84-33,1.54-48,2.12-15,.59-28.42,1.12-40.25,1.62l-1.5-19ZM29.5,124.25h159.5v106.25h-20v-88.25H48.75v88.75h-19.25v-106.75ZM79.75,0l20.75,7.25c-5,9.67-10.54,19.71-16.62,30.12-6.09,10.42-12.21,20.42-18.38,30-6.17,9.59-12.09,18.04-17.75,25.38l-16.5-7c5.66-7.33,11.5-15.96,17.5-25.88,6-9.91,11.71-20.12,17.12-30.62,5.41-10.5,10.04-20.25,13.88-29.25ZM38.25,201.75h140.75v18H38.25v-18ZM140,40.5l14.75-10.75c8.5,6.67,17.16,14.12,26,22.38,8.83,8.25,16.96,16.59,24.38,25,7.41,8.42,13.29,16.04,17.62,22.88l-16.25,12.5c-4-6.83-9.62-14.5-16.88-23s-15.21-17.04-23.88-25.62c-8.67-8.58-17.25-16.38-25.75-23.38Z" style="fill: #231f20; stroke-width: 0px;"/>
</svg>