<?xml version="1.0" encoding="UTF-8"?>
<svg id="Layer_1" data-name="Layer 1" xmlns="http://www.w3.org/2000/svg" viewBox="0 0 232.75 224.25">
  <path d="M0,171.5c6.66-2.5,14.38-5.54,23.12-9.12,8.75-3.58,18.04-7.41,27.88-11.5,9.83-4.08,19.66-8.21,29.5-12.38l4.25,16.75c-13.34,6.17-26.79,12.34-40.38,18.5-13.59,6.17-25.88,11.67-36.88,16.5l-7.5-18.75ZM2.25,60.25h79.25v17.75H2.25v-17.75ZM34.25,3h17.75v162.25h-17.75V3ZM72,103l134.5-56.75,7.25,16-134.75,57.5-7-16.75ZM99,23.25h18v167.5c0,4.5.5,7.96,1.5,10.38,1,2.42,2.88,4.04,5.62,4.88,2.75.84,6.96,1.25,12.62,1.25h60.25c5,0,8.71-.96,11.12-2.88,2.41-1.91,4.16-5.46,5.25-10.62,1.08-5.16,1.96-12.5,2.62-22,2.16,1.67,4.88,3.17,8.12,4.5,3.25,1.34,6.12,2.17,8.62,2.5-.84,11.5-2.34,20.59-4.5,27.25-2.17,6.66-5.62,11.38-10.38,14.12s-11.46,4.12-20.12,4.12h-61.75c-9.5,0-16.96-.96-22.38-2.88-5.42-1.92-9.21-5.34-11.38-10.25-2.17-4.91-3.25-11.88-3.25-20.88V23.25ZM150.5,0h17.75v174.25h-17.75V0ZM203.25,48.75h-2l4.25-3.75,3.5-2.75,13.25,5-1,3.5c0,11.84-.04,22.92-.12,33.25-.09,10.34-.21,19.67-.38,28-.17,8.34-.42,15.29-.75,20.88-.34,5.59-.67,9.62-1,12.12-.67,5-2.17,8.79-4.5,11.38-2.34,2.59-5.42,4.29-9.25,5.12-3.34,1-7.21,1.59-11.62,1.75-4.42.17-8.38.25-11.88.25-.34-2.5-.88-5.33-1.62-8.5-.75-3.16-1.71-5.83-2.88-8,3,.17,6.21.29,9.62.38,3.41.09,5.79.12,7.12.12,2,0,3.62-.41,4.88-1.25,1.25-.83,2.12-2.66,2.62-5.5.5-1.66.88-5.04,1.12-10.12.25-5.08.41-11.62.5-19.62.08-8,.12-17.25.12-27.75v-34.5Z" style="fill: #231f20; stroke-width: 0px;"/>
</svg>