<?xml version="1.0" encoding="UTF-8"?>
<svg id="Layer_1" data-name="Layer 1" xmlns="http://www.w3.org/2000/svg" viewBox="0 0 230.75 226.75">
  <path d="M0,84.75l10-14c5.16,2,10.58,4.46,16.25,7.38,5.66,2.92,11.08,5.88,16.25,8.88,5.16,3,9.33,5.84,12.5,8.5l-10.25,15.5c-3.34-2.66-7.5-5.54-12.5-8.62-5-3.08-10.34-6.21-16-9.38-5.67-3.16-11.09-5.91-16.25-8.25ZM8.25,213.5c4.33-6.5,9.16-14.21,14.5-23.12,5.33-8.91,10.71-18.38,16.12-28.38,5.41-10,10.38-19.66,14.88-29l14.25,11.75c-4.17,8.67-8.71,17.79-13.62,27.38-4.92,9.59-9.92,18.96-15,28.12-5.09,9.17-10.04,17.66-14.88,25.5l-16.25-12.25ZM13.25,16L23.75,2.25c5.33,2.17,10.91,4.75,16.75,7.75,5.83,3,11.38,6,16.62,9s9.62,5.92,13.12,8.75l-10.75,15.75c-3.34-2.83-7.62-5.96-12.88-9.38-5.25-3.41-10.79-6.71-16.62-9.88-5.84-3.16-11.42-5.91-16.75-8.25ZM59,102.75l147.5-57.25,7.5,16.25-147.75,57.75-7.25-16.75ZM89,24h18.5v167.75c0,4.84.5,8.5,1.5,11s3.04,4.25,6.12,5.25c3.08,1,7.54,1.5,13.38,1.5h64.75c5.16,0,9.04-1,11.62-3,2.58-2,4.46-5.62,5.62-10.88,1.16-5.25,2.08-12.79,2.75-22.62,2.33,1.5,5.16,3,8.5,4.5,3.33,1.5,6.33,2.5,9,3-1,11.5-2.62,20.67-4.88,27.5s-5.84,11.66-10.75,14.5c-4.92,2.83-12.04,4.25-21.38,4.25h-65.75c-10.17,0-18.09-.96-23.75-2.88-5.67-1.92-9.62-5.46-11.88-10.62s-3.38-12.41-3.38-21.75V24ZM144,0h18.5v173.75h-18.5V0ZM201.5,49.5h-2.25l4.5-3.75,3.25-2.75,13.5,5.25-1,3.5c0,15-.09,28.88-.25,41.62-.17,12.75-.46,23.5-.88,32.25-.42,8.75-1.04,14.88-1.88,18.38-.84,5.67-2.54,9.88-5.12,12.62-2.59,2.75-5.79,4.62-9.62,5.62-3.5.84-7.71,1.38-12.62,1.62-4.92.25-9.29.29-13.12.12-.17-2.66-.71-5.71-1.62-9.12-.92-3.41-1.96-6.29-3.12-8.62,3.66.17,7.41.29,11.25.38,3.83.09,6.5.12,8,.12,2.16,0,3.91-.46,5.25-1.38,1.33-.91,2.41-2.96,3.25-6.12.66-2.5,1.16-7.71,1.5-15.62.33-7.91.58-18.12.75-30.62.16-12.5.25-27,.25-43.5Z" style="fill: #231f20; stroke-width: 0px;"/>
</svg>