<?xml version="1.0" encoding="UTF-8"?>
<svg id="Layer_1" data-name="Layer 1" xmlns="http://www.w3.org/2000/svg" viewBox="0 0 218.75 229.5">
  <path d="M31,0l18.25,3.75c-2.34,11.17-5.21,22.04-8.62,32.62-3.42,10.59-7.25,20.5-11.5,29.75s-8.88,17.46-13.88,24.62c-1-1.16-2.42-2.41-4.25-3.75-1.84-1.33-3.79-2.66-5.88-4-2.09-1.33-3.79-2.41-5.12-3.25,7.33-9.66,13.62-21.54,18.88-35.62C24.12,30.04,28.16,15.34,31,0ZM54.75,42.5h18.75v50c0,10.67-.71,22.04-2.12,34.12-1.42,12.09-4.25,24.25-8.5,36.5s-10.34,24.09-18.25,35.5c-7.92,11.42-18.38,21.71-31.38,30.88-.67-1.17-1.84-2.67-3.5-4.5-1.67-1.84-3.34-3.67-5-5.5-1.67-1.84-3.17-3.17-4.5-4,12.16-8.66,21.88-18.08,29.12-28.25,7.25-10.16,12.66-20.71,16.25-31.62,3.58-10.91,6-21.79,7.25-32.62,1.25-10.83,1.88-21.08,1.88-30.75v-49.75ZM3,101.25h117.5v18H3v-18ZM29,33.75h84.25v17.5H29v-17.5ZM67.5,134c2,1.84,4.79,4.62,8.38,8.38,3.58,3.75,7.54,8,11.88,12.75,4.33,4.75,8.66,9.5,13,14.25,4.33,4.75,8.16,9.04,11.5,12.88,3.33,3.84,5.83,6.67,7.5,8.5l-12.75,16c-2.17-3.16-4.92-6.88-8.25-11.12-3.34-4.25-7-8.83-11-13.75-4-4.91-8-9.75-12-14.5s-7.71-9.08-11.12-13c-3.42-3.91-6.29-7.12-8.62-9.62l11.5-10.75ZM128.5,22h90.25v198.25h-19V39.75h-53v183.25h-18.25V22ZM136.5,185.5h74v17.75h-74v-17.75Z" style="fill: #231f20; stroke-width: 0px;"/>
</svg>