<?xml version="1.0" encoding="UTF-8"?>
<svg id="Layer_1" data-name="Layer 1" xmlns="http://www.w3.org/2000/svg" viewBox="0 0 234.5 230.25">
  <path d="M115.75,68.75c-6.84,8.67-15.84,17.42-27,26.25-11.17,8.84-23.54,17.09-37.12,24.75-13.59,7.67-27.46,14.34-41.62,20-1-2.33-2.46-5.04-4.38-8.12-1.92-3.08-3.79-5.62-5.62-7.62,14.66-5.33,28.71-11.79,42.12-19.38,13.41-7.58,25.58-15.91,36.5-25,10.91-9.08,19.79-18.21,26.62-27.38h19c9.16,10.5,19.79,20.21,31.88,29.12,12.08,8.92,24.88,16.75,38.38,23.5s26.83,12.12,40,16.12c-2.17,2.17-4.21,4.88-6.12,8.12-1.92,3.25-3.54,6.12-4.88,8.62-9.5-3.5-19.29-7.75-29.38-12.75-10.09-5-19.96-10.5-29.62-16.5-9.67-6-18.71-12.38-27.12-19.12-8.42-6.75-15.62-13.62-21.62-20.62ZM7,21.75h219.75v17.25H7v-17.25ZM58.5,163l19.25,5.5c-6.34,10.67-14.34,20.88-24,30.62-9.67,9.75-19.34,17.88-29,24.38-1.17-1.17-2.71-2.59-4.62-4.25-1.92-1.67-3.88-3.25-5.88-4.75s-3.75-2.67-5.25-3.5c9.66-5.83,18.96-13,27.88-21.5,8.91-8.5,16.12-17.33,21.62-26.5ZM36.75,132h159.5v17.5H36.75v-17.5ZM61.25,0h18.5v65.75h-18.5V0ZM106,102.25h19v128h-19V102.25ZM151.25,0h18.75v65.75h-18.75V0ZM151.75,172.25l15-10.25c6.33,4.67,12.96,9.96,19.88,15.88,6.91,5.92,13.38,11.75,19.38,17.5s10.83,10.96,14.5,15.62l-16,11.5c-3.34-4.84-7.96-10.21-13.88-16.12-5.92-5.91-12.25-11.88-19-17.88s-13.38-11.41-19.88-16.25Z" style="fill: #231f20; stroke-width: 0px;"/>
</svg>