<?xml version="1.0" encoding="UTF-8"?>
<svg id="Layer_1" data-name="Layer 1" xmlns="http://www.w3.org/2000/svg" viewBox="0 0 227.75 220.75">
  <path d="M0,110h223.75v16.75H0v-16.75ZM12,201c9.5-1.33,20.62-3.04,33.38-5.12,12.75-2.08,26.29-4.33,40.62-6.75,14.33-2.41,28.66-4.79,43-7.12l.75,16.75c-13.34,2.33-26.79,4.71-40.38,7.12-13.59,2.41-26.59,4.66-39,6.75-12.42,2.08-23.71,4.04-33.88,5.88l-4.5-17.5ZM44,0h155.25v16H63.25v101h-19.25V0ZM44,115.25h19.25v85.75l-19.25,2.25v-88ZM54.25,37h137.25v15.25H54.25v-15.25ZM54.25,73h137.25v15.25H54.25v-15.25ZM112.75,114.5c9,23.5,23.16,42.92,42.5,58.25,19.33,15.34,43.5,25.75,72.5,31.25-1.34,1.33-2.75,2.96-4.25,4.88-1.5,1.91-2.92,3.91-4.25,6-1.34,2.08-2.5,4.04-3.5,5.88-20-4.84-37.75-11.79-53.25-20.88s-28.79-20.38-39.88-33.88c-11.09-13.5-20.04-29.16-26.88-47l17-4.5ZM197.25,128.75l15.25,10.5c-6.17,4.5-12.96,9.04-20.38,13.62-7.42,4.59-14.84,8.92-22.25,13-7.42,4.09-14.38,7.71-20.88,10.88l-12.75-9.75c6.5-3.33,13.46-7.16,20.88-11.5,7.41-4.33,14.71-8.83,21.88-13.5,7.16-4.66,13.25-9.08,18.25-13.25Z" style="fill: #231f20; stroke-width: 0px;"/>
</svg>