<?xml version="1.0" encoding="UTF-8"?>
<svg id="Layer_1" data-name="Layer 1" xmlns="http://www.w3.org/2000/svg" viewBox="0 0 226.5 231.5">
  <path d="M26.75,170.75l15.5,5.75c-2.34,9.34-5.71,18.96-10.12,28.88-4.42,9.91-10.12,18.12-17.12,24.62l-15-9.25c6.66-6,12.21-13.58,16.62-22.75,4.41-9.16,7.79-18.25,10.12-27.25ZM33.75,21.25h18.75v132.75h-18.75V21.25ZM33.75,147.75h173.5v14.25H33.75v-14.25ZM43,116.25h183.5v14H43v-14ZM44,53.25h137.75v13H44v-13ZM44.75,21.25h146.5v78.25H44.75v-14h128v-50.25H44.75v-14ZM60.75,178l15.75-2.25c2.16,7,3.83,14.71,5,23.12,1.16,8.42,1.66,15.54,1.5,21.38l-16.5,2.75c.33-6,0-13.21-1-21.62-1-8.41-2.59-16.21-4.75-23.38ZM103,0l21.75,3c-2.5,5.17-5.25,10.17-8.25,15-3,4.84-5.67,9.09-8,12.75l-16.25-3.75c2-4,4.04-8.54,6.12-13.62,2.08-5.08,3.62-9.54,4.62-13.38ZM101.75,177l14.5-3.5c3.16,6.34,5.96,13.21,8.38,20.62,2.41,7.42,3.96,13.71,4.62,18.88l-15.5,4.25c-.5-5.34-1.92-11.75-4.25-19.25-2.34-7.5-4.92-14.5-7.75-21ZM141.25,173.5l13.25-5.25c3.83,4.84,7.54,10.29,11.12,16.38,3.58,6.09,6.12,11.29,7.62,15.62l-14,5.75c-1.5-4.33-3.96-9.62-7.38-15.88-3.42-6.25-6.96-11.79-10.62-16.62ZM201.75,147.75h18c-.17,3.67-.34,6.17-.5,7.5-1.17,15-2.38,27.21-3.62,36.62-1.25,9.42-2.62,16.71-4.12,21.88s-3.34,8.83-5.5,11c-2.17,2.16-4.46,3.71-6.88,4.62-2.42.91-5.29,1.54-8.62,1.88-3.17.16-7.5.25-13,.25s-11.34-.25-17.5-.75c-.17-2.17-.62-4.75-1.38-7.75s-1.79-5.59-3.12-7.75c5.83.5,11.29.83,16.38,1,5.08.16,8.62.25,10.62.25,4,0,6.83-.75,8.5-2.25,1.5-1.67,2.88-4.75,4.12-9.25s2.41-11.16,3.5-20c1.08-8.83,2.12-20.33,3.12-34.5v-2.75Z" style="fill: #231f20; stroke-width: 0px;"/>
</svg>