<?xml version="1.0" encoding="UTF-8"?>
<svg id="Layer_1" data-name="Layer 1" xmlns="http://www.w3.org/2000/svg" viewBox="0 0 219.25 230.75">
  <path d="M0,170h116.5v16.75H0v-16.75ZM2.75,28h113.25v17H2.75v-17ZM10,65h99v84.75H10v-84.75ZM27,79.75v20.5h64.5v-20.5H27ZM27,114.25v21h64.5v-21H27ZM49.25,0h18.25v72h-18.25V0ZM49.25,139h18.25v90.75h-18.25v-90.75ZM129.75,12.25h18v92.5c0,9.84-.46,20.34-1.38,31.5-.92,11.17-2.67,22.38-5.25,33.62-2.59,11.25-6.42,22.09-11.5,32.5-5.09,10.41-11.88,19.88-20.38,28.38-1-1.17-2.42-2.46-4.25-3.88-1.84-1.42-3.67-2.79-5.5-4.12-1.84-1.34-3.5-2.25-5-2.75,8.16-8.17,14.58-17,19.25-26.5,4.66-9.5,8.16-19.29,10.5-29.38,2.33-10.08,3.83-20.16,4.5-30.25.66-10.08,1-19.79,1-29.12V12.25ZM138,131.5h72.75v17.25h-72.75v-17.25ZM138.5,12.25h72.25v17h-72.25V12.25ZM138.5,72h72.25v17h-72.25v-17ZM201,12.25h18.25v194.75c0,5.5-.71,9.75-2.12,12.75-1.42,3-3.88,5.33-7.38,7-3.5,1.5-8.12,2.46-13.88,2.88-5.75.41-13.21.54-22.38.38-.34-1.5-.84-3.38-1.5-5.62-.67-2.25-1.38-4.54-2.12-6.88-.75-2.34-1.62-4.25-2.62-5.75,6.5.16,12.46.25,17.88.25s9.04-.09,10.88-.25c1.83,0,3.12-.38,3.88-1.12s1.12-2.04,1.12-3.88V12.25Z" style="fill: #231f20; stroke-width: 0px;"/>
</svg>