<?xml version="1.0" encoding="UTF-8"?>
<svg id="Layer_1" data-name="Layer 1" xmlns="http://www.w3.org/2000/svg" viewBox="0 0 222 231">
  <path d="M0,23.75h220v17.5H0v-17.5ZM13.25,68.75h18.25v162.25H13.25V68.75ZM22,200.25h200v17.5H22v-17.5ZM59.25,61.75h132.5v117.25H59.25V61.75ZM77.25,75.75v20.5h96v-20.5h-96ZM77.25,109.75v20.5h96v-20.5h-96ZM77.25,143.75v21h96v-21h-96ZM103.75,0l21.5,1.25c-.84,7.84-1.84,15.96-3,24.38-1.17,8.42-2.34,16.5-3.5,24.25-1.17,7.75-2.42,14.54-3.75,20.38l-18.25-1.75c1-6.16,1.96-13.29,2.88-21.38.91-8.08,1.75-16.29,2.5-24.62.75-8.33,1.29-15.83,1.62-22.5Z" style="fill: #231f20; stroke-width: 0px;"/>
</svg>