<?xml version="1.0" encoding="UTF-8"?>
<svg id="Layer_1" data-name="Layer 1" xmlns="http://www.w3.org/2000/svg" viewBox="0 0 236 222.25">
  <path d="M57.5,173.75c6,9.34,14.33,16.21,25,20.62,10.66,4.42,23.33,6.96,38,7.62,7,.17,15.46.29,25.38.38,9.91.09,20.38.09,31.38,0,11-.08,21.62-.29,31.88-.62,10.25-.33,19.21-.75,26.88-1.25-.67,1.34-1.42,3.09-2.25,5.25-.84,2.16-1.62,4.41-2.38,6.75-.75,2.33-1.29,4.5-1.62,6.5-7,.16-15.21.38-24.62.62-9.42.25-19.34.41-29.75.5-10.42.08-20.42.04-30-.12-9.59-.17-17.88-.34-24.88-.5-16.17-.67-30.09-3.34-41.75-8-11.67-4.67-21.42-12-29.25-22-6.34,5.5-12.84,10.96-19.5,16.38-6.67,5.41-13.59,10.88-20.75,16.38L0,203.75c6.16-4,12.91-8.62,20.25-13.88,7.33-5.25,14.33-10.62,21-16.12h16.25ZM57.5,93v88.5h-18v-71H3.25v-17.5h54.25ZM7.25,11.5L20.5,0c5.33,3.67,10.79,7.88,16.38,12.62,5.58,4.75,10.71,9.5,15.38,14.25,4.66,4.75,8.33,9.29,11,13.62l-14.25,13c-2.5-4.33-6.04-8.96-10.62-13.88-4.59-4.91-9.54-9.83-14.88-14.75-5.34-4.91-10.75-9.38-16.25-13.38ZM83.5,57h129.25v14.5h-111.5v115h-17.75V57ZM83.75,4.5h124.75v15h-124.75V4.5ZM93.25,93.5h117.75v14h-117.75v-14ZM93.25,130.25h117.75v14.75h-117.75v-14.75ZM107.5,36.25l11.75-10.75c8,2.84,16.46,6.12,25.38,9.88,8.91,3.75,17.5,7.54,25.75,11.38,8.25,3.84,15.12,7.42,20.62,10.75l-12.5,12c-5.17-3.33-11.79-7-19.88-11-8.09-4-16.62-7.96-25.62-11.88-9-3.91-17.5-7.38-25.5-10.38ZM143.5,63h17v122.5h-17V63ZM202.25,4.5h4.25l3.75-1,11.75,9.25c-5.67,5.17-12.09,10.29-19.25,15.38-7.17,5.09-14.67,9.79-22.5,14.12-7.84,4.34-15.59,8.09-23.25,11.25-1.17-1.66-2.75-3.58-4.75-5.75-2-2.16-3.75-3.91-5.25-5.25,7-2.83,14-6.16,21-10,7-3.83,13.5-7.88,19.5-12.12s10.91-8.38,14.75-12.38v-3.5ZM204,57h18v110.75c0,4.67-.59,8.21-1.75,10.62-1.17,2.42-3.42,4.38-6.75,5.88-3.34,1.34-7.71,2.12-13.12,2.38-5.42.25-12.38.38-20.88.38-.34-2.33-1-4.96-2-7.88-1-2.91-2.09-5.38-3.25-7.38,6,.17,11.38.25,16.12.25h9.38c1.66-.16,2.79-.58,3.38-1.25.58-.66.88-1.66.88-3V57Z" style="fill: #231f20; stroke-width: 0px;"/>
</svg>