<?xml version="1.0" encoding="UTF-8"?>
<svg id="Layer_1" data-name="Layer 1" xmlns="http://www.w3.org/2000/svg" viewBox="0 0 217 230.25">
  <path d="M99.75,143.25l16.75,7.5c-7.67,10.67-17.04,20.75-28.12,30.25-11.09,9.5-23.12,17.96-36.12,25.38s-26,13.46-39,18.12c-1-1.84-2.25-3.75-3.75-5.75s-3.09-3.96-4.75-5.88c-1.67-1.92-3.25-3.54-4.75-4.88,13-3.83,25.83-9,38.5-15.5,12.66-6.5,24.33-14,35-22.5,10.66-8.5,19.41-17.41,26.25-26.75ZM29,86.5l19,2c-1.84,8-3.84,16.42-6,25.25-2.17,8.84-4.34,17.38-6.5,25.62-2.17,8.25-4.25,15.54-6.25,21.88l-19-2.75c2.16-6.16,4.38-13.38,6.62-21.62s4.46-16.79,6.62-25.62c2.16-8.83,4-17.08,5.5-24.75ZM40.5,88.75h145.25v-32.75H14.25v-17.25h190.75v67.5H40.5v-17.5ZM27,137.25h177.75v17H27v-17ZM42.5,6.25L59.75.75c4.16,5.67,8.33,12,12.5,19,4.16,7,7.25,13.17,9.25,18.5l-18.25,6.5c-1.67-5.16-4.46-11.38-8.38-18.62-3.92-7.25-8.04-13.88-12.38-19.88ZM102,47.5h18.75v182.75h-18.75V47.5ZM161.25,0l20.25,5.5c-3.84,6.84-7.84,13.79-12,20.88-4.17,7.09-8.09,13.12-11.75,18.12l-16.5-5c2.33-3.66,4.75-7.79,7.25-12.38,2.5-4.58,4.91-9.29,7.25-14.12,2.33-4.83,4.16-9.16,5.5-13ZM197.75,137.25h19.25c-.17,3.84-.34,6.42-.5,7.75-1.17,13.67-2.38,24.84-3.62,33.5-1.25,8.67-2.67,15.42-4.25,20.25-1.59,4.84-3.54,8.34-5.88,10.5-2.17,2.5-4.54,4.21-7.12,5.12-2.59.91-5.71,1.54-9.38,1.88-3.34.16-8.04.25-14.12.25s-12.62-.25-19.62-.75c-.17-2.84-.71-5.88-1.62-9.12-.92-3.25-2.21-6.12-3.88-8.62,6.66.67,12.88,1.09,18.62,1.25,5.75.17,9.88.25,12.38.25,2.33,0,4.16-.12,5.5-.38,1.33-.25,2.58-.96,3.75-2.12,1.5-1.5,2.88-4.29,4.12-8.38,1.25-4.08,2.41-10.12,3.5-18.12,1.08-8,2.04-18.25,2.88-30.75v-2.5Z" style="fill: #231f20; stroke-width: 0px;"/>
</svg>