<?xml version="1.0" encoding="UTF-8"?>
<svg id="Layer_1" data-name="Layer 1" xmlns="http://www.w3.org/2000/svg" viewBox="0 0 230.25 230.25">
  <path d="M22.5,32.5h18.5v64.75c0,9.5-.29,19.96-.88,31.38-.59,11.42-1.75,23.09-3.5,35-1.75,11.92-4.25,23.59-7.5,35s-7.54,21.88-12.88,31.38c-1-1-2.54-2.21-4.62-3.62-2.09-1.42-4.12-2.75-6.12-4s-3.84-2.21-5.5-2.88c5.16-9,9.25-18.71,12.25-29.12,3-10.41,5.21-21.08,6.62-32,1.41-10.91,2.38-21.62,2.88-32.12s.75-20.16.75-29V32.5ZM31.75,32.5h198.5v17.75H31.75v-17.75ZM63.75,138.5h146.25v91.25h-19v-74.5h-108.75v75h-18.5v-91.75ZM73.75,203.5h126.25v17h-126.25v-17ZM115,0h19.25v42.75h-19.25V0ZM123.5,55.75h19v91.5h-19V55.75ZM132.75,85.5h94v17h-94v-17Z" style="fill: #231f20; stroke-width: 0px;"/>
</svg>