<?xml version="1.0" encoding="UTF-8"?>
<svg id="Layer_1" data-name="Layer 1" xmlns="http://www.w3.org/2000/svg" viewBox="0 0 227.25 229.75">
  <path d="M33.75,171.25l17.75,4.75c-4,9.67-9.04,19.42-15.12,29.25-6.09,9.83-12.54,18-19.38,24.5L0,221.5c6.66-5.67,13-13.12,19-22.38s10.91-18.54,14.75-27.88ZM31,76h167.25v80H31v-80ZM48.75,93.75v44.75h130.75v-44.75H48.75ZM74.5,178l17.75-1.5c1.33,5.17,2.46,10.79,3.38,16.88.91,6.09,1.66,11.92,2.25,17.5.58,5.58.88,10.38.88,14.38l-19,2.5c0-4.17-.21-9.09-.62-14.75-.42-5.66-1.04-11.58-1.88-17.75-.84-6.16-1.75-11.91-2.75-17.25ZM103.25,0h18.75v85.25h-18.75V0ZM112,26.5h105v17.75h-105v-17.75ZM126.25,178.25l17-3.75c2.66,5,5.21,10.46,7.62,16.38,2.41,5.92,4.66,11.62,6.75,17.12,2.08,5.5,3.54,10.33,4.38,14.5l-18.25,4.75c-.84-4.17-2.17-9.09-4-14.75-1.84-5.66-3.92-11.5-6.25-17.5-2.34-6-4.75-11.58-7.25-16.75ZM177.25,176.25l16.75-6.5c4.33,5.34,8.62,11,12.88,17s8.21,11.96,11.88,17.88c3.66,5.91,6.5,11.21,8.5,15.88l-17.75,7.5c-1.84-4.67-4.5-10-8-16s-7.38-12.12-11.62-18.38-8.46-12.04-12.62-17.38Z" style="fill: #231f20; stroke-width: 0px;"/>
</svg>