<?xml version="1.0" encoding="UTF-8"?>
<svg id="Layer_1" data-name="Layer 1" xmlns="http://www.w3.org/2000/svg" viewBox="0 0 221.5 217.25">
  <path d="M0,29.75h212.25v49h-17.5v-35.25H17v35.25H0V29.75ZM14.5,0h182.75v14.5H14.5V0ZM21.75,109.5h18v87.5h-18v-87.5ZM25.25,82.75h58v12H25.25v-12ZM30.25,57.25h53v11.75H30.25v-11.75ZM30.75,140.5h150v12.5H30.75v-12.5ZM31.25,109.5h160.25v74.5H31.25v-13.75h141.75v-47H31.25v-13.75ZM95.25,116.25h18.25v75.5c0,4.17,1.16,6.92,3.5,8.25,2.33,1.33,7.41,2,15.25,2h56c4.5,0,7.88-.71,10.12-2.12s3.88-4.25,4.88-8.5,1.66-10.54,2-18.88c2,1.34,4.58,2.59,7.75,3.75,3.16,1.17,6,2,8.5,2.5-.84,10.17-2.25,18-4.25,23.5s-5.17,9.38-9.5,11.62c-4.34,2.25-10.42,3.38-18.25,3.38h-58.25c-9.17,0-16.42-.71-21.75-2.12-5.34-1.42-9.04-3.96-11.12-7.62-2.09-3.67-3.12-8.91-3.12-15.75v-75.5ZM96,5.5h18.5v95.5h-18.5V5.5ZM127.75,57.25h53.75v11.75h-53.75v-11.75ZM127.75,82.75h60v12h-60v-12Z" style="fill: #231f20; stroke-width: 0px;"/>
</svg>