<?xml version="1.0" encoding="UTF-8"?>
<svg id="Layer_1" data-name="Layer 1" xmlns="http://www.w3.org/2000/svg" viewBox="0 0 216.25 204.25">
  <path d="M87.5,5h20.75c-.5,13.67-1.38,27.96-2.62,42.88-1.25,14.92-3.54,29.84-6.88,44.75-3.34,14.92-8.29,29.29-14.88,43.12-6.59,13.84-15.5,26.59-26.75,38.25s-25.46,21.75-42.62,30.25c-1.5-2.67-3.62-5.46-6.38-8.38-2.75-2.92-5.46-5.38-8.12-7.38,16.66-7.66,30.33-16.91,41-27.75,10.66-10.83,19.04-22.66,25.12-35.5,6.08-12.83,10.54-26.16,13.38-40,2.83-13.83,4.75-27.58,5.75-41.25,1-13.66,1.75-26.66,2.25-39ZM11,0h193.75v19H11V0ZM196.5,0h19.75v6.88c0,1.75-.09,3.12-.25,4.12-.84,30.5-1.79,56.38-2.88,77.62-1.09,21.25-2.29,38.67-3.62,52.25-1.34,13.59-2.96,24.17-4.88,31.75-1.92,7.59-4.29,13.04-7.12,16.38-3,4-6.25,6.79-9.75,8.38-3.5,1.58-7.67,2.62-12.5,3.12-4.84.5-11.12.66-18.88.5-7.75-.17-15.62-.5-23.62-1-.17-2-.54-4.17-1.12-6.5-.59-2.34-1.34-4.75-2.25-7.25-.92-2.5-2.04-4.66-3.38-6.5,9.16.84,17.62,1.34,25.38,1.5,7.75.17,13.29.25,16.62.25,2.66,0,4.88-.29,6.62-.88,1.75-.58,3.38-1.71,4.88-3.38,2.33-2.33,4.38-7.16,6.12-14.5,1.75-7.33,3.29-17.75,4.62-31.25,1.33-13.5,2.5-30.66,3.5-51.5,1-20.83,1.91-46,2.75-75.5V0Z" style="fill: #231f20; stroke-width: 0px;"/>
</svg>