<?xml version="1.0" encoding="UTF-8"?>
<svg id="Layer_1" data-name="Layer 1" xmlns="http://www.w3.org/2000/svg" viewBox="0 0 236 234">
  <path d="M172.75,25.5h3.75l3.5-1,12.75,7.75c-8.5,17-19.42,32.34-32.75,46-13.34,13.67-28.21,25.79-44.62,36.38-16.42,10.59-33.62,19.62-51.62,27.12s-36,13.5-54,18c-.5-1.83-1.29-3.79-2.38-5.88-1.09-2.08-2.29-4.12-3.62-6.12-1.34-2-2.59-3.75-3.75-5.25,17.16-3.5,34.41-8.66,51.75-15.5,17.33-6.83,33.83-15.12,49.5-24.88,15.66-9.75,29.71-20.79,42.12-33.12,12.41-12.33,22.21-25.83,29.38-40.5v-3ZM88.25,0l18,6.25c-7.17,12.17-15.54,23.84-25.12,35-9.59,11.17-19.67,21.42-30.25,30.75-10.59,9.34-21.29,17.59-32.12,24.75-1-1.33-2.46-2.83-4.38-4.5-1.92-1.66-3.88-3.33-5.88-5-2-1.66-3.75-3-5.25-4,11.16-6.33,22-13.88,32.5-22.62s20.25-18.29,29.25-28.62c9-10.33,16.75-21,23.25-32ZM39.25,200.5l11.5-16.25c11.66,1.67,23.83,3.75,36.5,6.25,12.66,2.5,25.25,5.21,37.75,8.12,12.5,2.92,24.33,5.88,35.5,8.88,11.16,3,21.08,5.91,29.75,8.75l-10.75,17.75c-8.34-3-18.09-6.12-29.25-9.38-11.17-3.25-23-6.34-35.5-9.25-12.5-2.92-25.25-5.66-38.25-8.25-13-2.58-25.42-4.79-37.25-6.62ZM71.75,42.25c7.83,11.5,17.54,22.17,29.12,32,11.58,9.84,24.58,18.75,39,26.75,14.41,8,29.75,14.92,46,20.75,16.25,5.84,32.96,10.5,50.12,14-1.34,1.34-2.75,3.04-4.25,5.12-1.5,2.09-2.92,4.17-4.25,6.25-1.34,2.09-2.42,3.96-3.25,5.62-17.5-3.83-34.46-8.91-50.88-15.25-16.42-6.33-31.92-13.88-46.5-22.62-14.59-8.75-27.96-18.54-40.12-29.38-12.17-10.83-22.67-22.5-31.5-35l16.5-8.25ZM79.5,25.5h97v17h-108.75l11.75-17ZM78.5,148l11-13.75c8.5,2.34,17.46,5.17,26.88,8.5,9.41,3.34,18.38,6.84,26.88,10.5,8.5,3.67,15.75,7.09,21.75,10.25l-10.75,15.25c-5.67-3.5-12.79-7.12-21.38-10.88-8.59-3.75-17.59-7.41-27-11-9.42-3.58-18.54-6.54-27.38-8.88Z" style="fill: #231f20; stroke-width: 0px;"/>
</svg>