<?xml version="1.0" encoding="UTF-8"?>
<svg id="Layer_1" data-name="Layer 1" xmlns="http://www.w3.org/2000/svg" viewBox="0 0 191.75 230.25">
  <path d="M0,200.5h178.75v18.75H0v-18.75ZM1.5,17.75l17-6.75c4.66,5.84,9.16,12.12,13.5,18.88,4.33,6.75,8.25,13.42,11.75,20,3.5,6.59,6.16,12.54,8,17.88l-18,8.25c-1.84-5.5-4.42-11.62-7.75-18.38-3.34-6.75-7.12-13.62-11.38-20.62S6,23.59,1.5,17.75ZM5,88.5h183.5v141.75h-19.75v-123H5v-18.75ZM13.25,143.5h163v18H13.25v-18ZM85.75,0h20.5v98.5h-20.5V0ZM171.5,8.75l20.25,6.75c-3.67,7.17-7.54,14.46-11.62,21.88-4.09,7.42-8.21,14.62-12.38,21.62-4.17,7-8.17,13.17-12,18.5l-16.25-6.25c3.66-5.66,7.5-12.12,11.5-19.38s7.83-14.66,11.5-22.25c3.66-7.58,6.66-14.54,9-20.88Z" style="fill: #231f20; stroke-width: 0px;"/>
</svg>