<?xml version="1.0" encoding="UTF-8"?>
<svg id="Layer_1" data-name="Layer 1" xmlns="http://www.w3.org/2000/svg" viewBox="0 0 230.25 229.75">
  <path d="M98.5,143l15.75,7c-5.84,7.84-12.67,15.5-20.5,23-7.84,7.5-16.21,14.54-25.12,21.12-8.92,6.59-18.12,12.54-27.62,17.88s-18.84,9.91-28,13.75c-1-1.5-2.25-3.25-3.75-5.25s-3.04-3.96-4.62-5.88c-1.59-1.92-3.12-3.46-4.62-4.62,9-3.16,18.21-7.12,27.62-11.88,9.41-4.75,18.54-10.08,27.38-16,8.83-5.91,17-12.21,24.5-18.88,7.5-6.66,13.83-13.41,19-20.25ZM6.25,23.5h218.5v17.75H6.25v-17.75ZM28,62.25h176.5v92H28V62.25ZM46.25,77.25v23.75h139v-23.75H46.25ZM46.25,115v24.25h139v-24.25H46.25ZM104.5,0h19.25v229.75h-19.25V0ZM130,143.25c5.5,7,12.04,13.79,19.62,20.38,7.58,6.59,15.88,12.84,24.88,18.75,9,5.92,18.25,11.25,27.75,16s18.83,8.62,28,11.62c-1.34,1.33-2.84,2.96-4.5,4.88-1.67,1.91-3.25,3.88-4.75,5.88s-2.84,3.83-4,5.5c-9.17-3.67-18.54-8.21-28.12-13.62-9.59-5.41-18.92-11.46-28-18.12-9.09-6.66-17.54-13.75-25.38-21.25-7.84-7.5-14.75-15.16-20.75-23l15.25-7Z" style="fill: #231f20; stroke-width: 0px;"/>
</svg>