<?xml version="1.0" encoding="UTF-8"?>
<svg id="Layer_1" data-name="Layer 1" xmlns="http://www.w3.org/2000/svg" viewBox="0 0 236 233.75">
  <path d="M39.75,0l18,4.5c-3.34,9.17-7.25,18.12-11.75,26.88s-9.29,16.92-14.38,24.5c-5.09,7.59-10.38,14.29-15.88,20.12-1-1-2.46-2.16-4.38-3.5-1.92-1.33-3.92-2.62-6-3.88-2.09-1.25-3.88-2.29-5.38-3.12,8.33-8,15.96-17.83,22.88-29.5C29.79,24.34,35.41,12.34,39.75,0ZM117.25,78c-7.34,8.84-16.54,17.79-27.62,26.88-11.09,9.09-23.38,17.75-36.88,26s-27.42,15.38-41.75,21.38c-1-2.16-2.54-4.66-4.62-7.5-2.09-2.83-4.04-5.33-5.88-7.5,14.83-5.83,29.04-12.83,42.62-21,13.58-8.16,25.91-17,37-26.5,11.08-9.5,20.12-18.91,27.12-28.25h18.25c9.33,10.5,20.04,20.38,32.12,29.62,12.08,9.25,24.91,17.46,38.5,24.62,13.58,7.17,26.88,12.92,39.88,17.25-2.17,2.17-4.25,4.79-6.25,7.88-2,3.09-3.75,5.79-5.25,8.12-12.67-5-25.71-11.25-39.12-18.75-13.42-7.5-26.04-15.75-37.88-24.75-11.84-9-21.92-18.16-30.25-27.5ZM34.25,25.25h78.25v16.25H34.25v-16.25ZM45.75,154.75h145.5v78.25h-18.75v-62H63.75v62.75h-18v-79ZM47.25,37.25l16-4.5c3.66,5.67,7.29,11.92,10.88,18.75,3.58,6.84,6.21,12.84,7.88,18l-16.75,5.75c-1.5-5.16-3.92-11.33-7.25-18.5-3.34-7.16-6.92-13.66-10.75-19.5ZM56,209.25h125v16.5H56v-16.5ZM67,117h103.5v16h-103.5v-16ZM137,0l18.25,4.5c-4.34,12.34-10.17,24-17.5,35-7.34,11-15.17,20.34-23.5,28-1-1.16-2.46-2.41-4.38-3.75-1.92-1.33-3.88-2.71-5.88-4.12-2-1.41-3.84-2.54-5.5-3.38,8.33-6.66,15.88-14.96,22.62-24.88,6.75-9.91,12.04-20.38,15.88-31.38ZM128.75,25.25h101v16.25h-101v-16.25ZM152.5,37.5l16.5-5.5c4.5,5.34,9,11.46,13.5,18.38,4.5,6.92,7.83,12.96,10,18.12l-17.5,6.25c-1.84-5-4.92-11.04-9.25-18.12-4.34-7.08-8.75-13.46-13.25-19.12Z" style="fill: #231f20; stroke-width: 0px;"/>
</svg>