<?xml version="1.0" encoding="UTF-8"?>
<svg id="Layer_1" data-name="Layer 1" xmlns="http://www.w3.org/2000/svg" viewBox="0 0 235 218.25">
  <path d="M0,186.5c8.66-1.5,18.62-3.38,29.88-5.62s23.21-4.71,35.88-7.38c12.66-2.66,25.41-5.33,38.25-8l1.5,16c-17.84,4.17-35.67,8.25-53.5,12.25-17.84,4-33.67,7.58-47.5,10.75l-4.5-18ZM3.75,1.5h98.5v17.5H3.75V1.5ZM10.5,43h85.75v67.25H10.5V43ZM16.5,123.25l15.25-3.75c3,7.34,5.46,15.38,7.38,24.12,1.91,8.75,2.96,16.29,3.12,22.62l-16.25,4c-.17-6.33-1.12-13.88-2.88-22.62s-3.96-16.88-6.62-24.38ZM27,58.5v36.25h52.25v-36.25H27ZM71,117.5l18.25,4.5c-2.17,8.67-4.54,17.62-7.12,26.88-2.59,9.25-5.04,17.12-7.38,23.62l-14.75-4.25c1.5-4.66,2.96-9.96,4.38-15.88,1.41-5.91,2.75-11.96,4-18.12,1.25-6.16,2.12-11.75,2.62-16.75ZM140.25,175.75l16.25,9.5c-4.34,4.34-9.59,8.59-15.75,12.75-6.17,4.16-12.62,7.96-19.38,11.38-6.75,3.41-13.38,6.38-19.88,8.88-1.34-1.84-3.25-3.96-5.75-6.38-2.5-2.42-4.75-4.46-6.75-6.12,6.33-2.17,12.79-4.96,19.38-8.38,6.58-3.41,12.66-7,18.25-10.75,5.58-3.75,10.12-7.38,13.62-10.88ZM108.75,0h121v16.25h-121V0ZM116.5,40h105.25v130.5h-105.25V40ZM134,54.5v24.25h69.75v-24.25h-69.75ZM134,92.75v24.5h69.75v-24.5h-69.75ZM134,131v25h69.75v-25h-69.75ZM157.5,8l21.25,2.75c-2,7.17-4.12,14.42-6.38,21.75-2.25,7.34-4.38,13.67-6.38,19l-16.5-3.25c1-3.83,2.04-8.12,3.12-12.88,1.08-4.75,2.08-9.54,3-14.38.91-4.83,1.54-9.16,1.88-13ZM177.5,186.25l14.5-9.25c4.83,2.84,9.96,6.12,15.38,9.88,5.41,3.75,10.58,7.46,15.5,11.12,4.91,3.66,8.96,7.08,12.12,10.25l-15,10c-3-3-6.88-6.38-11.62-10.12s-9.84-7.59-15.25-11.5c-5.42-3.91-10.62-7.38-15.62-10.38Z" style="fill: #231f20; stroke-width: 0px;"/>
</svg>