<?xml version="1.0" encoding="UTF-8"?>
<svg id="Layer_1" data-name="Layer 1" xmlns="http://www.w3.org/2000/svg" viewBox="0 0 206.5 217.5">
  <path d="M0,0h199.5v17.75H18.25v199.75H0V0ZM40,44h127v16.25H40v-16.25ZM52.75,86.5h17.25v97.75h-17.25v-97.75ZM62,86.5h91.5v79.75H62v-16.25h74v-47.5H62v-16ZM188,0h18.5v193.25c0,5.66-.79,10.12-2.38,13.38-1.59,3.25-4.29,5.62-8.12,7.12-3.67,1.5-8.88,2.46-15.62,2.88-6.75.41-15.46.62-26.12.62-.17-1.67-.62-3.62-1.38-5.88s-1.59-4.5-2.5-6.75c-.92-2.25-1.88-4.12-2.88-5.62,7.83.16,15,.25,21.5.25h13c2.33-.17,3.91-.71,4.75-1.62.83-.91,1.25-2.46,1.25-4.62V0Z" style="fill: #231f20; stroke-width: 0px;"/>
</svg>