<?xml version="1.0" encoding="UTF-8"?>
<svg id="Layer_1" data-name="Layer 1" xmlns="http://www.w3.org/2000/svg" viewBox="0 0 232.25 228">
  <path d="M56.5,179c6,9.17,14.33,16,25,20.5,10.66,4.5,23.25,7,37.75,7.5,6.83.34,15.12.54,24.88.62,9.75.09,20,.04,30.75-.12,10.75-.16,21.12-.41,31.12-.75,10-.33,18.75-.75,26.25-1.25-.84,1.34-1.67,3.17-2.5,5.5-.84,2.33-1.59,4.71-2.25,7.12-.67,2.41-1.17,4.54-1.5,6.38-6.84.33-14.92.58-24.25.75-9.34.16-19,.29-29,.38-10,.08-19.71.08-29.12,0-9.42-.09-17.54-.21-24.38-.38-16.34-.67-30.29-3.34-41.88-8-11.59-4.67-21.38-12-29.38-22-6,5.34-12.17,10.71-18.5,16.12-6.34,5.41-12.92,10.96-19.75,16.62L0,208.75c6-4,12.46-8.62,19.38-13.88,6.91-5.25,13.62-10.54,20.12-15.88h17ZM56.5,98.75v88.5h-18.25v-71H3.25v-17.5h53.25ZM6,17.25l13.75-11.25c5.5,3.5,11.08,7.54,16.75,12.12,5.66,4.59,10.88,9.21,15.62,13.88,4.75,4.67,8.62,9,11.62,13l-15,12.5c-2.5-4-6.12-8.41-10.88-13.25-4.75-4.83-9.92-9.62-15.5-14.38-5.59-4.75-11.04-8.96-16.38-12.62ZM68.75,31.75h159v15.75H68.75v-15.75ZM88.75,67.5h119.5v119h-119.5v-119ZM95.25,6.25l14.75-5.75c4,4.17,7.75,8.92,11.25,14.25,3.5,5.34,5.91,10,7.25,14l-15.5,6.75c-1.34-4-3.67-8.79-7-14.38-3.34-5.58-6.92-10.54-10.75-14.88ZM106.5,82v20.5h83.25v-20.5h-83.25ZM106.5,116.25v20.75h83.25v-20.75h-83.25ZM106.5,150.75v21h83.25v-21h-83.25ZM137,38.75l21.25,2c-2,6.34-4.12,12.67-6.38,19-2.25,6.34-4.38,11.84-6.38,16.5l-15.5-3.25c1.33-4.83,2.71-10.54,4.12-17.12,1.41-6.58,2.38-12.29,2.88-17.12ZM180.5,0l19.25,4.5c-3.5,5.84-7.09,11.62-10.75,17.38-3.67,5.75-7.17,10.71-10.5,14.88l-15.5-4.25c2-3.16,4.08-6.66,6.25-10.5,2.16-3.83,4.29-7.71,6.38-11.62,2.08-3.91,3.71-7.38,4.88-10.38Z" style="fill: #231f20; stroke-width: 0px;"/>
</svg>