<?xml version="1.0" encoding="UTF-8"?>
<svg id="Layer_1" data-name="Layer 1" xmlns="http://www.w3.org/2000/svg" viewBox="0 0 233.5 230.5">
  <path d="M0,41.75h85.25v15.75H0v-15.75ZM10.5,143h16v84.5H10.5v-84.5ZM10.75,76h67.5v14.75H10.75v-14.75ZM10.75,109.25h67.5v15H10.75v-15ZM12.25,9h65.25v15H12.25v-15ZM19.5,143h59v72.75H19.5v-15.5h43v-41.75H19.5v-15.5ZM127.25,128h17.75c-.67,13.5-1.84,25.62-3.5,36.38-1.67,10.75-4.42,20.25-8.25,28.5-3.84,8.25-9.21,15.5-16.12,21.75-6.92,6.25-15.96,11.54-27.12,15.88-.67-1.5-1.62-3.17-2.88-5-1.25-1.84-2.59-3.62-4-5.38-1.42-1.75-2.79-3.21-4.12-4.38,10.16-3.67,18.33-8.08,24.5-13.25,6.16-5.16,10.88-11.29,14.12-18.38,3.25-7.08,5.54-15.25,6.88-24.5,1.33-9.25,2.25-19.79,2.75-31.62ZM90.25,96.25h137.25v44.25h-17.5v-29h-102.75v29h-17v-44.25ZM91.25,22.75h135.25v15.75H91.25v-15.75ZM99.5,62h119.5v15.75h-119.5v-15.75ZM148.25,0h18.5v70.25h-18.5V0ZM170.25,128.25h17.75v75.25c0,3,.33,4.92,1,5.75.66.84,2.33,1.25,5,1.25h16.5c1.83,0,3.21-.75,4.12-2.25.91-1.5,1.58-4.62,2-9.38.41-4.75.71-11.88.88-21.38,1.33,1,2.91,1.96,4.75,2.88,1.83.92,3.75,1.75,5.75,2.5s3.83,1.38,5.5,1.88c-.5,11.17-1.46,19.88-2.88,26.12-1.42,6.25-3.54,10.54-6.38,12.88-2.84,2.33-6.75,3.5-11.75,3.5h-21c-5.67,0-10.04-.71-13.12-2.12-3.09-1.42-5.21-3.84-6.38-7.25-1.17-3.42-1.75-8.21-1.75-14.38v-75.25Z" style="fill: #231f20; stroke-width: 0px;"/>
</svg>