<?xml version="1.0" encoding="UTF-8"?>
<svg id="Layer_1" data-name="Layer 1" xmlns="http://www.w3.org/2000/svg" viewBox="0 0 201 230.5">
  <path d="M0,42.75h191v18.5H18.5v169.25H0V42.75ZM91,0h19v49c0,8-.46,16.42-1.38,25.25-.92,8.84-2.67,17.84-5.25,27-2.59,9.17-6.5,18.34-11.75,27.5-5.25,9.17-12.21,18-20.88,26.5-8.67,8.5-19.42,16.59-32.25,24.25-.84-1.5-2.04-3.08-3.62-4.75-1.59-1.66-3.25-3.41-5-5.25-1.75-1.83-3.38-3.25-4.88-4.25,12.5-6.66,22.83-13.88,31-21.62,8.16-7.75,14.62-15.75,19.38-24s8.21-16.46,10.38-24.62c2.16-8.16,3.58-16.16,4.25-24,.66-7.83,1-15.25,1-22.25V0ZM88.25,101.5l14-10.25c6.33,5.5,13,11.46,20,17.88,7,6.42,13.83,12.92,20.5,19.5,6.66,6.59,12.91,12.92,18.75,19,5.83,6.09,10.75,11.54,14.75,16.38l-15.5,12.25c-3.84-5-8.54-10.58-14.12-16.75-5.59-6.16-11.67-12.66-18.25-19.5-6.59-6.83-13.34-13.54-20.25-20.12-6.92-6.58-13.54-12.71-19.88-18.38ZM182.5,42.75h18.5v162.5c0,6.16-.84,10.88-2.5,14.12-1.67,3.25-4.59,5.71-8.75,7.38-4.5,1.5-10.62,2.38-18.38,2.62s-17.21.38-28.38.38c-.34-1.84-.84-3.88-1.5-6.12-.67-2.25-1.42-4.54-2.25-6.88-.84-2.34-1.75-4.34-2.75-6,6,.16,11.71.29,17.12.38,5.41.08,10.16.12,14.25.12h8.38c2.5-.17,4.16-.71,5-1.62.83-.91,1.25-2.46,1.25-4.62V42.75Z" style="fill: #231f20; stroke-width: 0px;"/>
</svg>