<?xml version="1.0" encoding="UTF-8"?>
<svg id="Layer_1" data-name="Layer 1" xmlns="http://www.w3.org/2000/svg" viewBox="0 0 220.25 230">
  <path d="M0,25h220.25v17.75H0v-17.75ZM13.5,69.25h180.75v17.25H32.5v143.25H13.5V69.25ZM46.25,166h128.25v15.75H46.25v-15.75ZM51.5,125.5h118.5v15.25H51.5v-15.25ZM64.25,95l14.75-4.75c3.33,4.34,6.5,9.29,9.5,14.88,3,5.59,5.16,10.46,6.5,14.62l-15.75,5.5c-1.17-4.16-3.17-9.12-6-14.88-2.84-5.75-5.84-10.88-9-15.38ZM99.5,0h20.75v80.75h-20.75V0ZM100.25,132.75h18v92.5h-18v-92.5ZM140.5,89.75l16.25,5c-3.34,6.5-6.84,13-10.5,19.5-3.67,6.5-7.17,12.09-10.5,16.75l-13.25-4.25c2-3.5,4.12-7.41,6.38-11.75,2.25-4.33,4.41-8.71,6.5-13.12,2.08-4.41,3.79-8.46,5.12-12.12ZM188,69.25h19v138.75c0,5.5-.75,9.71-2.25,12.62-1.5,2.91-4.34,5.04-8.5,6.38-4.17,1.33-9.84,2.16-17,2.5-7.17.33-15.84.5-26,.5-.34-2.5-1.17-5.34-2.5-8.5-1.34-3.17-2.67-5.92-4-8.25,5.33.16,10.41.29,15.25.38,4.83.08,9.08.08,12.75,0,3.66-.09,6.16-.12,7.5-.12,2.33-.17,3.88-.62,4.62-1.38s1.12-2.12,1.12-4.12V69.25Z" style="fill: #231f20; stroke-width: 0px;"/>
</svg>