<?xml version="1.0" encoding="UTF-8"?>
<svg id="Layer_1" data-name="Layer 1" xmlns="http://www.w3.org/2000/svg" viewBox="0 0 202 229.75">
  <path d="M0,36.25h191v18.25H18.75v174.75H0V36.25ZM94,108h19.25c-2.34,12.34-6.12,24.25-11.38,35.75s-12.79,21.88-22.62,31.12c-9.84,9.25-23.09,16.96-39.75,23.12-1.17-2.16-2.79-4.62-4.88-7.38-2.09-2.75-4.21-4.96-6.38-6.62,11.5-3.83,21.12-8.54,28.88-14.12,7.75-5.58,14.08-11.71,19-18.38,4.91-6.66,8.75-13.71,11.5-21.12,2.75-7.41,4.88-14.88,6.38-22.38ZM95.5,0h19.75c-1,14.67-2.71,28.42-5.12,41.25-2.42,12.84-6.21,24.54-11.38,35.12-5.17,10.59-12.42,20.04-21.75,28.38-9.34,8.34-21.5,15.34-36.5,21-1-2.16-2.62-4.62-4.88-7.38s-4.38-4.96-6.38-6.62c13.66-5,24.66-11.16,33-18.5,8.33-7.33,14.75-15.75,19.25-25.25s7.75-19.91,9.75-31.25c2-11.33,3.41-23.58,4.25-36.75ZM89,75.5l12-12.75c7.83,4.34,16.16,9.21,25,14.62,8.83,5.42,17.25,10.79,25.25,16.12,8,5.34,14.58,10.17,19.75,14.5l-12.5,14.75c-5-4.33-11.42-9.29-19.25-14.88-7.84-5.58-16.17-11.25-25-17-8.84-5.75-17.25-10.88-25.25-15.38ZM90.75,146.75l13-12c7.33,5,15.12,10.46,23.38,16.38,8.25,5.92,16.12,11.79,23.62,17.62,7.5,5.84,13.66,11.09,18.5,15.75l-13.75,13.75c-4.67-4.66-10.67-10-18-16-7.34-6-15.09-12.16-23.25-18.5-8.17-6.33-16-12-23.5-17ZM183.5,36.25h18.5v169.25c0,5.83-.75,10.38-2.25,13.62s-4.34,5.62-8.5,7.12c-4,1.5-9.67,2.46-17,2.88-7.34.41-16.34.62-27,.62-.34-2.67-1.09-5.88-2.25-9.62-1.17-3.75-2.42-6.96-3.75-9.62,8.16.33,15.71.54,22.62.62,6.91.08,11.54.04,13.88-.12,2.33-.17,3.88-.67,4.62-1.5s1.12-2.33,1.12-4.5V36.25Z" style="fill: #231f20; stroke-width: 0px;"/>
</svg>