<?xml version="1.0" encoding="UTF-8"?>
<svg id="Layer_1" data-name="Layer 1" xmlns="http://www.w3.org/2000/svg" viewBox="0 0 233.5 230.5">
  <path d="M115,18.25c-6.67,10-15.46,20.29-26.38,30.88-10.92,10.59-23,20.62-36.25,30.12s-26.96,17.84-41.12,25c-.84-1.66-1.88-3.41-3.12-5.25-1.25-1.83-2.59-3.66-4-5.5-1.42-1.83-2.79-3.41-4.12-4.75,14.5-6.83,28.46-15.12,41.88-24.88,13.41-9.75,25.58-20.16,36.5-31.25,10.91-11.08,19.54-21.96,25.88-32.62h19.5c6.66,9.34,14.25,18.29,22.75,26.88,8.5,8.59,17.58,16.62,27.25,24.12,9.66,7.5,19.54,14.21,29.62,20.12,10.08,5.92,20.12,10.88,30.12,14.88-2.17,2.34-4.29,5.04-6.38,8.12-2.09,3.09-4.04,5.96-5.88,8.62-12.84-6.16-25.96-13.79-39.38-22.88-13.42-9.08-25.96-18.96-37.62-29.62-11.67-10.66-21.42-21.33-29.25-32ZM13.25,125.25h207.25v17.75H13.25v-17.75ZM15.25,202.5c14.66-.5,31.71-1.04,51.12-1.62,19.41-.58,40.04-1.29,61.88-2.12,21.83-.83,43.58-1.75,65.25-2.75l-.5,17.25c-21,1-42.17,2-63.5,3-21.34,1-41.59,1.88-60.75,2.62-19.17.75-36.17,1.46-51,2.12l-2.5-18.5ZM81.75,136.5l21,6c-3.84,7.84-7.96,16.12-12.38,24.88-4.42,8.75-8.84,17.21-13.25,25.38-4.42,8.17-8.71,15.42-12.88,21.75l-16.5-5.75c4-6.5,8.12-14,12.38-22.5s8.29-17.12,12.12-25.88c3.83-8.75,7-16.71,9.5-23.88ZM56,77.25h119.25v17.5H56v-17.5ZM141,163l16-8.75c7.83,6.5,15.54,13.67,23.12,21.5,7.58,7.84,14.54,15.59,20.88,23.25,6.33,7.67,11.41,14.66,15.25,21l-16.75,10.5c-3.84-6.34-8.92-13.46-15.25-21.38-6.34-7.91-13.21-15.96-20.62-24.12-7.42-8.16-14.96-15.5-22.62-22Z" style="fill: #231f20; stroke-width: 0px;"/>
</svg>