<?xml version="1.0" encoding="UTF-8"?>
<svg id="Layer_1" data-name="Layer 1" xmlns="http://www.w3.org/2000/svg" viewBox="0 0 224.25 217.89">
  <path d="M28.5,148.25l16.5,4.5c-1.5,7.84-3.5,15.67-6,23.5-2.5,7.84-5.62,15.12-9.38,21.88s-8.46,12.54-14.12,17.38l-15.5-9.75c7.83-6.67,14.04-15.16,18.62-25.5,4.58-10.33,7.88-21,9.88-32ZM32.5,0h176v16.5H51v112.5h-18.5V0ZM32.5,121.25h177v16.5H32.5v-16.5ZM42.75,41.25h157v15.5H42.75v-15.5ZM42.75,81h157v15.5H42.75v-15.5ZM64.5,157l15.75-2.5c2.33,7.84,4.33,16.38,6,25.62,1.66,9.25,2.58,17.29,2.75,24.12l-17,2.75c0-4.5-.38-9.62-1.12-15.38s-1.67-11.62-2.75-17.62c-1.09-6-2.29-11.66-3.62-17ZM107.5,155.5l14.75-3.5c3.5,7,6.75,14.67,9.75,23,3,8.34,5,15.34,6,21l-15.75,4.5c-1-5.83-2.88-13-5.62-21.5s-5.79-16.33-9.12-23.5ZM109.25,8.75h18.75v119.25h-18.75V8.75ZM148,151.75l13.5-5.5c4.5,5,8.88,10.71,13.12,17.12,4.25,6.42,7.29,11.96,9.12,16.62l-14.5,6.5c-1.84-4.83-4.79-10.54-8.88-17.12-4.09-6.58-8.21-12.46-12.38-17.62ZM205.5,121.25h18.75c-.17,4-.34,6.75-.5,8.25-1,17.5-2.17,31.75-3.5,42.75-1.34,11-2.84,19.46-4.5,25.38-1.67,5.91-3.67,10.12-6,12.62-2.17,2.5-4.54,4.25-7.12,5.25-2.59,1-5.71,1.58-9.38,1.75-3.34.5-7.88.71-13.62.62-5.75-.09-11.79-.38-18.12-.88-.17-2.5-.71-5.38-1.62-8.62-.92-3.25-2.12-6.12-3.62-8.62,6.16.66,11.91,1.08,17.25,1.25,5.33.16,9.08.16,11.25,0,2.33,0,4.16-.17,5.5-.5,1.33-.34,2.5-1,3.5-2,1.66-1.83,3.16-5.38,4.5-10.62,1.33-5.25,2.58-13.04,3.75-23.38,1.16-10.33,2.33-23.83,3.5-40.5v-2.75Z" style="fill: #231f20; stroke-width: 0px;"/>
</svg>