<?xml version="1.0" encoding="UTF-8"?>
<svg id="Layer_1" data-name="Layer 1" xmlns="http://www.w3.org/2000/svg" viewBox="0 0 226.25 219">
  <path d="M74.5,180l17.25,8c-6.84,4-14.71,7.96-23.62,11.88-8.92,3.91-18.09,7.5-27.5,10.75-9.42,3.25-18.38,6.04-26.88,8.38-.84-1.34-2.09-2.88-3.75-4.62-1.67-1.75-3.42-3.5-5.25-5.25-1.84-1.75-3.42-3.21-4.75-4.38,8.66-1.84,17.58-4.04,26.75-6.62,9.16-2.58,17.91-5.41,26.25-8.5,8.33-3.08,15.5-6.29,21.5-9.62ZM16.5,0h193.75v55.5H16.5V0ZM31.25,70h164.75v107.75H31.25v-107.75ZM34,14.75v25.75h40.75V14.75h-40.75ZM50,83.25v18.5h126.75v-18.5H50ZM50,114.25v18.75h126.75v-18.75H50ZM50,145.5v19h126.75v-19H50ZM91,14.75v25.75h42V14.75h-42ZM133.5,190.75l14.5-10.25c9.66,2.84,19.29,5.92,28.88,9.25,9.58,3.34,18.66,6.59,27.25,9.75,8.58,3.16,15.96,6.16,22.12,9l-19.5,10.25c-5.5-2.67-12.17-5.62-20-8.88-7.84-3.25-16.29-6.54-25.38-9.88-9.09-3.33-18.38-6.41-27.88-9.25ZM149,14.75v25.75h43.25V14.75h-43.25Z" style="fill: #231f20; stroke-width: 0px;"/>
</svg>