<?xml version="1.0" encoding="UTF-8"?>
<svg id="Layer_1" data-name="Layer 1" xmlns="http://www.w3.org/2000/svg" viewBox="0 0 229 230">
  <path d="M0,92.25h224.25v16H0v-16ZM169,128.25h4l3.5-1,12.5,7.5c-8.17,14.34-18.75,26.88-31.75,37.62s-27.59,19.92-43.75,27.5c-16.17,7.59-33.21,13.83-51.12,18.75-17.92,4.91-35.96,8.71-54.12,11.38-.67-2.5-1.79-5.42-3.38-8.75-1.59-3.34-3.21-6-4.88-8,17.16-2,34.29-5.16,51.38-9.5,17.08-4.33,33.29-9.83,48.62-16.5,15.33-6.66,28.96-14.71,40.88-24.12,11.91-9.41,21.29-20.04,28.12-31.88v-3ZM81.25,103l20.5,4.25c-9.67,12.67-21.79,24.92-36.38,36.75-14.59,11.84-31.79,22.5-51.62,32-.84-1.5-2-3.12-3.5-4.88s-3.12-3.41-4.88-5c-1.75-1.58-3.38-2.79-4.88-3.62,12.83-5.33,24.41-11.33,34.75-18,10.33-6.66,19.33-13.58,27-20.75,7.66-7.16,14-14.08,19-20.75ZM12.75,19.75h200.5v16H12.75v-16ZM27.75,55.5h171.75v15.25H27.75v-15.25ZM66.5,138c9.16,14.34,21.66,26.62,37.5,36.88,15.83,10.25,34.33,18.42,55.5,24.5,21.16,6.09,44.33,10.29,69.5,12.62-1.34,1.5-2.71,3.29-4.12,5.38-1.42,2.08-2.75,4.16-4,6.25-1.25,2.08-2.29,4.04-3.12,5.88-25.67-3.17-49.21-8.21-70.62-15.12-21.42-6.91-40.34-16.16-56.75-27.75-16.42-11.58-29.79-25.62-40.12-42.12l16.25-6.5ZM67.5,128.25h105.5v15.75H53.75l13.75-15.75ZM102.5,0h18.5v102.5h-18.5V0Z" style="fill: #231f20; stroke-width: 0px;"/>
</svg>