<?xml version="1.0" encoding="UTF-8"?>
<svg id="Layer_1" data-name="Layer 1" xmlns="http://www.w3.org/2000/svg" viewBox="0 0 223.75 229.75">
  <path d="M0,140h223.75v18.75H0v-18.75ZM16.25,81.25h193v18.5H16.25v-18.5ZM23.5,13.5l17-6.75c4,5.84,7.96,12.09,11.88,18.75,3.91,6.67,7.5,13.21,10.75,19.62,3.25,6.42,5.62,12.12,7.12,17.12l-18,7.75c-1.5-5-3.75-10.75-6.75-17.25s-6.42-13.21-10.25-20.12c-3.84-6.91-7.75-13.29-11.75-19.12ZM101.25,0h19.5v229.75h-19.5V0ZM181.5,6l19.75,7c-3.34,6.34-6.96,13-10.88,20-3.92,7-7.84,13.67-11.75,20-3.92,6.34-7.71,12-11.38,17l-16.5-6.5c3.5-5,7.12-10.88,10.88-17.62s7.38-13.62,10.88-20.62,6.5-13.41,9-19.25Z" style="fill: #231f20; stroke-width: 0px;"/>
</svg>