<?xml version="1.0" encoding="UTF-8"?>
<svg id="Layer_1" data-name="Layer 1" xmlns="http://www.w3.org/2000/svg" viewBox="0 0 233.25 227.25">
  <path d="M97.75,71.75l15.25,7c-5.84,7-12.71,13.84-20.62,20.5-7.92,6.67-16.42,12.96-25.5,18.88-9.09,5.92-18.29,11.25-27.62,16-9.34,4.75-18.42,8.79-27.25,12.12-.84-1.5-1.96-3.16-3.38-5-1.42-1.83-2.88-3.66-4.38-5.5-1.5-1.83-2.92-3.25-4.25-4.25,8.66-2.83,17.62-6.38,26.88-10.62s18.29-9,27.12-14.25c8.83-5.25,17-10.83,24.5-16.75,7.5-5.91,13.91-11.96,19.25-18.12ZM6.5,66.75h220v16H6.5v-16ZM191.25,0l12.5,14c-11.5,2.34-24.46,4.5-38.88,6.5-14.42,2-29.54,3.71-45.38,5.12-15.84,1.42-31.84,2.59-48,3.5-16.17.92-31.84,1.62-47,2.12-.17-2-.67-4.41-1.5-7.25-.84-2.83-1.75-5.25-2.75-7.25,15-.5,30.46-1.29,46.38-2.38,15.91-1.08,31.54-2.33,46.88-3.75,15.33-1.41,29.66-3.04,43-4.88,13.33-1.83,24.91-3.75,34.75-5.75ZM38.5,130.5h159.25v95.75h-18.75v-80.75H56.5v81.75h-18v-96.75ZM42.75,35.5l16.25-6c4,5,7.91,10.62,11.75,16.88,3.83,6.25,6.5,11.71,8,16.38l-16.75,7c-1.67-4.66-4.29-10.25-7.88-16.75-3.59-6.5-7.38-12.33-11.38-17.5ZM46.75,167.25h142.5v13.25H46.75v-13.25ZM46.75,203.75h142.5v14.75H46.75v-14.75ZM106.25,18.75h18.5v107.25h-18.5V18.75ZM106.75,138.5h18v74.75h-18v-74.75ZM133.5,72.25c5.33,6,11.83,11.79,19.5,17.38,7.66,5.59,15.96,10.88,24.88,15.88,8.91,5,18.08,9.46,27.5,13.38,9.41,3.92,18.71,7.12,27.88,9.62-1.34,1.17-2.79,2.71-4.38,4.62-1.59,1.92-3.12,3.84-4.62,5.75-1.5,1.92-2.75,3.71-3.75,5.38-9-3-18.25-6.79-27.75-11.38-9.5-4.58-18.79-9.75-27.88-15.5-9.09-5.75-17.54-11.88-25.38-18.38-7.84-6.5-14.67-13.16-20.5-20l14.5-6.75ZM172.5,25l20.25,5.75c-4.17,6.84-8.5,13.79-13,20.88-4.5,7.09-8.67,13.04-12.5,17.88l-15.5-5.5c2.33-3.5,4.83-7.54,7.5-12.12,2.66-4.58,5.16-9.21,7.5-13.88,2.33-4.66,4.25-9,5.75-13Z" style="fill: #231f20; stroke-width: 0px;"/>
</svg>