<?xml version="1.0" encoding="UTF-8"?>
<svg id="Layer_1" data-name="Layer 1" xmlns="http://www.w3.org/2000/svg" viewBox="0 0 232 227.5">
  <path d="M158.75,69l20.25,6c-9.67,27.17-22.17,50.54-37.5,70.12-15.34,19.59-33.62,36.09-54.88,49.5s-45.62,24.38-73.12,32.88c-.84-1.5-2.04-3.34-3.62-5.5-1.59-2.17-3.25-4.38-5-6.62s-3.38-4.12-4.88-5.62c27.16-7.33,51.04-17.12,71.62-29.38,20.58-12.25,38.12-27.54,52.62-45.88,14.5-18.33,26-40.16,34.5-65.5ZM69.5,1l20.25,7c-6.17,10.34-13.25,20.5-21.25,30.5s-16.38,19.34-25.12,28c-8.75,8.67-17.46,16.34-26.12,23-1-1.5-2.5-3.21-4.5-5.12-2-1.91-4.09-3.79-6.25-5.62-2.17-1.83-4-3.33-5.5-4.5,8.5-6,17.04-12.88,25.62-20.62,8.58-7.75,16.58-16.16,24-25.25,7.41-9.08,13.71-18.21,18.88-27.38ZM74.25,71.25c8.33,23,19.71,43.75,34.12,62.25,14.41,18.5,31.91,34.12,52.5,46.88,20.58,12.75,44.29,22.29,71.12,28.62-1.5,1.33-3.12,3.12-4.88,5.38s-3.38,4.5-4.88,6.75-2.84,4.38-4,6.38c-27.5-7.17-51.67-17.67-72.5-31.5-20.84-13.83-38.67-30.79-53.5-50.88-14.84-20.08-27-42.88-36.5-68.38l18.5-5.5ZM142,11L158,0c8.66,7.17,17.62,15.09,26.88,23.75,9.25,8.67,17.91,17.29,26,25.88,8.08,8.59,14.62,16.29,19.62,23.12l-17.5,13c-4.5-6.83-10.71-14.62-18.62-23.38-7.92-8.75-16.42-17.62-25.5-26.62-9.09-9-18.04-17.25-26.88-24.75Z" style="fill: #231f20; stroke-width: 0px;"/>
</svg>