<?xml version="1.0" encoding="UTF-8"?>
<svg id="Layer_1" data-name="Layer 1" xmlns="http://www.w3.org/2000/svg" viewBox="0 0 238.5 226.75">
  <path d="M75.25.5l20,5.75c-6.17,14-13.38,27.42-21.62,40.25-8.25,12.84-17.25,24.59-27,35.25-9.75,10.67-19.88,20-30.38,28-1.17-1.33-2.75-2.91-4.75-4.75-2-1.83-4.04-3.66-6.12-5.5-2.09-1.83-3.88-3.33-5.38-4.5,10.66-7,20.75-15.41,30.25-25.25,9.5-9.83,18.08-20.62,25.75-32.38,7.66-11.75,14.08-24.04,19.25-36.88ZM93.75,95.25h20.25c-1.34,13.67-3.5,27-6.5,40s-7.59,25.25-13.75,36.75c-6.17,11.5-14.71,21.92-25.62,31.25-10.92,9.33-25.12,17.16-42.62,23.5-.84-1.67-1.92-3.54-3.25-5.62-1.34-2.09-2.79-4.09-4.38-6-1.59-1.92-3.12-3.54-4.62-4.88,16.33-5.33,29.54-12.12,39.62-20.38,10.08-8.25,17.88-17.46,23.38-27.62,5.5-10.16,9.5-20.91,12-32.25,2.5-11.33,4.33-22.91,5.5-34.75ZM41,90h143.25v18.25H41v-18.25ZM177.75,90h19.5v5.62c0,1.42-.09,2.54-.25,3.38-1,19.5-1.96,36.04-2.88,49.62-.92,13.59-2,24.88-3.25,33.88s-2.62,16.09-4.12,21.25-3.42,8.91-5.75,11.25c-2.5,3.16-5.25,5.38-8.25,6.62s-6.67,2.04-11,2.38c-4.17.33-9.88.46-17.12.38-7.25-.09-14.79-.38-22.62-.88-.17-2.84-.79-6-1.88-9.5-1.09-3.5-2.54-6.59-4.38-9.25,8.16.67,15.75,1.12,22.75,1.38s12,.38,15,.38c2.5,0,4.58-.25,6.25-.75,1.66-.5,3.08-1.33,4.25-2.5,2.5-2.33,4.54-7.38,6.12-15.12,1.58-7.75,3-19.25,4.25-34.5s2.38-35.21,3.38-59.88v-3.75ZM162.5,0c4,8.34,8.91,16.88,14.75,25.62,5.83,8.75,12.16,17.17,19,25.25,6.83,8.09,13.88,15.59,21.12,22.5,7.25,6.92,14.29,12.79,21.12,17.62-1.67,1.34-3.54,2.96-5.62,4.88-2.09,1.92-4,3.88-5.75,5.88s-3.21,3.92-4.38,5.75c-7-5.66-14.09-12.29-21.25-19.88-7.17-7.58-14.21-15.79-21.12-24.62-6.92-8.83-13.42-18-19.5-27.5-6.09-9.5-11.54-18.91-16.38-28.25l18-7.25Z" style="fill: #231f20; stroke-width: 0px;"/>
</svg>