<?xml version="1.0" encoding="UTF-8"?>
<svg id="Layer_1" data-name="Layer 1" xmlns="http://www.w3.org/2000/svg" viewBox="0 0 206.75 219.5">
  <path d="M0,0h18.5v219.5H0V0ZM9.5,33.75h70.25v13.25H9.5v-13.25ZM11.25,0h80v82H11.25v-14.25h62.25V14.25H11.25V0ZM36.75,185.25c8.5-.5,18.25-1.04,29.25-1.62,11-.58,22.75-1.25,35.25-2s25-1.54,37.5-2.38v14.25c-18.34,1.17-36.42,2.34-54.25,3.5-17.84,1.17-33.42,2.25-46.75,3.25l-1-15ZM39.75,96h125.25v14H39.75v-14ZM58.25,102.5h16.75v86.75h-16.75v-86.75ZM69.75,125h66v12h-66v-12ZM69.75,152.5h66v12h-66v-12ZM197.25,0v14.25h-66v53.75h66v14.25h-83.75V0h83.75ZM124.75,33.75h71v13.25h-71v-13.25ZM129.25,102.25h17.25v111h-17.25v-111ZM188.25,0h18.5v195c0,5.5-.71,9.88-2.12,13.12-1.42,3.25-3.88,5.71-7.38,7.38-3.84,1.5-8.88,2.46-15.12,2.88-6.25.41-14.04.54-23.38.38-.17-1.67-.54-3.62-1.12-5.88-.59-2.25-1.25-4.54-2-6.88-.75-2.34-1.62-4.34-2.62-6,6.83.16,13.08.25,18.75.25h11.5c1.83-.17,3.12-.62,3.88-1.38s1.12-2.04,1.12-3.88V0Z" style="fill: #231f20; stroke-width: 0px;"/>
</svg>