<?xml version="1.0" encoding="UTF-8"?>
<svg id="Layer_1" data-name="Layer 1" xmlns="http://www.w3.org/2000/svg" viewBox="0 0 233.25 229.9">
  <path d="M0,83.25l10.5-13.75c5.16,2,10.46,4.42,15.88,7.25,5.41,2.84,10.5,5.84,15.25,9,4.75,3.17,8.62,6.09,11.62,8.75l-11,15.25c-2.84-2.83-6.62-5.88-11.38-9.12s-9.79-6.41-15.12-9.5c-5.34-3.08-10.59-5.71-15.75-7.88ZM6,216.25c3.66-6.5,7.79-14.25,12.38-23.25,4.58-9,9.16-18.54,13.75-28.62,4.58-10.08,8.88-19.88,12.88-29.38l14.75,10.5c-3.5,8.84-7.38,18.09-11.62,27.75-4.25,9.67-8.54,19.12-12.88,28.38-4.34,9.25-8.59,17.71-12.75,25.38l-16.5-10.75ZM12.25,16.25L23,2.75c5,2.34,10.16,5.09,15.5,8.25,5.33,3.17,10.33,6.38,15,9.62,4.66,3.25,8.5,6.38,11.5,9.38l-11.25,15c-2.84-3.16-6.59-6.46-11.25-9.88-4.67-3.41-9.62-6.79-14.88-10.12-5.25-3.33-10.38-6.25-15.38-8.75ZM101,0l18.5,4.25c-5,16.17-11.38,31.67-19.12,46.5-7.75,14.84-16.04,27.34-24.88,37.5-1.17-1.16-2.75-2.41-4.75-3.75-2-1.33-4.04-2.66-6.12-4-2.09-1.33-3.88-2.41-5.38-3.25,9.16-9.16,17.33-20.62,24.5-34.38,7.16-13.75,12.91-28.04,17.25-42.88ZM61.5,122.75h171.75v17.25H61.5v-17.25ZM93.5,71.25h17.5c-1.17,10.67-2.54,22.09-4.12,34.25-1.59,12.17-3.21,24.38-4.88,36.62-1.67,12.25-3.38,23.88-5.12,34.88s-3.38,20.75-4.88,29.25l-18-1.75c1.66-8.33,3.41-18,5.25-29,1.83-11,3.66-22.54,5.5-34.62,1.83-12.08,3.5-24.12,5-36.12s2.75-23.16,3.75-33.5ZM87.5,178.25h144v16.5H87.5v-16.5ZM95.25,31.5h133.25v17H95.25v-17ZM101.5,71.25h100v16.25h-100v-16.25ZM143.25,78h16.5c-.67,8.67-1.46,17.88-2.38,27.62-.92,9.75-1.88,19.54-2.88,29.38-1,9.84-2.04,19.17-3.12,28-1.09,8.84-2.12,16.67-3.12,23.5h-16.25c1-7,2.04-14.96,3.12-23.88,1.08-8.91,2.16-18.29,3.25-28.12,1.08-9.83,2.04-19.58,2.88-29.25.83-9.66,1.5-18.75,2-27.25ZM196,71.25h17.5c-.17,2.34-.25,4.17-.25,5.5v3.25c-1,24.34-2,44.88-3,61.62s-2.12,30.5-3.38,41.25-2.71,19.09-4.38,25c-1.67,5.91-3.5,10.21-5.5,12.88-2.5,3-5.12,5.12-7.88,6.38s-5.96,2.04-9.62,2.38c-3.67.33-8.34.46-14,.38-5.67-.09-11.67-.29-18-.62-.17-2.5-.62-5.25-1.38-8.25s-1.88-5.59-3.38-7.75c6.5.66,12.38,1.04,17.62,1.12,5.25.08,9.12.12,11.62.12,2.33,0,4.21-.21,5.62-.62,1.41-.42,2.71-1.46,3.88-3.12,1.66-1.83,3.21-5.58,4.62-11.25,1.41-5.66,2.71-13.75,3.88-24.25,1.16-10.5,2.25-23.96,3.25-40.38,1-16.41,1.91-36.38,2.75-59.88v-3.75Z" style="fill: #231f20; stroke-width: 0px;"/>
</svg>