<?xml version="1.0" encoding="UTF-8"?>
<svg id="Layer_1" data-name="Layer 1" xmlns="http://www.w3.org/2000/svg" viewBox="0 0 233.25 229.75">
  <path d="M96.75,105.25l16.25,6.5c-5.67,10.67-12.29,21.17-19.88,31.5-7.59,10.34-15.75,20.17-24.5,29.5-8.75,9.34-17.75,17.84-27,25.5-9.25,7.67-18.46,14.33-27.62,20-1.17-1.5-2.54-3.25-4.12-5.25-1.59-2-3.25-3.91-5-5.75-1.75-1.83-3.38-3.41-4.88-4.75,9.16-4.83,18.33-10.79,27.5-17.88,9.16-7.08,18.04-14.96,26.62-23.62,8.58-8.66,16.54-17.71,23.88-27.12,7.33-9.41,13.58-18.96,18.75-28.62ZM5.75,96h220.75v18.75H5.75v-18.75ZM20.25,21.5l17-7.25c5,5.84,9.83,12.25,14.5,19.25,4.66,7,8.88,13.92,12.62,20.75,3.75,6.84,6.62,12.92,8.62,18.25l-18.5,8.25c-1.67-5.33-4.29-11.41-7.88-18.25-3.59-6.83-7.67-13.83-12.25-21-4.59-7.16-9.29-13.83-14.12-20ZM106,0h19.75v229.75h-19.75V0ZM134.25,104.25c5.33,9.34,11.75,18.67,19.25,28,7.5,9.34,15.66,18.25,24.5,26.75,8.83,8.5,17.96,16.25,27.38,23.25,9.41,7,18.71,12.92,27.88,17.75-1.67,1.17-3.38,2.71-5.12,4.62-1.75,1.92-3.46,3.88-5.12,5.88-1.67,2-3,3.83-4,5.5-9.34-5.5-18.71-12.12-28.12-19.88-9.42-7.75-18.54-16.25-27.38-25.5-8.84-9.25-17.12-18.91-24.88-29-7.75-10.08-14.54-20.29-20.38-30.62l16-6.75ZM194.5,12l20.25,8.25c-4,7-8.34,14.34-13,22-4.67,7.67-9.42,15-14.25,22-4.84,7-9.34,13.09-13.5,18.25l-16-7.5c4.16-5.5,8.5-11.91,13-19.25,4.5-7.33,8.83-14.83,13-22.5,4.16-7.66,7.66-14.75,10.5-21.25Z" style="fill: #231f20; stroke-width: 0px;"/>
</svg>