<?xml version="1.0" encoding="UTF-8"?>
<svg id="Layer_1" data-name="Layer 1" xmlns="http://www.w3.org/2000/svg" viewBox="0 0 222.5 232">
  <path d="M0,79h222.5v17.75H0v-17.75ZM51.25,104.75l19.25,6c-4.34,7-9.42,14.04-15.25,21.12-5.84,7.09-11.88,13.67-18.12,19.75-6.25,6.09-12.38,11.54-18.38,16.38-1.17-1.16-2.79-2.5-4.88-4-2.09-1.5-4.17-3-6.25-4.5-2.09-1.5-3.96-2.66-5.62-3.5,9.33-6.5,18.41-14.25,27.25-23.25,8.83-9,16.16-18.33,22-28ZM162.75,140l19,6c-5.34,13.34-12.42,24.88-21.25,34.62-8.84,9.75-19.54,18-32.12,24.75-12.59,6.75-27.04,12.25-43.38,16.5-16.34,4.25-34.67,7.62-55,10.12-.84-3-2.12-6.17-3.88-9.5-1.75-3.34-3.54-6.17-5.38-8.5,25.66-2.34,47.91-6.29,66.75-11.88,18.83-5.58,34.5-13.41,47-23.5,12.5-10.08,21.91-22.96,28.25-38.62ZM37,19.75h18.75v66h-18.75V19.75ZM101.75,95h19v59.5c0,5-.71,8.84-2.12,11.5-1.42,2.67-4.12,4.75-8.12,6.25-3.84,1.34-8.92,2.12-15.25,2.38-6.34.25-14.34.38-24,.38-.34-2.66-1.12-5.58-2.38-8.75-1.25-3.16-2.46-6-3.62-8.5,4.83.17,9.41.29,13.75.38,4.33.09,8.12.12,11.38.12h6.62c1.83-.16,3.08-.5,3.75-1,.66-.5,1-1.5,1-3v-59.25ZM101.75,0h19.25v88.5h-19.25V0ZM112.75,29.25h85.75v17.25h-85.75v-17.25ZM156.5,114l15-9.5c6.33,5,12.75,10.59,19.25,16.75,6.5,6.17,12.54,12.34,18.12,18.5,5.58,6.17,9.96,11.92,13.12,17.25l-16.25,10.75c-3-5.16-7.17-10.91-12.5-17.25-5.34-6.33-11.21-12.71-17.62-19.12-6.42-6.41-12.79-12.21-19.12-17.38Z" style="fill: #231f20; stroke-width: 0px;"/>
</svg>