<?xml version="1.0" encoding="UTF-8"?>
<svg id="Layer_1" data-name="Layer 1" xmlns="http://www.w3.org/2000/svg" viewBox="0 0 231.25 217.81">
  <path d="M0,78.25h231.25v17.75H0v-17.75ZM47.25,0h19.5c-1.67,12.34-3.42,25.38-5.25,39.12-1.84,13.75-3.79,27.75-5.88,42-2.09,14.25-4.17,28.17-6.25,41.75-2.09,13.59-4.12,26.42-6.12,38.5-2,12.09-3.92,22.96-5.75,32.62l-19.75-1.75c2-9.66,4.12-20.54,6.38-32.62,2.25-12.08,4.46-24.96,6.62-38.62,2.16-13.66,4.25-27.46,6.25-41.38,2-13.91,3.88-27.66,5.62-41.25,1.75-13.58,3.29-26.38,4.62-38.38ZM34.75,158.5h190v17.5H34.75v-17.5ZM56.75,0h133v17.25H56.75V0ZM79.5,116.5l11.75-11.25c6.5,3.17,13.12,6.84,19.88,11,6.75,4.17,13.12,8.42,19.12,12.75,6,4.34,10.83,8.5,14.5,12.5l-12.5,12.5c-3.5-3.83-8.17-8.04-14-12.62-5.84-4.58-12.12-9.04-18.88-13.38-6.75-4.33-13.38-8.16-19.88-11.5ZM88.75,38.25l11.25-11.25c5.83,2.67,11.88,5.79,18.12,9.38,6.25,3.59,12.12,7.29,17.62,11.12,5.5,3.84,10,7.42,13.5,10.75l-11.5,12.75c-3.34-3.33-7.71-6.96-13.12-10.88-5.42-3.91-11.25-7.79-17.5-11.62-6.25-3.83-12.38-7.25-18.38-10.25ZM183.75,0h19c-.17,2.84-.25,5.09-.25,6.75s-.09,2.92-.25,3.75c-1.34,34.17-2.67,62.96-4,86.38-1.34,23.42-2.88,42.54-4.62,57.38-1.75,14.84-3.67,26.29-5.75,34.38-2.09,8.09-4.54,13.88-7.38,17.38-2.84,4-5.84,6.75-9,8.25-3.17,1.5-6.92,2.5-11.25,3-4.17.5-9.54.66-16.12.5-6.59-.17-13.29-.34-20.12-.5-.17-2.67-.71-5.62-1.62-8.88-.92-3.25-2.04-6.04-3.38-8.38,7.33.66,14,1.08,20,1.25,6,.16,10.5.25,13.5.25,2.33,0,4.38-.34,6.12-1,1.75-.67,3.29-1.92,4.62-3.75,2.33-2.66,4.5-8,6.5-16s3.83-19.46,5.5-34.38c1.66-14.91,3.21-33.96,4.62-57.12,1.41-23.16,2.71-51.33,3.88-84.5V0Z" style="fill: #231f20; stroke-width: 0px;"/>
</svg>