<?xml version="1.0" encoding="UTF-8"?>
<svg id="Layer_1" data-name="Layer 1" xmlns="http://www.w3.org/2000/svg" viewBox="0 0 226.5 231.75">
  <path d="M80,54h21c-.67,13.34-1.75,26.79-3.25,40.38-1.5,13.59-3.88,27-7.12,40.25s-8,25.88-14.25,37.88-14.46,23-24.62,33c-10.17,10-22.84,18.75-38,26.25-1.5-2.5-3.54-5.21-6.12-8.12-2.59-2.92-5.12-5.29-7.62-7.12,14.66-6.66,26.75-14.62,36.25-23.88s17.08-19.41,22.75-30.5c5.66-11.08,9.91-22.71,12.75-34.88,2.83-12.16,4.79-24.46,5.88-36.88,1.08-12.41,1.88-24.54,2.38-36.38ZM2.75,44h223.75v18H2.75v-18ZM84.5,103h99.75v18h-99.75v-18ZM104,0h19.25v51.75h-19.25V0ZM177.5,103h19.5c-.17,2.34-.29,4.21-.38,5.62-.09,1.42-.21,2.62-.38,3.62-1.67,23.84-3.42,43.21-5.25,58.12-1.84,14.92-3.92,26.38-6.25,34.38-2.34,8-5.17,13.66-8.5,17-2.84,3-5.92,5.08-9.25,6.25-3.34,1.16-7.42,1.91-12.25,2.25-4.34.33-10.34.41-18,.25-7.67-.17-15.67-.5-24-1-.17-2.67-.88-5.71-2.12-9.12-1.25-3.42-2.79-6.46-4.62-9.12,9,.66,17.5,1.12,25.5,1.38s13.58.38,16.75.38c2.83,0,5.21-.17,7.12-.5,1.91-.34,3.54-1.17,4.88-2.5,2.66-2.33,5-7.29,7-14.88,2-7.58,3.83-18.58,5.5-33,1.66-14.41,3.25-33.04,4.75-55.88v-3.25Z" style="fill: #231f20; stroke-width: 0px;"/>
</svg>