<?xml version="1.0" encoding="UTF-8"?>
<svg id="Layer_1" data-name="Layer 1" xmlns="http://www.w3.org/2000/svg" viewBox="0 0 235 223.25">
  <path d="M0,175c6.83-2.33,14.62-5.12,23.38-8.38s18.08-6.79,28-10.62c9.91-3.83,19.79-7.66,29.62-11.5l3.5,16.75c-13,5.67-26.21,11.34-39.62,17-13.42,5.67-25.54,10.75-36.38,15.25L0,175ZM7.5,59h73.75v18.75H7.5v-18.75ZM72,0h19.25v223.25h-19.25V0ZM132.75.25h19.5v185.5c0,6.67.79,10.96,2.38,12.88,1.58,1.92,5.12,2.88,10.62,2.88h36.75c4,0,6.96-1.5,8.88-4.5,1.91-3,3.33-8.29,4.25-15.88.91-7.58,1.62-18.29,2.12-32.12,1.66,1.34,3.54,2.59,5.62,3.75,2.08,1.17,4.21,2.21,6.38,3.12,2.16.92,4.08,1.62,5.75,2.12-.67,15.17-1.92,27.29-3.75,36.38-1.84,9.09-4.88,15.58-9.12,19.5-4.25,3.91-10.46,5.88-18.62,5.88h-40.25c-7.84,0-13.96-1-18.38-3-4.42-2-7.54-5.5-9.38-10.5-1.84-5-2.75-11.91-2.75-20.75V.25ZM214.25,38.5l14,16.5c-7.67,5.84-16.17,11.79-25.5,17.88-9.34,6.09-18.96,12-28.88,17.75-9.92,5.75-19.62,11.21-29.12,16.38-.67-2.16-1.79-4.66-3.38-7.5-1.59-2.83-3.04-5.16-4.38-7,9.33-5.16,18.71-10.83,28.12-17,9.41-6.16,18.41-12.41,27-18.75,8.58-6.33,15.96-12.41,22.12-18.25Z" style="fill: #231f20; stroke-width: 0px;"/>
</svg>