<?xml version="1.0" encoding="UTF-8"?>
<svg id="Layer_1" data-name="Layer 1" xmlns="http://www.w3.org/2000/svg" viewBox="0 0 229 230.42">
  <path d="M0,120.75h229v17H0v-17ZM59.5,0l20,3.25c-4.17,9.17-9.04,18.59-14.62,28.25-5.59,9.67-12.04,19.12-19.38,28.38-7.34,9.25-15.59,18.04-24.75,26.38-1.17-1.5-2.67-2.96-4.5-4.38-1.84-1.41-3.71-2.79-5.62-4.12-1.92-1.33-3.71-2.33-5.38-3,8.83-7.33,16.75-15.29,23.75-23.88,7-8.58,13.04-17.29,18.12-26.12,5.08-8.83,9.21-17.08,12.38-24.75ZM48.75,65h18.75c-1.5,11.67-3.25,24.12-5.25,37.38s-4.09,26.54-6.25,39.88c-2.17,13.34-4.25,25.96-6.25,37.88-2,11.92-3.92,22.46-5.75,31.62l-19-1.25c2-9.33,4.08-19.96,6.25-31.88,2.16-11.91,4.33-24.46,6.5-37.62,2.16-13.16,4.21-26.29,6.12-39.38,1.91-13.08,3.54-25.29,4.88-36.62ZM37.5,179.5h184.75v16.75H37.5v-16.75ZM50,25.25h166.75v17H50v-17ZM56.5,65h127.75v16.75H56.5v-16.75ZM112,73.25h17.75c-1,9.17-2.04,19.04-3.12,29.62-1.09,10.59-2.29,21.12-3.62,31.62-1.34,10.5-2.62,20.5-3.88,30s-2.46,17.75-3.62,24.75h-17.5c1.33-7.16,2.66-15.54,4-25.12,1.33-9.58,2.62-19.66,3.88-30.25,1.25-10.58,2.41-21.08,3.5-31.5,1.08-10.41,1.96-20.12,2.62-29.12ZM178.5,65h18.5c0,2.34-.04,4.21-.12,5.62-.09,1.42-.12,2.62-.12,3.62-1.34,25.34-2.67,46.75-4,64.25-1.34,17.5-2.79,31.84-4.38,43-1.59,11.17-3.34,19.84-5.25,26-1.92,6.16-4.04,10.66-6.38,13.5-2.67,3.16-5.46,5.38-8.38,6.62-2.92,1.25-6.46,2.12-10.62,2.62-3.84.16-8.92.21-15.25.12-6.34-.09-13-.38-20-.88-.17-2.17-.59-4.62-1.25-7.38-.67-2.75-1.75-5.21-3.25-7.38,7.16.66,13.62,1.08,19.38,1.25,5.75.16,10.04.25,12.88.25,2.33,0,4.25-.25,5.75-.75s2.91-1.5,4.25-3c2-2.17,3.88-6.29,5.62-12.38,1.75-6.08,3.38-14.71,4.88-25.88,1.5-11.16,2.91-25.38,4.25-42.62,1.33-17.25,2.5-38.12,3.5-62.62v-4Z" style="fill: #231f20; stroke-width: 0px;"/>
</svg>