<?xml version="1.0" encoding="UTF-8"?>
<svg id="Layer_1" data-name="Layer 1" xmlns="http://www.w3.org/2000/svg" viewBox="0 0 232.5 230.25">
  <path d="M0,51.5h76.75v17.5H0v-17.5ZM70,51.5h3.25l3.25-.5,11,1.75c-1.84,32.5-5.79,60.25-11.88,83.25-6.09,23-14.29,42.17-24.62,57.5-10.34,15.34-22.92,27.58-37.75,36.75-1.34-2.34-3.09-5-5.25-8-2.17-3-4.25-5.42-6.25-7.25,13.33-7.33,24.75-18.08,34.25-32.25,9.5-14.16,17.16-31.83,23-53,5.83-21.16,9.5-46,11-74.5v-3.75ZM34.25,0l18,2c-2.34,12.34-4.88,25.54-7.62,39.62-2.75,14.09-5.67,28.25-8.75,42.5-3.09,14.25-6.12,27.88-9.12,40.88s-5.84,24.75-8.5,35.25l-15.5-8.75c2.5-9.33,5.21-20.25,8.12-32.75,2.91-12.5,5.79-25.62,8.62-39.38,2.83-13.75,5.5-27.46,8-41.12,2.5-13.66,4.75-26.41,6.75-38.25ZM10.75,142l11.25-13.25c8.16,5.67,16.54,12,25.12,19,8.58,7,16.58,14,24,21,7.41,7,13.38,13.42,17.88,19.25l-12.25,15.25c-4.17-6-9.92-12.62-17.25-19.88-7.34-7.25-15.25-14.5-23.75-21.75s-16.84-13.79-25-19.62ZM142.25,109.5l15,4.5c-4.34,13.34-9.75,26.25-16.25,38.75s-13.71,23.88-21.62,34.12c-7.92,10.25-16.29,18.88-25.12,25.88-1-1.5-2.25-3.16-3.75-5-1.5-1.83-3.04-3.62-4.62-5.38-1.59-1.75-3.12-3.21-4.62-4.38,8.5-5.83,16.62-13.41,24.38-22.75,7.75-9.33,14.83-19.66,21.25-31,6.41-11.33,11.54-22.91,15.38-34.75ZM89.25,99.25h137.75v17.75H89.25v-17.75ZM98.5,40h119.5v17.75h-119.5v-17.75ZM148.5.25h18.25v229.75h-18.25V.25ZM173,110c4.16,11,9.46,21.92,15.88,32.75,6.41,10.84,13.38,20.88,20.88,30.12s15.08,16.79,22.75,22.62c-2.17,1.67-4.54,3.92-7.12,6.75-2.59,2.84-4.71,5.42-6.38,7.75-7.67-6.83-15.25-15.38-22.75-25.62s-14.46-21.46-20.88-33.62c-6.42-12.16-11.79-24.25-16.12-36.25l13.75-4.5Z" style="fill: #231f20; stroke-width: 0px;"/>
</svg>