<?xml version="1.0" encoding="UTF-8"?>
<svg id="Layer_1" data-name="Layer 1" xmlns="http://www.w3.org/2000/svg" viewBox="0 0 226.25 211.75">
  <path d="M74.75,15h19.5c-.34,14.17-1.04,28.71-2.12,43.62-1.09,14.92-3.04,29.71-5.88,44.38-2.84,14.67-7.09,28.71-12.75,42.12-5.67,13.42-13.38,25.79-23.12,37.12s-21.96,21.16-36.62,29.5c-1.5-2.5-3.59-5.09-6.25-7.75s-5.17-4.92-7.5-6.75c14.16-7.5,25.79-16.54,34.88-27.12,9.08-10.58,16.25-22.12,21.5-34.62s9.12-25.54,11.62-39.12c2.5-13.58,4.16-27.29,5-41.12.83-13.83,1.41-27.25,1.75-40.25ZM7,0h219.25v18.5H7V0ZM85.25,69.5h105.25v18.25h-105.25v-18.25ZM184,69.5h19.25c0,2.34-.04,4.25-.12,5.75-.09,1.5-.12,2.67-.12,3.5-1,20.34-2.12,37.59-3.38,51.75-1.25,14.17-2.54,25.96-3.88,35.38-1.34,9.42-2.92,16.88-4.75,22.38-1.84,5.5-4,9.5-6.5,12-2.84,3.16-5.92,5.38-9.25,6.62-3.34,1.25-7.42,2.04-12.25,2.38-4.67.5-11.04.66-19.12.5-8.09-.17-16.46-.5-25.12-1-.17-2.84-.84-5.96-2-9.38-1.17-3.42-2.67-6.46-4.5-9.12,9.33.84,18.08,1.33,26.25,1.5,8.16.16,13.91.25,17.25.25,3,.16,5.41.04,7.25-.38,1.83-.41,3.41-1.29,4.75-2.62,2.83-2.5,5.21-7.91,7.12-16.25,1.91-8.33,3.58-20.58,5-36.75,1.41-16.16,2.79-37.16,4.12-63v-3.5Z" style="fill: #231f20; stroke-width: 0px;"/>
</svg>