<?xml version="1.0" encoding="UTF-8"?>
<svg id="Layer_1" data-name="Layer 1" xmlns="http://www.w3.org/2000/svg" viewBox="0 0 212 221">
  <path d="M0,4.5h17.75v172.75H0V4.5ZM10.5,4.5h71.5v149.25H10.5v-17.5h54V21.75H10.5V4.5ZM10.5,69.5h61.75v17H10.5v-17ZM105.25,0h18.25v89.25c0,10.5-.59,21.62-1.75,33.38-1.17,11.75-3.46,23.5-6.88,35.25-3.42,11.75-8.54,23.04-15.38,33.88-6.84,10.83-15.92,20.58-27.25,29.25-.84-1.34-2.09-2.84-3.75-4.5s-3.42-3.29-5.25-4.88c-1.84-1.59-3.42-2.79-4.75-3.62,10.66-8,19.08-16.88,25.25-26.62,6.16-9.75,10.83-19.88,14-30.38,3.16-10.5,5.21-21,6.12-31.5.91-10.5,1.38-20.66,1.38-30.5V0ZM114.5,122h85.5v17h-85.5v-17ZM116.25,0h84.25v17.5h-84.25V0ZM116.25,60.75h84.25v17h-84.25v-17ZM193.5,0h18.5v194.5c0,5.83-.79,10.38-2.38,13.62-1.59,3.25-4.38,5.62-8.38,7.12-4.17,1.5-9.75,2.46-16.75,2.88-7,.41-15.92.62-26.75.62-.17-1.67-.62-3.62-1.38-5.88s-1.59-4.5-2.5-6.75c-.92-2.25-1.88-4.21-2.88-5.88,5.5.16,10.71.29,15.62.38,4.91.08,9.25.08,13,0,3.75-.09,6.29-.12,7.62-.12,2.33,0,3.96-.46,4.88-1.38.91-.91,1.38-2.46,1.38-4.62V0Z" style="fill: #231f20; stroke-width: 0px;"/>
</svg>