<?xml version="1.0" encoding="UTF-8"?>
<svg id="Layer_1" data-name="Layer 1" xmlns="http://www.w3.org/2000/svg" viewBox="0 0 222 230.15">
  <path d="M0,25.5h16.75v158H0V25.5ZM10,25.5h57.5v134.75H10v-17.5h40.25V43H10v-17.5ZM74.75,169l15,4.25c-1.84,10-4.62,19.62-8.38,28.88s-9.21,16.79-16.38,22.62l-14-8.5c6.66-5.34,11.91-12.25,15.75-20.75,3.83-8.5,6.5-17.33,8-26.5ZM86,22.25h17.5v125.5h-17.5V22.25ZM86,141.5h117.5v15.5h-117.5v-15.5ZM97.25,53h93v12.75h-93v-12.75ZM97.5,111.25h124.5v15h-124.5v-15ZM98,22.25h102.25v74.75h-102.25v-14h84.5v-46.75h-84.5v-14ZM100.25,174.25l14.25-3c2.33,6.67,4.21,13.96,5.62,21.88,1.41,7.92,2.04,14.62,1.88,20.12l-15,3c0-5.67-.59-12.38-1.75-20.12-1.17-7.75-2.84-15.04-5-21.88ZM133,0l21.25,3.25c-2.67,5.5-5.34,10.79-8,15.88-2.67,5.09-5.17,9.46-7.5,13.12l-16-3.75c2-4.16,3.96-8.91,5.88-14.25,1.91-5.33,3.38-10.08,4.38-14.25ZM128.75,172l12.75-4c3.16,5.5,6.12,11.46,8.88,17.88,2.75,6.42,4.71,11.96,5.88,16.62l-13.75,4.5c-1-4.83-2.79-10.54-5.38-17.12-2.59-6.58-5.38-12.54-8.38-17.88ZM198.75,141.5h17.25c-.17,3.84-.34,6.42-.5,7.75-.84,16.17-1.75,29.29-2.75,39.38-1,10.09-2.17,17.84-3.5,23.25-1.34,5.41-3.09,9.21-5.25,11.38-1.84,2.33-3.92,3.91-6.25,4.75-2.34.83-5.17,1.41-8.5,1.75-2.84.33-6.84.46-12,.38-5.17-.09-10.75-.29-16.75-.62-.17-2.34-.67-4.96-1.5-7.88-.84-2.92-1.84-5.38-3-7.38,5.5.5,10.62.79,15.38.88,4.75.08,8.12.12,10.12.12,1.83,0,3.38-.12,4.62-.38s2.29-.96,3.12-2.12c1.5-1.5,2.79-4.66,3.88-9.5,1.08-4.83,2.08-12,3-21.5.91-9.5,1.79-22,2.62-37.5v-2.75ZM156.75,168.5l12-5.25c3.83,4.34,7.54,9.09,11.12,14.25,3.58,5.17,6.21,9.75,7.88,13.75l-12.75,5.75c-1.67-4-4.21-8.66-7.62-14-3.42-5.33-6.96-10.16-10.62-14.5Z" style="fill: #231f20; stroke-width: 0px;"/>
</svg>