<?xml version="1.0" encoding="UTF-8"?>
<svg id="Layer_1" data-name="Layer 1" xmlns="http://www.w3.org/2000/svg" viewBox="0 0 238.75 231.25">
  <path d="M16.5,143l16,2.75c-1.67,11.84-4,23.46-7,34.88-3,11.42-6.5,21.12-10.5,29.12-1.17-.83-2.62-1.66-4.38-2.5-1.75-.83-3.59-1.71-5.5-2.62-1.92-.91-3.62-1.62-5.12-2.12,4.33-7.66,7.79-16.79,10.38-27.38,2.58-10.58,4.62-21.29,6.12-32.12ZM2.25,112c11-.33,23.91-.83,38.75-1.5,14.83-.66,30.16-1.33,46-2l-.25,15.25c-14.84,1-29.5,1.96-44,2.88-14.5.92-27.42,1.79-38.75,2.62l-1.75-17.25ZM3.25,52.75l9.5-12.5c4.66,3.84,9.38,8.12,14.12,12.88s9.12,9.42,13.12,14c4,4.59,7.08,8.71,9.25,12.38l-10.25,14.25c-2.17-3.83-5.21-8.21-9.12-13.12-3.92-4.91-8.21-9.79-12.88-14.62-4.67-4.83-9.25-9.25-13.75-13.25ZM42.5,0l16.5,6.75c-3.17,5.84-6.5,12.09-10,18.75-3.5,6.67-7.04,13.09-10.62,19.25-3.59,6.17-7.04,11.5-10.38,16l-12.75-5.75c3.16-4.83,6.41-10.46,9.75-16.88,3.33-6.41,6.58-13,9.75-19.75,3.16-6.75,5.75-12.88,7.75-18.38ZM70.75,28.5l15.75,7.25c-5.67,9.5-11.96,19.59-18.88,30.25-6.92,10.67-13.88,20.92-20.88,30.75-7,9.84-13.67,18.5-20,26l-11.5-6.5c4.66-5.66,9.54-12.12,14.62-19.38,5.08-7.25,10.08-14.83,15-22.75,4.91-7.91,9.58-15.83,14-23.75,4.41-7.91,8.38-15.21,11.88-21.88ZM43.25,119h16.75v111.5h-16.75v-111.5ZM61.75,86.75l13.25-5.5c3.5,5.34,6.83,11.12,10,17.38,3.16,6.25,5.96,12.34,8.38,18.25,2.41,5.92,4.21,11.21,5.38,15.88l-14.25,6.25c-1-4.66-2.71-10-5.12-16-2.42-6-5.12-12.21-8.12-18.62-3-6.41-6.17-12.29-9.5-17.62ZM68.25,145.5l13.75-4.25c3.33,7,6.54,14.79,9.62,23.38,3.08,8.59,5.21,15.96,6.38,22.12l-14.25,5c-1.17-6.33-3.21-13.79-6.12-22.38-2.92-8.58-6.04-16.54-9.38-23.88ZM160.5,19.5c-4.5,7.5-10.25,15.5-17.25,24s-14.67,16.84-23,25c-8.34,8.17-16.92,15.5-25.75,22-1.34-2.33-3.04-5.04-5.12-8.12-2.09-3.08-4.04-5.62-5.88-7.62,9-6,17.83-13.21,26.5-21.62,8.66-8.41,16.54-17.16,23.62-26.25,7.08-9.08,12.79-17.62,17.12-25.62h17.75c6,8.5,12.88,17.12,20.62,25.88s15.91,16.96,24.5,24.62c8.58,7.67,16.96,14.25,25.12,19.75-1.84,2-3.79,4.59-5.88,7.75-2.09,3.17-3.96,6.17-5.62,9-8-6-16.17-12.91-24.5-20.75-8.34-7.83-16.17-15.91-23.5-24.25-7.34-8.33-13.59-16.25-18.75-23.75ZM89,205.5c10.16-.5,21.96-1.21,35.38-2.12,13.41-.91,27.66-1.91,42.75-3,15.08-1.08,30.12-2.21,45.12-3.38l.25,16c-14.34,1.33-28.75,2.58-43.25,3.75-14.5,1.16-28.34,2.25-41.5,3.25-13.17,1-25.17,2-36,3l-2.75-17.5ZM100.5,123h130.5v16.75H100.5v-16.75ZM139.5,132.5l20,4.5c-2.84,8.17-5.88,16.79-9.12,25.88-3.25,9.09-6.54,17.79-9.88,26.12-3.34,8.34-6.59,15.75-9.75,22.25l-16.75-4.5c3.16-6.66,6.33-14.33,9.5-23,3.16-8.66,6.16-17.5,9-26.5,2.83-9,5.16-17.25,7-24.75ZM116.75,78.25h91.75v16.75h-91.75v-16.75ZM178.5,165.75l14.5-7.5c5.66,6.5,11.25,13.62,16.75,21.38s10.54,15.34,15.12,22.75c4.58,7.42,8.21,14.12,10.88,20.12l-15.75,8.75c-2.67-6-6.25-12.84-10.75-20.5s-9.42-15.41-14.75-23.25c-5.34-7.83-10.67-15.08-16-21.75Z" style="fill: #231f20; stroke-width: 0px;"/>
</svg>