<?xml version="1.0" encoding="UTF-8"?>
<svg id="Layer_1" data-name="Layer 1" xmlns="http://www.w3.org/2000/svg" viewBox="0 0 225.5 224.25">
  <path d="M0,148.5l216.5-28,2.75,17.5L2.5,166.5l-2.5-18ZM175.25,0l16.25,15c-11.84,4.5-24.96,8.71-39.38,12.62-14.42,3.92-29.67,7.54-45.75,10.88-16.09,3.34-32.42,6.29-49,8.88-16.59,2.59-32.79,4.96-48.62,7.12-.34-1.66-.79-3.46-1.38-5.38-.59-1.91-1.25-3.91-2-6-.75-2.08-1.54-3.79-2.38-5.12,15.5-2,31.33-4.33,47.5-7,16.16-2.66,31.96-5.62,47.38-8.88,15.41-3.25,29.75-6.71,43-10.38,13.25-3.66,24.71-7.58,34.38-11.75ZM7.75,91.25l192-26.5,2.75,17.5L10.25,109.25l-2.5-18ZM85,35.75h19.25v153.75c0,4.5.5,7.92,1.5,10.25,1,2.34,3,3.92,6,4.75,3,.84,7.41,1.25,13.25,1.25h62.25c5.16,0,9.04-.91,11.62-2.75,2.58-1.83,4.41-5.33,5.5-10.5,1.08-5.16,1.96-12.58,2.62-22.25,2.33,1.67,5.29,3.25,8.88,4.75,3.58,1.5,6.79,2.59,9.62,3.25-1.17,11.5-2.88,20.62-5.12,27.38s-5.88,11.54-10.88,14.38c-5,2.83-12.17,4.25-21.5,4.25h-63.75c-10.17,0-18.12-1-23.88-3s-9.75-5.54-12-10.62-3.38-12.21-3.38-21.38V35.75Z" style="fill: #231f20; stroke-width: 0px;"/>
</svg>