<?xml version="1.0" encoding="UTF-8"?>
<svg id="Layer_1" data-name="Layer 1" xmlns="http://www.w3.org/2000/svg" viewBox="0 0 205.5 218.25">
  <path d="M0,0h18.5v218.25H0V0ZM8.75,37.75h69.5v14.25H8.75v-14.25ZM10.25,0h79.25v91.75H10.25v-15.75h61.5V15.75H10.25V0ZM196.5,0v15.75h-65.75v60.5h65.75v15.75h-83.5V0h83.5ZM123.75,37.75h70.75v14.25h-70.75v-14.25ZM186.5,0h19v192.5c0,6.33-.88,11.16-2.62,14.5-1.75,3.33-4.71,5.83-8.88,7.5-4.34,1.5-10.29,2.46-17.88,2.88-7.59.41-17.04.62-28.38.62-.34-1.84-.88-3.92-1.62-6.25-.75-2.34-1.59-4.71-2.5-7.12-.92-2.42-1.88-4.46-2.88-6.12,5.83.16,11.41.29,16.75.38,5.33.08,10.04.08,14.12,0,4.08-.09,6.88-.12,8.38-.12,2.5,0,4.21-.46,5.12-1.38.91-.91,1.38-2.54,1.38-4.88V0Z" style="fill: #231f20; stroke-width: 0px;"/>
</svg>