<?xml version="1.0" encoding="UTF-8"?>
<svg id="Layer_1" data-name="Layer 1" xmlns="http://www.w3.org/2000/svg" viewBox="0 0 237.25 230.75">
  <path d="M65.75,45.75l18.25,5.5c-5.5,13-11.96,25.62-19.38,37.88-7.42,12.25-15.42,23.71-24,34.38-8.59,10.67-17.38,20-26.38,28-.84-1.33-2.12-2.88-3.88-4.62s-3.54-3.5-5.38-5.25c-1.84-1.75-3.5-3.21-5-4.38,9-7.16,17.58-15.62,25.75-25.38,8.16-9.75,15.66-20.25,22.5-31.5,6.83-11.25,12.66-22.79,17.5-34.62ZM9.25,28h220.25v18H9.25v-18ZM42.25,100l18-18,.5.5v147.5h-18.5V100ZM204,74.25h3.5l3.5-.75,12,5.75c-5.5,20.67-12.92,39.09-22.25,55.25-9.34,16.17-20.17,30.42-32.5,42.75s-25.79,22.88-40.38,31.62c-14.59,8.75-29.88,15.96-45.88,21.62-.67-1.67-1.71-3.5-3.12-5.5-1.42-2-2.92-3.92-4.5-5.75-1.59-1.84-3.04-3.34-4.38-4.5,21-6.66,40.46-16,58.38-28,17.91-12,33.41-26.96,46.5-44.88,13.08-17.91,22.79-39.12,29.12-63.62v-4ZM134.5,45.75l19,5.25c-4.84,11.84-10.84,23.75-18,35.75-7.17,12-15.17,23.42-24,34.25-8.84,10.84-18.25,20.42-28.25,28.75-1-1.33-2.25-2.79-3.75-4.38-1.5-1.58-3.09-3.16-4.75-4.75-1.67-1.58-3.17-2.88-4.5-3.88,9.5-7.5,18.41-16.33,26.75-26.5,8.33-10.16,15.71-20.79,22.12-31.88,6.41-11.08,11.54-21.96,15.38-32.62ZM116.75,108.5c7.16,16.5,16.66,31.75,28.5,45.75,11.83,14,25.5,26.12,41,36.38s32.5,18.12,51,23.62c-1.5,1.33-3.04,2.96-4.62,4.88-1.59,1.91-3.09,3.91-4.5,6-1.42,2.08-2.62,3.96-3.62,5.62-18.67-6.5-35.84-15.38-51.5-26.62-15.67-11.25-29.54-24.58-41.62-40-12.09-15.41-22.04-32.29-29.88-50.62l15.25-5ZM108.75,0h19.5v37.25h-19.5V0ZM130.25,74.25h79.75v15.75h-87.5l7.75-15.75ZM134,108.25l11.5-9.25c5.5,4.17,11.04,8.92,16.62,14.25,5.58,5.34,9.96,10,13.12,14l-12.5,10.75c-2.84-4.33-7-9.25-12.5-14.75s-10.92-10.5-16.25-15Z" style="fill: #231f20; stroke-width: 0px;"/>
</svg>