<?xml version="1.0" encoding="UTF-8"?>
<svg id="Layer_1" data-name="Layer 1" xmlns="http://www.w3.org/2000/svg" viewBox="0 0 233 217.75">
  <path d="M0,190c10.16-1.16,21.88-2.62,35.12-4.38s27.41-3.62,42.5-5.62c15.08-2,30.21-4,45.38-6l.25,16.5c-14.34,2.17-28.79,4.34-43.38,6.5-14.59,2.16-28.46,4.25-41.62,6.25-13.17,2-25.09,3.75-35.75,5.25l-2.5-18.5ZM8.25,129.5h108.5v17H8.25v-17ZM8.5.5h108.25v100.75H8.5V.5ZM24.25,16v27.25h76.25v-27.25H24.25ZM24.25,58v27.75h76.25v-27.75H24.25ZM54.5,6.5h16v87.75h1v92.5h-18v-92.5h1V6.5ZM122,81.25h97.75v18h-97.75v-18ZM125,1h91v17h-91V1ZM162.25,90.25h18.75v105c0,5.16-.71,9.25-2.12,12.25-1.42,3-4.04,5.33-7.88,7-3.84,1.5-9,2.41-15.5,2.75-6.5.33-14.5.5-24,.5-.34-2.67-1.09-5.79-2.25-9.38-1.17-3.59-2.42-6.71-3.75-9.38,7.5.33,14.16.54,20,.62,5.83.08,9.75.04,11.75-.12,2-.17,3.33-.59,4-1.25.66-.66,1-1.83,1-3.5v-104.5ZM134.75,44.75l12-11.5c7.33,3.67,14.83,8,22.5,13,7.66,5,14.83,10.09,21.5,15.25,6.66,5.17,12.16,9.92,16.5,14.25l-12.25,13.25c-4.17-4.66-9.59-9.66-16.25-15-6.67-5.33-13.79-10.58-21.38-15.75-7.59-5.16-15.12-9.66-22.62-13.5ZM208.25,1h4.5l3.75-1,12.5,8.25c-4.34,6.5-9.38,13.17-15.12,20-5.75,6.84-11.79,13.25-18.12,19.25-6.34,6-12.67,11.34-19,16-1.17-1.83-2.84-3.79-5-5.88-2.17-2.08-4-3.71-5.5-4.88,5.33-4.16,10.62-9.04,15.88-14.62,5.25-5.58,10.21-11.33,14.88-17.25,4.66-5.91,8.41-11.38,11.25-16.38V1ZM214.25,81.25h2.75l3.25-.75,12.75,3.5c-3.17,10.34-6.59,20.96-10.25,31.88-3.67,10.92-7.34,20.12-11,27.62l-15.5-4.25c2.16-4.66,4.33-10.08,6.5-16.25,2.16-6.16,4.25-12.58,6.25-19.25,2-6.66,3.75-13.08,5.25-19.25v-3.25Z" style="fill: #231f20; stroke-width: 0px;"/>
</svg>