<?xml version="1.0" encoding="UTF-8"?>
<svg id="Layer_1" data-name="Layer 1" xmlns="http://www.w3.org/2000/svg" viewBox="0 0 231 230.25">
  <path d="M75.5,0h19.25c-.17,4.17-.5,10.17-1,18-.5,7.84-1.34,17.04-2.5,27.62-1.17,10.59-2.88,22-5.12,34.25s-5.21,24.84-8.88,37.75c-3.67,12.92-8.29,25.67-13.88,38.25-5.59,12.59-12.21,24.54-19.88,35.88-7.67,11.34-16.67,21.41-27,30.25-1.84-2.34-4.25-4.62-7.25-6.88s-6.09-4.21-9.25-5.88c10.33-8.16,19.29-17.62,26.88-28.38,7.58-10.75,14.08-22.16,19.5-34.25,5.41-12.08,9.83-24.29,13.25-36.62,3.41-12.33,6.21-24.38,8.38-36.12,2.16-11.75,3.75-22.58,4.75-32.5,1-9.91,1.66-18.46,2-25.62.33-7.16.58-12.41.75-15.75ZM8.5,42h216.25v18H8.5v-18ZM178,93.25h3.75l3.5-.75,12.75,5.75c-5.17,18.84-12.38,35.46-21.62,49.88-9.25,14.42-20,26.92-32.25,37.5-12.25,10.59-25.62,19.54-40.12,26.88s-29.75,13.25-45.75,17.75c-1.17-2.34-2.79-5.12-4.88-8.38-2.09-3.25-4.04-5.79-5.88-7.62,14.83-3.67,29.12-8.79,42.88-15.38,13.75-6.58,26.41-14.71,38-24.38,11.58-9.66,21.62-20.91,30.12-33.75,8.5-12.83,15-27.41,19.5-43.75v-3.75ZM85.75,102c11.16,29.67,28.83,53.92,53,72.75,24.16,18.84,54.91,31.67,92.25,38.5-1.34,1.33-2.79,2.96-4.38,4.88-1.59,1.91-3.04,3.96-4.38,6.12-1.34,2.16-2.5,4.08-3.5,5.75-25.17-5.34-47.42-13.42-66.75-24.25-19.34-10.83-35.79-24.5-49.38-41-13.59-16.5-24.62-35.75-33.12-57.75l16.25-5ZM75.75,93.25h104.5v18.25h-109.75l5.25-18.25Z" style="fill: #231f20; stroke-width: 0px;"/>
</svg>