<?xml version="1.0" encoding="UTF-8"?>
<svg id="Layer_1" data-name="Layer 1" xmlns="http://www.w3.org/2000/svg" viewBox="0 0 213.75 213.75">
  <path d="M30.25,0h18.5v90.75c0,9.5-.42,19.67-1.25,30.5-.84,10.84-2.38,21.79-4.62,32.88-2.25,11.09-5.67,21.71-10.25,31.88-4.59,10.16-10.62,19.41-18.12,27.75-.84-1.34-2.17-2.79-4-4.38-1.84-1.59-3.67-3.12-5.5-4.62-1.84-1.5-3.5-2.59-5-3.25,7-7.84,12.5-16.33,16.5-25.5,4-9.16,7-18.62,9-28.38s3.29-19.46,3.88-29.12c.58-9.66.88-18.91.88-27.75V0ZM39.5,118h163.25v17.75H39.5v-17.75ZM41,0h161.75v18H41V0ZM41,58.25h161.25v17.75H41v-17.75ZM108.75,6.75h19v203.5h-19V6.75ZM195.25,0h18.5v187c0,6-.88,10.58-2.62,13.75-1.75,3.16-4.71,5.58-8.88,7.25-4.17,1.5-10,2.41-17.5,2.75-7.5.33-17.17.41-29,.25-.5-2.34-1.38-5.29-2.62-8.88-1.25-3.59-2.54-6.62-3.88-9.12,5.83.16,11.46.29,16.88.38,5.41.08,10.12.08,14.12,0,4-.09,6.75-.12,8.25-.12,2.5-.17,4.25-.67,5.25-1.5s1.5-2.41,1.5-4.75V0Z" style="fill: #231f20; stroke-width: 0px;"/>
</svg>