<?xml version="1.0" encoding="UTF-8"?>
<svg id="Layer_1" data-name="Layer 1" xmlns="http://www.w3.org/2000/svg" viewBox="0 0 220.75 219.5">
  <path d="M0,6.5h16.75v186.75H0V6.5ZM8.75,6.5h55.75v166H8.75v-16.75h38.75V23.25H8.75V6.5ZM9.75,79.5h46.75v16.75H9.75v-16.75ZM103,73.5l17.5,5.25c-3.67,8-8.12,16.12-13.38,24.38s-10.96,16.17-17.12,23.75c-6.17,7.59-12.67,14.21-19.5,19.88-.67-1.16-1.71-2.54-3.12-4.12-1.42-1.58-2.84-3.12-4.25-4.62-1.42-1.5-2.71-2.75-3.88-3.75,6.16-5.16,12.08-11.16,17.75-18,5.66-6.83,10.75-13.96,15.25-21.38,4.5-7.41,8.08-14.54,10.75-21.38ZM75,0h63v76.75h-63.25v-13.5h46.75V13.75h-46.5V0ZM79.25,31.5h51.5v13h-51.5v-13ZM104.5,96.75h110v14.75h-110v108h-17.25v-107.75l14.5-15h2.75ZM97.5,130.5h111v13.5h-111v-13.5ZM97.5,163.25h111v13.25h-111v-13.25ZM98,197h122.75v14.75h-122.75v-14.75ZM155.5,74.75l18.5,4.25c-2.84,5.5-5.71,10.96-8.62,16.38-2.92,5.42-5.71,10.12-8.38,14.12l-14-4.5c2.16-4.33,4.46-9.38,6.88-15.12,2.41-5.75,4.29-10.79,5.62-15.12ZM143.5,108h16.5v94.5h-16.5v-94.5ZM148.25,0h64.5v76.75h-64.75v-13.5h48V13.75h-47.75V0ZM152,31.5h52.75v13h-52.75v-13Z" style="fill: #231f20; stroke-width: 0px;"/>
</svg>