<?xml version="1.0" encoding="UTF-8"?>
<svg id="Layer_1" data-name="Layer 1" xmlns="http://www.w3.org/2000/svg" viewBox="0 0 233.5 229.75">
  <path d="M101.5,117.75l15.25,6.5c-6,9.67-12.92,19.12-20.75,28.38-7.84,9.25-16.34,18.04-25.5,26.38-9.17,8.34-18.59,15.92-28.25,22.75-9.67,6.84-19.25,12.58-28.75,17.25-1-1.67-2.29-3.42-3.88-5.25-1.59-1.84-3.21-3.67-4.88-5.5-1.67-1.83-3.25-3.41-4.75-4.75,9.5-4,19.08-9.12,28.75-15.38,9.66-6.25,19.04-13.16,28.12-20.75,9.08-7.58,17.46-15.58,25.12-24,7.66-8.41,14.16-16.96,19.5-25.62ZM5.75,111h222v18H5.75v-18ZM17.5,30.25h199.75v17.75H17.5v-17.75ZM37.75,60l16.75-6c3.33,4.84,6.58,10.09,9.75,15.75,3.16,5.67,6,11.21,8.5,16.62,2.5,5.42,4.33,10.29,5.5,14.62l-17.75,7c-1.17-4.16-2.92-9.04-5.25-14.62-2.34-5.58-5-11.29-8-17.12-3-5.83-6.17-11.25-9.5-16.25ZM106.5,0h19.75v229.75h-19.75V0ZM131.5,118c5.5,8.5,12.08,17,19.75,25.5,7.66,8.5,16.04,16.59,25.12,24.25,9.08,7.67,18.5,14.59,28.25,20.75,9.75,6.17,19.38,11.42,28.88,15.75-1.34,1.17-2.88,2.67-4.62,4.5s-3.42,3.71-5,5.62c-1.59,1.91-2.88,3.71-3.88,5.38-9.5-4.67-19.12-10.46-28.88-17.38-9.75-6.91-19.21-14.54-28.38-22.88-9.17-8.33-17.71-17.21-25.62-26.62-7.92-9.41-14.79-18.96-20.62-28.62l15-6.25ZM180.5,52.75l19.5,6c-2.84,5.84-5.92,11.79-9.25,17.88-3.34,6.09-6.67,11.88-10,17.38-3.34,5.5-6.5,10.34-9.5,14.5l-16-5.5c3-4.5,6.08-9.71,9.25-15.62,3.16-5.91,6.16-11.91,9-18,2.83-6.08,5.16-11.62,7-16.62Z" style="fill: #231f20; stroke-width: 0px;"/>
</svg>