<?xml version="1.0" encoding="UTF-8"?>
<svg id="Layer_1" data-name="Layer 1" xmlns="http://www.w3.org/2000/svg" viewBox="0 0 233 210.25">
  <path d="M0,173.5c6.83-2,14.54-4.29,23.12-6.88,8.58-2.58,17.66-5.5,27.25-8.75,9.58-3.25,19.21-6.46,28.88-9.62l3.25,18.25c-13.5,4.5-27.09,9.04-40.75,13.62-13.67,4.59-26,8.71-37,12.38l-4.75-19ZM2.75,5.25h78v17.75H2.75V5.25ZM5.25,77.75h71.75v17.5H5.25v-17.5ZM33.75,12.25h18v155l-18,3.5V12.25ZM70.75,193h162.25v17.25H70.75v-17.25ZM90,141.5h134.5v17H90v-17ZM93,0h128v112H93V0ZM110.25,16.5v31.75h92.75v-31.75h-92.75ZM110.25,63.5v32.25h92.75v-32.25h-92.75ZM148.5,7.75h16.25v96.25h1.5v96.75h-19.25v-96.75h1.5V7.75Z" style="fill: #231f20; stroke-width: 0px;"/>
</svg>