<?xml version="1.0" encoding="UTF-8"?>
<svg id="Layer_1" data-name="Layer 1" xmlns="http://www.w3.org/2000/svg" viewBox="0 0 239.75 229.75">
  <path d="M60.5,0l18.5,4c-4.34,16.17-9.67,31.71-16,46.62-6.34,14.92-13.42,28.62-21.25,41.12-7.84,12.5-16.42,23.42-25.75,32.75-1.17-1.16-2.71-2.5-4.62-4-1.92-1.5-3.88-3-5.88-4.5s-3.84-2.66-5.5-3.5c9.33-8.66,17.83-18.83,25.5-30.5,7.66-11.66,14.41-24.5,20.25-38.5,5.83-14,10.75-28.5,14.75-43.5ZM111.5,38.5h3.5l3.5-.75,12.25,4.25c-5,32.5-12.75,60.88-23.25,85.12s-23.09,44.75-37.75,61.5c-14.67,16.75-31,30.21-49,40.38-1-1.5-2.42-3.17-4.25-5s-3.67-3.59-5.5-5.25c-1.84-1.67-3.5-2.92-5-3.75,17.83-9.5,33.88-22,48.12-37.5s26.29-34.38,36.12-56.62c9.83-22.25,16.91-48.21,21.25-77.88v-4.5ZM25.75,101.25l10-13.5c7,3.84,14.25,8.21,21.75,13.12,7.5,4.92,14.58,9.88,21.25,14.88,6.66,5,12,9.67,16,14l-10.5,15.5c-4-4.33-9.25-9.12-15.75-14.38s-13.46-10.46-20.88-15.62c-7.42-5.16-14.71-9.83-21.88-14ZM53,38.5h64v17.75H53v-17.75ZM136.5,59.5c5.33,9.84,11.79,19.5,19.38,29,7.58,9.5,15.96,18.54,25.12,27.12,9.16,8.59,18.75,16.29,28.75,23.12,10,6.84,20,12.5,30,17-1.34,1.17-2.88,2.71-4.62,4.62-1.75,1.92-3.38,3.84-4.88,5.75-1.5,1.92-2.75,3.79-3.75,5.62-10.34-5.33-20.5-11.79-30.5-19.38-10-7.58-19.62-16.04-28.88-25.38-9.25-9.33-17.79-19.21-25.62-29.62-7.84-10.41-14.75-21.04-20.75-31.88l15.75-6ZM162.25.5h19.25v229.25h-19.25V.5Z" style="fill: #231f20; stroke-width: 0px;"/>
</svg>