<?xml version="1.0" encoding="UTF-8"?>
<svg id="Layer_1" data-name="Layer 1" xmlns="http://www.w3.org/2000/svg" viewBox="0 0 231.75 226">
  <path d="M0,38.25h93.25v15.5H0v-15.5ZM11.5,141.5h16.5v84.25H11.5v-84.25ZM12,73h73.25v15H12v-15ZM12,107.25h73.25v14.75H12v-14.75ZM13.5,4.75h71.25v15H13.5V4.75ZM21.25,141.5h64.75v72.75H21.25v-15.25h48v-42H21.25v-15.5ZM95,69h136.75v17.75H95v-17.75ZM209,0l13.75,15.5c-10.17,3-21.84,5.67-35,8-13.17,2.34-26.75,4.38-40.75,6.12s-27.5,3.12-40.5,4.12c-.34-2.16-1.04-4.79-2.12-7.88-1.09-3.08-2.21-5.71-3.38-7.88,9.5-1,19.25-2.08,29.25-3.25,10-1.16,19.83-2.54,29.5-4.12,9.66-1.58,18.71-3.25,27.12-5,8.41-1.75,15.79-3.62,22.12-5.62ZM109.75,129h110.25v95.75h-18.75v-78.75h-73.75v80h-17.75v-97ZM121.25,196.25h89.5v17.25h-89.5v-17.25ZM153.75,19h19v118.75h-19V19Z" style="fill: #231f20; stroke-width: 0px;"/>
</svg>