<?xml version="1.0" encoding="UTF-8"?>
<svg id="Layer_1" data-name="Layer 1" xmlns="http://www.w3.org/2000/svg" viewBox="0 0 209.5 232">
  <path d="M39.5,58h18.5v62.75c0,8.84-.54,18.17-1.62,28-1.09,9.84-3.21,19.71-6.38,29.62-3.17,9.92-7.71,19.46-13.62,28.62-5.92,9.16-13.62,17.5-23.12,25-1-1.34-2.29-2.88-3.88-4.62-1.59-1.75-3.21-3.46-4.88-5.12s-3.17-2.92-4.5-3.75c9-6.84,16.12-14.29,21.38-22.38,5.25-8.08,9.16-16.41,11.75-25,2.58-8.58,4.29-17.21,5.12-25.88.83-8.66,1.25-16.91,1.25-24.75v-62.5ZM76,0l20.25,3.75c-5.34,9.84-11.75,19.92-19.25,30.25-7.5,10.34-16,20.46-25.5,30.38-9.5,9.92-20.17,19.21-32,27.88-1.17-1.5-2.54-3.12-4.12-4.88-1.59-1.75-3.21-3.38-4.88-4.88-1.67-1.5-3.25-2.66-4.75-3.5,11.33-7.66,21.5-16,30.5-25s16.83-18.16,23.5-27.5c6.66-9.33,12.08-18.16,16.25-26.5ZM45.5,159h153.25v16.5H45.5v-16.5ZM50,58h151v16.75H50v-16.75ZM50,108h148v16.25H50v-16.25ZM73.75,15.5h78.75v15.75h-78.75v-15.75ZM113.25,65h18v102.5h-18v-102.5ZM146,15.5h4.25l3-1,12.75,8.25c-2.84,5.67-6.21,11.46-10.12,17.38-3.92,5.92-7.96,11.59-12.12,17-4.17,5.42-8.25,10.21-12.25,14.38-1.67-1.5-3.79-3.08-6.38-4.75-2.59-1.66-4.88-3-6.88-4,3.33-3.83,6.79-8.33,10.38-13.5,3.58-5.16,6.91-10.41,10-15.75,3.08-5.33,5.54-10.16,7.38-14.5v-3.5ZM191,58h18.5v149c0,6-.92,10.62-2.75,13.88-1.84,3.25-5.09,5.62-9.75,7.12-4.84,1.33-11.42,2.21-19.75,2.62-8.34.41-18.84.62-31.5.62-.34-1.67-.88-3.62-1.62-5.88s-1.62-4.46-2.62-6.62c-1-2.17-2-4.09-3-5.75,6.83.16,13.33.29,19.5.38,6.16.08,11.58.08,16.25,0,4.66-.09,7.91-.12,9.75-.12,2.83-.17,4.71-.71,5.62-1.62.91-.91,1.38-2.54,1.38-4.88V58Z" style="fill: #231f20; stroke-width: 0px;"/>
</svg>