<?xml version="1.0" encoding="UTF-8"?>
<svg id="Layer_1" data-name="Layer 1" xmlns="http://www.w3.org/2000/svg" viewBox="0 0 228.75 228.75">
  <path d="M0,84.25l10.25-13.75c5,2.34,10.41,5.09,16.25,8.25,5.83,3.17,11.46,6.25,16.88,9.25,5.41,3,9.88,5.67,13.38,8l-10.5,15.5c-3.34-2.33-7.67-5.08-13-8.25-5.34-3.16-10.92-6.46-16.75-9.88-5.84-3.41-11.34-6.46-16.5-9.12ZM5.75,213c4.5-6.33,9.54-13.96,15.12-22.88,5.58-8.91,11.21-18.41,16.88-28.5,5.66-10.08,10.91-19.79,15.75-29.12l13.75,12.25c-4.34,8.84-9.12,18-14.38,27.5s-10.54,18.84-15.88,28c-5.34,9.16-10.42,17.66-15.25,25.5l-16-12.75ZM12.25,15.5L22.75,2.25c5.16,2.34,10.71,5.09,16.62,8.25,5.91,3.17,11.62,6.29,17.12,9.38,5.5,3.09,10,5.79,13.5,8.12l-11,15.5c-3.5-2.66-7.96-5.62-13.38-8.88-5.42-3.25-11.04-6.58-16.88-10-5.84-3.41-11.34-6.46-16.5-9.12ZM69.5,72.25h159.25v18H69.5v-18ZM203,0l15,14.5c-11.5,4-24.62,7.5-39.38,10.5s-30.04,5.59-45.88,7.75c-15.84,2.17-31.17,4-46,5.5-.5-2.16-1.29-4.83-2.38-8-1.09-3.16-2.12-5.83-3.12-8,10.66-1.16,21.75-2.5,33.25-4s22.66-3.21,33.5-5.12c10.83-1.91,20.96-3.96,30.38-6.12,9.41-2.16,17.62-4.5,24.62-7ZM87.5,131.75h124.75v95.75h-18v-78.5h-89.25v79.75h-17.5v-97ZM99.5,201h103v17h-103v-17ZM141.75,21.5h17.75v120.25h-17.75V21.5Z" style="fill: #231f20; stroke-width: 0px;"/>
</svg>