<?xml version="1.0" encoding="UTF-8"?>
<svg id="Layer_1" data-name="Layer 1" xmlns="http://www.w3.org/2000/svg" viewBox="0 0 218.5 215.5">
  <path d="M0,155.5c7.5-3.66,16.21-8.04,26.12-13.12,9.91-5.08,20.41-10.66,31.5-16.75,11.08-6.08,22.12-12.12,33.12-18.12l4.75,15.5c-10,5.84-20.21,11.71-30.62,17.62-10.42,5.92-20.46,11.59-30.12,17-9.67,5.42-18.67,10.29-27,14.62l-7.75-16.75ZM7.5,0h91v18H7.5V0ZM11,51.25l15-8.75c4.5,4.67,9.12,9.71,13.88,15.12,4.75,5.42,9.25,10.71,13.5,15.88,4.25,5.17,7.62,9.75,10.12,13.75l-15.25,10.25c-2.67-4-6.09-8.71-10.25-14.12-4.17-5.41-8.62-10.96-13.38-16.62-4.75-5.66-9.29-10.83-13.62-15.5ZM86,0h18.5v190c0,6.34-.84,11.12-2.5,14.38-1.67,3.25-4.59,5.71-8.75,7.38-4.17,1.5-10,2.41-17.5,2.75-7.5.33-16.42.5-26.75.5-.34-1.67-.88-3.67-1.62-6-.75-2.34-1.59-4.71-2.5-7.12-.92-2.42-1.88-4.46-2.88-6.12,5.66.17,11.08.29,16.25.38,5.16.09,9.66.09,13.5,0,3.83-.08,6.58-.12,8.25-.12,2.33,0,3.91-.46,4.75-1.38.83-.91,1.25-2.46,1.25-4.62V0ZM113.25,150.75c7.5-3.83,16.29-8.38,26.38-13.62,10.08-5.25,20.83-11,32.25-17.25,11.41-6.25,22.62-12.46,33.62-18.62l5,15.5c-10,6-20.21,12.04-30.62,18.12-10.42,6.09-20.5,11.92-30.25,17.5-9.75,5.59-18.71,10.62-26.88,15.12l-9.5-16.75ZM119.25,0h89.5v18h-89.5V0ZM122,49.5l14.75-9c4.66,4.67,9.46,9.71,14.38,15.12,4.91,5.42,9.5,10.67,13.75,15.75,4.25,5.09,7.71,9.54,10.38,13.38l-15.25,11.25c-2.67-4.16-6.12-8.91-10.38-14.25-4.25-5.33-8.84-10.83-13.75-16.5-4.92-5.66-9.54-10.91-13.88-15.75ZM199.5,0h19v189.75c0,6.34-.88,11.21-2.62,14.62-1.75,3.41-4.79,5.96-9.12,7.62-4.67,1.5-10.96,2.46-18.88,2.88-7.92.41-17.54.62-28.88.62-.34-1.84-.88-3.96-1.62-6.38-.75-2.42-1.59-4.84-2.5-7.25-.92-2.42-1.79-4.46-2.62-6.12,5.83.17,11.54.29,17.12.38,5.58.09,10.5.09,14.75,0,4.25-.08,7.21-.12,8.88-.12,2.5,0,4.21-.5,5.12-1.5.91-1,1.38-2.66,1.38-5V0Z" style="fill: #231f20; stroke-width: 0px;"/>
</svg>