<?xml version="1.0" encoding="UTF-8"?>
<svg id="Layer_1" data-name="Layer 1" xmlns="http://www.w3.org/2000/svg" viewBox="0 0 206.5 219.5">
  <path d="M0,0h18.75v219.5H0V0ZM9.25,35.5h69.5v13.75H9.25v-13.75ZM10.75,0h80v85.75H10.75v-14.25h62.5V14.5H10.75V0ZM55.5,104.75h17v104h-17v-104ZM63.5,104.75h85.25v91.25H63.5v-14.75h67.75v-61.75H63.5v-14.75ZM64.5,142.5h75.75v14.5h-75.75v-14.5ZM197,0v14.5h-65.75v57.25h65.75v14.5h-83.5V0h83.5ZM124.5,35.5h71v13.75h-71v-13.75ZM187.5,0h19v194.5c0,5.83-.79,10.41-2.38,13.75-1.59,3.33-4.46,5.83-8.62,7.5-4,1.66-9.46,2.66-16.38,3-6.92.33-15.54.5-25.88.5-.34-1.84-.84-3.92-1.5-6.25-.67-2.34-1.46-4.67-2.38-7-.92-2.34-1.79-4.34-2.62-6,5,.16,9.88.25,14.62.25h20.38c2.16-.17,3.66-.67,4.5-1.5.83-.83,1.25-2.33,1.25-4.5V0Z" style="fill: #231f20; stroke-width: 0px;"/>
</svg>