<?xml version="1.0" encoding="UTF-8"?>
<svg id="Layer_1" data-name="Layer 1" xmlns="http://www.w3.org/2000/svg" viewBox="0 0 238 229.75">
  <path d="M86.25,0h19.75c0,17.5-.34,35.21-1,53.12-.67,17.92-2.42,35.42-5.25,52.5-2.84,17.09-7.5,33.34-14,48.75-6.5,15.42-15.5,29.54-27,42.38s-26.42,23.83-44.75,33c-1.5-2.34-3.59-4.92-6.25-7.75-2.67-2.84-5.25-5.17-7.75-7,17.5-8.33,31.75-18.46,42.75-30.38,11-11.91,19.5-25.12,25.5-39.62s10.25-29.75,12.75-45.75,4-32.41,4.5-49.25c.5-16.83.75-33.5.75-50ZM13.75,53h158.5v18.5H13.75v-18.5ZM23.75,111l13-13c8.5,4.84,17.46,10.12,26.88,15.88,9.41,5.75,18.71,11.75,27.88,18,9.16,6.25,17.58,12.42,25.25,18.5,7.66,6.09,14.16,11.79,19.5,17.12l-14.25,15.25c-5-5.5-11.25-11.33-18.75-17.5-7.5-6.16-15.75-12.5-24.75-19s-18.17-12.75-27.5-18.75c-9.34-6-18.42-11.5-27.25-16.5ZM161.75,53h19.25v143c0,4.67.5,7.67,1.5,9,1,1.34,3.16,2,6.5,2h22c2.5,0,4.38-1.21,5.62-3.62,1.25-2.41,2.12-6.88,2.62-13.38s.83-16,1-28.5c1.66,1.17,3.54,2.34,5.62,3.5,2.08,1.17,4.21,2.21,6.38,3.12,2.16.92,4.08,1.62,5.75,2.12-.5,14-1.5,25-3,33s-3.96,13.71-7.38,17.12c-3.42,3.41-8.38,5.12-14.88,5.12h-26.5c-6.17,0-11.04-.88-14.62-2.62-3.59-1.75-6.12-4.75-7.62-9s-2.25-10.29-2.25-18.12V53Z" style="fill: #231f20; stroke-width: 0px;"/>
</svg>