<?xml version="1.0" encoding="UTF-8"?>
<svg id="Layer_1" data-name="Layer 1" xmlns="http://www.w3.org/2000/svg" viewBox="0 0 230.25 230.75">
  <path d="M82.25,93l19.25,5.5c-5.84,13-13.21,25.67-22.12,38-8.92,12.34-19.09,23.75-30.5,34.25-11.42,10.5-23.79,19.5-37.12,27-.84-1.5-1.96-3.16-3.38-5-1.42-1.83-2.84-3.66-4.25-5.5-1.42-1.83-2.79-3.33-4.12-4.5,12.5-6.83,24.12-15.04,34.88-24.62,10.75-9.58,20.21-20.04,28.38-31.38,8.16-11.33,14.5-22.58,19-33.75ZM7.25,91h223v17.75H7.25v-17.75ZM24.75,11.5h18.75v35.75h150.75V11.5h19.5v53H24.75V11.5ZM56,142.5h157v87.5h-19.25v-70.5h-119v71.25h-18.75v-88.25ZM66.25,202.75h136.25v17H66.25v-17ZM108.75,0h19.25v56.75h-19.25V0Z" style="fill: #231f20; stroke-width: 0px;"/>
</svg>