<?xml version="1.0" encoding="UTF-8"?>
<svg id="Layer_1" data-name="Layer 1" xmlns="http://www.w3.org/2000/svg" viewBox="0 0 238.5 228.75">
  <path d="M13.75,77h17v54c0,6.67-.25,13.92-.75,21.75-.5,7.84-1.34,15.79-2.5,23.88-1.17,8.09-2.92,15.96-5.25,23.62-2.34,7.67-5.34,14.66-9,21-.84-1.17-2.09-2.5-3.75-4-1.67-1.5-3.38-2.96-5.12-4.38-1.75-1.42-3.21-2.46-4.38-3.12,4.33-7.83,7.41-16.33,9.25-25.5,1.83-9.16,3.04-18.38,3.62-27.62.58-9.25.88-17.79.88-25.62v-54ZM8.75,24.25h108.25v16H8.75v-16ZM19,77h99.5v16H19v-16ZM27.25,44.5l15.25-3.25c2.16,5,4.16,10.54,6,16.62,1.83,6.09,3,11.12,3.5,15.12l-16,4.25c-.5-4.33-1.54-9.58-3.12-15.75-1.59-6.16-3.46-11.83-5.62-17ZM100.75,165.5l16,5.75c-5.17,8-11.67,15.38-19.5,22.12-7.84,6.75-16.62,12.71-26.38,17.88s-20.04,9.58-30.88,13.25c-1.17-2-2.75-4.21-4.75-6.62-2-2.42-3.92-4.46-5.75-6.12,15-4.5,28.91-10.75,41.75-18.75,12.83-8,22.66-17.16,29.5-27.5ZM86.5,97l14.75,6.25c-4.67,4.34-10.12,8.5-16.38,12.5s-12.79,7.62-19.62,10.88c-6.84,3.25-13.5,6.04-20,8.38-1.34-1.66-3.04-3.54-5.12-5.62-2.09-2.08-4.12-3.88-6.12-5.38,6.16-2,12.54-4.38,19.12-7.12,6.58-2.75,12.83-5.83,18.75-9.25,5.91-3.41,10.79-6.96,14.62-10.62ZM92.75,131l14.75,6c-5,5.34-10.84,10.42-17.5,15.25-6.67,4.84-13.75,9.25-21.25,13.25s-15,7.5-22.5,10.5c-1.17-1.66-2.79-3.62-4.88-5.88-2.09-2.25-4.04-4.04-5.88-5.38,6.83-2.5,13.83-5.54,21-9.12,7.16-3.58,13.91-7.46,20.25-11.62,6.33-4.16,11.66-8.5,16-13ZM54.5,0h18.25v34.25h-18.25V0ZM85.5,40l17.25,3.75c-2,5.84-3.96,11.67-5.88,17.5-1.92,5.84-3.79,10.92-5.62,15.25l-15.5-3.75c1.66-4.5,3.46-9.88,5.38-16.12,1.91-6.25,3.38-11.79,4.38-16.62ZM149.5,184.5l16.25,9.75c-4.17,4.34-9.17,8.67-15,13-5.84,4.33-11.92,8.38-18.25,12.12-6.34,3.75-12.59,6.88-18.75,9.38-1.34-1.67-3.29-3.71-5.88-6.12-2.59-2.42-4.88-4.46-6.88-6.12,6.16-2.5,12.33-5.5,18.5-9,6.16-3.5,11.88-7.29,17.12-11.38,5.25-4.08,9.54-7.96,12.88-11.62ZM119,10h113v16.25h-113V10ZM127,50h100.25v130.75h-100.25V50ZM143.5,64.75v24h66.75v-24h-66.75ZM143.5,103v24.25h66.75v-24.25h-66.75ZM143.5,141.25v24.75h66.75v-24.75h-66.75ZM167.5,17.75l19.75,2.5c-1.84,7.17-3.84,14.34-6,21.5-2.17,7.17-4.17,13.42-6,18.75l-15.5-3c1-3.66,2-7.88,3-12.62s1.96-9.5,2.88-14.25c.91-4.75,1.54-9.04,1.88-12.88ZM184.5,195l14-9.25c4.66,3,9.5,6.46,14.5,10.38,5,3.92,9.79,7.75,14.38,11.5,4.58,3.75,8.29,7.29,11.12,10.62l-14.75,10.25c-2.67-3.17-6.21-6.71-10.62-10.62-4.42-3.92-9.17-7.88-14.25-11.88-5.09-4-9.88-7.66-14.38-11Z" style="fill: #231f20; stroke-width: 0px;"/>
</svg>