<?xml version="1.0" encoding="UTF-8"?>
<svg id="Layer_1" data-name="Layer 1" xmlns="http://www.w3.org/2000/svg" viewBox="0 0 233 230.5">
  <path d="M0,87.25l10.25-14c4.83,2,10,4.38,15.5,7.12s10.79,5.5,15.88,8.25c5.08,2.75,9.29,5.38,12.62,7.88l-10.25,15.5c-3.34-2.33-7.5-5-12.5-8s-10.25-5.96-15.75-8.88c-5.5-2.91-10.75-5.54-15.75-7.88ZM8,212.5c3.83-6.33,8.16-13.75,13-22.25,4.83-8.5,9.75-17.5,14.75-27s9.66-18.75,14-27.75l14.25,12c-3.84,8.34-8,17.09-12.5,26.25-4.5,9.17-9.09,18.09-13.75,26.75-4.67,8.67-9.17,16.75-13.5,24.25l-16.25-12.25ZM15,18.75l10.75-13.75c4.83,2.34,9.96,5.04,15.38,8.12,5.41,3.09,10.54,6.21,15.38,9.38,4.83,3.17,8.75,6.09,11.75,8.75l-11,15c-3-2.66-6.88-5.66-11.62-9-4.75-3.33-9.84-6.62-15.25-9.88-5.42-3.25-10.54-6.12-15.38-8.62ZM106,0l17.75,4.75c-3.5,10.17-7.71,20.09-12.62,29.75-4.92,9.67-10.25,18.71-16,27.12-5.75,8.42-11.79,15.88-18.12,22.38-1-1.16-2.42-2.46-4.25-3.88-1.84-1.41-3.75-2.83-5.75-4.25-2-1.41-3.67-2.54-5-3.38,9.33-8.83,17.88-19.66,25.62-32.5,7.75-12.83,13.88-26.16,18.38-40ZM74,102.75h119.5v17h-119.5v-17ZM97.25,66h111.5v16h-111.5v-16ZM100.5,29.5h130v16.5H100.5v-16.5ZM183,102.75h18.25c0,15.5.16,29.96.5,43.38.33,13.42.96,25.09,1.88,35,.91,9.92,2.38,17.71,4.38,23.38s4.58,8.5,7.75,8.5c1.83,0,3.08-3.29,3.75-9.88.66-6.58,1.08-14.79,1.25-24.62,1.66,2.17,3.66,4.21,6,6.12,2.33,1.92,4.41,3.54,6.25,4.88-.5,9.84-1.34,17.75-2.5,23.75-1.17,6-3,10.33-5.5,13-2.5,2.66-6.17,4.08-11,4.25-7.17,0-12.79-3.09-16.88-9.25-4.09-6.17-7.09-14.91-9-26.25-1.92-11.33-3.21-24.79-3.88-40.38-.67-15.58-1.09-32.88-1.25-51.88Z" style="fill: #231f20; stroke-width: 0px;"/>
</svg>