<?xml version="1.0" encoding="UTF-8"?>
<svg id="Layer_1" data-name="Layer 1" xmlns="http://www.w3.org/2000/svg" viewBox="0 0 231.5 218.75">
  <path d="M0,32.75h99.5v15.75H0v-15.75ZM11.5,134h16.75v84.5H11.5v-84.5ZM12,67h78v14.75H12v-14.75ZM12,100.25h78v15H12v-15ZM13.25,0h77.75v15H13.25V0ZM20.75,134h68.5v73H20.75v-15.5h51.75v-41.75H20.75v-15.75ZM111,5.25h107v113.25h-18.75V23.25h-88.25V5.25ZM113.75,87h18.75v101.75c0,5,1.08,8.25,3.25,9.75,2.16,1.5,6.66,2.25,13.5,2.25h47.5c4.5,0,7.88-1.04,10.12-3.12,2.25-2.08,3.83-6.08,4.75-12,.91-5.91,1.62-14.71,2.12-26.38,1.5,1,3.29,2.04,5.38,3.12,2.08,1.09,4.21,2.04,6.38,2.88,2.16.84,4.16,1.42,6,1.75-.84,13.34-2.29,23.75-4.38,31.25-2.09,7.5-5.38,12.79-9.88,15.88-4.5,3.08-11,4.62-19.5,4.62h-50c-8.67,0-15.5-.84-20.5-2.5-5-1.67-8.5-4.67-10.5-9-2-4.34-3-10.5-3-18.5v-101.75ZM122,87h86.5v17.75h-86.5v-17.75Z" style="fill: #231f20; stroke-width: 0px;"/>
</svg>