<?xml version="1.0" encoding="UTF-8"?>
<svg id="Layer_1" data-name="Layer 1" xmlns="http://www.w3.org/2000/svg" viewBox="0 0 214.75 229.75">
  <path d="M0,28.75h16v118.5H0V28.75ZM38.75,0h17v100.5c0,12.34-.46,24.42-1.38,36.25-.92,11.84-2.79,23.25-5.62,34.25-2.84,11-7,21.42-12.5,31.25s-12.92,19-22.25,27.5c-.84-1.34-2.09-2.75-3.75-4.25-1.67-1.5-3.38-3-5.12-4.5s-3.38-2.59-4.88-3.25c11.5-10.5,20-21.96,25.5-34.38,5.5-12.41,9.04-25.62,10.62-39.62,1.58-14,2.38-28.41,2.38-43.25V0ZM63.5,96h151.25v41h-17.5v-26h-116.75v26h-17v-41ZM80.25,6.75h115.75v75.25h-118.75v-14.25h101V21h-98V6.75ZM80.25,133.75h107.5v16h-90.5v63.25h-17v-79.25ZM86.25,37.25h103.25v13.75h-103.25v-13.75ZM128.25,110.25h17.5v119.5h-17.5v-119.5ZM179.25,133.75h17.5v59.75c0,4-.42,7.25-1.25,9.75-.84,2.5-2.75,4.42-5.75,5.75-2.84,1.33-6.5,2.16-11,2.5-4.5.33-9.92.5-16.25.5-.17-2.5-.71-5.21-1.62-8.12-.92-2.91-1.96-5.54-3.12-7.88,4.66.17,8.62.25,11.88.25h6.62c1.16-.16,1.96-.46,2.38-.88s.62-1.12.62-2.12v-59.5Z" style="fill: #231f20; stroke-width: 0px;"/>
</svg>