<?xml version="1.0" encoding="UTF-8"?>
<svg id="Layer_1" data-name="Layer 1" xmlns="http://www.w3.org/2000/svg" viewBox="0 0 191.5 215.37">
  <path d="M21.5,57l19.25,2.25c-2,9.17-4.25,18.96-6.75,29.38-2.5,10.42-4.96,20.46-7.38,30.12-2.42,9.67-4.71,18.17-6.88,25.5l-19.75-3.25c2.5-7.33,5-15.83,7.5-25.5,2.5-9.66,5-19.62,7.5-29.88s4.66-19.79,6.5-28.62ZM30.25,58.75h128.75V17.75H5.25V0h172.75v76.5H30.25v-17.75ZM17,113.5h162v17.75H17v-17.75ZM171.75,113.5h19.75c-.17,2.17-.34,3.96-.5,5.38-.17,1.42-.34,2.62-.5,3.62-2.34,17.34-4.75,31.71-7.25,43.12-2.5,11.42-5.17,20.42-8,27-2.84,6.58-6.09,11.46-9.75,14.62-3.34,3-6.84,5-10.5,6-3.67,1-8.34,1.66-14,2-4.67.16-11.34.16-20,0-8.67-.17-17.84-.5-27.5-1-.17-3-.92-6.25-2.25-9.75-1.34-3.5-3-6.59-5-9.25,6.66.66,13.33,1.12,20,1.38,6.66.25,12.66.46,18,.62,5.33.16,9.25.25,11.75.25,3.33,0,6.04-.17,8.12-.5,2.08-.34,3.96-1.09,5.62-2.25,3-2.33,5.75-6.54,8.25-12.62,2.5-6.08,4.88-14.5,7.12-25.25s4.38-24.29,6.38-40.62l.25-2.75Z" style="fill: #231f20; stroke-width: 0px;"/>
</svg>