<?xml version="1.0" encoding="UTF-8"?>
<svg id="Layer_1" data-name="Layer 1" xmlns="http://www.w3.org/2000/svg" viewBox="0 0 224.5 229.75">
  <path d="M45,6.75l19.25,3.75c-3.5,12.34-7.67,24.29-12.5,35.88-4.84,11.59-10.12,22.38-15.88,32.38s-11.79,18.92-18.12,26.75c-1.34-1-3.09-2.16-5.25-3.5-2.17-1.33-4.38-2.58-6.62-3.75-2.25-1.16-4.21-2.08-5.88-2.75,6.66-7.16,12.79-15.46,18.38-24.88,5.58-9.41,10.66-19.58,15.25-30.5,4.58-10.91,8.38-22.04,11.38-33.38ZM0,123.75h224.5v18.5H0v-18.5ZM40.75,45.75h169.75v18.25H35.25l5.5-18.25ZM105,0h19.75v229.75h-19.75V0Z" style="fill: #231f20; stroke-width: 0px;"/>
</svg>