<?xml version="1.0" encoding="UTF-8"?>
<svg id="Layer_1" data-name="Layer 1" xmlns="http://www.w3.org/2000/svg" viewBox="0 0 231.5 231.75">
  <path d="M35.25,173.75l18,5c-4,9.84-9.17,19.54-15.5,29.12-6.34,9.58-13.34,17.54-21,23.88L0,222c7.33-5.17,14.12-12.12,20.38-20.88s11.21-17.88,14.88-27.38ZM73,0l20.75,4.25c-5.67,9.5-12.34,19.29-20,29.38-7.67,10.09-16.38,19.96-26.12,29.62-9.75,9.67-20.62,18.75-32.62,27.25-1-1.5-2.29-3.12-3.88-4.88-1.59-1.75-3.25-3.46-5-5.12-1.75-1.66-3.38-3-4.88-4,11.33-7.33,21.58-15.38,30.75-24.12,9.16-8.75,17.21-17.62,24.12-26.62,6.91-9,12.54-17.58,16.88-25.75ZM31.75,58.25h170.25v105.75H31.75V58.25ZM50,74.25v29h133.25v-29H50ZM50,118.5v29.25h133.25v-29.25H50ZM75,17h69v15.75h-80l11-15.75ZM76.75,180.25l18-1.5c1.83,7.67,3.33,15.96,4.5,24.88,1.16,8.91,1.75,16.38,1.75,22.38l-19,2.5c0-4.17-.21-8.96-.62-14.38-.42-5.41-1-11.12-1.75-17.12s-1.71-11.58-2.88-16.75ZM105.75,63.75h18.25v92.5h-18.25V63.75ZM138.25,17h4.25l2.75-.75,13.25,8.25c-2.5,5-5.54,10.29-9.12,15.88-3.59,5.59-7.42,10.92-11.5,16-4.09,5.09-7.96,9.54-11.62,13.38-1.84-1.5-4.25-3.12-7.25-4.88s-5.67-3.21-8-4.38c3.5-3.5,7-7.58,10.5-12.25,3.5-4.66,6.71-9.46,9.62-14.38,2.91-4.91,5.29-9.29,7.12-13.12v-3.75ZM127,180.75l17-3.75c2.5,4.84,4.96,10.09,7.38,15.75,2.41,5.67,4.58,11.21,6.5,16.62,1.91,5.41,3.38,10.21,4.38,14.38l-18.25,4.5c-.84-4.17-2.17-8.96-4-14.38-1.84-5.41-3.88-11.04-6.12-16.88-2.25-5.83-4.54-11.25-6.88-16.25ZM176,179.25l16.75-7.5c5,5,9.96,10.54,14.88,16.62,4.91,6.09,9.54,12.09,13.88,18,4.33,5.91,7.66,11.38,10,16.38l-18,8.5c-2.34-4.84-5.5-10.29-9.5-16.38s-8.46-12.25-13.38-18.5c-4.92-6.25-9.79-11.96-14.62-17.12Z" style="fill: #231f20; stroke-width: 0px;"/>
</svg>