<?xml version="1.0" encoding="UTF-8"?>
<svg id="Layer_1" data-name="Layer 1" xmlns="http://www.w3.org/2000/svg" viewBox="0 0 223.5 222.25">
  <path d="M0,153.25h223.5v15H0v-15ZM5.75,33h212.25v54h-17.5v-39.25H22.75v39.25H5.75v-54ZM13.75,197.75c14-.33,30.46-.66,49.38-1,18.91-.33,39.08-.79,60.5-1.38,21.41-.58,42.79-1.12,64.12-1.62l-.75,15c-20.67.66-41.5,1.41-62.5,2.25-21,.83-40.84,1.5-59.5,2-18.67.5-35.17,1-49.5,1.5l-1.75-16.75ZM19.5,0h184.25v15H19.5V0ZM28.75,120.75h165.5v14.75H28.75v-14.75ZM30.5,91.75h58v13H30.5v-13ZM35.75,63h53v13h-53v-13ZM68.75,156.75l22,4c-5.17,8.17-10.88,16.54-17.12,25.12-6.25,8.59-12.12,15.96-17.62,22.12l-16-4.75c3.5-4.16,7.04-9,10.62-14.5,3.58-5.5,6.96-11.04,10.12-16.62,3.16-5.58,5.83-10.71,8-15.38ZM101.75,5.75h18.25v104.5h-18.25V5.75ZM133.25,63h53.75v13h-53.75v-13ZM133.25,91.75h60.5v13h-60.5v-13ZM138.25,176.25l15.75-8.25c6.83,4.17,13.96,8.92,21.38,14.25,7.41,5.34,14.38,10.71,20.88,16.12s11.83,10.38,16,14.88l-16.75,9c-3.84-4.5-8.92-9.46-15.25-14.88-6.34-5.42-13.17-10.88-20.5-16.38-7.34-5.5-14.5-10.41-21.5-14.75Z" style="fill: #231f20; stroke-width: 0px;"/>
</svg>