<?xml version="1.0" encoding="UTF-8"?>
<svg id="Layer_1" data-name="Layer 1" xmlns="http://www.w3.org/2000/svg" viewBox="0 0 224.75 230.25">
  <path d="M45.75,158.75l19,6.25c-3.84,6.5-8.46,13.17-13.88,20-5.42,6.84-11.17,13.34-17.25,19.5-6.09,6.16-12.29,11.66-18.62,16.5-1.84-2-4.25-4.04-7.25-6.12-3-2.09-5.59-3.71-7.75-4.88,6.16-4.5,12.16-9.58,18-15.25,5.83-5.66,11.16-11.62,16-17.88,4.83-6.25,8.75-12.29,11.75-18.12ZM4.75,29.25h218v18H4.75v-18ZM35.5,70h158.5v74.25H35.5v-74.25ZM54,86.5v41.25h120.25v-41.25H54ZM103.25,137.25h19.5v71.25c0,5.5-.75,9.66-2.25,12.5-1.5,2.83-4.5,5-9,6.5-4.34,1.33-10.12,2.12-17.38,2.38s-16.38.38-27.38.38c-.5-2.67-1.38-5.62-2.62-8.88s-2.54-6.21-3.88-8.88c5.83.16,11.29.25,16.38.25h21.12c2.16-.17,3.62-.59,4.38-1.25.75-.67,1.12-1.83,1.12-3.5v-70.75ZM103,0h19.75v38.5h-19.75V0ZM160.25,167.25l16.75-8.25c5.66,5.5,11.54,11.5,17.62,18,6.08,6.5,11.79,12.88,17.12,19.12,5.33,6.25,9.66,11.88,13,16.88l-18,9.75c-3-5-7.12-10.71-12.38-17.12s-10.88-13-16.88-19.75-11.75-12.96-17.25-18.62Z" style="fill: #231f20; stroke-width: 0px;"/>
</svg>