<?xml version="1.0" encoding="UTF-8"?>
<svg id="Layer_1" data-name="Layer 1" xmlns="http://www.w3.org/2000/svg" viewBox="0 0 233.5 233">
  <path d="M8,68.75h17c-.67,8.34-1.46,17.29-2.38,26.88-.92,9.59-1.88,18.84-2.88,27.75-1,8.92-2,16.79-3,23.62l-16.75-3c1.16-6.5,2.29-14.08,3.38-22.75,1.08-8.66,2.04-17.58,2.88-26.75.83-9.16,1.41-17.75,1.75-25.75ZM13,68.75h43V30.75H3.5V13.75h70.5v72.25H13v-17.25ZM56.75,119h17.5v4.88c0,1.25-.09,2.38-.25,3.38-1,21-2.04,38.04-3.12,51.12-1.09,13.09-2.42,23-4,29.75-1.59,6.75-3.54,11.54-5.88,14.38-2.17,2.66-4.5,4.5-7,5.5s-5.67,1.66-9.5,2c-3.17.33-7.54.5-13.12.5s-11.46-.17-17.62-.5c-.34-2.84-.96-5.96-1.88-9.38-.92-3.42-2.21-6.38-3.88-8.88,6.33.5,12.21.79,17.62.88,5.41.08,9.21.12,11.38.12,2.16.16,3.91.04,5.25-.38,1.33-.42,2.5-1.21,3.5-2.38,1.83-1.83,3.41-5.83,4.75-12,1.33-6.16,2.5-15.38,3.5-27.62s1.91-28.38,2.75-48.38v-3ZM11.5,119h52.25v16.5H9.5l2-16.5ZM79,207.5c11.16-.5,24.04-1.25,38.62-2.25,14.58-1,30.04-2.12,46.38-3.38,16.33-1.25,32.75-2.46,49.25-3.62l-.25,17c-15.84,1.33-31.67,2.66-47.5,4-15.84,1.33-30.96,2.58-45.38,3.75-14.42,1.16-27.29,2.16-38.62,3l-2.5-18.5ZM82.5,54.25c10.33-.5,22.54-1.08,36.62-1.75,14.08-.66,29.04-1.41,44.88-2.25,15.83-.83,31.66-1.66,47.5-2.5l-.25,16c-15,1.17-30.09,2.25-45.25,3.25-15.17,1-29.67,1.92-43.5,2.75-13.84.84-26.25,1.67-37.25,2.5l-2.75-18ZM90,94.75h128.25v67.25H90v-67.25ZM131,0l20,5.25c-3.67,6.67-7.5,13.62-11.5,20.88s-8.04,14.17-12.12,20.75c-4.09,6.59-8.04,12.46-11.88,17.62l-15.5-5.25c3.66-5.33,7.46-11.46,11.38-18.38,3.91-6.91,7.58-14,11-21.25,3.41-7.25,6.29-13.79,8.62-19.62ZM107.25,110.5v35.5h93v-35.5h-93ZM144.5,63.75h18v146l-18,.75V63.75ZM174.75,27.75l15.25-7.5c5.33,5,10.62,10.54,15.88,16.62,5.25,6.09,10.08,12.09,14.5,18,4.41,5.92,7.88,11.29,10.38,16.12l-16.5,8.75c-2.34-4.83-5.62-10.25-9.88-16.25s-8.96-12.12-14.12-18.38c-5.17-6.25-10.34-12.04-15.5-17.38ZM180.5,175.5l15.25-7.25c5,5.84,10,12.12,15,18.88s9.54,13.42,13.62,20c4.08,6.58,7.12,12.54,9.12,17.88l-16.25,8c-2-5.34-4.96-11.34-8.88-18-3.92-6.66-8.29-13.46-13.12-20.38-4.84-6.91-9.75-13.29-14.75-19.12Z" style="fill: #231f20; stroke-width: 0px;"/>
</svg>