<?xml version="1.0" encoding="UTF-8"?>
<svg id="Layer_1" data-name="Layer 1" xmlns="http://www.w3.org/2000/svg" viewBox="0 0 237 230.75">
  <path d="M114.5,5.75l17.5,5c-12.5,31-28.88,58.17-49.12,81.5-20.25,23.34-43.46,42.42-69.62,57.25-.84-1.16-2.04-2.66-3.62-4.5-1.59-1.83-3.25-3.62-5-5.38s-3.29-3.21-4.62-4.38c26.16-13.33,48.96-31.08,68.38-53.25,19.41-22.16,34.79-47.58,46.12-76.25ZM4,163.5c10.16-.83,21.96-1.91,35.38-3.25,13.41-1.33,27.66-2.79,42.75-4.38,15.08-1.58,30.12-3.12,45.12-4.62v16.25c-14.34,1.67-28.84,3.29-43.5,4.88-14.67,1.59-28.59,3.09-41.75,4.5-13.17,1.42-25.09,2.71-35.75,3.88l-2.25-17.25ZM5.25,67.25h121.25v16.5H5.25v-16.5ZM15.25,26.25h81.75v16.25H15.25v-16.25ZM25.5,102.25h75.25v15.25H25.5v-15.25ZM58.25,136h17.5v74c0,4.83-.59,8.54-1.75,11.12-1.17,2.58-3.5,4.54-7,5.88-3.5,1.33-8,2.16-13.5,2.5-5.5.33-12.25.5-20.25.5-.34-2.5-1.04-5.29-2.12-8.38-1.09-3.09-2.29-5.79-3.62-8.12,6.16.16,11.66.25,16.5.25s8.16-.09,10-.25c1.66,0,2.79-.29,3.38-.88.58-.59.88-1.54.88-2.88v-73.75ZM48.25,0h17.5v75.75h-17.5V0ZM97,102.25h4l3.5-1,10.75,8c-5.84,7.34-12.71,14.59-20.62,21.75-7.92,7.17-15.54,13.17-22.88,18-1.17-1.5-2.75-3.21-4.75-5.12-2-1.91-3.67-3.46-5-4.62,4.33-2.83,8.71-6.21,13.12-10.12,4.41-3.91,8.54-7.96,12.38-12.12,3.83-4.16,7-8.08,9.5-11.75v-3ZM200.5,56.25l19.25,2c-4,28.67-9.96,53.96-17.88,75.88-7.92,21.92-18.59,40.79-32,56.62-13.42,15.84-30.62,29.16-51.62,40-.67-1.5-1.67-3.34-3-5.5-1.34-2.17-2.71-4.29-4.12-6.38-1.42-2.09-2.79-3.71-4.12-4.88,19.83-9.33,36-21.25,48.5-35.75s22.29-31.88,29.38-52.12c7.08-20.25,12.29-43.54,15.62-69.88ZM152.5,0l19,3c-2.84,15.67-6.42,30.84-10.75,45.5-4.34,14.67-9.29,28.38-14.88,41.12-5.59,12.75-11.88,23.88-18.88,33.38-1-1.16-2.42-2.58-4.25-4.25-1.84-1.66-3.79-3.29-5.88-4.88-2.09-1.58-3.88-2.79-5.38-3.62,6.83-8.66,12.88-18.88,18.12-30.62s9.79-24.41,13.62-38c3.83-13.58,6.91-27.46,9.25-41.62ZM155.5,61.5c3.66,23,8.88,44.59,15.62,64.75,6.75,20.17,15.5,37.79,26.25,52.88,10.75,15.09,23.96,26.79,39.62,35.12-1.5,1.16-3.12,2.66-4.88,4.5-1.75,1.83-3.38,3.79-4.88,5.88-1.5,2.08-2.75,3.96-3.75,5.62-16.17-9.84-29.84-22.88-41-39.12-11.17-16.25-20.25-35.12-27.25-56.62s-12.59-44.91-16.75-70.25l17-2.75ZM146,46.5h89v17.5h-89v-17.5Z" style="fill: #231f20; stroke-width: 0px;"/>
</svg>