<?xml version="1.0" encoding="UTF-8"?>
<svg id="Layer_1" data-name="Layer 1" xmlns="http://www.w3.org/2000/svg" viewBox="0 0 232.25 227">
  <path d="M56.5,178c6,9.17,14.33,16,25,20.5,10.66,4.5,23.25,7,37.75,7.5,6.83.34,15.12.54,24.88.62,9.75.09,20,.04,30.75-.12,10.75-.16,21.12-.41,31.12-.75,10-.33,18.75-.75,26.25-1.25-.84,1.34-1.67,3.17-2.5,5.5-.84,2.33-1.59,4.71-2.25,7.12-.67,2.41-1.17,4.54-1.5,6.38-6.84.33-14.92.58-24.25.75-9.34.16-19,.29-29,.38-10,.08-19.71.08-29.12,0-9.42-.09-17.54-.21-24.38-.38-16.34-.67-30.29-3.34-41.88-8-11.59-4.67-21.38-12-29.38-22-6,5.34-12.17,10.71-18.5,16.12-6.34,5.41-12.92,10.96-19.75,16.62L0,207.75c6-4,12.46-8.62,19.38-13.88,6.91-5.25,13.62-10.54,20.12-15.88h17ZM56.5,97.75v88.5h-18.25v-71H3.25v-17.5h53.25ZM6,16.25l13.75-11.25c5.5,3.5,11.08,7.54,16.75,12.12,5.66,4.59,10.88,9.21,15.62,13.88,4.75,4.67,8.62,9,11.62,13l-15,12.5c-2.5-4-6.12-8.41-10.88-13.25-4.75-4.83-9.92-9.62-15.5-14.38-5.59-4.75-11.04-8.96-16.38-12.62ZM94.75,15.75l23.5,5.25c-.34,1.84-2.09,3-5.25,3.5v49.75c0,8.34-.42,17.34-1.25,27-.84,9.67-2.46,19.59-4.88,29.75-2.42,10.17-5.96,20.04-10.62,29.62-4.67,9.59-10.84,18.46-18.5,26.62-.84-1.5-2.04-3.04-3.62-4.62-1.59-1.58-3.25-3.16-5-4.75-1.75-1.58-3.46-2.79-5.12-3.62,9.16-9.83,15.91-20.54,20.25-32.12,4.33-11.58,7.16-23.25,8.5-35,1.33-11.75,2-22.79,2-33.12V15.75ZM199.25,0l16.25,14c-9.67,3.34-20.54,6.34-32.62,9-12.09,2.67-24.59,5.04-37.5,7.12-12.92,2.09-25.54,3.88-37.88,5.38-.34-2.16-1.09-4.75-2.25-7.75-1.17-3-2.34-5.5-3.5-7.5,11.66-1.66,23.58-3.54,35.75-5.62,12.16-2.08,23.66-4.38,34.5-6.88,10.83-2.5,19.91-5.08,27.25-7.75ZM104.75,72.75h124.25v17.5h-124.25v-17.5ZM164,80.5h18.5v113.25h-18.5v-113.25Z" style="fill: #231f20; stroke-width: 0px;"/>
</svg>