<?xml version="1.0" encoding="UTF-8"?>
<svg id="Layer_1" data-name="Layer 1" xmlns="http://www.w3.org/2000/svg" viewBox="0 0 232.75 227.5">
  <path d="M33.75,16h17.75v80.25c0,15.67-.79,31.21-2.38,46.62-1.59,15.42-5,30.29-10.25,44.62-5.25,14.34-13.54,27.66-24.88,40-.84-1.34-2.12-2.79-3.88-4.38-1.75-1.59-3.5-3.12-5.25-4.62s-3.38-2.67-4.88-3.5c10.16-11.33,17.62-23.5,22.38-36.5s7.83-26.46,9.25-40.38c1.41-13.91,2.12-27.88,2.12-41.88V16ZM1,93.75h136.25v17.5H1v-17.5ZM5.25,11.5h128.75v17.5H5.25V11.5ZM91.75,16h18.5v209.75h-18.5V16ZM215.25,136.5l17.5,7c-7,11.5-15.5,22.38-25.5,32.62s-20.96,19.59-32.88,28c-11.92,8.41-24.29,15.62-37.12,21.62-1.5-2.34-3.5-4.92-6-7.75-2.5-2.84-5-5.25-7.5-7.25,12.5-5.16,24.54-11.54,36.12-19.12,11.58-7.58,22.16-16.04,31.75-25.38,9.58-9.33,17.46-19.25,23.62-29.75ZM202.25,0l17.75,7.25c-6.17,7.67-13.25,15.17-21.25,22.5-8,7.34-16.38,14.17-25.12,20.5-8.75,6.34-17.38,11.84-25.88,16.5-1.5-2.16-3.54-4.5-6.12-7-2.59-2.5-5.04-4.58-7.38-6.25,8-4.16,16.25-9.08,24.75-14.75,8.5-5.66,16.54-11.88,24.12-18.62,7.58-6.75,13.96-13.46,19.12-20.12ZM209.5,69l17,7c-6.34,8.17-13.75,16.17-22.25,24-8.5,7.84-17.38,15.17-26.62,22-9.25,6.84-18.38,12.67-27.38,17.5-1.5-2-3.5-4.25-6-6.75s-5-4.66-7.5-6.5c8.66-4.33,17.5-9.58,26.5-15.75,9-6.16,17.58-12.83,25.75-20,8.16-7.16,15-14.33,20.5-21.5Z" style="fill: #231f20; stroke-width: 0px;"/>
</svg>