<?xml version="1.0" encoding="UTF-8"?>
<svg id="Layer_1" data-name="Layer 1" xmlns="http://www.w3.org/2000/svg" viewBox="0 0 227.5 209.75">
  <path d="M66.75,84.25h20c-1.17,14-2.92,27.25-5.25,39.75-2.34,12.5-6.12,24.12-11.38,34.88s-12.59,20.46-22,29.12c-9.42,8.66-21.54,15.91-36.38,21.75-1-2.17-2.67-4.71-5-7.62-2.34-2.92-4.59-5.21-6.75-6.88,13.66-5.16,24.71-11.58,33.12-19.25,8.41-7.66,14.91-16.29,19.5-25.88,4.58-9.58,7.88-19.91,9.88-31,2-11.08,3.41-22.71,4.25-34.88ZM2.75,70h220.75v18.5H2.75v-18.5ZM24.75,0h177.5v18H24.75V0ZM133.75,81.25h19v96.5c0,4.5.75,7.38,2.25,8.62s4.66,1.88,9.5,1.88h32.5c3.5,0,6.08-1.12,7.75-3.38,1.66-2.25,2.88-6.58,3.62-13,.75-6.41,1.21-16.04,1.38-28.88,1.66,1.17,3.5,2.29,5.5,3.38,2,1.09,4.12,2.04,6.38,2.88,2.25.84,4.21,1.5,5.88,2-.67,14.34-1.88,25.46-3.62,33.38s-4.59,13.46-8.5,16.62c-3.92,3.16-9.54,4.75-16.88,4.75h-36.25c-7.34,0-13.12-.84-17.38-2.5-4.25-1.67-7.17-4.54-8.75-8.62-1.59-4.09-2.38-9.71-2.38-16.88v-96.75Z" style="fill: #231f20; stroke-width: 0px;"/>
</svg>