<?xml version="1.0" encoding="UTF-8"?>
<svg id="Layer_1" data-name="Layer 1" xmlns="http://www.w3.org/2000/svg" viewBox="0 0 231.5 216.25">
  <path d="M24,0h18.5v72.5c0,10.34-.29,21.62-.88,33.88-.59,12.25-1.79,24.84-3.62,37.75-1.84,12.92-4.5,25.5-8,37.75s-8.09,23.54-13.75,33.88c-1.17-1.17-2.75-2.34-4.75-3.5-2-1.17-4.04-2.34-6.12-3.5-2.09-1.17-3.88-2-5.38-2.5,5.5-9.84,9.83-20.46,13-31.88,3.16-11.41,5.54-23.08,7.12-35,1.58-11.91,2.62-23.58,3.12-35,.5-11.41.75-22.04.75-31.88V0ZM34.75,0h192.25v17.5H34.75V0ZM84,144.75l18,5.25c-6.5,10.5-14.38,20.67-23.62,30.5-9.25,9.84-18.46,18.16-27.62,25-1-1-2.46-2.21-4.38-3.62-1.92-1.42-3.88-2.79-5.88-4.12-2-1.34-3.75-2.41-5.25-3.25,9.33-6,18.38-13.46,27.12-22.38,8.75-8.91,15.96-18.04,21.62-27.38ZM65,41.75h141.5v90.25H65V41.75ZM83.5,56.75v22.75h104v-22.75h-104ZM83.5,93.75v23.25h104v-23.25h-104ZM126,122.5h18.25v73.5c0,4.83-.62,8.62-1.88,11.38s-3.79,4.79-7.62,6.12c-3.67,1.33-8.71,2.12-15.12,2.38-6.42.25-14.46.38-24.12.38-.34-2.34-1.09-5.04-2.25-8.12-1.17-3.09-2.34-5.88-3.5-8.38,7.5.16,14.12.25,19.88.25h11.62c2-.17,3.29-.54,3.88-1.12.58-.59.88-1.62.88-3.12v-73.25ZM124.25,13.75l21.75,2.25c-1.84,6.5-3.84,12.92-6,19.25-2.17,6.34-4.17,11.84-6,16.5l-18.5-2.75c1.16-3.33,2.29-7.08,3.38-11.25,1.08-4.16,2.12-8.38,3.12-12.62s1.75-8.04,2.25-11.38ZM166,153l14.25-9c6.33,4.67,12.79,10,19.38,16,6.58,6,12.71,11.96,18.38,17.88,5.66,5.92,10.16,11.38,13.5,16.38l-15.5,10.25c-3.17-5-7.5-10.54-13-16.62-5.5-6.08-11.5-12.16-18-18.25-6.5-6.08-12.84-11.62-19-16.62Z" style="fill: #231f20; stroke-width: 0px;"/>
</svg>