<?xml version="1.0" encoding="UTF-8"?>
<svg id="Layer_1" data-name="Layer 1" xmlns="http://www.w3.org/2000/svg" viewBox="0 0 209 219">
  <path d="M0,0h209v219h-18.5V17H17.75v202H0V0ZM11,191.5h189.75v17H11v-17ZM103,119.25l15,5.25c-6.34,7.17-14.04,13.96-23.12,20.38-9.09,6.42-18.62,12.21-28.62,17.38-10,5.17-19.92,9.67-29.75,13.5-.67-1.16-1.67-2.54-3-4.12-1.34-1.58-2.67-3.16-4-4.75-1.34-1.58-2.59-2.79-3.75-3.62,9.83-3.33,19.62-7.21,29.38-11.62,9.75-4.41,18.79-9.38,27.12-14.88,8.33-5.5,15.25-11.33,20.75-17.5ZM30.25,63.5h147.75v12H30.25v-12ZM44.75,36h120v12H44.75v-12ZM46.25,87h117v42.5H46.25v-42.5ZM62.25,98.25v20h84.25v-20H62.25ZM91.75,130.75h17v53.5h-17v-53.5ZM95,22.25h17.25v48.25h-17.25V22.25ZM111.25,126c4.83,6.34,11.08,12.38,18.75,18.12,7.66,5.75,16.16,10.84,25.5,15.25,9.33,4.42,18.66,7.88,28,10.38-1.67,1.5-3.5,3.46-5.5,5.88-2,2.42-3.59,4.62-4.75,6.62-9.5-3.16-19-7.33-28.5-12.5-9.5-5.16-18.25-11.08-26.25-17.75-8-6.66-14.67-13.66-20-21l12.75-5ZM163.25,124.75l12.25,7.25c-5.67,4.67-11.84,9.17-18.5,13.5-6.67,4.34-12.84,8-18.5,11l-10-6.75c3.66-2.33,7.66-4.96,12-7.88,4.33-2.91,8.5-5.91,12.5-9,4-3.08,7.41-5.79,10.25-8.12Z" style="fill: #231f20; stroke-width: 0px;"/>
</svg>