<?xml version="1.0" encoding="UTF-8"?>
<svg id="Layer_1" data-name="Layer 1" xmlns="http://www.w3.org/2000/svg" viewBox="0 0 225.25 216">
  <path d="M33,45.25h19v57c0,8.5-.5,17.79-1.5,27.88-1,10.09-2.79,20.21-5.38,30.38-2.59,10.17-6.34,20-11.25,29.5-4.92,9.5-11.38,18.16-19.38,26-.84-1.34-2.17-2.84-4-4.5-1.84-1.67-3.71-3.29-5.62-4.88-1.92-1.59-3.54-2.79-4.88-3.62,7.33-7.34,13.21-15.21,17.62-23.62,4.41-8.41,7.71-17.08,9.88-26,2.16-8.91,3.62-17.75,4.38-26.5s1.12-17.04,1.12-24.88v-56.75ZM8.5,0h216.75v18H8.5V0ZM44,116h151.25v17.5H44v-17.5ZM45.5,45.25h160.5v102h-18.75V62.75H45.5v-17.5Z" style="fill: #231f20; stroke-width: 0px;"/>
</svg>