<?xml version="1.0" encoding="UTF-8"?>
<svg id="Layer_1" data-name="Layer 1" xmlns="http://www.w3.org/2000/svg" viewBox="0 0 223.25 231">
  <path d="M0,115.5h223.25v19H0v-19ZM50,0l19.5,4.75c-3.84,12.34-8.46,24.34-13.88,36-5.42,11.67-11.38,22.54-17.88,32.62-6.5,10.09-13.25,18.96-20.25,26.62-1.17-1.16-2.79-2.46-4.88-3.88-2.09-1.41-4.21-2.83-6.38-4.25-2.17-1.41-4.09-2.54-5.75-3.38,7.16-7,13.83-15.21,20-24.62,6.16-9.41,11.75-19.58,16.75-30.5,5-10.91,9.25-22.04,12.75-33.38ZM49,34.25h155.25v18.5H40l9-18.5ZM102,42.25h19.25v188.75h-19.25V42.25Z" style="fill: #231f20; stroke-width: 0px;"/>
</svg>