<?xml version="1.0" encoding="UTF-8"?>
<svg id="Layer_1" data-name="Layer 1" xmlns="http://www.w3.org/2000/svg" viewBox="0 0 238.25 230.75">
  <path d="M61.75,51l16.75,6c-5.67,10-12.21,19.88-19.62,29.62-7.42,9.75-15.25,18.96-23.5,27.62-8.25,8.67-16.46,16.34-24.62,23-.67-1.33-1.62-3.04-2.88-5.12-1.25-2.08-2.59-4.21-4-6.38-1.42-2.16-2.71-3.83-3.88-5,7.66-5.83,15.29-12.46,22.88-19.88,7.58-7.41,14.71-15.41,21.38-24,6.66-8.58,12.5-17.21,17.5-25.88ZM55.75,0l17,6.75c-4.84,6.84-10.54,13.92-17.12,21.25-6.59,7.34-13.5,14.25-20.75,20.75s-14.46,12.34-21.62,17.5c-.67-1.33-1.62-2.83-2.88-4.5-1.25-1.66-2.54-3.38-3.88-5.12-1.34-1.75-2.5-3.12-3.5-4.12,6.5-4.5,13.12-9.71,19.88-15.62,6.75-5.91,13.04-12.04,18.88-18.38,5.83-6.33,10.5-12.5,14-18.5ZM39,97.5l15.25-15.5,2.5,1.25v147.5h-17.75V97.5ZM193,129.75h3.75l3.25-.75,12,5.75c-5.84,13.5-13.5,25.46-23,35.88-9.5,10.42-20.29,19.54-32.38,27.38-12.09,7.84-24.96,14.41-38.62,19.75-13.67,5.33-27.67,9.66-42,13-.84-2.34-2.17-5.12-4-8.38-1.84-3.25-3.59-5.88-5.25-7.88,13.33-2.67,26.46-6.33,39.38-11,12.91-4.66,25.04-10.38,36.38-17.12,11.33-6.75,21.38-14.62,30.12-23.62s15.54-19,20.38-30v-3ZM135,101.75l17.25,5.25c-5.5,9.84-12.17,19.17-20,28-7.84,8.84-16.17,17-25,24.5-8.84,7.5-17.84,14.09-27,19.75-.84-1.33-2-2.88-3.5-4.62s-3.09-3.54-4.75-5.38c-1.67-1.83-3.17-3.25-4.5-4.25,13.33-7.16,26.12-16.25,38.38-27.25s21.96-23,29.12-36ZM70.25,95c12-.16,25.96-.41,41.88-.75,15.91-.33,32.91-.71,51-1.12,18.08-.41,36.12-.88,54.12-1.38l-.75,15.5c-17.34.5-34.75,1.09-52.25,1.75-17.5.67-34.17,1.25-50,1.75-15.84.5-29.92.92-42.25,1.25l-1.75-17ZM78.75,40.5l11.5-12.25c6.16,4.17,12.71,8.75,19.62,13.75,6.91,5,13.38,10.04,19.38,15.12,6,5.09,10.75,9.79,14.25,14.12l-11.75,13.5c-3.67-4.16-8.42-8.91-14.25-14.25-5.84-5.33-12.12-10.62-18.88-15.88s-13.38-9.96-19.88-14.12ZM136.5,0l16.75,8.5c-6.34,7.5-13.12,15.21-20.38,23.12-7.25,7.92-13.96,14.71-20.12,20.38l-13.5-7.75c4.16-4,8.54-8.58,13.12-13.75,4.58-5.16,9.04-10.41,13.38-15.75,4.33-5.33,7.91-10.25,10.75-14.75ZM185,19l17,9.25c-8.34,9-17.54,18.38-27.62,28.12-10.09,9.75-20.25,19.17-30.5,28.25-10.25,9.09-19.96,16.96-29.12,23.62l-12.75-8.25c6.83-5.16,14-11.08,21.5-17.75,7.5-6.66,14.96-13.62,22.38-20.88,7.41-7.25,14.5-14.5,21.25-21.75s12.71-14.12,17.88-20.62ZM118.75,140.75c7.33,12,16.96,22.96,28.88,32.88,11.91,9.92,25.58,18.34,41,25.25,15.41,6.92,31.96,12.04,49.62,15.38-1.34,1.33-2.75,2.96-4.25,4.88-1.5,1.91-2.88,3.83-4.12,5.75-1.25,1.91-2.29,3.71-3.12,5.38-18-4.17-34.84-10.17-50.5-18-15.67-7.83-29.67-17.33-42-28.5-12.34-11.16-22.59-23.75-30.75-37.75l15.25-5.25ZM124.5,129.75h74.5v15h-87.5l13-15ZM181.75,70l14.75-7.75c5.33,5.34,10.66,11.25,16,17.75,5.33,6.5,10.29,12.92,14.88,19.25,4.58,6.34,8.12,12.09,10.62,17.25l-15.75,9.25c-2.34-5.16-5.71-10.96-10.12-17.38-4.42-6.41-9.25-13-14.5-19.75s-10.54-12.96-15.88-18.62Z" style="fill: #231f20; stroke-width: 0px;"/>
</svg>