<?xml version="1.0" encoding="UTF-8"?>
<svg id="Layer_1" data-name="Layer 1" xmlns="http://www.w3.org/2000/svg" viewBox="0 0 231.5 221.25">
  <path d="M0,33.5h91v15.5H0v-15.5ZM11.5,136.75h16.5v84.25H11.5v-84.25ZM12,68.25h70.5v15H12v-15ZM12,102.5h70.5v14.75H12v-14.75ZM13.5,0h68.75v15H13.5V0ZM20.75,136.75h62.75v72.75H20.75v-15.25h46v-42H20.75v-15.5ZM92,95.5h139.5v16.75H92v-16.75ZM99.75.5h123.75v16.5h-123.75V.5ZM103.5,42.75h105.75v61.25h-18v-45h-87.75v-16.25ZM110.25,131.25h105.75v89h-18.25v-72h-69.75v73h-17.75v-90ZM118.5,192.75h89.5v17h-89.5v-17ZM139.75,6.75l18.25,1.75c-1.34,10.17-3,21.12-5,32.88s-4,23.12-6,34.12-3.92,20.42-5.75,28.25h-18.25c1.5-6,3-13,4.5-21s3-16.41,4.5-25.25c1.5-8.83,2.91-17.58,4.25-26.25,1.33-8.66,2.5-16.83,3.5-24.5Z" style="fill: #231f20; stroke-width: 0px;"/>
</svg>