<?xml version="1.0" encoding="UTF-8"?>
<svg id="Layer_1" data-name="Layer 1" xmlns="http://www.w3.org/2000/svg" viewBox="0 0 227.25 224">
  <path d="M66.75,0l20.75,5.75c-5.5,13.5-12,26.59-19.5,39.25-7.5,12.67-15.5,24.46-24,35.38-8.5,10.92-17.25,20.46-26.25,28.62-1.17-1.33-2.84-2.83-5-4.5-2.17-1.66-4.42-3.33-6.75-5-2.34-1.66-4.34-3-6-4,9.16-7.5,17.88-16.29,26.12-26.38,8.25-10.08,15.88-21.04,22.88-32.88,7-11.83,12.91-23.91,17.75-36.25ZM10,192.25c11.33-.33,24.21-.75,38.62-1.25,14.41-.5,29.75-1.12,46-1.88s32.91-1.5,50-2.25c17.08-.75,34.04-1.46,50.88-2.12l-.5,17.75c-21.84,1.16-43.84,2.38-66,3.62-22.17,1.25-43.21,2.38-63.12,3.38-19.92,1-37.71,1.83-53.38,2.5l-2.5-19.75ZM92,83.25l22,5.75c-4,9.34-8.29,19.12-12.88,29.38-4.59,10.25-9.29,20.5-14.12,30.75-4.84,10.25-9.75,20-14.75,29.25s-9.75,17.71-14.25,25.38l-17.5-5.75c4.5-7.66,9.16-16.25,14-25.75,4.83-9.5,9.54-19.41,14.12-29.75,4.58-10.33,8.88-20.58,12.88-30.75,4-10.16,7.5-19.66,10.5-28.5ZM156,0c4.16,8.17,9.12,16.59,14.88,25.25,5.75,8.67,11.88,17.17,18.38,25.5,6.5,8.34,13,16.17,19.5,23.5,6.5,7.34,12.66,13.59,18.5,18.75-1.67,1.34-3.5,2.92-5.5,4.75-2,1.84-3.92,3.75-5.75,5.75-1.84,2-3.42,3.84-4.75,5.5-5.67-6-11.79-13-18.38-21-6.59-8-13.17-16.5-19.75-25.5-6.59-9-12.96-18.21-19.12-27.62-6.17-9.41-11.59-18.54-16.25-27.38l18.25-7.5ZM140,138.25l17.75-8.5c7.66,8.84,15.41,18.29,23.25,28.38,7.83,10.09,15.08,19.96,21.75,29.62,6.66,9.67,12,18.33,16,26l-18.75,10.25c-4-7.84-9.29-16.71-15.88-26.62-6.59-9.91-13.75-20.08-21.5-30.5-7.75-10.41-15.29-19.96-22.62-28.62Z" style="fill: #231f20; stroke-width: 0px;"/>
</svg>