<?xml version="1.0" encoding="UTF-8"?>
<svg id="Layer_1" data-name="Layer 1" xmlns="http://www.w3.org/2000/svg" viewBox="0 0 233.75 231">
  <path d="M24.25,34.5h18.75v66.5c0,9.34-.34,19.59-1,30.75-.67,11.17-1.92,22.62-3.75,34.38-1.84,11.75-4.54,23.09-8.12,34-3.59,10.91-8.29,20.96-14.12,30.12-1.17-1-2.71-2.21-4.62-3.62-1.92-1.42-3.92-2.75-6-4-2.09-1.25-3.88-2.21-5.38-2.88,5.5-8.67,9.88-18.04,13.12-28.12,3.25-10.08,5.66-20.41,7.25-31,1.58-10.58,2.62-20.96,3.12-31.12.5-10.16.75-19.66.75-28.5V34.5ZM33.75,34.5h196.25v18H33.75v-18ZM44,197.75c13.5-.5,29.33-1.08,47.5-1.75,18.16-.66,37.5-1.5,58-2.5l61.5-3-.5,17c-19.84,1.17-39.71,2.38-59.62,3.62-19.92,1.25-38.88,2.38-56.88,3.38s-34.09,1.91-48.25,2.75l-1.75-19.5ZM114,68.5l20.75,4.75c-2.84,11-6.12,22.5-9.88,34.5s-7.67,24-11.75,36c-4.09,12-8.12,23.38-12.12,34.12s-7.92,20.46-11.75,29.12l-17.25-5c3.66-8.5,7.5-18.29,11.5-29.38,4-11.08,7.88-22.62,11.62-34.62s7.25-24,10.5-36,6.04-23.16,8.38-33.5ZM114.75,0h19.25v43.25h-19.25V0ZM160,138.25l17-7.5c7.5,9.34,15,19.5,22.5,30.5s14.29,21.79,20.38,32.38c6.08,10.59,10.71,20.04,13.88,28.38l-18.5,9c-3.17-8.34-7.67-17.88-13.5-28.62-5.84-10.75-12.42-21.75-19.75-33-7.34-11.25-14.67-21.62-22-31.12Z" style="fill: #231f20; stroke-width: 0px;"/>
</svg>