<?xml version="1.0" encoding="UTF-8"?>
<svg id="Layer_1" data-name="Layer 1" xmlns="http://www.w3.org/2000/svg" viewBox="0 0 231 231.25">
  <path d="M151.25,101.75l19.75,5.75c-9,23.17-21.09,42.75-36.25,58.75-15.17,16-33.04,29.21-53.62,39.62-20.59,10.41-43.62,18.88-69.12,25.38-.67-1.67-1.71-3.62-3.12-5.88-1.42-2.25-2.92-4.46-4.5-6.62-1.59-2.17-3.04-4-4.38-5.5,25.16-5.16,47.71-12.46,67.62-21.88,19.91-9.41,36.91-21.41,51-36,14.08-14.58,24.96-32.46,32.62-53.62ZM69.5,58.75l19.25,7.25c-6,8-12.88,15.84-20.62,23.5-7.75,7.67-15.92,14.88-24.5,21.62-8.59,6.75-16.88,12.62-24.88,17.62-1-1.33-2.42-2.96-4.25-4.88-1.84-1.91-3.75-3.79-5.75-5.62-2-1.83-3.75-3.33-5.25-4.5,8.16-4.33,16.33-9.41,24.5-15.25,8.16-5.83,15.88-12.12,23.12-18.88s13.38-13.71,18.38-20.88ZM5.25,32.75h219.5v18.5H5.25v-18.5ZM79.75,103.25c11.66,29.5,30.12,53.46,55.38,71.88,25.25,18.42,57.21,30.88,95.88,37.38-1.34,1.33-2.79,3.08-4.38,5.25-1.59,2.16-3.09,4.38-4.5,6.62-1.42,2.25-2.62,4.21-3.62,5.88-26.5-5.17-49.84-13.04-70-23.62-20.17-10.58-37.38-24.04-51.62-40.38-14.25-16.33-25.88-35.5-34.88-57.5l17.75-5.5ZM105,0h19v44.5h-19V0ZM144.5,69.25l15.25-11.25c8,5.17,16.25,11,24.75,17.5s16.54,13.04,24.12,19.62c7.58,6.59,13.79,12.62,18.62,18.12l-16.5,13.25c-4.34-5.66-10.17-11.88-17.5-18.62-7.34-6.75-15.29-13.5-23.88-20.25-8.59-6.75-16.88-12.88-24.88-18.38Z" style="fill: #231f20; stroke-width: 0px;"/>
</svg>