<?xml version="1.0" encoding="UTF-8"?>
<svg id="Layer_1" data-name="Layer 1" xmlns="http://www.w3.org/2000/svg" viewBox="0 0 231.5 230">
  <path d="M72.25,110h19.75c-1,14.17-2.79,27.42-5.38,39.75-2.59,12.34-6.67,23.54-12.25,33.62-5.59,10.09-13.42,19.04-23.5,26.88-10.09,7.83-23.12,14.41-39.12,19.75-.67-1.67-1.67-3.5-3-5.5-1.34-2-2.75-3.96-4.25-5.88-1.5-1.92-3-3.46-4.5-4.62,15-4.5,27.04-10.16,36.12-17,9.08-6.83,16.08-14.62,21-23.38,4.91-8.75,8.41-18.46,10.5-29.12,2.08-10.66,3.62-22.16,4.62-34.5ZM5.25,95.5h223.25v17.75H5.25v-17.75ZM26,18.5l17-6.25c4.16,6.34,8.33,13.21,12.5,20.62,4.16,7.42,7.88,14.71,11.12,21.88,3.25,7.17,5.62,13.59,7.12,19.25l-18.25,7c-1.34-5.5-3.54-11.88-6.62-19.12-3.09-7.25-6.59-14.66-10.5-22.25-3.92-7.58-8.04-14.62-12.38-21.12ZM106.25,0h19v102.75h-19V0ZM138.25,108.75h18.75v93.25c0,4,.71,6.62,2.12,7.88,1.41,1.25,4.62,1.88,9.62,1.88h32.75c3.33,0,5.83-1,7.5-3,1.66-2,2.83-6,3.5-12,.66-6,1.16-15,1.5-27,1.33,1.17,3.04,2.25,5.12,3.25,2.08,1,4.25,1.92,6.5,2.75,2.25.84,4.21,1.5,5.88,2-.84,13.5-2.09,24.04-3.75,31.62-1.67,7.58-4.46,12.83-8.38,15.75-3.92,2.91-9.38,4.38-16.38,4.38h-36.25c-7.5,0-13.34-.79-17.5-2.38-4.17-1.59-7.04-4.38-8.62-8.38-1.59-4-2.38-9.58-2.38-16.75v-93.25ZM190.25,9.5l19.5,7c-3.5,7.17-7.25,14.67-11.25,22.5-4,7.84-8.04,15.34-12.12,22.5-4.09,7.17-7.96,13.42-11.62,18.75l-16-6.25c3.66-5.66,7.46-12.25,11.38-19.75,3.91-7.5,7.66-15.21,11.25-23.12,3.58-7.91,6.54-15.12,8.88-21.62Z" style="fill: #231f20; stroke-width: 0px;"/>
</svg>