<?xml version="1.0" encoding="UTF-8"?>
<svg id="Layer_1" data-name="Layer 1" xmlns="http://www.w3.org/2000/svg" viewBox="0 0 231.5 227.75">
  <path d="M52.5,179.25c5.83,9.17,14.16,16,25,20.5,10.83,4.5,23.58,7.09,38.25,7.75,7,.17,15.5.29,25.5.38,10,.09,20.5.09,31.5,0,11-.08,21.66-.29,32-.62,10.33-.33,19.25-.75,26.75-1.25-.67,1.34-1.42,3.09-2.25,5.25-.84,2.16-1.59,4.41-2.25,6.75-.67,2.33-1.17,4.5-1.5,6.5-7,.16-15.29.38-24.88.62-9.59.25-19.54.41-29.88.5-10.34.08-20.34.04-30-.12-9.67-.17-17.92-.34-24.75-.5-16.5-.67-30.59-3.34-42.25-8-11.67-4.67-21.42-11.91-29.25-21.75-5.5,5.34-11.12,10.71-16.88,16.12s-11.71,10.88-17.88,16.38L0,209.25c5.5-4,11.46-8.62,17.88-13.88,6.41-5.25,12.46-10.62,18.12-16.12h16.5ZM52.5,98.5v88.5h-18.25v-71H2.5v-17.5h50ZM5,16.5l14.25-10.5c5.16,3.84,10.38,8.17,15.62,13,5.25,4.84,10.08,9.67,14.5,14.5,4.41,4.84,7.88,9.34,10.38,13.5l-15.25,11.75c-2.34-4.16-5.67-8.79-10-13.88-4.34-5.08-9.04-10.08-14.12-15-5.09-4.91-10.21-9.38-15.38-13.38ZM134.25,123.75l16.75,5.25c-5.67,8.17-12.62,15.75-20.88,22.75s-17.12,13.34-26.62,19c-9.5,5.67-19.09,10.59-28.75,14.75-.67-1.16-1.71-2.66-3.12-4.5-1.42-1.83-2.84-3.66-4.25-5.5-1.42-1.83-2.71-3.33-3.88-4.5,9.16-3.33,18.25-7.38,27.25-12.12s17.29-10.08,24.88-16c7.58-5.91,13.79-12.29,18.62-19.12ZM64.5,51h161.25v14.5H64.5v-14.5ZM78.25,19h132.5v14.25H78.25v-14.25ZM85.25,79h119.25v52.5h-119.25v-52.5ZM102.75,92.75v25h83.75v-25h-83.75ZM134.25,124h18v73.25h-18v-73.25ZM134.75,0h18.25v60h-18.25V0ZM151.75,129.5c4.83,7.5,11.04,14.46,18.62,20.88,7.58,6.42,16.25,12,26,16.75s19.88,8.46,30.38,11.12c-2,1.5-4,3.67-6,6.5-2,2.84-3.59,5.42-4.75,7.75-11-3.33-21.5-7.83-31.5-13.5-10-5.66-19-12.38-27-20.12s-14.59-16.21-19.75-25.38l14-4ZM208.25,127.25l14.25,9c-6.5,5-13.54,9.92-21.12,14.75-7.59,4.84-14.62,8.92-21.12,12.25l-11-7.75c4.16-2.5,8.66-5.38,13.5-8.62,4.83-3.25,9.5-6.62,14-10.12s8.33-6.66,11.5-9.5Z" style="fill: #231f20; stroke-width: 0px;"/>
</svg>