<?xml version="1.0" encoding="UTF-8"?>
<svg id="Layer_1" data-name="Layer 1" xmlns="http://www.w3.org/2000/svg" viewBox="0 0 225.75 230.58">
  <path d="M200.25,11.5l15.25,8.75c-16.84,20.34-36.12,39.04-57.88,56.12-21.75,17.09-45,32.42-69.75,46-24.75,13.59-49.96,25.29-75.62,35.12-.84-1.33-2-2.96-3.5-4.88-1.5-1.91-3-3.79-4.5-5.62-1.5-1.83-2.92-3.33-4.25-4.5,26.16-9,51.54-20.04,76.12-33.12,24.58-13.08,47.5-27.88,68.75-44.38s39.71-34.33,55.38-53.5ZM10.5,74h215.25v16.5H10.5v-16.5ZM29.75,29.5h142v16H29.75v-16ZM71,107l18.75,2c-1.84,8.17-3.84,16.75-6,25.75-2.17,9-4.34,17.71-6.5,26.12-2.17,8.42-4.25,15.79-6.25,22.12l-18.75-2.75c2.16-6.33,4.38-13.71,6.62-22.12,2.25-8.41,4.46-17.12,6.62-26.12,2.16-9,4-17.33,5.5-25ZM68.25,154.75h117v16h-121l4-16ZM187.25,106.25l12,13c-10.5,2.84-22.54,5.34-36.12,7.5-13.59,2.17-27.67,4.09-42.25,5.75-14.59,1.67-28.71,3-42.38,4-.34-2-.96-4.29-1.88-6.88-.92-2.58-1.79-4.71-2.62-6.38,9.83-.83,20-1.83,30.5-3,10.5-1.16,20.83-2.46,31-3.88,10.16-1.41,19.71-3,28.62-4.75,8.91-1.75,16.62-3.54,23.12-5.38ZM93.25,0h18.5v82h-18.5V0ZM180,154.75h19c-.17,2.17-.29,3.92-.38,5.25-.09,1.34-.29,2.42-.62,3.25-1.84,12.34-3.75,22.54-5.75,30.62-2,8.09-4.12,14.54-6.38,19.38s-4.71,8.5-7.38,11c-2.67,2.33-5.46,3.91-8.38,4.75-2.92.83-6.62,1.25-11.12,1.25-3.67.33-8.96.41-15.88.25-6.92-.17-14.29-.42-22.12-.75-.17-2.67-.79-5.62-1.88-8.88-1.09-3.25-2.38-6.12-3.88-8.62,7.83.83,15.38,1.38,22.62,1.62s12.38.38,15.38.38c2.5,0,4.58-.17,6.25-.5,1.66-.34,3.16-1,4.5-2,3.16-2.5,6.04-7.91,8.62-16.25,2.58-8.33,5.04-21.08,7.38-38.25v-2.5Z" style="fill: #231f20; stroke-width: 0px;"/>
</svg>