<?xml version="1.0" encoding="UTF-8"?>
<svg id="Layer_1" data-name="Layer 1" xmlns="http://www.w3.org/2000/svg" viewBox="0 0 232.5 231">
  <path d="M70.5,53.75l17.75,6.5c-6.34,10.5-13.67,21-22,31.5-8.34,10.5-17.04,20.29-26.12,29.38s-18.04,17.21-26.88,24.38c-1-1.33-2.29-3-3.88-5-1.59-2-3.21-4-4.88-6-1.67-2-3.17-3.58-4.5-4.75,8.66-6.16,17.29-13.33,25.88-21.5,8.58-8.16,16.75-16.91,24.5-26.25,7.75-9.33,14.46-18.75,20.12-28.25ZM60.5,0l18,7.5c-5.5,7.17-11.88,14.54-19.12,22.12-7.25,7.59-14.84,14.84-22.75,21.75-7.92,6.92-15.62,13.04-23.12,18.38-.84-1.33-1.88-2.96-3.12-4.88-1.25-1.91-2.59-3.83-4-5.75-1.42-1.91-2.71-3.38-3.88-4.38,7-4.83,14.12-10.33,21.38-16.5,7.25-6.16,14.08-12.58,20.5-19.25,6.41-6.66,11.79-13,16.12-19ZM41.75,103.75l16.5-16.5,2,1v142.75h-18.5v-127.25ZM91.5,84.25h141v18H91.5v-18ZM102.5,15.25h123v18h-123V15.25ZM175.75,89.75h19v116.5c0,5.83-.84,10.29-2.5,13.38-1.67,3.08-4.59,5.46-8.75,7.12-4.34,1.33-10.21,2.12-17.62,2.38-7.42.25-17.29.38-29.62.38-.34-2.5-1.09-5.5-2.25-9-1.17-3.5-2.5-6.67-4-9.5,6,.16,11.66.33,17,.5,5.33.16,10,.21,14,.12,4-.09,6.75-.12,8.25-.12,2.33-.17,4-.62,5-1.38s1.5-2.12,1.5-4.12v-116.25Z" style="fill: #231f20; stroke-width: 0px;"/>
</svg>