<?xml version="1.0" encoding="UTF-8"?>
<svg id="Layer_1" data-name="Layer 1" xmlns="http://www.w3.org/2000/svg" viewBox="0 0 217.25 230.25">
  <path d="M0,24h217.25v16.5H0v-16.5ZM11.25,121.75h185.75v16H29.5v92.5H11.25v-108.5ZM41.5,54.5h134.75v51.75H41.5v-51.75ZM59.5,68.25v24h98v-24H59.5ZM61.25,154h16.5v65.75h-16.5v-65.75ZM70,154h86.5v53h-86.5v-13.75h69.75v-25.5h-69.75v-13.75ZM97.75,0h19.25v32h-19.25V0ZM189.25,121.75h18.75v86c0,5.16-.71,9.25-2.12,12.25-1.42,3-4.12,5.25-8.12,6.75s-9.46,2.38-16.38,2.62c-6.92.25-15.62.38-26.12.38-.34-2.67-1.09-5.67-2.25-9-1.17-3.34-2.42-6.25-3.75-8.75,8.16.16,15.46.29,21.88.38,6.41.08,10.62.04,12.62-.12,2.16-.17,3.62-.59,4.38-1.25.75-.67,1.12-1.83,1.12-3.5v-85.75Z" style="fill: #231f20; stroke-width: 0px;"/>
</svg>