<?xml version="1.0" encoding="UTF-8"?>
<svg id="Layer_1" data-name="Layer 1" xmlns="http://www.w3.org/2000/svg" viewBox="0 0 223.25 230.75">
  <path d="M0,63h223.25v17.25H0v-17.25ZM74.25,188.25l17,11c-6.67,4.17-14.42,8.21-23.25,12.12-8.84,3.91-17.96,7.54-27.38,10.88-9.42,3.33-18.38,6.16-26.88,8.5-1.5-2-3.5-4.34-6-7-2.5-2.67-4.75-4.84-6.75-6.5,8.5-2.34,17.38-5.09,26.62-8.25s18.04-6.58,26.38-10.25c8.33-3.66,15.08-7.16,20.25-10.5ZM18,22h188.75v17H18v-17ZM27,98.5h170.25v85.5H27v-85.5ZM45.25,112.25v22h133.25v-22H45.25ZM45.25,147.75v22.25h133.25v-22.25H45.25ZM62.25,0h18.75v71.25h-18.75V0ZM101.5,72.25h19.25v104.75h-19.25v-104.75ZM134.25,200l11-11.75c9.33,3,18.71,6.25,28.12,9.75,9.41,3.5,18.29,6.88,26.62,10.12,8.33,3.25,15.58,6.38,21.75,9.38l-13.75,12.5c-5.84-2.84-12.67-5.92-20.5-9.25-7.84-3.34-16.34-6.79-25.5-10.38-9.17-3.58-18.42-7.04-27.75-10.38ZM142.25,0h19v71.25h-19V0Z" style="fill: #231f20; stroke-width: 0px;"/>
</svg>