<?xml version="1.0" encoding="UTF-8"?>
<svg id="Layer_1" data-name="Layer 1" xmlns="http://www.w3.org/2000/svg" viewBox="0 0 235 229.75">
  <path d="M116,18.5c-6.84,10.17-15.71,20.67-26.62,31.5-10.92,10.84-23,21.25-36.25,31.25s-27.04,18.84-41.38,26.5c-.84-1.33-1.92-2.91-3.25-4.75-1.34-1.83-2.75-3.66-4.25-5.5-1.5-1.83-2.92-3.33-4.25-4.5,14.66-7.5,28.79-16.41,42.38-26.75,13.58-10.33,25.83-21.25,36.75-32.75,10.91-11.5,19.62-22.66,26.12-33.5h19.25c6.66,9.34,14.29,18.42,22.88,27.25,8.58,8.84,17.75,17.17,27.5,25,9.75,7.84,19.75,14.96,30,21.38,10.25,6.42,20.29,11.79,30.12,16.12-2.17,2.34-4.34,5-6.5,8-2.17,3-4.17,5.92-6,8.75-9.84-5.33-19.75-11.33-29.75-18-10-6.66-19.75-13.88-29.25-21.62s-18.34-15.75-26.5-24c-8.17-8.25-15.17-16.38-21-24.38ZM40.5,129.5h153v100.25h-19v-83.25H59v83.25h-18.5v-100.25ZM49,202.5h134v16.75H49v-16.75ZM53.5,81.25h126.25v16.75H53.5v-16.75Z" style="fill: #231f20; stroke-width: 0px;"/>
</svg>