<?xml version="1.0" encoding="UTF-8"?>
<svg id="Layer_1" data-name="Layer 1" xmlns="http://www.w3.org/2000/svg" viewBox="0 0 231.25 225.5">
  <path d="M114,61c-6.67,10.5-15.38,21.34-26.12,32.5-10.75,11.17-22.67,21.84-35.75,32-13.09,10.17-26.62,19.17-40.62,27-1.17-2.16-2.88-4.66-5.12-7.5-2.25-2.83-4.38-5.16-6.38-7,14.33-7.5,28.21-16.54,41.62-27.12,13.41-10.58,25.54-21.79,36.38-33.62,10.83-11.83,19.41-23.41,25.75-34.75h18.5c6.66,9.67,14.21,19.04,22.62,28.12,8.41,9.09,17.41,17.71,27,25.88,9.58,8.17,19.41,15.5,29.5,22,10.08,6.5,20.04,12.09,29.88,16.75-2.34,2.17-4.54,4.75-6.62,7.75-2.09,3-3.96,5.84-5.62,8.5-12.84-7-25.88-15.46-39.12-25.38-13.25-9.91-25.59-20.5-37-31.75-11.42-11.25-21.04-22.38-28.88-33.38ZM72.25.75l18.25,6.5c-5.67,8.34-12.25,16.5-19.75,24.5s-15.29,15.54-23.38,22.62c-8.09,7.09-16.04,13.29-23.88,18.62-1-1.16-2.46-2.58-4.38-4.25-1.92-1.66-3.84-3.38-5.75-5.12-1.92-1.75-3.62-3.12-5.12-4.12,8-4.83,15.91-10.38,23.75-16.62,7.83-6.25,15.21-13,22.12-20.25,6.91-7.25,12.96-14.54,18.12-21.88ZM45,125h141.25v100h-19.75v-83.25h-102.5v83.75h-19v-100.5ZM52.25,198.5h125.75v16.75H52.25v-16.75ZM137.75,10.25l14.5-10.25c8.16,5.5,16.58,11.75,25.25,18.75,8.66,7,16.83,14,24.5,21,7.66,7,13.83,13.42,18.5,19.25l-15.75,11.5c-4.5-5.66-10.42-12.08-17.75-19.25-7.34-7.16-15.34-14.33-24-21.5-8.67-7.16-17.09-13.66-25.25-19.5Z" style="fill: #231f20; stroke-width: 0px;"/>
</svg>