<?xml version="1.0" encoding="UTF-8"?>
<svg id="Layer_1" data-name="Layer 1" xmlns="http://www.w3.org/2000/svg" viewBox="0 0 207 218.75">
  <path d="M0,0h207v218.75h-19.75V17.5H19v201.25H0V0ZM10,188.75h186.25v17.5H10v-17.5ZM35.5,149.75h137.25v16H35.5v-16ZM39,38.75h128.5v16.75H39v-16.75ZM46,91.25h115.5v16.25H46v-16.25ZM93.25,44h17.75v114.5h-17.75V44ZM126.5,118.75l12.25-6.75c4.83,4,9.62,8.59,14.38,13.75,4.75,5.17,8.46,9.75,11.12,13.75l-13,7.75c-2.5-4-6.09-8.71-10.75-14.12-4.67-5.41-9.34-10.21-14-14.38Z" style="fill: #231f20; stroke-width: 0px;"/>
</svg>