<?xml version="1.0" encoding="UTF-8"?>
<svg id="Layer_1" data-name="Layer 1" xmlns="http://www.w3.org/2000/svg" viewBox="0 0 225.25 222">
  <path d="M29.5,171.75l17.75,4.5c-3,8.5-7.12,16.92-12.38,25.25s-11.21,15.16-17.88,20.5L0,214c6.33-4.67,12.08-10.79,17.25-18.38,5.16-7.58,9.25-15.54,12.25-23.88ZM1,148h223v16.25H1v-16.25ZM22.25,111.5h183v15.25H22.25v-15.25ZM28.25,0h169.5v93.25H28.25V0ZM46.25,15v24.25h132.75V15H46.25ZM46.25,53.5v24.75h132.75v-24.75H46.25ZM73,178.75l17-1.5c1.66,6.5,3,13.59,4,21.25s1.5,14,1.5,19l-18.25,2.25c0-5.17-.38-11.62-1.12-19.38s-1.79-14.96-3.12-21.62ZM102.25,7h18.75v150.75h-18.75V7ZM123.75,179.25l17.25-3.5c3,6.17,5.88,13.04,8.62,20.62s4.62,13.96,5.62,19.12l-18.25,4.25c-1-5.34-2.79-11.84-5.38-19.5-2.59-7.66-5.21-14.66-7.88-21ZM174.5,178.25l17.25-6.25c4.16,4.17,8.38,8.79,12.62,13.88,4.25,5.09,8.21,10.09,11.88,15,3.66,4.91,6.66,9.38,9,13.38l-18.25,7.25c-2.17-4-5-8.46-8.5-13.38-3.5-4.92-7.34-10.04-11.5-15.38-4.17-5.33-8.34-10.16-12.5-14.5Z" style="fill: #231f20; stroke-width: 0px;"/>
</svg>