<?xml version="1.0" encoding="UTF-8"?>
<svg id="Layer_1" data-name="Layer 1" xmlns="http://www.w3.org/2000/svg" viewBox="0 0 233.25 231.75">
  <path d="M115,18.75c-5,7.67-11.21,15.75-18.62,24.25-7.42,8.5-15.62,17-24.62,25.5s-18.59,16.67-28.75,24.5c-10.17,7.84-20.59,14.92-31.25,21.25-.84-1.5-1.92-3.12-3.25-4.88-1.34-1.75-2.75-3.54-4.25-5.38-1.5-1.83-2.92-3.33-4.25-4.5,10.83-6.16,21.41-13.25,31.75-21.25,10.33-8,20.12-16.46,29.38-25.38,9.25-8.91,17.62-17.88,25.12-26.88S99.91,8.34,104.75,0h18.75c6.5,9.34,14,18.62,22.5,27.88s17.62,18.12,27.38,26.62,19.75,16.38,30,23.62,20.21,13.46,29.88,18.62c-2.34,2.17-4.59,4.71-6.75,7.62-2.17,2.92-4.09,5.79-5.75,8.62-9.67-5.83-19.54-12.5-29.62-20-10.09-7.5-19.88-15.46-29.38-23.88-9.5-8.41-18.25-16.91-26.25-25.5-8-8.58-14.84-16.88-20.5-24.88ZM29.25,128.75h151.75v18H29.25v-18ZM61.5,79.75h109.5v17.5H61.5v-17.5ZM177.25,128.75h2.75l3.5-1,14.75,4.5c-4,9.17-8.62,19.54-13.88,31.12-5.25,11.59-10.75,23.25-16.5,35s-11.29,22.88-16.62,33.38l-19.5-5.5c4-7.67,8.16-15.88,12.5-24.62,4.33-8.75,8.58-17.46,12.75-26.12,4.16-8.66,8-16.83,11.5-24.5,3.5-7.66,6.41-14.25,8.75-19.75v-2.5Z" style="fill: #231f20; stroke-width: 0px;"/>
</svg>