<?xml version="1.0" encoding="UTF-8"?>
<svg id="Layer_1" data-name="Layer 1" xmlns="http://www.w3.org/2000/svg" viewBox="0 0 226 230.75">
  <path d="M186,80.25l18.25,11.5c-11.5,11-24.62,21.46-39.38,31.38-14.75,9.92-30.5,19.12-47.25,27.62s-34.17,16.21-52.25,23.12c-18.09,6.92-36.29,12.96-54.62,18.12-.84-1.66-1.88-3.54-3.12-5.62-1.25-2.08-2.54-4.16-3.88-6.25-1.34-2.08-2.59-3.79-3.75-5.12,18-4.66,35.96-10.29,53.88-16.88,17.91-6.58,35.12-14,51.62-22.25s31.66-17.08,45.5-26.5c13.83-9.41,25.5-19.12,35-29.12ZM8.5,49h217.5v18.5H8.5v-18.5ZM112,.25l19.5-.25,1.5,203.75c0,7-.96,12.21-2.88,15.62-1.92,3.41-5.12,5.96-9.62,7.62-4.5,1.66-10.79,2.66-18.88,3-8.09.33-18.12.58-30.12.75-.34-1.84-.92-3.96-1.75-6.38-.84-2.42-1.79-4.79-2.88-7.12-1.09-2.34-2.12-4.42-3.12-6.25,6.33.16,12.41.25,18.25.25s10.91-.04,15.25-.12c4.33-.09,7.33-.12,9-.12,2.83-.17,4.75-.71,5.75-1.62,1-.91,1.5-2.62,1.5-5.12L112,.25Z" style="fill: #231f20; stroke-width: 0px;"/>
</svg>