<?xml version="1.0" encoding="UTF-8"?>
<svg id="Layer_1" data-name="Layer 1" xmlns="http://www.w3.org/2000/svg" viewBox="0 0 231.5 229.5">
  <path d="M57.5,0l17.5,5.25c-5,14-10.88,27.79-17.62,41.38-6.75,13.59-14.09,26.38-22,38.38-7.92,12-16.12,22.75-24.62,32.25-.67-1.5-1.62-3.41-2.88-5.75-1.25-2.33-2.59-4.71-4-7.12-1.42-2.41-2.71-4.29-3.88-5.62,7.83-8.16,15.29-17.54,22.38-28.12,7.08-10.58,13.62-21.88,19.62-33.88S53.16,12.5,57.5,0ZM34,65.25l18.25-18.5.25.25v182.5h-18.5V65.25ZM75.75,24h155.75v18H75.75v-18ZM83,77.25h17.75v104h-17.75v-104ZM91.25,77.25h70.25v86.5h-70.25v-16.5h52.75v-53.25h-52.75v-16.75ZM194.25,30.75h18.75v173.25c0,6.5-.92,11.41-2.75,14.75-1.84,3.33-5.09,5.83-9.75,7.5-4.5,1.33-10.92,2.21-19.25,2.62-8.34.41-18.67.62-31,.62-.34-2.84-1.17-6.09-2.5-9.75-1.34-3.67-2.75-6.92-4.25-9.75,6.66.16,13,.33,19,.5,6,.16,11.21.21,15.62.12,4.41-.09,7.54-.21,9.38-.38,2.66,0,4.46-.46,5.38-1.38.91-.91,1.38-2.62,1.38-5.12V30.75Z" style="fill: #231f20; stroke-width: 0px;"/>
</svg>