<?xml version="1.0" encoding="UTF-8"?>
<svg id="Layer_1" data-name="Layer 1" xmlns="http://www.w3.org/2000/svg" viewBox="0 0 225 230">
  <path d="M0,110.75c11.5-.66,25.25-1.54,41.25-2.62,16-1.08,32.33-2.21,49-3.38v15.25c-15.5,1.34-30.92,2.71-46.25,4.12-15.34,1.42-29,2.62-41,3.62l-3-17ZM15.75,143l16,2.75c-1.5,11.84-3.71,23.46-6.62,34.88-2.92,11.42-6.38,21.12-10.38,29.12-1-.66-2.42-1.46-4.25-2.38-1.84-.91-3.71-1.83-5.62-2.75-1.92-.91-3.54-1.62-4.88-2.12,4-7.66,7.25-16.79,9.75-27.38,2.5-10.58,4.5-21.29,6-32.12ZM2,53.5l9.25-12.5c4.66,3.84,9.29,8.04,13.88,12.62,4.58,4.59,8.83,9.09,12.75,13.5,3.91,4.42,6.96,8.46,9.12,12.12l-10,14.25c-2-3.83-4.96-8.12-8.88-12.88-3.92-4.75-8.12-9.5-12.62-14.25s-9-9.04-13.5-12.88ZM42,0l16.75,6.75c-3.17,6.17-6.59,12.59-10.25,19.25-3.67,6.67-7.34,13.09-11,19.25-3.67,6.17-7.17,11.67-10.5,16.5l-13-6c3.16-4.83,6.5-10.54,10-17.12,3.5-6.58,6.83-13.25,10-20,3.16-6.75,5.83-12.96,8-18.62ZM72.75,29l16,7.5c-5.84,9.17-12.34,18.96-19.5,29.38-7.17,10.42-14.38,20.46-21.62,30.12-7.25,9.67-14.12,18.09-20.62,25.25l-11.5-6.5c4.66-5.66,9.66-12.04,15-19.12,5.33-7.08,10.54-14.5,15.62-22.25,5.08-7.75,9.91-15.46,14.5-23.12,4.58-7.66,8.62-14.75,12.12-21.25ZM44.25,118h17v112h-17v-112ZM65.75,86l14-6c3.83,5.34,7.46,11.12,10.88,17.38,3.41,6.25,6.5,12.34,9.25,18.25,2.75,5.92,4.79,11.21,6.12,15.88l-15,7.25c-1.34-4.66-3.34-10.04-6-16.12-2.67-6.08-5.62-12.29-8.88-18.62-3.25-6.33-6.71-12.33-10.38-18ZM70.25,146.75l14.25-4.75c3.66,7.67,7.12,16.04,10.38,25.12,3.25,9.09,5.54,16.88,6.88,23.38l-15.5,5.25c-.67-4.5-1.88-9.54-3.62-15.12-1.75-5.58-3.67-11.33-5.75-17.25-2.09-5.91-4.29-11.46-6.62-16.62ZM106.75,20.25h118.25v204.75h-17.75V37.75h-83.5v189.25h-17V20.25ZM115.75,107h99.25v17h-99.25v-17ZM115.75,196h98.75v17.5h-98.75v-17.5ZM156,28h17v178.75h-17V28Z" style="fill: #231f20; stroke-width: 0px;"/>
</svg>