<?xml version="1.0" encoding="UTF-8"?>
<svg id="Layer_1" data-name="Layer 1" xmlns="http://www.w3.org/2000/svg" viewBox="0 0 231.5 228.75">
  <path d="M62.25,0l18,5.5c-5.34,14-11.67,27.96-19,41.88-7.34,13.92-15.25,26.92-23.75,39-8.5,12.09-17.34,22.88-26.5,32.38-.67-1.5-1.67-3.46-3-5.88-1.34-2.41-2.71-4.88-4.12-7.38-1.42-2.5-2.71-4.41-3.88-5.75,8.33-8.16,16.33-17.58,24-28.25,7.66-10.66,14.79-22.12,21.38-34.38,6.58-12.25,12.21-24.62,16.88-37.12ZM35.75,64.25l18.5-18.75.25.5v182.5h-18.75V64.25ZM122.5,2l18,4.75c-4.67,13.17-10.12,26.12-16.38,38.88s-12.96,24.71-20.12,35.88c-7.17,11.17-14.59,21.09-22.25,29.75-1-1-2.38-2.33-4.12-4-1.75-1.66-3.59-3.33-5.5-5-1.92-1.66-3.54-2.91-4.88-3.75,7.5-7.83,14.66-16.91,21.5-27.25,6.83-10.33,13.12-21.41,18.88-33.25,5.75-11.83,10.71-23.83,14.88-36ZM112.75,40.75h118.75v18h-127.5l8.75-18ZM134.75,46.75h19v182h-19V46.75ZM144,95h81.75v17.25h-81.75v-17.25ZM144,150.25h85v17.75h-85v-17.75Z" style="fill: #231f20; stroke-width: 0px;"/>
</svg>