<?xml version="1.0" encoding="UTF-8"?>
<svg id="Layer_1" data-name="Layer 1" xmlns="http://www.w3.org/2000/svg" viewBox="0 0 228.25 231.5">
  <path d="M37,0l17.5,4.75c-4.67,10.84-10.54,21.38-17.62,31.62-7.09,10.25-14.29,18.88-21.62,25.88-1-1-2.46-2.16-4.38-3.5-1.92-1.33-3.84-2.62-5.75-3.88-1.92-1.25-3.62-2.29-5.12-3.12,7.5-6.5,14.54-14.29,21.12-23.38,6.58-9.08,11.88-18.54,15.88-28.38ZM5.25,173.25h223v15.5H5.25v-15.5ZM69,148h19v20.25c0,5.34-.79,10.84-2.38,16.5-1.59,5.67-4.71,11.29-9.38,16.88-4.67,5.59-11.42,10.91-20.25,16-8.84,5.08-20.5,9.71-35,13.88-1.34-2-3.12-4.42-5.38-7.25-2.25-2.84-4.38-5.09-6.38-6.75,13.5-3.34,24.21-7.04,32.12-11.12,7.91-4.08,13.88-8.38,17.88-12.88s6.62-8.96,7.88-13.38c1.25-4.41,1.88-8.54,1.88-12.38v-19.75ZM32.25,19.75h80.75v15.5H32.25v-15.5ZM35.5,58h166.25v93.5H35.5V58ZM48.25,32l15.75-5.25c3,3.84,6,8.21,9,13.12,3,4.92,5.16,9.21,6.5,12.88l-16.25,6c-1.34-3.5-3.42-7.79-6.25-12.88-2.84-5.08-5.75-9.71-8.75-13.88ZM54.25,70.75v14.25h128v-14.25H54.25ZM54.25,97v14.75h128v-14.75H54.25ZM54.25,123.75v15h128v-15H54.25ZM135.25,0l18,4.25c-4,10.84-9.29,21-15.88,30.5-6.59,9.5-13.46,17.5-20.62,24-1.17-1-2.79-2.08-4.88-3.25-2.09-1.16-4.17-2.29-6.25-3.38-2.09-1.08-3.88-1.96-5.38-2.62,7.5-6,14.33-13.38,20.5-22.12,6.16-8.75,11-17.88,14.5-27.38ZM128.5,19.75h97.75v15.5h-97.75v-15.5ZM151.75,148.25h19.25v82.5h-19.25v-82.5ZM153.25,31.25l15.25-6.5c4,3.84,8.12,8.29,12.38,13.38,4.25,5.09,7.38,9.62,9.38,13.62l-15.75,7.25c-1.84-3.83-4.79-8.38-8.88-13.62-4.09-5.25-8.21-9.96-12.38-14.12Z" style="fill: #231f20; stroke-width: 0px;"/>
</svg>