<?xml version="1.0" encoding="UTF-8"?>
<svg id="Layer_1" data-name="Layer 1" xmlns="http://www.w3.org/2000/svg" viewBox="0 0 225 232">
  <path d="M0,36h225v18.25H0v-18.25ZM25.5,88.25h164.25v18.25H44.25v93.75h-18.75v-112ZM101.5,0h20v47h-20V0ZM101.75,52.75h19.5v179.25h-19.5V52.75ZM182.5,88.25h19.25v88.25c0,5.34-.71,9.5-2.12,12.5-1.42,3-4.29,5.34-8.62,7-4.17,1.5-9.88,2.42-17.12,2.75-7.25.34-16.21.5-26.88.5-.34-2.83-1.21-5.96-2.62-9.38-1.42-3.41-2.71-6.46-3.88-9.12,5.66.17,11,.29,16,.38,5,.09,9.29.12,12.88.12h7.62c2.16-.16,3.62-.62,4.38-1.38s1.12-1.96,1.12-3.62v-88Z" style="fill: #231f20; stroke-width: 0px;"/>
</svg>