<?xml version="1.0" encoding="UTF-8"?>
<svg id="Layer_1" data-name="Layer 1" xmlns="http://www.w3.org/2000/svg" viewBox="0 0 231.25 231.75">
  <path d="M103.25,41h19.5v51.5c0,9.84-.67,19.88-2,30.12-1.34,10.25-4.12,20.5-8.38,30.75s-10.46,20.09-18.62,29.5c-8.17,9.42-18.96,18.29-32.38,26.62-13.42,8.33-30.21,15.75-50.38,22.25-.5-1.5-1.42-3.25-2.75-5.25-1.34-2-2.71-3.96-4.12-5.88-1.42-1.92-2.79-3.46-4.12-4.62,18.66-6.16,34.29-13,46.88-20.5,12.58-7.5,22.62-15.46,30.12-23.88,7.5-8.41,13.16-17.16,17-26.25,3.83-9.08,6.33-18.08,7.5-27,1.16-8.91,1.75-17.71,1.75-26.38v-51ZM4.25,108.25h222v18.75H4.25v-18.75ZM53.25,0l19.25,4.25c-3.67,12-8.09,23.71-13.25,35.12-5.17,11.42-10.79,22-16.88,31.75-6.09,9.75-12.46,18.29-19.12,25.62-1.34-1-3.09-2.12-5.25-3.38-2.17-1.25-4.38-2.5-6.62-3.75s-4.21-2.29-5.88-3.12c7-6.83,13.5-14.83,19.5-24,6-9.16,11.38-19.12,16.12-29.88S49.91,11,53.25,0ZM51.25,32.75h156.75v18.75H42.25l9-18.75ZM125.75,114.5c7.16,26.17,19.29,47.62,36.38,64.38,17.08,16.75,40.12,28.38,69.12,34.88-1.5,1.33-3.09,3-4.75,5-1.67,2-3.17,4.08-4.5,6.25-1.34,2.16-2.42,4.16-3.25,6-20.17-5.34-37.46-12.96-51.88-22.88-14.42-9.91-26.38-22.38-35.88-37.38s-17.09-32.41-22.75-52.25l17.5-4Z" style="fill: #231f20; stroke-width: 0px;"/>
</svg>