<?xml version="1.0" encoding="UTF-8"?>
<svg id="Layer_1" data-name="Layer 1" xmlns="http://www.w3.org/2000/svg" viewBox="0 0 230 230.25">
  <path d="M0,51.5h76.75v17.5H0v-17.5ZM70,51.5h3.25l3.25-.5,11,1.75c-1.84,32.5-5.79,60.25-11.88,83.25-6.09,23-14.29,42.17-24.62,57.5-10.34,15.34-22.92,27.58-37.75,36.75-1.34-2.34-3.09-5-5.25-8-2.17-3-4.25-5.42-6.25-7.25,13.33-7.33,24.75-18.08,34.25-32.25,9.5-14.16,17.16-31.83,23-53,5.83-21.16,9.5-46,11-74.5v-3.75ZM34.25,0l18,2c-2.34,12.34-4.88,25.54-7.62,39.62-2.75,14.09-5.67,28.25-8.75,42.5-3.09,14.25-6.12,27.88-9.12,40.88s-5.84,24.75-8.5,35.25l-15.5-8.75c2.5-9.33,5.21-20.25,8.12-32.75,2.91-12.5,5.79-25.62,8.62-39.38,2.83-13.75,5.5-27.46,8-41.12,2.5-13.66,4.75-26.41,6.75-38.25ZM10.75,142l11.25-13.25c8.66,6,17.54,12.67,26.62,20,9.08,7.34,17.54,14.71,25.38,22.12,7.83,7.42,14.08,14.21,18.75,20.38l-12,15.25c-4.5-6.33-10.62-13.33-18.38-21-7.75-7.66-16.12-15.29-25.12-22.88-9-7.58-17.84-14.46-26.5-20.62ZM90,32h140v17H90v-17ZM100.25,77h109v17h-91.5v97.75h-17.5v-114.75ZM150.25,0h18v42.75h-18V0ZM150.25,45.25h18v184.5h-18V45.25ZM202.25,77h18v95.75c0,4.17-.5,7.54-1.5,10.12-1,2.59-3,4.71-6,6.38-2.84,1.5-6.54,2.42-11.12,2.75-4.59.34-10.12.5-16.62.5-.34-2.5-1.04-5.38-2.12-8.62-1.09-3.25-2.21-6.04-3.38-8.38,4.66.17,8.75.25,12.25.25h7.5c2,0,3-1.16,3-3.5v-95.25Z" style="fill: #231f20; stroke-width: 0px;"/>
</svg>