<?xml version="1.0" encoding="UTF-8"?>
<svg id="Layer_1" data-name="Layer 1" xmlns="http://www.w3.org/2000/svg" viewBox="0 0 225.5 213.75">
  <path d="M27.25,137.25l16.75,6c-1.84,6.84-4.12,14.09-6.88,21.75-2.75,7.67-5.84,15.09-9.25,22.25-3.42,7.17-7.21,13.5-11.38,19L0,197.25c4.16-5.33,7.96-11.38,11.38-18.12,3.41-6.75,6.5-13.79,9.25-21.12,2.75-7.33,4.96-14.25,6.62-20.75ZM24,0h175.5v113H24V0ZM41.75,16.75v31.75h139.25v-31.75H41.75ZM41.75,64.25v32h139.25v-32H41.75ZM59.75,138.75h18.75v49.5c0,3.5,1,5.75,3,6.75s6.58,1.5,13.75,1.5h47.75c4.16,0,7.29-.75,9.38-2.25,2.08-1.5,3.54-4.58,4.38-9.25.83-4.66,1.5-11.66,2-21,1.5,1,3.25,2,5.25,3s4.08,1.88,6.25,2.62c2.16.75,4.08,1.29,5.75,1.62-.84,11.34-2.25,20.09-4.25,26.25s-5.12,10.41-9.38,12.75c-4.25,2.33-10.21,3.5-17.88,3.5h-50.75c-8.84,0-15.75-.75-20.75-2.25s-8.46-4.09-10.38-7.75c-1.92-3.67-2.88-8.83-2.88-15.5v-49.5ZM82.75,129l12.5-11.5c6.16,3.17,12.62,6.79,19.38,10.88,6.75,4.09,13.08,8.25,19,12.5,5.91,4.25,10.79,8.29,14.62,12.12l-13.25,13c-3.5-3.66-8.17-7.71-14-12.12-5.84-4.41-12.09-8.79-18.75-13.12-6.67-4.33-13.17-8.25-19.5-11.75ZM102.75,7.25h18.5v98.5h-18.5V7.25ZM173.25,141.5l16.5-7c5,6.34,9.88,13.17,14.62,20.5,4.75,7.34,9,14.59,12.75,21.75,3.75,7.17,6.54,13.67,8.38,19.5l-18.25,7.75c-1.84-5.66-4.5-12.08-8-19.25-3.5-7.16-7.5-14.54-12-22.12-4.5-7.58-9.17-14.62-14-21.12Z" style="fill: #231f20; stroke-width: 0px;"/>
</svg>