<?xml version="1.0" encoding="UTF-8"?>
<svg id="Layer_1" data-name="Layer 1" xmlns="http://www.w3.org/2000/svg" viewBox="0 0 237.25 230">
  <path d="M0,112.5c11.66-.66,25.66-1.58,42-2.75,16.33-1.16,33.08-2.33,50.25-3.5l.25,15c-16.17,1.5-32.09,3-47.75,4.5-15.67,1.5-29.75,2.75-42.25,3.75l-2.5-17ZM16,143l16,2.75c-1.5,11.84-3.71,23.46-6.62,34.88-2.92,11.42-6.38,21.12-10.38,29.12-1-.66-2.42-1.46-4.25-2.38-1.84-.91-3.71-1.83-5.62-2.75-1.92-.91-3.54-1.62-4.88-2.12,4-7.66,7.25-16.79,9.75-27.38,2.5-10.58,4.5-21.29,6-32.12ZM2.25,54l9.25-12.5c4.66,3.67,9.29,7.79,13.88,12.38,4.58,4.59,8.83,9.12,12.75,13.62,3.91,4.5,6.96,8.5,9.12,12l-10,14.5c-2-3.83-4.96-8.12-8.88-12.88-3.92-4.75-8.12-9.5-12.62-14.25s-9-9.04-13.5-12.88ZM42.25,0l16.75,6.75c-3.17,6.17-6.59,12.59-10.25,19.25-3.67,6.67-7.34,13.09-11,19.25-3.67,6.17-7.17,11.67-10.5,16.5l-13-6c3.16-4.83,6.5-10.54,10-17.12,3.5-6.58,6.83-13.25,10-20,3.16-6.75,5.83-12.96,8-18.62ZM73,29l16,7.5c-6,9.34-12.59,19.34-19.75,30-7.17,10.67-14.42,20.92-21.75,30.75-7.34,9.84-14.25,18.5-20.75,26l-11.75-6.75c5-5.66,10.12-12.12,15.38-19.38s10.5-14.83,15.75-22.75c5.25-7.91,10.16-15.79,14.75-23.62,4.58-7.83,8.62-15.08,12.12-21.75ZM44.5,118h17v112h-17v-112ZM65.5,86l13.75-6.25c3.83,5.34,7.58,11,11.25,17,3.66,6,6.96,11.92,9.88,17.75,2.91,5.84,5.12,11.09,6.62,15.75l-14.5,7c-1.5-4.5-3.67-9.71-6.5-15.62-2.84-5.91-6.04-12-9.62-18.25-3.59-6.25-7.21-12.04-10.88-17.38ZM70.75,146.75l14.5-4.75c3.5,7.34,6.83,15.29,10,23.88,3.16,8.59,5.33,16.04,6.5,22.38l-15.5,5.25c-1.17-6.33-3.21-13.88-6.12-22.62-2.92-8.75-6.04-16.79-9.38-24.12ZM92.5,208.5c10.66-2,23.54-4.58,38.62-7.75,15.08-3.16,30.46-6.41,46.12-9.75l2,16c-13.84,3.5-27.75,6.91-41.75,10.25-14,3.33-26.67,6.33-38,9l-7-17.75ZM111.75,20.25l18,6v184h-18V20.25ZM209.25,0l14.75,14.5c-8.84,3.67-18.96,7.09-30.38,10.25-11.42,3.17-23.25,6-35.5,8.5s-24.12,4.67-35.62,6.5c-.34-2.16-1.12-4.66-2.38-7.5-1.25-2.83-2.46-5.33-3.62-7.5,11-2,22.29-4.29,33.88-6.88,11.58-2.58,22.54-5.38,32.88-8.38,10.33-3,19-6.16,26-9.5ZM121.25,95h112v18h-112v-18ZM166.75,24.5h18c.16,19,.58,37.38,1.25,55.12.66,17.75,1.66,34.34,3,49.75,1.33,15.42,3.12,29.09,5.38,41,2.25,11.92,5,21.42,8.25,28.5,3.25,7.09,7.21,11.12,11.88,12.12,2,.66,3.75-2.5,5.25-9.5s2.66-16.41,3.5-28.25c1.16,1.34,2.58,2.62,4.25,3.88,1.66,1.25,3.38,2.46,5.12,3.62,1.75,1.17,3.29,2.17,4.62,3-1.34,13.17-3.46,23.42-6.38,30.75-2.92,7.33-6.42,12-10.5,14-4.09,2-8.62,1.75-13.62-.75-6.67-2-12.21-7.04-16.62-15.12-4.42-8.08-8.04-18.5-10.88-31.25-2.84-12.75-5.04-27.38-6.62-43.88-1.59-16.5-2.84-34.29-3.75-53.38-.92-19.08-1.62-38.96-2.12-59.62Z" style="fill: #231f20; stroke-width: 0px;"/>
</svg>