<?xml version="1.0" encoding="UTF-8"?>
<svg id="Layer_1" data-name="Layer 1" xmlns="http://www.w3.org/2000/svg" viewBox="0 0 224.5 230">
  <path d="M0,81h224.5v17.75H0v-17.75ZM5.5,131.25h215v17.75H5.5v-17.75ZM21.5,30.5h184.75v17.75H21.5v-17.75ZM37.5,164l16.25-10.25c5,4.17,10.04,8.75,15.12,13.75,5.08,5,9.75,10.04,14,15.12,4.25,5.09,7.54,9.79,9.88,14.12l-17.25,11.25c-2.17-4.33-5.29-9.08-9.38-14.25-4.09-5.16-8.62-10.38-13.62-15.62s-10-9.96-15-14.12ZM101.5,0h19.5v86.75h-19.5V0ZM147.25,97h19.25v109.75c0,5.83-.84,10.29-2.5,13.38-1.67,3.08-4.67,5.38-9,6.88-4.34,1.5-10.25,2.38-17.75,2.62s-16.84.38-28,.38c-.34-2.67-1.17-5.75-2.5-9.25-1.34-3.5-2.75-6.59-4.25-9.25,6,.16,11.62.25,16.88.25h21.62c2.5-.17,4.16-.59,5-1.25.83-.66,1.25-2,1.25-4v-109.5Z" style="fill: #231f20; stroke-width: 0px;"/>
</svg>