<?xml version="1.0" encoding="UTF-8"?>
<svg id="Layer_1" data-name="Layer 1" xmlns="http://www.w3.org/2000/svg" viewBox="0 0 234.25 229.75">
  <path d="M47,77.5l11.75,5c-2.5,8.84-5.59,17.96-9.25,27.38-3.67,9.42-7.62,18.75-11.88,28s-8.75,17.92-13.5,26c-4.75,8.09-9.54,14.96-14.38,20.62-1-2.5-2.46-5.41-4.38-8.75-1.92-3.33-3.71-6.16-5.38-8.5,4.66-5,9.25-11,13.75-18s8.88-14.58,13.12-22.75c4.25-8.16,8.12-16.46,11.62-24.88,3.5-8.41,6.33-16.46,8.5-24.12ZM3.75,70.75h97.75v17.5H3.75v-17.5ZM86,3.75l11.5,15c-7.67,3-16.34,5.75-26,8.25-9.67,2.5-19.67,4.71-30,6.62-10.34,1.92-20.34,3.54-30,4.88-.34-2-1.04-4.41-2.12-7.25-1.09-2.83-2.12-5.25-3.12-7.25,9.33-1.66,18.96-3.5,28.88-5.5,9.91-2,19.33-4.29,28.25-6.88,8.91-2.58,16.46-5.21,22.62-7.88ZM46,21h18.5v208.75h-18.5V21ZM63.25,91.5c1.66,1.84,4.21,4.79,7.62,8.88,3.41,4.09,7.04,8.5,10.88,13.25,3.83,4.75,7.38,9.25,10.62,13.5s5.54,7.29,6.88,9.12l-11.5,14.5c-1.5-3-3.71-6.88-6.62-11.62-2.92-4.75-6.09-9.71-9.5-14.88-3.42-5.16-6.67-10-9.75-14.5-3.09-4.5-5.54-7.91-7.38-10.25l8.75-8ZM98.5,162.75l133-21.25,2.75,17.25-133,22-2.75-18ZM108.75,93.75l11.75-11c5.33,3.17,10.91,6.84,16.75,11,5.83,4.17,11.25,8.38,16.25,12.62s9,8.21,12,11.88l-12.5,12.25c-3-3.66-6.96-7.71-11.88-12.12-4.92-4.41-10.21-8.79-15.88-13.12-5.67-4.33-11.17-8.16-16.5-11.5ZM118.75,28.5l12-11c5,3.17,10.12,6.75,15.38,10.75s10.12,8.09,14.62,12.25c4.5,4.17,8.16,8,11,11.5l-13,12c-2.5-3.33-5.96-7.12-10.38-11.38-4.42-4.25-9.21-8.5-14.38-12.75-5.17-4.25-10.25-8.04-15.25-11.38ZM183.5,0h18.5v229.75h-18.5V0Z" style="fill: #231f20; stroke-width: 0px;"/>
</svg>