<?xml version="1.0" encoding="UTF-8"?>
<svg id="Layer_1" data-name="Layer 1" xmlns="http://www.w3.org/2000/svg" viewBox="0 0 172.5 230.75">
  <path d="M0,34.75h172.5v194.75h-19.75V52.75H19v178H0V34.75ZM12.75,90h145.25v17.75H12.75v-17.75ZM12.75,144.5h145.25v17.5H12.75v-17.5ZM12.75,199h145.25v17.75H12.75v-17.75ZM73,0l21.75,3c-2.67,7.5-5.54,15-8.62,22.5-3.09,7.5-6.04,14-8.88,19.5l-16.75-3.25c1.66-4,3.29-8.46,4.88-13.38,1.58-4.91,3.08-9.83,4.5-14.75,1.41-4.91,2.46-9.46,3.12-13.62Z" style="fill: #231f20; stroke-width: 0px;"/>
</svg>