<?xml version="1.0" encoding="UTF-8"?>
<svg id="Layer_1" data-name="Layer 1" xmlns="http://www.w3.org/2000/svg" viewBox="0 0 222 230">
  <path d="M0,16.5h17.5v185H0V16.5ZM9,16.5h62.5v164.5H9v-17h44.75V33.75H9v-17.25ZM9.75,89.25h52.25v17H9.75v-17ZM75.75,78.5h146.25v17H75.75v-17ZM77,123.75h142.5v16.75H77v-16.75ZM86.25,30h125.25v16.75h-125.25v-16.75ZM92.25,158l15-8.75c4.16,4.17,8.41,8.84,12.75,14,4.33,5.17,8.29,10.25,11.88,15.25,3.58,5,6.29,9.59,8.12,13.75l-16,9.75c-1.84-4.16-4.46-8.79-7.88-13.88-3.42-5.08-7.21-10.25-11.38-15.5-4.17-5.25-8.34-10.12-12.5-14.62ZM171.75,92.75h18.5v115.25c0,5.33-.75,9.46-2.25,12.38-1.5,2.91-4.17,5.04-8,6.38-4,1.5-9.25,2.41-15.75,2.75-6.5.33-14.84.5-25,.5-.34-2.5-1.12-5.46-2.38-8.88-1.25-3.42-2.54-6.38-3.88-8.88,7.66.16,14.66.29,21,.38,6.33.08,10.5.04,12.5-.12,2,0,3.38-.34,4.12-1,.75-.67,1.12-1.91,1.12-3.75v-115ZM138.75,0h18.5v89h-18.5V0Z" style="fill: #231f20; stroke-width: 0px;"/>
</svg>