<?xml version="1.0" encoding="UTF-8"?>
<svg id="Layer_1" data-name="Layer 1" xmlns="http://www.w3.org/2000/svg" viewBox="0 0 221.5 223">
  <path d="M0,206h221.5v17H0v-17ZM2.75,19h215.75v46.25h-19v-29H21v29H2.75V19ZM18.25,114.75c13.83-.16,29.91-.46,48.25-.88,18.33-.41,37.83-.91,58.5-1.5,20.66-.58,41.33-1.12,62-1.62l-1,15.75c-20.17.84-40.38,1.62-60.62,2.38s-39.46,1.38-57.62,1.88c-18.17.5-34.34.92-48.5,1.25l-1-17.25ZM22.75,158h177v16.5H22.75v-16.5ZM28.25,61.5h165.75v16.5H28.25v-16.5ZM78.25,70l19.5,5.5c-3.5,5.84-7.21,11.88-11.12,18.12-3.92,6.25-7.88,12.21-11.88,17.88-4,5.67-7.75,10.75-11.25,15.25l-15-5.25c3.5-4.66,7.08-10,10.75-16,3.66-6,7.21-12.12,10.62-18.38,3.41-6.25,6.21-11.96,8.38-17.12ZM100,0h19.25v30.75h-19.25V0ZM100,127.5h19.25v85h-19.25v-85ZM139,93l13.5-9.75c7.16,4.5,14.46,9.59,21.88,15.25,7.41,5.67,14.41,11.38,21,17.12,6.58,5.75,11.88,11.12,15.88,16.12l-14.5,10.5c-3.84-4.83-8.92-10.16-15.25-16-6.34-5.83-13.21-11.71-20.62-17.62-7.42-5.91-14.71-11.12-21.88-15.62Z" style="fill: #231f20; stroke-width: 0px;"/>
</svg>