<?xml version="1.0" encoding="UTF-8"?>
<svg id="Layer_1" data-name="Layer 1" xmlns="http://www.w3.org/2000/svg" viewBox="0 0 237.5 230">
  <path d="M84.5,47h4l3.5-.75,10.5,7c-6.17,15.34-14.25,29.96-24.25,43.88-10,13.92-20.96,26.54-32.88,37.88-11.92,11.34-23.79,20.92-35.62,28.75-.67-1.83-1.59-3.83-2.75-6-1.17-2.16-2.38-4.25-3.62-6.25s-2.38-3.58-3.38-4.75c11.33-6.66,22.5-15.04,33.5-25.12,11-10.08,21.04-21.25,30.12-33.5,9.08-12.25,16.04-24.71,20.88-37.38v-3.75ZM8.5,47h83v17.25H8.5v-17.25ZM48,0h18.75v55.5h-18.75V0ZM48,121.75l18.75-22v130.25h-18.75v-108.25ZM65,104.5c2.16,1.5,5.33,4,9.5,7.5,4.16,3.5,8.66,7.29,13.5,11.38,4.83,4.09,9.25,7.88,13.25,11.38s6.83,6.09,8.5,7.75l-11.5,15.25c-2.17-2.66-5.17-6-9-10-3.84-4-7.96-8.16-12.38-12.5-4.42-4.33-8.62-8.38-12.62-12.12s-7.34-6.71-10-8.88l10.75-9.75ZM96,204.5h141.5v18.25H96v-18.25ZM106,81.75h126v18h-126v-18ZM159.5,2h19.25v211.25h-19.25V2Z" style="fill: #231f20; stroke-width: 0px;"/>
</svg>