<?xml version="1.0" encoding="UTF-8"?>
<svg id="Layer_1" data-name="Layer 1" xmlns="http://www.w3.org/2000/svg" viewBox="0 0 219 220.65">
  <path d="M0,179.75c8.66-2.5,19.08-5.71,31.25-9.62,12.16-3.91,24.66-7.96,37.5-12.12l2.75,14.75c-11.17,4-22.42,8.04-33.75,12.12-11.34,4.09-21.67,7.79-31,11.12l-6.75-16.25ZM17.25,52.25h18.5c-1.17,7.84-2.5,16.17-4,25-1.5,8.84-3.04,17.42-4.62,25.75-1.59,8.34-3.12,15.67-4.62,22l-18.25-3c1.5-6.16,3.08-13.25,4.75-21.25,1.66-8,3.21-16.21,4.62-24.62,1.41-8.41,2.62-16.38,3.62-23.88ZM22.5,52.25h59.25V17H9.5V0h91v69.25H22.5v-17ZM20.5,97.25h71.75v16.25H15.5l5-16.25ZM19.5,129.25l12-9c5.33,4,10.46,8.54,15.38,13.62,4.91,5.09,8.62,9.71,11.12,13.88l-13,10.25c-2.34-4.16-5.92-8.96-10.75-14.38-4.84-5.41-9.75-10.21-14.75-14.38ZM85.5,97.25h18.75c-.17,2-.25,3.67-.25,5s-.09,2.5-.25,3.5c-1.5,23.67-2.96,42.79-4.38,57.38-1.42,14.59-3.04,25.62-4.88,33.12-1.84,7.5-4.09,12.83-6.75,16-2.17,2.5-4.5,4.29-7,5.38-2.5,1.08-5.59,1.79-9.25,2.12-3.17.5-7.42.71-12.75.62-5.34-.09-11-.29-17-.62-.17-2.5-.67-5.34-1.5-8.5-.84-3.17-2-5.92-3.5-8.25,5.83.5,11.12.83,15.88,1,4.75.16,8.29.25,10.62.25,2,0,3.66-.21,5-.62,1.33-.42,2.58-1.29,3.75-2.62,2-2.16,3.79-6.75,5.38-13.75,1.58-7,3.04-17.46,4.38-31.38,1.33-13.91,2.58-32.29,3.75-55.12v-3.5ZM110.75,179c9-2.66,19.91-6.12,32.75-10.38,12.83-4.25,26-8.62,39.5-13.12l2.75,14.25c-11.84,4.5-23.71,9-35.62,13.5-11.92,4.5-22.71,8.5-32.38,12l-7-16.25ZM127.25,52.25h18.75c-1.34,7.84-2.84,16.17-4.5,25-1.67,8.84-3.34,17.38-5,25.62-1.67,8.25-3.34,15.46-5,21.62l-18.25-3c1.5-6,3.12-13,4.88-21s3.41-16.21,5-24.62c1.58-8.41,2.96-16.29,4.12-23.62ZM132.25,52.25h64V17h-75.25V0h94.25v69.25h-83v-17ZM128.75,97.25h79v16.25h-83.75l4.75-16.25ZM130,128.25l12.5-9.25c5.33,4,10.58,8.62,15.75,13.88,5.16,5.25,9.16,9.96,12,14.12l-13.25,10.75c-2.5-4.33-6.34-9.29-11.5-14.88-5.17-5.58-10.34-10.46-15.5-14.62ZM200.5,97.25h18.5v5.12c0,1.25-.09,2.38-.25,3.38-1,23.84-2.17,43-3.5,57.5-1.34,14.5-2.84,25.54-4.5,33.12-1.67,7.58-3.75,12.88-6.25,15.88-2.34,2.66-4.92,4.58-7.75,5.75-2.84,1.16-6.34,1.91-10.5,2.25-3.67.33-8.75.46-15.25.38-6.5-.09-13.42-.38-20.75-.88-.17-2.5-.71-5.34-1.62-8.5-.92-3.17-2.12-5.84-3.62-8,7.16.66,13.88,1.08,20.12,1.25,6.25.16,10.71.25,13.38.25,2.33,0,4.25-.21,5.75-.62,1.5-.42,2.83-1.21,4-2.38,2-2.33,3.75-7,5.25-14s2.79-17.5,3.88-31.5c1.08-14,2.12-32.5,3.12-55.5v-3.5Z" style="fill: #231f20; stroke-width: 0px;"/>
</svg>