<?xml version="1.0" encoding="UTF-8"?>
<svg id="Layer_1" data-name="Layer 1" xmlns="http://www.w3.org/2000/svg" viewBox="0 0 223.75 231">
  <path d="M0,35.5h223.75v17.5H0v-17.5ZM28.5,76.25h166.25v154.75h-19.5V93H47.25v138h-18.75V76.25ZM43.25,117.75h137.25v15.25H43.25v-15.25ZM43.25,158.5h137.25v15H43.25v-15ZM43.25,200h138v16.75H43.25v-16.75ZM43.5,7.25L60,0c4.66,4.5,9.21,9.54,13.62,15.12,4.41,5.59,7.79,10.46,10.12,14.62l-17.25,9c-2.17-4.33-5.46-9.46-9.88-15.38-4.42-5.91-8.79-11.29-13.12-16.12ZM102.25,44.5l23,1.75c-2.34,7.34-4.88,14.71-7.62,22.12-2.75,7.42-5.29,13.79-7.62,19.12l-18-2.75c1.33-3.83,2.66-8.12,4-12.88,1.33-4.75,2.54-9.54,3.62-14.38,1.08-4.83,1.96-9.16,2.62-13ZM162,.5l20.75,5.5c-4.67,6.67-9.59,13.34-14.75,20-5.17,6.67-9.92,12.42-14.25,17.25l-16.25-5.5c2.83-3.5,5.75-7.41,8.75-11.75,3-4.33,5.88-8.71,8.62-13.12,2.75-4.41,5.12-8.54,7.12-12.38Z" style="fill: #231f20; stroke-width: 0px;"/>
</svg>