<?xml version="1.0" encoding="UTF-8"?>
<svg id="Layer_1" data-name="Layer 1" xmlns="http://www.w3.org/2000/svg" viewBox="0 0 235.75 230">
  <path d="M48.75,79l12.5,5.25c-2.67,8.84-5.88,18.04-9.62,27.62-3.75,9.59-7.92,19-12.5,28.25-4.59,9.25-9.34,17.92-14.25,26-4.92,8.09-9.88,14.96-14.88,20.62-.67-1.83-1.59-3.83-2.75-6-1.17-2.16-2.38-4.29-3.62-6.38-1.25-2.08-2.46-3.88-3.62-5.38,6.33-6.83,12.62-15.29,18.88-25.38,6.25-10.08,12.04-20.79,17.38-32.12,5.33-11.33,9.5-22.16,12.5-32.5ZM5.5,71.5h99v17.5H5.5v-17.5ZM87.5,2l13,14.5c-7.84,3-16.75,5.79-26.75,8.38-10,2.59-20.34,4.88-31,6.88-10.67,2-20.92,3.67-30.75,5-.34-2.16-1.09-4.62-2.25-7.38-1.17-2.75-2.25-5.12-3.25-7.12,9.66-1.66,19.54-3.54,29.62-5.62,10.08-2.08,19.58-4.38,28.5-6.88,8.91-2.5,16.54-5.08,22.88-7.75ZM48.75,19h18.5v210.75h-18.5V19ZM67,93.75c1.33,1.67,3.46,4.25,6.38,7.75,2.91,3.5,6.08,7.38,9.5,11.62,3.41,4.25,6.5,8.21,9.25,11.88,2.75,3.67,4.71,6.25,5.88,7.75l-11,15.25c-1.34-2.66-3.25-6.12-5.75-10.38s-5.21-8.75-8.12-13.5c-2.92-4.75-5.71-9.12-8.38-13.12-2.67-4-4.84-7.08-6.5-9.25l8.75-8ZM156.25,0h17.5c-.17,20.17-.5,39.71-1,58.62-.5,18.92-1.84,36.84-4,53.75-2.17,16.92-5.79,32.67-10.88,47.25-5.09,14.59-12.17,27.79-21.25,39.62-9.09,11.83-20.79,22.08-35.12,30.75-1.34-2.17-3.29-4.59-5.88-7.25-2.59-2.67-4.88-4.67-6.88-6,13.66-8,24.79-17.5,33.38-28.5,8.58-11,15.21-23.38,19.88-37.12,4.66-13.75,8-28.62,10-44.62s3.21-32.96,3.62-50.88c.41-17.91.62-36.46.62-55.62ZM119.25,55.25l16.25,2.5c-.67,8-1.75,16.21-3.25,24.62-1.5,8.42-3.54,16.46-6.12,24.12-2.59,7.67-5.88,14.34-9.88,20l-16-6.75c3.66-5,6.75-11.04,9.25-18.12,2.5-7.08,4.58-14.66,6.25-22.75,1.66-8.08,2.83-15.96,3.5-23.62ZM170,88c2.66,19.67,6.66,37.79,12,54.38,5.33,16.59,12.33,31,21,43.25,8.66,12.25,19.58,21.88,32.75,28.88-1.84,1.5-3.96,3.75-6.38,6.75-2.42,3-4.29,5.66-5.62,8-13.84-8.34-25.34-19.12-34.5-32.38-9.17-13.25-16.5-28.83-22-46.75-5.5-17.91-9.84-37.79-13-59.62l15.75-2.5ZM209.75,54.75l18.5,5.25c-2.84,7.34-5.92,15-9.25,23-3.34,8-6.67,15.71-10,23.12-3.34,7.42-6.5,13.96-9.5,19.62l-15.75-5c3-6,6.16-12.79,9.5-20.38,3.33-7.58,6.46-15.41,9.38-23.5,2.91-8.08,5.29-15.46,7.12-22.12Z" style="fill: #231f20; stroke-width: 0px;"/>
</svg>