<?xml version="1.0" encoding="UTF-8"?>
<svg id="Layer_1" data-name="Layer 1" xmlns="http://www.w3.org/2000/svg" viewBox="0 0 232.75 222.25">
  <path d="M51.25,174c6,9.34,14.46,16.25,25.38,20.75,10.91,4.5,23.71,7.09,38.38,7.75,7.16.17,15.83.29,26,.38,10.16.09,20.88.09,32.12,0,11.25-.08,22.08-.33,32.5-.75,10.41-.41,19.46-.88,27.12-1.38-.67,1.34-1.42,3.09-2.25,5.25-.84,2.16-1.54,4.38-2.12,6.62-.59,2.25-1.04,4.29-1.38,6.12-7.17.33-15.62.58-25.38.75-9.75.16-19.92.29-30.5.38-10.59.08-20.75.08-30.5,0-9.75-.09-18.12-.29-25.12-.62-16.67-.67-30.84-3.34-42.5-8-11.67-4.67-21.42-12-29.25-22-5.34,5.34-10.84,10.75-16.5,16.25-5.67,5.5-11.5,11.08-17.5,16.75L0,204.25c5.33-4.16,11.16-8.91,17.5-14.25,6.33-5.33,12.33-10.66,18-16h15.75ZM51.25,93v88.5h-17.75v-71H2.75v-17.5h48.5ZM4,9.5L18.5,0c5,3.84,10.04,8.25,15.12,13.25,5.08,5,9.71,9.96,13.88,14.88,4.16,4.92,7.41,9.46,9.75,13.62l-15.75,10.75c-2.34-4.33-5.5-9.04-9.5-14.12-4-5.08-8.42-10.12-13.25-15.12-4.84-5-9.75-9.58-14.75-13.75ZM79.5,3.75h17.25v65c0,8.84-.29,18.29-.88,28.38-.59,10.09-1.71,20.38-3.38,30.88-1.67,10.5-4.04,20.71-7.12,30.62-3.09,9.92-7.29,19.04-12.62,27.38-.84-1-2.21-2.16-4.12-3.5-1.92-1.33-3.84-2.58-5.75-3.75-1.92-1.16-3.54-2-4.88-2.5,6.66-10.5,11.5-22.04,14.5-34.62,3-12.58,4.91-25.21,5.75-37.88.83-12.66,1.25-24.33,1.25-35V3.75ZM89.75,3.75h117v15.75h-117V3.75ZM106.25,76.25h82.75v13.75h-82.75v-13.75ZM108.5,42.5h78v13.5h-78v-13.5ZM112.75,104.25h15v67.75h-15v-67.75ZM120.25,104.25h60v55h-60v-13.75h44.75v-28h-44.75v-13.25ZM138.25,24.75h15.75v59.5h-15.75V24.75ZM198.5,3.75h17.5v164.5c0,4.84-.67,8.59-2,11.25-1.34,2.67-3.59,4.75-6.75,6.25-3.34,1.5-7.84,2.38-13.5,2.62-5.67.25-12.92.38-21.75.38-.34-2.16-1-4.83-2-8-1-3.16-2.09-5.83-3.25-8,6.16.17,11.83.25,17,.25s8.5-.08,10-.25c1.66,0,2.88-.33,3.62-1,.75-.66,1.12-1.83,1.12-3.5V3.75Z" style="fill: #231f20; stroke-width: 0px;"/>
</svg>