<?xml version="1.0" encoding="UTF-8"?>
<svg id="Layer_1" data-name="Layer 1" xmlns="http://www.w3.org/2000/svg" viewBox="0 0 235 229.75">
  <path d="M103.75,0l18.75,1.5c-1.5,16.17-4.67,32.46-9.5,48.88-4.84,16.42-11.62,32.29-20.38,47.62-8.75,15.34-19.75,29.5-33,42.5s-29.04,24.17-47.38,33.5c-.67-1.66-1.71-3.38-3.12-5.12-1.42-1.75-2.92-3.5-4.5-5.25-1.59-1.75-3.12-3.12-4.62-4.12,17.66-8.5,32.83-18.83,45.5-31,12.66-12.16,23.08-25.33,31.25-39.5,8.16-14.16,14.41-28.83,18.75-44,4.33-15.16,7.08-30.16,8.25-45ZM5.5,90.5h223.5v16H5.5v-16ZM19,20.75h196.25v15.75H19v-15.75ZM27,55.25h180.25v15.75H27v-15.75ZM53.75,126.25h128.75v102.5h-19.5v-87.25h-91v88.25h-18.25v-103.5ZM64.25,165.75h107v14.25h-107v-14.25ZM64.25,206h107v15.25h-107v-15.25ZM145.5,60.25c5.33,14.17,12.38,27.42,21.12,39.75,8.75,12.34,18.91,23.21,30.5,32.62,11.58,9.42,24.21,16.79,37.88,22.12-1.34,1.17-2.84,2.67-4.5,4.5-1.67,1.84-3.21,3.71-4.62,5.62-1.42,1.92-2.62,3.71-3.62,5.38-14.17-6.33-27.21-14.66-39.12-25-11.92-10.33-22.46-22.25-31.62-35.75-9.17-13.5-16.67-28.16-22.5-44l16.5-5.25Z" style="fill: #231f20; stroke-width: 0px;"/>
</svg>