<?xml version="1.0" encoding="UTF-8"?>
<svg id="Layer_1" data-name="Layer 1" xmlns="http://www.w3.org/2000/svg" viewBox="0 0 233 219">
  <path d="M171.25,136.25h4l3.5-1,11.75,7.75c-8.5,12.17-19.42,22.62-32.75,31.38-13.34,8.75-28.25,16.09-44.75,22s-33.75,10.66-51.75,14.25c-18,3.58-36,6.29-54,8.12-.5-2.34-1.46-5-2.88-8-1.42-3-2.88-5.5-4.38-7.5,16.83-1.34,33.88-3.54,51.12-6.62s33.66-7.21,49.25-12.38c15.58-5.16,29.5-11.5,41.75-19s21.96-16.25,29.12-26.25v-2.75ZM83,117.5l19.25,3.75c-9.5,11.5-21.5,22.17-36,32-14.5,9.84-32,18.5-52.5,26-.67-1.5-1.67-3.08-3-4.75-1.34-1.66-2.75-3.29-4.25-4.88-1.5-1.58-2.92-2.79-4.25-3.62,19.5-6.33,36.08-13.83,49.75-22.5,13.66-8.66,24-17.33,31-26ZM9.75,0h212v15.75H9.75V0ZM34,30.25h163.75v92.75H34V30.25ZM52.25,42.25v14.5h126.75v-14.5H52.25ZM52.25,69v14.75h126.75v-14.75H52.25ZM52.25,96v15h126.75v-15H52.25ZM73,144.25c9.16,11.84,21.62,21.75,37.38,29.75s34.08,14.25,55,18.75c20.91,4.5,43.46,7.58,67.62,9.25-1.84,2-3.79,4.66-5.88,8-2.09,3.33-3.71,6.33-4.88,9-24.5-2.17-47.29-5.96-68.38-11.38-21.09-5.42-39.84-12.83-56.25-22.25-16.42-9.41-29.96-21.04-40.62-34.88l16-6.25ZM76.25,136.25h101v13.75H62.75l13.5-13.75ZM105,8.25l21.5.5c-1.67,5.67-3.54,11.12-5.62,16.38-2.09,5.25-3.96,9.88-5.62,13.88l-17.25-1.75c1.33-4.33,2.66-9.21,4-14.62,1.33-5.41,2.33-10.21,3-14.38Z" style="fill: #231f20; stroke-width: 0px;"/>
</svg>