<?xml version="1.0" encoding="UTF-8"?>
<svg id="Layer_1" data-name="Layer 1" xmlns="http://www.w3.org/2000/svg" viewBox="0 0 231.75 230.25">
  <path d="M50.5,31.5l20.5,5c-4,10-8.84,20.38-14.5,31.12-5.67,10.75-11.84,21.09-18.5,31-6.67,9.92-13.75,18.62-21.25,26.12-1.5-1.16-3.21-2.46-5.12-3.88-1.92-1.41-3.92-2.79-6-4.12-2.09-1.33-3.96-2.41-5.62-3.25,7.33-7,14.25-15.12,20.75-24.38s12.29-18.88,17.38-28.88c5.08-10,9.21-19.58,12.38-28.75ZM176.5,106l19.5,6c-5.84,17.67-13.5,33.09-23,46.25-9.5,13.17-21.04,24.5-34.62,34-13.59,9.5-29.46,17.34-47.62,23.5-18.17,6.16-38.84,11-62,14.5-.84-2.84-2.21-6-4.12-9.5-1.92-3.5-3.88-6.5-5.88-9,22.16-2.83,41.83-6.96,59-12.38,17.16-5.41,32.16-12.33,45-20.75,12.83-8.41,23.66-18.62,32.5-30.62,8.83-12,15.91-26,21.25-42ZM105.75,0h19.25v127c0,5.84-.79,10.29-2.38,13.38-1.59,3.09-4.54,5.38-8.88,6.88-4.17,1.5-9.75,2.46-16.75,2.88-7,.42-15.75.62-26.25.62-.34-2.66-1.17-5.83-2.5-9.5-1.34-3.66-2.84-6.83-4.5-9.5h36.5c2.16,0,3.62-.33,4.38-1,.75-.66,1.12-2,1.12-4V0ZM160,37.75l17-8.75c7.33,8.34,14.58,17.42,21.75,27.25,7.16,9.84,13.66,19.59,19.5,29.25,5.83,9.67,10.33,18.34,13.5,26l-18.75,10.25c-2.84-7.66-7.09-16.38-12.75-26.12-5.67-9.75-12-19.71-19-29.88-7-10.16-14.09-19.5-21.25-28Z" style="fill: #231f20; stroke-width: 0px;"/>
</svg>