<?xml version="1.0" encoding="UTF-8"?>
<svg id="Layer_1" data-name="Layer 1" xmlns="http://www.w3.org/2000/svg" viewBox="0 0 231.75 229">
  <path d="M0,163.5c6.33-2.66,13.66-5.83,22-9.5,8.33-3.66,17.25-7.66,26.75-12,9.5-4.33,19-8.58,28.5-12.75l4,16.5c-12.84,6.34-25.75,12.71-38.75,19.12-13,6.42-24.75,12.21-35.25,17.38l-7.25-18.75ZM4.75,52h74v18H4.75v-18ZM34,0h17.75v153.75h-17.75V0ZM114.5,106.75l16.5,4.25c-6.5,13.84-15.04,26.62-25.62,38.38-10.59,11.75-21.62,21.54-33.12,29.38-.84-1-2.04-2.25-3.62-3.75-1.59-1.5-3.21-3-4.88-4.5-1.67-1.5-3.17-2.58-4.5-3.25,11.5-7,22.21-15.75,32.12-26.25,9.91-10.5,17.62-21.91,23.12-34.25ZM136.75,138l13,7.5c-4.34,9-9.88,18.12-16.62,27.38s-14.21,17.79-22.38,25.62c-8.17,7.84-16.34,14.41-24.5,19.75-1.5-2-3.38-4.09-5.62-6.25-2.25-2.17-4.54-4-6.88-5.5,8.16-4.5,16.33-10.41,24.5-17.75,8.16-7.33,15.62-15.41,22.38-24.25,6.75-8.83,12.12-17.66,16.12-26.5ZM74.25,100.75h157.5v16.25H74.25v-16.25ZM98.75,5.5h115v81.25h-115V5.5ZM102.5,134.5h108.75v15.5h-108.75v-15.5ZM115.75,19.5v19.75h80.5v-19.75h-80.5ZM115.75,52.75v19.75h80.5v-19.75h-80.5ZM176,137.5l13,7c-3,10.5-7.25,21.17-12.75,32-5.5,10.84-11.67,20.84-18.5,30-6.84,9.16-14,16.66-21.5,22.5-1.67-1.84-3.79-3.75-6.38-5.75-2.59-2-5.12-3.67-7.62-5,7.83-5.34,15.29-12.33,22.38-21,7.08-8.66,13.33-18.25,18.75-28.75,5.41-10.5,9.62-20.83,12.62-31ZM207.75,134.5h17.75c-.17,3.84-.34,6.34-.5,7.5-1.34,17.34-2.71,31.34-4.12,42-1.42,10.67-2.96,18.84-4.62,24.5-1.67,5.66-3.67,9.75-6,12.25-2,2.33-4.17,3.91-6.5,4.75-2.34.83-5,1.33-8,1.5-2.67.33-6.21.5-10.62.5s-9.12-.17-14.12-.5c0-2.34-.42-4.96-1.25-7.88-.84-2.92-1.84-5.46-3-7.62,4.66.5,8.91.83,12.75,1,3.83.16,6.66.25,8.5.25,1.66,0,3.12-.17,4.38-.5,1.25-.34,2.29-1.09,3.12-2.25,1.83-1.67,3.46-5.08,4.88-10.25,1.41-5.16,2.75-12.79,4-22.88,1.25-10.08,2.38-23.21,3.38-39.38v-3Z" style="fill: #231f20; stroke-width: 0px;"/>
</svg>