<?xml version="1.0" encoding="UTF-8"?>
<svg id="Layer_1" data-name="Layer 1" xmlns="http://www.w3.org/2000/svg" viewBox="0 0 230.25 228">
  <path d="M73,0l20.75,3.75c-5.84,10-12.67,20.17-20.5,30.5-7.84,10.34-16.67,20.46-26.5,30.38-9.84,9.92-20.75,19.29-32.75,28.12-1-1.5-2.34-3.08-4-4.75-1.67-1.66-3.34-3.33-5-5-1.67-1.66-3.34-2.91-5-3.75,11.33-7.83,21.66-16.29,31-25.38,9.33-9.08,17.54-18.25,24.62-27.5,7.08-9.25,12.88-18.04,17.38-26.38ZM30.5,62.75h18.75v128.25c0,5.17.83,9.17,2.5,12,1.66,2.84,4.88,4.79,9.62,5.88,4.75,1.09,11.71,1.62,20.88,1.62h98.5c8,0,14.08-.96,18.25-2.88,4.16-1.91,7.12-5.58,8.88-11,1.75-5.41,3.04-13.21,3.88-23.38,2.5,1.5,5.54,2.88,9.12,4.12,3.58,1.25,6.71,2.21,9.38,2.88-1.34,12.34-3.46,21.96-6.38,28.88-2.92,6.91-7.67,11.79-14.25,14.62-6.59,2.83-16.12,4.25-28.62,4.25h-97.5c-13.5,0-24.09-1-31.75-3-7.67-2-13.12-5.71-16.38-11.12s-4.88-13.12-4.88-23.12V62.75ZM40,62.75h170.5v91.25h-19v-74.25H40v-17ZM41,125.5h157v17.25H41v-17.25ZM72.25,17.5h78.5v16.5h-86.75l8.25-16.5ZM108.75,69.5h19v64.75h-19v-64.75ZM142.75,17.5h4.25l3.5-1.25,13,8.5c-3.34,6.34-7.09,12.84-11.25,19.5-4.17,6.67-8.5,12.96-13,18.88-4.5,5.92-8.92,11.21-13.25,15.88-.84-1.33-1.96-2.75-3.38-4.25-1.42-1.5-2.88-2.96-4.38-4.38-1.5-1.41-2.92-2.62-4.25-3.62,3.66-4,7.33-8.62,11-13.88,3.66-5.25,7.08-10.66,10.25-16.25,3.16-5.58,5.66-10.71,7.5-15.38v-3.75Z" style="fill: #231f20; stroke-width: 0px;"/>
</svg>