<?xml version="1.0" encoding="UTF-8"?>
<svg id="Layer_1" data-name="Layer 1" xmlns="http://www.w3.org/2000/svg" viewBox="0 0 233 230.25">
  <path d="M115,16.75c-7,8.84-16,17.88-27,27.12s-23.12,18.12-36.38,26.62-26.88,15.92-40.88,22.25c-.67-1.33-1.62-2.96-2.88-4.88-1.25-1.91-2.54-3.75-3.88-5.5-1.34-1.75-2.67-3.29-4-4.62,14.16-6.16,27.96-13.54,41.38-22.12,13.41-8.58,25.62-17.71,36.62-27.38,11-9.66,19.83-19.08,26.5-28.25h18.75c6.83,7.84,14.58,15.46,23.25,22.88,8.66,7.42,17.79,14.38,27.38,20.88,9.58,6.5,19.41,12.38,29.5,17.62,10.08,5.25,19.96,9.71,29.62,13.38-2,2.34-4.09,5.04-6.25,8.12-2.17,3.09-4,5.96-5.5,8.62-12.5-5.66-25.42-12.54-38.75-20.62-13.34-8.08-25.88-16.79-37.62-26.12-11.75-9.33-21.71-18.66-29.88-28ZM16.25,210.5c9.33-.83,20.04-1.75,32.12-2.75,12.08-1,24.91-2.16,38.5-3.5,13.58-1.33,27.29-2.66,41.12-4v17c-13,1.33-26.04,2.66-39.12,4-13.09,1.33-25.59,2.58-37.5,3.75-11.92,1.16-22.71,2.25-32.38,3.25l-2.75-17.75ZM44.75,69h18.5v143.75l-18.5,2V69ZM55.75,105.5h119.75v14.5H55.75v-14.5ZM56,69h131.75v88.25H56v-15.25h113v-57.5H56v-15.5ZM117.25,150.25c9.33,17.5,23.71,31.54,43.12,42.12,19.41,10.59,42.46,17.79,69.12,21.62-1.34,1.16-2.75,2.71-4.25,4.62-1.5,1.91-2.88,3.91-4.12,6-1.25,2.08-2.38,3.96-3.38,5.62-18.17-3.34-34.75-8.25-49.75-14.75s-28.12-14.75-39.38-24.75-20.46-21.91-27.62-35.75l16.25-4.75ZM105.75,44h19.25v34h-19.25v-34ZM201.5,146l14,11c-6.34,4.67-13.34,9.34-21,14-7.67,4.67-15.38,9.09-23.12,13.25-7.75,4.17-15.04,7.92-21.88,11.25l-12-10.25c7-3.33,14.38-7.25,22.12-11.75s15.33-9.12,22.75-13.88c7.41-4.75,13.79-9.29,19.12-13.62Z" style="fill: #231f20; stroke-width: 0px;"/>
</svg>