<?xml version="1.0" encoding="UTF-8"?>
<svg id="Layer_1" data-name="Layer 1" xmlns="http://www.w3.org/2000/svg" viewBox="0 0 238.25 225.75">
  <path d="M28.25,89l18.25,3.75c-1.17,11.17-2.96,22.75-5.38,34.75-2.42,12-5.54,23.42-9.38,34.25-3.84,10.84-8.75,20.25-14.75,28.25L0,180c5.66-7.5,10.38-16.25,14.12-26.25s6.79-20.58,9.12-31.75c2.33-11.16,4-22.16,5-33ZM70.25,68.75h19.25v125.75c0,5.84,1.04,9.59,3.12,11.25,2.08,1.67,6.54,2.5,13.38,2.5h46.25c5,0,8.75-1.33,11.25-4,2.5-2.66,4.29-7.79,5.38-15.38,1.08-7.58,1.96-18.54,2.62-32.88,2.33,1.67,5.21,3.34,8.62,5,3.41,1.67,6.46,2.84,9.12,3.5-1,15.67-2.54,27.96-4.62,36.88-2.09,8.91-5.54,15.21-10.38,18.88-4.84,3.66-11.84,5.5-21,5.5h-48.75c-8.84,0-15.75-.92-20.75-2.75-5-1.84-8.5-5.04-10.5-9.62s-3-10.96-3-19.12v-125.5ZM72.25,14.5L84,0c10,3.5,20.41,7.67,31.25,12.5,10.83,4.84,21.04,9.79,30.62,14.88,9.58,5.09,17.71,9.88,24.38,14.38l-12.25,16.5c-6.34-4.83-14.29-9.91-23.88-15.25-9.59-5.33-19.75-10.54-30.5-15.62-10.75-5.08-21.21-9.38-31.38-12.88ZM174.25,89l16.75-8.25c7.5,9.5,14.46,19.75,20.88,30.75,6.41,11,11.91,21.88,16.5,32.62,4.58,10.75,7.88,20.62,9.88,29.62l-18.5,8.75c-1.84-8.83-5-18.66-9.5-29.5-4.5-10.83-9.88-21.83-16.12-33-6.25-11.16-12.88-21.5-19.88-31Z" style="fill: #231f20; stroke-width: 0px;"/>
</svg>