<?xml version="1.0" encoding="UTF-8"?>
<svg id="Layer_1" data-name="Layer 1" xmlns="http://www.w3.org/2000/svg" viewBox="0 0 233 230">
  <path d="M54.75,132.75l13.5,5.25c-4.17,9-9.34,18.12-15.5,27.38-6.17,9.25-12.71,17.84-19.62,25.75-6.92,7.92-13.71,14.46-20.38,19.62-1.5-2.16-3.46-4.54-5.88-7.12-2.42-2.58-4.71-4.71-6.88-6.38,6.83-4.33,13.71-10,20.62-17,6.91-7,13.38-14.66,19.38-23,6-8.33,10.91-16.5,14.75-24.5ZM4.75,82.25h117v16H4.75v-16ZM5.5,124.25h114.25v16.5H5.5v-16.5ZM8.25,25.25h110.5v15.75H8.25v-15.75ZM23.25,45.75l15-3.5c2.5,5.5,4.75,11.59,6.75,18.25,2,6.67,3.33,12.42,4,17.25l-16,4.25c-.34-5-1.42-10.88-3.25-17.62-1.84-6.75-4-12.96-6.5-18.62ZM54.75,0h18.25v33.25h-18.25V0ZM54.75,95.5h18.25v133h-18.25V95.5ZM71,145.25c2,1.34,4.96,3.54,8.88,6.62,3.91,3.09,8.12,6.46,12.62,10.12,4.5,3.67,8.58,7.04,12.25,10.12,3.66,3.09,6.33,5.29,8,6.62l-11.25,14c-2-2.33-4.75-5.25-8.25-8.75s-7.29-7.21-11.38-11.12c-4.09-3.91-8-7.58-11.75-11-3.75-3.41-6.79-6.04-9.12-7.88l10-8.75ZM87.5,41.75l17,3.75c-2.34,6.34-4.75,12.75-7.25,19.25s-4.92,12.09-7.25,16.75l-15.25-3.75c1.5-3.33,3.04-7.08,4.62-11.25,1.58-4.16,3.12-8.46,4.62-12.88,1.5-4.41,2.66-8.38,3.5-11.88ZM130.75,19.5l23,7c-.17,1.84-1.84,3-5,3.5v77.25c0,9.34-.46,19.34-1.38,30-.92,10.67-2.71,21.46-5.38,32.38-2.67,10.92-6.67,21.54-12,31.88-5.34,10.33-12.34,19.83-21,28.5-.84-1.34-2.04-2.84-3.62-4.5-1.59-1.67-3.25-3.29-5-4.88-1.75-1.59-3.38-2.71-4.88-3.38,8-7.84,14.38-16.33,19.12-25.5,4.75-9.16,8.25-18.58,10.5-28.25,2.25-9.66,3.75-19.29,4.5-28.88.75-9.58,1.12-18.79,1.12-27.62V19.5ZM214.5,1.75l15.25,13.75c-7.84,3.5-16.75,6.79-26.75,9.88-10,3.09-20.29,5.84-30.88,8.25-10.59,2.42-20.88,4.54-30.88,6.38-.5-2-1.34-4.46-2.5-7.38-1.17-2.91-2.34-5.29-3.5-7.12,9.33-2,18.96-4.25,28.88-6.75,9.91-2.5,19.29-5.21,28.12-8.12,8.83-2.91,16.25-5.88,22.25-8.88ZM139.75,83.5h93.25v17.5h-93.25v-17.5ZM186.5,90.5h18v137.25h-18V90.5Z" style="fill: #231f20; stroke-width: 0px;"/>
</svg>