<?xml version="1.0" encoding="UTF-8"?>
<svg id="Layer_1" data-name="Layer 1" xmlns="http://www.w3.org/2000/svg" viewBox="0 0 235.25 230">
  <path d="M52,132l13.25,7.75c-3.84,8.84-8.67,17.79-14.5,26.88-5.84,9.09-12.17,17.54-19,25.38-6.84,7.84-13.75,14.5-20.75,20-1.17-2.17-2.79-4.66-4.88-7.5-2.09-2.83-4.12-5.08-6.12-6.75,6.83-4.66,13.54-10.5,20.12-17.5,6.58-7,12.66-14.71,18.25-23.12,5.58-8.41,10.12-16.79,13.62-25.12ZM2.75,83.75h112.25v16.25H2.75v-16.25ZM5,125.5h108v16.25H5v-16.25ZM7.5,25.5h104.75v16H7.5v-16ZM22.75,45.75l15-3.25c2.66,5.84,4.96,12.25,6.88,19.25,1.91,7,3.12,13,3.62,18l-15.5,4c-.5-5.16-1.62-11.29-3.38-18.38-1.75-7.08-3.96-13.62-6.62-19.62ZM51.75,0h18v36h-18V0ZM52.25,98.75h18v130.25h-18V98.75ZM68,145.75c2.16,1.5,5.33,4,9.5,7.5,4.16,3.5,8.71,7.21,13.62,11.12,4.91,3.92,9.38,7.62,13.38,11.12s6.83,6.09,8.5,7.75l-11.5,14c-2.17-2.5-5.17-5.71-9-9.62-3.84-3.91-7.96-8.04-12.38-12.38-4.42-4.33-8.59-8.38-12.5-12.12-3.92-3.75-7.21-6.71-9.88-8.88l10.25-8.5ZM83,42l17.25,4c-2.17,6.5-4.46,13.17-6.88,20-2.42,6.84-4.71,12.75-6.88,17.75l-14.5-3.75c1.33-3.5,2.71-7.5,4.12-12,1.41-4.5,2.75-9.04,4-13.62,1.25-4.58,2.21-8.71,2.88-12.38ZM140.25,147.75h17.25c-1,13.34-3.04,25.25-6.12,35.75-3.09,10.5-8.17,19.59-15.25,27.25-7.09,7.66-17.12,14.08-30.12,19.25-1-2-2.54-4.42-4.62-7.25-2.09-2.84-4.04-5-5.88-6.5,11.66-4.17,20.54-9.41,26.62-15.75,6.08-6.33,10.41-13.88,13-22.62,2.58-8.75,4.29-18.79,5.12-30.12ZM123.5,10.25h97.75v142h-97.75V10.25ZM140.75,26.75v25.75h62.75v-25.75h-62.75ZM140.75,68v25.75h62.75v-25.75h-62.75ZM140.75,109.25v26.25h62.75v-26.25h-62.75ZM177.25,146.5h17.25v56.5c0,2.84.29,4.62.88,5.38.58.75,2.04,1.12,4.38,1.12h13.5c1.66,0,2.91-.66,3.75-2,.83-1.33,1.41-4.41,1.75-9.25.33-4.83.58-12.16.75-22,1.16,1,2.66,1.96,4.5,2.88,1.83.92,3.79,1.75,5.88,2.5,2.08.75,3.88,1.29,5.38,1.62-.5,11.5-1.42,20.34-2.75,26.5-1.34,6.16-3.38,10.41-6.12,12.75-2.75,2.33-6.46,3.5-11.12,3.5h-18c-5.34,0-9.46-.67-12.38-2-2.92-1.34-4.92-3.71-6-7.12-1.09-3.42-1.62-7.96-1.62-13.62v-56.75Z" style="fill: #231f20; stroke-width: 0px;"/>
</svg>