<?xml version="1.0" encoding="UTF-8"?>
<svg id="Layer_1" data-name="Layer 1" xmlns="http://www.w3.org/2000/svg" viewBox="0 0 206.75 217.5">
  <path d="M0,0h206.75v217.5h-19.25V18H18.75v199.5H0V0ZM10.75,187.25h184.75v18.25H10.75v-18.25ZM152.75,35.75l17.5,5c-13.5,32.34-31.29,60.17-53.38,83.5-22.09,23.34-47.62,42.25-76.62,56.75-.84-1.33-2-2.96-3.5-4.88-1.5-1.91-3.09-3.79-4.75-5.62-1.67-1.83-3.17-3.33-4.5-4.5,28.83-13,53.88-30.5,75.12-52.5s37.96-47.91,50.12-77.75ZM34.25,42l14-6.25c5,6.67,9.79,14.04,14.38,22.12,4.58,8.09,7.71,15.12,9.38,21.12l-15,7c-1.67-6-4.67-13.12-9-21.38-4.34-8.25-8.92-15.79-13.75-22.62ZM36.5,100.75l10.25-12.5c11,4.5,22.41,9.59,34.25,15.25,11.83,5.67,23.38,11.67,34.62,18,11.25,6.34,21.71,12.71,31.38,19.12,9.66,6.42,17.75,12.54,24.25,18.38l-11.25,15c-6.34-6-14.25-12.29-23.75-18.88-9.5-6.58-19.84-13.16-31-19.75-11.17-6.58-22.62-12.83-34.38-18.75-11.75-5.91-23.21-11.21-34.38-15.88ZM82,33.25l14.75-5.25c4.33,7.34,8.33,15.38,12,24.12,3.66,8.75,6.08,16.29,7.25,22.62l-16,5.75c-.5-4.16-1.71-8.96-3.62-14.38-1.92-5.41-4.09-11-6.5-16.75-2.42-5.75-5.04-11.12-7.88-16.12Z" style="fill: #231f20; stroke-width: 0px;"/>
</svg>