<?xml version="1.0" encoding="UTF-8"?>
<svg id="Layer_1" data-name="Layer 1" xmlns="http://www.w3.org/2000/svg" viewBox="0 0 234 231">
  <path d="M55,53.25l12.5,7.25c-4,7-9.12,14-15.38,21s-13,13.46-20.25,19.38c-7.25,5.92-14.46,10.88-21.62,14.88-1-2.16-2.5-4.66-4.5-7.5-2-2.83-3.92-5.08-5.75-6.75,7-3.16,14-7.25,21-12.25s13.5-10.66,19.5-17c6-6.33,10.83-12.66,14.5-19ZM1.25,133.75h123v15.5H1.25v-15.5ZM85.25,143l17.5,2.25c-2,12.17-5.29,22.88-9.88,32.12-4.59,9.25-10.59,17.25-18,24-7.42,6.75-16.42,12.46-27,17.12-10.59,4.66-23.12,8.58-37.62,11.75-.67-2.5-1.79-5.25-3.38-8.25-1.59-3-3.21-5.5-4.88-7.5,17.5-3,31.91-7.38,43.25-13.12,11.33-5.75,20.21-13.41,26.62-23,6.41-9.58,10.88-21.38,13.38-35.38ZM2.75,46.25h120.5v15.5H2.75v-15.5ZM47.75,112l17.75,4c-3.84,8-8.04,16.54-12.62,25.62-4.59,9.09-9.09,17.84-13.5,26.25-4.42,8.42-8.54,15.96-12.38,22.62l-16.5-5.75c3.66-6.33,7.75-13.66,12.25-22,4.5-8.33,8.96-16.96,13.38-25.88,4.41-8.91,8.29-17.21,11.62-24.88ZM12.25,12l14-5.75c3.66,5,7.04,10.5,10.12,16.5,3.08,6,5.21,11.25,6.38,15.75l-15,6.5c-1-4.33-3-9.62-6-15.88s-6.17-11.96-9.5-17.12ZM25.5,181.5l9.75-12.75c10,3.67,19.91,7.88,29.75,12.62,9.83,4.75,19,9.62,27.5,14.62s15.75,9.84,21.75,14.5l-13,13.5c-5.67-4.84-12.59-9.75-20.75-14.75-8.17-5-16.96-9.91-26.38-14.75-9.42-4.83-18.96-9.16-28.62-13ZM54.5,0h17.5v115h-17.5V0ZM70,61.75c2.16,1.17,5.46,3.09,9.88,5.75,4.41,2.67,9.12,5.59,14.12,8.75,5,3.17,9.58,6.09,13.75,8.75,4.16,2.67,7.16,4.75,9,6.25l-10.5,13.5c-2.17-2-5.25-4.58-9.25-7.75-4-3.16-8.29-6.5-12.88-10-4.59-3.5-8.96-6.83-13.12-10-4.17-3.16-7.59-5.58-10.25-7.25l9.25-8ZM101,5l16.25,7c-3.67,5.84-7.46,11.67-11.38,17.5-3.92,5.84-7.62,10.84-11.12,15l-12.75-6.25c3.16-4.33,6.58-9.71,10.25-16.12,3.66-6.41,6.58-12.12,8.75-17.12ZM197.75,56.25l19.25,2c-4,28.84-9.96,54.17-17.88,76-7.92,21.84-18.59,40.67-32,56.5-13.42,15.84-30.62,29.25-51.62,40.25-.67-1.67-1.67-3.54-3-5.62-1.34-2.09-2.71-4.17-4.12-6.25-1.42-2.09-2.79-3.79-4.12-5.12,19.83-9.33,36-21.21,48.5-35.62,12.5-14.41,22.29-31.75,29.38-52,7.08-20.25,12.29-43.62,15.62-70.12ZM148.75,0l18.75,2.75c-2.67,16.34-6.12,32.04-10.38,47.12-4.25,15.09-9.21,29.09-14.88,42-5.67,12.92-12.17,24.21-19.5,33.88-1-1.16-2.42-2.54-4.25-4.12-1.84-1.58-3.79-3.16-5.88-4.75-2.09-1.58-3.79-2.88-5.12-3.88,7-8.83,13.16-19.21,18.5-31.12,5.33-11.91,9.88-24.83,13.62-38.75,3.75-13.91,6.79-28.29,9.12-43.12ZM152.5,61.75c3.66,23,8.88,44.54,15.62,64.62,6.75,20.09,15.54,37.67,26.38,52.75,10.83,15.09,24,26.71,39.5,34.88-1.5,1.33-3.12,2.91-4.88,4.75-1.75,1.83-3.38,3.75-4.88,5.75s-2.75,3.91-3.75,5.75c-16.17-9.67-29.84-22.62-41-38.88-11.17-16.25-20.25-35.12-27.25-56.62s-12.59-44.91-16.75-70.25l17-2.75ZM142.5,46.25h89v17.5h-89v-17.5Z" style="fill: #231f20; stroke-width: 0px;"/>
</svg>