<?xml version="1.0" encoding="UTF-8"?>
<svg id="Layer_1" data-name="Layer 1" xmlns="http://www.w3.org/2000/svg" viewBox="0 0 220 212.75">
  <path d="M0,0h220v18.25H0V0ZM11,54.5h199.75v157.5h-18.75V71.75H29v141H11V54.5ZM23,179.75h177v17.5H23v-17.5ZM71.5,59.25h17.75v24.5c0,7.84-1.21,15.96-3.62,24.38-2.42,8.42-6.84,16.54-13.25,24.38-6.42,7.84-15.79,14.75-28.12,20.75-.67-1.16-1.84-2.58-3.5-4.25-1.67-1.66-3.34-3.25-5-4.75-1.67-1.5-3.17-2.66-4.5-3.5,11.33-5.5,19.88-11.46,25.62-17.88,5.75-6.41,9.62-13.04,11.62-19.88,2-6.83,3-13.41,3-19.75v-24ZM70.75,12.5h18.5v52h-18.5V12.5ZM126,12.5h18.75v52h-18.75V12.5ZM126,62.25h18v53c0,2.84.46,4.62,1.38,5.38.91.75,2.88,1.12,5.88,1.12h20.25c1.83,0,3.21-.46,4.12-1.38s1.62-2.71,2.12-5.38c.5-2.66.83-6.83,1-12.5,1.16.84,2.66,1.71,4.5,2.62,1.83.92,3.79,1.71,5.88,2.38,2.08.67,3.88,1.25,5.38,1.75-.5,7.67-1.5,13.67-3,18-1.5,4.34-3.67,7.29-6.5,8.88-2.84,1.59-6.59,2.38-11.25,2.38h-24.75c-6.17,0-10.92-.66-14.25-2-3.34-1.33-5.62-3.66-6.88-7-1.25-3.33-1.88-8-1.88-14v-53.25Z" style="fill: #231f20; stroke-width: 0px;"/>
</svg>