<?xml version="1.0" encoding="UTF-8"?>
<svg id="Layer_1" data-name="Layer 1" xmlns="http://www.w3.org/2000/svg" viewBox="0 0 226.25 230.62">
  <path d="M112,141.75l13,9.75c-6.5,6.5-14.25,13-23.25,19.5s-18.67,12.75-29,18.75c-10.34,6-20.88,11.42-31.62,16.25s-21.12,8.91-31.12,12.25c-1.17-2.17-2.62-4.79-4.38-7.88s-3.62-5.62-5.62-7.62c10-2.66,20.29-6.21,30.88-10.62,10.58-4.41,20.96-9.33,31.12-14.75,10.16-5.41,19.54-11.16,28.12-17.25,8.58-6.08,15.88-12.21,21.88-18.38ZM111,68.5l15.75,6.5c-8.67,8.34-19.04,16-31.12,23-12.09,7-24.92,13.25-38.5,18.75-13.59,5.5-26.88,10.17-39.88,14-.67-1.16-1.59-2.71-2.75-4.62-1.17-1.91-2.42-3.83-3.75-5.75-1.34-1.91-2.5-3.46-3.5-4.62,12.83-3.16,25.79-7.04,38.88-11.62,13.08-4.58,25.29-9.91,36.62-16,11.33-6.08,20.75-12.62,28.25-19.62ZM8.75,22.25h208v49.75h-19v-32.5H27.25v32.5H8.75V22.25ZM93.5,116l12.5,8.75c-6.84,5.67-15.25,11.46-25.25,17.38-10,5.92-20.42,11.42-31.25,16.5-10.84,5.09-21.09,9.38-30.75,12.88-1-2.16-2.42-4.66-4.25-7.5-1.84-2.83-3.67-5.25-5.5-7.25,7-2,14.46-4.46,22.38-7.38,7.91-2.91,15.71-6.25,23.38-10,7.66-3.75,14.88-7.62,21.62-11.62s12.46-7.91,17.12-11.75ZM40.75,64.75h141v16.5H40.75v-16.5ZM73.75,102l14-8.75c11,8.17,19.96,17.29,26.88,27.38,6.91,10.09,12,20.29,15.25,30.62,3.25,10.34,4.88,20.21,4.88,29.62s-1.42,17.75-4.25,25c-2.84,7.25-6.75,12.71-11.75,16.38-4.17,3.16-8.25,5.33-12.25,6.5-4,1.16-8.92,1.75-14.75,1.75-3,.16-6.38.16-10.12,0-3.75-.17-7.62-.34-11.62-.5-.17-2.67-.67-5.67-1.5-9-.84-3.34-2.09-6.34-3.75-9,4.66.33,9.04.62,13.12.88,4.08.25,7.54.38,10.38.38,3.33,0,6.38-.29,9.12-.88,2.75-.59,5.38-1.96,7.88-4.12,3.66-2.5,6.41-6.58,8.25-12.25,1.83-5.66,2.62-12.29,2.38-19.88-.25-7.58-1.88-15.71-4.88-24.38-3-8.66-7.54-17.25-13.62-25.75-6.09-8.5-13.96-16.5-23.62-24ZM102.25,0h19v33.25h-19V0ZM135,71c4.5,18.67,10.88,36.17,19.12,52.5,8.25,16.34,18.38,30.59,30.38,42.75,12,12.17,25.91,21.5,41.75,28-1.34,1.17-2.84,2.71-4.5,4.62-1.67,1.92-3.25,3.88-4.75,5.88s-2.75,3.84-3.75,5.5c-16.34-7.5-30.62-17.91-42.88-31.25-12.25-13.33-22.54-28.88-30.88-46.62-8.34-17.75-15.09-37.04-20.25-57.88l15.75-3.5ZM199,89.5l14.5,12.5c-5.67,4.5-11.88,9.17-18.62,14-6.75,4.84-13.54,9.38-20.38,13.62-6.84,4.25-13.17,7.96-19,11.12l-12-11.5c5.83-3.33,12.12-7.25,18.88-11.75s13.38-9.25,19.88-14.25,12.08-9.58,16.75-13.75Z" style="fill: #231f20; stroke-width: 0px;"/>
</svg>