<?xml version="1.0" encoding="UTF-8"?>
<svg id="Layer_1" data-name="Layer 1" xmlns="http://www.w3.org/2000/svg" viewBox="0 0 225.25 231.75">
  <path d="M31,98.25h18.5v33c0,7.5-.46,15.62-1.38,24.38-.92,8.75-2.67,17.62-5.25,26.62-2.59,9-6.12,17.71-10.62,26.12s-10.42,16.21-17.75,23.38c-1-1.34-2.38-2.84-4.12-4.5-1.75-1.67-3.54-3.29-5.38-4.88-1.84-1.59-3.5-2.71-5-3.38,9.16-8.83,15.91-18.38,20.25-28.62,4.33-10.25,7.21-20.5,8.62-30.75,1.41-10.25,2.12-19.79,2.12-28.62v-32.75ZM10.25,21.25h215v16.5H10.25v-16.5ZM25.5,62.25h188.75v16.25H25.5v-16.25ZM41.75,152.5h155.75v16.25H41.75v-16.25ZM42,98.25h167.25v83.25h-18.75v-67.5H42v-15.75ZM107.75,0h19v71.25h-19V0ZM108.25,103.5h18.25v58.75h-18.25v-58.75Z" style="fill: #231f20; stroke-width: 0px;"/>
</svg>