<?xml version="1.0" encoding="UTF-8"?>
<svg id="Layer_1" data-name="Layer 1" xmlns="http://www.w3.org/2000/svg" viewBox="0 0 221.75 213.25">
  <path d="M45.75,89l18.5,5.25c-3.84,8.17-8.42,16.17-13.75,24-5.34,7.84-10.96,15.17-16.88,22-5.92,6.84-11.88,12.92-17.88,18.25-1.17-1.16-2.71-2.5-4.62-4-1.92-1.5-3.88-2.96-5.88-4.38-2-1.41-3.75-2.54-5.25-3.38,9.16-7.16,17.83-15.83,26-26,8.16-10.16,14.75-20.75,19.75-31.75ZM3.75,196.75h218v16.5H3.75v-16.5ZM29.75,0h166.5v88.75H29.75V0ZM33,154.25h162.5v15.25H33v-15.25ZM38.25,114.5h167.75v16H38.25v-16ZM48,15v22h129V15H48ZM48,51.25v22.5h129v-22.5H48ZM103,94.25h19.5v113.75h-19.5v-113.75Z" style="fill: #231f20; stroke-width: 0px;"/>
</svg>