<?xml version="1.0" encoding="UTF-8"?>
<svg id="Layer_1" data-name="Layer 1" xmlns="http://www.w3.org/2000/svg" viewBox="0 0 220.75 229.75">
  <path d="M0,17.25h15.75v183.75H0V17.25ZM10.5,89.75h42.5v16.75H10.5v-16.75ZM11.5,17.25h51.25v163.5H11.5v-17h35.25V34.25H11.5v-17ZM74.75,80.75h146v14.5H74.75v-14.5ZM81.5,20.25h134.25v14.5H81.5v-14.5ZM88,50.25h123.25v13.75h-123.25v-13.75ZM92.5,110.5h101v14.25h-83.75v105h-17.25v-119.25ZM102,143.5h93.75v13.5h-93.75v-13.5ZM102,175.75h93.75v13.25h-93.75v-13.25ZM139,0h18.25v88.5h-18.25V0ZM187.5,110.5h17.5v100c0,4.5-.54,8.04-1.62,10.62-1.09,2.58-3.29,4.54-6.62,5.88-3.34,1.33-7.67,2.12-13,2.38-5.34.25-11.92.38-19.75.38-.34-2.34-1-4.96-2-7.88-1-2.92-2.17-5.54-3.5-7.88,5.83.16,11.04.29,15.62.38,4.58.08,7.62.04,9.12-.12,1.66,0,2.79-.29,3.38-.88.58-.59.88-1.54.88-2.88v-100Z" style="fill: #231f20; stroke-width: 0px;"/>
</svg>