<?xml version="1.0" encoding="UTF-8"?>
<svg id="Layer_1" data-name="Layer 1" xmlns="http://www.w3.org/2000/svg" viewBox="0 0 227.75 224">
  <path d="M0,73.5l105.5-22.25,3.25,16.75L3.25,90.5l-3.25-17ZM30.25,0h18.5v147c0,4.5.5,7.38,1.5,8.62s3.16,1.88,6.5,1.88h22.25c2.16,0,3.79-.96,4.88-2.88,1.08-1.91,1.88-5.46,2.38-10.62.5-5.16.83-12.58,1-22.25,2.16,1.67,4.88,3.25,8.12,4.75s6.12,2.59,8.62,3.25c-.67,11.67-1.71,20.79-3.12,27.38-1.42,6.59-3.75,11.25-7,14s-7.71,4.12-13.38,4.12h-26.5c-6.34,0-11.21-.83-14.62-2.5-3.42-1.66-5.79-4.54-7.12-8.62-1.34-4.08-2-9.88-2-17.38V0ZM137.25,23h18.75c-.34,16.5-.92,32.67-1.75,48.5-.84,15.84-2.5,31.17-5,46-2.5,14.84-6.34,28.79-11.5,41.88-5.17,13.09-12.09,25.09-20.75,36-8.67,10.91-19.84,20.46-33.5,28.62-1.5-2.5-3.54-5.17-6.12-8-2.59-2.84-5.12-5.09-7.62-6.75,13-7.33,23.62-16,31.88-26s14.75-21.08,19.5-33.25c4.75-12.16,8.21-25.16,10.38-39,2.16-13.83,3.58-28.16,4.25-43,.66-14.83,1.16-29.83,1.5-45ZM93,15h123.5v18h-123.5V15ZM208.75,15h19v10.5c-.84,32-1.67,59.04-2.5,81.12-.84,22.09-1.84,40.12-3,54.12-1.17,14-2.54,24.75-4.12,32.25-1.59,7.5-3.62,12.83-6.12,16-2.67,3.83-5.54,6.54-8.62,8.12-3.09,1.58-6.71,2.62-10.88,3.12-4.17.5-9.46.75-15.88.75s-12.96-.25-19.62-.75c-.17-2.84-.75-6.09-1.75-9.75-1-3.67-2.42-6.84-4.25-9.5,7.5.67,14.25,1.04,20.25,1.12,6,.09,10.41.12,13.25.12,2.33,0,4.25-.29,5.75-.88,1.5-.58,2.91-1.79,4.25-3.62,2-2.33,3.71-7.16,5.12-14.5,1.41-7.33,2.66-17.88,3.75-31.62,1.08-13.75,2.08-31.41,3-53,.91-21.58,1.71-47.88,2.38-78.88v-4.75Z" style="fill: #231f20; stroke-width: 0px;"/>
</svg>