<?xml version="1.0" encoding="UTF-8"?>
<svg id="Layer_1" data-name="Layer 1" xmlns="http://www.w3.org/2000/svg" viewBox="0 0 212.25 220.25">
  <path d="M0,32.25h212.25v54.25h-17.5v-39H17v39H0v-54.25ZM14.5,0h182.75v15.25H14.5V0ZM17.75,194.75h161v15.5H17.75v-15.5ZM22,123h165.75v97.25h-18.5v-81.75H22v-15.5ZM23.75,92h60v13.5H23.75v-13.5ZM27.75,158.75h150v14.75H27.75v-14.75ZM29.25,63.25h54.25v13.25H29.25v-13.25ZM96,5.75h18.5v106.5h-18.5V5.75ZM127,63.25h55.5v13.25h-55.5v-13.25ZM127,92h61.75v13.5h-61.75v-13.5Z" style="fill: #231f20; stroke-width: 0px;"/>
</svg>