<?xml version="1.0" encoding="UTF-8"?>
<svg id="Layer_1" data-name="Layer 1" xmlns="http://www.w3.org/2000/svg" viewBox="0 0 233.75 230.75">
  <path d="M18.5,34h16.25v90.75c0,8.17-.25,16.92-.75,26.25-.5,9.34-1.42,18.75-2.75,28.25-1.34,9.5-3.38,18.71-6.12,27.62s-6.46,16.88-11.12,23.88c-.84-1-2.12-2.09-3.88-3.25-1.75-1.17-3.54-2.29-5.38-3.38-1.84-1.09-3.42-1.96-4.75-2.62,5.66-9.17,9.83-19.29,12.5-30.38,2.66-11.08,4.33-22.38,5-33.88.66-11.5,1-22.33,1-32.5V34ZM.5,113.75c9.16-.66,19.71-1.5,31.62-2.5,11.91-1,24.58-2.12,38-3.38,13.41-1.25,26.96-2.46,40.62-3.62v16c-13,1.17-26.04,2.42-39.12,3.75-13.09,1.34-25.54,2.59-37.38,3.75-11.84,1.17-22.5,2.25-32,3.25l-1.75-17.25ZM26.25,34h63.75v16.25H26.25v-16.25ZM50.75,0l20,4c-2.34,6.84-4.88,13.67-7.62,20.5-2.75,6.84-5.29,12.67-7.62,17.5l-15-3.75c1.83-5.33,3.75-11.66,5.75-19,2-7.33,3.5-13.75,4.5-19.25ZM45,65l11.75-4.75c3.5,5.17,6.54,10.88,9.12,17.12,2.58,6.25,4.38,11.71,5.38,16.38l-13,5.25c-.67-4.66-2.25-10.16-4.75-16.5-2.5-6.33-5.34-12.16-8.5-17.5ZM51.5,134h12.25v56h-12.25v-56ZM82.75,34h17v175.5c0,4.66-.54,8.38-1.62,11.12-1.09,2.75-3.21,4.88-6.38,6.38-3,1.5-6.84,2.41-11.5,2.75-4.67.33-10.67.5-18,.5-.5-2.17-1.25-4.96-2.25-8.38-1-3.42-2.09-6.29-3.25-8.62,5.16.16,9.79.25,13.88.25h8.12c2.66,0,4-1.34,4-4V34ZM139.5,3l18,4.25c-2.84,20.17-6.96,39.46-12.38,57.88-5.42,18.42-12.71,34.12-21.88,47.12-1-1.16-2.29-2.41-3.88-3.75-1.59-1.33-3.25-2.66-5-4-1.75-1.33-3.38-2.41-4.88-3.25,5.5-8,10.25-17.25,14.25-27.75s7.29-21.79,9.88-33.88c2.58-12.08,4.54-24.29,5.88-36.62ZM122.5,120h97v108.75h-18.25v-91.25h-61v92.5h-17.75v-110ZM130.25,201.5h79v17h-79v-17ZM195.25,2.5c2.33,12.34,5.33,24.5,9,36.5,3.66,12,8,23,13,33s10.5,18.25,16.5,24.75c-1.5,1-3.12,2.34-4.88,4-1.75,1.67-3.42,3.46-5,5.38-1.59,1.92-2.96,3.71-4.12,5.38-6.34-7.66-12.09-17.08-17.25-28.25-5.17-11.16-9.67-23.38-13.5-36.62-3.84-13.25-7-26.62-9.5-40.12l15.75-4Z" style="fill: #231f20; stroke-width: 0px;"/>
</svg>