<?xml version="1.0" encoding="UTF-8"?>
<svg id="Layer_1" data-name="Layer 1" xmlns="http://www.w3.org/2000/svg" viewBox="0 0 237.5 230.25">
  <path d="M15.75,143.25l15.75,2.5c-1.67,11.84-3.96,23.46-6.88,34.88-2.92,11.42-6.29,21.12-10.12,29.12-1-.66-2.42-1.46-4.25-2.38-1.84-.91-3.67-1.79-5.5-2.62-1.84-.83-3.42-1.5-4.75-2,4.16-7.66,7.5-16.79,10-27.38,2.5-10.58,4.41-21.29,5.75-32.12ZM.5,110.75c10.83-.5,23.71-1.12,38.62-1.88,14.91-.75,30.21-1.54,45.88-2.38v15.75c-14.67,1-29.21,1.96-43.62,2.88-14.42.92-27.29,1.71-38.62,2.38l-2.25-16.75ZM2.75,52.5l9.75-12c4.5,4,9.04,8.42,13.62,13.25,4.58,4.84,8.79,9.59,12.62,14.25,3.83,4.67,6.83,8.92,9,12.75l-10.5,14c-2.17-4-5.12-8.5-8.88-13.5s-7.88-10-12.38-15-8.92-9.58-13.25-13.75ZM70.5,28.75l15.75,7.5c-5.67,9.17-12,18.96-19,29.38-7,10.42-14.04,20.46-21.12,30.12-7.09,9.67-13.79,18.09-20.12,25.25l-11.5-6.5c4.66-5.5,9.58-11.79,14.75-18.88,5.16-7.08,10.25-14.5,15.25-22.25s9.75-15.46,14.25-23.12c4.5-7.66,8.41-14.83,11.75-21.5ZM42.5.25l16.5,6.25c-3,6.17-6.29,12.59-9.88,19.25-3.59,6.67-7.17,13.12-10.75,19.38-3.59,6.25-6.96,11.71-10.12,16.38l-13-5.75c3.16-4.83,6.46-10.5,9.88-17,3.41-6.5,6.66-13.16,9.75-20,3.08-6.83,5.62-13,7.62-18.5ZM42.25,118.25h16.5v112h-16.5v-112ZM60.75,86l13.75-5.5c3.5,5.34,6.83,11.17,10,17.5,3.16,6.34,6.04,12.46,8.62,18.38,2.58,5.92,4.46,11.12,5.62,15.62l-15,7c-1-4.83-2.71-10.29-5.12-16.38-2.42-6.08-5.12-12.33-8.12-18.75-3-6.41-6.25-12.38-9.75-17.88ZM67.5,146.5l13.75-4c3.16,7,5.96,14.67,8.38,23,2.41,8.34,4.04,15.59,4.88,21.75l-14.75,4.5c-.5-6.16-1.92-13.46-4.25-21.88-2.34-8.41-5-16.21-8-23.38ZM131.5,136h3.5l3-.5,10.25,4.25c-4.34,20-11.21,36.59-20.62,49.75-9.42,13.17-20.38,23.33-32.88,30.5-.67-1.34-1.71-2.84-3.12-4.5-1.42-1.67-2.92-3.25-4.5-4.75-1.59-1.5-2.96-2.66-4.12-3.5,11.66-6.33,21.75-15.16,30.25-26.5,8.5-11.33,14.58-25.25,18.25-41.75v-3ZM94,136h41.75v16h-41.75v-16ZM103.5,26h119.5v88.5h-119.5V26ZM120.75,41.25v21.75h84.25v-21.75h-84.25ZM120.75,77.25v21.75h84.25v-21.75h-84.25ZM154,106.25h17v103.75c0,4.83-.54,8.54-1.62,11.12-1.09,2.58-3.21,4.62-6.38,6.12-3.17,1.33-7.34,2.12-12.5,2.38-5.17.25-11.67.38-19.5.38-.34-2.34-1-5.04-2-8.12-1-3.09-2.09-5.88-3.25-8.38,5.66.16,10.75.25,15.25.25h9c1.66-.17,2.75-.5,3.25-1s.75-1.42.75-2.75v-103.75ZM154.75,0l20.75,4c-2.84,6-5.92,11.96-9.25,17.88-3.34,5.92-6.42,11.04-9.25,15.38l-15.75-4c2.33-4.66,4.83-10.16,7.5-16.5,2.66-6.33,4.66-11.91,6-16.75ZM169,107.5c1.66,8.84,4.16,17.92,7.5,27.25,3.33,9.34,7.66,18.42,13,27.25,5.33,8.84,11.96,16.96,19.88,24.38,7.91,7.42,17.29,13.54,28.12,18.38-1.17,1.17-2.46,2.62-3.88,4.38-1.42,1.75-2.79,3.58-4.12,5.5-1.34,1.91-2.5,3.71-3.5,5.38-10.67-5.5-19.88-12.25-27.62-20.25s-14.25-16.62-19.5-25.88-9.5-18.5-12.75-27.75-5.79-17.96-7.62-26.12l10.5-12.5ZM216.75,125.25l15.25,11c-6.84,6.17-14.17,12.46-22,18.88-7.84,6.42-15.09,11.79-21.75,16.12l-11.5-8.75c4.33-3.33,8.96-7.16,13.88-11.5,4.91-4.33,9.71-8.75,14.38-13.25,4.66-4.5,8.58-8.66,11.75-12.5Z" style="fill: #231f20; stroke-width: 0px;"/>
</svg>