<?xml version="1.0" encoding="UTF-8"?>
<svg id="Layer_1" data-name="Layer 1" xmlns="http://www.w3.org/2000/svg" viewBox="0 0 223.5 230.32">
  <path d="M0,40.75h223.5v17.25H0v-17.25ZM15.75,80.5h79.25v16h-61.5v133.5H15.75V80.5ZM25.75,121.25h70.25v14.75H25.75v-14.75ZM25.75,161.25h70.25v14.75H25.75v-14.75ZM38.75,7.25L56.25,1c4.83,5.17,9.58,11.09,14.25,17.75,4.66,6.67,8.25,12.42,10.75,17.25l-18.5,7c-2-4.83-5.29-10.62-9.88-17.38-4.59-6.75-9.29-12.88-14.12-18.38ZM89,80.5h18.25v129.25c0,4.66-.62,8.33-1.88,11-1.25,2.66-3.62,4.75-7.12,6.25s-8.04,2.41-13.62,2.75c-5.59.33-12.62.5-21.12.5-.5-2.34-1.38-5.12-2.62-8.38s-2.54-6.04-3.88-8.38c6.33.16,12.08.29,17.25.38,5.16.08,8.58.04,10.25-.12,1.83,0,3.04-.34,3.62-1,.58-.67.88-1.75.88-3.25V80.5ZM137.75,82.75h17.5v102.5h-17.5v-102.5ZM167.5,0l20,6.5c-4.67,7.84-9.71,15.75-15.12,23.75-5.42,8-10.38,14.92-14.88,20.75l-16.75-6c3.16-4.16,6.41-8.88,9.75-14.12,3.33-5.25,6.46-10.58,9.38-16,2.91-5.41,5.46-10.38,7.62-14.88ZM188.5,75.25h18.5v132.75c0,5.33-.75,9.46-2.25,12.38-1.5,2.91-4.25,5.12-8.25,6.62-3.84,1.5-8.96,2.46-15.38,2.88-6.42.41-14.46.54-24.12.38-.5-2.5-1.42-5.46-2.75-8.88-1.34-3.42-2.67-6.46-4-9.12,7.5.33,14.33.5,20.5.5s10.33-.09,12.5-.25c2,0,3.38-.34,4.12-1s1.12-1.91,1.12-3.75V75.25Z" style="fill: #231f20; stroke-width: 0px;"/>
</svg>