<?xml version="1.0" encoding="UTF-8"?>
<svg id="Layer_1" data-name="Layer 1" xmlns="http://www.w3.org/2000/svg" viewBox="0 0 235.5 230.5">
  <path d="M16.5,143l16,2.75c-1.67,11.84-4,23.46-7,34.88-3,11.42-6.5,21.12-10.5,29.12-1.17-.83-2.62-1.66-4.38-2.5-1.75-.83-3.59-1.71-5.5-2.62-1.92-.91-3.62-1.62-5.12-2.12,4.33-7.66,7.79-16.79,10.38-27.38,2.58-10.58,4.62-21.29,6.12-32.12ZM2.75,111.75c11.16-.33,24.58-.79,40.25-1.38,15.66-.58,31.75-1.29,48.25-2.12v15.5c-15.84,1-31.34,1.92-46.5,2.75-15.17.84-28.67,1.59-40.5,2.25l-1.5-17ZM3.25,52.75l9.25-12.5c4.66,3.84,9.41,8.09,14.25,12.75,4.83,4.67,9.25,9.29,13.25,13.88,4,4.59,7.08,8.71,9.25,12.38l-10,14.5c-2.34-4-5.46-8.41-9.38-13.25-3.92-4.83-8.21-9.66-12.88-14.5-4.67-4.83-9.25-9.25-13.75-13.25ZM42.5,0l16.75,6.5c-3,6-6.34,12.34-10,19-3.67,6.67-7.25,13.04-10.75,19.12-3.5,6.09-6.92,11.46-10.25,16.12l-13-5.75c3.16-4.83,6.41-10.46,9.75-16.88,3.33-6.41,6.58-13,9.75-19.75,3.16-6.75,5.75-12.88,7.75-18.38ZM72.75,28.5l16.5,7c-5.84,9.5-12.29,19.46-19.38,29.88-7.09,10.42-14.21,20.54-21.38,30.38-7.17,9.84-13.92,18.34-20.25,25.5l-12-6.25c4.83-5.66,9.83-12.08,15-19.25,5.16-7.16,10.29-14.66,15.38-22.5,5.08-7.83,9.88-15.58,14.38-23.25,4.5-7.66,8.41-14.83,11.75-21.5ZM45.25,119h17v111.5h-17v-111.5ZM64.75,86.5l14-6c3.66,5.5,7.16,11.34,10.5,17.5,3.33,6.17,6.29,12.17,8.88,18,2.58,5.84,4.46,11.09,5.62,15.75l-14.75,7c-1.34-4.66-3.25-10-5.75-16s-5.34-12.16-8.5-18.5c-3.17-6.33-6.5-12.25-10-17.75ZM71.25,146.5l14-4.75c3.66,7.67,7.12,16,10.38,25s5.54,16.75,6.88,23.25l-15.5,5.25c-1.17-6.66-3.25-14.54-6.25-23.62-3-9.08-6.17-17.46-9.5-25.12ZM89,205.75h146.5v17H89v-17ZM115.5,14h100.75v202.25h-18.75V31.25h-64v185h-18V14ZM125.25,77.25h81v17.25h-81v-17.25ZM125.25,140.5h81v17.25h-81v-17.25Z" style="fill: #231f20; stroke-width: 0px;"/>
</svg>