<?xml version="1.0" encoding="UTF-8"?>
<svg id="Layer_1" data-name="Layer 1" xmlns="http://www.w3.org/2000/svg" viewBox="0 0 232.5 230.25">
  <path d="M46.25,113.75l19.5,2.5c-1.84,13.67-4.75,27.67-8.75,42-4,14.34-9.46,27.79-16.38,40.38-6.92,12.58-15.79,23.12-26.62,31.62-1-1.17-2.34-2.5-4-4-1.67-1.5-3.38-3.04-5.12-4.62-1.75-1.59-3.38-2.79-4.88-3.62,10.16-7.84,18.41-17.54,24.75-29.12,6.33-11.58,11.21-23.91,14.62-37,3.41-13.08,5.71-25.79,6.88-38.12ZM7.25,81h218.25v17.5H7.25v-17.5ZM29,29h178.25v17.5H29v-17.5ZM56.75,144.25c4.83,13.67,11.04,24.67,18.62,33,7.58,8.34,16.38,14.79,26.38,19.38,10,4.59,20.91,7.71,32.75,9.38,11.83,1.67,24.41,2.5,37.75,2.5h36.62c5.08,0,9.75-.04,14-.12,4.25-.08,7.46-.12,9.62-.12-1,1.5-1.96,3.33-2.88,5.5-.92,2.16-1.75,4.41-2.5,6.75-.75,2.33-1.29,4.33-1.62,6h-54c-15.5,0-29.88-1-43.12-3s-25.34-5.71-36.25-11.12c-10.92-5.41-20.59-13.08-29-23-8.42-9.91-15.54-22.79-21.38-38.62l15-6.5ZM106.25,0h19.25v90.25h-19.25V0ZM106.25,90.75h19.25v122l-19.25-6.5v-115.5ZM116.5,138h92.75v17.25h-92.75v-17.25Z" style="fill: #231f20; stroke-width: 0px;"/>
</svg>