<?xml version="1.0" encoding="UTF-8"?>
<svg id="Layer_1" data-name="Layer 1" xmlns="http://www.w3.org/2000/svg" viewBox="0 0 339.25 211">
  <path d="M2,173.75V28.25c0-3.5-.12-7.75-.38-12.75S.83,6.09,0,2.25h24.75c-.5,3.84-.92,8.21-1.25,13.12-.34,4.92-.5,9.21-.5,12.88v145.5c0,2.5.04,5.59.12,9.25.08,3.67.29,7.29.62,10.88.33,3.58.58,6.71.75,9.38H.5c.5-4,.88-8.75,1.12-14.25s.38-10.58.38-15.25ZM18.5,67.75c8.16,2.5,17.25,5.46,27.25,8.88,10,3.42,20.12,7.04,30.38,10.88,10.25,3.84,20,7.71,29.25,11.62,9.25,3.92,17.38,7.62,24.38,11.12l-8.75,21.25c-7.17-3.83-15.21-7.75-24.12-11.75-8.92-4-18.12-7.91-27.62-11.75-9.5-3.83-18.62-7.25-27.38-10.25s-16.54-5.58-23.38-7.75v-22.25ZM89.75,12.5c2.16,3,4.66,6.71,7.5,11.12,2.83,4.42,5.62,8.96,8.38,13.62,2.75,4.67,5.04,9,6.88,13l-14.25,6.5c-2-4.33-4.21-8.71-6.62-13.12-2.42-4.41-4.92-8.75-7.5-13-2.59-4.25-5.29-8.21-8.12-11.88l13.75-6.25ZM120,0c2.16,2.84,4.71,6.42,7.62,10.75,2.91,4.34,5.79,8.84,8.62,13.5,2.83,4.67,5.25,8.92,7.25,12.75l-14,7c-2.17-4.33-4.5-8.66-7-13-2.5-4.33-5.12-8.58-7.88-12.75-2.75-4.16-5.54-8.08-8.38-11.75l13.75-6.5Z" style="fill: #231f20; stroke-width: 0px;"/>
  <path d="M339.25,76c-.5,1.34-1,3.29-1.5,5.88-.5,2.59-.92,4.88-1.25,6.88-.67,5-1.92,11.17-3.75,18.5-1.84,7.34-4.09,14.88-6.75,22.62-2.67,7.75-5.84,14.88-9.5,21.38-4.84,8.67-11.29,16.88-19.38,24.62-8.09,7.75-17.71,14.62-28.88,20.62-11.17,6-23.84,10.83-38,14.5l-15.75-17.5c2.5-.5,5.25-1.04,8.25-1.62,3-.58,5.88-1.29,8.62-2.12,2.75-.83,5.04-1.58,6.88-2.25,10.83-4,21.38-9.21,31.62-15.62,10.25-6.41,18.96-15.29,26.12-26.62,3.5-5.5,6.54-11.54,9.12-18.12,2.58-6.58,4.71-13.25,6.38-20,1.66-6.75,2.75-13.12,3.25-19.12h-116.25v35.75c0,1.67.08,3.71.25,6.12.16,2.42.33,4.38.5,5.88h-20.5c.16-1.66.33-3.75.5-6.25.16-2.5.25-4.75.25-6.75v-36.25c0-2.33-.09-5.25-.25-8.75-.17-3.5-.42-6.41-.75-8.75,2.83.34,6.21.54,10.12.62,3.91.09,7.54.12,10.88.12h112.5c3.66,0,6.62-.08,8.88-.25,2.25-.16,3.96-.5,5.12-1l13.25,7.5ZM266.25,37.25c-.5,3-.79,5.71-.88,8.12-.09,2.42-.12,4.62-.12,6.62v29.5h-20v-29.5c0-2-.09-4.21-.25-6.62-.17-2.41-.5-5.12-1-8.12h22.25Z" style="fill: #231f20; stroke-width: 0px;"/>
</svg>