<?xml version="1.0" encoding="UTF-8"?>
<svg id="Layer_1" data-name="Layer 1" xmlns="http://www.w3.org/2000/svg" viewBox="0 0 385.01 196">
  <path d="M179,10c-.84,1.84-1.54,3.75-2.12,5.75-.59,2-1.12,4.25-1.62,6.75-1.34,6.67-3.09,13.96-5.25,21.88-2.17,7.92-4.79,16.09-7.88,24.5-3.09,8.42-6.67,16.59-10.75,24.5-4.09,7.92-8.54,15.04-13.38,21.38-7.67,9.67-16.17,18.71-25.5,27.12-9.34,8.42-20,15.96-32,22.62-12,6.67-25.67,12.41-41,17.25l-17-18.75c16.33-4.16,30.46-9.21,42.38-15.12,11.91-5.91,22.38-12.71,31.38-20.38,9-7.66,16.91-15.91,23.75-24.75,6-7.5,11.21-16.08,15.62-25.75,4.41-9.66,8.08-19.38,11-29.12,2.91-9.75,4.96-18.62,6.12-26.62H25c-5,0-9.59.09-13.75.25-4.17.17-7.92.34-11.25.5V0c2.33.17,4.91.42,7.75.75,2.83.34,5.75.54,8.75.62,3,.09,5.83.12,8.5.12h125.5c1.83,0,3.91-.04,6.25-.12,2.33-.08,4.66-.46,7-1.12l15.25,9.75Z" style="fill: #231f20; stroke-width: 0px;"/>
  <path d="M385.01,50c-.67,1-1.5,2.12-2.5,3.38s-1.84,2.38-2.5,3.38c-1.84,3-4.46,6.96-7.88,11.88-3.42,4.92-7.38,10.25-11.88,16s-9.38,11.34-14.62,16.75c-5.25,5.42-10.71,10.04-16.38,13.88l-16.25-11.25c5.83-3.66,11.58-8.21,17.25-13.62,5.66-5.41,10.79-11,15.38-16.75,4.58-5.75,8.04-10.62,10.38-14.62h-34.88c-8.42,0-17.21-.04-26.38-.12-9.17-.08-17.88-.12-26.12-.12h-32.12c-3.67,0-7.54.09-11.62.25-4.09.17-8.04.42-11.88.75v-20.75c3.5.5,7.38.92,11.62,1.25,4.25.34,8.21.5,11.88.5h123.5c1.33,0,2.88-.08,4.62-.25,1.75-.16,3.46-.33,5.12-.5,1.66-.16,3-.33,4-.5l11.25,10.5ZM301.01,75.75c0,10.67-.38,20.71-1.12,30.12-.75,9.42-2.21,18.34-4.38,26.75-2.17,8.42-5.38,16.34-9.62,23.75-4.25,7.42-9.88,14.38-16.88,20.88s-15.75,12.75-26.25,18.75l-17.75-14c2.83-1,5.71-2.21,8.62-3.62,2.91-1.42,5.79-3.04,8.62-4.88,11.33-7.5,19.71-15.58,25.12-24.25,5.41-8.66,9-17.88,10.75-27.62s2.62-20.04,2.62-30.88c0-2.5-.12-5.04-.38-7.62-.25-2.58-.62-5.04-1.12-7.38h21.75Z" style="fill: #231f20; stroke-width: 0px;"/>
</svg>