<?xml version="1.0" encoding="UTF-8"?>
<svg id="Layer_1" data-name="Layer 1" xmlns="http://www.w3.org/2000/svg" viewBox="0 0 380.01 181.75">
  <path d="M179,10c-.84,1.84-1.54,3.75-2.12,5.75-.59,2-1.12,4.25-1.62,6.75-1.34,6.67-3.09,13.96-5.25,21.88-2.17,7.92-4.79,16.09-7.88,24.5-3.09,8.42-6.67,16.59-10.75,24.5-4.09,7.92-8.54,15.04-13.38,21.38-7.67,9.67-16.17,18.71-25.5,27.12-9.34,8.42-20,15.96-32,22.62-12,6.67-25.67,12.41-41,17.25l-17-18.75c16.33-4.16,30.46-9.21,42.38-15.12,11.91-5.91,22.38-12.71,31.38-20.38,9-7.66,16.91-15.91,23.75-24.75,6-7.5,11.21-16.08,15.62-25.75,4.41-9.66,8.08-19.38,11-29.12,2.91-9.75,4.96-18.62,6.12-26.62H25c-5,0-9.59.09-13.75.25-4.17.17-7.92.34-11.25.5V0c2.33.17,4.91.42,7.75.75,2.83.34,5.75.54,8.75.62,3,.09,5.83.12,8.5.12h125.5c1.83,0,3.91-.04,6.25-.12,2.33-.08,4.66-.46,7-1.12l15.25,9.75Z" style="fill: #231f20; stroke-width: 0px;"/>
  <path d="M207.01,157c3,.34,6.04.62,9.12.88,3.08.25,6.04.38,8.88.38h138.25c3,0,5.91-.12,8.75-.38,2.83-.25,5.5-.54,8-.88v21c-2.5-.34-5.42-.54-8.75-.62-3.34-.09-6-.12-8-.12h-138.25c-2.67,0-5.54.04-8.62.12-3.09.08-6.21.29-9.38.62v-21ZM219.26,47c2.66.34,5.71.59,9.12.75,3.41.17,6.12.25,8.12.25h115c3.16,0,6.25-.08,9.25-.25,3-.16,5.83-.41,8.5-.75v20c-2.67-.33-5.59-.5-8.75-.5h-132.12c-3.42,0-6.46.17-9.12.5v-20ZM282.51,168.75V58.25h20.25v110.5h-20.25Z" style="fill: #231f20; stroke-width: 0px;"/>
</svg>