<?xml version="1.0" encoding="UTF-8"?>
<svg id="Layer_1" data-name="Layer 1" xmlns="http://www.w3.org/2000/svg" viewBox="0 0 364.51 195.75">
  <path d="M179,10c-.84,1.84-1.54,3.75-2.12,5.75-.59,2-1.12,4.25-1.62,6.75-1.34,6.67-3.09,13.96-5.25,21.88-2.17,7.92-4.79,16.09-7.88,24.5-3.09,8.42-6.67,16.59-10.75,24.5-4.09,7.92-8.54,15.04-13.38,21.38-7.67,9.67-16.17,18.71-25.5,27.12-9.34,8.42-20,15.96-32,22.62-12,6.67-25.67,12.41-41,17.25l-17-18.75c16.33-4.16,30.46-9.21,42.38-15.12,11.91-5.91,22.38-12.71,31.38-20.38,9-7.66,16.91-15.91,23.75-24.75,6-7.5,11.21-16.08,15.62-25.75,4.41-9.66,8.08-19.38,11-29.12,2.91-9.75,4.96-18.62,6.12-26.62H25c-5,0-9.59.09-13.75.25-4.17.17-7.92.34-11.25.5V0c2.33.17,4.91.42,7.75.75,2.83.34,5.75.54,8.75.62,3,.09,5.83.12,8.5.12h125.5c1.83,0,3.91-.04,6.25-.12,2.33-.08,4.66-.46,7-1.12l15.25,9.75Z" style="fill: #231f20; stroke-width: 0px;"/>
  <path d="M199.51,111.75c11-2.66,22.12-6.16,33.38-10.5,11.25-4.33,21.83-8.91,31.75-13.75,9.91-4.83,18.21-9.33,24.88-13.5,8-4.83,15.71-10.21,23.12-16.12,7.41-5.91,14.29-11.88,20.62-17.88,6.33-6,11.58-11.66,15.75-17l15.5,15c-4.67,5.17-10.54,10.88-17.62,17.12-7.09,6.25-14.79,12.46-23.12,18.62-8.34,6.17-16.92,11.92-25.75,17.25-5.17,3.17-11.17,6.5-18,10-6.84,3.5-14.09,7-21.75,10.5-7.67,3.5-15.71,6.88-24.12,10.12-8.42,3.25-16.79,6.12-25.12,8.62l-9.5-18.5ZM287.26,85.25l20.75-5v93.5c0,2.5.04,5.21.12,8.12.08,2.91.21,5.62.38,8.12.16,2.5.41,4.41.75,5.75h-23c.16-1.34.33-3.25.5-5.75.16-2.5.29-5.21.38-8.12.08-2.92.12-5.62.12-8.12v-88.5Z" style="fill: #231f20; stroke-width: 0px;"/>
</svg>