<?xml version="1.0" encoding="UTF-8"?>
<svg id="Layer_1" data-name="Layer 1" xmlns="http://www.w3.org/2000/svg" viewBox="0 0 378.51 191.75">
  <path d="M179,10c-.84,1.84-1.54,3.75-2.12,5.75-.59,2-1.12,4.25-1.62,6.75-1.34,6.67-3.09,13.96-5.25,21.88-2.17,7.92-4.79,16.09-7.88,24.5-3.09,8.42-6.67,16.59-10.75,24.5-4.09,7.92-8.54,15.04-13.38,21.38-7.67,9.67-16.17,18.71-25.5,27.12-9.34,8.42-20,15.96-32,22.62-12,6.67-25.67,12.41-41,17.25l-17-18.75c16.33-4.16,30.46-9.21,42.38-15.12,11.91-5.91,22.38-12.71,31.38-20.38,9-7.66,16.91-15.91,23.75-24.75,6-7.5,11.21-16.08,15.62-25.75,4.41-9.66,8.08-19.38,11-29.12,2.91-9.75,4.96-18.62,6.12-26.62H25c-5,0-9.59.09-13.75.25-4.17.17-7.92.34-11.25.5V0c2.33.17,4.91.42,7.75.75,2.83.34,5.75.54,8.75.62,3,.09,5.83.12,8.5.12h125.5c1.83,0,3.91-.04,6.25-.12,2.33-.08,4.66-.46,7-1.12l15.25,9.75Z" style="fill: #231f20; stroke-width: 0px;"/>
  <path d="M207.01,155c10-4.83,19.96-10.58,29.88-17.25,9.91-6.66,19.21-13.75,27.88-21.25,8.66-7.5,16.29-15,22.88-22.5,6.58-7.5,11.71-14.5,15.38-21h10l.5,15.25c-3.34,6-8.21,12.71-14.62,20.12-6.42,7.42-13.88,14.92-22.38,22.5-8.5,7.59-17.5,14.84-27,21.75-9.5,6.92-19,12.88-28.5,17.88l-14-15.5ZM213.76,59.5c2.83.34,5.88.59,9.12.75,3.25.17,6.38.25,9.38.25h129.5c2.5,0,5.46-.12,8.88-.38,3.41-.25,6.04-.46,7.88-.62v19.75c-2.17-.16-4.79-.33-7.88-.5-3.09-.16-5.88-.25-8.38-.25h-129.5c-3.34,0-6.59.09-9.75.25-3.17.17-6.25.42-9.25.75v-20ZM326.26,23.25c-.34,2.67-.59,5.46-.75,8.38-.17,2.92-.25,5.79-.25,8.62.16,3.67.29,8.67.38,15,.08,6.34.21,13.54.38,21.62.16,8.09.33,16.54.5,25.38.16,8.84.29,17.62.38,26.38.08,8.75.21,17.09.38,25,.16,7.92.25,14.88.25,20.88.16,5.33-1.54,9.54-5.12,12.62-3.59,3.08-8.12,4.62-13.62,4.62-3.17,0-7-.09-11.5-.25-4.5-.17-8.92-.38-13.25-.62-4.34-.25-8.17-.46-11.5-.62l-1-18.25c5,.67,10.41,1.21,16.25,1.62,5.83.42,10.58.62,14.25.62,2.33,0,4.04-.66,5.12-2,1.08-1.33,1.62-3.08,1.62-5.25,0-5-.04-11.04-.12-18.12-.09-7.08-.17-14.75-.25-23-.09-8.25-.21-16.62-.38-25.12-.17-8.5-.29-16.66-.38-24.5-.09-7.83-.21-14.88-.38-21.12-.17-6.25-.34-11.21-.5-14.88,0-2.33-.17-5.04-.5-8.12-.34-3.08-.75-6.04-1.25-8.88h21.25Z" style="fill: #231f20; stroke-width: 0px;"/>
</svg>