<?xml version="1.0" encoding="UTF-8"?>
<svg id="Layer_1" data-name="Layer 1" xmlns="http://www.w3.org/2000/svg" viewBox="0 0 401 221.5">
  <path d="M109.5,7.5c-2.17,3.34-4.25,6.88-6.25,10.62s-3.59,6.79-4.75,9.12c-5,9.17-11.25,19.04-18.75,29.62-7.5,10.59-16.42,21.04-26.75,31.38s-22.25,20-35.75,29L0,104.25c10.83-6.33,20.5-13.25,29-20.75s15.96-15.08,22.38-22.75c6.41-7.66,11.88-15,16.38-22s8.08-13.33,10.75-19c1.33-2.16,2.79-5.21,4.38-9.12,1.58-3.91,2.71-7.46,3.38-10.62l23.25,7.5ZM193.25,45.5c-1.17,1.67-2.25,3.79-3.25,6.38-1,2.59-1.84,4.88-2.5,6.88-2.17,8.34-5.34,17.46-9.5,27.38-4.17,9.92-9.17,19.92-15,30-5.84,10.09-12.5,19.62-20,28.62-11.34,13.84-24.88,26.46-40.62,37.88-15.75,11.42-35.38,21.46-58.88,30.12l-18-16.25c15.33-4.5,29.08-9.96,41.25-16.38,12.16-6.41,23.08-13.54,32.75-21.38,9.66-7.83,18.25-16.16,25.75-25,6.5-7.66,12.46-16.08,17.88-25.25,5.41-9.16,10.04-18.38,13.88-27.62,3.83-9.25,6.58-17.62,8.25-25.12h-92.75l8-18h79.75c3.33,0,6.41-.21,9.25-.62,2.83-.41,5.16-1.04,7-1.88l16.75,10.25Z" style="fill: #231f20; stroke-width: 0px;"/>
  <path d="M401,75.5c-.67,1-1.5,2.12-2.5,3.38s-1.84,2.38-2.5,3.38c-1.84,3-4.46,6.96-7.88,11.88-3.42,4.92-7.38,10.25-11.88,16s-9.38,11.34-14.62,16.75c-5.25,5.42-10.71,10.04-16.38,13.88l-16.25-11.25c5.83-3.66,11.58-8.21,17.25-13.62,5.66-5.41,10.79-11,15.38-16.75,4.58-5.75,8.04-10.62,10.38-14.62h-34.88c-8.42,0-17.21-.04-26.38-.12-9.17-.08-17.88-.12-26.12-.12h-32.12c-3.67,0-7.54.09-11.62.25-4.09.17-8.04.42-11.88.75v-20.75c3.5.5,7.38.92,11.62,1.25,4.25.34,8.21.5,11.88.5h123.5c1.33,0,2.88-.08,4.62-.25,1.75-.16,3.46-.33,5.12-.5,1.66-.16,3-.33,4-.5l11.25,10.5ZM317,101.25c0,10.67-.38,20.71-1.12,30.12-.75,9.42-2.21,18.34-4.38,26.75-2.17,8.42-5.38,16.34-9.62,23.75-4.25,7.42-9.88,14.38-16.88,20.88s-15.75,12.75-26.25,18.75l-17.75-14c2.83-1,5.71-2.21,8.62-3.62,2.91-1.42,5.79-3.04,8.62-4.88,11.33-7.5,19.71-15.58,25.12-24.25,5.41-8.66,9-17.88,10.75-27.62s2.62-20.04,2.62-30.88c0-2.5-.12-5.04-.38-7.62-.25-2.58-.62-5.04-1.12-7.38h21.75Z" style="fill: #231f20; stroke-width: 0px;"/>
</svg>