<?xml version="1.0" encoding="UTF-8"?>
<svg id="Layer_1" data-name="Layer 1" xmlns="http://www.w3.org/2000/svg" viewBox="0 0 385.5 221.25">
  <path d="M109.5,7.5c-2.17,3.34-4.25,6.88-6.25,10.62s-3.59,6.79-4.75,9.12c-5,9.17-11.25,19.04-18.75,29.62-7.5,10.59-16.42,21.04-26.75,31.38s-22.25,20-35.75,29L0,104.25c10.83-6.33,20.5-13.25,29-20.75s15.96-15.08,22.38-22.75c6.41-7.66,11.88-15,16.38-22s8.08-13.33,10.75-19c1.33-2.16,2.79-5.21,4.38-9.12,1.58-3.91,2.71-7.46,3.38-10.62l23.25,7.5ZM193.25,45.5c-1.17,1.67-2.25,3.79-3.25,6.38-1,2.59-1.84,4.88-2.5,6.88-2.17,8.34-5.34,17.46-9.5,27.38-4.17,9.92-9.17,19.92-15,30-5.84,10.09-12.5,19.62-20,28.62-11.34,13.84-24.88,26.46-40.62,37.88-15.75,11.42-35.38,21.46-58.88,30.12l-18-16.25c15.33-4.5,29.08-9.96,41.25-16.38,12.16-6.41,23.08-13.54,32.75-21.38,9.66-7.83,18.25-16.16,25.75-25,6.5-7.66,12.46-16.08,17.88-25.25,5.41-9.16,10.04-18.38,13.88-27.62,3.83-9.25,6.58-17.62,8.25-25.12h-92.75l8-18h79.75c3.33,0,6.41-.21,9.25-.62,2.83-.41,5.16-1.04,7-1.88l16.75,10.25Z" style="fill: #231f20; stroke-width: 0px;"/>
  <path d="M220.5,137.25c11-2.66,22.12-6.16,33.38-10.5,11.25-4.33,21.83-8.91,31.75-13.75,9.91-4.83,18.21-9.33,24.88-13.5,8-4.83,15.71-10.21,23.12-16.12,7.41-5.91,14.29-11.88,20.62-17.88,6.33-6,11.58-11.66,15.75-17l15.5,15c-4.67,5.17-10.54,10.88-17.62,17.12-7.09,6.25-14.79,12.46-23.12,18.62-8.34,6.17-16.92,11.92-25.75,17.25-5.17,3.17-11.17,6.5-18,10-6.84,3.5-14.09,7-21.75,10.5-7.67,3.5-15.71,6.88-24.12,10.12-8.42,3.25-16.79,6.12-25.12,8.62l-9.5-18.5ZM308.25,110.75l20.75-5v93.5c0,2.5.04,5.21.12,8.12.08,2.91.21,5.62.38,8.12.16,2.5.41,4.41.75,5.75h-23c.16-1.34.33-3.25.5-5.75.16-2.5.29-5.21.38-8.12.08-2.92.12-5.62.12-8.12v-88.5Z" style="fill: #231f20; stroke-width: 0px;"/>
</svg>