<?xml version="1.0" encoding="UTF-8"?>
<svg id="Layer_1" data-name="Layer 1" xmlns="http://www.w3.org/2000/svg" viewBox="0 0 394.5 217.25">
  <path d="M109.5,7.5c-2.17,3.34-4.25,6.88-6.25,10.62s-3.59,6.79-4.75,9.12c-5,9.17-11.25,19.04-18.75,29.62-7.5,10.59-16.42,21.04-26.75,31.38s-22.25,20-35.75,29L0,104.25c10.83-6.33,20.5-13.25,29-20.75s15.96-15.08,22.38-22.75c6.41-7.66,11.88-15,16.38-22s8.08-13.33,10.75-19c1.33-2.16,2.79-5.21,4.38-9.12,1.58-3.91,2.71-7.46,3.38-10.62l23.25,7.5ZM193.25,45.5c-1.17,1.67-2.25,3.79-3.25,6.38-1,2.59-1.84,4.88-2.5,6.88-2.17,8.34-5.34,17.46-9.5,27.38-4.17,9.92-9.17,19.92-15,30-5.84,10.09-12.5,19.62-20,28.62-11.34,13.84-24.88,26.46-40.62,37.88-15.75,11.42-35.38,21.46-58.88,30.12l-18-16.25c15.33-4.5,29.08-9.96,41.25-16.38,12.16-6.41,23.08-13.54,32.75-21.38,9.66-7.83,18.25-16.16,25.75-25,6.5-7.66,12.46-16.08,17.88-25.25,5.41-9.16,10.04-18.38,13.88-27.62,3.83-9.25,6.58-17.62,8.25-25.12h-92.75l8-18h79.75c3.33,0,6.41-.21,9.25-.62,2.83-.41,5.16-1.04,7-1.88l16.75,10.25Z" style="fill: #231f20; stroke-width: 0px;"/>
  <path d="M223,180.5c10-4.83,19.96-10.58,29.88-17.25,9.91-6.66,19.21-13.75,27.88-21.25,8.66-7.5,16.29-15,22.88-22.5,6.58-7.5,11.71-14.5,15.38-21h10l.5,15.25c-3.34,6-8.21,12.71-14.62,20.12-6.42,7.42-13.88,14.92-22.38,22.5-8.5,7.59-17.5,14.84-27,21.75-9.5,6.92-19,12.88-28.5,17.88l-14-15.5ZM229.75,85c2.83.34,5.88.59,9.12.75,3.25.17,6.38.25,9.38.25h129.5c2.5,0,5.46-.12,8.88-.38,3.41-.25,6.04-.46,7.88-.62v19.75c-2.17-.16-4.79-.33-7.88-.5-3.09-.16-5.88-.25-8.38-.25h-129.5c-3.34,0-6.59.09-9.75.25-3.17.17-6.25.42-9.25.75v-20ZM342.25,48.75c-.34,2.67-.59,5.46-.75,8.38-.17,2.92-.25,5.79-.25,8.62.16,3.67.29,8.67.38,15,.08,6.34.21,13.54.38,21.62.16,8.09.33,16.54.5,25.38.16,8.84.29,17.62.38,26.38.08,8.75.21,17.09.38,25,.16,7.92.25,14.88.25,20.88.16,5.33-1.54,9.54-5.12,12.62-3.59,3.08-8.12,4.62-13.62,4.62-3.17,0-7-.09-11.5-.25-4.5-.17-8.92-.38-13.25-.62-4.34-.25-8.17-.46-11.5-.62l-1-18.25c5,.67,10.41,1.21,16.25,1.62,5.83.42,10.58.62,14.25.62,2.33,0,4.04-.66,5.12-2,1.08-1.33,1.62-3.08,1.62-5.25,0-5-.04-11.04-.12-18.12-.09-7.08-.17-14.75-.25-23-.09-8.25-.21-16.62-.38-25.12-.17-8.5-.29-16.66-.38-24.5-.09-7.83-.21-14.88-.38-21.12-.17-6.25-.34-11.21-.5-14.88,0-2.33-.17-5.04-.5-8.12-.34-3.08-.75-6.04-1.25-8.88h21.25Z" style="fill: #231f20; stroke-width: 0px;"/>
</svg>