<?xml version="1.0" encoding="UTF-8"?>
<svg id="Layer_1" data-name="Layer 1" xmlns="http://www.w3.org/2000/svg" viewBox="0 0 389.75 207.5">
  <path d="M19.75,15c1.66,3.5,3.75,8.21,6.25,14.12,2.5,5.92,5.16,12.34,8,19.25,2.83,6.92,5.46,13.5,7.88,19.75,2.41,6.25,4.38,11.38,5.88,15.38l-19.75,7.25c-1-3-2.38-6.96-4.12-11.88-1.75-4.91-3.75-10.16-6-15.75-2.25-5.58-4.5-11.12-6.75-16.62s-4.38-10.38-6.38-14.62S1.16,24.42,0,22.25l19.75-7.25ZM200.5,16c-.84,2.17-1.62,4.59-2.38,7.25-.75,2.67-1.46,5-2.12,7-2.34,10.34-5.46,21-9.38,32-3.92,11-8.54,21.79-13.88,32.38-5.34,10.59-11.42,20.38-18.25,29.38-8.5,11.17-18.12,21.46-28.88,30.88-10.75,9.42-22,17.62-33.75,24.62s-23.54,12.58-35.38,16.75l-17.25-17.5c12-3.5,23.91-8.41,35.75-14.75,11.83-6.33,23.12-13.88,33.88-22.62s20.29-18.46,28.62-29.12c6.66-8.33,12.66-18.12,18-29.38,5.33-11.25,9.91-23.16,13.75-35.75,3.83-12.58,6.58-25.12,8.25-37.62l23,6.5ZM89.5,0c1.33,3,3.16,7.42,5.5,13.25,2.33,5.84,4.79,12.12,7.38,18.88,2.58,6.75,4.96,13.17,7.12,19.25,2.16,6.09,3.75,10.88,4.75,14.38l-19.5,6.75c-1-3.5-2.54-8.29-4.62-14.38-2.09-6.08-4.34-12.46-6.75-19.12-2.42-6.66-4.79-12.96-7.12-18.88-2.34-5.91-4.34-10.46-6-13.62L89.5,0Z" style="fill: #231f20; stroke-width: 0px;"/>
  <path d="M224.75,123.5c11-2.66,22.12-6.16,33.38-10.5,11.25-4.33,21.83-8.91,31.75-13.75,9.91-4.83,18.21-9.33,24.88-13.5,8-4.83,15.71-10.21,23.12-16.12,7.41-5.91,14.29-11.88,20.62-17.88,6.33-6,11.58-11.66,15.75-17l15.5,15c-4.67,5.17-10.54,10.88-17.62,17.12-7.09,6.25-14.79,12.46-23.12,18.62-8.34,6.17-16.92,11.92-25.75,17.25-5.17,3.17-11.17,6.5-18,10-6.84,3.5-14.09,7-21.75,10.5-7.67,3.5-15.71,6.88-24.12,10.12-8.42,3.25-16.79,6.12-25.12,8.62l-9.5-18.5ZM312.5,97l20.75-5v93.5c0,2.5.04,5.21.12,8.12.08,2.91.21,5.62.38,8.12.16,2.5.41,4.41.75,5.75h-23c.16-1.34.33-3.25.5-5.75.16-2.5.29-5.21.38-8.12.08-2.92.12-5.62.12-8.12v-88.5Z" style="fill: #231f20; stroke-width: 0px;"/>
</svg>