<?xml version="1.0" encoding="UTF-8"?>
<svg id="Layer_1" data-name="Layer 1" xmlns="http://www.w3.org/2000/svg" viewBox="0 0 398.76 203.5">
  <path d="M19.75,15c1.66,3.5,3.75,8.21,6.25,14.12,2.5,5.92,5.16,12.34,8,19.25,2.83,6.92,5.46,13.5,7.88,19.75,2.41,6.25,4.38,11.38,5.88,15.38l-19.75,7.25c-1-3-2.38-6.96-4.12-11.88-1.75-4.91-3.75-10.16-6-15.75-2.25-5.58-4.5-11.12-6.75-16.62s-4.38-10.38-6.38-14.62S1.16,24.42,0,22.25l19.75-7.25ZM200.5,16c-.84,2.17-1.62,4.59-2.38,7.25-.75,2.67-1.46,5-2.12,7-2.34,10.34-5.46,21-9.38,32-3.92,11-8.54,21.79-13.88,32.38-5.34,10.59-11.42,20.38-18.25,29.38-8.5,11.17-18.12,21.46-28.88,30.88-10.75,9.42-22,17.62-33.75,24.62s-23.54,12.58-35.38,16.75l-17.25-17.5c12-3.5,23.91-8.41,35.75-14.75,11.83-6.33,23.12-13.88,33.88-22.62s20.29-18.46,28.62-29.12c6.66-8.33,12.66-18.12,18-29.38,5.33-11.25,9.91-23.16,13.75-35.75,3.83-12.58,6.58-25.12,8.25-37.62l23,6.5ZM89.5,0c1.33,3,3.16,7.42,5.5,13.25,2.33,5.84,4.79,12.12,7.38,18.88,2.58,6.75,4.96,13.17,7.12,19.25,2.16,6.09,3.75,10.88,4.75,14.38l-19.5,6.75c-1-3.5-2.54-8.29-4.62-14.38-2.09-6.08-4.34-12.46-6.75-19.12-2.42-6.66-4.79-12.96-7.12-18.88-2.34-5.91-4.34-10.46-6-13.62L89.5,0Z" style="fill: #231f20; stroke-width: 0px;"/>
  <path d="M227.26,166.75c10-4.83,19.96-10.58,29.88-17.25,9.91-6.66,19.21-13.75,27.88-21.25,8.66-7.5,16.29-15,22.88-22.5,6.58-7.5,11.71-14.5,15.38-21h10l.5,15.25c-3.34,6-8.21,12.71-14.62,20.12-6.42,7.42-13.88,14.92-22.38,22.5-8.5,7.59-17.5,14.84-27,21.75-9.5,6.92-19,12.88-28.5,17.88l-14-15.5ZM234.01,71.25c2.83.34,5.88.59,9.12.75,3.25.17,6.38.25,9.38.25h129.5c2.5,0,5.46-.12,8.88-.38,3.41-.25,6.04-.46,7.88-.62v19.75c-2.17-.16-4.79-.33-7.88-.5-3.09-.16-5.88-.25-8.38-.25h-129.5c-3.34,0-6.59.09-9.75.25-3.17.17-6.25.42-9.25.75v-20ZM346.51,35c-.34,2.67-.59,5.46-.75,8.38-.17,2.92-.25,5.79-.25,8.62.16,3.67.29,8.67.38,15,.08,6.34.21,13.54.38,21.62.16,8.09.33,16.54.5,25.38.16,8.84.29,17.62.38,26.38.08,8.75.21,17.09.38,25,.16,7.92.25,14.88.25,20.88.16,5.33-1.54,9.54-5.12,12.62-3.59,3.08-8.12,4.62-13.62,4.62-3.17,0-7-.09-11.5-.25-4.5-.17-8.92-.38-13.25-.62-4.34-.25-8.17-.46-11.5-.62l-1-18.25c5,.67,10.41,1.21,16.25,1.62,5.83.42,10.58.62,14.25.62,2.33,0,4.04-.66,5.12-2,1.08-1.33,1.62-3.08,1.62-5.25,0-5-.04-11.04-.12-18.12-.09-7.08-.17-14.75-.25-23-.09-8.25-.21-16.62-.38-25.12-.17-8.5-.29-16.66-.38-24.5-.09-7.83-.21-14.88-.38-21.12-.17-6.25-.34-11.21-.5-14.88,0-2.33-.17-5.04-.5-8.12-.34-3.08-.75-6.04-1.25-8.88h21.25Z" style="fill: #231f20; stroke-width: 0px;"/>
</svg>