<?xml version="1.0" encoding="UTF-8"?>
<svg id="Layer_1" data-name="Layer 1" xmlns="http://www.w3.org/2000/svg" viewBox="0 0 400 203.5">
  <path d="M0,62.75c3.5.34,7.04.62,10.62.88,3.58.25,7.29.38,11.12.38h163.75c2.66,0,5.83-.08,9.5-.25,3.66-.16,7-.5,10-1v20.75c-2.67-.16-5.79-.29-9.38-.38-3.59-.08-6.96-.12-10.12-.12H10.75c-3.67,0-7.25.17-10.75.5v-20.75ZM30,0c3.5.34,7.12.67,10.88,1,3.75.34,7.62.5,11.62.5h101.25c3.5,0,7.38-.12,11.62-.38s8.12-.62,11.62-1.12v20.75c-3.67-.33-7.54-.54-11.62-.62-4.09-.08-7.96-.12-11.62-.12H52.75c-4,0-8,.04-12,.12-4,.09-7.59.29-10.75.62V0ZM117.75,73c0,15.67-1.12,30.04-3.38,43.12-2.25,13.09-6.12,24.79-11.62,35.12-3,5.67-7.04,11.29-12.12,16.88-5.09,5.59-10.75,10.88-17,15.88s-12.96,9.33-20.12,13l-18.5-13.75c9.66-4,18.75-9.41,27.25-16.25,8.5-6.83,15.16-14.16,20-22,6.33-10,10.33-21.04,12-33.12,1.66-12.08,2.5-25.04,2.5-38.88h21Z" style="fill: #231f20; stroke-width: 0px;"/>
  <path d="M400,68.5c-.5,1.34-1,3.29-1.5,5.88-.5,2.59-.92,4.88-1.25,6.88-.67,5-1.92,11.17-3.75,18.5-1.84,7.34-4.09,14.88-6.75,22.62-2.67,7.75-5.84,14.88-9.5,21.38-4.84,8.67-11.29,16.88-19.38,24.62-8.09,7.75-17.71,14.62-28.88,20.62-11.17,6-23.84,10.83-38,14.5l-15.75-17.5c2.5-.5,5.25-1.04,8.25-1.62,3-.58,5.88-1.29,8.62-2.12,2.75-.83,5.04-1.58,6.88-2.25,10.83-4,21.38-9.21,31.62-15.62,10.25-6.41,18.96-15.29,26.12-26.62,3.5-5.5,6.54-11.54,9.12-18.12,2.58-6.58,4.71-13.25,6.38-20,1.66-6.75,2.75-13.12,3.25-19.12h-116.25v35.75c0,1.67.08,3.71.25,6.12.16,2.42.33,4.38.5,5.88h-20.5c.16-1.66.33-3.75.5-6.25.16-2.5.25-4.75.25-6.75v-36.25c0-2.33-.09-5.25-.25-8.75-.17-3.5-.42-6.41-.75-8.75,2.83.34,6.21.54,10.12.62,3.91.09,7.54.12,10.88.12h112.5c3.66,0,6.62-.08,8.88-.25,2.25-.16,3.96-.5,5.12-1l13.25,7.5ZM327,29.75c-.5,3-.79,5.71-.88,8.12-.09,2.42-.12,4.62-.12,6.62v29.5h-20v-29.5c0-2-.09-4.21-.25-6.62-.17-2.41-.5-5.12-1-8.12h22.25Z" style="fill: #231f20; stroke-width: 0px;"/>
</svg>