<?xml version="1.0" encoding="UTF-8"?>
<svg id="Layer_1" data-name="Layer 1" xmlns="http://www.w3.org/2000/svg" viewBox="0 0 407.75 197">
  <path d="M0,62.75c3.5.34,7.04.62,10.62.88,3.58.25,7.29.38,11.12.38h163.75c2.66,0,5.83-.08,9.5-.25,3.66-.16,7-.5,10-1v20.75c-2.67-.16-5.79-.29-9.38-.38-3.59-.08-6.96-.12-10.12-.12H10.75c-3.67,0-7.25.17-10.75.5v-20.75ZM30,0c3.5.34,7.12.67,10.88,1,3.75.34,7.62.5,11.62.5h101.25c3.5,0,7.38-.12,11.62-.38s8.12-.62,11.62-1.12v20.75c-3.67-.33-7.54-.54-11.62-.62-4.09-.08-7.96-.12-11.62-.12H52.75c-4,0-8,.04-12,.12-4,.09-7.59.29-10.75.62V0ZM117.75,73c0,15.67-1.12,30.04-3.38,43.12-2.25,13.09-6.12,24.79-11.62,35.12-3,5.67-7.04,11.29-12.12,16.88-5.09,5.59-10.75,10.88-17,15.88s-12.96,9.33-20.12,13l-18.5-13.75c9.66-4,18.75-9.41,27.25-16.25,8.5-6.83,15.16-14.16,20-22,6.33-10,10.33-21.04,12-33.12,1.66-12.08,2.5-25.04,2.5-38.88h21Z" style="fill: #231f20; stroke-width: 0px;"/>
  <path d="M231,162.25c3,.17,6.25.38,9.75.62s7.16.38,11,.38h136.25c2.66,0,5.96-.08,9.88-.25,3.91-.16,7.21-.33,9.88-.5v20.25c-1.5-.16-3.42-.25-5.75-.25s-4.67-.04-7-.12c-2.34-.08-4.42-.12-6.25-.12h-137c-3.84,0-7.34.04-10.5.12-3.17.09-6.59.29-10.25.62v-20.75ZM378,66c-.34,1.17-.67,2.5-1,4-.34,1.5-.59,2.75-.75,3.75-.34,3.84-.96,9-1.88,15.5-.92,6.5-1.96,13.67-3.12,21.5-1.17,7.84-2.34,15.62-3.5,23.38-1.17,7.75-2.21,14.84-3.12,21.25-.92,6.42-1.71,11.38-2.38,14.88h-21.25c.66-2.83,1.46-7.21,2.38-13.12.91-5.91,2-12.62,3.25-20.12s2.38-15.04,3.38-22.62c1-7.58,1.88-14.5,2.62-20.75s1.21-11.04,1.38-14.38h-79.5c-3.67,0-7.12.09-10.38.25-3.25.17-6.46.34-9.62.5v-21c2,.34,4.12.59,6.38.75,2.25.17,4.54.34,6.88.5,2.33.17,4.5.25,6.5.25h76c1.5,0,3.04-.08,4.62-.25,1.58-.16,3.12-.38,4.62-.62s2.58-.54,3.25-.88l15.25,7.25Z" style="fill: #231f20; stroke-width: 0px;"/>
</svg>