<?xml version="1.0" encoding="UTF-8"?>
<svg id="Layer_1" data-name="Layer 1" xmlns="http://www.w3.org/2000/svg" viewBox="0 0 393 227.25">
  <path d="M186.5,63c-.67,1.67-1.34,4-2,7-.67,3-1.25,5.67-1.75,8-.67,5-1.71,10.59-3.12,16.75-1.42,6.17-3.12,12.62-5.12,19.38s-4.34,13.42-7,20c-2.67,6.59-5.75,12.88-9.25,18.88-6.17,10.84-14.04,20.88-23.62,30.12-9.59,9.25-20.71,17.34-33.38,24.25-12.67,6.91-26.59,12.38-41.75,16.38l-16.25-18.5c4.16-.66,8.5-1.62,13-2.88s8.75-2.62,12.75-4.12c8.5-2.66,16.96-6.46,25.38-11.38,8.41-4.91,16.33-10.71,23.75-17.38,7.41-6.66,13.62-13.91,18.62-21.75,4.5-7,8.41-14.79,11.75-23.38,3.33-8.58,6-17.16,8-25.75,2-8.58,3.33-16.46,4-23.62H21v44.75c0,2.17.08,4.71.25,7.62.16,2.92.33,5.29.5,7.12H0c.33-2.16.58-4.75.75-7.75.16-3,.25-5.75.25-8.25v-43.75c0-2.66-.09-5.88-.25-9.62-.17-3.75-.42-6.96-.75-9.62,3.66.34,7.38.59,11.12.75,3.75.17,7.79.25,12.12.25h132.5c4.66,0,8.29-.21,10.88-.62,2.58-.41,4.71-.88,6.38-1.38l13.5,8.5ZM101.25,14.5c-.5,3.84-.88,7.25-1.12,10.25s-.38,5.84-.38,8.5v33.25h-21v-33.25c0-2.66-.09-5.5-.25-8.5-.17-3-.59-6.41-1.25-10.25h24ZM157.75,7.75c2.16,2.84,4.5,6.29,7,10.38,2.5,4.09,4.96,8.21,7.38,12.38,2.41,4.17,4.46,8,6.12,11.5l-13.5,6c-2.5-5-5.67-10.83-9.5-17.5-3.84-6.66-7.42-12.33-10.75-17l13.25-5.75ZM187,0c2.16,3,4.58,6.59,7.25,10.75,2.66,4.17,5.21,8.29,7.62,12.38,2.41,4.09,4.46,7.71,6.12,10.88l-13.5,6c-2.67-5.5-5.92-11.41-9.75-17.75-3.84-6.33-7.5-11.83-11-16.5l13.25-5.75Z" style="fill: #231f20; stroke-width: 0px;"/>
  <path d="M221.5,190.5c10-4.83,19.96-10.58,29.88-17.25,9.91-6.66,19.21-13.75,27.88-21.25,8.66-7.5,16.29-15,22.88-22.5,6.58-7.5,11.71-14.5,15.38-21h10l.5,15.25c-3.34,6-8.21,12.71-14.62,20.12-6.42,7.42-13.88,14.92-22.38,22.5-8.5,7.59-17.5,14.84-27,21.75-9.5,6.92-19,12.88-28.5,17.88l-14-15.5ZM228.25,95c2.83.34,5.88.59,9.12.75,3.25.17,6.38.25,9.38.25h129.5c2.5,0,5.46-.12,8.88-.38,3.41-.25,6.04-.46,7.88-.62v19.75c-2.17-.16-4.79-.33-7.88-.5-3.09-.16-5.88-.25-8.38-.25h-129.5c-3.34,0-6.59.09-9.75.25-3.17.17-6.25.42-9.25.75v-20ZM340.75,58.75c-.34,2.67-.59,5.46-.75,8.38-.17,2.92-.25,5.79-.25,8.62.16,3.67.29,8.67.38,15,.08,6.34.21,13.54.38,21.62.16,8.09.33,16.54.5,25.38.16,8.84.29,17.62.38,26.38.08,8.75.21,17.09.38,25,.16,7.92.25,14.88.25,20.88.16,5.33-1.54,9.54-5.12,12.62-3.59,3.08-8.12,4.62-13.62,4.62-3.17,0-7-.09-11.5-.25-4.5-.17-8.92-.38-13.25-.62-4.34-.25-8.17-.46-11.5-.62l-1-18.25c5,.67,10.41,1.21,16.25,1.62,5.83.42,10.58.62,14.25.62,2.33,0,4.04-.66,5.12-2,1.08-1.33,1.62-3.08,1.62-5.25,0-5-.04-11.04-.12-18.12-.09-7.08-.17-14.75-.25-23-.09-8.25-.21-16.62-.38-25.12-.17-8.5-.29-16.66-.38-24.5-.09-7.83-.21-14.88-.38-21.12-.17-6.25-.34-11.21-.5-14.88,0-2.33-.17-5.04-.5-8.12-.34-3.08-.75-6.04-1.25-8.88h21.25Z" style="fill: #231f20; stroke-width: 0px;"/>
</svg>