<?xml version="1.0" encoding="UTF-8"?>
<svg id="Layer_1" data-name="Layer 1" xmlns="http://www.w3.org/2000/svg" viewBox="0 0 208 223.75">
  <path d="M186.5,63c-.67,1.67-1.34,4-2,7-.67,3-1.25,5.67-1.75,8-.67,5-1.71,10.59-3.12,16.75-1.42,6.17-3.12,12.62-5.12,19.38s-4.34,13.42-7,20c-2.67,6.59-5.75,12.88-9.25,18.88-6.17,10.84-14.04,20.88-23.62,30.12-9.59,9.25-20.71,17.34-33.38,24.25-12.67,6.91-26.59,12.38-41.75,16.38l-16.25-18.5c4.16-.66,8.5-1.62,13-2.88s8.75-2.62,12.75-4.12c8.5-2.66,16.96-6.46,25.38-11.38,8.41-4.91,16.33-10.71,23.75-17.38,7.41-6.66,13.62-13.91,18.62-21.75,4.5-7,8.41-14.79,11.75-23.38,3.33-8.58,6-17.16,8-25.75,2-8.58,3.33-16.46,4-23.62H21v44.75c0,2.17.08,4.71.25,7.62.16,2.92.33,5.29.5,7.12H0c.33-2.16.58-4.75.75-7.75.16-3,.25-5.75.25-8.25v-43.75c0-2.66-.09-5.88-.25-9.62-.17-3.75-.42-6.96-.75-9.62,3.66.34,7.38.59,11.12.75,3.75.17,7.79.25,12.12.25h132.5c4.66,0,8.29-.21,10.88-.62,2.58-.41,4.71-.88,6.38-1.38l13.5,8.5ZM101.25,14.5c-.5,3.84-.88,7.25-1.12,10.25s-.38,5.84-.38,8.5v33.25h-21v-33.25c0-2.66-.09-5.5-.25-8.5-.17-3-.59-6.41-1.25-10.25h24ZM157.75,7.75c2.16,2.84,4.5,6.29,7,10.38,2.5,4.09,4.96,8.21,7.38,12.38,2.41,4.17,4.46,8,6.12,11.5l-13.5,6c-2.5-5-5.67-10.83-9.5-17.5-3.84-6.66-7.42-12.33-10.75-17l13.25-5.75ZM187,0c2.16,3,4.58,6.59,7.25,10.75,2.66,4.17,5.21,8.29,7.62,12.38,2.41,4.09,4.46,7.71,6.12,10.88l-13.5,6c-2.67-5.5-5.92-11.41-9.75-17.75-3.84-6.33-7.5-11.83-11-16.5l13.25-5.75Z" style="fill: #231f20; stroke-width: 0px;"/>
</svg>