<?xml version="1.0" encoding="UTF-8"?>
<svg id="Layer_1" data-name="Layer 1" xmlns="http://www.w3.org/2000/svg" viewBox="0 0 388.75 209.5">
  <path d="M186.5,48.5c-.67,1.84-1.34,4.21-2,7.12-.67,2.92-1.25,5.54-1.75,7.88-.67,5-1.71,10.59-3.12,16.75-1.42,6.17-3.12,12.62-5.12,19.38s-4.34,13.42-7,20c-2.67,6.59-5.75,12.96-9.25,19.12-6.17,10.84-14.09,20.84-23.75,30-9.67,9.17-20.79,17.17-33.38,24-12.59,6.84-26.54,12.41-41.88,16.75l-16.25-18.75c4.16-.66,8.54-1.62,13.12-2.88,4.58-1.25,8.88-2.62,12.88-4.12,8.33-2.66,16.75-6.46,25.25-11.38,8.5-4.91,16.46-10.66,23.88-17.25,7.41-6.58,13.62-13.79,18.62-21.62,4.5-7.16,8.38-15,11.62-23.5s5.88-17.08,7.88-25.75c2-8.66,3.41-16.58,4.25-23.75H20.75v44.75c0,2.34.08,4.92.25,7.75.16,2.84.41,5.25.75,7.25H0c.33-2.33.54-5,.62-8,.08-3,.12-5.66.12-8v-44c0-2.66-.04-5.83-.12-9.5-.09-3.66-.29-6.91-.62-9.75,3.66.34,7.38.59,11.12.75,3.75.17,7.79.25,12.12.25h132.5c4.66,0,8.29-.21,10.88-.62,2.58-.41,4.71-.88,6.38-1.38l13.5,8.5ZM101.25,0c-.5,3.84-.88,7.25-1.12,10.25s-.38,5.84-.38,8.5v33.5h-21.25V18.75c0-2.66-.04-5.5-.12-8.5-.09-3-.46-6.41-1.12-10.25h24Z" style="fill: #231f20; stroke-width: 0px;"/>
  <path d="M215.75,181c3,.34,6.04.62,9.12.88,3.08.25,6.04.38,8.88.38h138.25c3,0,5.91-.12,8.75-.38,2.83-.25,5.5-.54,8-.88v21c-2.5-.34-5.42-.54-8.75-.62-3.34-.09-6-.12-8-.12h-138.25c-2.67,0-5.54.04-8.62.12-3.09.08-6.21.29-9.38.62v-21ZM228,71c2.66.34,5.71.59,9.12.75,3.41.17,6.12.25,8.12.25h115c3.16,0,6.25-.08,9.25-.25,3-.16,5.83-.41,8.5-.75v20c-2.67-.33-5.59-.5-8.75-.5h-132.12c-3.42,0-6.46.17-9.12.5v-20ZM291.25,192.75v-110.5h20.25v110.5h-20.25Z" style="fill: #231f20; stroke-width: 0px;"/>
</svg>