<?xml version="1.0" encoding="UTF-8"?>
<svg id="Layer_1" data-name="Layer 1" xmlns="http://www.w3.org/2000/svg" viewBox="0 0 378.25 219.75">
  <path d="M186.5,48.5c-.67,1.84-1.34,4.21-2,7.12-.67,2.92-1.25,5.54-1.75,7.88-.67,5-1.71,10.59-3.12,16.75-1.42,6.17-3.12,12.62-5.12,19.38s-4.34,13.42-7,20c-2.67,6.59-5.75,12.96-9.25,19.12-6.17,10.84-14.09,20.84-23.75,30-9.67,9.17-20.79,17.17-33.38,24-12.59,6.84-26.54,12.41-41.88,16.75l-16.25-18.75c4.16-.66,8.54-1.62,13.12-2.88,4.58-1.25,8.88-2.62,12.88-4.12,8.33-2.66,16.75-6.46,25.25-11.38,8.5-4.91,16.46-10.66,23.88-17.25,7.41-6.58,13.62-13.79,18.62-21.62,4.5-7.16,8.38-15,11.62-23.5s5.88-17.08,7.88-25.75c2-8.66,3.41-16.58,4.25-23.75H20.75v44.75c0,2.34.08,4.92.25,7.75.16,2.84.41,5.25.75,7.25H0c.33-2.33.54-5,.62-8,.08-3,.12-5.66.12-8v-44c0-2.66-.04-5.83-.12-9.5-.09-3.66-.29-6.91-.62-9.75,3.66.34,7.38.59,11.12.75,3.75.17,7.79.25,12.12.25h132.5c4.66,0,8.29-.21,10.88-.62,2.58-.41,4.71-.88,6.38-1.38l13.5,8.5ZM101.25,0c-.5,3.84-.88,7.25-1.12,10.25s-.38,5.84-.38,8.5v33.5h-21.25V18.75c0-2.66-.04-5.5-.12-8.5-.09-3-.46-6.41-1.12-10.25h24Z" style="fill: #231f20; stroke-width: 0px;"/>
  <path d="M213.25,135.75c11-2.66,22.12-6.16,33.38-10.5,11.25-4.33,21.83-8.91,31.75-13.75,9.91-4.83,18.21-9.33,24.88-13.5,8-4.83,15.71-10.21,23.12-16.12,7.41-5.91,14.29-11.88,20.62-17.88,6.33-6,11.58-11.66,15.75-17l15.5,15c-4.67,5.17-10.54,10.88-17.62,17.12-7.09,6.25-14.79,12.46-23.12,18.62-8.34,6.17-16.92,11.92-25.75,17.25-5.17,3.17-11.17,6.5-18,10-6.84,3.5-14.09,7-21.75,10.5-7.67,3.5-15.71,6.88-24.12,10.12-8.42,3.25-16.79,6.12-25.12,8.62l-9.5-18.5ZM301,109.25l20.75-5v93.5c0,2.5.04,5.21.12,8.12.08,2.91.21,5.62.38,8.12.16,2.5.41,4.41.75,5.75h-23c.16-1.34.33-3.25.5-5.75.16-2.5.29-5.21.38-8.12.08-2.92.12-5.62.12-8.12v-88.5Z" style="fill: #231f20; stroke-width: 0px;"/>
</svg>