<?xml version="1.0" encoding="UTF-8"?>
<svg id="Layer_1" data-name="Layer 1" xmlns="http://www.w3.org/2000/svg" viewBox="0 0 397 203.5">
  <path d="M0,105.5c21.66-5.83,41.83-12.91,60.5-21.25,18.66-8.33,34.91-16.83,48.75-25.5,8.66-5.5,17.12-11.46,25.38-17.88,8.25-6.41,16.04-13.12,23.38-20.12,7.33-7,13.83-13.91,19.5-20.75l16.75,15.5c-7,7.5-14.59,14.84-22.75,22-8.17,7.17-16.79,14.04-25.88,20.62-9.09,6.59-18.54,12.96-28.38,19.12-9.17,5.5-19.5,11.17-31,17-11.5,5.84-23.75,11.34-36.75,16.5-13,5.17-26.17,9.92-39.5,14.25L0,105.5ZM105.25,69.25l21.5-6.5v114c0,3.17.04,6.5.12,10,.08,3.5.25,6.75.5,9.75s.54,5.33.88,7h-24.5c.16-1.67.38-4,.62-7s.46-6.25.62-9.75c.16-3.5.25-6.83.25-10v-107.5Z" style="fill: #231f20; stroke-width: 0px;"/>
  <path d="M224,176.5c3,.34,6.04.62,9.12.88,3.08.25,6.04.38,8.88.38h138.25c3,0,5.91-.12,8.75-.38,2.83-.25,5.5-.54,8-.88v21c-2.5-.34-5.42-.54-8.75-.62-3.34-.09-6-.12-8-.12h-138.25c-2.67,0-5.54.04-8.62.12-3.09.08-6.21.29-9.38.62v-21ZM236.25,66.5c2.66.34,5.71.59,9.12.75,3.41.17,6.12.25,8.12.25h115c3.16,0,6.25-.08,9.25-.25,3-.16,5.83-.41,8.5-.75v20c-2.67-.33-5.59-.5-8.75-.5h-132.12c-3.42,0-6.46.17-9.12.5v-20ZM299.5,188.25v-110.5h20.25v110.5h-20.25Z" style="fill: #231f20; stroke-width: 0px;"/>
</svg>