<?xml version="1.0" encoding="UTF-8"?>
<svg id="Layer_1" data-name="Layer 1" xmlns="http://www.w3.org/2000/svg" viewBox="0 0 221 219.25">
  <path d="M73,163.25l18.5,11.5c-6.5,5.34-14.09,10.71-22.75,16.12-8.67,5.42-17.62,10.5-26.88,15.25s-18.21,8.88-26.88,12.38c-1.17-1.5-2.62-3.09-4.38-4.75-1.75-1.67-3.54-3.34-5.38-5-1.84-1.67-3.59-3.09-5.25-4.25,8.83-3.34,17.83-7.29,27-11.88,9.16-4.58,17.79-9.46,25.88-14.62,8.08-5.16,14.79-10.08,20.12-14.75ZM30.5,0h163.75v156.25H30.5V0ZM49.5,17.5v29.25h125v-29.25H49.5ZM49.5,63.25v29.5h125v-29.5H49.5ZM49.5,109.25v29.75h125v-29.75H49.5ZM131.25,175.5l15.5-12c5.83,3,12.16,6.29,19,9.88,6.83,3.59,13.66,7.25,20.5,11,6.83,3.75,13.25,7.46,19.25,11.12s11.16,7,15.5,10l-16.5,13.75c-5.34-4-12.17-8.54-20.5-13.62-8.34-5.09-17.17-10.33-26.5-15.75-9.34-5.41-18.09-10.21-26.25-14.38Z" style="fill: #231f20; stroke-width: 0px;"/>
</svg>