<?xml version="1.0" encoding="UTF-8"?>
<svg id="Layer_1" data-name="Layer 1" xmlns="http://www.w3.org/2000/svg" viewBox="0 0 221.25 231.5">
  <path d="M0,142.5h221.25v17.75H0v-17.75ZM5,42.75h212v56h-18.75v-39H23v39H5v-56ZM22.25,11.5l15.75-7.25c4.83,5.17,9.54,10.96,14.12,17.38,4.58,6.42,7.88,12.12,9.88,17.12l-16.5,8.25c-2-4.83-5.25-10.58-9.75-17.25-4.5-6.66-9-12.75-13.5-18.25ZM42,85.75h124v16.5H42v-16.5ZM100.75,124.5h19v84.25c0,5.66-.88,10-2.62,13s-4.96,5.25-9.62,6.75c-4.5,1.33-10.46,2.16-17.88,2.5-7.42.33-16.88.5-28.38.5-.67-2.67-1.79-5.75-3.38-9.25-1.59-3.5-3.21-6.5-4.88-9,6.5.16,12.58.29,18.25.38,5.66.08,10.54.12,14.62.12s6.96-.09,8.62-.25c2.5-.17,4.16-.62,5-1.38.83-.75,1.25-1.96,1.25-3.62v-84ZM86.5,6.25L102.75,0c4.16,6,8.21,12.62,12.12,19.88,3.91,7.25,6.71,13.46,8.38,18.62l-17.5,7c-1.34-5.33-3.88-11.71-7.62-19.12-3.75-7.41-7.62-14.12-11.62-20.12ZM160.25,85.75h4.5l4-1,12.25,9c-5.67,5.67-12.21,11.29-19.62,16.88-7.42,5.59-15.21,10.79-23.38,15.62-8.17,4.84-16.17,9-24,12.5-1.34-1.83-3.04-3.79-5.12-5.88-2.09-2.08-3.88-3.79-5.38-5.12,7-3.16,14.12-6.91,21.38-11.25,7.25-4.33,13.96-8.88,20.12-13.62,6.16-4.75,11.25-9.29,15.25-13.62v-3.5ZM183.75,2.75l19.75,6.75c-5.34,7.67-11.12,15.42-17.38,23.25-6.25,7.84-11.96,14.5-17.12,20l-15-6.5c3.33-3.83,6.88-8.29,10.62-13.38,3.75-5.08,7.33-10.25,10.75-15.5,3.41-5.25,6.21-10.12,8.38-14.62Z" style="fill: #231f20; stroke-width: 0px;"/>
</svg>