<?xml version="1.0" encoding="UTF-8"?>
<svg id="Layer_1" data-name="Layer 1" xmlns="http://www.w3.org/2000/svg" viewBox="0 0 230 232.5">
  <path d="M54,0l19.5,4.25c-6,19.34-13.92,37.29-23.75,53.88-9.84,16.59-20.75,30.46-32.75,41.62-1.17-1.16-2.79-2.54-4.88-4.12-2.09-1.58-4.21-3.12-6.38-4.62-2.17-1.5-4.09-2.66-5.75-3.5,12.16-10,22.91-22.71,32.25-38.12,9.33-15.41,16.58-31.88,21.75-49.38ZM121,119.25l18,6c-8.84,15.84-19.5,30.46-32,43.88-12.5,13.42-26.04,25.42-40.62,36-14.59,10.58-29.88,19.71-45.88,27.38-.84-1.34-2.09-2.92-3.75-4.75-1.67-1.84-3.42-3.62-5.25-5.38-1.84-1.75-3.5-3.21-5-4.38,16-6.84,31.21-15.16,45.62-25,14.41-9.83,27.54-21,39.38-33.5,11.83-12.5,21.66-25.91,29.5-40.25ZM24.75,98.5h150.75v16.25H24.75v-16.25ZM30.75,141.5l13.5-12c9.66,5.17,19.62,10.96,29.88,17.38,10.25,6.42,20.25,13.12,30,20.12s18.79,13.92,27.12,20.75c8.33,6.84,15.25,13.34,20.75,19.5l-14.75,14.25c-5.34-6.17-12.04-12.75-20.12-19.75-8.09-7-16.96-14.08-26.62-21.25-9.67-7.16-19.59-14.08-29.75-20.75-10.17-6.66-20.17-12.75-30-18.25ZM50.75,27h171.25v16.25H50.75v-16.25ZM53.5,62.75h144.75v15.75H53.5v-15.75ZM168.5,98.5h19c.16,16.34.54,31.38,1.12,45.12.58,13.75,1.66,25.75,3.25,36,1.58,10.25,3.88,18.25,6.88,24s6.83,8.62,11.5,8.62c2.5,0,4.16-3.29,5-9.88.83-6.58,1.33-15.21,1.5-25.88,2,2,4.21,4.04,6.62,6.12,2.41,2.09,4.62,3.79,6.62,5.12-.5,10.34-1.42,18.67-2.75,25-1.34,6.33-3.42,10.88-6.25,13.62-2.84,2.75-6.84,4.21-12,4.38-8.84,0-15.92-3.25-21.25-9.75-5.34-6.5-9.38-15.62-12.12-27.38s-4.59-25.66-5.5-41.75c-.92-16.08-1.46-33.88-1.62-53.38Z" style="fill: #231f20; stroke-width: 0px;"/>
</svg>