<?xml version="1.0" encoding="UTF-8"?>
<svg id="Layer_1" data-name="Layer 1" xmlns="http://www.w3.org/2000/svg" viewBox="0 0 235.75 227.25">
  <path d="M79.75,0h20.25c-.17,19.17-.54,37.88-1.12,56.12-.59,18.25-2.21,35.84-4.88,52.75-2.67,16.92-7,32.71-13,47.38-6,14.67-14.42,28-25.25,40-10.84,12-24.75,22.33-41.75,31-1-1.5-2.29-3.21-3.88-5.12-1.59-1.92-3.25-3.75-5-5.5s-3.46-3.21-5.12-4.38c16.33-7.83,29.58-17.29,39.75-28.38,10.16-11.08,18-23.46,23.5-37.12,5.5-13.66,9.41-28.38,11.75-44.12,2.33-15.75,3.71-32.29,4.12-49.62.41-17.33.62-35,.62-53ZM11.5,61.25h154.75v19H11.5v-19ZM154.75,61.25h19.5v133.5c0,4.34.5,7.17,1.5,8.5,1,1.34,3.5,2,7.5,2h25.5c2.5,0,4.33-.96,5.5-2.88,1.16-1.91,2-5.46,2.5-10.62.5-5.16.91-12.83,1.25-23,1.5,1.17,3.29,2.34,5.38,3.5,2.08,1.17,4.21,2.17,6.38,3,2.16.84,4.16,1.5,6,2-.67,11.67-1.79,20.88-3.38,27.62-1.59,6.75-4.09,11.54-7.5,14.38-3.42,2.83-8.29,4.25-14.62,4.25h-29.75c-6.5,0-11.62-.84-15.38-2.5-3.75-1.67-6.42-4.59-8-8.75-1.59-4.17-2.38-10.08-2.38-17.75V61.25Z" style="fill: #231f20; stroke-width: 0px;"/>
</svg>