<?xml version="1.0" encoding="UTF-8"?>
<svg id="Layer_1" data-name="Layer 1" xmlns="http://www.w3.org/2000/svg" viewBox="0 0 239.75 228.5">
  <path d="M68.5,0l18.5,5.75c-5.84,14.5-12.75,28.75-20.75,42.75s-16.62,27.09-25.88,39.25c-9.25,12.17-18.88,22.92-28.88,32.25-.67-1.66-1.71-3.71-3.12-6.12-1.42-2.41-2.88-4.83-4.38-7.25-1.5-2.41-2.84-4.29-4-5.62,9.33-8.16,18.25-17.54,26.75-28.12,8.5-10.58,16.29-22.08,23.38-34.5,7.08-12.41,13.21-25.21,18.38-38.38ZM41,66.5l18.25-18.5.25.5v179.5h-18.5V66.5ZM136.5,68.5l16.25,4.75c-5.5,16.5-12.21,32.59-20.12,48.25-7.92,15.67-16.67,30.09-26.25,43.25-9.59,13.17-19.54,24.25-29.88,33.25-1-1.66-2.34-3.41-4-5.25-1.67-1.83-3.38-3.62-5.12-5.38s-3.38-3.12-4.88-4.12c10.16-7.83,19.91-17.88,29.25-30.12,9.33-12.25,17.88-25.71,25.62-40.38,7.75-14.66,14.12-29.41,19.12-44.25ZM71.5,62.25h161.75v18.25H71.5v-18.25ZM142,2h18.5v226.5h-18.5V2ZM167.25,68.25c3.66,10.84,8.12,21.71,13.38,32.62,5.25,10.92,11.08,21.46,17.5,31.62,6.41,10.17,13.16,19.42,20.25,27.75,7.08,8.34,14.21,15.5,21.38,21.5-1.34,1.17-2.92,2.59-4.75,4.25-1.84,1.67-3.59,3.42-5.25,5.25-1.67,1.84-3.09,3.59-4.25,5.25-7.17-6.66-14.29-14.58-21.38-23.75-7.09-9.16-13.84-19.25-20.25-30.25-6.42-11-12.34-22.41-17.75-34.25-5.42-11.83-10.12-23.66-14.12-35.5l15.25-4.5Z" style="fill: #231f20; stroke-width: 0px;"/>
</svg>