<?xml version="1.0" encoding="UTF-8"?>
<svg id="Layer_1" data-name="Layer 1" xmlns="http://www.w3.org/2000/svg" viewBox="0 0 224.25 203.75">
  <path d="M0,185.5h224.25v18.25H0v-18.25ZM12.25,0h199.75v18.5H12.25V0ZM23,87h179.5v18.25H23v-18.25ZM100.5,7h20v190h-20V7ZM143.25,127.75l13.5-10.5c5.16,4.67,10.71,9.75,16.62,15.25,5.91,5.5,11.54,10.88,16.88,16.12,5.33,5.25,9.75,9.88,13.25,13.88l-14.25,12.5c-3.34-4.16-7.62-9-12.88-14.5s-10.79-11.12-16.62-16.88c-5.84-5.75-11.34-11.04-16.5-15.88Z" style="fill: #231f20; stroke-width: 0px;"/>
</svg>