<?xml version="1.0" encoding="UTF-8"?>
<svg id="Layer_1" data-name="Layer 1" xmlns="http://www.w3.org/2000/svg" viewBox="0 0 232.5 222.25">
  <path d="M114.75,18.25c-6.84,9.84-15.62,20.04-26.38,30.62-10.75,10.59-22.67,20.71-35.75,30.38-13.09,9.67-26.71,18.25-40.88,25.75-.84-1.5-1.92-3.16-3.25-5-1.34-1.83-2.71-3.62-4.12-5.38-1.42-1.75-2.88-3.29-4.38-4.62,14.5-7.16,28.46-15.79,41.88-25.88,13.41-10.08,25.54-20.71,36.38-31.88,10.83-11.16,19.5-21.91,26-32.25h19c6.66,8.84,14.25,17.59,22.75,26.25,8.5,8.67,17.54,16.79,27.12,24.38,9.58,7.59,19.41,14.46,29.5,20.62,10.08,6.17,20.04,11.42,29.88,15.75-2.34,2.34-4.59,5-6.75,8-2.17,3-4.09,5.92-5.75,8.75-9.5-5-19.25-10.79-29.25-17.38-10-6.58-19.71-13.66-29.12-21.25-9.42-7.58-18.12-15.33-26.12-23.25-8-7.91-14.92-15.79-20.75-23.62ZM9,205.75h213.75v16.5H9v-16.5ZM20.5,126.75h190.25v16.5H20.5v-16.5ZM41.25,156l15.25-6c3.5,4.5,6.88,9.46,10.12,14.88,3.25,5.42,6.12,10.75,8.62,16s4.25,9.96,5.25,14.12l-16.25,7c-1-4.16-2.67-8.91-5-14.25-2.34-5.33-5.09-10.75-8.25-16.25-3.17-5.5-6.42-10.66-9.75-15.5ZM53,76.5h125.25v16.75H53v-16.75ZM104.75,83h19.75v131.25h-19.75V83ZM172.25,149.5l17.75,7c-4.84,7.84-9.96,15.96-15.38,24.38-5.42,8.42-10.54,15.46-15.38,21.12l-14-6c3-4.16,6.16-8.96,9.5-14.38,3.33-5.41,6.54-10.96,9.62-16.62,3.08-5.66,5.71-10.83,7.88-15.5Z" style="fill: #231f20; stroke-width: 0px;"/>
</svg>