<?xml version="1.0" encoding="UTF-8"?>
<svg id="Layer_1" data-name="Layer 1" xmlns="http://www.w3.org/2000/svg" viewBox="0 0 198 217">
  <path d="M44.5,0h19v77c0,10.84-.54,22.42-1.62,34.75-1.09,12.34-3.29,24.79-6.62,37.38-3.34,12.59-8.29,24.71-14.88,36.38-6.59,11.66-15.29,22.16-26.12,31.5-.84-1.34-2.12-2.92-3.88-4.75-1.75-1.84-3.54-3.54-5.38-5.12-1.84-1.59-3.5-2.79-5-3.62,10.16-9,18.21-18.71,24.12-29.12,5.91-10.41,10.33-21.21,13.25-32.38,2.91-11.16,4.83-22.29,5.75-33.38.91-11.08,1.38-21.62,1.38-31.62V0ZM54.25,120.5h132.25v18.25H54.25v-18.25ZM56.25,0h130.25v18.25H56.25V0ZM56.25,60.25h131.5v17.75H56.25v-17.75ZM178.25,0h19.75v189c0,6.67-1,11.75-3,15.25s-5.34,6.08-10,7.75c-4.84,1.66-11.59,2.71-20.25,3.12-8.67.41-19.67.62-33,.62-.34-2-.96-4.17-1.88-6.5-.92-2.34-1.92-4.71-3-7.12-1.09-2.42-2.12-4.46-3.12-6.12,7,.17,13.71.29,20.12.38,6.41.09,12,.09,16.75,0,4.75-.08,8.04-.12,9.88-.12,3-.16,5.04-.79,6.12-1.88s1.62-2.96,1.62-5.62V0Z" style="fill: #231f20; stroke-width: 0px;"/>
</svg>