<?xml version="1.0" encoding="UTF-8"?>
<svg id="Layer_1" data-name="Layer 1" xmlns="http://www.w3.org/2000/svg" viewBox="0 0 231.5 229.5">
  <path d="M104.75,0h20.25c0,12.5-.29,25.75-.88,39.75-.59,14-1.88,28.25-3.88,42.75s-5.25,28.75-9.75,42.75-10.75,27.46-18.75,40.38c-8,12.92-18.29,24.79-30.88,35.62-12.59,10.83-28.04,20.16-46.38,28-1.5-2.67-3.62-5.54-6.38-8.62-2.75-3.09-5.46-5.62-8.12-7.62,17.83-7.16,32.79-15.75,44.88-25.75,12.08-10,21.96-21.04,29.62-33.12,7.66-12.08,13.58-24.66,17.75-37.75,4.16-13.08,7.12-26.38,8.88-39.88s2.79-26.75,3.12-39.75c.33-13,.5-25.25.5-36.75ZM3.25,73.25h223.25v19H3.25v-19ZM125.5,77.25c5.33,21,12.71,40.42,22.12,58.25,9.41,17.84,21.04,33.29,34.88,46.38,13.83,13.09,30.16,23.12,49,30.12-1.5,1.33-3.17,3-5,5-1.84,2-3.54,4.12-5.12,6.38-1.59,2.25-2.88,4.29-3.88,6.12-19.5-8.34-36.34-19.59-50.5-33.75-14.17-14.16-26.09-30.88-35.75-50.12-9.67-19.25-17.59-40.62-23.75-64.12l18-4.25ZM146.5,17.75l12.75-11.25c6,3.67,12.21,7.92,18.62,12.75,6.41,4.84,12.46,9.71,18.12,14.62,5.66,4.92,10.25,9.46,13.75,13.62l-14,12.5c-3.34-4.16-7.71-8.75-13.12-13.75-5.42-5-11.29-10-17.62-15-6.34-5-12.5-9.5-18.5-13.5Z" style="fill: #231f20; stroke-width: 0px;"/>
</svg>