<?xml version="1.0" encoding="UTF-8"?>
<svg id="Layer_1" data-name="Layer 1" xmlns="http://www.w3.org/2000/svg" viewBox="0 0 227 230.25">
  <path d="M95.25,0l19.5,3.75c-4,17-8.88,33.84-14.62,50.5-5.75,16.67-12.71,32.75-20.88,48.25-8.17,15.5-17.71,29.88-28.62,43.12-10.92,13.25-23.54,24.96-37.88,35.12-1-1.5-2.25-3.16-3.75-5-1.5-1.83-3-3.62-4.5-5.38s-3-3.29-4.5-4.62c13.66-9.33,25.66-20.21,36-32.62,10.33-12.41,19.33-25.91,27-40.5,7.66-14.58,14.12-29.71,19.38-45.38,5.25-15.66,9.54-31.41,12.88-47.25ZM8.5,46.75h218.5v18.25H8.5v-18.25ZM59.25,113.5h149.5v115.5h-19.5v-97.25h-111.25v98.5h-18.75v-116.75ZM70.5,198h126v18.25h-126v-18.25Z" style="fill: #231f20; stroke-width: 0px;"/>
</svg>