<?xml version="1.0" encoding="UTF-8"?>
<svg id="Layer_1" data-name="Layer 1" xmlns="http://www.w3.org/2000/svg" viewBox="0 0 230.75 221.5">
  <path d="M71.25,136h20c-1.34,11-3.46,21-6.38,30-2.92,9-7.29,17.04-13.12,24.12-5.84,7.09-13.67,13.21-23.5,18.38-9.84,5.16-22.34,9.5-37.5,13-.5-1.67-1.34-3.54-2.5-5.62-1.17-2.09-2.5-4.09-4-6-1.5-1.92-2.92-3.54-4.25-4.88,13.83-2.84,25.12-6.33,33.88-10.5,8.75-4.16,15.66-9.04,20.75-14.62,5.08-5.58,8.83-12.04,11.25-19.38,2.41-7.33,4.21-15.5,5.38-24.5ZM36.5,0h158.25v142.75H36.5V0ZM54.75,16.75v25.75h121v-25.75H54.75ZM54.75,58.25v25.75h121v-25.75H54.75ZM54.75,100v26h121v-26H54.75ZM131.25,130.5h19v62.5c0,3.5.83,5.79,2.5,6.88,1.66,1.09,5.16,1.62,10.5,1.62h37.25c3.5,0,6.08-.83,7.75-2.5s2.88-5,3.62-10,1.29-12.66,1.62-23c1.33,1,3,2.04,5,3.12,2,1.09,4.12,2,6.38,2.75s4.21,1.38,5.88,1.88c-.67,12-1.92,21.34-3.75,28-1.84,6.66-4.71,11.25-8.62,13.75-3.92,2.5-9.38,3.75-16.38,3.75h-40.5c-8,0-14.21-.75-18.62-2.25-4.42-1.5-7.46-4.21-9.12-8.12-1.67-3.92-2.5-9.21-2.5-15.88v-62.5Z" style="fill: #231f20; stroke-width: 0px;"/>
</svg>