<?xml version="1.0" encoding="UTF-8"?>
<svg id="Layer_1" data-name="Layer 1" xmlns="http://www.w3.org/2000/svg" viewBox="0 0 222.5 192">
  <path d="M0,173.5h222.5v18.5H0v-18.5ZM16,0h188.75v18.5H16V0ZM25.75,73.75h155.25v108.25h-19.25v-90H25.75v-18.25ZM89,6.5h21c-2.5,14.34-5.25,29.59-8.25,45.75-3,16.17-6.09,32.34-9.25,48.5-3.17,16.17-6.34,31.5-9.5,46-3.17,14.5-6.09,27.17-8.75,38h-21c3-11.16,6.12-24.08,9.38-38.75,3.25-14.66,6.5-30.08,9.75-46.25,3.25-16.16,6.33-32.25,9.25-48.25,2.91-16,5.38-31,7.38-45Z" style="fill: #231f20; stroke-width: 0px;"/>
</svg>