<?xml version="1.0" encoding="UTF-8"?>
<svg id="Layer_1" data-name="Layer 1" xmlns="http://www.w3.org/2000/svg" viewBox="0 0 230.25 222.75">
  <path d="M85.5,0l19.5,2.75c-3.34,19.34-7.46,38.84-12.38,58.5-4.92,19.67-10.92,38.79-18,57.38-7.09,18.59-15.71,36.04-25.88,52.38-10.17,16.34-22.17,31-36,44-1-1.5-2.25-3.17-3.75-5s-3-3.66-4.5-5.5c-1.5-1.83-3-3.25-4.5-4.25,13-11.83,24.29-25.46,33.88-40.88,9.58-15.41,17.71-32,24.38-49.75,6.66-17.75,12.16-35.96,16.5-54.62,4.33-18.66,7.91-37,10.75-55ZM9.75,45.25h215.75v18H9.75v-18ZM51,204.5h179.25v18.25H51v-18.25ZM77,111.25h142v18H77v-18ZM133,119.5h19v95.5h-19v-95.5Z" style="fill: #231f20; stroke-width: 0px;"/>
</svg>