<?xml version="1.0" encoding="UTF-8"?>
<svg id="Layer_1" data-name="Layer 1" xmlns="http://www.w3.org/2000/svg" viewBox="0 0 227 214.31">
  <path d="M0,95.5h227v18.75H0v-18.75ZM26,1h163v18.75H26V1ZM104,55.25h19.5v134.25c0,6.33-.96,11.08-2.88,14.25-1.92,3.16-5.21,5.5-9.88,7-4.67,1.5-11.12,2.5-19.38,3s-18.38.66-30.38.5c-.34-1.84-.96-3.88-1.88-6.12-.92-2.25-1.92-4.59-3-7-1.09-2.42-2.12-4.46-3.12-6.12,6.66.16,13.04.29,19.12.38,6.08.08,11.33.12,15.75.12h9.38c2.66-.34,4.46-.88,5.38-1.62.91-.75,1.38-2.29,1.38-4.62V55.25ZM182.75,1h4.75l4.25-1,14.25,10.75c-7.5,7.5-16.21,15.12-26.12,22.88-9.92,7.75-20.17,15.04-30.75,21.88-10.59,6.84-20.71,12.75-30.38,17.75-1-1.33-2.21-2.83-3.62-4.5-1.42-1.66-2.92-3.29-4.5-4.88-1.59-1.58-2.96-2.88-4.12-3.88,9.16-4.5,18.58-9.88,28.25-16.12,9.66-6.25,18.75-12.75,27.25-19.5s15.41-13.04,20.75-18.88V1Z" style="fill: #231f20; stroke-width: 0px;"/>
</svg>