<?xml version="1.0" encoding="UTF-8"?>
<svg id="Layer_1" data-name="Layer 1" xmlns="http://www.w3.org/2000/svg" viewBox="0 0 205.75 199.75">
  <path d="M0,0h205.75v197.75h-19.5V18H19v181.75H0V0ZM10,163.75h186.75v18.25H10v-18.25ZM66,11.25h18.25c-.84,18.67-2.54,35.71-5.12,51.12-2.59,15.42-7.29,29.04-14.12,40.88-6.84,11.84-17,21.67-30.5,29.5-1-2.16-2.71-4.58-5.12-7.25-2.42-2.66-4.62-4.83-6.62-6.5,12-6.83,21-15.46,27-25.88,6-10.41,10.04-22.5,12.12-36.25,2.08-13.75,3.46-28.96,4.12-45.62ZM117,12h18.25v79.5c0,5.17.66,8.09,2,8.75,1.5.67,3.75,1,6.75,1h11.5c1.66,0,3.29-.08,4.88-.25,1.58-.16,2.79-.33,3.62-.5.83-.5,1.58-1.21,2.25-2.12.66-.91,1.16-2.29,1.5-4.12.5-1.83.79-4.75.88-8.75.08-4,.21-8.75.38-14.25,1.83,1.5,4.12,2.96,6.88,4.38,2.75,1.42,5.29,2.54,7.62,3.38-.17,5.17-.46,10.34-.88,15.5-.42,5.17-1.04,8.92-1.88,11.25-.84,2.17-1.96,3.96-3.38,5.38s-3.12,2.62-5.12,3.62c-1.84.84-4.21,1.42-7.12,1.75-2.92.34-5.71.5-8.38.5h-17c-2.84,0-5.79-.33-8.88-1-3.09-.66-5.62-1.83-7.62-3.5-2.34-1.5-3.96-3.75-4.88-6.75-.92-3-1.38-8.25-1.38-15.75V12Z" style="fill: #231f20; stroke-width: 0px;"/>
</svg>