<?xml version="1.0" encoding="UTF-8"?>
<svg id="Layer_1" data-name="Layer 1" xmlns="http://www.w3.org/2000/svg" viewBox="0 0 228.25 231.5">
  <path d="M54.5,156.5l19.5,6.5c-5.17,7.34-10.92,14.75-17.25,22.25-6.34,7.5-12.92,14.54-19.75,21.12-6.84,6.58-13.42,12.38-19.75,17.38-1.34-1.17-3.04-2.5-5.12-4-2.09-1.5-4.21-3-6.38-4.5-2.17-1.5-4.09-2.67-5.75-3.5,10-6.83,19.91-15.21,29.75-25.12,9.83-9.91,18.08-19.96,24.75-30.12ZM.5,121.25c12.16-.16,26.04-.38,41.62-.62,15.58-.25,32.21-.58,49.88-1,17.66-.41,35.79-.88,54.38-1.38,18.58-.5,37.04-1,55.38-1.5l-1.25,18c-17.84.67-35.84,1.29-54,1.88-18.17.59-35.88,1.17-53.12,1.75-17.25.59-33.54,1.09-48.88,1.5-15.34.42-29.25.79-41.75,1.12l-2.25-19.75ZM17,56.25l12.5-13.25c8,4.5,16.5,9.67,25.5,15.5,9,5.84,17.54,11.67,25.62,17.5,8.08,5.84,14.62,11.25,19.62,16.25l-13.5,15.5c-4.84-5-11.12-10.54-18.88-16.62-7.75-6.08-16.09-12.21-25-18.38-8.92-6.16-17.54-11.66-25.88-16.5ZM92.25,0l19,9.5c-5.34,6.67-11.21,13.62-17.62,20.88-6.42,7.25-12.88,14.21-19.38,20.88-6.5,6.67-12.67,12.59-18.5,17.75l-14.5-8.5c5.66-5.33,11.66-11.46,18-18.38,6.33-6.91,12.38-14.08,18.12-21.5,5.75-7.41,10.71-14.29,14.88-20.62ZM157.5,24.75l19,9.75c-8,8.67-16.71,17.59-26.12,26.75-9.42,9.17-19.17,18.21-29.25,27.12-10.09,8.92-20.09,17.38-30,25.38-9.92,8-19.29,15.17-28.12,21.5l-14.75-9.25c9-6.5,18.41-13.83,28.25-22,9.83-8.16,19.62-16.83,29.38-26,9.75-9.16,19.08-18.29,28-27.38,8.91-9.08,16.79-17.71,23.62-25.88ZM102.25,129.25h20v102.25h-20v-102.25ZM149.75,165l15.75-9.25c7,5.5,14.25,11.62,21.75,18.38s14.58,13.46,21.25,20.12c6.66,6.67,12.08,12.75,16.25,18.25l-17,10.5c-3.84-5.17-8.96-11.17-15.38-18-6.42-6.83-13.38-13.75-20.88-20.75s-14.75-13.41-21.75-19.25ZM151.25,88.5l15.5-9.5c7.5,6.67,15.16,14.04,23,22.12,7.83,8.09,15.16,16.09,22,24,6.83,7.92,12.33,15.04,16.5,21.38l-17.25,11.25c-3.67-6.33-8.79-13.54-15.38-21.62-6.59-8.08-13.75-16.33-21.5-24.75-7.75-8.41-15.38-16.04-22.88-22.88Z" style="fill: #231f20; stroke-width: 0px;"/>
</svg>