<?xml version="1.0" encoding="UTF-8"?>
<svg id="Layer_1" data-name="Layer 1" xmlns="http://www.w3.org/2000/svg" viewBox="0 0 223.75 213.75">
  <path d="M0,0h223.75v18.5H0V0ZM11.75,51.25h190.25v17.75H29.75v144.75H11.75V51.25ZM37.5,143.25l11-10.25c5,2.84,10.33,6.12,16,9.88,5.66,3.75,11.12,7.38,16.38,10.88s9.54,6.59,12.88,9.25l-11.5,12c-3.17-2.83-7.34-6.08-12.5-9.75-5.17-3.66-10.59-7.46-16.25-11.38-5.67-3.91-11-7.46-16-10.62ZM40,94.25l10.5-10.25c4.83,2.67,9.96,5.67,15.38,9,5.41,3.34,10.66,6.62,15.75,9.88,5.08,3.25,9.38,6.12,12.88,8.62l-11.25,11.75c-3.17-2.5-7.25-5.46-12.25-8.88-5-3.41-10.21-6.91-15.62-10.5-5.42-3.58-10.54-6.79-15.38-9.62ZM101.5,10.75h18.5v200.5h-18.5V10.75ZM126,142.75l10.75-10.5c5.16,2.84,10.71,6.09,16.62,9.75,5.91,3.67,11.58,7.25,17,10.75,5.41,3.5,9.96,6.59,13.62,9.25l-11,12.25c-3.67-2.83-8.17-6.04-13.5-9.62-5.34-3.58-10.96-7.33-16.88-11.25-5.92-3.91-11.46-7.46-16.62-10.62ZM129.5,94.25l10.75-10.75c4.83,2.67,10.12,5.67,15.88,9,5.75,3.34,11.29,6.59,16.62,9.75,5.33,3.17,9.66,6,13,8.5l-11,12.25c-3.17-2.5-7.34-5.41-12.5-8.75-5.17-3.33-10.62-6.79-16.38-10.38-5.75-3.58-11.21-6.79-16.37-9.62ZM194.25,51.25h18.25v139c0,5.33-.75,9.5-2.25,12.5s-4.25,5.25-8.25,6.75c-4,1.33-9.54,2.16-16.62,2.5-7.09.33-15.71.5-25.88.5-.34-2.34-1.17-5.21-2.5-8.62-1.34-3.42-2.67-6.29-4-8.62,5.33.16,10.46.29,15.38.38,4.91.08,9.16.08,12.75,0,3.58-.09,6.04-.12,7.38-.12,2.16-.17,3.66-.59,4.5-1.25.83-.66,1.25-2,1.25-4V51.25Z" style="fill: #231f20; stroke-width: 0px;"/>
</svg>