<?xml version="1.0" encoding="UTF-8"?>
<svg id="Layer_1" data-name="Layer 1" xmlns="http://www.w3.org/2000/svg" viewBox="0 0 215.25 230">
  <path d="M0,135.5h215.25v18H0v-18ZM2.25,27.5h210v59h-19.25v-41H20.75v41H2.25V27.5ZM40.5,72.75h120v17.25H40.5v-17.25ZM97.5,116.75h20v90.5c0,5.5-.88,9.75-2.62,12.75s-4.88,5.33-9.38,7c-4.34,1.5-9.96,2.38-16.88,2.62-6.92.25-15.62.38-26.12.38-.5-1.84-1.21-3.88-2.12-6.12-.92-2.25-1.92-4.46-3-6.62-1.09-2.17-2.12-4.17-3.12-6,5.66.16,11.08.29,16.25.38,5.16.08,9.62.12,13.38.12h7.88c2.33-.17,3.88-.62,4.62-1.38s1.12-1.96,1.12-3.62v-90ZM97,0h19.75v40.5h-19.75V0ZM155,72.75h4.75l4.25-1,12.25,9.5c-5.34,6-11.54,12.04-18.62,18.12-7.09,6.09-14.5,11.84-22.25,17.25-7.75,5.42-15.46,10.04-23.12,13.88-1.17-1.66-2.84-3.54-5-5.62-2.17-2.08-4-3.79-5.5-5.12,6.66-3.5,13.33-7.75,20-12.75,6.66-5,12.91-10.16,18.75-15.5,5.83-5.33,10.66-10.33,14.5-15v-3.75Z" style="fill: #231f20; stroke-width: 0px;"/>
</svg>