<?xml version="1.0" encoding="UTF-8"?>
<svg id="Layer_1" data-name="Layer 1" xmlns="http://www.w3.org/2000/svg" viewBox="0 0 225 215.25">
  <path d="M0,169.75c13.66-.66,29.25-1.5,46.75-2.5s36.16-2.16,56-3.5c19.83-1.33,40.12-2.71,60.88-4.12,20.75-1.41,41.21-2.79,61.38-4.12l-.5,18.25c-20,1.34-40.17,2.75-60.5,4.25-20.34,1.5-40.25,2.96-59.75,4.38-19.5,1.42-37.88,2.71-55.12,3.88-17.25,1.17-32.79,2.25-46.62,3.25l-2.5-19.75ZM4.25,0h218.25v18.75H4.25V0ZM43.25,13.25h19.75v161.25h-19.75V13.25ZM52.25,55.5h119v17.5H52.25v-17.5ZM52.25,110.5h119v17.75H52.25v-17.75ZM163.5,13h20v202.25h-20V13Z" style="fill: #231f20; stroke-width: 0px;"/>
</svg>