<?xml version="1.0" encoding="UTF-8"?>
<svg id="Layer_1" data-name="Layer 1" xmlns="http://www.w3.org/2000/svg" viewBox="0 0 226.25 217">
  <path d="M0,95.25l223.25-36,3,19.25L3.25,114l-3.25-18.75ZM72.5,0h20v179.25c0,5.17.5,9.12,1.5,11.88s3.04,4.62,6.12,5.62c3.08,1,7.62,1.5,13.62,1.5h64.25c5.66,0,9.88-1.25,12.62-3.75s4.75-7.08,6-13.75c1.25-6.66,2.21-16.16,2.88-28.5,1.83,1.17,3.88,2.34,6.12,3.5,2.25,1.17,4.58,2.25,7,3.25,2.41,1,4.46,1.75,6.12,2.25-1,13.67-2.67,24.59-5,32.75-2.34,8.17-6.25,14.04-11.75,17.62-5.5,3.58-13.34,5.38-23.5,5.38h-65.5c-10.34,0-18.46-1.09-24.38-3.25-5.92-2.17-10.09-6.04-12.5-11.62-2.42-5.58-3.62-13.38-3.62-23.38V0Z" style="fill: #231f20; stroke-width: 0px;"/>
</svg>