<?xml version="1.0" encoding="UTF-8"?>
<svg id="Layer_1" data-name="Layer 1" xmlns="http://www.w3.org/2000/svg" viewBox="0 0 225.75 228.82">
  <path d="M0,129.25h225.75v18.5H0v-18.5ZM187,0l13.75,15.25c-11.17,3.34-23.96,6.29-38.38,8.88-14.42,2.59-29.67,4.79-45.75,6.62-16.09,1.84-32.25,3.34-48.5,4.5-16.25,1.17-31.96,2-47.12,2.5-.34-2.33-.96-5.12-1.88-8.38-.92-3.25-1.79-5.88-2.62-7.88,14.83-.83,30.25-1.83,46.25-3,16-1.16,31.66-2.62,47-4.38,15.33-1.75,29.62-3.79,42.88-6.12,13.25-2.33,24.71-5,34.38-8ZM16.75,70.75h194.75v18H16.75v-18ZM103.25,26.75h19.25v176.75c0,6.66-1.04,11.62-3.12,14.88-2.09,3.25-5.46,5.62-10.12,7.12-4.84,1.5-11.46,2.46-19.88,2.88-8.42.41-19.21.54-32.38.38-.5-1.84-1.17-3.88-2-6.12-.84-2.25-1.79-4.5-2.88-6.75-1.09-2.25-2.12-4.12-3.12-5.62,7,.16,13.66.25,20,.25h26.5c2.83-.17,4.83-.75,6-1.75,1.16-1,1.75-2.75,1.75-5.25V26.75Z" style="fill: #231f20; stroke-width: 0px;"/>
</svg>