<?xml version="1.0" encoding="UTF-8"?>
<svg id="Layer_1" data-name="Layer 1" xmlns="http://www.w3.org/2000/svg" viewBox="0 0 225.5 231.25">
  <path d="M0,59.75h225.5v19H0v-19ZM167.25,68.25l20,4.75c-4.67,24.17-11.17,45.21-19.5,63.12-8.34,17.92-19.25,33.12-32.75,45.62s-30.34,22.71-50.5,30.62c-20.17,7.91-44.42,13.96-72.75,18.12-.84-2.84-2.21-5.96-4.12-9.38-1.92-3.42-3.88-6.29-5.88-8.62,27.33-3.66,50.54-9.04,69.62-16.12,19.08-7.08,34.91-16.38,47.5-27.88,12.58-11.5,22.71-25.5,30.38-42,7.66-16.5,13.66-35.91,18-58.25ZM93.5,0l20,3.75c-4.84,12.84-10.12,26.38-15.88,40.62s-11.62,28.62-17.62,43.12-11.92,28.34-17.75,41.5c-5.84,13.17-11.17,24.92-16,35.25l-18.75-7c5-9.83,10.38-21.25,16.12-34.25s11.58-26.62,17.5-40.88c5.91-14.25,11.66-28.41,17.25-42.5,5.58-14.08,10.62-27.29,15.12-39.62ZM40.25,147.75l12.5-14.5c14.33,4.67,29.29,10.21,44.88,16.62,15.58,6.42,30.96,13.21,46.12,20.38,15.16,7.17,29.29,14.5,42.38,22,13.08,7.5,24.21,14.67,33.38,21.5l-14,17.5c-8.67-6.84-19.42-14.09-32.25-21.75-12.84-7.66-26.71-15.25-41.62-22.75-14.92-7.5-30.21-14.58-45.88-21.25-15.67-6.66-30.84-12.58-45.5-17.75Z" style="fill: #231f20; stroke-width: 0px;"/>
</svg>