<?xml version="1.0" encoding="UTF-8"?>
<svg id="Layer_1" data-name="Layer 1" xmlns="http://www.w3.org/2000/svg" viewBox="0 0 236 226.56">
  <path d="M42.5,58.75l21,3.5c-2.84,12.17-6.34,24.96-10.5,38.38-4.17,13.42-9.17,26.34-15,38.75-5.84,12.42-12.59,23.29-20.25,32.62-1.5-1.16-3.29-2.38-5.38-3.62-2.09-1.25-4.25-2.46-6.5-3.62-2.25-1.16-4.21-2.08-5.88-2.75,7.5-8.83,14-19.16,19.5-31,5.5-11.83,10.21-24.04,14.12-36.62,3.91-12.58,6.88-24.46,8.88-35.62ZM108,0h20.25v200.5c0,6.83-1,11.91-3,15.25-2,3.33-5.25,5.75-9.75,7.25-4.67,1.5-10.96,2.5-18.88,3-7.92.5-17.71.66-29.38.5-.34-1.67-.96-3.71-1.88-6.12-.92-2.42-1.88-4.79-2.88-7.12-1-2.34-2-4.42-3-6.25,6.16.16,12.08.29,17.75.38,5.66.08,10.62.08,14.88,0,4.25-.09,7.21-.12,8.88-.12,2.5-.17,4.29-.71,5.38-1.62,1.08-.91,1.62-2.62,1.62-5.12V0ZM168.25,63.75l18-6.75c7.5,11.67,14.58,24.17,21.25,37.5,6.66,13.34,12.54,26.42,17.62,39.25,5.08,12.84,8.71,24.25,10.88,34.25l-20.25,8.25c-1.84-10-5.12-21.46-9.88-34.38-4.75-12.91-10.42-26.16-17-39.75-6.59-13.58-13.46-26.38-20.62-38.38Z" style="fill: #231f20; stroke-width: 0px;"/>
</svg>