<?xml version="1.0" encoding="UTF-8"?>
<svg id="Layer_1" data-name="Layer 1" xmlns="http://www.w3.org/2000/svg" viewBox="0 0 206.5 213.25">
  <path d="M0,0h196v18.5H19v194.75H0V0ZM10.5,92.25h186v18.5H10.5v-18.5ZM92.5,9.25h18.75v92.25h-18.75V9.25ZM187.5,0h19v188c0,6-.84,10.62-2.5,13.88-1.67,3.25-4.67,5.79-9,7.62-4.17,1.5-9.88,2.41-17.12,2.75-7.25.33-16.54.5-27.88.5-.17-1.67-.67-3.67-1.5-6-.84-2.34-1.71-4.62-2.62-6.88-.92-2.25-1.88-4.21-2.88-5.88,5.66.16,11.12.25,16.38.25h21.88c2.33-.17,3.96-.71,4.88-1.62.91-.91,1.38-2.46,1.38-4.62V0Z" style="fill: #231f20; stroke-width: 0px;"/>
</svg>