<?xml version="1.0" encoding="UTF-8"?>
<svg id="Layer_1" data-name="Layer 1" xmlns="http://www.w3.org/2000/svg" viewBox="0 0 237.75 230.75">
  <path d="M49.5,137.25l13.25,5c-4,9.67-8.79,19.29-14.38,28.88-5.59,9.59-11.75,18.34-18.5,26.25-6.75,7.92-13.88,14.38-21.38,19.38-.84-2.5-2.09-5.38-3.75-8.62-1.67-3.25-3.25-6.04-4.75-8.38,6.5-4.33,12.91-9.83,19.25-16.5,6.33-6.66,12.12-13.96,17.38-21.88,5.25-7.91,9.54-15.96,12.88-24.12ZM6.25,132.25h100v16.5H6.25v-16.5ZM101.25,32.25l15.5,6.25c-7,10.17-15.59,19.71-25.75,28.62-10.17,8.92-21.25,16.88-33.25,23.88s-24,12.67-36,17c-1.34-2.16-3.17-4.71-5.5-7.62-2.34-2.91-4.42-5.21-6.25-6.88,11.66-3.66,23.33-8.58,35-14.75,11.66-6.16,22.41-13.25,32.25-21.25,9.83-8,17.83-16.41,24-25.25ZM19.5,28.25h197.75v17H19.5v-17ZM51.5,102h17.75v128.75h-17.75V102ZM66.75,153c1.83,1.17,4.62,3.04,8.38,5.62,3.75,2.59,7.75,5.38,12,8.38s8.12,5.79,11.62,8.38c3.5,2.59,6,4.46,7.5,5.62l-11,14.25c-2-2-4.67-4.58-8-7.75-3.34-3.16-6.96-6.41-10.88-9.75-3.92-3.33-7.67-6.46-11.25-9.38-3.59-2.91-6.46-5.29-8.62-7.12l10.25-8.25ZM155.5,136.25l13.75,4.25c-4.17,10.67-9.42,21.09-15.75,31.25-6.34,10.17-13.29,19.38-20.88,27.62-7.59,8.25-15.46,15.04-23.62,20.38-1.34-2-3.12-4.38-5.38-7.12s-4.38-4.88-6.38-6.38c8-4.66,15.71-10.66,23.12-18,7.41-7.33,14.16-15.5,20.25-24.5,6.08-9,11.04-18.16,14.88-27.5ZM107.5,0h18.75v110.25h-18.75V0ZM117,132.25h114v16.5h-114v-16.5ZM131.5,32.25c6.83,8.67,15.38,16.88,25.62,24.62s21.5,14.59,33.75,20.5c12.25,5.92,24.54,10.62,36.88,14.12-1.34,1.17-2.79,2.67-4.38,4.5-1.59,1.84-3.04,3.71-4.38,5.62-1.34,1.92-2.5,3.71-3.5,5.38-12.5-4.33-24.92-9.91-37.25-16.75-12.34-6.83-23.79-14.71-34.38-23.62-10.59-8.91-19.46-18.38-26.62-28.38l14.25-6ZM160.25,102h17.75v128.75h-17.75V102ZM182.25,137.75c4.16,8.5,9.25,17,15.25,25.5s12.54,16.34,19.62,23.5c7.08,7.17,13.96,13,20.62,17.5-2,1.67-4.29,3.92-6.88,6.75-2.59,2.83-4.71,5.5-6.38,8-6.67-5.5-13.42-12.38-20.25-20.62-6.84-8.25-13.25-17.25-19.25-27s-11-19.46-15-29.12l12.25-4.5Z" style="fill: #231f20; stroke-width: 0px;"/>
</svg>