<?xml version="1.0" encoding="UTF-8"?>
<svg id="Layer_1" data-name="Layer 1" xmlns="http://www.w3.org/2000/svg" viewBox="0 0 235 220">
  <path d="M103.75,0h21c-.34,6.5-.92,15.09-1.75,25.75-.84,10.67-2.38,22.71-4.62,36.12-2.25,13.42-5.71,27.38-10.38,41.88-4.67,14.5-10.92,28.84-18.75,43-7.84,14.17-17.79,27.59-29.88,40.25-12.09,12.67-26.79,23.66-44.12,33-1.5-2.34-3.67-4.84-6.5-7.5-2.84-2.67-5.75-5-8.75-7,17.16-8.83,31.58-19.16,43.25-31,11.66-11.83,21.25-24.5,28.75-38s13.33-27.12,17.5-40.88c4.16-13.75,7.25-26.88,9.25-39.38s3.29-23.62,3.88-33.38c.58-9.75.96-17.38,1.12-22.88ZM123.75,5c.16,2.84.54,7.71,1.12,14.62.58,6.92,1.71,15.29,3.38,25.12,1.66,9.84,4.08,20.5,7.25,32,3.16,11.5,7.41,23.34,12.75,35.5,5.33,12.17,11.91,24,19.75,35.5,7.83,11.5,17.25,22.12,28.25,31.88s23.91,17.96,38.75,24.62c-2.84,2.16-5.54,4.71-8.12,7.62-2.59,2.91-4.71,5.62-6.38,8.12-15-7.17-28.21-15.96-39.62-26.38-11.42-10.41-21.17-21.75-29.25-34-8.09-12.25-14.84-24.79-20.25-37.62-5.42-12.83-9.79-25.38-13.12-37.62-3.34-12.25-5.84-23.66-7.5-34.25-1.67-10.58-2.84-19.66-3.5-27.25-.67-7.58-1.09-13.04-1.25-16.38l17.75-1.5Z" style="fill: #231f20; stroke-width: 0px;"/>
</svg>