<?xml version="1.0" encoding="UTF-8"?>
<svg id="Layer_1" data-name="Layer 1" xmlns="http://www.w3.org/2000/svg" viewBox="0 0 235.75 229.75">
  <path d="M75,63.5h4l3.5-.75,12.75,5c-4.34,21.84-10.42,41.59-18.25,59.25-7.84,17.67-17,33.09-27.5,46.25-10.5,13.17-21.92,23.84-34.25,32-1-1.5-2.42-3.21-4.25-5.12-1.84-1.91-3.75-3.79-5.75-5.62-2-1.83-3.75-3.16-5.25-4,12-7.5,23-17.16,33-29,10-11.83,18.62-25.62,25.88-41.38s12.62-33.12,16.12-52.12v-4.5ZM6.5,63.5h75v19H6.5v-19ZM108.25,0h19.75v203c0,6.66-.96,11.66-2.88,15-1.92,3.33-4.96,5.91-9.12,7.75-4.17,1.5-10,2.54-17.5,3.12-7.5.58-17,.88-28.5.88-.34-2-.92-4.21-1.75-6.62-.84-2.42-1.75-4.88-2.75-7.38s-2.09-4.67-3.25-6.5c9.16.17,17.38.29,24.62.38,7.25.08,12.12.04,14.62-.12s4.25-.71,5.25-1.62c1-.91,1.5-2.54,1.5-4.88V0ZM126.75,41c4.33,16.67,9.83,32.84,16.5,48.5,6.66,15.67,14.5,30.21,23.5,43.62,9,13.42,19.25,25.29,30.75,35.62,11.5,10.34,24.25,18.5,38.25,24.5-1.5,1.17-3.17,2.75-5,4.75-1.84,2-3.59,4.09-5.25,6.25-1.67,2.17-3.09,4.17-4.25,6-19-9.33-35.54-22.29-49.62-38.88-14.09-16.58-26-35.75-35.75-57.5s-17.71-44.96-23.88-69.62l14.75-3.25ZM208.5,40l17.25,12.25c-6.84,7.67-14.38,15.62-22.62,23.88s-16.54,16.12-24.88,23.62c-8.34,7.5-16.17,14.09-23.5,19.75l-13.25-10.5c7.16-5.83,14.88-12.71,23.12-20.62,8.25-7.91,16.25-16.08,24-24.5,7.75-8.41,14.38-16.38,19.88-23.88Z" style="fill: #231f20; stroke-width: 0px;"/>
</svg>