<?xml version="1.0" encoding="UTF-8"?>
<svg id="Layer_1" data-name="Layer 1" xmlns="http://www.w3.org/2000/svg" viewBox="0 0 223.75 222">
  <path d="M46.25,4l19,4.25c-3.5,12.84-7.75,25.38-12.75,37.62s-10.5,23.67-16.5,34.25c-6,10.59-12.42,19.88-19.25,27.88-1.17-1.16-2.79-2.41-4.88-3.75-2.09-1.33-4.17-2.71-6.25-4.12-2.09-1.41-3.96-2.54-5.62-3.38,6.83-7.33,13.12-15.96,18.88-25.88,5.75-9.91,10.96-20.54,15.62-31.88,4.66-11.33,8.58-23,11.75-35ZM.25,203.75h223.5v18.25H.25v-18.25ZM27.75,122h175v18H27.75v-18ZM38.75,48.5h173v18.25H38.75v-18.25ZM102.25,0h19.5v212.75h-19.5V0Z" style="fill: #231f20; stroke-width: 0px;"/>
</svg>