<?xml version="1.0" encoding="UTF-8"?>
<svg id="Layer_1" data-name="Layer 1" xmlns="http://www.w3.org/2000/svg" viewBox="0 0 220.5 230.5">
  <path d="M0,80.75h220.5v15H0v-15ZM16.25,16.75h190.75v14.75H16.25v-14.75ZM24.75,48.25h171.75v14.5H24.75v-14.5ZM35.25,111.5h139.5v14.5H53.75v104.5h-18.5v-119ZM46.5,143.75h128.25v13.5H46.5v-13.5ZM46.5,175.5h128.5v13.5H46.5v-13.5ZM100.25,0h19v90h-19V0ZM168.5,111.5h18.75v98c0,5.16-.75,9.04-2.25,11.62-1.5,2.58-4.17,4.54-8,5.88-4,1.16-9.46,1.88-16.38,2.12-6.92.25-15.46.38-25.62.38-.5-2.34-1.38-4.92-2.62-7.75-1.25-2.84-2.46-5.42-3.62-7.75,5,0,9.88.08,14.62.25,4.75.16,8.88.21,12.38.12,3.5-.09,5.91-.12,7.25-.12,2.16-.17,3.62-.59,4.38-1.25.75-.67,1.12-1.92,1.12-3.75v-97.75Z" style="fill: #231f20; stroke-width: 0px;"/>
</svg>