<?xml version="1.0" encoding="UTF-8"?>
<svg id="Layer_1" data-name="Layer 1" xmlns="http://www.w3.org/2000/svg" viewBox="0 0 203.75 231.5">
  <path d="M92.75,0l19.75,5.75c-7.17,16.67-15.71,32.38-25.62,47.12-9.92,14.75-20.84,28.12-32.75,40.12-11.92,12-24.46,22.5-37.62,31.5-1-1.33-2.54-2.88-4.62-4.62-2.09-1.75-4.17-3.5-6.25-5.25-2.09-1.75-3.96-3.21-5.62-4.38,20-12,38.08-27.62,54.25-46.88C70.41,44.12,83.25,23,92.75,0ZM183,40.25h3.5l3.5-1,13.75,6c-6.67,26.34-15.92,49.67-27.75,70-11.84,20.34-25.71,38.04-41.62,53.12-15.92,15.09-33.29,27.79-52.12,38.12-18.84,10.33-38.5,18.66-59,25-.84-1.84-1.92-3.88-3.25-6.12-1.34-2.25-2.71-4.46-4.12-6.62-1.42-2.17-2.79-3.92-4.12-5.25,19.33-5.16,38-12.54,56-22.12,18-9.58,34.62-21.41,49.88-35.5,15.25-14.08,28.46-30.41,39.62-49,11.16-18.58,19.75-39.62,25.75-63.12v-3.5ZM59.5,107.5l13.25-12.5c7.83,4.5,16,9.54,24.5,15.12,8.5,5.59,16.5,11.29,24,17.12,7.5,5.84,13.66,11.25,18.5,16.25l-14.25,13.75c-4.5-4.83-10.42-10.21-17.75-16.12-7.34-5.91-15.25-11.88-23.75-17.88s-16.67-11.25-24.5-15.75ZM78.5,40.25h109v18.5h-109v-18.5Z" style="fill: #231f20; stroke-width: 0px;"/>
</svg>