<?xml version="1.0" encoding="UTF-8"?>
<svg id="Layer_1" data-name="Layer 1" xmlns="http://www.w3.org/2000/svg" viewBox="0 0 227.75 211">
  <path d="M85,8.75l20,5.25c-5.84,17.17-13.12,34.38-21.88,51.62s-18.92,33.46-30.5,48.62c-11.59,15.17-24.79,28.34-39.62,39.5-1-1.33-2.25-2.88-3.75-4.62s-3.09-3.54-4.75-5.38c-1.67-1.83-3.17-3.25-4.5-4.25,14-10.5,26.5-22.88,37.5-37.12s20.5-29.46,28.5-45.62c8-16.16,14.33-32.16,19-48ZM10.25,0h217.5v18.25H10.25V0ZM54.75,84h158v126.5h-20v-108.5h-119v109h-19v-127ZM63,175.5h142v18H63v-18Z" style="fill: #231f20; stroke-width: 0px;"/>
</svg>