<?xml version="1.0" encoding="UTF-8"?>
<svg id="Layer_1" data-name="Layer 1" xmlns="http://www.w3.org/2000/svg" viewBox="0 0 234.25 231.25">
  <path d="M40.25,120.25l18.75,5c-3.17,7.5-7.04,15.21-11.62,23.12-4.59,7.92-9.62,15.46-15.12,22.62-5.5,7.17-11.25,13.5-17.25,19-1.84-1.83-4.25-3.79-7.25-5.88-3-2.08-5.59-3.71-7.75-4.88,5.83-5.16,11.33-11.08,16.5-17.75,5.16-6.66,9.83-13.58,14-20.75,4.16-7.16,7.41-14,9.75-20.5ZM6.5,83.5h222v18H6.5v-18ZM31.25,30h177.25v17.75H31.25v-17.75ZM82.25,91h18.75v25.5c0,8.84-.54,18.21-1.62,28.12-1.09,9.92-3.46,19.92-7.12,30-3.67,10.09-9.21,19.96-16.62,29.62-7.42,9.66-17.38,18.66-29.88,27-.84-1.5-2.09-3.09-3.75-4.75s-3.38-3.29-5.12-4.88c-1.75-1.59-3.46-2.88-5.12-3.88,11.5-7.67,20.66-15.83,27.5-24.5,6.83-8.66,11.88-17.46,15.12-26.38,3.25-8.91,5.38-17.71,6.38-26.38,1-8.66,1.5-16.83,1.5-24.5v-25ZM138.5,93.25h19.5v113.25c0,5.5-.71,9.75-2.12,12.75-1.42,3-4.04,5.33-7.88,7-4,1.5-9.12,2.41-15.38,2.75-6.25.33-14.12.5-23.62.5-.34-2.67-1.17-5.84-2.5-9.5-1.34-3.67-2.67-6.75-4-9.25,7.16.16,13.62.25,19.38.25s9.54-.09,11.38-.25c2.16-.17,3.58-.54,4.25-1.12.66-.58,1-1.71,1-3.38v-113ZM107,0h19.25v89.5h-19.25V0ZM175.5,126.25l16.75-7.25c5.16,6.34,10.5,13.34,16,21,5.5,7.67,10.54,15.17,15.12,22.5,4.58,7.34,8.21,13.84,10.88,19.5l-18.25,8.75c-2.34-5.66-5.67-12.21-10-19.62-4.34-7.41-9.17-15.08-14.5-23-5.34-7.91-10.67-15.21-16-21.88Z" style="fill: #231f20; stroke-width: 0px;"/>
</svg>