<?xml version="1.0" encoding="UTF-8"?>
<svg id="Layer_1" data-name="Layer 1" xmlns="http://www.w3.org/2000/svg" viewBox="0 0 224.25 226.75">
  <path d="M0,95.5h224.25v18.25H0v-18.25ZM185.25,0l14.5,15.75c-11.67,3.5-24.75,6.71-39.25,9.62-14.5,2.92-29.75,5.59-45.75,8-16,2.42-32.17,4.59-48.5,6.5-16.34,1.92-32.17,3.54-47.5,4.88-.17-1.66-.54-3.5-1.12-5.5-.59-2-1.25-4-2-6s-1.46-3.66-2.12-5c15.16-1.5,30.75-3.21,46.75-5.12,16-1.91,31.66-4.08,47-6.5,15.33-2.41,29.71-5,43.12-7.75,13.41-2.75,25.04-5.71,34.88-8.88ZM101.5,30.5h19.75v196.25h-19.75V30.5Z" style="fill: #231f20; stroke-width: 0px;"/>
</svg>