<?xml version="1.0" encoding="UTF-8"?>
<svg id="Layer_1" data-name="Layer 1" xmlns="http://www.w3.org/2000/svg" viewBox="0 0 215.75 219">
  <path d="M32.75.75h19.25v85c0,12-.38,23.92-1.12,35.75-.75,11.84-2.38,23.46-4.88,34.88-2.5,11.42-6.12,22.38-10.88,32.88s-11.29,20.41-19.62,29.75c-1-1.5-2.46-3.04-4.38-4.62-1.92-1.59-3.88-3.17-5.88-4.75-2-1.59-3.75-2.79-5.25-3.62,9.83-11.5,17.08-23.75,21.75-36.75,4.66-13,7.66-26.58,9-40.75,1.33-14.16,2-28.41,2-42.75V.75ZM112.25,11h19v184h-19V11ZM196.25,0h19.5v216.75h-19.5V0Z" style="fill: #231f20; stroke-width: 0px;"/>
</svg>