<?xml version="1.0" encoding="UTF-8"?>
<svg id="Layer_1" data-name="Layer 1" xmlns="http://www.w3.org/2000/svg" viewBox="0 0 226.75 231.25">
  <path d="M69.25,121.5h19.5c-1.17,12.67-3.12,24.59-5.88,35.75-2.75,11.17-6.88,21.38-12.38,30.62s-12.96,17.54-22.38,24.88c-9.42,7.33-21.46,13.5-36.12,18.5-.67-1.67-1.71-3.46-3.12-5.38-1.42-1.92-2.88-3.84-4.38-5.75-1.5-1.92-3-3.46-4.5-4.62,13.66-4.34,24.83-9.58,33.5-15.75,8.66-6.16,15.41-13.29,20.25-21.38,4.83-8.08,8.38-16.88,10.62-26.38s3.88-19.66,4.88-30.5ZM3.5,107.5h219.75v18.25H3.5v-18.25ZM49.75,5.75l19,4c-2.67,9.5-5.88,19.42-9.62,29.75-3.75,10.34-8.09,20.38-13,30.12-4.92,9.75-10.29,18.29-16.12,25.62-1.34-1-3-2.04-5-3.12-2-1.08-3.96-2.16-5.88-3.25-1.92-1.08-3.71-1.88-5.38-2.38,5.83-7.16,11.04-15.38,15.62-24.62,4.58-9.25,8.62-18.75,12.12-28.5s6.25-18.96,8.25-27.62ZM44.75,39h160.5v18H44.75v-18ZM103.75,0h19v113.5h-19V0ZM136,120.75h18.75v78.5c0,3.67.71,6.04,2.12,7.12,1.41,1.09,4.46,1.62,9.12,1.62h31.75c3.16,0,5.54-.88,7.12-2.62,1.58-1.75,2.66-5.29,3.25-10.62.58-5.33,1.04-13.41,1.38-24.25,1.33,1,3.04,2.04,5.12,3.12,2.08,1.09,4.21,2,6.38,2.75,2.16.75,4.08,1.38,5.75,1.88-.67,12.67-1.88,22.46-3.62,29.38s-4.5,11.71-8.25,14.38c-3.75,2.66-8.96,4-15.62,4h-35.25c-7.5,0-13.25-.79-17.25-2.38-4-1.59-6.79-4.34-8.38-8.25-1.59-3.92-2.38-9.29-2.38-16.12v-78.5Z" style="fill: #231f20; stroke-width: 0px;"/>
</svg>