<?xml version="1.0" encoding="UTF-8"?>
<svg id="Layer_1" data-name="Layer 1" xmlns="http://www.w3.org/2000/svg" viewBox="0 0 230 217.75">
  <path d="M45.5,103.75l19.75,2.5c-1.84,13.5-4.79,27.29-8.88,41.38-4.09,14.09-9.59,27.21-16.5,39.38-6.92,12.16-15.79,22.41-26.62,30.75-1-1.17-2.29-2.59-3.88-4.25-1.59-1.67-3.21-3.25-4.88-4.75-1.67-1.5-3.17-2.75-4.5-3.75,10-7.5,18.08-16.88,24.25-28.12,6.16-11.25,10.96-23.25,14.38-36,3.41-12.75,5.71-25.12,6.88-37.12ZM31.25,0h171.25v85H31.25V0ZM58,134.75c4.5,12.84,10.33,23.29,17.5,31.38,7.16,8.09,15.46,14.34,24.88,18.75,9.41,4.42,19.88,7.42,31.38,9,11.5,1.59,23.75,2.38,36.75,2.38h51.75c4.33,0,7.58-.08,9.75-.25-1,1.5-1.96,3.38-2.88,5.62-.92,2.25-1.75,4.5-2.5,6.75s-1.29,4.29-1.62,6.12h-55.25c-15.17,0-29.17-1.04-42-3.12-12.84-2.09-24.46-5.75-34.88-11-10.42-5.25-19.67-12.66-27.75-22.25-8.09-9.58-14.96-21.96-20.62-37.12l15.5-6.25ZM49.75,18v49.25h133.25V18H49.75ZM105.75,79.75h19.25v124.5l-19.25-6.25v-118.25ZM114,124h95.5v17.75h-95.5v-17.75Z" style="fill: #231f20; stroke-width: 0px;"/>
</svg>