<?xml version="1.0" encoding="UTF-8"?>
<svg id="Layer_1" data-name="Layer 1" xmlns="http://www.w3.org/2000/svg" viewBox="0 0 234.5 230">
  <path d="M49.5,64.75l12.75,4.5c-2.5,10.17-5.62,20.62-9.38,31.38s-7.88,21.29-12.38,31.62c-4.5,10.34-9.29,19.96-14.38,28.88-5.09,8.92-10.29,16.46-15.62,22.62-1.17-2.66-2.79-5.66-4.88-9-2.09-3.33-3.96-6.16-5.62-8.5,5.16-5.66,10.21-12.38,15.12-20.12,4.91-7.75,9.54-16.21,13.88-25.38,4.33-9.16,8.29-18.5,11.88-28,3.58-9.5,6.46-18.83,8.62-28ZM6,53.5h100.25v18H6v-18ZM50.5,0h18v229.75h-18V0ZM67.5,93.25c1.83,1.67,4.62,4.46,8.38,8.38,3.75,3.92,7.79,8.21,12.12,12.88,4.33,4.67,8.33,9,12,13,3.66,4,6.16,6.92,7.5,8.75l-12,15.75c-1.84-3-4.42-6.75-7.75-11.25-3.34-4.5-6.92-9.21-10.75-14.12-3.84-4.91-7.5-9.5-11-13.75s-6.42-7.62-8.75-10.12l10.25-9.5ZM113.75,53.25h120.75v18h-120.75v-18ZM119,104.5l15.5-7.25c4.66,6,9.21,12.62,13.62,19.88,4.41,7.25,8.38,14.29,11.88,21.12,3.5,6.84,6.08,13,7.75,18.5l-17,8.75c-1.67-5.5-4.17-11.75-7.5-18.75-3.34-7-7.09-14.21-11.25-21.62-4.17-7.41-8.5-14.29-13-20.62ZM188.5.25h19v204c0,6.66-.92,11.62-2.75,14.88-1.84,3.25-4.84,5.62-9,7.12-4,1.66-9.67,2.71-17,3.12-7.34.41-16.42.62-27.25.62-.34-1.84-.88-3.92-1.62-6.25-.75-2.34-1.59-4.71-2.5-7.12-.92-2.42-1.88-4.54-2.88-6.38,8.5.16,16.29.25,23.38.25h14.38c2.33-.17,3.96-.66,4.88-1.5.91-.83,1.38-2.41,1.38-4.75V.25Z" style="fill: #231f20; stroke-width: 0px;"/>
</svg>