<?xml version="1.0" encoding="UTF-8"?>
<svg id="Layer_1" data-name="Layer 1" xmlns="http://www.w3.org/2000/svg" viewBox="0 0 228.75 229.25">
  <path d="M104.5,0h20.25c0,10.84-.29,22.88-.88,36.12-.59,13.25-1.88,27-3.88,41.25s-5.29,28.59-9.88,43c-4.59,14.42-10.92,28.34-19,41.75-8.09,13.42-18.38,25.88-30.88,37.38s-27.84,21.41-46,29.75c-1.5-2.5-3.62-5.21-6.38-8.12-2.75-2.92-5.38-5.38-7.88-7.38,17.66-7.66,32.54-16.83,44.62-27.5,12.08-10.66,21.96-22.33,29.62-35,7.66-12.66,13.58-25.75,17.75-39.25,4.16-13.5,7.08-26.96,8.75-40.38,1.66-13.41,2.71-26.21,3.12-38.38.41-12.16.62-23.25.62-33.25ZM4.75,71.5h220v19.25H4.75v-19.25ZM126.5,79.25c5.66,20.17,13.12,38.96,22.38,56.38,9.25,17.42,20.58,32.62,34,45.62,13.41,13,28.71,23.17,45.88,30.5-1.5,1.33-3.12,3.04-4.88,5.12-1.75,2.08-3.46,4.21-5.12,6.38-1.67,2.16-3,4.16-4,6-18-8.67-33.88-20.08-47.62-34.25-13.75-14.16-25.46-30.66-35.12-49.5-9.67-18.83-17.67-39.41-24-61.75l18.5-4.5Z" style="fill: #231f20; stroke-width: 0px;"/>
</svg>