<?xml version="1.0" encoding="UTF-8"?>
<svg id="Layer_1" data-name="Layer 1" xmlns="http://www.w3.org/2000/svg" viewBox="0 0 209.75 216.75">
  <path d="M100.5,97.5h19.5c-1.5,11.34-3.54,22.12-6.12,32.38-2.59,10.25-6.25,19.79-11,28.62-4.75,8.84-11.12,16.96-19.12,24.38-8,7.42-18,13.96-30,19.62-12,5.66-26.59,10.41-43.75,14.25-.5-1.67-1.34-3.5-2.5-5.5-1.17-2-2.38-3.96-3.62-5.88-1.25-1.92-2.54-3.54-3.88-4.88,16.16-3.34,29.83-7.46,41-12.38,11.16-4.91,20.38-10.54,27.62-16.88,7.25-6.33,12.96-13.33,17.12-21,4.16-7.66,7.33-15.91,9.5-24.75,2.16-8.83,3.91-18.16,5.25-28ZM7.25,125.25h191v17.25H7.25v-17.25ZM27.5,0h173.75v101H27.5V0ZM46,16v26.75h135.75v-26.75H46ZM46,57.75v27h135.75v-27H46ZM104,7.25h18.75v86.25h-18.75V7.25ZM190.5,125.25h19.25c-.17,2-.29,3.67-.38,5-.09,1.34-.21,2.42-.38,3.25-1.5,15.84-3.12,28.84-4.88,39-1.75,10.17-3.62,18.09-5.62,23.75s-4.34,9.83-7,12.5c-2.84,2.5-5.75,4.21-8.75,5.12-3,.91-6.75,1.54-11.25,1.88-4,.16-9.54.21-16.62.12-7.09-.09-14.71-.38-22.88-.88-.17-2.67-.79-5.62-1.88-8.88-1.09-3.25-2.38-6.04-3.88-8.38,8,.66,15.71,1.12,23.12,1.38,7.41.25,12.54.38,15.38.38s5.04-.17,6.62-.5c1.58-.34,3.04-1,4.38-2,2-1.83,3.91-5.33,5.75-10.5,1.83-5.16,3.46-12.5,4.88-22,1.41-9.5,2.79-21.66,4.12-36.5v-2.75Z" style="fill: #231f20; stroke-width: 0px;"/>
</svg>