<?xml version="1.0" encoding="UTF-8"?>
<svg id="Layer_1" data-name="Layer 1" xmlns="http://www.w3.org/2000/svg" viewBox="0 0 233.75 230.25">
  <path d="M45.5,0l19.5,4c-3.67,14.67-7.96,28.92-12.88,42.75-4.92,13.84-10.34,26.79-16.25,38.88-5.92,12.09-12.29,22.79-19.12,32.12-1-1-2.59-2.25-4.75-3.75-2.17-1.5-4.34-2.96-6.5-4.38-2.17-1.41-4-2.54-5.5-3.38,6.83-8.5,13.08-18.41,18.75-29.75,5.66-11.33,10.79-23.54,15.38-36.62,4.58-13.08,8.38-26.38,11.38-39.88ZM37.75,51h80.75v18.75H28.25l9.5-18.75ZM55.25,59.25h18.75v171h-18.75V59.25ZM142,0l18.75,3.75c-3.5,14.5-7.62,28.71-12.38,42.62-4.75,13.92-10.04,26.92-15.88,39-5.84,12.09-12.17,22.71-19,31.88-1-1-2.5-2.25-4.5-3.75s-4-2.91-6-4.25c-2-1.33-3.75-2.41-5.25-3.25,6.66-8.5,12.79-18.41,18.38-29.75,5.58-11.33,10.54-23.5,14.88-36.5,4.33-13,8-26.25,11-39.75ZM139.5,51h94.25v18.75h-103.5l9.25-18.75ZM176.5,58.25h19.25v147.25c0,6-.75,10.58-2.25,13.75-1.5,3.16-4.42,5.58-8.75,7.25-3.84,1.5-9.25,2.46-16.25,2.88-7,.41-15.42.62-25.25.62-.5-2.84-1.38-6.12-2.62-9.88s-2.62-7.12-4.12-10.12c5.33.17,10.33.33,15,.5,4.66.16,8.75.21,12.25.12,3.5-.09,6-.12,7.5-.12,2.16-.17,3.58-.62,4.25-1.38.66-.75,1-2.04,1-3.88V58.25Z" style="fill: #231f20; stroke-width: 0px;"/>
</svg>