<?xml version="1.0" encoding="UTF-8"?>
<svg id="Layer_1" data-name="Layer 1" xmlns="http://www.w3.org/2000/svg" viewBox="0 0 222.75 230.25">
  <path d="M0,81.5h222.75v17H0v-17ZM14.25,22.75h196.25v17H14.25v-17ZM36.75,120.25h152.5v109.25h-19.5v-93.25H55.25v94h-18.5v-110ZM46,162.5h132.25v15H46v-15ZM46.25,204.75h132.25v16H46.25v-16ZM48.75,44l17.75-4c4,5.84,7.5,12.29,10.5,19.38,3,7.09,5,13.21,6,18.38l-19.25,5c-1-5.5-2.88-11.88-5.62-19.12s-5.88-13.79-9.38-19.62ZM101,0h19.5v32.25h-19.5V0ZM157.5,39l20.25,5c-3.34,6.67-6.79,13.54-10.38,20.62-3.59,7.09-6.96,13.12-10.12,18.12l-17.25-4.75c2-3.5,4.08-7.54,6.25-12.12,2.16-4.58,4.25-9.25,6.25-14s3.66-9.04,5-12.88Z" style="fill: #231f20; stroke-width: 0px;"/>
</svg>