<?xml version="1.0" encoding="UTF-8"?>
<svg id="Layer_1" data-name="Layer 1" xmlns="http://www.w3.org/2000/svg" viewBox="0 0 226 232.25">
  <path d="M0,199c12.16-.33,26.08-.66,41.75-1,15.66-.33,32.33-.75,50-1.25,17.66-.5,35.79-1.08,54.38-1.75,18.58-.66,36.96-1.33,55.12-2l-1,17.5c-23.34,1.16-46.96,2.29-70.88,3.38-23.92,1.08-46.71,2.04-68.38,2.88-21.67.83-41,1.5-58,2l-3-19.75ZM20,40h185.5v104.5h-19.5V58H38.75v89h-18.75V40ZM31.25,117h162.25v18H31.25v-18ZM101.75,0h19.5v204.75h-19.5V0ZM158.25,160.5l17.5-7.25c6.33,7,12.79,14.71,19.38,23.12,6.58,8.42,12.62,16.75,18.12,25s9.75,15.71,12.75,22.38l-18.5,8.5c-3-6.5-7.12-13.92-12.38-22.25s-11.09-16.83-17.5-25.5c-6.42-8.66-12.88-16.66-19.38-24Z" style="fill: #231f20; stroke-width: 0px;"/>
</svg>