<?xml version="1.0" encoding="UTF-8"?>
<svg id="Layer_1" data-name="Layer 1" xmlns="http://www.w3.org/2000/svg" viewBox="0 0 223.5 217.25">
  <path d="M0,0h16.25v189.25H0V0ZM8.75,75h89v16.75H8.75v-16.75ZM10.25,0h96v169.75H10.25v-16.75h79.5V16.75H10.25V0ZM45.25,8.25h15.25v152h-15.25V8.25ZM111,17h112.5v18.5h-112.5v-18.5ZM168.75,25.5h19.25v167.25c0,6-.88,10.62-2.62,13.88s-4.79,5.71-9.12,7.38c-4.67,1.5-10.88,2.41-18.62,2.75-7.75.33-17.54.5-29.38.5-.34-1.67-.88-3.67-1.62-6-.75-2.34-1.54-4.62-2.38-6.88-.84-2.25-1.75-4.21-2.75-5.88,6.16.16,12,.29,17.5.38,5.5.08,10.33.08,14.5,0,4.16-.09,7.08-.12,8.75-.12,2.5-.17,4.21-.67,5.12-1.5.91-.83,1.38-2.41,1.38-4.75V25.5Z" style="fill: #231f20; stroke-width: 0px;"/>
</svg>