<?xml version="1.0" encoding="UTF-8"?>
<svg id="Layer_1" data-name="Layer 1" xmlns="http://www.w3.org/2000/svg" viewBox="0 0 231 211.25">
  <path d="M103,5.25h20v58.5c0,10.5-.71,21.21-2.12,32.12-1.42,10.92-4.21,21.75-8.38,32.5-4.17,10.75-10.34,21.12-18.5,31.12-8.17,10-18.96,19.42-32.38,28.25-13.42,8.83-30.12,16.66-50.12,23.5-.67-1.5-1.67-3.29-3-5.38-1.34-2.09-2.79-4.12-4.38-6.12-1.59-2-2.96-3.59-4.12-4.75,18.66-6.5,34.25-13.71,46.75-21.62,12.5-7.91,22.5-16.33,30-25.25,7.5-8.91,13.16-18.12,17-27.62,3.83-9.5,6.33-19.08,7.5-28.75,1.16-9.66,1.75-19,1.75-28V5.25ZM4.75,0h219.75v19.25H4.75V0ZM12.5,77.75h205.75v19.25H12.5v-19.25ZM125,85c5,18.67,12.04,35.29,21.12,49.88,9.08,14.59,20.66,26.84,34.75,36.75,14.08,9.92,30.79,17.29,50.12,22.12-1.34,1.33-2.84,3-4.5,5-1.67,2-3.21,4.12-4.62,6.38-1.42,2.25-2.62,4.29-3.62,6.12-20.34-5.84-37.71-14.25-52.12-25.25-14.42-11-26.42-24.62-36-40.88-9.59-16.25-17.29-34.96-23.12-56.12l18-4Z" style="fill: #231f20; stroke-width: 0px;"/>
</svg>