<?xml version="1.0" encoding="UTF-8"?>
<svg id="Layer_1" data-name="Layer 1" xmlns="http://www.w3.org/2000/svg" viewBox="0 0 232.75 214.25">
  <path d="M102,49l21.25,3.75c-6,25.34-13.79,48.17-23.38,68.5-9.59,20.34-21.17,38.21-34.75,53.62-13.59,15.42-29.62,28.54-48.12,39.38-1-1.34-2.54-2.92-4.62-4.75-2.09-1.84-4.25-3.71-6.5-5.62-2.25-1.92-4.21-3.46-5.88-4.62,27.83-14.66,49.91-34.54,66.25-59.62,16.33-25.08,28.25-55.29,35.75-90.62ZM48,0h70.75v19H48V0ZM109.25,0h19c0,7.34.33,16,1,26,.66,10,2.08,20.71,4.25,32.12,2.16,11.42,5.5,23.29,10,35.62,4.5,12.34,10.58,24.62,18.25,36.88,7.66,12.25,17.29,24.12,28.88,35.62,11.58,11.5,25.62,22.09,42.12,31.75-1.34,1.16-3.04,2.71-5.12,4.62-2.09,1.91-4,3.91-5.75,6-1.75,2.08-3.21,3.88-4.38,5.38-16.67-10.17-30.96-21.38-42.88-33.62-11.92-12.25-21.84-25.04-29.75-38.38-7.92-13.33-14.25-26.71-19-40.12-4.75-13.41-8.34-26.41-10.75-39-2.42-12.58-4-24.29-4.75-35.12-.75-10.83-1.12-20.08-1.12-27.75Z" style="fill: #231f20; stroke-width: 0px;"/>
</svg>