<?xml version="1.0" encoding="UTF-8"?>
<svg id="Layer_1" data-name="Layer 1" xmlns="http://www.w3.org/2000/svg" viewBox="0 0 226.5 231">
  <path d="M0,155.25h226.5v18H0v-18ZM57.25,0l19,5c-4.67,12.17-10.12,24.04-16.38,35.62-6.25,11.59-13.04,22.34-20.38,32.25-7.34,9.92-14.92,18.62-22.75,26.12-1.17-1-2.71-2.29-4.62-3.88-1.92-1.58-3.92-3.12-6-4.62-2.09-1.5-3.96-2.66-5.62-3.5,8-7,15.54-15.04,22.62-24.12,7.08-9.08,13.54-19,19.38-29.75,5.83-10.75,10.75-21.79,14.75-33.12ZM41.25,87.75h167.75v17.75H60v59h-18.75v-76.75ZM53.5,31.25h161.25v18H44.25l9.25-18ZM116,40.75h19.25v190.25h-19.25V40.75Z" style="fill: #231f20; stroke-width: 0px;"/>
</svg>