<?xml version="1.0" encoding="UTF-8"?>
<svg id="Layer_1" data-name="Layer 1" xmlns="http://www.w3.org/2000/svg" viewBox="0 0 222.75 211.25">
  <path d="M0,0h222.75v18.75H0V0ZM96.5,14.75h19.75v196.5h-19.75V14.75ZM107.25,74l12.5-14.25c7.5,3.5,15.41,7.5,23.75,12,8.33,4.5,16.58,9.12,24.75,13.88,8.16,4.75,15.79,9.38,22.88,13.88,7.08,4.5,13.12,8.67,18.12,12.5l-13.25,17c-4.84-3.83-10.71-8.12-17.62-12.88-6.92-4.75-14.42-9.58-22.5-14.5-8.09-4.91-16.29-9.75-24.62-14.5-8.34-4.75-16.34-9.12-24-13.12Z" style="fill: #231f20; stroke-width: 0px;"/>
</svg>