<?xml version="1.0" encoding="UTF-8"?>
<svg id="Layer_1" data-name="Layer 1" xmlns="http://www.w3.org/2000/svg" viewBox="0 0 230 211">
  <path d="M61.5,47.5l21.25,3c-2.34,14.5-5.25,29.21-8.75,44.12-3.5,14.92-7.88,29.46-13.12,43.62-5.25,14.17-11.62,27.46-19.12,39.88s-16.34,23.38-26.5,32.88c-1-1.34-2.46-2.88-4.38-4.62-1.92-1.75-3.84-3.42-5.75-5-1.92-1.59-3.62-2.96-5.12-4.12,9.66-8.66,18-18.88,25-30.62s12.91-24.29,17.75-37.62c4.83-13.33,8.75-26.96,11.75-40.88,3-13.91,5.33-27.46,7-40.62ZM55,0h97v19.5H55V0ZM136.75,0h22.75c2,21.34,4.58,41.79,7.75,61.38,3.16,19.59,7.5,37.88,13,54.88s12.29,32.21,20.38,45.62c8.08,13.42,17.88,24.62,29.38,33.62-1.67,1-3.62,2.38-5.88,4.12s-4.46,3.54-6.62,5.38c-2.17,1.83-4,3.58-5.5,5.25-11.5-9.84-21.34-21.75-29.5-35.75-8.17-14-15-29.62-20.5-46.88s-9.88-35.75-13.12-55.5-5.88-40.29-7.88-61.62h-4.25V0Z" style="fill: #231f20; stroke-width: 0px;"/>
</svg>