<?xml version="1.0" encoding="UTF-8"?>
<svg id="Layer_1" data-name="Layer 1" xmlns="http://www.w3.org/2000/svg" viewBox="0 0 218.25 216.75">
  <path d="M0,0h218.25v18.25H0V0ZM28.25,55.75h165v161h-19.5V73.25H47.25v143.5h-19V55.75ZM41.5,119h139.75v17.25H41.5v-17.25ZM42,183h137.25v17.5H42v-17.5ZM97.75,6.5l22,4.75c-1.5,6.34-3.12,12.92-4.88,19.75-1.75,6.84-3.42,13.34-5,19.5-1.59,6.17-3.29,11.67-5.12,16.5l-17.5-4.5c1.33-5.16,2.71-11.04,4.12-17.62,1.41-6.58,2.71-13.21,3.88-19.88,1.16-6.66,2-12.83,2.5-18.5Z" style="fill: #231f20; stroke-width: 0px;"/>
</svg>