<?xml version="1.0" encoding="UTF-8"?>
<svg id="Layer_1" data-name="Layer 1" xmlns="http://www.w3.org/2000/svg" viewBox="0 0 231.5 230.25">
  <path d="M171.5,51.75l19.75,6c-10.5,30.5-23.96,56.84-40.38,79-16.42,22.17-36.09,40.84-59,56-22.92,15.17-49.54,27.66-79.88,37.5-.67-1.67-1.71-3.59-3.12-5.75-1.42-2.17-2.92-4.42-4.5-6.75-1.59-2.34-3.04-4.17-4.38-5.5,29.66-8.66,55.58-20.04,77.75-34.12,22.16-14.08,41-31.5,56.5-52.25s27.91-45.46,37.25-74.12ZM2.75,42.5h226v18.25H2.75v-18.25ZM57.75,53.25c9.16,26.67,21.54,50.62,37.12,71.88,15.58,21.25,34.71,39.21,57.38,53.88,22.66,14.67,49.08,25.59,79.25,32.75-1.5,1.33-3.12,3.12-4.88,5.38s-3.42,4.54-5,6.88c-1.59,2.33-2.88,4.33-3.88,6-30.84-8-57.71-19.88-80.62-35.62-22.92-15.75-42.38-35-58.38-57.75s-29.17-48.71-39.5-77.88l18.5-5.5ZM105.25,0h19.25v53.5h-19.25V0Z" style="fill: #231f20; stroke-width: 0px;"/>
</svg>