<?xml version="1.0" encoding="UTF-8"?>
<svg id="Layer_1" data-name="Layer 1" xmlns="http://www.w3.org/2000/svg" viewBox="0 0 235.5 229.75">
  <path d="M103.75,70.75l16.25,5.75c-5.84,13-12.67,25.67-20.5,38-7.84,12.34-16.34,24.04-25.5,35.12-9.17,11.09-18.79,21.17-28.88,30.25-10.09,9.09-20.46,16.79-31.12,23.12-1-1.66-2.38-3.46-4.12-5.38-1.75-1.91-3.46-3.79-5.12-5.62-1.67-1.83-3.25-3.41-4.75-4.75,10.33-5.66,20.54-12.66,30.62-21,10.08-8.33,19.66-17.71,28.75-28.12,9.08-10.41,17.41-21.33,25-32.75,7.58-11.41,14.04-22.96,19.38-34.62ZM9.75,61.25h217v18.75H9.75v-18.75ZM108,0h19.75v229.75h-19.75V0ZM131.5,71.25c5.5,11.17,12.08,22.38,19.75,33.62,7.66,11.25,16.12,22.04,25.38,32.38,9.25,10.34,18.88,19.67,28.88,28,10,8.34,20,15.34,30,21-1.5,1.17-3.17,2.71-5,4.62-1.84,1.92-3.59,3.88-5.25,5.88-1.67,2-3,3.92-4,5.75-10.17-6.5-20.25-14.29-30.25-23.38-10-9.08-19.62-19.16-28.88-30.25-9.25-11.08-17.84-22.75-25.75-35-7.92-12.25-14.88-24.54-20.88-36.88l16-5.75Z" style="fill: #231f20; stroke-width: 0px;"/>
</svg>