<?xml version="1.0" encoding="UTF-8"?>
<svg id="Layer_1" data-name="Layer 1" xmlns="http://www.w3.org/2000/svg" viewBox="0 0 235.25 229.75">
  <path d="M101.25,58.75l17,5.5c-7.5,17.67-16.67,34.54-27.5,50.62-10.84,16.09-22.84,30.59-36,43.5-13.17,12.92-26.92,23.54-41.25,31.88-1-1.5-2.34-3.21-4-5.12-1.67-1.91-3.29-3.79-4.88-5.62-1.59-1.83-3.12-3.41-4.62-4.75,10.5-5.5,20.71-12.33,30.62-20.5,9.91-8.16,19.33-17.38,28.25-27.62,8.91-10.25,16.96-21.12,24.12-32.62,7.16-11.5,13.25-23.25,18.25-35.25ZM8.5,52.5h218v19H8.5v-19ZM58.25,164h116.5v19H58.25v-19ZM107.25,0h19.75v229.75h-19.75V0ZM133,59.5c6.66,15.84,15.25,31.12,25.75,45.88s22.29,28,35.38,39.75c13.08,11.75,26.79,21.12,41.12,28.12-1.5,1.34-3.12,2.92-4.88,4.75-1.75,1.84-3.46,3.79-5.12,5.88-1.67,2.09-3.09,4.04-4.25,5.88-14.5-8.16-28.38-18.62-41.62-31.38s-25.21-27.12-35.88-43.12c-10.67-16-19.67-32.66-27-50l16.5-5.75Z" style="fill: #231f20; stroke-width: 0px;"/>
</svg>