<?xml version="1.0" encoding="UTF-8"?>
<svg id="Layer_1" data-name="Layer 1" xmlns="http://www.w3.org/2000/svg" viewBox="0 0 213.75 231.25">
  <path d="M159.75,25.75h3.75l3.25-1,12.5,7c-7.5,18.84-17.25,36.09-29.25,51.75-12,15.67-25.54,29.67-40.62,42-15.09,12.34-31,23.04-47.75,32.12-16.75,9.09-33.71,16.38-50.88,21.88-.67-1.66-1.62-3.58-2.88-5.75-1.25-2.16-2.59-4.25-4-6.25-1.42-2-2.71-3.58-3.88-4.75,16.16-4.66,32.33-11.16,48.5-19.5,16.16-8.33,31.46-18.25,45.88-29.75,14.41-11.5,27.33-24.33,38.75-38.5,11.41-14.16,20.29-29.41,26.62-45.75v-3.5ZM85.5,0l21.25,4c-6.34,10.84-13.92,21.71-22.75,32.62-8.84,10.92-19,21.46-30.5,31.62-11.5,10.17-24.5,19.5-39,28-.84-1.5-2.04-3.16-3.62-5-1.59-1.83-3.21-3.62-4.88-5.38-1.67-1.75-3.25-3.12-4.75-4.12,13.66-7.5,25.96-15.88,36.88-25.12,10.91-9.25,20.33-18.75,28.25-28.5,7.91-9.75,14.29-19.12,19.12-28.12ZM43.25,70.25l13.75-11.75c6.66,4.34,13.54,9.34,20.62,15,7.08,5.67,13.71,11.34,19.88,17,6.16,5.67,11.16,10.92,15,15.75l-15.25,13.25c-3.5-4.83-8.25-10.16-14.25-16-6-5.83-12.5-11.66-19.5-17.5-7-5.83-13.75-11.08-20.25-15.75ZM91.5,124.25h112.5v17.25h-112.5v89.25h-18.75v-91.5l15-15h3.75ZM74.25,25.75h91.75v17h-91.75v-17ZM83,203.5h120.5v17.25h-120.5v-17.25ZM194.5,124.25h19.25v107h-19.25v-107Z" style="fill: #231f20; stroke-width: 0px;"/>
</svg>