<?xml version="1.0" encoding="UTF-8"?>
<svg id="Layer_1" data-name="Layer 1" xmlns="http://www.w3.org/2000/svg" viewBox="0 0 224.25 219">
  <path d="M0,200.5h224.25v18.5H0v-18.5ZM8.5,49.25h208.75v18.5H8.5v-18.5ZM42,85.25l17.75-4.5c4.5,11,8.46,22.67,11.88,35,3.41,12.34,6.25,24.34,8.5,36,2.25,11.67,3.71,22.17,4.38,31.5l-19.25,4.75c-.34-9.16-1.59-19.66-3.75-31.5-2.17-11.83-4.92-23.96-8.25-36.38-3.34-12.41-7.09-24.04-11.25-34.88ZM101.75,0h19.5v59.5h-19.5V0ZM161.25,79.25l21.5,4c-2.67,10.17-5.59,20.88-8.75,32.12-3.17,11.25-6.42,22.42-9.75,33.5-3.34,11.09-6.71,21.62-10.12,31.62-3.42,10-6.71,19-9.88,27l-18-4.5c3.16-8,6.41-17.12,9.75-27.38,3.33-10.25,6.54-21,9.62-32.25,3.08-11.25,6-22.38,8.75-33.38s5.04-21.25,6.88-30.75Z" style="fill: #231f20; stroke-width: 0px;"/>
</svg>