<?xml version="1.0" encoding="UTF-8"?>
<svg id="Layer_1" data-name="Layer 1" xmlns="http://www.w3.org/2000/svg" viewBox="0 0 213.5 230.5">
  <path d="M89.25,0h19.5v43.25c0,11.5-.5,23.62-1.5,36.38s-3.17,25.75-6.5,39c-3.34,13.25-8.42,26.46-15.25,39.62-6.84,13.17-16,25.88-27.5,38.12s-26,23.62-43.5,34.12c-1-1.67-2.34-3.42-4-5.25-1.67-1.84-3.42-3.62-5.25-5.38-1.84-1.75-3.59-3.12-5.25-4.12,16.66-10,30.46-20.66,41.38-32,10.91-11.33,19.58-23.04,26-35.12,6.41-12.08,11.16-24.21,14.25-36.38,3.08-12.16,5.12-24.08,6.12-35.75,1-11.66,1.5-22.75,1.5-33.25V0ZM7.5,54h194v19.25H7.5v-19.25ZM194.25,54h19.25c0,2.67-.04,4.75-.12,6.25-.09,1.5-.21,2.75-.38,3.75-1.34,25.84-2.71,47.84-4.12,66-1.42,18.17-3,33.12-4.75,44.88s-3.67,21-5.75,27.75c-2.09,6.75-4.54,11.62-7.38,14.62-3,3.66-6.12,6.16-9.38,7.5-3.25,1.33-7.29,2.25-12.12,2.75-4.17.33-9.96.41-17.38.25-7.42-.17-14.96-.42-22.62-.75-.17-2.84-.79-6.09-1.88-9.75-1.09-3.67-2.62-6.84-4.62-9.5,8.66.67,16.62,1.12,23.88,1.38s12.46.38,15.62.38c2.66,0,4.88-.25,6.62-.75s3.38-1.58,4.88-3.25c2.33-2.16,4.46-6.46,6.38-12.88,1.91-6.41,3.66-15.41,5.25-27,1.58-11.58,3.08-26.21,4.5-43.88,1.41-17.66,2.79-38.91,4.12-63.75v-4Z" style="fill: #231f20; stroke-width: 0px;"/>
</svg>