<?xml version="1.0" encoding="UTF-8"?>
<svg id="Layer_1" data-name="Layer 1" xmlns="http://www.w3.org/2000/svg" viewBox="0 0 235.5 229.75">
  <path d="M50,64.75l12.75,4.5c-2.5,10.34-5.62,20.88-9.38,31.62s-7.96,21.29-12.62,31.62c-4.67,10.34-9.54,19.92-14.62,28.75-5.09,8.84-10.38,16.34-15.88,22.5-1-2.5-2.54-5.46-4.62-8.88-2.09-3.41-3.96-6.21-5.62-8.38,5.16-5.83,10.21-12.62,15.12-20.38,4.91-7.75,9.62-16.16,14.12-25.25,4.5-9.08,8.5-18.41,12-28,3.5-9.58,6.41-18.96,8.75-28.12ZM6.25,54h99v18H6.25v-18ZM51.25,0h18.25v229.75h-18.25V0ZM69.25,77c1.5,1.34,3.66,3.54,6.5,6.62,2.83,3.09,6,6.59,9.5,10.5,3.5,3.92,6.96,7.84,10.38,11.75,3.41,3.92,6.46,7.46,9.12,10.62,2.66,3.17,4.58,5.5,5.75,7l-12.5,16.25c-1.84-3.33-4.46-7.41-7.88-12.25-3.42-4.83-7.12-9.88-11.12-15.12s-7.79-10.21-11.38-14.88c-3.59-4.66-6.54-8.33-8.88-11l10.5-9.5ZM160,61.75l14.5,4.75c-3.17,11.84-7,23.79-11.5,35.88-4.5,12.09-9.59,23.79-15.25,35.12-5.67,11.34-11.71,21.75-18.12,31.25-6.42,9.5-13.04,17.67-19.88,24.5-1.17-2.66-2.88-5.62-5.12-8.88s-4.29-5.96-6.12-8.12c6.33-6.16,12.62-13.58,18.88-22.25,6.25-8.66,12.12-18.08,17.62-28.25,5.5-10.16,10.41-20.71,14.75-31.62,4.33-10.91,7.75-21.71,10.25-32.38ZM116.25,54h111.5v18h-111.5v-18ZM161.25,0h18.75v229.75h-18.75V0ZM182,61.75c3.66,14.17,8.29,28.38,13.88,42.62,5.58,14.25,11.75,27.38,18.5,39.38s13.79,22,21.12,30c-2.34,1.5-4.92,3.71-7.75,6.62-2.84,2.92-5.09,5.54-6.75,7.88-7.17-9-14.09-20.12-20.75-33.38-6.67-13.25-12.71-27.62-18.12-43.12-5.42-15.5-9.96-30.91-13.62-46.25l13.5-3.75Z" style="fill: #231f20; stroke-width: 0px;"/>
</svg>