<?xml version="1.0" encoding="UTF-8"?>
<svg id="Layer_1" data-name="Layer 1" xmlns="http://www.w3.org/2000/svg" viewBox="0 0 226.25 226.75">
  <path d="M111.75,0h10v81c0,4.84.58,10.62,1.75,17.38,1.16,6.75,3.16,14.09,6,22,2.83,7.92,6.79,16,11.88,24.25,5.08,8.25,11.46,16.38,19.12,24.38,7.66,8,16.91,15.46,27.75,22.38,10.83,6.92,23.5,12.96,38,18.12-1.34,1.33-2.79,3.04-4.38,5.12-1.59,2.08-3.12,4.21-4.62,6.38-1.5,2.16-2.75,4.08-3.75,5.75-14.5-5.5-27.17-12-38-19.5-10.84-7.5-20.09-15.41-27.75-23.75-7.67-8.33-14-16.66-19-25-5-8.33-8.84-16.08-11.5-23.25-2.67-7.16-4.59-13.08-5.75-17.75-1,4.84-2.79,10.75-5.38,17.75-2.59,7-6.25,14.59-11,22.75-4.75,8.17-10.84,16.42-18.25,24.75-7.42,8.34-16.42,16.29-27,23.88-10.59,7.58-22.96,14.29-37.12,20.12-.67-1.34-1.79-2.96-3.38-4.88-1.59-1.92-3.21-3.88-4.88-5.88-1.67-2-3.17-3.67-4.5-5,16.83-6.33,31.12-13.96,42.88-22.88,11.75-8.91,21.46-18.33,29.12-28.25,7.66-9.91,13.66-19.79,18-29.62,4.33-9.83,7.33-19,9-27.5,1.66-8.5,2.5-15.66,2.5-21.5V0h10.25ZM38,47.25l18.75,4c-1.5,9.84-3.59,19.62-6.25,29.38-2.67,9.75-6.29,18.75-10.88,27-4.59,8.25-10.62,15.21-18.12,20.88l-16.25-11c6.83-5,12.41-11.25,16.75-18.75,4.33-7.5,7.79-15.66,10.38-24.5,2.58-8.83,4.46-17.83,5.62-27ZM195,46.75l20.25,8c-4,7.84-8.38,16-13.12,24.5s-9.5,16.71-14.25,24.62c-4.75,7.92-9.29,14.88-13.62,20.88l-15.75-7.5c4.16-6.16,8.54-13.33,13.12-21.5,4.58-8.16,8.91-16.54,13-25.12,4.08-8.58,7.54-16.54,10.38-23.88Z" style="fill: #231f20; stroke-width: 0px;"/>
</svg>