<?xml version="1.0" encoding="UTF-8"?>
<svg id="Layer_1" data-name="Layer 1" xmlns="http://www.w3.org/2000/svg" viewBox="0 0 224.75 226.5">
  <path d="M62.25,111.5l21,5.5c-5.17,13.84-11.29,27.46-18.38,40.88-7.09,13.42-14.54,26-22.38,37.75-7.84,11.75-15.92,22.04-24.25,30.88-1.34-1.17-3.12-2.59-5.38-4.25-2.25-1.67-4.54-3.29-6.88-4.88-2.34-1.59-4.34-2.88-6-3.88,8.33-8.16,16.38-17.75,24.12-28.75s14.88-22.75,21.38-35.25,12.08-25.16,16.75-38ZM4.5,57.75h219.75v19.25H4.5v-19.25ZM103.5,0h20v67.75h-20V0ZM144,119.5l18.5-7.5c6,8.17,12.08,16.88,18.25,26.12,6.16,9.25,12.08,18.59,17.75,28,5.66,9.42,10.75,18.5,15.25,27.25s8.16,16.71,11,23.88l-20.75,9c-2.34-7-5.71-14.88-10.12-23.62-4.42-8.75-9.34-17.96-14.75-27.62-5.42-9.66-11.12-19.25-17.12-28.75s-12-18.41-18-26.75Z" style="fill: #231f20; stroke-width: 0px;"/>
</svg>