<?xml version="1.0" encoding="UTF-8"?>
<svg id="Layer_1" data-name="Layer 1" xmlns="http://www.w3.org/2000/svg" viewBox="0 0 232.75 230">
  <path d="M68,67.5l18.5,5.5c-5.84,11.67-12.59,23-20.25,34-7.67,11-15.79,21.25-24.38,30.75-8.59,9.5-17.29,17.84-26.12,25-1.17-1.16-2.71-2.58-4.62-4.25-1.92-1.66-3.88-3.33-5.88-5-2-1.66-3.75-3-5.25-4,9-6.5,17.75-14.08,26.25-22.75,8.5-8.66,16.33-18.08,23.5-28.25,7.16-10.16,13.25-20.5,18.25-31ZM8.25,23h219.75v18H8.25v-18ZM47.25,114.75l18.25-18.25.25.25v133.25h-18.5v-115.25ZM68.5,0h18.25v67.5h-18.25V0ZM121,69.75h18.5v126.25c0,5.34.96,8.79,2.88,10.38,1.91,1.59,6.12,2.38,12.62,2.38h45.25c4,0,7-1,9-3s3.41-5.79,4.25-11.38c.83-5.58,1.5-13.71,2-24.38,1.5,1,3.25,2,5.25,3s4.08,1.88,6.25,2.62c2.16.75,4.08,1.38,5.75,1.88-.84,12.5-2.21,22.34-4.12,29.5-1.92,7.16-5,12.16-9.25,15-4.25,2.83-10.29,4.25-18.12,4.25h-47.75c-8.5,0-15.09-.88-19.75-2.62-4.67-1.75-7.96-4.84-9.88-9.25-1.92-4.41-2.88-10.54-2.88-18.38v-126.25ZM208,91.25l14.25,14.5c-7.67,5-16.42,10.04-26.25,15.12-9.84,5.09-20.04,9.96-30.62,14.62-10.59,4.67-20.88,9.09-30.88,13.25-.5-2-1.46-4.38-2.88-7.12-1.42-2.75-2.79-5.04-4.12-6.88,9.83-4,19.71-8.46,29.62-13.38,9.91-4.91,19.33-9.96,28.25-15.12,8.91-5.16,16.46-10.16,22.62-15ZM150.25,0h18.75v68.75h-18.75V0Z" style="fill: #231f20; stroke-width: 0px;"/>
</svg>