<?xml version="1.0" encoding="UTF-8"?>
<svg id="Layer_1" data-name="Layer 1" xmlns="http://www.w3.org/2000/svg" viewBox="0 0 201.75 190.75">
  <path d="M201.75,12.5c-1,1.17-2.12,2.59-3.38,4.25-1.25,1.67-2.38,3.25-3.38,4.75-3.17,5.67-7.88,12.62-14.12,20.88s-13.46,16.67-21.62,25.25c-8.17,8.59-17,16.21-26.5,22.88l-16.5-13.25c5.83-3.33,11.54-7.38,17.12-12.12,5.58-4.75,10.83-9.75,15.75-15,4.91-5.25,9.25-10.41,13-15.5,3.75-5.08,6.71-9.54,8.88-13.38H28.5c-4.67,0-9.34.12-14,.38-4.67.25-9.5.62-14.5,1.12V0c4.33.67,9,1.21,14,1.62,5,.42,9.83.62,14.5.62h143.5c1.66,0,3.62-.04,5.88-.12,2.25-.08,4.46-.29,6.62-.62,2.16-.33,3.83-.58,5-.75l12.25,11.75ZM102,45.5c0,13.5-.42,26.17-1.25,38-.84,11.84-2.5,22.92-5,33.25-2.5,10.34-6.29,19.88-11.38,28.62-5.09,8.75-11.88,16.92-20.38,24.5-8.5,7.59-19.09,14.54-31.75,20.88l-18.5-15c3.5-1.16,7.25-2.71,11.25-4.62,4-1.91,7.75-4.12,11.25-6.62,9.83-5.83,17.66-12.41,23.5-19.75,5.83-7.33,10.21-15.29,13.12-23.88,2.91-8.58,4.91-17.66,6-27.25,1.08-9.58,1.62-19.54,1.62-29.88,0-3.16-.04-6.16-.12-9-.09-2.83-.38-5.91-.88-9.25h22.5Z" style="fill: #231f20; stroke-width: 0px;"/>
</svg>