<?xml version="1.0" encoding="UTF-8"?>
<svg id="Layer_1" data-name="Layer 1" xmlns="http://www.w3.org/2000/svg" viewBox="0 0 223.75 206.5">
  <path d="M38.5,129.5c2.66-6.5,5.29-13.58,7.88-21.25,2.58-7.66,5-15.62,7.25-23.88s4.21-16.41,5.88-24.5c1.66-8.08,2.83-15.79,3.5-23.12l22.25,4.75c-.34,1.84-.84,3.79-1.5,5.88-.67,2.09-1.25,4.21-1.75,6.38-.5,2.17-.92,4.17-1.25,6-.84,3.84-2,8.84-3.5,15-1.5,6.17-3.25,12.92-5.25,20.25-2,7.34-4.17,14.71-6.5,22.12-2.34,7.42-4.84,14.29-7.5,20.62-3,7.67-6.46,15.54-10.38,23.62-3.92,8.09-8.12,15.96-12.62,23.62-4.5,7.67-9.09,14.84-13.75,21.5L0,197.5c7.83-10.5,15.12-21.88,21.88-34.12s12.29-23.54,16.62-33.88ZM161.5,120c-2.5-6.5-5.25-13.33-8.25-20.5-3-7.16-6.17-14.38-9.5-21.62-3.34-7.25-6.54-14.08-9.62-20.5-3.09-6.41-6.04-11.88-8.88-16.38l20.25-6.75c2.5,4.34,5.29,9.67,8.38,16,3.08,6.34,6.29,13.09,9.62,20.25,3.33,7.17,6.58,14.42,9.75,21.75,3.16,7.34,6.08,14.34,8.75,21,2.5,6.17,5.16,13.04,8,20.62,2.83,7.59,5.62,15.25,8.38,23s5.29,15.25,7.62,22.5c2.33,7.25,4.33,13.71,6,19.38l-22.25,7.25c-2-8.5-4.54-17.71-7.62-27.62-3.09-9.91-6.38-19.91-9.88-30-3.5-10.08-7.09-19.54-10.75-28.38ZM175.25,10c2.16,2.84,4.5,6.29,7,10.38,2.5,4.09,4.96,8.21,7.38,12.38,2.41,4.17,4.46,8,6.12,11.5l-13.5,6c-2.5-5.16-5.67-11.04-9.5-17.62-3.84-6.58-7.42-12.29-10.75-17.12l13.25-5.5ZM202.75,0c2.33,3,4.79,6.59,7.38,10.75,2.58,4.17,5.12,8.29,7.62,12.38,2.5,4.09,4.5,7.71,6,10.88l-13.5,6c-2.67-5.5-5.88-11.46-9.62-17.88-3.75-6.41-7.46-11.96-11.12-16.62l13.25-5.5Z" style="fill: #231f20; stroke-width: 0px;"/>
</svg>