<?xml version="1.0" encoding="UTF-8"?>
<svg id="Layer_1" data-name="Layer 1" xmlns="http://www.w3.org/2000/svg" viewBox="0 0 221.5 175.25">
  <path d="M0,116.5c3.33-2.83,6.29-5.5,8.88-8,2.58-2.5,5.54-5.41,8.88-8.75,3-3,6.46-6.83,10.38-11.5,3.91-4.66,8.16-9.71,12.75-15.12,4.58-5.41,9.12-10.91,13.62-16.5,4.5-5.58,8.66-10.62,12.5-15.12,6.66-7.83,13.25-12.21,19.75-13.12,6.5-.91,14,2.62,22.5,10.62,5.16,4.67,10.79,10.12,16.88,16.38,6.08,6.25,12.12,12.54,18.12,18.88,6,6.34,11.41,12.09,16.25,17.25,5.66,5.84,12,12.54,19,20.12,7,7.59,14.16,15.34,21.5,23.25,7.33,7.92,14.16,15.29,20.5,22.12l-17.25,18.25c-5.84-7.16-12.04-14.62-18.62-22.38-6.59-7.75-13.09-15.33-19.5-22.75-6.42-7.41-12.29-14.12-17.62-20.12-3.67-4.16-7.75-8.66-12.25-13.5-4.5-4.83-9-9.66-13.5-14.5-4.5-4.83-8.71-9.33-12.62-13.5-3.92-4.16-7.21-7.5-9.88-10-4.84-4.66-8.79-6.83-11.88-6.5-3.09.34-6.79,3.09-11.12,8.25-3,3.67-6.42,7.96-10.25,12.88-3.84,4.92-7.84,10.04-12,15.38-4.17,5.34-8.17,10.42-12,15.25-3.84,4.84-7.17,9-10,12.5-2.5,3.17-5.04,6.5-7.62,10-2.59,3.5-4.79,6.59-6.62,9.25L0,116.5ZM159.5,12.75c2.16,3,4.71,6.84,7.62,11.5,2.91,4.67,5.83,9.5,8.75,14.5,2.91,5,5.38,9.5,7.38,13.5l-14.75,6.75c-2.17-4.5-4.5-9.08-7-13.75-2.5-4.66-5.12-9.29-7.88-13.88-2.75-4.58-5.54-8.79-8.38-12.62l14.25-6ZM191.5,0c2.33,2.84,5,6.59,8,11.25,3,4.67,6,9.5,9,14.5s5.5,9.42,7.5,13.25l-14.5,7c-2-4.5-4.34-9.04-7-13.62-2.67-4.58-5.46-9.12-8.38-13.62-2.92-4.5-5.79-8.58-8.62-12.25l14-6.5Z" style="fill: #231f20; stroke-width: 0px;"/>
</svg>