<?xml version="1.0" encoding="UTF-8"?>
<svg id="Layer_1" data-name="Layer 1" xmlns="http://www.w3.org/2000/svg" viewBox="0 0 222.75 215.5">
  <path d="M65.25,113c-2.67,5.34-5.96,11.17-9.88,17.5-3.92,6.34-8.17,12.71-12.75,19.12-4.59,6.42-9.09,12.38-13.5,17.88-4.42,5.5-8.38,10.17-11.88,14L0,170c4.16-3.83,8.5-8.46,13-13.88,4.5-5.41,8.96-11.12,13.38-17.12,4.41-6,8.46-11.96,12.12-17.88,3.66-5.91,6.75-11.46,9.25-16.62l17.5,8.5ZM7.75,54.25c3.5.34,6.91.62,10.25.88,3.33.25,7,.38,11,.38h155.75c3,0,6.38-.12,10.12-.38s7.21-.54,10.38-.88v20.75c-3.34-.16-6.79-.29-10.38-.38-3.59-.08-6.88-.12-9.88-.12H29c-3.67,0-7.29.04-10.88.12-3.59.09-7.04.29-10.38.62v-21ZM120.25,12c-.17,1.17-.38,2.84-.62,5-.25,2.17-.46,4.42-.62,6.75-.17,2.34-.25,4.42-.25,6.25v165.5c0,6.67-1.67,11.66-5,15-3.34,3.33-8.84,5-16.5,5-3.5,0-7.38-.09-11.62-.25-4.25-.17-8.46-.42-12.62-.75-4.17-.34-7.92-.59-11.25-.75l-1.75-20c5.5,1,10.83,1.75,16,2.25,5.16.5,9.41.75,12.75.75s5.75-.79,7.25-2.38c1.5-1.58,2.33-3.96,2.5-7.12V29.75c0-2.66-.21-5.83-.62-9.5-.42-3.66-.79-6.41-1.12-8.25h23.5ZM169.75,104.75c3.33,4,6.96,8.75,10.88,14.25,3.91,5.5,7.91,11.38,12,17.62,4.08,6.25,7.88,12.25,11.38,18s6.5,10.88,9,15.38l-18.5,10.25c-2.34-5-5.21-10.5-8.62-16.5-3.42-6-7.04-12.08-10.88-18.25-3.84-6.16-7.71-12-11.62-17.5-3.92-5.5-7.46-10.25-10.62-14.25l17-9ZM172.75,7.25c3.16,4.34,6.66,9.71,10.5,16.12,3.83,6.42,7,12.21,9.5,17.38l-13.5,6c-2.5-5.16-5.59-10.91-9.25-17.25-3.67-6.33-7.17-11.91-10.5-16.75l13.25-5.5ZM202.25,0c2.16,3.17,4.54,6.75,7.12,10.75,2.58,4,5.08,7.96,7.5,11.88,2.41,3.92,4.38,7.46,5.88,10.62l-13.5,6c-2.67-5.5-5.84-11.29-9.5-17.38-3.67-6.08-7.25-11.46-10.75-16.12l13.25-5.75Z" style="fill: #231f20; stroke-width: 0px;"/>
</svg>