<?xml version="1.0" encoding="UTF-8"?>
<svg id="Layer_1" data-name="Layer 1" xmlns="http://www.w3.org/2000/svg" viewBox="0 0 209 223">
  <path d="M179,51.5c-.84,1.67-1.54,3.54-2.12,5.62-.59,2.09-1.12,4.38-1.62,6.88-1.34,6.5-3.09,13.75-5.25,21.75-2.17,8-4.79,16.21-7.88,24.62-3.09,8.42-6.67,16.54-10.75,24.38-4.09,7.84-8.54,15-13.38,21.5-7.67,9.67-16.21,18.67-25.62,27-9.42,8.34-20.09,15.84-32,22.5-11.92,6.67-25.54,12.41-40.88,17.25l-17-18.75c16.16-4,30.21-9,42.12-15,11.91-6,22.38-12.79,31.38-20.38,9-7.58,17-15.79,24-24.62,6-7.66,11.21-16.29,15.62-25.88,4.41-9.58,8.08-19.25,11-29,2.91-9.75,4.96-18.62,6.12-26.62H24.75c-4.84,0-9.38.09-13.62.25-4.25.17-7.96.34-11.12.5v-22.25c2.33.34,4.88.62,7.62.88s5.66.46,8.75.62c3.08.17,5.96.25,8.62.25h125.25c2,0,4.16-.08,6.5-.25,2.33-.16,4.66-.5,7-1l15.25,9.75ZM156.5,6.5c2,2.84,4.25,6.25,6.75,10.25s4.91,7.96,7.25,11.88c2.33,3.92,4.25,7.54,5.75,10.88l-13.75,6c-1.67-3.33-3.62-7-5.88-11s-4.59-7.96-7-11.88c-2.42-3.91-4.71-7.38-6.88-10.38l13.75-5.75ZM188.5,0c2.16,2.84,4.5,6.21,7,10.12,2.5,3.92,4.96,7.92,7.38,12,2.41,4.09,4.46,7.71,6.12,10.88l-13.75,6c-2.84-5.16-6.09-10.91-9.75-17.25-3.67-6.33-7.25-11.66-10.75-16l13.75-5.75Z" style="fill: #231f20; stroke-width: 0px;"/>
</svg>