<?xml version="1.0" encoding="UTF-8"?>
<svg id="Layer_1" data-name="Layer 1" xmlns="http://www.w3.org/2000/svg" viewBox="0 0 206.25 202.25">
  <path d="M0,77.75c2.83.17,6.25.38,10.25.62s7.91.38,11.75.38h164.5c1.83,0,3.96-.04,6.38-.12,2.41-.08,4.83-.21,7.25-.38,2.41-.16,4.46-.33,6.12-.5v20.75c-2.67-.33-5.75-.58-9.25-.75-3.5-.16-6.84-.25-10-.25H22.5c-4,0-7.96.09-11.88.25-3.92.17-7.46.42-10.62.75v-20.75ZM19.5,18.25c6.33.17,14.38.21,24.12.12,9.75-.08,19.96-.5,30.62-1.25,10.66-.75,20.41-1.62,29.25-2.62,5.66-.83,11.62-1.79,17.88-2.88,6.25-1.08,12.33-2.29,18.25-3.62,5.91-1.33,11.38-2.66,16.38-4,5-1.33,9-2.66,12-4l13.25,17.25c-2.84.67-5.42,1.34-7.75,2-2.34.67-4.42,1.25-6.25,1.75-4.84,1.17-10.46,2.42-16.88,3.75-6.42,1.34-13.17,2.62-20.25,3.88-7.09,1.25-14.04,2.29-20.88,3.12-9.17,1.34-18.88,2.34-29.12,3-10.25.67-20.21,1.12-29.88,1.38-9.67.25-18.25.46-25.75.62l-5-18.5ZM33.5,188.5c14.33-6.66,26.21-14.66,35.62-24,9.41-9.33,16.46-20.5,21.12-33.5,4.66-13,7-28.08,7-45.25V29l20.25-2.75v59.25c0,17.67-2.12,33.62-6.38,47.88s-11.09,27.04-20.5,38.38c-9.42,11.34-21.88,21.5-37.38,30.5l-19.75-13.75Z" style="fill: #231f20; stroke-width: 0px;"/>
</svg>