<?xml version="1.0" encoding="UTF-8"?>
<svg id="Layer_1" data-name="Layer 1" xmlns="http://www.w3.org/2000/svg" viewBox="0 0 224.75 228.5">
  <path d="M111,21c-2.17,3.34-4.25,6.88-6.25,10.62s-3.67,6.79-5,9.12c-5,9-11.42,19-19.25,30-7.84,11-17.09,21.92-27.75,32.75-10.67,10.84-22.67,20.84-36,30L0,120.75c14.33-9,26.79-18.79,37.38-29.38s19.41-20.96,26.5-31.12c7.08-10.16,12.54-19.08,16.38-26.75,1.33-2.16,2.83-5.16,4.5-9,1.66-3.83,2.83-7.41,3.5-10.75l22.75,7.25ZM195.25,57.25c-1.17,1.67-2.25,3.79-3.25,6.38-1,2.59-1.84,4.88-2.5,6.88-2.5,8.5-5.88,17.67-10.12,27.5-4.25,9.84-9.34,19.75-15.25,29.75-5.92,10-12.54,19.5-19.88,28.5-11.34,14-25.38,27.34-42.12,40-16.75,12.67-36.96,23.41-60.62,32.25l-18-15.75c15.66-4.66,29.83-10.58,42.5-17.75,12.66-7.16,24.08-15,34.25-23.5,10.16-8.5,19-17.16,26.5-26,6.5-7.83,12.46-16.29,17.88-25.38,5.41-9.08,10.12-18.21,14.12-27.38,4-9.16,6.91-17.58,8.75-25.25h-92.75l8.25-18h79.25c3.33,0,6.41-.21,9.25-.62,2.83-.41,5.25-.96,7.25-1.62l16.5,10ZM80.75,102.75c8.16,4.67,16.62,9.84,25.38,15.5,8.75,5.67,17.54,11.59,26.38,17.75,8.83,6.17,17.21,12.17,25.12,18,7.91,5.84,14.96,11.25,21.12,16.25l-14.75,17.25c-5.67-5.16-12.42-10.88-20.25-17.12-7.84-6.25-16.21-12.58-25.12-19-8.92-6.41-17.79-12.58-26.62-18.5-8.84-5.91-17.09-11.29-24.75-16.12l13.5-14ZM176.25,10c2.16,2.84,4.5,6.29,7,10.38,2.5,4.09,4.91,8.21,7.25,12.38,2.33,4.17,4.41,8,6.25,11.5l-13.5,6c-2.5-5-5.67-10.83-9.5-17.5-3.84-6.66-7.42-12.33-10.75-17l13.25-5.75ZM203.75,0c2.16,3,4.54,6.59,7.12,10.75,2.58,4.17,5.12,8.29,7.62,12.38,2.5,4.09,4.58,7.71,6.25,10.88l-13.5,6c-2.67-5.5-5.92-11.46-9.75-17.88-3.84-6.41-7.5-11.96-11-16.62l13.25-5.5Z" style="fill: #231f20; stroke-width: 0px;"/>
</svg>