<?xml version="1.0" encoding="UTF-8"?>
<svg id="Layer_1" data-name="Layer 1" xmlns="http://www.w3.org/2000/svg" viewBox="0 0 223.5 227.25">
  <path d="M0,93c3.33.34,6.79.62,10.38.88,3.58.25,7.29.38,11.12.38h163.75c2.66,0,5.83-.08,9.5-.25,3.66-.16,7-.5,10-1v20.75c-2.67-.16-5.79-.29-9.38-.38-3.59-.08-6.96-.12-10.12-.12H10.5c-3.67,0-7.17.17-10.5.5v-20.75ZM29.5,30.25c3.66.34,7.38.67,11.12,1,3.75.34,7.62.5,11.62.5h86.5c3.5,0,7.38-.12,11.62-.38s8.12-.62,11.62-1.12v20.75c-3.67-.33-7.54-.54-11.62-.62-4.09-.08-7.96-.12-11.62-.12H52.5c-4.17,0-8.21.04-12.12.12-3.92.09-7.54.29-10.88.62v-20.75ZM117.5,103.25c0,15.67-1.12,30.04-3.38,43.12-2.25,13.09-6.12,24.88-11.62,35.38-3,5.5-7.04,11.04-12.12,16.62-5.09,5.59-10.75,10.88-17,15.88s-12.96,9.33-20.12,13l-18.5-13.75c9.66-4,18.75-9.41,27.25-16.25,8.5-6.83,15.16-14.16,20-22,6.33-10,10.33-21.04,12-33.12,1.66-12.08,2.5-25.04,2.5-38.88h21ZM175,10c2.16,2.84,4.5,6.29,7,10.38,2.5,4.09,4.96,8.21,7.38,12.38,2.41,4.17,4.46,8,6.12,11.5l-13.5,6c-2.5-5.16-5.67-11.04-9.5-17.62-3.84-6.58-7.42-12.29-10.75-17.12l13.25-5.5ZM202.5,0c2.16,3,4.58,6.59,7.25,10.75,2.66,4.17,5.25,8.29,7.75,12.38,2.5,4.09,4.5,7.71,6,10.88l-13.5,6c-2.67-5.5-5.88-11.46-9.62-17.88-3.75-6.41-7.46-11.96-11.12-16.62l13.25-5.5Z" style="fill: #231f20; stroke-width: 0px;"/>
</svg>