<?xml version="1.0" encoding="UTF-8"?>
<svg id="Layer_1" data-name="Layer 1" xmlns="http://www.w3.org/2000/svg" viewBox="0 0 143.5 203.25">
  <path d="M2,173.75V28.25c0-3.5-.12-7.75-.38-12.75S.83,6.09,0,2.25h24.75c-.5,3.84-.92,8.21-1.25,13.12-.34,4.92-.5,9.21-.5,12.88v145.5c0,2.5.04,5.59.12,9.25.08,3.67.29,7.29.62,10.88.33,3.58.58,6.71.75,9.38H.5c.5-4,.88-8.75,1.12-14.25s.38-10.58.38-15.25ZM18.5,67.75c8.16,2.5,17.25,5.46,27.25,8.88,10,3.42,20.12,7.04,30.38,10.88,10.25,3.84,20,7.71,29.25,11.62,9.25,3.92,17.38,7.62,24.38,11.12l-8.75,21.25c-7.17-3.83-15.21-7.75-24.12-11.75-8.92-4-18.12-7.91-27.62-11.75-9.5-3.83-18.62-7.25-27.38-10.25s-16.54-5.58-23.38-7.75v-22.25ZM89.75,12.5c2.16,3,4.66,6.71,7.5,11.12,2.83,4.42,5.62,8.96,8.38,13.62,2.75,4.67,5.04,9,6.88,13l-14.25,6.5c-2-4.33-4.21-8.71-6.62-13.12-2.42-4.41-4.92-8.75-7.5-13-2.59-4.25-5.29-8.21-8.12-11.88l13.75-6.25ZM120,0c2.16,2.84,4.71,6.42,7.62,10.75,2.91,4.34,5.79,8.84,8.62,13.5,2.83,4.67,5.25,8.92,7.25,12.75l-14,7c-2.17-4.33-4.5-8.66-7-13-2.5-4.33-5.12-8.58-7.88-12.75-2.75-4.16-5.54-8.08-8.38-11.75l13.75-6.5Z" style="fill: #231f20; stroke-width: 0px;"/>
</svg>