<?xml version="1.0" encoding="UTF-8"?>
<svg id="Layer_1" data-name="Layer 1" xmlns="http://www.w3.org/2000/svg" viewBox="0 0 219.25 227.75">
  <path d="M19.75,46.75c1.5,3.5,3.54,8.21,6.12,14.12,2.58,5.92,5.29,12.29,8.12,19.12,2.83,6.84,5.46,13.38,7.88,19.62,2.41,6.25,4.38,11.46,5.88,15.62l-19.75,7.25c-1-3.16-2.38-7.16-4.12-12-1.75-4.83-3.75-10.08-6-15.75-2.25-5.66-4.54-11.21-6.88-16.62-2.34-5.41-4.46-10.29-6.38-14.62-1.92-4.33-3.46-7.58-4.62-9.75l19.75-7ZM197.75,59.5c-.84,2.17-1.62,4.59-2.38,7.25-.75,2.67-1.46,5-2.12,7-3.84,13.34-8.67,26.92-14.5,40.75-5.84,13.84-13.92,27.59-24.25,41.25-8.67,11.17-18.38,21.46-29.12,30.88-10.75,9.42-21.96,17.59-33.62,24.5-11.67,6.91-23.5,12.46-35.5,16.62l-17-17.25c12-3.5,23.91-8.41,35.75-14.75,11.83-6.33,23.12-13.88,33.88-22.62s20.21-18.46,28.38-29.12c6.83-8.66,12.79-18.08,17.88-28.25,5.08-10.16,9.29-20.5,12.62-31,3.33-10.5,5.75-20.75,7.25-30.75l22.75,5.5ZM89.5,31.75c1.33,3,3.16,7.38,5.5,13.12,2.33,5.75,4.79,12,7.38,18.75,2.58,6.75,4.96,13.17,7.12,19.25,2.16,6.09,3.75,10.88,4.75,14.38l-19.5,7c-1-3.66-2.54-8.5-4.62-14.5-2.09-6-4.34-12.33-6.75-19-2.42-6.66-4.79-12.96-7.12-18.88-2.34-5.91-4.34-10.46-6-13.62l19.25-6.5ZM167,7c2,2.84,4.25,6.25,6.75,10.25s4.96,8.04,7.38,12.12c2.41,4.09,4.46,7.79,6.12,11.12l-14,6c-1.67-3.5-3.67-7.29-6-11.38-2.34-4.08-4.71-8.08-7.12-12-2.42-3.91-4.71-7.38-6.88-10.38l13.75-5.75ZM198.5,0c2.16,2.84,4.5,6.21,7,10.12,2.5,3.92,4.96,7.88,7.38,11.88,2.41,4,4.54,7.67,6.38,11l-14,6c-2.84-5.16-6.09-10.96-9.75-17.38-3.67-6.41-7.25-11.71-10.75-15.88l13.75-5.75Z" style="fill: #231f20; stroke-width: 0px;"/>
</svg>