<?xml version="1.0" encoding="UTF-8"?>
<svg id="Layer_1" data-name="Layer 1" xmlns="http://www.w3.org/2000/svg" viewBox="0 0 418.25 211.5">
  <path d="M0,77.75c2.83.34,6.25.62,10.25.88s7.83.38,11.5.38h164.75c1.83,0,3.96-.04,6.38-.12,2.41-.08,4.79-.21,7.12-.38,2.33-.16,4.41-.33,6.25-.5v20.5c-2.84-.33-6-.54-9.5-.62-3.5-.08-6.84-.12-10-.12H22.25c-4,0-7.96.04-11.88.12-3.92.09-7.38.29-10.38.62v-20.75ZM19.5,18.5c6.16.17,14.12.17,23.88,0,9.75-.16,19.96-.58,30.62-1.25,10.66-.66,20.5-1.58,29.5-2.75,5.66-.83,11.58-1.75,17.75-2.75,6.16-1,12.25-2.16,18.25-3.5,6-1.33,11.46-2.71,16.38-4.12,4.91-1.41,8.88-2.79,11.88-4.12l13.25,17.5c-2.67.67-5.21,1.34-7.62,2-2.42.67-4.54,1.25-6.38,1.75-4.84,1.17-10.46,2.42-16.88,3.75-6.42,1.34-13.17,2.62-20.25,3.88-7.09,1.25-13.96,2.29-20.62,3.12-9.34,1.17-19.12,2.09-29.38,2.75-10.25.67-20.21,1.17-29.88,1.5-9.67.34-18.25.59-25.75.75l-4.75-18.5ZM33.5,188.75c14.16-6.66,25.96-14.66,35.38-24,9.41-9.33,16.5-20.5,21.25-33.5s7.12-28.08,7.12-45.25V29.25l20-2.75v59.25c0,17.67-2.12,33.62-6.38,47.88s-11.09,27-20.5,38.25c-9.42,11.25-21.88,21.38-37.38,30.38l-19.5-13.5ZM174.5,31.25c2.83,4.17,6.04,9.17,9.62,15,3.58,5.84,6.71,11.5,9.38,17l-13,6c-1.84-4-3.71-7.79-5.62-11.38-1.92-3.58-3.92-7.12-6-10.62-2.09-3.5-4.46-7-7.12-10.5l12.75-5.5ZM200.5,21.5c3.16,4,6.58,8.92,10.25,14.75,3.66,5.84,7,11.5,10,17l-13,6c-1.84-4-3.79-7.79-5.88-11.38-2.09-3.58-4.21-7.08-6.38-10.5-2.17-3.41-4.59-6.79-7.25-10.12l12.25-5.75Z" style="fill: #231f20; stroke-width: 0px;"/>
  <path d="M418.25,70.25c-2.5,5.34-5.88,11.34-10.12,18-4.25,6.67-8.92,13.42-14,20.25-5.09,6.84-10.17,13.29-15.25,19.38-5.09,6.09-9.71,11.21-13.88,15.38l-17.75-8.75c5.33-4.5,10.75-9.79,16.25-15.88,5.5-6.08,10.66-12.29,15.5-18.62,4.83-6.33,8.58-12,11.25-17-1.5.17-4.96.84-10.38,2-5.42,1.17-12.09,2.54-20,4.12-7.92,1.59-16.54,3.29-25.88,5.12-9.34,1.84-18.71,3.71-28.12,5.62-9.42,1.92-18.29,3.71-26.62,5.38-8.34,1.67-15.54,3.12-21.62,4.38-6.09,1.25-10.38,2.12-12.88,2.62l-5-19c3.5-.33,6.88-.71,10.12-1.12,3.25-.41,6.79-.96,10.62-1.62,1.66-.33,5.12-1,10.38-2s11.66-2.21,19.25-3.62c7.58-1.41,15.71-2.91,24.38-4.5,8.66-1.58,17.38-3.21,26.12-4.88,8.75-1.66,16.96-3.25,24.62-4.75,7.66-1.5,14.25-2.79,19.75-3.88,5.5-1.08,9.25-1.88,11.25-2.38,1.5-.33,3.12-.79,4.88-1.38,1.75-.58,3.29-1.12,4.62-1.62l12.5,8.75ZM298.25,36c.5,2.17,1.04,4.59,1.62,7.25.58,2.67,1.21,5.59,1.88,8.75,1,3.5,2.46,8.88,4.38,16.12,1.91,7.25,4.21,15.54,6.88,24.88,2.66,9.34,5.38,18.96,8.12,28.88,2.75,9.92,5.41,19.46,8,28.62,2.58,9.17,4.83,17.12,6.75,23.88,1.91,6.75,3.29,11.62,4.12,14.62.66,1.5,1.29,3.29,1.88,5.38.58,2.08,1.21,4.16,1.88,6.25.66,2.08,1.25,3.88,1.75,5.38l-21.25,5.5c-.34-2.84-.79-5.79-1.38-8.88-.59-3.09-1.38-6.21-2.38-9.38-.84-2.84-2.21-7.75-4.12-14.75-1.92-7-4.17-15.16-6.75-24.5-2.59-9.33-5.21-19-7.88-29-2.67-10-5.29-19.66-7.88-29-2.59-9.33-4.84-17.54-6.75-24.62-1.92-7.08-3.38-12.12-4.38-15.12-.84-3.16-1.75-6-2.75-8.5s-2.09-4.66-3.25-6.5l21.5-5.25Z" style="fill: #231f20; stroke-width: 0px;"/>
</svg>