<?xml version="1.0" encoding="UTF-8"?>
<svg id="Layer_1" data-name="Layer 1" xmlns="http://www.w3.org/2000/svg" viewBox="0 0 385 203">
  <path d="M0,77.75c2.83.34,6.25.62,10.25.88s7.83.38,11.5.38h164.75c1.83,0,3.96-.04,6.38-.12,2.41-.08,4.79-.21,7.12-.38,2.33-.16,4.41-.33,6.25-.5v20.5c-2.84-.33-6-.54-9.5-.62-3.5-.08-6.84-.12-10-.12H22.25c-4,0-7.96.04-11.88.12-3.92.09-7.38.29-10.38.62v-20.75ZM19.5,18.5c6.16.17,14.12.17,23.88,0,9.75-.16,19.96-.58,30.62-1.25,10.66-.66,20.5-1.58,29.5-2.75,5.66-.83,11.58-1.75,17.75-2.75,6.16-1,12.25-2.16,18.25-3.5,6-1.33,11.46-2.71,16.38-4.12,4.91-1.41,8.88-2.79,11.88-4.12l13.25,17.5c-2.67.67-5.21,1.34-7.62,2-2.42.67-4.54,1.25-6.38,1.75-4.84,1.17-10.46,2.42-16.88,3.75-6.42,1.34-13.17,2.62-20.25,3.88-7.09,1.25-13.96,2.29-20.62,3.12-9.34,1.17-19.12,2.09-29.38,2.75-10.25.67-20.21,1.17-29.88,1.5-9.67.34-18.25.59-25.75.75l-4.75-18.5ZM33.5,188.75c14.16-6.66,25.96-14.66,35.38-24,9.41-9.33,16.5-20.5,21.25-33.5s7.12-28.08,7.12-45.25V29.25l20-2.75v59.25c0,17.67-2.12,33.62-6.38,47.88s-11.09,27-20.5,38.25c-9.42,11.25-21.88,21.38-37.38,30.38l-19.5-13.5ZM174.5,31.25c2.83,4.17,6.04,9.17,9.62,15,3.58,5.84,6.71,11.5,9.38,17l-13,6c-1.84-4-3.71-7.79-5.62-11.38-1.92-3.58-3.92-7.12-6-10.62-2.09-3.5-4.46-7-7.12-10.5l12.75-5.5ZM200.5,21.5c3.16,4,6.58,8.92,10.25,14.75,3.66,5.84,7,11.5,10,17l-13,6c-1.84-4-3.79-7.79-5.88-11.38-2.09-3.58-4.21-7.08-6.38-10.5-2.17-3.41-4.59-6.79-7.25-10.12l12.25-5.75Z" style="fill: #231f20; stroke-width: 0px;"/>
  <path d="M244.25,173.5c2,.17,4.83.38,8.5.62,3.66.25,7.66.38,12,.38h110.5v18.5h-110.25c-4,0-7.96.08-11.88.25-3.92.16-6.88.25-8.88.25v-20ZM247.25,51.75c1.5.17,3.88.34,7.12.5,3.25.17,6.58.29,10,.38,3.41.09,6.21.12,8.38.12h96.75c2.83,0,5.66-.04,8.5-.12,2.83-.08,5.08-.21,6.75-.38-.17,1.34-.25,3.21-.25,5.62v131.62c0,2,.04,4.29.12,6.88.08,2.58.21,4.79.38,6.62h-19.75c.16-1.5.25-3.59.25-6.25v-126.25h-92.75c-2.17,0-4.96.04-8.38.12-3.42.09-6.75.21-10,.38-3.25.17-5.62.25-7.12.25v-19.5ZM252.75,111.25c2.5.17,5.79.34,9.88.5,4.08.17,8.21.25,12.38.25h100.25v18h-100c-4.34,0-8.54.04-12.62.12-4.09.09-7.38.21-9.88.38v-19.25Z" style="fill: #231f20; stroke-width: 0px;"/>
</svg>