<?xml version="1.0" encoding="UTF-8"?>
<svg id="Layer_1" data-name="Layer 1" xmlns="http://www.w3.org/2000/svg" viewBox="0 0 208 157.25">
  <path d="M0,134.5c3.66.5,7.38.88,11.12,1.12s7.38.38,10.88.38h165.25c3.83,0,7.46-.16,10.88-.5,3.41-.33,6.71-.66,9.88-1v22.75c-3.34-.33-7-.58-11-.75-4-.16-7.25-.25-9.75-.25H22c-3.34,0-6.88.09-10.62.25-3.75.17-7.54.42-11.38.75v-22.75ZM15.25,0c3.33.5,7.04.88,11.12,1.12,4.08.25,7.38.38,9.88.38h137.5c3.83,0,7.58-.16,11.25-.5,3.66-.33,7-.66,10-1v22c-3.17-.33-6.62-.58-10.38-.75-3.75-.16-7.38-.25-10.88-.25H36.25c-2.34,0-5.62.09-9.88.25-4.25.17-7.96.42-11.12.75V0ZM92.5,146.75V12.5h21.25v134.25h-21.25Z" style="fill: #231f20; stroke-width: 0px;"/>
</svg>