<?xml version="1.0" encoding="UTF-8"?>
<svg id="Layer_1" data-name="Layer 1" xmlns="http://www.w3.org/2000/svg" viewBox="0 0 214.25 215.5">
  <path d="M99.75,12.25c-.34,2.67-.62,5.96-.88,9.88-.25,3.92-.46,7.38-.62,10.38-.67,25.5-2.92,47.79-6.75,66.88-3.84,19.09-9.12,35.75-15.88,50s-14.92,26.71-24.5,37.38c-9.59,10.67-20.54,20.25-32.88,28.75L0,200.75c4-2.16,8.33-4.88,13-8.12,4.66-3.25,8.91-6.71,12.75-10.38,7.83-7,14.88-15.04,21.12-24.12,6.25-9.08,11.66-19.58,16.25-31.5,4.58-11.91,8.16-25.58,10.75-41,2.58-15.41,3.96-32.96,4.12-52.62,0-2-.09-4.25-.25-6.75-.17-2.5-.38-5-.62-7.5s-.54-4.66-.88-6.5h23.5ZM186.5,64c-.34,2.17-.62,4.34-.88,6.5-.25,2.17-.38,4.09-.38,5.75-.17,4.84-.46,11.29-.88,19.38-.42,8.09-1,16.96-1.75,26.62-.75,9.67-1.67,19.29-2.75,28.88-1.09,9.59-2.46,18.42-4.12,26.5-1.67,8.09-3.59,14.54-5.75,19.38-2.5,5.34-5.88,9.21-10.12,11.62-4.25,2.41-9.79,3.62-16.62,3.62-6.34,0-13-.17-20-.5-7-.34-13.75-.75-20.25-1.25l-2.5-20.75c6.83.84,13.46,1.5,19.88,2,6.41.5,12.21.75,17.38.75,3.66,0,6.66-.58,9-1.75,2.33-1.16,4.16-3.25,5.5-6.25,2-4,3.66-9.33,5-16,1.33-6.66,2.5-14.12,3.5-22.38s1.83-16.66,2.5-25.25c.66-8.58,1.12-16.71,1.38-24.38.25-7.66.38-14.16.38-19.5H33.25c-5,0-9.92.04-14.75.12-4.84.09-9.5.38-14,.88v-21c4.33.34,9,.62,14,.88s9.83.38,14.5.38h123.5c3.33,0,6.29-.12,8.88-.38,2.58-.25,4.96-.54,7.12-.88l14,7ZM166,10c2.16,3,4.5,6.54,7,10.62,2.5,4.09,4.91,8.21,7.25,12.38,2.33,4.17,4.41,7.92,6.25,11.25l-13.5,6c-2.5-5-5.67-10.83-9.5-17.5-3.84-6.66-7.42-12.33-10.75-17l13.25-5.75ZM193.5,0c2.16,3.17,4.54,6.79,7.12,10.88,2.58,4.09,5.12,8.17,7.62,12.25,2.5,4.09,4.5,7.71,6,10.88l-13.25,6c-2.84-5.5-6.12-11.41-9.88-17.75-3.75-6.33-7.38-11.83-10.88-16.5l13.25-5.75Z" style="fill: #231f20; stroke-width: 0px;"/>
</svg>