<?xml version="1.0" encoding="UTF-8"?>
<svg id="Layer_1" data-name="Layer 1" xmlns="http://www.w3.org/2000/svg" viewBox="0 0 225.5 222.25">
  <path d="M86.5,19.25c-1.17,2.84-2.29,5.84-3.38,9-1.09,3.17-2.12,6-3.12,8.5-1.17,3.84-2.62,8-4.38,12.5s-3.62,9.12-5.62,13.88-4.17,9.46-6.5,14.12c-3.17,6.34-7.21,13.17-12.12,20.5-4.92,7.34-10.12,14.29-15.62,20.88-5.5,6.59-10.84,12.04-16,16.38L0,123.25c4.5-3.33,8.91-7.25,13.25-11.75,4.33-4.5,8.46-9.29,12.38-14.38,3.91-5.08,7.46-10,10.62-14.75,3.16-4.75,5.91-9.04,8.25-12.88,3.33-6.33,6.16-12.54,8.5-18.62,2.33-6.08,4.16-11.54,5.5-16.38,1-3.33,1.83-6.66,2.5-10,.66-3.33,1.08-6.66,1.25-10l24.25,4.75ZM146.75,72.75c-.5,19.17-2.62,36.46-6.38,51.88-3.75,15.42-8.88,29.12-15.38,41.12s-14.29,22.62-23.38,31.88c-9.09,9.25-19.21,17.46-30.38,24.62l-21.25-14.5c3.66-1.33,7.29-3.04,10.88-5.12,3.58-2.08,6.71-4.21,9.38-6.38,6.5-4.83,12.96-10.75,19.38-17.75,6.41-7,12.29-15.46,17.62-25.38,5.33-9.91,9.66-21.46,13-34.62,3.33-13.16,5.16-28.5,5.5-46l21,.25ZM55,62h133.75c3,0,6.71-.08,11.12-.25,4.41-.16,8.46-.5,12.12-1v21.5c-4-.33-8.17-.54-12.5-.62-4.34-.08-7.92-.12-10.75-.12H52.5l2.5-19.5ZM177,10c2.16,3,4.5,6.54,7,10.62,2.5,4.09,4.96,8.21,7.38,12.38,2.41,4.17,4.46,7.92,6.12,11.25l-13.5,6c-2.5-5-5.67-10.83-9.5-17.5-3.84-6.66-7.42-12.33-10.75-17l13.25-5.75ZM204.5,0c2.33,3.17,4.79,6.79,7.38,10.88,2.58,4.09,5.12,8.17,7.62,12.25,2.5,4.09,4.5,7.71,6,10.88l-13.5,6c-2.67-5.33-5.88-11.21-9.62-17.62-3.75-6.41-7.46-11.96-11.12-16.62l13.25-5.75Z" style="fill: #231f20; stroke-width: 0px;"/>
</svg>