<?xml version="1.0" encoding="UTF-8"?>
<svg id="Layer_1" data-name="Layer 1" xmlns="http://www.w3.org/2000/svg" viewBox="0 0 200.75 223.25">
  <path d="M0,187.5c3.16.34,7.29.67,12.38,1,5.08.34,10.21.5,15.38.5h134v20.25H28.25c-5,0-10.12.09-15.38.25-5.25.17-9.54.42-12.88.75v-22.75ZM3,49.5c4.33.5,9,.88,14,1.12s9.5.38,13.5.38h123c3.16,0,6.46-.04,9.88-.12,3.41-.08,6.38-.21,8.88-.38-.17,2.84-.34,6.04-.5,9.62-.17,3.59-.25,6.88-.25,9.88v129c0,4.5.12,9.17.38,14s.46,8.25.62,10.25h-22.5c0-2,.08-5.04.25-9.12.16-4.08.25-8.38.25-12.88V71H30.75c-4.67,0-9.71.09-15.12.25-5.42.17-9.62.34-12.62.5v-22.25ZM148.5,7.25c2,2.67,4.25,6.04,6.75,10.12,2.5,4.09,4.96,8.17,7.38,12.25,2.41,4.09,4.46,7.71,6.12,10.88l-14,6.25c-1.5-3.5-3.42-7.29-5.75-11.38-2.34-4.08-4.71-8.12-7.12-12.12-2.42-4-4.71-7.41-6.88-10.25l13.5-5.75ZM180.25,0c2,2.84,4.25,6.21,6.75,10.12,2.5,3.92,5,7.92,7.5,12,2.5,4.09,4.58,7.71,6.25,10.88l-14,6c-2.67-5.16-5.88-10.91-9.62-17.25-3.75-6.33-7.29-11.66-10.62-16l13.75-5.75Z" style="fill: #231f20; stroke-width: 0px;"/>
</svg>