<?xml version="1.0" encoding="UTF-8"?>
<svg id="Layer_1" data-name="Layer 1" xmlns="http://www.w3.org/2000/svg" viewBox="0 0 225.25 227.25">
  <path d="M109.5,22c-2,3.34-4,6.84-6,10.5-2,3.67-3.67,6.67-5,9-4.84,9.17-11,19.04-18.5,29.62-7.5,10.59-16.46,21.09-26.88,31.5s-22.29,20.04-35.62,28.88L0,118.75c10.83-6.5,20.54-13.46,29.12-20.88,8.58-7.41,16.08-14.96,22.5-22.62,6.41-7.66,11.88-15.04,16.38-22.12,4.5-7.08,8.08-13.38,10.75-18.88,1.33-2.16,2.79-5.21,4.38-9.12,1.58-3.91,2.71-7.54,3.38-10.88l23,7.75ZM193.25,59.75c-1,1.67-2,3.79-3,6.38-1,2.59-1.92,4.88-2.75,6.88-2.17,8.34-5.29,17.46-9.38,27.38-4.09,9.92-9.04,19.92-14.88,30-5.84,10.09-12.5,19.71-20,28.88-11.34,13.84-24.92,26.42-40.75,37.75-15.84,11.34-35.42,21.41-58.75,30.25l-18.25-16.5c15.33-4.5,29.08-9.96,41.25-16.38,12.16-6.41,23.12-13.54,32.88-21.38,9.75-7.83,18.38-16.16,25.88-25,6.5-7.66,12.41-16.08,17.75-25.25,5.33-9.16,9.96-18.38,13.88-27.62,3.91-9.25,6.62-17.62,8.12-25.12h-92.5l8-18h79.75c3.33,0,6.38-.16,9.12-.5,2.75-.33,5.12-.91,7.12-1.75l16.5,10ZM176.75,10c2.16,2.84,4.5,6.29,7,10.38,2.5,4.09,4.91,8.21,7.25,12.38,2.33,4.17,4.41,8,6.25,11.5l-13.5,6c-2.5-5-5.67-10.83-9.5-17.5-3.84-6.66-7.42-12.33-10.75-17l13.25-5.75ZM204.25,0c2.16,3,4.54,6.59,7.12,10.75,2.58,4.17,5.12,8.29,7.62,12.38,2.5,4.09,4.58,7.71,6.25,10.88l-13.5,6c-2.67-5.5-5.92-11.41-9.75-17.75-3.84-6.33-7.5-11.83-11-16.5l13.25-5.75Z" style="fill: #231f20; stroke-width: 0px;"/>
</svg>