<?xml version="1.0" encoding="UTF-8"?>
<svg id="Layer_1" data-name="Layer 1" xmlns="http://www.w3.org/2000/svg" viewBox="0 0 409.75 235.5">
  <path d="M0,148.75c3-.16,6.62-.46,10.88-.88,4.25-.41,7.96-.88,11.12-1.38,4.5-.5,10.58-1.33,18.25-2.5,7.66-1.16,16.29-2.54,25.88-4.12,9.58-1.58,19.46-3.16,29.62-4.75,10.16-1.58,20.08-3.25,29.75-5,9.66-1.75,18.54-3.29,26.62-4.62,8.08-1.33,14.62-2.41,19.62-3.25,4.83-1,9.04-1.88,12.62-2.62,3.58-.75,6.71-1.54,9.38-2.38l4.25,21c-2.67.17-5.92.59-9.75,1.25-3.84.67-8.09,1.42-12.75,2.25-5.67.84-12.62,1.92-20.88,3.25-8.25,1.34-17.21,2.79-26.88,4.38-9.67,1.59-19.54,3.17-29.62,4.75-10.09,1.59-19.75,3.17-29,4.75-9.25,1.59-17.59,2.96-25,4.12-7.42,1.17-13.21,2.17-17.38,3-5,.84-9.25,1.62-12.75,2.38s-6.67,1.54-9.5,2.38l-4.5-22ZM.75,76.75c3.16-.33,6.46-.62,9.88-.88,3.41-.25,7.12-.54,11.12-.88,3.66-.5,8.91-1.21,15.75-2.12,6.83-.91,14.58-2.04,23.25-3.38,8.66-1.33,17.62-2.71,26.88-4.12,9.25-1.41,18.21-2.88,26.88-4.38,8.66-1.5,16.46-2.83,23.38-4,6.91-1.16,12.38-2.16,16.38-3,3.66-.66,7.04-1.38,10.12-2.12,3.08-.75,5.71-1.38,7.88-1.88l4,21c-1.84.17-4.46.5-7.88,1-3.42.5-6.79,1-10.12,1.5-4.17.67-9.88,1.54-17.12,2.62-7.25,1.09-15.21,2.34-23.88,3.75-8.67,1.42-17.62,2.88-26.88,4.38s-18.17,2.92-26.75,4.25c-8.59,1.34-16.21,2.54-22.88,3.62-6.67,1.09-11.84,1.96-15.5,2.62-3.34.67-6.59,1.29-9.75,1.88-3.17.59-6.59,1.38-10.25,2.38L.75,76.75ZM71.25,40.5c-.67-3.16-1.38-6.16-2.12-9-.75-2.83-1.54-5.5-2.38-8l22.25-3.75c.33,2.17.71,4.88,1.12,8.12.41,3.25.88,6.29,1.38,9.12.33,1.5,1.04,5.34,2.12,11.5,1.08,6.17,2.54,13.84,4.38,23,1.83,9.17,3.79,19.09,5.88,29.75,2.08,10.67,4.21,21.38,6.38,32.12,2.16,10.75,4.21,20.88,6.12,30.38,1.91,9.5,3.58,17.62,5,24.38,1.41,6.75,2.29,11.29,2.62,13.62.83,3.5,1.79,7.25,2.88,11.25,1.08,4,2.21,7.83,3.38,11.5l-23,4.25c-.67-4.34-1.25-8.42-1.75-12.25s-1.17-7.58-2-11.25c-.34-2.16-1.12-6.58-2.38-13.25-1.25-6.66-2.75-14.66-4.5-24-1.75-9.33-3.71-19.38-5.88-30.12-2.17-10.75-4.29-21.46-6.38-32.12-2.09-10.66-4.04-20.58-5.88-29.75-1.84-9.16-3.38-16.88-4.62-23.12s-2.12-10.38-2.62-12.38ZM165.75,10c2.16,2.84,4.5,6.29,7,10.38,2.5,4.09,4.96,8.21,7.38,12.38,2.41,4.17,4.46,8,6.12,11.5l-13.5,6c-2.5-5.16-5.67-11.04-9.5-17.62-3.84-6.58-7.42-12.29-10.75-17.12l13.25-5.5ZM193.25,0c2.16,3,4.58,6.59,7.25,10.75,2.66,4.17,5.21,8.29,7.62,12.38,2.41,4.09,4.46,7.71,6.12,10.88l-13.5,6c-2.67-5.5-5.92-11.46-9.75-17.88-3.84-6.41-7.5-11.96-11-16.62l13.25-5.5Z" style="fill: #231f20; stroke-width: 0px;"/>
  <path d="M409.75,94.25c-2.5,5.34-5.88,11.34-10.12,18-4.25,6.67-8.92,13.42-14,20.25-5.09,6.84-10.17,13.29-15.25,19.38-5.09,6.09-9.71,11.21-13.88,15.38l-17.75-8.75c5.33-4.5,10.75-9.79,16.25-15.88,5.5-6.08,10.66-12.29,15.5-18.62,4.83-6.33,8.58-12,11.25-17-1.5.17-4.96.84-10.38,2-5.42,1.17-12.09,2.54-20,4.12-7.92,1.59-16.54,3.29-25.88,5.12-9.34,1.84-18.71,3.71-28.12,5.62-9.42,1.92-18.29,3.71-26.62,5.38-8.34,1.67-15.54,3.12-21.62,4.38-6.09,1.25-10.38,2.12-12.88,2.62l-5-19c3.5-.33,6.88-.71,10.12-1.12,3.25-.41,6.79-.96,10.62-1.62,1.66-.33,5.12-1,10.38-2s11.66-2.21,19.25-3.62c7.58-1.41,15.71-2.91,24.38-4.5,8.66-1.58,17.38-3.21,26.12-4.88,8.75-1.66,16.96-3.25,24.62-4.75,7.66-1.5,14.25-2.79,19.75-3.88,5.5-1.08,9.25-1.88,11.25-2.38,1.5-.33,3.12-.79,4.88-1.38,1.75-.58,3.29-1.12,4.62-1.62l12.5,8.75ZM289.75,60c.5,2.17,1.04,4.59,1.62,7.25.58,2.67,1.21,5.59,1.88,8.75,1,3.5,2.46,8.88,4.38,16.12,1.91,7.25,4.21,15.54,6.88,24.88,2.66,9.34,5.38,18.96,8.12,28.88,2.75,9.92,5.41,19.46,8,28.62,2.58,9.17,4.83,17.12,6.75,23.88,1.91,6.75,3.29,11.62,4.12,14.62.66,1.5,1.29,3.29,1.88,5.38.58,2.08,1.21,4.16,1.88,6.25.66,2.08,1.25,3.88,1.75,5.38l-21.25,5.5c-.34-2.84-.79-5.79-1.38-8.88-.59-3.09-1.38-6.21-2.38-9.38-.84-2.84-2.21-7.75-4.12-14.75-1.92-7-4.17-15.16-6.75-24.5-2.59-9.33-5.21-19-7.88-29-2.67-10-5.29-19.66-7.88-29-2.59-9.33-4.84-17.54-6.75-24.62-1.92-7.08-3.38-12.12-4.38-15.12-.84-3.16-1.75-6-2.75-8.5s-2.09-4.66-3.25-6.5l21.5-5.25Z" style="fill: #231f20; stroke-width: 0px;"/>
</svg>