<?xml version="1.0" encoding="UTF-8"?>
<svg id="Layer_1" data-name="Layer 1" xmlns="http://www.w3.org/2000/svg" viewBox="0 0 409.75 228.75">
  <path d="M0,148.75c3-.16,6.62-.46,10.88-.88,4.25-.41,7.96-.88,11.12-1.38,4.5-.5,10.58-1.33,18.25-2.5,7.66-1.16,16.29-2.54,25.88-4.12,9.58-1.58,19.46-3.16,29.62-4.75,10.16-1.58,20.08-3.25,29.75-5,9.66-1.75,18.54-3.29,26.62-4.62,8.08-1.33,14.62-2.41,19.62-3.25,4.83-1,9.04-1.88,12.62-2.62,3.58-.75,6.71-1.54,9.38-2.38l4.25,21c-2.67.17-5.92.59-9.75,1.25-3.84.67-8.09,1.42-12.75,2.25-5.67.84-12.62,1.92-20.88,3.25-8.25,1.34-17.21,2.79-26.88,4.38-9.67,1.59-19.54,3.17-29.62,4.75-10.09,1.59-19.75,3.17-29,4.75-9.25,1.59-17.59,2.96-25,4.12-7.42,1.17-13.21,2.17-17.38,3-5,.84-9.25,1.62-12.75,2.38s-6.67,1.54-9.5,2.38l-4.5-22ZM.75,76.75c3.16-.33,6.46-.62,9.88-.88,3.41-.25,7.12-.54,11.12-.88,3.66-.5,8.91-1.21,15.75-2.12,6.83-.91,14.58-2.04,23.25-3.38,8.66-1.33,17.62-2.71,26.88-4.12,9.25-1.41,18.21-2.88,26.88-4.38,8.66-1.5,16.46-2.83,23.38-4,6.91-1.16,12.38-2.16,16.38-3,3.66-.66,7.04-1.38,10.12-2.12,3.08-.75,5.71-1.38,7.88-1.88l4,21c-1.84.17-4.46.5-7.88,1-3.42.5-6.79,1-10.12,1.5-4.17.67-9.88,1.54-17.12,2.62-7.25,1.09-15.21,2.34-23.88,3.75-8.67,1.42-17.62,2.88-26.88,4.38s-18.17,2.92-26.75,4.25c-8.59,1.34-16.21,2.54-22.88,3.62-6.67,1.09-11.84,1.96-15.5,2.62-3.34.67-6.59,1.29-9.75,1.88-3.17.59-6.59,1.38-10.25,2.38L.75,76.75ZM71.25,40.5c-.67-3.16-1.38-6.16-2.12-9-.75-2.83-1.54-5.5-2.38-8l22.25-3.75c.33,2.17.71,4.88,1.12,8.12.41,3.25.88,6.29,1.38,9.12.33,1.5,1.04,5.34,2.12,11.5,1.08,6.17,2.54,13.84,4.38,23,1.83,9.17,3.79,19.09,5.88,29.75,2.08,10.67,4.21,21.38,6.38,32.12,2.16,10.75,4.21,20.88,6.12,30.38,1.91,9.5,3.58,17.62,5,24.38,1.41,6.75,2.29,11.29,2.62,13.62.83,3.5,1.79,7.25,2.88,11.25,1.08,4,2.21,7.83,3.38,11.5l-23,4.25c-.67-4.34-1.25-8.42-1.75-12.25s-1.17-7.58-2-11.25c-.34-2.16-1.12-6.58-2.38-13.25-1.25-6.66-2.75-14.66-4.5-24-1.75-9.33-3.71-19.38-5.88-30.12-2.17-10.75-4.29-21.46-6.38-32.12-2.09-10.66-4.04-20.58-5.88-29.75-1.84-9.16-3.38-16.88-4.62-23.12s-2.12-10.38-2.62-12.38ZM165.75,10c2.16,2.84,4.5,6.29,7,10.38,2.5,4.09,4.96,8.21,7.38,12.38,2.41,4.17,4.46,8,6.12,11.5l-13.5,6c-2.5-5.16-5.67-11.04-9.5-17.62-3.84-6.58-7.42-12.29-10.75-17.12l13.25-5.5ZM193.25,0c2.16,3,4.58,6.59,7.25,10.75,2.66,4.17,5.21,8.29,7.62,12.38,2.41,4.09,4.46,7.71,6.12,10.88l-13.5,6c-2.67-5.5-5.92-11.46-9.75-17.88-3.84-6.41-7.5-11.96-11-16.62l13.25-5.5Z" style="fill: #231f20; stroke-width: 0px;"/>
  <path d="M233,190.25c3,.17,6.25.38,9.75.62s7.16.38,11,.38h136.25c2.66,0,5.96-.08,9.88-.25,3.91-.16,7.21-.33,9.88-.5v20.25c-1.5-.16-3.42-.25-5.75-.25s-4.67-.04-7-.12c-2.34-.08-4.42-.12-6.25-.12h-137c-3.84,0-7.34.04-10.5.12-3.17.09-6.59.29-10.25.62v-20.75ZM380,94c-.34,1.17-.67,2.5-1,4-.34,1.5-.59,2.75-.75,3.75-.34,3.84-.96,9-1.88,15.5-.92,6.5-1.96,13.67-3.12,21.5-1.17,7.84-2.34,15.62-3.5,23.38-1.17,7.75-2.21,14.84-3.12,21.25-.92,6.42-1.71,11.38-2.38,14.88h-21.25c.66-2.83,1.46-7.21,2.38-13.12.91-5.91,2-12.62,3.25-20.12s2.38-15.04,3.38-22.62c1-7.58,1.88-14.5,2.62-20.75s1.21-11.04,1.38-14.38h-79.5c-3.67,0-7.12.09-10.38.25-3.25.17-6.46.34-9.62.5v-21c2,.34,4.12.59,6.38.75,2.25.17,4.54.34,6.88.5,2.33.17,4.5.25,6.5.25h76c1.5,0,3.04-.08,4.62-.25,1.58-.16,3.12-.38,4.62-.62s2.58-.54,3.25-.88l15.25,7.25Z" style="fill: #231f20; stroke-width: 0px;"/>
</svg>