<?xml version="1.0" encoding="UTF-8"?>
<svg id="Layer_1" data-name="Layer 1" xmlns="http://www.w3.org/2000/svg" viewBox="0 0 212.25 172.5">
  <path d="M38.5,95.5c2.83-6.5,5.54-13.58,8.12-21.25,2.58-7.66,4.96-15.66,7.12-24,2.16-8.33,4.08-16.54,5.75-24.62,1.66-8.08,2.91-15.71,3.75-22.88l22.25,4.5c-.5,1.84-1.04,3.84-1.62,6-.59,2.17-1.12,4.29-1.62,6.38-.5,2.09-1,4.04-1.5,5.88-.84,3.84-1.96,8.88-3.38,15.12-1.42,6.25-3.12,13-5.12,20.25s-4.17,14.62-6.5,22.12c-2.34,7.5-4.84,14.42-7.5,20.75-3,7.67-6.5,15.5-10.5,23.5s-8.25,15.88-12.75,23.62-9.09,14.96-13.75,21.62L0,163.5c8-10.5,15.38-21.88,22.12-34.12s12.21-23.54,16.38-33.88ZM161.75,86c-2.5-6.5-5.29-13.38-8.38-20.62-3.09-7.25-6.25-14.5-9.5-21.75s-6.42-14.04-9.5-20.38c-3.09-6.33-6.04-11.83-8.88-16.5l20.25-6.75c2.5,4.5,5.29,9.92,8.38,16.25,3.08,6.34,6.29,13.09,9.62,20.25,3.33,7.17,6.58,14.42,9.75,21.75,3.16,7.34,6.08,14.34,8.75,21,2.5,6,5.12,12.79,7.88,20.38,2.75,7.59,5.54,15.29,8.38,23.12,2.83,7.84,5.41,15.38,7.75,22.62,2.33,7.25,4.33,13.71,6,19.38l-22.25,7.25c-2-8.66-4.59-17.91-7.75-27.75-3.17-9.83-6.5-19.83-10-30-3.5-10.16-7-19.58-10.5-28.25Z" style="fill: #231f20; stroke-width: 0px;"/>
</svg>