<?xml version="1.0" encoding="UTF-8"?>
<svg id="Layer_1" data-name="Layer 1" xmlns="http://www.w3.org/2000/svg" viewBox="0 0 221.5 147.26">
  <path d="M0,88.26c3.33-2.66,6.29-5.29,8.88-7.88s5.54-5.46,8.88-8.62c3-3,6.46-6.83,10.38-11.5,3.91-4.66,8.16-9.75,12.75-15.25,4.58-5.5,9.12-11,13.62-16.5s8.66-10.58,12.5-15.25c6.66-7.83,13.25-12.21,19.75-13.12,6.5-.91,14,2.71,22.5,10.88,5,4.67,10.54,10.12,16.62,16.38,6.08,6.25,12.16,12.5,18.25,18.75,6.08,6.25,11.54,11.96,16.38,17.12,5.66,6,12,12.79,19,20.38,7,7.59,14.16,15.29,21.5,23.12,7.33,7.84,14.16,15.25,20.5,22.25l-17.25,18.25c-5.84-7.33-12.09-14.88-18.75-22.62-6.67-7.75-13.17-15.33-19.5-22.75-6.34-7.41-12.17-14.12-17.5-20.12-3.67-4-7.75-8.46-12.25-13.38-4.5-4.91-9-9.79-13.5-14.62-4.5-4.83-8.71-9.29-12.62-13.38-3.92-4.08-7.21-7.38-9.88-9.88-4.84-4.83-8.79-7.04-11.88-6.62-3.09.42-6.79,3.21-11.12,8.38-3,3.67-6.42,7.96-10.25,12.88-3.84,4.92-7.84,10-12,15.25-4.17,5.25-8.17,10.29-12,15.12-3.84,4.84-7.17,9-10,12.5-2.5,3.17-5.04,6.54-7.62,10.12-2.59,3.59-4.79,6.62-6.62,9.12L0,88.26Z" style="fill: #231f20; stroke-width: 0px;"/>
</svg>