<?xml version="1.0" encoding="UTF-8"?>
<svg id="Layer_1" data-name="Layer 1" xmlns="http://www.w3.org/2000/svg" viewBox="0 0 158 192.75">
  <path d="M23.25,0c-.34,2.84-.67,6.04-1,9.62-.34,3.59-.5,7.12-.5,10.62v132c0,6.34,1.41,10.71,4.25,13.12,2.83,2.42,7.25,4.21,13.25,5.38,4,.67,9,1.17,15,1.5,6,.34,12.08.5,18.25.5,6.5,0,13.62-.16,21.38-.5,7.75-.33,15.54-.83,23.38-1.5,7.83-.66,15.29-1.5,22.38-2.5,7.08-1,13.21-2.16,18.38-3.5v22.75c-7.17,1.17-15.79,2.12-25.88,2.88-10.09.75-20.46,1.34-31.12,1.75-10.67.41-20.5.62-29.5.62-7.5,0-14.75-.21-21.75-.62s-13.17-1.04-18.5-1.88c-9.5-1.66-16.84-4.96-22-9.88-5.17-4.91-7.75-12.46-7.75-22.62V20.25c0-2.33-.09-4.71-.25-7.12-.17-2.41-.34-4.79-.5-7.12C.58,3.67.33,1.67,0,0h23.25ZM12.75,78.75c7.5-1.66,15.88-3.75,25.12-6.25s18.79-5.25,28.62-8.25c9.83-3,19.38-6.12,28.62-9.38s17.46-6.46,24.62-9.62c3.83-1.66,7.54-3.41,11.12-5.25,3.58-1.83,7.21-3.91,10.88-6.25l8.75,20.25c-3.5,1.34-7.38,2.92-11.62,4.75-4.25,1.84-8.29,3.5-12.12,5-7.67,3.17-16.46,6.46-26.38,9.88-9.92,3.42-20.12,6.75-30.62,10s-20.67,6.25-30.5,9c-9.84,2.75-18.67,5.04-26.5,6.88v-20.75Z" style="fill: #231f20; stroke-width: 0px;"/>
</svg>