<?xml version="1.0" encoding="UTF-8"?>
<svg id="Layer_1" data-name="Layer 1" xmlns="http://www.w3.org/2000/svg" viewBox="0 0 213 203.25">
  <path d="M65.25,101c-2.67,5.34-5.96,11.17-9.88,17.5-3.92,6.34-8.17,12.67-12.75,19-4.59,6.34-9.09,12.29-13.5,17.88-4.42,5.59-8.38,10.29-11.88,14.12L0,157.75c4.16-3.83,8.54-8.41,13.12-13.75,4.58-5.33,9.04-11,13.38-17,4.33-6,8.33-12,12-18,3.66-6,6.75-11.5,9.25-16.5l17.5,8.5ZM7.75,42c3.66.5,7.12.88,10.38,1.12s6.88.38,10.88.38h155.75c3,0,6.38-.12,10.12-.38s7.21-.54,10.38-.88v20.75c-3.34-.33-6.75-.54-10.25-.62-3.5-.08-6.84-.12-10-.12H29.25c-3.84,0-7.5.09-11,.25-3.5.17-7,.42-10.5.75v-21.25ZM120.25,0c-.17,1.17-.38,2.79-.62,4.88-.25,2.09-.46,4.29-.62,6.62-.17,2.34-.25,4.42-.25,6.25v165.75c0,6.5-1.67,11.42-5,14.75-3.34,3.33-8.84,5-16.5,5-3.5,0-7.38-.09-11.62-.25-4.25-.17-8.46-.38-12.62-.62-4.17-.25-7.92-.54-11.25-.88l-1.75-19.75c5.5,1,10.88,1.71,16.12,2.12,5.25.42,9.46.62,12.62.62,3.5,0,6-.75,7.5-2.25s2.25-3.91,2.25-7.25V17.75c0-2.66-.17-5.83-.5-9.5-.34-3.66-.75-6.41-1.25-8.25h23.5ZM169.75,92.5c3.33,4,6.96,8.79,10.88,14.38,3.91,5.59,7.91,11.46,12,17.62,4.08,6.17,7.88,12.17,11.38,18,3.5,5.84,6.5,11,9,15.5l-18.5,10.25c-2.34-5-5.21-10.5-8.62-16.5-3.42-6-7.04-12.08-10.88-18.25-3.84-6.16-7.71-12-11.62-17.5-3.92-5.5-7.46-10.25-10.62-14.25l17-9.25Z" style="fill: #231f20; stroke-width: 0px;"/>
</svg>