<?xml version="1.0" encoding="UTF-8"?>
<svg id="Layer_1" data-name="Layer 1" xmlns="http://www.w3.org/2000/svg" viewBox="0 0 378.75 214.75">
  <path d="M23.25,0c-.34,2.84-.67,6.04-1,9.62-.34,3.59-.5,7.12-.5,10.62v132c0,6.34,1.41,10.71,4.25,13.12,2.83,2.42,7.25,4.21,13.25,5.38,4,.67,9,1.17,15,1.5,6,.34,12.08.5,18.25.5,6.5,0,13.62-.16,21.38-.5,7.75-.33,15.54-.83,23.38-1.5,7.83-.66,15.29-1.5,22.38-2.5,7.08-1,13.21-2.16,18.38-3.5v22.75c-7.17,1.17-15.79,2.12-25.88,2.88-10.09.75-20.46,1.34-31.12,1.75-10.67.41-20.5.62-29.5.62-7.5,0-14.75-.21-21.75-.62s-13.17-1.04-18.5-1.88c-9.5-1.66-16.84-4.96-22-9.88-5.17-4.91-7.75-12.46-7.75-22.62V20.25c0-2.33-.09-4.71-.25-7.12-.17-2.41-.34-4.79-.5-7.12C.58,3.67.33,1.67,0,0h23.25ZM12.75,78.75c7.5-1.66,15.88-3.75,25.12-6.25s18.79-5.25,28.62-8.25c9.83-3,19.38-6.12,28.62-9.38s17.46-6.46,24.62-9.62c3.83-1.66,7.54-3.41,11.12-5.25,3.58-1.83,7.21-3.91,10.88-6.25l8.75,20.25c-3.5,1.34-7.38,2.92-11.62,4.75-4.25,1.84-8.29,3.5-12.12,5-7.67,3.17-16.46,6.46-26.38,9.88-9.92,3.42-20.12,6.75-30.62,10s-20.67,6.25-30.5,9c-9.84,2.75-18.67,5.04-26.5,6.88v-20.75Z" style="fill: #231f20; stroke-width: 0px;"/>
  <path d="M378.75,73.5c-2.5,5.34-5.88,11.34-10.12,18-4.25,6.67-8.92,13.42-14,20.25-5.09,6.84-10.17,13.29-15.25,19.38-5.09,6.09-9.71,11.21-13.88,15.38l-17.75-8.75c5.33-4.5,10.75-9.79,16.25-15.88,5.5-6.08,10.66-12.29,15.5-18.62,4.83-6.33,8.58-12,11.25-17-1.5.17-4.96.84-10.38,2-5.42,1.17-12.09,2.54-20,4.12-7.92,1.59-16.54,3.29-25.88,5.12-9.34,1.84-18.71,3.71-28.12,5.62-9.42,1.92-18.29,3.71-26.62,5.38-8.34,1.67-15.54,3.12-21.62,4.38-6.09,1.25-10.38,2.12-12.88,2.62l-5-19c3.5-.33,6.88-.71,10.12-1.12,3.25-.41,6.79-.96,10.62-1.62,1.66-.33,5.12-1,10.38-2s11.66-2.21,19.25-3.62c7.58-1.41,15.71-2.91,24.38-4.5,8.66-1.58,17.38-3.21,26.12-4.88,8.75-1.66,16.96-3.25,24.62-4.75,7.66-1.5,14.25-2.79,19.75-3.88,5.5-1.08,9.25-1.88,11.25-2.38,1.5-.33,3.12-.79,4.88-1.38,1.75-.58,3.29-1.12,4.62-1.62l12.5,8.75ZM258.75,39.25c.5,2.17,1.04,4.59,1.62,7.25.58,2.67,1.21,5.59,1.88,8.75,1,3.5,2.46,8.88,4.38,16.12,1.91,7.25,4.21,15.54,6.88,24.88,2.66,9.34,5.38,18.96,8.12,28.88,2.75,9.92,5.41,19.46,8,28.62,2.58,9.17,4.83,17.12,6.75,23.88,1.91,6.75,3.29,11.62,4.12,14.62.66,1.5,1.29,3.29,1.88,5.38.58,2.08,1.21,4.16,1.88,6.25.66,2.08,1.25,3.88,1.75,5.38l-21.25,5.5c-.34-2.84-.79-5.79-1.38-8.88-.59-3.09-1.38-6.21-2.38-9.38-.84-2.84-2.21-7.75-4.12-14.75-1.92-7-4.17-15.16-6.75-24.5-2.59-9.33-5.21-19-7.88-29-2.67-10-5.29-19.66-7.88-29-2.59-9.33-4.84-17.54-6.75-24.62-1.92-7.08-3.38-12.12-4.38-15.12-.84-3.16-1.75-6-2.75-8.5s-2.09-4.66-3.25-6.5l21.5-5.25Z" style="fill: #231f20; stroke-width: 0px;"/>
</svg>