<?xml version="1.0" encoding="UTF-8"?>
<svg id="Layer_1" data-name="Layer 1" xmlns="http://www.w3.org/2000/svg" viewBox="0 0 378.75 192.75">
  <path d="M23.25,0c-.34,2.84-.67,6.04-1,9.62-.34,3.59-.5,7.12-.5,10.62v132c0,6.34,1.41,10.71,4.25,13.12,2.83,2.42,7.25,4.21,13.25,5.38,4,.67,9,1.17,15,1.5,6,.34,12.08.5,18.25.5,6.5,0,13.62-.16,21.38-.5,7.75-.33,15.54-.83,23.38-1.5,7.83-.66,15.29-1.5,22.38-2.5,7.08-1,13.21-2.16,18.38-3.5v22.75c-7.17,1.17-15.79,2.12-25.88,2.88-10.09.75-20.46,1.34-31.12,1.75-10.67.41-20.5.62-29.5.62-7.5,0-14.75-.21-21.75-.62s-13.17-1.04-18.5-1.88c-9.5-1.66-16.84-4.96-22-9.88-5.17-4.91-7.75-12.46-7.75-22.62V20.25c0-2.33-.09-4.71-.25-7.12-.17-2.41-.34-4.79-.5-7.12C.58,3.67.33,1.67,0,0h23.25ZM12.75,78.75c7.5-1.66,15.88-3.75,25.12-6.25s18.79-5.25,28.62-8.25c9.83-3,19.38-6.12,28.62-9.38s17.46-6.46,24.62-9.62c3.83-1.66,7.54-3.41,11.12-5.25,3.58-1.83,7.21-3.91,10.88-6.25l8.75,20.25c-3.5,1.34-7.38,2.92-11.62,4.75-4.25,1.84-8.29,3.5-12.12,5-7.67,3.17-16.46,6.46-26.38,9.88-9.92,3.42-20.12,6.75-30.62,10s-20.67,6.25-30.5,9c-9.84,2.75-18.67,5.04-26.5,6.88v-20.75Z" style="fill: #231f20; stroke-width: 0px;"/>
  <path d="M202,169.5c3,.17,6.25.38,9.75.62s7.16.38,11,.38h136.25c2.66,0,5.96-.08,9.88-.25,3.91-.16,7.21-.33,9.88-.5v20.25c-1.5-.16-3.42-.25-5.75-.25s-4.67-.04-7-.12c-2.34-.08-4.42-.12-6.25-.12h-137c-3.84,0-7.34.04-10.5.12-3.17.09-6.59.29-10.25.62v-20.75ZM349,73.25c-.34,1.17-.67,2.5-1,4-.34,1.5-.59,2.75-.75,3.75-.34,3.84-.96,9-1.88,15.5-.92,6.5-1.96,13.67-3.12,21.5-1.17,7.84-2.34,15.62-3.5,23.38-1.17,7.75-2.21,14.84-3.12,21.25-.92,6.42-1.71,11.38-2.38,14.88h-21.25c.66-2.83,1.46-7.21,2.38-13.12.91-5.91,2-12.62,3.25-20.12s2.38-15.04,3.38-22.62c1-7.58,1.88-14.5,2.62-20.75s1.21-11.04,1.38-14.38h-79.5c-3.67,0-7.12.09-10.38.25-3.25.17-6.46.34-9.62.5v-21c2,.34,4.12.59,6.38.75,2.25.17,4.54.34,6.88.5,2.33.17,4.5.25,6.5.25h76c1.5,0,3.04-.08,4.62-.25,1.58-.16,3.12-.38,4.62-.62s2.58-.54,3.25-.88l15.25,7.25Z" style="fill: #231f20; stroke-width: 0px;"/>
</svg>