<?xml version="1.0" encoding="UTF-8"?>
<svg id="Layer_1" data-name="Layer 1" xmlns="http://www.w3.org/2000/svg" viewBox="0 0 194.25 203.5">
  <path d="M0,105.5c21.66-5.83,41.83-12.91,60.5-21.25,18.66-8.33,34.91-16.83,48.75-25.5,8.66-5.5,17.12-11.46,25.38-17.88,8.25-6.41,16.04-13.12,23.38-20.12,7.33-7,13.83-13.91,19.5-20.75l16.75,15.5c-7,7.5-14.59,14.84-22.75,22-8.17,7.17-16.79,14.04-25.88,20.62-9.09,6.59-18.54,12.96-28.38,19.12-9.17,5.5-19.5,11.17-31,17-11.5,5.84-23.75,11.34-36.75,16.5-13,5.17-26.17,9.92-39.5,14.25L0,105.5ZM105.25,69.25l21.5-6.5v114c0,3.17.04,6.5.12,10,.08,3.5.25,6.75.5,9.75s.54,5.33.88,7h-24.5c.16-1.67.38-4,.62-7s.46-6.25.62-9.75c.16-3.5.25-6.83.25-10v-107.5Z" style="fill: #231f20; stroke-width: 0px;"/>
</svg>