<?xml version="1.0" encoding="UTF-8"?>
<svg id="Layer_1" data-name="Layer 1" xmlns="http://www.w3.org/2000/svg" viewBox="0 0 402.26 221">
  <path d="M11.25,64.5c3.66,2,8.08,4.5,13.25,7.5,5.16,3,10.41,6.17,15.75,9.5,5.33,3.34,10.29,6.46,14.88,9.38,4.58,2.92,8.21,5.38,10.88,7.38l-11.25,17.5c-3.17-2.33-7.04-5-11.62-8-4.59-3-9.46-6.16-14.62-9.5-5.17-3.33-10.25-6.46-15.25-9.38-5-2.91-9.42-5.38-13.25-7.38l11.25-17ZM11.5,187c9.16-1.66,18.58-3.83,28.25-6.5,9.66-2.66,19.25-5.91,28.75-9.75,9.5-3.83,18.41-8.08,26.75-12.75,13.83-8,26.66-16.88,38.5-26.62,11.83-9.75,22.5-20.12,32-31.12s17.58-22.33,24.25-34l12,20.75c-10.84,16.67-24.59,32.79-41.25,48.38-16.67,15.59-35,29.21-55,40.88-8.34,4.84-17.46,9.29-27.38,13.38-9.92,4.09-19.67,7.67-29.25,10.75-9.59,3.08-18.29,5.38-26.12,6.88l-11.5-20.25ZM49,8.25c3.66,2,8,4.62,13,7.88s10.16,6.59,15.5,10c5.33,3.42,10.29,6.67,14.88,9.75,4.58,3.09,8.21,5.62,10.88,7.62l-11.75,17.25c-3-2.33-6.79-5.08-11.38-8.25-4.59-3.16-9.42-6.46-14.5-9.88-5.09-3.41-10.09-6.66-15-9.75-4.92-3.08-9.21-5.71-12.88-7.88l11.25-16.75ZM155.75,12c2.16,2.84,4.71,6.59,7.62,11.25,2.91,4.67,5.79,9.42,8.62,14.25,2.83,4.84,5.16,9.25,7,13.25l-14.25,6.5c-2-4.33-4.25-8.79-6.75-13.38-2.5-4.58-5.09-9.12-7.75-13.62-2.67-4.5-5.42-8.66-8.25-12.5l13.75-5.75ZM188.5,0c2.33,2.84,4.91,6.5,7.75,11,2.83,4.5,5.75,9.17,8.75,14,3,4.84,5.5,9.25,7.5,13.25l-14.25,6.5c-2.17-4.5-4.59-9-7.25-13.5-2.67-4.5-5.38-8.91-8.12-13.25-2.75-4.33-5.54-8.33-8.38-12l14-6Z" style="fill: #231f20; stroke-width: 0px;"/>
  <path d="M402.26,79.75c-2.5,5.34-5.88,11.34-10.12,18-4.25,6.67-8.92,13.42-14,20.25-5.09,6.84-10.17,13.29-15.25,19.38-5.09,6.09-9.71,11.21-13.88,15.38l-17.75-8.75c5.33-4.5,10.75-9.79,16.25-15.88,5.5-6.08,10.66-12.29,15.5-18.62,4.83-6.33,8.58-12,11.25-17-1.5.17-4.96.84-10.38,2-5.42,1.17-12.09,2.54-20,4.12-7.92,1.59-16.54,3.29-25.88,5.12-9.34,1.84-18.71,3.71-28.12,5.62-9.42,1.92-18.29,3.71-26.62,5.38-8.34,1.67-15.54,3.12-21.62,4.38-6.09,1.25-10.38,2.12-12.88,2.62l-5-19c3.5-.33,6.88-.71,10.12-1.12,3.25-.41,6.79-.96,10.62-1.62,1.66-.33,5.12-1,10.38-2s11.66-2.21,19.25-3.62c7.58-1.41,15.71-2.91,24.38-4.5,8.66-1.58,17.38-3.21,26.12-4.88,8.75-1.66,16.96-3.25,24.62-4.75,7.66-1.5,14.25-2.79,19.75-3.88,5.5-1.08,9.25-1.88,11.25-2.38,1.5-.33,3.12-.79,4.88-1.38,1.75-.58,3.29-1.12,4.62-1.62l12.5,8.75ZM282.26,45.5c.5,2.17,1.04,4.59,1.62,7.25.58,2.67,1.21,5.59,1.88,8.75,1,3.5,2.46,8.88,4.38,16.12,1.91,7.25,4.21,15.54,6.88,24.88,2.66,9.34,5.38,18.96,8.12,28.88,2.75,9.92,5.41,19.46,8,28.62,2.58,9.17,4.83,17.12,6.75,23.88,1.91,6.75,3.29,11.62,4.12,14.62.66,1.5,1.29,3.29,1.88,5.38.58,2.08,1.21,4.16,1.88,6.25.66,2.08,1.25,3.88,1.75,5.38l-21.25,5.5c-.34-2.84-.79-5.79-1.38-8.88-.59-3.09-1.38-6.21-2.38-9.38-.84-2.84-2.21-7.75-4.12-14.75-1.92-7-4.17-15.16-6.75-24.5-2.59-9.33-5.21-19-7.88-29-2.67-10-5.29-19.66-7.88-29-2.59-9.33-4.84-17.54-6.75-24.62-1.92-7.08-3.38-12.12-4.38-15.12-.84-3.16-1.75-6-2.75-8.5s-2.09-4.66-3.25-6.5l21.5-5.25Z" style="fill: #231f20; stroke-width: 0px;"/>
</svg>