<?xml version="1.0" encoding="UTF-8"?>
<svg id="Layer_1" data-name="Layer 1" xmlns="http://www.w3.org/2000/svg" viewBox="0 0 212.5 207.25">
  <path d="M11.25,64.5c3.66,2,8.08,4.5,13.25,7.5,5.16,3,10.41,6.17,15.75,9.5,5.33,3.34,10.29,6.46,14.88,9.38,4.58,2.92,8.21,5.38,10.88,7.38l-11.25,17.5c-3.17-2.33-7.04-5-11.62-8-4.59-3-9.46-6.16-14.62-9.5-5.17-3.33-10.25-6.46-15.25-9.38-5-2.91-9.42-5.38-13.25-7.38l11.25-17ZM11.5,187c9.16-1.66,18.58-3.83,28.25-6.5,9.66-2.66,19.25-5.91,28.75-9.75,9.5-3.83,18.41-8.08,26.75-12.75,13.83-8,26.66-16.88,38.5-26.62,11.83-9.75,22.5-20.12,32-31.12s17.58-22.33,24.25-34l12,20.75c-10.84,16.67-24.59,32.79-41.25,48.38-16.67,15.59-35,29.21-55,40.88-8.34,4.84-17.46,9.29-27.38,13.38-9.92,4.09-19.67,7.67-29.25,10.75-9.59,3.08-18.29,5.38-26.12,6.88l-11.5-20.25ZM49,8.25c3.66,2,8,4.62,13,7.88s10.16,6.59,15.5,10c5.33,3.42,10.29,6.67,14.88,9.75,4.58,3.09,8.21,5.62,10.88,7.62l-11.75,17.25c-3-2.33-6.79-5.08-11.38-8.25-4.59-3.16-9.42-6.46-14.5-9.88-5.09-3.41-10.09-6.66-15-9.75-4.92-3.08-9.21-5.71-12.88-7.88l11.25-16.75ZM155.75,12c2.16,2.84,4.71,6.59,7.62,11.25,2.91,4.67,5.79,9.42,8.62,14.25,2.83,4.84,5.16,9.25,7,13.25l-14.25,6.5c-2-4.33-4.25-8.79-6.75-13.38-2.5-4.58-5.09-9.12-7.75-13.62-2.67-4.5-5.42-8.66-8.25-12.5l13.75-5.75ZM188.5,0c2.33,2.84,4.91,6.5,7.75,11,2.83,4.5,5.75,9.17,8.75,14,3,4.84,5.5,9.25,7.5,13.25l-14.25,6.5c-2.17-4.5-4.59-9-7.25-13.5-2.67-4.5-5.38-8.91-8.12-13.25-2.75-4.33-5.54-8.33-8.38-12l14-6Z" style="fill: #231f20; stroke-width: 0px;"/>
</svg>