<?xml version="1.0" encoding="UTF-8"?>
<svg id="Layer_1" data-name="Layer 1" xmlns="http://www.w3.org/2000/svg" viewBox="0 0 186.5 203.5">
  <path d="M99.75,0c-.34,2.84-.62,6.21-.88,10.12-.25,3.92-.46,7.38-.62,10.38-.67,25.5-2.92,47.79-6.75,66.88-3.84,19.09-9.12,35.75-15.88,50s-14.92,26.71-24.5,37.38c-9.59,10.67-20.54,20.25-32.88,28.75L0,188.75c4-2.16,8.33-4.91,13-8.25,4.66-3.33,8.91-6.75,12.75-10.25,7.83-7,14.88-15.08,21.12-24.25,6.25-9.16,11.66-19.66,16.25-31.5,4.58-11.83,8.16-25.46,10.75-40.88,2.58-15.41,3.96-33.04,4.12-52.88,0-1.83-.09-4-.25-6.5-.17-2.5-.38-5-.62-7.5s-.54-4.75-.88-6.75h23.5ZM186.5,52c-.34,2.17-.62,4.34-.88,6.5-.25,2.17-.38,4.09-.38,5.75-.17,4.67-.46,11.09-.88,19.25-.42,8.17-1,17.04-1.75,26.62-.75,9.59-1.67,19.21-2.75,28.88-1.09,9.67-2.46,18.54-4.12,26.62-1.67,8.09-3.59,14.54-5.75,19.38-2.5,5.17-5.88,9-10.12,11.5s-9.79,3.75-16.62,3.75c-6.34,0-13-.21-20-.62-7-.42-13.75-.79-20.25-1.12l-2.5-20.75c6.83.84,13.46,1.5,19.88,2,6.41.5,12.21.75,17.38.75,3.66,0,6.66-.58,9-1.75,2.33-1.16,4.16-3.33,5.5-6.5,2-3.83,3.66-9.08,5-15.75,1.33-6.66,2.5-14.16,3.5-22.5,1-8.33,1.83-16.75,2.5-25.25.66-8.5,1.12-16.58,1.38-24.25.25-7.66.38-14.16.38-19.5H33.25c-5,0-9.92.04-14.75.12-4.84.09-9.5.38-14,.88v-21.25c4.33.5,9,.88,14,1.12s9.83.38,14.5.38h123.5c3.33,0,6.29-.12,8.88-.38,2.58-.25,4.96-.54,7.12-.88l14,7Z" style="fill: #231f20; stroke-width: 0px;"/>
</svg>