<?xml version="1.0" encoding="UTF-8"?>
<svg id="Layer_1" data-name="Layer 1" xmlns="http://www.w3.org/2000/svg" viewBox="0 0 212.25 207.75">
  <path d="M86.5,4.75c-1,2.84-2.04,5.79-3.12,8.88-1.09,3.09-2.12,5.96-3.12,8.62-1.17,3.84-2.62,8-4.38,12.5s-3.62,9.12-5.62,13.88-4.17,9.46-6.5,14.12c-3.34,6.34-7.42,13.17-12.25,20.5-4.84,7.34-10,14.29-15.5,20.88-5.5,6.59-10.92,12.04-16.25,16.38L0,108.75c4.5-3.33,8.96-7.25,13.38-11.75,4.41-4.5,8.58-9.29,12.5-14.38,3.91-5.08,7.46-10.04,10.62-14.88,3.16-4.83,5.83-9.08,8-12.75,3.5-6.33,6.41-12.58,8.75-18.75,2.33-6.16,4.16-11.58,5.5-16.25,1-3.33,1.83-6.66,2.5-10,.66-3.33,1.08-6.66,1.25-10l24,4.75ZM147,58.25c-.67,19.17-2.84,36.42-6.5,51.75-3.67,15.34-8.79,29.04-15.38,41.12-6.59,12.09-14.38,22.75-23.38,32s-19.09,17.46-30.25,24.62l-21.25-14.5c3.5-1.33,7.04-3.04,10.62-5.12,3.58-2.08,6.79-4.21,9.62-6.38,6.5-4.83,12.91-10.75,19.25-17.75,6.33-7,12.16-15.46,17.5-25.38,5.33-9.91,9.66-21.5,13-34.75,3.33-13.25,5.16-28.54,5.5-45.88l21.25.25ZM55.25,47.5h133.5c3.16,0,6.96-.08,11.38-.25,4.41-.16,8.46-.5,12.12-1v21.5c-4-.33-8.21-.54-12.62-.62-4.42-.08-8.04-.12-10.88-.12H52.75l2.5-19.5Z" style="fill: #231f20; stroke-width: 0px;"/>
</svg>