<?xml version="1.0" encoding="UTF-8"?>
<svg id="Layer_1" data-name="Layer 1" xmlns="http://www.w3.org/2000/svg" viewBox="0 0 172.5 173.75">
  <path d="M0,138c3.16.34,7.29.67,12.38,1,5.08.34,10.21.5,15.38.5h134v20.25H28.25c-5,0-10.12.09-15.38.25-5.25.17-9.54.42-12.88.75v-22.75ZM3.25,0c4.16.5,8.75.88,13.75,1.12s9.5.38,13.5.38h123.25c3,0,6.21-.04,9.62-.12,3.41-.08,6.38-.21,8.88-.38-.17,2.84-.34,6.04-.5,9.62-.17,3.59-.25,6.88-.25,9.88v129c0,4.5.12,9.17.38,14,.25,4.84.46,8.25.62,10.25h-22.5c.16-2,.29-5.04.38-9.12.08-4.08.12-8.38.12-12.88V21.5H30.75c-4.67,0-9.71.09-15.12.25-5.42.17-9.54.34-12.38.5V0Z" style="fill: #231f20; stroke-width: 0px;"/>
</svg>