<?xml version="1.0" encoding="UTF-8"?>
<svg id="Layer_1" data-name="Layer 1" xmlns="http://www.w3.org/2000/svg" viewBox="0 0 376.75 211.75">
  <path d="M0,129.25c3-.16,6.58-.46,10.75-.88,4.16-.41,7.91-.88,11.25-1.38,4.5-.5,10.54-1.33,18.12-2.5,7.58-1.16,16.16-2.54,25.75-4.12,9.58-1.58,19.5-3.21,29.75-4.88,10.25-1.66,20.21-3.33,29.88-5,9.66-1.66,18.54-3.21,26.62-4.62,8.08-1.41,14.54-2.54,19.38-3.38,4.83-.83,9.08-1.66,12.75-2.5,3.66-.83,6.83-1.58,9.5-2.25l4,21c-2.5.17-5.71.54-9.62,1.12-3.92.59-8.21,1.29-12.88,2.12-5.5.84-12.38,1.92-20.62,3.25-8.25,1.34-17.21,2.79-26.88,4.38-9.67,1.59-19.54,3.17-29.62,4.75-10.09,1.59-19.79,3.17-29.12,4.75-9.34,1.59-17.67,3-25,4.25-7.34,1.25-13.17,2.29-17.5,3.12-4.84.84-9.04,1.59-12.62,2.25-3.59.67-6.71,1.42-9.38,2.25l-4.5-21.75ZM.75,57c3-.16,6.21-.38,9.62-.62,3.41-.25,7.12-.62,11.12-1.12,3.83-.5,9.16-1.21,16-2.12,6.83-.91,14.54-2,23.12-3.25,8.58-1.25,17.5-2.62,26.75-4.12s18.21-2.96,26.88-4.38c8.66-1.41,16.5-2.71,23.5-3.88,7-1.16,12.5-2.16,16.5-3,3.66-.66,7.04-1.38,10.12-2.12,3.08-.75,5.62-1.46,7.62-2.12l4.25,21.25c-1.84.17-4.46.46-7.88.88-3.42.42-6.79.88-10.12,1.38-4.34.67-10.09,1.59-17.25,2.75-7.17,1.17-15.12,2.46-23.88,3.88-8.75,1.42-17.71,2.84-26.88,4.25-9.17,1.42-18.04,2.84-26.62,4.25-8.59,1.42-16.21,2.67-22.88,3.75-6.67,1.09-11.84,1.96-15.5,2.62-3.5.5-6.79,1.09-9.88,1.75-3.09.67-6.54,1.5-10.38,2.5L.75,57ZM71.25,21c-.67-3.16-1.38-6.16-2.12-9-.75-2.83-1.62-5.5-2.62-8L89,0c.16,2.34.5,5.12,1,8.38s.91,6.21,1.25,8.88c.33,1.67,1.08,5.54,2.25,11.62,1.16,6.09,2.62,13.71,4.38,22.88,1.75,9.17,3.71,19.09,5.88,29.75,2.16,10.67,4.33,21.42,6.5,32.25,2.16,10.84,4.16,21,6,30.5,1.83,9.5,3.46,17.59,4.88,24.25,1.41,6.67,2.38,11.17,2.88,13.5.83,3.67,1.75,7.5,2.75,11.5s2.08,7.75,3.25,11.25l-22.75,4.25c-.67-4.17-1.25-8.21-1.75-12.12s-1.17-7.71-2-11.38c-.34-2.16-1.12-6.54-2.38-13.12-1.25-6.58-2.79-14.54-4.62-23.88-1.84-9.33-3.84-19.38-6-30.12-2.17-10.75-4.29-21.46-6.38-32.12-2.09-10.66-4.04-20.58-5.88-29.75-1.84-9.16-3.38-16.91-4.62-23.25-1.25-6.33-2.04-10.41-2.38-12.25Z" style="fill: #231f20; stroke-width: 0px;"/>
  <path d="M236,182.25c2,.17,4.83.38,8.5.62,3.66.25,7.66.38,12,.38h110.5v18.5h-110.25c-4,0-7.96.08-11.88.25-3.92.16-6.88.25-8.88.25v-20ZM239,60.5c1.5.17,3.88.34,7.12.5,3.25.17,6.58.29,10,.38,3.41.09,6.21.12,8.38.12h96.75c2.83,0,5.66-.04,8.5-.12,2.83-.08,5.08-.21,6.75-.38-.17,1.34-.25,3.21-.25,5.62v131.62c0,2,.04,4.29.12,6.88.08,2.58.21,4.79.38,6.62h-19.75c.16-1.5.25-3.59.25-6.25v-126.25h-92.75c-2.17,0-4.96.04-8.38.12-3.42.09-6.75.21-10,.38-3.25.17-5.62.25-7.12.25v-19.5ZM244.5,120c2.5.17,5.79.34,9.88.5,4.08.17,8.21.25,12.38.25h100.25v18h-100c-4.34,0-8.54.04-12.62.12-4.09.09-7.38.21-9.88.38v-19.25Z" style="fill: #231f20; stroke-width: 0px;"/>
</svg>