<?xml version="1.0" encoding="UTF-8"?>
<svg id="Layer_1" data-name="Layer 1" xmlns="http://www.w3.org/2000/svg" viewBox="0 0 410.01 209">
  <path d="M0,129.25c3-.16,6.58-.46,10.75-.88,4.16-.41,7.91-.88,11.25-1.38,4.5-.5,10.54-1.33,18.12-2.5,7.58-1.16,16.16-2.54,25.75-4.12,9.58-1.58,19.5-3.21,29.75-4.88,10.25-1.66,20.21-3.33,29.88-5,9.66-1.66,18.54-3.21,26.62-4.62,8.08-1.41,14.54-2.54,19.38-3.38,4.83-.83,9.08-1.66,12.75-2.5,3.66-.83,6.83-1.58,9.5-2.25l4,21c-2.5.17-5.71.54-9.62,1.12-3.92.59-8.21,1.29-12.88,2.12-5.5.84-12.38,1.92-20.62,3.25-8.25,1.34-17.21,2.79-26.88,4.38-9.67,1.59-19.54,3.17-29.62,4.75-10.09,1.59-19.79,3.17-29.12,4.75-9.34,1.59-17.67,3-25,4.25-7.34,1.25-13.17,2.29-17.5,3.12-4.84.84-9.04,1.59-12.62,2.25-3.59.67-6.71,1.42-9.38,2.25l-4.5-21.75ZM.75,57c3-.16,6.21-.38,9.62-.62,3.41-.25,7.12-.62,11.12-1.12,3.83-.5,9.16-1.21,16-2.12,6.83-.91,14.54-2,23.12-3.25,8.58-1.25,17.5-2.62,26.75-4.12s18.21-2.96,26.88-4.38c8.66-1.41,16.5-2.71,23.5-3.88,7-1.16,12.5-2.16,16.5-3,3.66-.66,7.04-1.38,10.12-2.12,3.08-.75,5.62-1.46,7.62-2.12l4.25,21.25c-1.84.17-4.46.46-7.88.88-3.42.42-6.79.88-10.12,1.38-4.34.67-10.09,1.59-17.25,2.75-7.17,1.17-15.12,2.46-23.88,3.88-8.75,1.42-17.71,2.84-26.88,4.25-9.17,1.42-18.04,2.84-26.62,4.25-8.59,1.42-16.21,2.67-22.88,3.75-6.67,1.09-11.84,1.96-15.5,2.62-3.5.5-6.79,1.09-9.88,1.75-3.09.67-6.54,1.5-10.38,2.5L.75,57ZM71.25,21c-.67-3.16-1.38-6.16-2.12-9-.75-2.83-1.62-5.5-2.62-8L89,0c.16,2.34.5,5.12,1,8.38s.91,6.21,1.25,8.88c.33,1.67,1.08,5.54,2.25,11.62,1.16,6.09,2.62,13.71,4.38,22.88,1.75,9.17,3.71,19.09,5.88,29.75,2.16,10.67,4.33,21.42,6.5,32.25,2.16,10.84,4.16,21,6,30.5,1.83,9.5,3.46,17.59,4.88,24.25,1.41,6.67,2.38,11.17,2.88,13.5.83,3.67,1.75,7.5,2.75,11.5s2.08,7.75,3.25,11.25l-22.75,4.25c-.67-4.17-1.25-8.21-1.75-12.12s-1.17-7.71-2-11.38c-.34-2.16-1.12-6.54-2.38-13.12-1.25-6.58-2.79-14.54-4.62-23.88-1.84-9.33-3.84-19.38-6-30.12-2.17-10.75-4.29-21.46-6.38-32.12-2.09-10.66-4.04-20.58-5.88-29.75-1.84-9.16-3.38-16.91-4.62-23.25-1.25-6.33-2.04-10.41-2.38-12.25Z" style="fill: #231f20; stroke-width: 0px;"/>
  <path d="M233.26,175c3,.17,6.25.38,9.75.62s7.16.38,11,.38h136.25c2.66,0,5.96-.08,9.88-.25,3.91-.16,7.21-.33,9.88-.5v20.25c-1.5-.16-3.42-.25-5.75-.25s-4.67-.04-7-.12c-2.34-.08-4.42-.12-6.25-.12h-137c-3.84,0-7.34.04-10.5.12-3.17.09-6.59.29-10.25.62v-20.75ZM380.26,78.75c-.34,1.17-.67,2.5-1,4-.34,1.5-.59,2.75-.75,3.75-.34,3.84-.96,9-1.88,15.5-.92,6.5-1.96,13.67-3.12,21.5-1.17,7.84-2.34,15.62-3.5,23.38-1.17,7.75-2.21,14.84-3.12,21.25-.92,6.42-1.71,11.38-2.38,14.88h-21.25c.66-2.83,1.46-7.21,2.38-13.12.91-5.91,2-12.62,3.25-20.12s2.38-15.04,3.38-22.62c1-7.58,1.88-14.5,2.62-20.75s1.21-11.04,1.38-14.38h-79.5c-3.67,0-7.12.09-10.38.25-3.25.17-6.46.34-9.62.5v-21c2,.34,4.12.59,6.38.75,2.25.17,4.54.34,6.88.5,2.33.17,4.5.25,6.5.25h76c1.5,0,3.04-.08,4.62-.25,1.58-.16,3.12-.38,4.62-.62s2.58-.54,3.25-.88l15.25,7.25Z" style="fill: #231f20; stroke-width: 0px;"/>
</svg>