<?xml version="1.0" encoding="UTF-8"?>
<svg id="Layer_1" data-name="Layer 1" xmlns="http://www.w3.org/2000/svg" viewBox="0 0 167 162.75">
  <path d="M18.5,12.5c1.33,2.84,3,6.67,5,11.5,2,4.84,4.12,10.12,6.38,15.88s4.41,11.25,6.5,16.5c2.08,5.25,3.71,9.46,4.88,12.62l-19,7c-1-3.16-2.46-7.46-4.38-12.88-1.92-5.41-4.04-11.04-6.38-16.88-2.34-5.83-4.54-11.16-6.62-16-2.09-4.83-3.71-8.33-4.88-10.5l18.5-7.25ZM167,14c-.84,2.5-1.54,4.79-2.12,6.88-.59,2.09-1.12,3.96-1.62,5.62-3.34,13.67-7.84,27.04-13.5,40.12-5.67,13.09-13,25.29-22,36.62-11.5,14.67-24.46,26.92-38.88,36.75-14.42,9.83-28.62,17.41-42.62,22.75l-16.5-16.75c9.66-3,19.46-7,29.38-12,9.91-5,19.33-11,28.25-18,8.91-7,16.79-14.75,23.62-23.25,6-7.33,11.38-15.58,16.12-24.75,4.75-9.16,8.71-18.91,11.88-29.25,3.16-10.33,5.33-20.83,6.5-31.5l21.5,6.75ZM76.5,0c1.16,2.5,2.66,6.21,4.5,11.12,1.83,4.92,3.79,10.12,5.88,15.62,2.08,5.5,3.96,10.71,5.62,15.62,1.66,4.92,2.91,8.79,3.75,11.62l-18.5,6.5c-.67-2.83-1.79-6.66-3.38-11.5-1.59-4.83-3.38-10.04-5.38-15.62-2-5.58-4-10.79-6-15.62-2-4.83-3.59-8.66-4.75-11.5L76.5,0Z" style="fill: #231f20; stroke-width: 0px;"/>
</svg>