<?xml version="1.0" encoding="UTF-8"?>
<svg id="Layer_1" data-name="Layer 1" xmlns="http://www.w3.org/2000/svg" viewBox="0 0 140.75 151.25">
  <path d="M0,121.75c2,.17,4.83.38,8.5.62,3.66.25,7.66.38,12,.38h110.5v18.5H20.75c-4,0-7.96.08-11.88.25-3.92.16-6.88.25-8.88.25v-20ZM3,0c1.5.17,3.88.34,7.12.5,3.25.17,6.58.29,10,.38,3.41.09,6.21.12,8.38.12h96.75c2.83,0,5.66-.04,8.5-.12,2.83-.08,5.08-.21,6.75-.38-.17,1.34-.25,3.21-.25,5.62v131.62c0,2,.04,4.29.12,6.88.08,2.58.21,4.79.38,6.62h-19.75c.16-1.5.25-3.59.25-6.25V18.75H28.5c-2.17,0-4.96.04-8.38.12-3.42.09-6.75.21-10,.38-3.25.17-5.62.25-7.12.25V0ZM8.5,59.5c2.5.17,5.79.34,9.88.5,4.08.17,8.21.25,12.38.25h100.25v18H31c-4.34,0-8.54.04-12.62.12-4.09.09-7.38.21-9.88.38v-19.25Z" style="fill: #231f20; stroke-width: 0px;"/>
</svg>