<?xml version="1.0" encoding="UTF-8"?>
<svg id="Layer_1" data-name="Layer 1" xmlns="http://www.w3.org/2000/svg" viewBox="0 0 206.5 182.5">
  <path d="M206.5,12.75c-1.17,1.34-2.34,2.62-3.5,3.88-1.17,1.25-2.09,2.54-2.75,3.88-4.67,7.67-10.29,16-16.88,25-6.59,9-14.04,18.25-22.38,27.75-8.34,9.5-17.38,18.84-27.12,28-9.75,9.17-20.21,17.75-31.38,25.75l-15.5-13.75c10.16-7,19.66-14.58,28.5-22.75,8.83-8.16,16.96-16.46,24.38-24.88,7.41-8.41,13.91-16.46,19.5-24.12,5.58-7.66,9.96-14.5,13.12-20.5H25.5c-3.17,0-6.42.09-9.75.25-3.34.17-6.38.34-9.12.5-2.75.17-4.96.42-6.62.75V0c2.33.34,4.91.67,7.75,1,2.83.34,5.79.59,8.88.75,3.08.17,6.04.25,8.88.25h149c7.16,0,12.58-.66,16.25-2l15.75,12.75ZM88.75,131.5c-3.84-3.83-8.29-8.08-13.38-12.75-5.09-4.66-10.38-9.38-15.88-14.12s-10.67-9.08-15.5-13c-4.84-3.91-9-7.04-12.5-9.38l16.25-13.25c2.83,2.17,6.58,5.12,11.25,8.88,4.66,3.75,9.79,7.96,15.38,12.62,5.58,4.67,11.12,9.42,16.62,14.25,5.5,4.84,10.5,9.5,15,14,5.33,5,10.88,10.5,16.62,16.5s11.21,11.84,16.38,17.5c5.16,5.67,9.5,10.75,13,15.25l-18.25,14.5c-3-4.34-7.04-9.46-12.12-15.38-5.09-5.91-10.54-12-16.38-18.25-5.84-6.25-11.34-12.04-16.5-17.38Z" style="fill: #231f20; stroke-width: 0px;"/>
</svg>