<?xml version="1.0" encoding="UTF-8"?>
<svg id="Layer_1" data-name="Layer 1" xmlns="http://www.w3.org/2000/svg" viewBox="0 0 190 197.75">
  <path d="M174,8c-1.34,2.17-2.79,5.09-4.38,8.75-1.59,3.67-2.88,6.84-3.88,9.5-3,8.34-6.71,17.29-11.12,26.88-4.42,9.59-9.42,19.21-15,28.88-5.59,9.67-11.79,18.92-18.62,27.75-8,10.17-17.04,20.42-27.12,30.75-10.09,10.34-21.42,20.38-34,30.12-12.59,9.75-26.79,18.79-42.62,27.12L0,182c23.33-11,43.38-23.79,60.12-38.38,16.75-14.58,31.46-30.04,44.12-46.38,10.5-13.16,19-26.5,25.5-40s11.91-26.41,16.25-38.75c.83-2.5,1.75-5.54,2.75-9.12,1-3.58,1.75-6.71,2.25-9.38l23,8ZM41.75,37.25c6.16,4,12.83,8.46,20,13.38,7.16,4.92,14.33,9.92,21.5,15,7.16,5.09,13.96,10.04,20.38,14.88,6.41,4.84,11.96,9.17,16.62,13,12.66,10.17,25,20.62,37,31.38s22.91,21.54,32.75,32.38l-15.75,17.25c-10.5-12.16-21.29-23.38-32.38-33.62-11.09-10.25-22.88-20.71-35.38-31.38-4.5-3.83-9.75-8.08-15.75-12.75-6-4.66-12.46-9.58-19.38-14.75-6.92-5.16-14.04-10.21-21.38-15.12-7.34-4.91-14.42-9.54-21.25-13.88l13-15.75Z" style="fill: #231f20; stroke-width: 0px;"/>
</svg>