<?xml version="1.0" encoding="UTF-8"?>
<svg id="Layer_1" data-name="Layer 1" xmlns="http://www.w3.org/2000/svg" viewBox="0 0 198 181.25">
  <path d="M0,71c3.5.17,7.46.42,11.88.75,4.41.34,8.29.5,11.62.5h153.75c1.83,0,4-.08,6.5-.25,2.5-.16,5.04-.29,7.62-.38,2.58-.08,4.79-.21,6.62-.38v20.5c-2.84-.33-6.21-.54-10.12-.62-3.92-.08-7.29-.12-10.12-.12H23.5c-3,0-6.79.09-11.38.25-4.59.17-8.62.42-12.12.75v-21ZM16.5,0c3.33.17,6.88.38,10.62.62s7.71.38,11.88.38h119c4,0,7.71-.12,11.12-.38,3.41-.25,6.54-.46,9.38-.62v20c-3-.16-6.09-.29-9.25-.38-3.17-.08-6.92-.12-11.25-.12H39c-4.17,0-8.12.04-11.88.12-3.75.09-7.29.21-10.62.38V0ZM93,80.25v61c0,6.17,2.41,11.04,7.25,14.62,4.83,3.59,13,5.38,24.5,5.38s23.04-.25,33.62-.75c10.58-.5,21.29-1.41,32.12-2.75l-1.25,21c-6.5.33-13.42.71-20.75,1.12-7.34.41-14.92.75-22.75,1-7.84.25-15.75.38-23.75.38-12.5,0-22.42-1.38-29.75-4.12-7.34-2.75-12.5-6.66-15.5-11.75-3-5.08-4.5-11.04-4.5-17.88V13.5l20.75.25v66.5Z" style="fill: #231f20; stroke-width: 0px;"/>
</svg>