<?xml version="1.0" encoding="UTF-8"?>
<svg id="Layer_1" data-name="Layer 1" xmlns="http://www.w3.org/2000/svg" viewBox="0 0 215 200">
  <path d="M23.25,163.75c6-.33,13.29-.88,21.88-1.62,8.58-.75,17.88-1.58,27.88-2.5,10-.91,20.21-1.96,30.62-3.12,10.41-1.16,20.54-2.29,30.38-3.38,9.83-1.08,18.83-2.16,27-3.25,8.16-1.08,14.91-1.96,20.25-2.62l5.5,19.25c-5.67.84-12.84,1.75-21.5,2.75-8.67,1-18.04,2.04-28.12,3.12-10.09,1.09-20.5,2.25-31.25,3.5s-21.21,2.46-31.38,3.62c-10.17,1.17-19.59,2.17-28.25,3-8.67.84-15.92,1.5-21.75,2-3.17.34-6.5.75-10,1.25s-7.09,1-10.75,1.5l-3.75-23.25c3.83.17,7.79.21,11.88.12,4.08-.08,7.88-.21,11.38-.38ZM112,5c-1.17,3.17-2.46,6.5-3.88,10-1.42,3.5-2.96,7.92-4.62,13.25-1.5,4.17-3.42,10-5.75,17.5-2.34,7.5-4.96,15.79-7.88,24.88-2.92,9.09-6,18.46-9.25,28.12-3.25,9.67-6.46,19.09-9.62,28.25-3.17,9.17-6.04,17.38-8.62,24.62-2.59,7.25-4.79,13.04-6.62,17.38l-22.75.75c2.16-5,4.66-11.33,7.5-19,2.83-7.66,5.91-16.25,9.25-25.75,3.33-9.5,6.62-19.21,9.88-29.12,3.25-9.91,6.38-19.54,9.38-28.88,3-9.33,5.62-17.75,7.88-25.25s4.04-13.41,5.38-17.75c1.5-5.83,2.58-10.46,3.25-13.88.66-3.41,1.16-6.79,1.5-10.12l25,5ZM159.5,88.75c4.5,6.5,9.38,14.17,14.62,23,5.25,8.84,10.5,18.12,15.75,27.88s10.08,19.04,14.5,27.88c4.41,8.84,7.96,16.5,10.62,23l-21,9.5c-2.5-6.84-5.84-14.88-10-24.12-4.17-9.25-8.71-18.79-13.62-28.62-4.92-9.83-9.96-19.16-15.12-28-5.17-8.83-10-16.16-14.5-22l18.75-8.5Z" style="fill: #231f20; stroke-width: 0px;"/>
</svg>