<?xml version="1.0" encoding="UTF-8"?>
<svg id="Layer_1" data-name="Layer 1" xmlns="http://www.w3.org/2000/svg" viewBox="0 0 378.75 211.75">
  <path d="M7.75,138.75c8.5,1.34,17.96,3.04,28.38,5.12,10.41,2.09,21.21,4.42,32.38,7,11.16,2.59,22.16,5.29,33,8.12,10.83,2.84,21,5.71,30.5,8.62,9.5,2.92,17.66,5.79,24.5,8.62l-8.5,19.25c-6.67-2.84-14.75-5.79-24.25-8.88s-19.71-6.08-30.62-9c-10.92-2.91-22-5.62-33.25-8.12s-22-4.75-32.25-6.75-19.46-3.66-27.62-5l7.75-19ZM21.5,66c8.5,1.5,18.33,3.34,29.5,5.5,11.16,2.17,22.71,4.62,34.62,7.38,11.91,2.75,23.29,5.59,34.12,8.5,10.83,2.92,20.08,5.79,27.75,8.62l-8,19.25c-7.17-2.83-16.04-5.75-26.62-8.75-10.59-3-21.79-5.91-33.62-8.75-11.84-2.83-23.46-5.38-34.88-7.62-11.42-2.25-21.54-4.04-30.38-5.38l7.5-18.75ZM32.75,0c6.5.84,14.16,2,23,3.5,8.83,1.5,18.21,3.25,28.12,5.25,9.91,2,19.83,4.17,29.75,6.5,9.91,2.34,19.21,4.67,27.88,7,8.66,2.34,16.16,4.59,22.5,6.75l-8,19.25c-6.17-2.16-13.5-4.46-22-6.88-8.5-2.41-17.54-4.79-27.12-7.12-9.59-2.33-19.34-4.54-29.25-6.62-9.92-2.08-19.34-3.91-28.25-5.5-8.92-1.58-16.88-2.79-23.88-3.62L32.75,0Z" style="fill: #231f20; stroke-width: 0px;"/>
  <path d="M378.75,70.5c-2.5,5.34-5.88,11.34-10.12,18-4.25,6.67-8.92,13.42-14,20.25-5.09,6.84-10.17,13.29-15.25,19.38-5.09,6.09-9.71,11.21-13.88,15.38l-17.75-8.75c5.33-4.5,10.75-9.79,16.25-15.88,5.5-6.08,10.66-12.29,15.5-18.62,4.83-6.33,8.58-12,11.25-17-1.5.17-4.96.84-10.38,2-5.42,1.17-12.09,2.54-20,4.12-7.92,1.59-16.54,3.29-25.88,5.12-9.34,1.84-18.71,3.71-28.12,5.62-9.42,1.92-18.29,3.71-26.62,5.38-8.34,1.67-15.54,3.12-21.62,4.38-6.09,1.25-10.38,2.12-12.88,2.62l-5-19c3.5-.33,6.88-.71,10.12-1.12,3.25-.41,6.79-.96,10.62-1.62,1.66-.33,5.12-1,10.38-2s11.66-2.21,19.25-3.62c7.58-1.41,15.71-2.91,24.38-4.5,8.66-1.58,17.38-3.21,26.12-4.88,8.75-1.66,16.96-3.25,24.62-4.75,7.66-1.5,14.25-2.79,19.75-3.88,5.5-1.08,9.25-1.88,11.25-2.38,1.5-.33,3.12-.79,4.88-1.38,1.75-.58,3.29-1.12,4.62-1.62l12.5,8.75ZM258.75,36.25c.5,2.17,1.04,4.59,1.62,7.25.58,2.67,1.21,5.59,1.88,8.75,1,3.5,2.46,8.88,4.38,16.12,1.91,7.25,4.21,15.54,6.88,24.88,2.66,9.34,5.38,18.96,8.12,28.88,2.75,9.92,5.41,19.46,8,28.62,2.58,9.17,4.83,17.12,6.75,23.88,1.91,6.75,3.29,11.62,4.12,14.62.66,1.5,1.29,3.29,1.88,5.38.58,2.08,1.21,4.16,1.88,6.25.66,2.08,1.25,3.88,1.75,5.38l-21.25,5.5c-.34-2.84-.79-5.79-1.38-8.88-.59-3.09-1.38-6.21-2.38-9.38-.84-2.84-2.21-7.75-4.12-14.75-1.92-7-4.17-15.16-6.75-24.5-2.59-9.33-5.21-19-7.88-29-2.67-10-5.29-19.66-7.88-29-2.59-9.33-4.84-17.54-6.75-24.62-1.92-7.08-3.38-12.12-4.38-15.12-.84-3.16-1.75-6-2.75-8.5s-2.09-4.66-3.25-6.5l21.5-5.25Z" style="fill: #231f20; stroke-width: 0px;"/>
</svg>