<?xml version="1.0" encoding="UTF-8"?>
<svg id="Layer_1" data-name="Layer 1" xmlns="http://www.w3.org/2000/svg" viewBox="0 0 345.5 203.25">
  <path d="M7.75,138.75c8.5,1.34,17.96,3.04,28.38,5.12,10.41,2.09,21.21,4.42,32.38,7,11.16,2.59,22.16,5.29,33,8.12,10.83,2.84,21,5.71,30.5,8.62,9.5,2.92,17.66,5.79,24.5,8.62l-8.5,19.25c-6.67-2.84-14.75-5.79-24.25-8.88s-19.71-6.08-30.62-9c-10.92-2.91-22-5.62-33.25-8.12s-22-4.75-32.25-6.75-19.46-3.66-27.62-5l7.75-19ZM21.5,66c8.5,1.5,18.33,3.34,29.5,5.5,11.16,2.17,22.71,4.62,34.62,7.38,11.91,2.75,23.29,5.59,34.12,8.5,10.83,2.92,20.08,5.79,27.75,8.62l-8,19.25c-7.17-2.83-16.04-5.75-26.62-8.75-10.59-3-21.79-5.91-33.62-8.75-11.84-2.83-23.46-5.38-34.88-7.62-11.42-2.25-21.54-4.04-30.38-5.38l7.5-18.75ZM32.75,0c6.5.84,14.16,2,23,3.5,8.83,1.5,18.21,3.25,28.12,5.25,9.91,2,19.83,4.17,29.75,6.5,9.91,2.34,19.21,4.67,27.88,7,8.66,2.34,16.16,4.59,22.5,6.75l-8,19.25c-6.17-2.16-13.5-4.46-22-6.88-8.5-2.41-17.54-4.79-27.12-7.12-9.59-2.33-19.34-4.54-29.25-6.62-9.92-2.08-19.34-3.91-28.25-5.5-8.92-1.58-16.88-2.79-23.88-3.62L32.75,0Z" style="fill: #231f20; stroke-width: 0px;"/>
  <path d="M204.75,173.75c2,.17,4.83.38,8.5.62,3.66.25,7.66.38,12,.38h110.5v18.5h-110.25c-4,0-7.96.08-11.88.25-3.92.16-6.88.25-8.88.25v-20ZM207.75,52c1.5.17,3.88.34,7.12.5,3.25.17,6.58.29,10,.38,3.41.09,6.21.12,8.38.12h96.75c2.83,0,5.66-.04,8.5-.12,2.83-.08,5.08-.21,6.75-.38-.17,1.34-.25,3.21-.25,5.62v131.62c0,2,.04,4.29.12,6.88.08,2.58.21,4.79.38,6.62h-19.75c.16-1.5.25-3.59.25-6.25v-126.25h-92.75c-2.17,0-4.96.04-8.38.12-3.42.09-6.75.21-10,.38-3.25.17-5.62.25-7.12.25v-19.5ZM213.25,111.5c2.5.17,5.79.34,9.88.5,4.08.17,8.21.25,12.38.25h100.25v18h-100c-4.34,0-8.54.04-12.62.12-4.09.09-7.38.21-9.88.38v-19.25Z" style="fill: #231f20; stroke-width: 0px;"/>
</svg>