<?xml version="1.0" encoding="UTF-8"?>
<svg id="Layer_1" data-name="Layer 1" xmlns="http://www.w3.org/2000/svg" viewBox="0 0 195.5 188">
  <path d="M0,167.5c14.66-2.16,28.04-5.16,40.12-9,12.08-3.83,23.12-8.16,33.12-13,10-4.83,18.91-9.66,26.75-14.5,12.83-8,24.66-17.21,35.5-27.62,10.83-10.41,20.33-21.21,28.5-32.38,8.16-11.16,14.66-21.83,19.5-32l12,21.25c-5.67,10.34-12.67,20.84-21,31.5-8.34,10.67-17.75,20.92-28.25,30.75-10.5,9.84-22.09,18.75-34.75,26.75-8.34,5.17-17.46,10.25-27.38,15.25-9.92,5-20.75,9.54-32.5,13.62-11.75,4.09-24.54,7.38-38.38,9.88L0,167.5ZM21.5,0c4.5,3,9.66,6.71,15.5,11.12,5.83,4.42,11.79,9.09,17.88,14,6.08,4.92,11.79,9.71,17.12,14.38,5.33,4.67,9.75,8.75,13.25,12.25l-15.75,15.75c-3.17-3.16-7.25-7.08-12.25-11.75-5-4.66-10.5-9.54-16.5-14.62-6-5.08-11.92-9.91-17.75-14.5-5.84-4.58-11.09-8.38-15.75-11.38L21.5,0Z" style="fill: #231f20; stroke-width: 0px;"/>
</svg>