<?xml version="1.0" encoding="UTF-8"?>
<svg id="Layer_1" data-name="Layer 1" xmlns="http://www.w3.org/2000/svg" viewBox="0 0 206.25 203">
  <path d="M0,57.25c2.66.34,6.12.62,10.38.88s8.54.38,12.88.38h161.25c4.16,0,8.33-.12,12.5-.38,4.16-.25,7.25-.46,9.25-.62v21.25c-2-.33-5.17-.54-9.5-.62-4.34-.08-8.5-.12-12.5-.12H23.75c-4.67,0-9.12.09-13.38.25-4.25.17-7.71.34-10.38.5v-21.5ZM97,24.75c0-3.83-.21-8.29-.62-13.38-.42-5.08-.96-8.88-1.62-11.38h24.75c-.34,2.5-.67,6.38-1,11.62-.34,5.25-.5,9.71-.5,13.38v52.75c0,13.67-1.25,26.5-3.75,38.5s-6.46,23.21-11.88,33.62c-5.42,10.42-12.54,20-21.38,28.75-8.84,8.75-19.59,16.88-32.25,24.38l-19.5-14.5c11.83-5.66,22-12.16,30.5-19.5,8.5-7.33,15.54-15.62,21.12-24.88,5.58-9.25,9.66-19.41,12.25-30.5,2.58-11.08,3.88-23.04,3.88-35.88V24.75Z" style="fill: #231f20; stroke-width: 0px;"/>
</svg>