<?xml version="1.0" encoding="UTF-8"?>
<svg id="Layer_1" data-name="Layer 1" xmlns="http://www.w3.org/2000/svg" viewBox="0 0 211.75 210.75">
  <path d="M187,49c-2.17,2.34-4.54,4.84-7.12,7.5-2.59,2.67-4.88,5.17-6.88,7.5-4.17,5.17-9.29,10.84-15.38,17-6.09,6.17-12.75,12.38-20,18.62s-14.88,12.12-22.88,17.62c-9,6.34-18.71,12.17-29.12,17.5-10.42,5.34-21.71,10.38-33.88,15.12-12.17,4.75-25.42,9.29-39.75,13.62L0,145c23.66-5.66,43.62-12.33,59.88-20,16.25-7.66,30.04-15.16,41.38-22.5,7.5-4.83,14.54-10.04,21.12-15.62,6.58-5.58,12.5-11,17.75-16.25s9.21-9.88,11.88-13.88H48.25c-2.84,0-6.21.04-10.12.12-3.92.09-7.67.21-11.25.38-3.59.17-6.71.34-9.38.5v-21c4.16.34,9.21.62,15.12.88,5.91.25,10.96.38,15.12.38h110.5c2.83,0,5.66-.12,8.5-.38,2.83-.25,5.25-.62,7.25-1.12l13,12.5ZM116.5,106.75v17.38c0,6.59-.04,13.5-.12,20.75-.09,7.25-.12,14.21-.12,20.88v17.5c0,2.84.08,5.92.25,9.25.16,3.34.33,6.59.5,9.75.16,3.16.33,6,.5,8.5h-22.75c.33-2.34.62-5.09.88-8.25s.41-6.46.5-9.88c.08-3.41.12-6.54.12-9.38v-16.38c0-6.08.04-12.33.12-18.75.08-6.41.12-12.5.12-18.25v-14.38l20-8.75ZM118.5,0c-.5,2.84-.88,6.34-1.12,10.5-.25,4.17-.38,8-.38,11.5v24.75h-20.25v-24.75c0-3.5-.09-7.33-.25-11.5-.17-4.16-.5-7.66-1-10.5h23ZM198.75,166.75c-7.17-5.33-13.88-10.12-20.12-14.38s-12.54-8.29-18.88-12.12c-6.34-3.83-13.42-7.83-21.25-12l13-14.75c7.83,4.17,14.88,8,21.12,11.5s12.41,7.17,18.5,11c6.08,3.84,12.96,8.42,20.62,13.75l-13,17Z" style="fill: #231f20; stroke-width: 0px;"/>
</svg>