<?xml version="1.0" encoding="UTF-8"?>
<svg id="Layer_1" data-name="Layer 1" xmlns="http://www.w3.org/2000/svg" viewBox="0 0 230.75 482">
  <path d="M16,181c4.33.17,8.66.42,13,.75,4.33.34,8.75.5,13.25.5h149.75c3.83,0,7.66-.12,11.5-.38,3.83-.25,7.58-.54,11.25-.88v24c-3.67-.33-7.54-.62-11.62-.88-4.09-.25-7.79-.38-11.12-.38H42.25c-4.5,0-8.96.12-13.38.38-4.42.25-8.71.54-12.88.88v-24ZM37.5,57.25c4,.34,8.08.59,12.25.75,4.16.17,8.33.25,12.5.25h107c4.5,0,8.88-.08,13.12-.25,4.25-.16,8.12-.41,11.62-.75v22.5c-3.5-.33-7.46-.54-11.88-.62-4.42-.08-8.71-.12-12.88-.12H62.25c-4.34,0-8.59.09-12.75.25-4.17.17-8.17.34-12,.5v-22.5Z" style="fill: #231f20; stroke-width: 0px;"/>
</svg>