<?xml version="1.0" encoding="UTF-8"?>
<svg id="Layer_1" data-name="Layer 1" xmlns="http://www.w3.org/2000/svg" viewBox="0 0 165.5 190.5">
  <path d="M165.5,6.5c-1.5,3.34-2.92,7-4.25,11-1.34,4-2.59,7.59-3.75,10.75-3.17,9-7,18.88-11.5,29.62s-9.59,21.38-15.25,31.88c-5.67,10.5-12,20.34-19,29.5-7.5,9.5-16.34,18.75-26.5,27.75-10.17,9-21,17.25-32.5,24.75s-23.25,13.75-35.25,18.75L0,172.25c12.5-4.33,24.5-9.88,36-16.62s22.25-14.38,32.25-22.88,18.75-17.41,26.25-26.75c7.83-9.66,14.83-20.41,21-32.25,6.16-11.83,11.5-24.08,16-36.75,4.5-12.66,7.91-25,10.25-37l23.75,6.5Z" style="fill: #231f20; stroke-width: 0px;"/>
</svg>