<?xml version="1.0" encoding="UTF-8"?>
<svg id="Layer_1" data-name="Layer 1" xmlns="http://www.w3.org/2000/svg" viewBox="0 0 173.5 188.25">
  <path d="M171.75,11.25c-1,1.67-2.09,3.67-3.25,6-1.17,2.34-2.17,4.84-3,7.5-3.67,11.67-7.92,23.04-12.75,34.12-4.84,11.09-10.09,21.42-15.75,31-5.67,9.59-11.59,18.21-17.75,25.88-8.84,11.17-18.84,21.42-30,30.75-11.17,9.34-22.88,17.54-35.12,24.62s-24.46,12.79-36.62,17.12L0,170.75c13.83-4.16,27.04-9.66,39.62-16.5,12.58-6.83,24.21-14.62,34.88-23.38,10.66-8.75,20-17.96,28-27.62,6.66-8,12.66-16.62,18-25.88,5.33-9.25,9.96-18.66,13.88-28.25,3.91-9.58,6.88-18.71,8.88-27.38H40.25c-3,0-6.12.04-9.38.12-3.25.09-6.38.17-9.38.25-3,.09-5.67.21-8,.38V1.25c3.66.17,7.83.42,12.5.75,4.66.34,9.41.5,14.25.5h103c2.66,0,5.21-.25,7.62-.75,2.41-.5,4.54-1.08,6.38-1.75l14.5,11.25ZM39,55c11.5,6,23.46,12.96,35.88,20.88,12.41,7.92,24.66,16.12,36.75,24.62,12.08,8.5,23.41,16.96,34,25.38,10.58,8.42,19.88,16.12,27.88,23.12l-14.75,17c-6.34-5.83-13.5-12.12-21.5-18.88s-16.59-13.66-25.75-20.75c-9.17-7.08-18.59-14-28.25-20.75-9.67-6.75-19.34-13.16-29-19.25-9.67-6.08-19-11.46-28-16.12l12.75-15.25Z" style="fill: #231f20; stroke-width: 0px;"/>
</svg>