<?xml version="1.0" encoding="UTF-8"?>
<svg id="Layer_1" data-name="Layer 1" xmlns="http://www.w3.org/2000/svg" viewBox="0 0 375.5 176.75">
  <path d="M0,123.75c4.33.17,8.66.42,13,.75,4.33.34,8.75.5,13.25.5h149.75c3.83,0,7.66-.12,11.5-.38,3.83-.25,7.58-.54,11.25-.88v24c-3.67-.33-7.54-.62-11.62-.88-4.09-.25-7.79-.38-11.12-.38H26.25c-4.5,0-8.96.12-13.38.38-4.42.25-8.71.54-12.88.88v-24ZM21.5,0c4,.34,8.08.59,12.25.75,4.16.17,8.33.25,12.5.25h107c4.5,0,8.88-.08,13.12-.25,4.25-.16,8.12-.41,11.62-.75v22.5c-3.5-.33-7.46-.54-11.88-.62-4.42-.08-8.71-.12-12.88-.12H46.25c-4.34,0-8.59.09-12.75.25-4.17.17-8.17.34-12,.5V0Z" style="fill: #231f20; stroke-width: 0px;"/>
  <path d="M234.75,147.25c2,.17,4.83.38,8.5.62,3.66.25,7.66.38,12,.38h110.5v18.5h-110.25c-4,0-7.96.08-11.88.25-3.92.16-6.88.25-8.88.25v-20ZM237.75,25.5c1.5.17,3.88.34,7.12.5,3.25.17,6.58.29,10,.38,3.41.09,6.21.12,8.38.12h96.75c2.83,0,5.66-.04,8.5-.12,2.83-.08,5.08-.21,6.75-.38-.17,1.34-.25,3.21-.25,5.62v131.62c0,2,.04,4.29.12,6.88.08,2.58.21,4.79.38,6.62h-19.75c.16-1.5.25-3.59.25-6.25V44.25h-92.75c-2.17,0-4.96.04-8.38.12-3.42.09-6.75.21-10,.38-3.25.17-5.62.25-7.12.25v-19.5ZM243.25,85c2.5.17,5.79.34,9.88.5,4.08.17,8.21.25,12.38.25h100.25v18h-100c-4.34,0-8.54.04-12.62.12-4.09.09-7.38.21-9.88.38v-19.25Z" style="fill: #231f20; stroke-width: 0px;"/>
</svg>