<?xml version="1.0" encoding="UTF-8"?>
<svg id="Layer_1" data-name="Layer 1" xmlns="http://www.w3.org/2000/svg" viewBox="0 0 203 202.75">
  <path d="M0,160.5c13.33-6.33,26.04-13.71,38.12-22.12,12.08-8.41,23.29-17.16,33.62-26.25,10.33-9.08,19.41-18.08,27.25-27,7.83-8.91,14-17.12,18.5-24.62l10-.25.25,17c-4.67,7.34-10.92,15.46-18.75,24.38-7.84,8.92-16.79,17.92-26.88,27-10.09,9.09-20.92,17.79-32.5,26.12-11.59,8.34-23.29,15.67-35.12,22L0,160.5ZM9.25,43.75c3.66.34,7.46.67,11.38,1,3.91.34,7.79.5,11.62.5h149.5c3.33,0,7.12-.21,11.38-.62,4.25-.41,7.54-.71,9.88-.88v21c-2.84-.16-6.21-.29-10.12-.38-3.92-.08-7.38-.12-10.38-.12H32.75c-4.17,0-8.17.04-12,.12-3.84.09-7.67.29-11.5.62v-21.25ZM143.5,0c-.5,3.34-.88,6.79-1.12,10.38-.25,3.59-.38,7.12-.38,10.62.16,4.5.29,10.54.38,18.12.08,7.59.21,16.12.38,25.62.16,9.5.33,19.5.5,30,.16,10.5.33,21,.5,31.5.16,10.5.33,20.59.5,30.25.16,9.67.25,18.42.25,26.25,0,6.5-1.92,11.46-5.75,14.88-3.84,3.41-9.5,5.12-17,5.12-6.34,0-13.04-.12-20.12-.38-7.09-.25-13.71-.62-19.88-1.12l-1.75-20.5c6,1,12.21,1.75,18.62,2.25,6.41.5,11.96.75,16.62.75,3.5,0,5.91-.83,7.25-2.5,1.33-1.66,2-4.16,2-7.5v-21.75c0-8.5-.04-17.71-.12-27.62-.09-9.91-.21-19.96-.38-30.12-.17-10.16-.34-19.96-.5-29.38-.17-9.41-.29-17.96-.38-25.62-.09-7.66-.29-13.75-.62-18.25-.34-4.83-.67-8.88-1-12.12-.34-3.25-.75-6.21-1.25-8.88h23.25Z" style="fill: #231f20; stroke-width: 0px;"/>
</svg>