<?xml version="1.0" encoding="UTF-8"?>
<svg id="Layer_1" data-name="Layer 1" xmlns="http://www.w3.org/2000/svg" viewBox="0 0 224.25 204.25">
  <path d="M38.5,127.25c2.66-6.5,5.29-13.58,7.88-21.25,2.58-7.66,5-15.62,7.25-23.88s4.21-16.41,5.88-24.5c1.66-8.08,2.83-15.79,3.5-23.12l22.25,4.75c-.34,1.84-.84,3.79-1.5,5.88-.67,2.09-1.25,4.21-1.75,6.38-.5,2.17-.92,4.17-1.25,6-.84,3.84-2,8.84-3.5,15-1.5,6.17-3.25,12.92-5.25,20.25-2,7.34-4.17,14.71-6.5,22.12-2.34,7.42-4.84,14.29-7.5,20.62-3,7.67-6.46,15.54-10.38,23.62-3.92,8.09-8.12,15.96-12.62,23.62-4.5,7.67-9.09,14.84-13.75,21.5L0,195.25c7.83-10.5,15.12-21.88,21.88-34.12s12.29-23.54,16.62-33.88ZM161.5,117.75c-2.5-6.5-5.25-13.33-8.25-20.5-3-7.16-6.17-14.38-9.5-21.62-3.34-7.25-6.54-14.08-9.62-20.5-3.09-6.41-6.04-11.88-8.88-16.38l20.25-6.75c2.5,4.34,5.29,9.67,8.38,16,3.08,6.34,6.29,13.09,9.62,20.25,3.33,7.17,6.58,14.42,9.75,21.75,3.16,7.34,6.08,14.34,8.75,21,2.5,6.17,5.16,13.04,8,20.62,2.83,7.59,5.62,15.25,8.38,23s5.29,15.25,7.62,22.5c2.33,7.25,4.33,13.71,6,19.38l-22.25,7.25c-2-8.5-4.54-17.71-7.62-27.62-3.09-9.91-6.38-19.91-9.88-30-3.5-10.08-7.09-19.54-10.75-28.38ZM168.25,28.25c0-5.16,1.25-9.88,3.75-14.12s5.88-7.66,10.12-10.25c4.25-2.58,8.96-3.88,14.12-3.88s9.66,1.29,14,3.88c4.33,2.59,7.75,6,10.25,10.25s3.75,8.96,3.75,14.12-1.25,9.84-3.75,14c-2.5,4.17-5.92,7.54-10.25,10.12-4.34,2.59-9,3.88-14,3.88s-9.88-1.29-14.12-3.88c-4.25-2.58-7.62-5.96-10.12-10.12-2.5-4.16-3.75-8.83-3.75-14ZM179.75,28.25c0,4.5,1.58,8.38,4.75,11.62,3.16,3.25,7.08,4.88,11.75,4.88s8.38-1.62,11.62-4.88,4.88-7.12,4.88-11.62-1.62-8.62-4.88-11.88-7.12-4.88-11.62-4.88-8.59,1.62-11.75,4.88c-3.17,3.25-4.75,7.21-4.75,11.88Z" style="fill: #231f20; stroke-width: 0px;"/>
</svg>