<?xml version="1.0" encoding="UTF-8"?>
<svg id="Layer_1" data-name="Layer 1" xmlns="http://www.w3.org/2000/svg" viewBox="0 0 221.5 173.5">
  <path d="M0,114.75c3.33-2.83,6.29-5.5,8.88-8,2.58-2.5,5.54-5.41,8.88-8.75,3-3,6.46-6.83,10.38-11.5,3.91-4.66,8.16-9.71,12.75-15.12,4.58-5.41,9.12-10.91,13.62-16.5,4.5-5.58,8.66-10.62,12.5-15.12,6.66-7.83,13.25-12.21,19.75-13.12,6.5-.91,14,2.62,22.5,10.62,5.16,4.67,10.79,10.12,16.88,16.38,6.08,6.25,12.12,12.54,18.12,18.88,6,6.34,11.41,12.09,16.25,17.25,5.66,5.84,12,12.54,19,20.12,7,7.59,14.16,15.34,21.5,23.25,7.33,7.92,14.16,15.29,20.5,22.12l-17.25,18.25c-5.84-7.16-12.04-14.62-18.62-22.38-6.59-7.75-13.09-15.33-19.5-22.75-6.42-7.41-12.29-14.12-17.62-20.12-3.67-4.16-7.75-8.66-12.25-13.5-4.5-4.83-9-9.66-13.5-14.5-4.5-4.83-8.71-9.33-12.62-13.5-3.92-4.16-7.21-7.5-9.88-10-4.84-4.66-8.79-6.83-11.88-6.5-3.09.34-6.79,3.09-11.12,8.25-3,3.67-6.42,7.96-10.25,12.88-3.84,4.92-7.84,10.04-12,15.38-4.17,5.34-8.17,10.42-12,15.25-3.84,4.84-7.17,9-10,12.5-2.5,3.17-5.04,6.5-7.62,10-2.59,3.5-4.79,6.59-6.62,9.25L0,114.75ZM150.75,30.5c0-5.66,1.38-10.79,4.12-15.38,2.75-4.58,6.41-8.25,11-11,4.58-2.75,9.71-4.12,15.38-4.12s10.54,1.38,15.12,4.12c4.58,2.75,8.25,6.42,11,11,2.75,4.59,4.12,9.71,4.12,15.38s-1.38,10.54-4.12,15.12c-2.75,4.59-6.42,8.25-11,11-4.59,2.75-9.62,4.12-15.12,4.12s-10.79-1.38-15.38-4.12c-4.59-2.75-8.25-6.41-11-11-2.75-4.58-4.12-9.62-4.12-15.12ZM162.75,30.5c0,5,1.79,9.29,5.38,12.88,3.58,3.59,7.96,5.38,13.12,5.38s9.29-1.79,12.88-5.38,5.38-7.88,5.38-12.88-1.79-9.5-5.38-13c-3.59-3.5-7.88-5.25-12.88-5.25s-9.54,1.75-13.12,5.25c-3.59,3.5-5.38,7.84-5.38,13Z" style="fill: #231f20; stroke-width: 0px;"/>
</svg>