<?xml version="1.0" encoding="UTF-8"?>
<svg id="Layer_1" data-name="Layer 1" xmlns="http://www.w3.org/2000/svg" viewBox="0 0 187.75 207.75">
  <path d="M23.25,15c-.34,2.84-.62,6.04-.88,9.62-.25,3.59-.38,7.12-.38,10.62v132c0,6.34,1.38,10.71,4.12,13.12,2.75,2.42,7.21,4.21,13.38,5.38,4,.67,8.96,1.17,14.88,1.5,5.91.34,11.96.5,18.12.5,6.66,0,13.83-.16,21.5-.5,7.66-.33,15.46-.83,23.38-1.5,7.91-.66,15.38-1.5,22.38-2.5s13.08-2.16,18.25-3.5v22.75c-7.17,1.16-15.79,2.12-25.88,2.88-10.09.75-20.42,1.33-31,1.75-10.59.41-20.46.62-29.62.62-7.34,0-14.54-.21-21.62-.62-7.09-.42-13.21-1.04-18.38-1.88-9.67-1.67-17.09-4.96-22.25-9.88-5.17-4.91-7.75-12.46-7.75-22.62V35.25c0-2.16-.04-4.41-.12-6.75-.09-2.33-.25-4.71-.5-7.12-.25-2.41-.54-4.54-.88-6.38h23.25ZM12.75,93.75c7.5-1.66,15.79-3.71,24.88-6.12,9.08-2.41,18.33-5.04,27.75-7.88,9.41-2.83,18.58-5.83,27.5-9,8.91-3.16,16.96-6.33,24.12-9.5,3.83-1.66,7.58-3.41,11.25-5.25,3.66-1.83,7.25-3.83,10.75-6l8.75,20c-3.5,1.5-7.38,3.12-11.62,4.88s-8.21,3.38-11.88,4.88c-7.84,3.17-16.54,6.42-26.12,9.75-9.59,3.34-19.46,6.54-29.62,9.62-10.17,3.09-20.04,5.96-29.62,8.62-9.59,2.67-18.29,4.92-26.12,6.75v-20.75ZM131.75,28.25c0-5.16,1.25-9.91,3.75-14.25,2.5-4.33,5.88-7.75,10.12-10.25s8.96-3.75,14.12-3.75,9.88,1.25,14.12,3.75,7.62,5.92,10.12,10.25c2.5,4.34,3.75,9.09,3.75,14.25s-1.25,9.62-3.75,13.88-5.88,7.62-10.12,10.12-8.96,3.75-14.12,3.75-9.88-1.25-14.12-3.75-7.62-5.88-10.12-10.12-3.75-8.88-3.75-13.88ZM143.25,28.25c0,4.5,1.58,8.34,4.75,11.5,3.16,3.17,7.08,4.75,11.75,4.75s8.38-1.58,11.62-4.75c3.25-3.16,4.88-7,4.88-11.5s-1.62-8.62-4.88-11.88-7.12-4.88-11.62-4.88-8.59,1.62-11.75,4.88c-3.17,3.25-4.75,7.21-4.75,11.88Z" style="fill: #231f20; stroke-width: 0px;"/>
</svg>