<?xml version="1.0" encoding="UTF-8"?>
<svg id="Layer_1" data-name="Layer 1" xmlns="http://www.w3.org/2000/svg" viewBox="0 0 213.5 216.5">
  <path d="M179,45c-.84,1.67-1.54,3.54-2.12,5.62-.59,2.09-1.12,4.38-1.62,6.88-1.34,6.5-3.09,13.75-5.25,21.75-2.17,8-4.79,16.21-7.88,24.62-3.09,8.42-6.62,16.54-10.62,24.38-4,7.84-8.5,15-13.5,21.5-7.67,9.67-16.17,18.67-25.5,27-9.34,8.34-20,15.84-32,22.5-12,6.67-25.67,12.41-41,17.25l-17-18.75c16.33-4,30.46-9,42.38-15,11.91-6,22.38-12.79,31.38-20.38,9-7.58,16.91-15.79,23.75-24.62,6-7.66,11.21-16.29,15.62-25.88,4.41-9.58,8.12-19.25,11.12-29s5-18.62,6-26.62H25c-5,0-9.59.09-13.75.25-4.17.17-7.92.34-11.25.5v-22.25c2.33.34,4.91.62,7.75.88,2.83.25,5.75.46,8.75.62,3,.17,5.83.25,8.5.25h125.5c1.83,0,3.91-.08,6.25-.25,2.33-.16,4.66-.5,7-1l15.25,9.75ZM157.25,28.25c0-5.16,1.29-9.88,3.88-14.12,2.58-4.25,5.96-7.66,10.12-10.25,4.16-2.58,8.83-3.88,14-3.88s9.88,1.29,14.12,3.88c4.25,2.59,7.66,6,10.25,10.25,2.58,4.25,3.88,8.96,3.88,14.12s-1.29,9.84-3.88,14c-2.59,4.17-6,7.54-10.25,10.12-4.25,2.59-8.96,3.88-14.12,3.88s-9.84-1.29-14-3.88c-4.17-2.58-7.54-5.96-10.12-10.12-2.59-4.16-3.88-8.83-3.88-14ZM168.75,28.25c0,4.5,1.62,8.38,4.88,11.62s7.12,4.88,11.62,4.88,8.62-1.62,11.88-4.88,4.88-7.12,4.88-11.62-1.62-8.62-4.88-11.88-7.21-4.88-11.88-4.88-8.38,1.62-11.62,4.88-4.88,7.21-4.88,11.88Z" style="fill: #231f20; stroke-width: 0px;"/>
</svg>