<?xml version="1.0" encoding="UTF-8"?>
<svg id="Layer_1" data-name="Layer 1" xmlns="http://www.w3.org/2000/svg" viewBox="0 0 386.75 225">
  <path d="M23.25,15c-.34,2.84-.62,6.04-.88,9.62-.25,3.59-.38,7.12-.38,10.62v132c0,6.34,1.38,10.71,4.12,13.12,2.75,2.42,7.21,4.21,13.38,5.38,4,.67,8.96,1.17,14.88,1.5,5.91.34,11.96.5,18.12.5,6.66,0,13.83-.16,21.5-.5,7.66-.33,15.46-.83,23.38-1.5,7.91-.66,15.38-1.5,22.38-2.5s13.08-2.16,18.25-3.5v22.75c-7.17,1.16-15.79,2.12-25.88,2.88-10.09.75-20.42,1.33-31,1.75-10.59.41-20.46.62-29.62.62-7.34,0-14.54-.21-21.62-.62-7.09-.42-13.21-1.04-18.38-1.88-9.67-1.67-17.09-4.96-22.25-9.88-5.17-4.91-7.75-12.46-7.75-22.62V35.25c0-2.16-.04-4.41-.12-6.75-.09-2.33-.25-4.71-.5-7.12-.25-2.41-.54-4.54-.88-6.38h23.25ZM12.75,93.75c7.5-1.66,15.79-3.71,24.88-6.12,9.08-2.41,18.33-5.04,27.75-7.88,9.41-2.83,18.58-5.83,27.5-9,8.91-3.16,16.96-6.33,24.12-9.5,3.83-1.66,7.58-3.41,11.25-5.25,3.66-1.83,7.25-3.83,10.75-6l8.75,20c-3.5,1.5-7.38,3.12-11.62,4.88s-8.21,3.38-11.88,4.88c-7.84,3.17-16.54,6.42-26.12,9.75-9.59,3.34-19.46,6.54-29.62,9.62-10.17,3.09-20.04,5.96-29.62,8.62-9.59,2.67-18.29,4.92-26.12,6.75v-20.75ZM131.75,28.25c0-5.16,1.25-9.91,3.75-14.25,2.5-4.33,5.88-7.75,10.12-10.25s8.96-3.75,14.12-3.75,9.88,1.25,14.12,3.75,7.62,5.92,10.12,10.25c2.5,4.34,3.75,9.09,3.75,14.25s-1.25,9.62-3.75,13.88-5.88,7.62-10.12,10.12-8.96,3.75-14.12,3.75-9.88-1.25-14.12-3.75-7.62-5.88-10.12-10.12-3.75-8.88-3.75-13.88ZM143.25,28.25c0,4.5,1.58,8.34,4.75,11.5,3.16,3.17,7.08,4.75,11.75,4.75s8.38-1.58,11.62-4.75c3.25-3.16,4.88-7,4.88-11.5s-1.62-8.62-4.88-11.88-7.12-4.88-11.62-4.88-8.59,1.62-11.75,4.88c-3.17,3.25-4.75,7.21-4.75,11.88Z" style="fill: #231f20; stroke-width: 0px;"/>
  <path d="M386.75,83.75c-2.5,5.34-5.88,11.34-10.12,18-4.25,6.67-8.92,13.42-14,20.25-5.09,6.84-10.17,13.29-15.25,19.38-5.09,6.09-9.71,11.21-13.88,15.38l-17.75-8.75c5.33-4.5,10.75-9.79,16.25-15.88,5.5-6.08,10.66-12.29,15.5-18.62,4.83-6.33,8.58-12,11.25-17-1.5.17-4.96.84-10.38,2-5.42,1.17-12.09,2.54-20,4.12-7.92,1.59-16.54,3.29-25.88,5.12-9.34,1.84-18.71,3.71-28.12,5.62-9.42,1.92-18.29,3.71-26.62,5.38-8.34,1.67-15.54,3.12-21.62,4.38-6.09,1.25-10.38,2.12-12.88,2.62l-5-19c3.5-.33,6.88-.71,10.12-1.12,3.25-.41,6.79-.96,10.62-1.62,1.66-.33,5.12-1,10.38-2s11.66-2.21,19.25-3.62c7.58-1.41,15.71-2.91,24.38-4.5,8.66-1.58,17.38-3.21,26.12-4.88,8.75-1.66,16.96-3.25,24.62-4.75,7.66-1.5,14.25-2.79,19.75-3.88,5.5-1.08,9.25-1.88,11.25-2.38,1.5-.33,3.12-.79,4.88-1.38,1.75-.58,3.29-1.12,4.62-1.62l12.5,8.75ZM266.75,49.5c.5,2.17,1.04,4.59,1.62,7.25.58,2.67,1.21,5.59,1.88,8.75,1,3.5,2.46,8.88,4.38,16.12,1.91,7.25,4.21,15.54,6.88,24.88,2.66,9.34,5.38,18.96,8.12,28.88,2.75,9.92,5.41,19.46,8,28.62,2.58,9.17,4.83,17.12,6.75,23.88,1.91,6.75,3.29,11.62,4.12,14.62.66,1.5,1.29,3.29,1.88,5.38.58,2.08,1.21,4.16,1.88,6.25.66,2.08,1.25,3.88,1.75,5.38l-21.25,5.5c-.34-2.84-.79-5.79-1.38-8.88-.59-3.09-1.38-6.21-2.38-9.38-.84-2.84-2.21-7.75-4.12-14.75-1.92-7-4.17-15.16-6.75-24.5-2.59-9.33-5.21-19-7.88-29-2.67-10-5.29-19.66-7.88-29-2.59-9.33-4.84-17.54-6.75-24.62-1.92-7.08-3.38-12.12-4.38-15.12-.84-3.16-1.75-6-2.75-8.5s-2.09-4.66-3.25-6.5l21.5-5.25Z" style="fill: #231f20; stroke-width: 0px;"/>
</svg>