<?xml version="1.0" encoding="UTF-8"?>
<svg id="Layer_1" data-name="Layer 1" xmlns="http://www.w3.org/2000/svg" viewBox="0 0 184.25 196.5">
  <path d="M184.25,66c-.5,1-1.12,2.21-1.88,3.62-.75,1.42-1.21,2.62-1.38,3.62-3.34,12.34-7.92,24.71-13.75,37.12-5.84,12.42-13.42,23.71-22.75,33.88-13.17,14.34-27.38,25.5-42.62,33.5s-30.88,14.25-46.88,18.75l-15.5-17.75c17.66-3.66,34.08-9.41,49.25-17.25,15.16-7.83,28.08-17.33,38.75-28.5,7.66-8,13.96-16.96,18.88-26.88,4.91-9.91,8.54-19.38,10.88-28.38H24.5c-3,0-6.67.04-11,.12-4.34.09-8.84.29-13.5.62v-21c4.66.5,9.08.88,13.25,1.12,4.16.25,7.91.38,11.25.38h131.75c2.83,0,5.5-.16,8-.5,2.5-.33,4.41-.83,5.75-1.5l14.25,9ZM22.5,0c3.33.5,6.91.84,10.75,1,3.83.17,7.75.25,11.75.25h98.25c4,0,8-.08,12-.25,4-.16,7.58-.5,10.75-1v20.75c-3-.33-6.54-.54-10.62-.62-4.09-.08-8.21-.12-12.38-.12H45c-3.84,0-7.67.09-11.5.25-3.84.17-7.5.34-11,.5V0Z" style="fill: #231f20; stroke-width: 0px;"/>
</svg>