<?xml version="1.0" encoding="UTF-8"?>
<svg id="Layer_1" data-name="Layer 1" xmlns="http://www.w3.org/2000/svg" viewBox="0 0 171.25 190.5">
  <path d="M0,178c1-2,1.66-3.91,2-5.75.33-1.83.5-4,.5-6.5V22.75c0-2.16-.12-4.75-.38-7.75s-.5-5.83-.75-8.5C1.12,3.84.75,1.67.25,0h24.75c-.5,3-.92,6.62-1.25,10.88-.34,4.25-.5,8.21-.5,11.88v141.75c12-3,24.38-7.25,37.12-12.75s25.25-11.96,37.5-19.38c12.25-7.41,23.75-15.58,34.5-24.5,10.75-8.91,19.96-18.46,27.62-28.62l11.25,17.5c-16.17,20.17-36.79,37.84-61.88,53-25.09,15.17-53.21,27.25-84.38,36.25-1.34.33-2.92.88-4.75,1.62-1.84.75-3.75,1.71-5.75,2.88l-14.5-12.5Z" style="fill: #231f20; stroke-width: 0px;"/>
</svg>