<?xml version="1.0" encoding="UTF-8"?>
<svg id="Layer_1" data-name="Layer 1" xmlns="http://www.w3.org/2000/svg" viewBox="0 0 178.75 173">
  <path d="M.25,0c5,.17,9.25.29,12.75.38,3.5.09,6.66.12,9.5.12h134.25c2.66,0,6.04-.04,10.12-.12,4.08-.08,8.04-.21,11.88-.38-.17,3-.29,6.21-.38,9.62-.09,3.42-.12,6.71-.12,9.88v130.75c0,3.17.04,6.34.12,9.5.08,3.17.16,5.96.25,8.38.08,2.42.12,4.04.12,4.88h-21.5c0-1,.04-3.04.12-6.12.08-3.08.16-6.58.25-10.5.08-3.91.12-7.62.12-11.12V20.25H21v132.5c0,2.84.04,5.62.12,8.38.08,2.75.16,5.21.25,7.38.08,2.17.12,3.66.12,4.5H0c0-.84.04-2.46.12-4.88.08-2.41.16-5.21.25-8.38.08-3.16.12-6.29.12-9.38V9.75C.5,6.25.41,3,.25,0ZM165.75,139v19.5H11.25v-19.5h154.5Z" style="fill: #231f20; stroke-width: 0px;"/>
</svg>