<?xml version="1.0" encoding="UTF-8"?>
<svg id="Layer_1" data-name="Layer 1" xmlns="http://www.w3.org/2000/svg" viewBox="0 0 221.5 193.75">
  <path d="M0,181c10.5-7.5,19.41-16.58,26.75-27.25,7.33-10.66,12.91-22.08,16.75-34.25,1.83-5.66,3.25-12.75,4.25-21.25s1.75-17.54,2.25-27.12c.5-9.58.79-18.91.88-28,.08-9.08.12-17.12.12-24.12,0-3.66-.17-6.96-.5-9.88-.34-2.91-.75-5.71-1.25-8.38h23c-.17,1-.34,2.46-.5,4.38-.17,1.92-.34,4.04-.5,6.38-.17,2.34-.25,4.75-.25,7.25,0,7-.09,15.21-.25,24.62-.17,9.42-.54,19.25-1.12,29.5-.59,10.25-1.34,19.96-2.25,29.12-.92,9.17-2.29,16.84-4.12,23-3.67,13.34-9.38,25.92-17.12,37.75-7.75,11.84-16.88,22.17-27.38,31L0,181ZM114.5,182.25c.5-2,.88-4.21,1.12-6.62.25-2.41.38-4.88.38-7.38V18.5c0-4.83-.17-8.88-.5-12.12-.34-3.25-.59-5.38-.75-6.38h23c0,1-.17,3.17-.5,6.5-.34,3.34-.5,7.34-.5,12v144.25c7.83-3.66,16.16-8.5,25-14.5,8.83-6,17.46-13,25.88-21,8.41-8,15.79-16.66,22.12-26l11.75,17c-7.17,9.67-15.54,18.92-25.12,27.75-9.59,8.84-19.54,16.75-29.88,23.75-10.34,7-20.42,12.92-30.25,17.75-2,1.16-3.71,2.25-5.12,3.25-1.42,1-2.54,1.83-3.38,2.5l-13.25-11Z" style="fill: #231f20; stroke-width: 0px;"/>
</svg>