<?xml version="1.0" encoding="UTF-8"?>
<svg id="Layer_1" data-name="Layer 1" xmlns="http://www.w3.org/2000/svg" viewBox="0 0 361.75 212.25">
  <path d="M23,2c-.17,2.34-.38,5.17-.62,8.5-.25,3.34-.38,6.5-.38,9.5v83.5c0,3.17.12,6.54.38,10.12.25,3.59.46,6.54.62,8.88H0c.33-2,.62-4.79.88-8.38.25-3.58.38-7.21.38-10.88V20c0-2.16-.09-5.12-.25-8.88-.17-3.75-.42-6.79-.75-9.12h22.75ZM139,0c-.17,3.17-.34,6.54-.5,10.12-.17,3.59-.25,7.46-.25,11.62v40.5c0,15-.54,27.75-1.62,38.25-1.09,10.5-2.67,19.46-4.75,26.88-2.09,7.42-4.79,13.96-8.12,19.62-3.34,5.67-7.25,11.17-11.75,16.5-5.34,6.34-11.46,11.88-18.38,16.62-6.92,4.75-13.96,8.75-21.12,12-7.17,3.25-13.84,5.88-20,7.88l-16.25-17.25c11.5-2.83,22.38-6.88,32.62-12.12s19.29-12.29,27.12-21.12c4.5-5.16,8.12-10.46,10.88-15.88,2.75-5.41,4.83-11.46,6.25-18.12,1.41-6.66,2.38-14.41,2.88-23.25.5-8.83.75-19.16.75-31V21.75c0-4.16-.12-8.04-.38-11.62-.25-3.58-.54-6.96-.88-10.12h23.5Z" style="fill: #231f20; stroke-width: 0px;"/>
  <path d="M361.75,71c-2.5,5.34-5.88,11.34-10.12,18-4.25,6.67-8.92,13.42-14,20.25-5.09,6.84-10.17,13.29-15.25,19.38-5.09,6.09-9.71,11.21-13.88,15.38l-17.75-8.75c5.33-4.5,10.75-9.79,16.25-15.88,5.5-6.08,10.66-12.29,15.5-18.62,4.83-6.33,8.58-12,11.25-17-1.5.17-4.96.84-10.38,2-5.42,1.17-12.09,2.54-20,4.12-7.92,1.59-16.54,3.29-25.88,5.12-9.34,1.84-18.71,3.71-28.12,5.62-9.42,1.92-18.29,3.71-26.62,5.38-8.34,1.67-15.54,3.12-21.62,4.38-6.09,1.25-10.38,2.12-12.88,2.62l-5-19c3.5-.33,6.88-.71,10.12-1.12,3.25-.41,6.79-.96,10.62-1.62,1.66-.33,5.12-1,10.38-2s11.66-2.21,19.25-3.62c7.58-1.41,15.71-2.91,24.38-4.5,8.66-1.58,17.38-3.21,26.12-4.88,8.75-1.66,16.96-3.25,24.62-4.75,7.66-1.5,14.25-2.79,19.75-3.88,5.5-1.08,9.25-1.88,11.25-2.38,1.5-.33,3.12-.79,4.88-1.38,1.75-.58,3.29-1.12,4.62-1.62l12.5,8.75ZM241.75,36.75c.5,2.17,1.04,4.59,1.62,7.25.58,2.67,1.21,5.59,1.88,8.75,1,3.5,2.46,8.88,4.38,16.12,1.91,7.25,4.21,15.54,6.88,24.88,2.66,9.34,5.38,18.96,8.12,28.88,2.75,9.92,5.41,19.46,8,28.62,2.58,9.17,4.83,17.12,6.75,23.88,1.91,6.75,3.29,11.62,4.12,14.62.66,1.5,1.29,3.29,1.88,5.38.58,2.08,1.21,4.16,1.88,6.25.66,2.08,1.25,3.88,1.75,5.38l-21.25,5.5c-.34-2.84-.79-5.79-1.38-8.88-.59-3.09-1.38-6.21-2.38-9.38-.84-2.84-2.21-7.75-4.12-14.75-1.92-7-4.17-15.16-6.75-24.5-2.59-9.33-5.21-19-7.88-29-2.67-10-5.29-19.66-7.88-29-2.59-9.33-4.84-17.54-6.75-24.62-1.92-7.08-3.38-12.12-4.38-15.12-.84-3.16-1.75-6-2.75-8.5s-2.09-4.66-3.25-6.5l21.5-5.25Z" style="fill: #231f20; stroke-width: 0px;"/>
</svg>