<?xml version="1.0" encoding="UTF-8"?>
<svg id="Layer_1" data-name="Layer 1" xmlns="http://www.w3.org/2000/svg" viewBox="0 0 328.5 203.75">
  <path d="M23,2c-.17,2.34-.38,5.17-.62,8.5-.25,3.34-.38,6.5-.38,9.5v83.5c0,3.17.12,6.54.38,10.12.25,3.59.46,6.54.62,8.88H0c.33-2,.62-4.79.88-8.38.25-3.58.38-7.21.38-10.88V20c0-2.16-.09-5.12-.25-8.88-.17-3.75-.42-6.79-.75-9.12h22.75ZM139,0c-.17,3.17-.34,6.54-.5,10.12-.17,3.59-.25,7.46-.25,11.62v40.5c0,15-.54,27.75-1.62,38.25-1.09,10.5-2.67,19.46-4.75,26.88-2.09,7.42-4.79,13.96-8.12,19.62-3.34,5.67-7.25,11.17-11.75,16.5-5.34,6.34-11.46,11.88-18.38,16.62-6.92,4.75-13.96,8.75-21.12,12-7.17,3.25-13.84,5.88-20,7.88l-16.25-17.25c11.5-2.83,22.38-6.88,32.62-12.12s19.29-12.29,27.12-21.12c4.5-5.16,8.12-10.46,10.88-15.88,2.75-5.41,4.83-11.46,6.25-18.12,1.41-6.66,2.38-14.41,2.88-23.25.5-8.83.75-19.16.75-31V21.75c0-4.16-.12-8.04-.38-11.62-.25-3.58-.54-6.96-.88-10.12h23.5Z" style="fill: #231f20; stroke-width: 0px;"/>
  <path d="M187.75,174.25c2,.17,4.83.38,8.5.62,3.66.25,7.66.38,12,.38h110.5v18.5h-110.25c-4,0-7.96.08-11.88.25-3.92.16-6.88.25-8.88.25v-20ZM190.75,52.5c1.5.17,3.88.34,7.12.5,3.25.17,6.58.29,10,.38,3.41.09,6.21.12,8.38.12h96.75c2.83,0,5.66-.04,8.5-.12,2.83-.08,5.08-.21,6.75-.38-.17,1.34-.25,3.21-.25,5.62v131.62c0,2,.04,4.29.12,6.88.08,2.58.21,4.79.38,6.62h-19.75c.16-1.5.25-3.59.25-6.25v-126.25h-92.75c-2.17,0-4.96.04-8.38.12-3.42.09-6.75.21-10,.38-3.25.17-5.62.25-7.12.25v-19.5ZM196.25,112c2.5.17,5.79.34,9.88.5,4.08.17,8.21.25,12.38.25h100.25v18h-100c-4.34,0-8.54.04-12.62.12-4.09.09-7.38.21-9.88.38v-19.25Z" style="fill: #231f20; stroke-width: 0px;"/>
</svg>