<?xml version="1.0" encoding="UTF-8"?>
<svg id="Layer_1" data-name="Layer 1" xmlns="http://www.w3.org/2000/svg" viewBox="0 0 361.75 200">
  <path d="M23,2c-.17,2.34-.38,5.17-.62,8.5-.25,3.34-.38,6.5-.38,9.5v83.5c0,3.17.12,6.54.38,10.12.25,3.59.46,6.54.62,8.88H0c.33-2,.62-4.79.88-8.38.25-3.58.38-7.21.38-10.88V20c0-2.16-.09-5.12-.25-8.88-.17-3.75-.42-6.79-.75-9.12h22.75ZM139,0c-.17,3.17-.34,6.54-.5,10.12-.17,3.59-.25,7.46-.25,11.62v40.5c0,15-.54,27.75-1.62,38.25-1.09,10.5-2.67,19.46-4.75,26.88-2.09,7.42-4.79,13.96-8.12,19.62-3.34,5.67-7.25,11.17-11.75,16.5-5.34,6.34-11.46,11.88-18.38,16.62-6.92,4.75-13.96,8.75-21.12,12-7.17,3.25-13.84,5.88-20,7.88l-16.25-17.25c11.5-2.83,22.38-6.88,32.62-12.12s19.29-12.29,27.12-21.12c4.5-5.16,8.12-10.46,10.88-15.88,2.75-5.41,4.83-11.46,6.25-18.12,1.41-6.66,2.38-14.41,2.88-23.25.5-8.83.75-19.16.75-31V21.75c0-4.16-.12-8.04-.38-11.62-.25-3.58-.54-6.96-.88-10.12h23.5Z" style="fill: #231f20; stroke-width: 0px;"/>
  <path d="M185,167c3,.17,6.25.38,9.75.62s7.16.38,11,.38h136.25c2.66,0,5.96-.08,9.88-.25,3.91-.16,7.21-.33,9.88-.5v20.25c-1.5-.16-3.42-.25-5.75-.25s-4.67-.04-7-.12c-2.34-.08-4.42-.12-6.25-.12h-137c-3.84,0-7.34.04-10.5.12-3.17.09-6.59.29-10.25.62v-20.75ZM332,70.75c-.34,1.17-.67,2.5-1,4-.34,1.5-.59,2.75-.75,3.75-.34,3.84-.96,9-1.88,15.5-.92,6.5-1.96,13.67-3.12,21.5-1.17,7.84-2.34,15.62-3.5,23.38-1.17,7.75-2.21,14.84-3.12,21.25-.92,6.42-1.71,11.38-2.38,14.88h-21.25c.66-2.83,1.46-7.21,2.38-13.12.91-5.91,2-12.62,3.25-20.12s2.38-15.04,3.38-22.62c1-7.58,1.88-14.5,2.62-20.75s1.21-11.04,1.38-14.38h-79.5c-3.67,0-7.12.09-10.38.25-3.25.17-6.46.34-9.62.5v-21c2,.34,4.12.59,6.38.75,2.25.17,4.54.34,6.88.5,2.33.17,4.5.25,6.5.25h76c1.5,0,3.04-.08,4.62-.25,1.58-.16,3.12-.38,4.62-.62s2.58-.54,3.25-.88l15.25,7.25Z" style="fill: #231f20; stroke-width: 0px;"/>
</svg>