<?xml version="1.0" encoding="UTF-8"?>
<svg id="Layer_1" data-name="Layer 1" xmlns="http://www.w3.org/2000/svg" viewBox="0 0 213.75 206">
  <path d="M0,50c.83.17,2.54.38,5.12.62,2.58.25,5.71.5,9.38.75,3.66.25,7.16.38,10.5.38h165.75c5.5,0,10.25-.16,14.25-.5,4-.33,6.91-.58,8.75-.75v21.25c-1.5-.16-4.34-.33-8.5-.5-4.17-.16-9-.25-14.5-.25H25c-3.5,0-7,.04-10.5.12-3.5.09-6.54.21-9.12.38-2.59.17-4.38.25-5.38.25v-21.75ZM73.25,1.5c-.17,1.17-.42,3.42-.75,6.75-.34,3.34-.5,7.17-.5,11.5v91.5c0,3,.08,6.12.25,9.38.16,3.25.33,6.09.5,8.5.16,2.42.25,4.04.25,4.88h-22c0-.83.08-2.41.25-4.75.16-2.33.33-5.12.5-8.38.16-3.25.25-6.46.25-9.62V19.75c0-2.83-.09-5.88-.25-9.12-.17-3.25-.42-6.29-.75-9.12h22.25ZM163.25,79.75c0,16.67-1.04,31.42-3.12,44.25-2.09,12.84-5.79,24.25-11.12,34.25-5.34,10-12.62,18.88-21.88,26.62s-21.04,14.79-35.38,21.12l-16.75-15.75c11.5-4.5,21.5-9.41,30-14.75,8.5-5.33,15.58-12,21.25-20,5.66-8,9.91-18,12.75-30,2.83-12,4.25-26.75,4.25-44.25V20.5c0-5-.17-9.38-.5-13.12-.34-3.75-.59-6.21-.75-7.38h22.5c-.17,1.17-.42,3.62-.75,7.38-.34,3.75-.5,8.12-.5,13.12v59.25Z" style="fill: #231f20; stroke-width: 0px;"/>
</svg>