<?xml version="1.0" encoding="UTF-8"?>
<svg id="Layer_1" data-name="Layer 1" xmlns="http://www.w3.org/2000/svg" viewBox="0 0 206.5 197.75">
  <path d="M206.5,49.5c-.84,1.17-1.84,2.71-3,4.62-1.17,1.92-2.17,3.71-3,5.38-3,5.17-6.38,10.88-10.12,17.12s-7.88,12.67-12.38,19.25c-4.5,6.59-9.21,13-14.12,19.25-4.92,6.25-9.79,11.96-14.62,17.12l-17.5-10.5c6.33-5.66,12.41-12.21,18.25-19.62,5.83-7.41,11.04-14.66,15.62-21.75,4.58-7.08,8.12-13.12,10.62-18.12-1,.17-4.38.88-10.12,2.12s-13.04,2.75-21.88,4.5c-8.84,1.75-18.67,3.71-29.5,5.88-10.84,2.17-21.84,4.38-33,6.62-11.17,2.25-21.88,4.42-32.12,6.5-10.25,2.09-19.38,3.96-27.38,5.62-8,1.67-14.17,2.92-18.5,3.75l-3.75-20.75c4.5-.66,10.75-1.62,18.75-2.88s17.04-2.83,27.12-4.75c10.08-1.91,20.66-3.96,31.75-6.12,11.08-2.16,22-4.29,32.75-6.38,10.75-2.08,20.79-4.08,30.12-6,9.33-1.91,17.33-3.58,24-5,6.66-1.41,11.33-2.38,14-2.88,2.66-.66,5.21-1.38,7.62-2.12,2.41-.75,4.29-1.54,5.62-2.38l14.75,11.5ZM61.5,161V23c0-2.5-.04-5.04-.12-7.62-.09-2.58-.25-5.16-.5-7.75-.25-2.58-.62-5.12-1.12-7.62h23.75c-.67,3.67-1.12,7.5-1.38,11.5s-.38,7.84-.38,11.5v132.75c0,5.67.96,10.17,2.88,13.5,1.91,3.34,5.46,5.71,10.62,7.12,5.16,1.42,12.75,2.12,22.75,2.12s18.83-.25,27.5-.75c8.66-.5,17.16-1.33,25.5-2.5,8.33-1.16,16.66-2.5,25-4l-1,21.5c-7.34,1-15.09,1.91-23.25,2.75-8.17.83-16.79,1.41-25.88,1.75-9.09.33-18.88.5-29.38.5-11.5,0-20.92-.75-28.25-2.25-7.34-1.5-12.92-3.79-16.75-6.88-3.84-3.08-6.46-6.91-7.88-11.5-1.42-4.58-2.12-9.96-2.12-16.12Z" style="fill: #231f20; stroke-width: 0px;"/>
</svg>