<?xml version="1.0" encoding="UTF-8"?>
<svg id="Layer_1" data-name="Layer 1" xmlns="http://www.w3.org/2000/svg" viewBox="0 0 401.75 199">
  <path d="M11,56.25c3.66,1.84,8.08,4.29,13.25,7.38,5.16,3.09,10.41,6.25,15.75,9.5,5.33,3.25,10.33,6.38,15,9.38,4.66,3,8.33,5.5,11,7.5l-11.5,17.5c-3.17-2.33-7.04-5.04-11.62-8.12-4.59-3.08-9.46-6.25-14.62-9.5-5.17-3.25-10.25-6.38-15.25-9.38s-9.34-5.41-13-7.25l11-17ZM11.25,178.75c9.16-1.66,18.58-3.88,28.25-6.62,9.66-2.75,19.25-6,28.75-9.75s18.41-8.04,26.75-12.88c13.83-8,26.66-16.83,38.5-26.5,11.83-9.66,22.5-20,32-31s17.58-22.33,24.25-34l12,20.5c-10.84,16.84-24.54,33-41.12,48.5-16.59,15.5-34.88,29.17-54.88,41-8.5,4.84-17.71,9.29-27.62,13.38-9.92,4.09-19.67,7.62-29.25,10.62-9.59,3-18.29,5.33-26.12,7l-11.5-20.25ZM48.75,0c3.66,2,8,4.59,13,7.75,5,3.17,10.16,6.5,15.5,10,5.33,3.5,10.29,6.79,14.88,9.88,4.58,3.09,8.21,5.62,10.88,7.62l-11.75,17c-3-2.16-6.75-4.83-11.25-8-4.5-3.16-9.34-6.46-14.5-9.88-5.17-3.41-10.21-6.66-15.12-9.75-4.92-3.08-9.21-5.71-12.88-7.88L48.75,0Z" style="fill: #231f20; stroke-width: 0px;"/>
  <path d="M225,169.25c3,.17,6.25.38,9.75.62s7.16.38,11,.38h136.25c2.66,0,5.96-.08,9.88-.25,3.91-.16,7.21-.33,9.88-.5v20.25c-1.5-.16-3.42-.25-5.75-.25s-4.67-.04-7-.12c-2.34-.08-4.42-.12-6.25-.12h-137c-3.84,0-7.34.04-10.5.12-3.17.09-6.59.29-10.25.62v-20.75ZM372,73c-.34,1.17-.67,2.5-1,4-.34,1.5-.59,2.75-.75,3.75-.34,3.84-.96,9-1.88,15.5-.92,6.5-1.96,13.67-3.12,21.5-1.17,7.84-2.34,15.62-3.5,23.38-1.17,7.75-2.21,14.84-3.12,21.25-.92,6.42-1.71,11.38-2.38,14.88h-21.25c.66-2.83,1.46-7.21,2.38-13.12.91-5.91,2-12.62,3.25-20.12s2.38-15.04,3.38-22.62c1-7.58,1.88-14.5,2.62-20.75s1.21-11.04,1.38-14.38h-79.5c-3.67,0-7.12.09-10.38.25-3.25.17-6.46.34-9.62.5v-21c2,.34,4.12.59,6.38.75,2.25.17,4.54.34,6.88.5,2.33.17,4.5.25,6.5.25h76c1.5,0,3.04-.08,4.62-.25,1.58-.16,3.12-.38,4.62-.62s2.58-.54,3.25-.88l15.25,7.25Z" style="fill: #231f20; stroke-width: 0px;"/>
</svg>