<?xml version="1.0" encoding="UTF-8"?>
<svg id="Layer_1" data-name="Layer 1" xmlns="http://www.w3.org/2000/svg" viewBox="0 0 181.5 189.5">
  <path d="M19.75,3c2.83,4.17,6.16,9.38,10,15.62,3.83,6.25,7.79,12.88,11.88,19.88,4.08,7,7.91,13.67,11.5,20,3.58,6.34,6.46,11.5,8.62,15.5l-20,11.25c-2.67-5.5-5.84-11.66-9.5-18.5-3.67-6.83-7.5-13.71-11.5-20.62-4-6.91-7.79-13.25-11.38-19C5.79,21.38,2.66,16.67,0,13L19.75,3ZM35,173.75c20.83-8.5,38.41-19.12,52.75-31.88,14.33-12.75,26.16-26.04,35.5-39.88,9.66-14.33,16.79-28.62,21.38-42.88,4.58-14.25,7.88-27.12,9.88-38.62.66-3.33,1.21-7,1.62-11,.41-4,.54-7.16.38-9.5l25,3.5c-1,3.34-1.96,6.88-2.88,10.62-.92,3.75-1.62,6.79-2.12,9.12-2.84,14.84-6.96,29.88-12.38,45.12-5.42,15.25-12.71,29.96-21.88,44.12-9.67,15-21.75,29.21-36.25,42.62-14.5,13.42-31.92,24.88-52.25,34.38l-18.75-15.75Z" style="fill: #231f20; stroke-width: 0px;"/>
</svg>