<?xml version="1.0" encoding="UTF-8"?>
<svg id="Layer_1" data-name="Layer 1" xmlns="http://www.w3.org/2000/svg" viewBox="0 0 199.75 183.75">
  <path d="M175,9.75c-.84,1-1.88,2.62-3.12,4.88s-2.29,4.29-3.12,6.12c-3.17,8.17-7.34,17.21-12.5,27.12-5.17,9.92-10.92,19.71-17.25,29.38-6.34,9.67-13,18.42-20,26.25-9.17,10.34-19.25,20.38-30.25,30.12s-22.59,18.84-34.75,27.25c-12.17,8.42-24.84,15.62-38,21.62L0,165.75c13.5-5.33,26.46-11.96,38.88-19.88,12.41-7.91,24.08-16.58,35-26,10.91-9.41,20.62-18.88,29.12-28.38,5.66-6.5,11.29-13.79,16.88-21.88,5.58-8.08,10.58-16.33,15-24.75,4.41-8.41,7.62-16.04,9.62-22.88H47c-2.84,0-6.04.09-9.62.25-3.59.17-6.84.34-9.75.5-2.92.17-4.88.34-5.88.5V.5c1.16.17,3.29.38,6.38.62,3.08.25,6.38.46,9.88.62,3.5.17,6.5.25,9,.25h96.5c4.16,0,7.88-.16,11.12-.5,3.25-.33,5.79-.83,7.62-1.5l12.75,9.75ZM122.25,90.25c6.83,5.67,13.88,11.92,21.12,18.75,7.25,6.84,14.38,13.88,21.38,21.12s13.5,14.17,19.5,20.75c6,6.59,11.16,12.54,15.5,17.88l-17.5,15c-5.84-8-12.84-16.62-21-25.88-8.17-9.25-16.79-18.5-25.88-27.75-9.09-9.25-18.21-17.79-27.38-25.62l14.25-14.25Z" style="fill: #231f20; stroke-width: 0px;"/>
</svg>