<?xml version="1.0" encoding="UTF-8"?>
<svg id="Layer_1" data-name="Layer 1" xmlns="http://www.w3.org/2000/svg" viewBox="0 0 195.25 214.5">
  <path d="M111,7.25c-2.17,3.34-4.25,6.84-6.25,10.5-2,3.67-3.67,6.67-5,9-5,9.17-11.46,19.21-19.38,30.12-7.92,10.92-17.17,21.79-27.75,32.62-10.59,10.84-22.54,20.92-35.88,30.25L0,106.75c14.33-8.83,26.75-18.58,37.25-29.25,10.5-10.66,19.33-21.08,26.5-31.25,7.16-10.16,12.66-19,16.5-26.5,1.33-2.16,2.83-5.21,4.5-9.12,1.66-3.91,2.83-7.46,3.5-10.62l22.75,7.25ZM195.25,43.25c-1.17,1.84-2.25,4.04-3.25,6.62-1,2.59-1.92,4.88-2.75,6.88-2.34,8.5-5.67,17.67-10,27.5-4.34,9.84-9.42,19.71-15.25,29.62-5.84,9.92-12.5,19.46-20,28.62-11.17,13.84-25.12,27.12-41.88,39.88s-36.96,23.46-60.62,32.12l-18-15.5c15.5-4.83,29.62-10.79,42.38-17.88,12.75-7.08,24.21-14.88,34.38-23.38,10.16-8.5,19-17.25,26.5-26.25,6.5-7.66,12.46-16.08,17.88-25.25,5.41-9.16,10.12-18.29,14.12-27.38,4-9.08,6.91-17.54,8.75-25.38h-92.75l8-17.75h79.5c3.33,0,6.41-.21,9.25-.62,2.83-.41,5.25-1.04,7.25-1.88l16.5,10ZM80.75,89c8,4.67,16.41,9.84,25.25,15.5,8.83,5.67,17.62,11.54,26.38,17.62,8.75,6.09,17.12,12.04,25.12,17.88,8,5.84,15.08,11.34,21.25,16.5l-14.75,17.25c-5.67-5.16-12.46-10.88-20.38-17.12-7.92-6.25-16.29-12.58-25.12-19-8.84-6.41-17.67-12.62-26.5-18.62-8.84-6-17.09-11.41-24.75-16.25l13.5-13.75Z" style="fill: #231f20; stroke-width: 0px;"/>
</svg>