<?xml version="1.0" encoding="UTF-8"?>
<svg id="Layer_1" data-name="Layer 1" xmlns="http://www.w3.org/2000/svg" viewBox="0 0 205 197">
  <path d="M0,62.75c3.5.34,7.04.62,10.62.88,3.58.25,7.29.38,11.12.38h163.75c2.66,0,5.83-.08,9.5-.25,3.66-.16,7-.5,10-1v20.75c-2.67-.16-5.79-.29-9.38-.38-3.59-.08-6.96-.12-10.12-.12H10.75c-3.67,0-7.25.17-10.75.5v-20.75ZM30,0c3.5.34,7.12.67,10.88,1,3.75.34,7.62.5,11.62.5h101.25c3.5,0,7.38-.12,11.62-.38s8.12-.62,11.62-1.12v20.75c-3.67-.33-7.54-.54-11.62-.62-4.09-.08-7.96-.12-11.62-.12H52.75c-4,0-8,.04-12,.12-4,.09-7.59.29-10.75.62V0ZM117.75,73c0,15.67-1.12,30.04-3.38,43.12-2.25,13.09-6.12,24.79-11.62,35.12-3,5.67-7.04,11.29-12.12,16.88-5.09,5.59-10.75,10.88-17,15.88s-12.96,9.33-20.12,13l-18.5-13.75c9.66-4,18.75-9.41,27.25-16.25,8.5-6.83,15.16-14.16,20-22,6.33-10,10.33-21.04,12-33.12,1.66-12.08,2.5-25.04,2.5-38.88h21Z" style="fill: #231f20; stroke-width: 0px;"/>
</svg>