<?xml version="1.0" encoding="UTF-8"?>
<svg id="Layer_1" data-name="Layer 1" xmlns="http://www.w3.org/2000/svg" viewBox="0 0 129.5 201">
  <path d="M2,171.5V26c0-3.5-.17-7.75-.5-12.75C1.16,8.25.66,3.84,0,0h24.5c-.34,3.67-.71,8-1.12,13-.42,5-.62,9.34-.62,13v52.38c0,10.25.04,20.42.12,30.5.08,10.09.12,19.5.12,28.25v34.38c0,2.67.04,5.75.12,9.25.08,3.5.29,7.04.62,10.62.33,3.58.58,6.79.75,9.62H.25c.66-4,1.12-8.75,1.38-14.25s.38-10.58.38-15.25ZM18.5,65.5c8.16,2.5,17.21,5.46,27.12,8.88,9.91,3.42,20.04,7.04,30.38,10.88,10.33,3.84,20.12,7.71,29.38,11.62,9.25,3.92,17.29,7.62,24.12,11.12l-8.5,21.25c-7.17-4-15.25-7.96-24.25-11.88-9-3.91-18.21-7.79-27.62-11.62-9.42-3.83-18.5-7.29-27.25-10.38-8.75-3.08-16.54-5.62-23.38-7.62v-22.25Z" style="fill: #231f20; stroke-width: 0px;"/>
</svg>