<?xml version="1.0" encoding="UTF-8"?>
<svg id="Layer_1" data-name="Layer 1" xmlns="http://www.w3.org/2000/svg" viewBox="0 0 200.5 196.25">
  <path d="M19.75,15c1.66,3.5,3.75,8.21,6.25,14.12,2.5,5.92,5.16,12.34,8,19.25,2.83,6.92,5.46,13.5,7.88,19.75,2.41,6.25,4.38,11.38,5.88,15.38l-19.75,7.25c-1-3-2.38-6.96-4.12-11.88-1.75-4.91-3.75-10.16-6-15.75-2.25-5.58-4.5-11.12-6.75-16.62s-4.38-10.38-6.38-14.62S1.16,24.42,0,22.25l19.75-7.25ZM200.5,16c-.84,2.17-1.62,4.59-2.38,7.25-.75,2.67-1.46,5-2.12,7-2.34,10.34-5.46,21-9.38,32-3.92,11-8.54,21.79-13.88,32.38-5.34,10.59-11.42,20.38-18.25,29.38-8.5,11.17-18.12,21.46-28.88,30.88-10.75,9.42-22,17.62-33.75,24.62s-23.54,12.58-35.38,16.75l-17.25-17.5c12-3.5,23.91-8.41,35.75-14.75,11.83-6.33,23.12-13.88,33.88-22.62s20.29-18.46,28.62-29.12c6.66-8.33,12.66-18.12,18-29.38,5.33-11.25,9.91-23.16,13.75-35.75,3.83-12.58,6.58-25.12,8.25-37.62l23,6.5ZM89.5,0c1.33,3,3.16,7.42,5.5,13.25,2.33,5.84,4.79,12.12,7.38,18.88,2.58,6.75,4.96,13.17,7.12,19.25,2.16,6.09,3.75,10.88,4.75,14.38l-19.5,6.75c-1-3.5-2.54-8.29-4.62-14.38-2.09-6.08-4.34-12.46-6.75-19.12-2.42-6.66-4.79-12.96-7.12-18.88-2.34-5.91-4.34-10.46-6-13.62L89.5,0Z" style="fill: #231f20; stroke-width: 0px;"/>
</svg>