<?xml version="1.0" encoding="UTF-8"?>
<svg id="Layer_1" data-name="Layer 1" xmlns="http://www.w3.org/2000/svg" viewBox="0 0 186 185.25">
  <path d="M186,9.75c-.34.84-.75,2-1.25,3.5s-.92,3.04-1.25,4.62c-.34,1.59-.59,2.79-.75,3.62-1.5,9.84-3.25,20.12-5.25,30.88s-4.75,21.46-8.25,32.12c-3.5,10.67-8.25,20.75-14.25,30.25-10.17,16-23.46,30.12-39.88,42.38-16.42,12.25-34.71,21.62-54.88,28.12l-17-17.25c12.33-3.33,24.29-7.91,35.88-13.75,11.58-5.83,22.29-12.96,32.12-21.38,9.83-8.41,18.16-17.88,25-28.38,4.83-7.5,8.83-15.83,12-25,3.16-9.16,5.71-18.79,7.62-28.88,1.91-10.08,3.29-20.04,4.12-29.88H22v50c0,1.84.04,4.21.12,7.12.08,2.92.29,5.88.62,8.88H0c.33-3,.58-5.83.75-8.5.16-2.66.25-5.16.25-7.5V17.5c0-2.83-.09-5.62-.25-8.38C.58,6.38.33,3.59,0,.75c3.5.17,7.46.34,11.88.5,4.41.17,9.38.25,14.88.25h128.25c2.83,0,5.62-.12,8.38-.38s5.21-.62,7.38-1.12l15.25,9.75Z" style="fill: #231f20; stroke-width: 0px;"/>
</svg>