<?xml version="1.0" encoding="UTF-8"?>
<svg id="Layer_1" data-name="Layer 1" xmlns="http://www.w3.org/2000/svg" viewBox="0 0 179.5 190">
  <path d="M0,0c2.66.17,6.33.5,11,1,4.66.5,9.58.75,14.75.75h122.5c2.83,0,5.54-.12,8.12-.38,2.58-.25,4.96-.62,7.12-1.12l16,10c-.5,1.17-1.09,2.5-1.75,4-.67,1.5-1.17,3.17-1.5,5-1.84,10.5-4.09,21.54-6.75,33.12-2.67,11.59-5.88,22.71-9.62,33.38-3.75,10.67-8.04,19.75-12.88,27.25-7.84,12-16.71,22.75-26.62,32.25-9.92,9.5-21.21,17.92-33.88,25.25-12.67,7.34-27.25,13.83-43.75,19.5l-16.25-17.5c14.5-3.33,28-8.08,40.5-14.25,12.5-6.16,23.83-13.62,34-22.38,10.16-8.75,19.08-18.71,26.75-29.88,3.33-5.16,6.41-11.16,9.25-18,2.83-6.83,5.33-14.08,7.5-21.75,2.16-7.66,4-15.38,5.5-23.12s2.75-15.21,3.75-22.38H25.75c-4,0-8.17.09-12.5.25-4.34.17-8.75.42-13.25.75V0ZM150.25,84.75H29.5c-4.34,0-8.29.09-11.88.25-3.59.17-7.29.42-11.12.75v-20.5c3.5.34,7.12.62,10.88.88s7.54.38,11.38.38h123.25l-1.75,18.25Z" style="fill: #231f20; stroke-width: 0px;"/>
</svg>