<?xml version="1.0" encoding="UTF-8"?>
<svg id="Layer_1" data-name="Layer 1" xmlns="http://www.w3.org/2000/svg" viewBox="0 0 213 209.5">
  <path d="M213,40.75c-3,6.34-6.96,13.38-11.88,21.12-4.92,7.75-10.38,15.62-16.38,23.62s-12.04,15.62-18.12,22.88c-6.09,7.25-11.71,13.38-16.88,18.38l-20.25-9.75c5.16-4,10.41-8.75,15.75-14.25,5.33-5.5,10.46-11.25,15.38-17.25,4.91-6,9.33-11.75,13.25-17.25,3.91-5.5,7.04-10.25,9.38-14.25-2,.34-6.29,1.12-12.88,2.38-6.59,1.25-14.75,2.88-24.5,4.88s-20.29,4.12-31.62,6.38c-11.34,2.25-22.71,4.5-34.12,6.75-11.42,2.25-22.21,4.42-32.38,6.5-10.17,2.09-18.96,3.92-26.38,5.5-7.42,1.59-12.71,2.71-15.88,3.38L0,68.5c4.33-.33,8.46-.75,12.38-1.25,3.91-.5,8.12-1.08,12.62-1.75,2-.33,6.21-1.08,12.62-2.25,6.41-1.16,14.16-2.62,23.25-4.38,9.08-1.75,18.83-3.62,29.25-5.62,10.41-2,20.88-4,31.38-6s20.38-3.88,29.62-5.62,17.12-3.29,23.62-4.62c6.5-1.33,10.83-2.25,13-2.75,2-.33,4-.79,6-1.38,2-.58,3.75-1.29,5.25-2.12l14,10ZM68.5,0c.33,2.67.88,5.59,1.62,8.75.75,3.17,1.62,6.67,2.62,10.5,1.83,6.67,4.08,14.84,6.75,24.5,2.66,9.67,5.54,20.12,8.62,31.38,3.08,11.25,6.25,22.54,9.5,33.88,3.25,11.34,6.25,22.09,9,32.25,2.75,10.17,5.21,19.04,7.38,26.62,2.16,7.59,3.75,13.12,4.75,16.62.5,1.67,1.12,3.67,1.88,6,.75,2.34,1.54,4.71,2.38,7.12.83,2.41,1.58,4.54,2.25,6.38l-23.25,5.5c-.5-2.84-1.12-6.12-1.88-9.88s-1.62-7.29-2.62-10.62c-.84-3-2.17-7.83-4-14.5-1.84-6.66-3.96-14.58-6.38-23.75-2.42-9.16-5.04-18.91-7.88-29.25-2.84-10.33-5.62-20.62-8.38-30.88s-5.38-19.91-7.88-29c-2.5-9.08-4.67-16.91-6.5-23.5-1.84-6.58-3.17-11.21-4-13.88-1.34-4.66-2.59-8.46-3.75-11.38-1.17-2.91-2.25-5.38-3.25-7.38L68.5,0Z" style="fill: #231f20; stroke-width: 0px;"/>
</svg>