<?xml version="1.0" encoding="UTF-8"?>
<svg id="Layer_1" data-name="Layer 1" xmlns="http://www.w3.org/2000/svg" viewBox="0 0 169.5 181.75">
  <path d="M0,148.75c2.5.17,5.96.38,10.38.62,4.41.25,9.29.38,14.62.38h134.25v19.25H25.25c-5,0-9.84.09-14.5.25-4.67.17-8.25.42-10.75.75v-21.25ZM3.5,0c2,.17,4.96.38,8.88.62,3.91.25,8,.42,12.25.5,4.25.09,7.71.12,10.38.12h116.75c3.5,0,6.79-.04,9.88-.12,3.08-.08,5.71-.21,7.88-.38-.17,1.67-.25,3.79-.25,6.38v159.62c0,2.67.04,5.29.12,7.88.08,2.58.12,4.96.12,7.12h-21.5c.16-1.34.25-2.84.25-4.5V20.25H35c-2.67,0-6.12.04-10.38.12-4.25.09-8.34.17-12.25.25-3.92.09-6.88.21-8.88.38V0ZM10.75,72.5c3.16.34,7.21.62,12.12.88,4.91.25,9.96.38,15.12.38h121v19H38.25c-5.34,0-10.5.04-15.5.12-5,.09-9,.12-12,.12v-20.5Z" style="fill: #231f20; stroke-width: 0px;"/>
</svg>