<?xml version="1.0" encoding="UTF-8"?>
<svg id="Layer_1" data-name="Layer 1" xmlns="http://www.w3.org/2000/svg" viewBox="0 0 211.5 154.5">
  <path d="M0,131.75c3.66.5,7.38.88,11.12,1.12s7.38.38,10.88.38h168.75c3.83,0,7.46-.16,10.88-.5,3.41-.33,6.71-.66,9.88-1v22.75c-3.34-.33-7-.58-11-.75-4-.16-7.25-.25-9.75-.25H22c-3.5,0-7.09.09-10.75.25-3.67.17-7.42.42-11.25.75v-22.75ZM176.25,8c-.5,1.17-.92,2.59-1.25,4.25-.34,1.67-.59,3-.75,4-.5,5-1.34,11.71-2.5,20.12-1.17,8.42-2.5,17.59-4,27.5-1.5,9.92-3,19.71-4.5,29.38-1.5,9.67-2.92,18.5-4.25,26.5-1.34,8-2.34,14.25-3,18.75h-22.25c.66-3.66,1.54-8.62,2.62-14.88,1.08-6.25,2.21-13.21,3.38-20.88,1.16-7.66,2.38-15.58,3.62-23.75,1.25-8.16,2.38-16,3.38-23.5s1.83-14.16,2.5-20c.66-5.83,1.08-10.33,1.25-13.5H52c-4.5,0-8.62.09-12.38.25-3.75.17-7.62.42-11.62.75V.75c3.83.5,7.75.88,11.75,1.12s8,.38,12,.38h92.25c1.66,0,3.54-.08,5.62-.25,2.08-.16,4-.41,5.75-.75,1.75-.33,3.12-.75,4.12-1.25l16.75,8Z" style="fill: #231f20; stroke-width: 0px;"/>
</svg>