<?xml version="1.0" encoding="UTF-8"?>
<svg id="Layer_1" data-name="Layer 1" xmlns="http://www.w3.org/2000/svg" viewBox="0 0 226.75 214.25">
  <path d="M0,58.25c.66.17,2.33.38,5,.62,2.66.25,5.79.5,9.38.75,3.58.25,7.12.38,10.62.38h165.5c5.66,0,10.5-.16,14.5-.5,4-.33,6.83-.66,8.5-1v21.25c-1.34-.16-4.09-.33-8.25-.5-4.17-.16-9-.25-14.5-.25H25c-3.67,0-7.21.04-10.62.12-3.42.09-6.42.21-9,.38-2.59.17-4.38.34-5.38.5v-21.75ZM73,9.75c0,1.17-.17,3.38-.5,6.62-.34,3.25-.5,7.04-.5,11.38v91.75c0,3,.08,6.12.25,9.38.16,3.25.29,6.04.38,8.38.08,2.34.21,3.92.38,4.75h-22.25c.16-.83.33-2.41.5-4.75.16-2.33.33-5.08.5-8.25.16-3.16.25-6.33.25-9.5V28c0-2.83-.09-5.88-.25-9.12-.17-3.25-.5-6.29-1-9.12h22.25ZM163.25,87.75c0,16.67-1.09,31.46-3.25,44.38-2.17,12.92-5.88,24.34-11.12,34.25-5.25,9.92-12.5,18.75-21.75,26.5s-21.04,14.88-35.38,21.38l-16.75-16c11.33-4.33,21.25-9.21,29.75-14.62,8.5-5.41,15.58-12.12,21.25-20.12,5.66-8,9.91-17.96,12.75-29.88,2.83-11.91,4.25-26.62,4.25-44.12V28.75c0-5-.12-9.38-.38-13.12s-.46-6.21-.62-7.38h22.5c-.17,1.17-.42,3.62-.75,7.38-.34,3.75-.5,8.12-.5,13.12v59ZM187,7.5c1.5,3,3.16,6.59,5,10.75,1.83,4.17,3.62,8.38,5.38,12.62s3.12,8.04,4.12,11.38l-12.25,4.25c-1.17-3.66-2.59-7.58-4.25-11.75-1.67-4.16-3.34-8.33-5-12.5-1.67-4.16-3.34-7.83-5-11l12-3.75ZM211.75,0c1.66,3,3.41,6.54,5.25,10.62,1.83,4.09,3.66,8.21,5.5,12.38,1.83,4.17,3.25,8,4.25,11.5l-12.25,4c-2-5.5-4.34-11.5-7-18-2.67-6.5-5.25-12.08-7.75-16.75l12-3.75Z" style="fill: #231f20; stroke-width: 0px;"/>
</svg>