<?xml version="1.0" encoding="UTF-8"?>
<svg id="Layer_1" data-name="Layer 1" xmlns="http://www.w3.org/2000/svg" viewBox="0 0 227.25 218">
  <path d="M206.5,69.5c-.84,1.34-1.84,2.96-3,4.88-1.17,1.92-2.25,3.62-3.25,5.12-2.84,5.17-6.17,10.88-10,17.12-3.84,6.25-7.96,12.71-12.38,19.38-4.42,6.67-9.09,13.09-14,19.25-4.92,6.17-9.88,11.84-14.88,17l-17.25-10.25c6.33-5.83,12.41-12.41,18.25-19.75,5.83-7.33,11.04-14.54,15.62-21.62,4.58-7.08,8.12-13.12,10.62-18.12-1,.17-4.38.84-10.12,2-5.75,1.17-13.09,2.67-22,4.5-8.92,1.84-18.75,3.79-29.5,5.88-10.75,2.09-21.71,4.29-32.88,6.62-11.17,2.34-21.88,4.5-32.12,6.5s-19.38,3.88-27.38,5.62-14.17,3.04-18.5,3.88l-3.75-21c4.5-.5,10.75-1.41,18.75-2.75,8-1.33,17.04-2.91,27.12-4.75,10.08-1.83,20.66-3.83,31.75-6,11.08-2.16,22-4.33,32.75-6.5,10.75-2.16,20.79-4.21,30.12-6.12,9.33-1.91,17.33-3.54,24-4.88,6.66-1.33,11.33-2.33,14-3,2.66-.5,5.16-1.12,7.5-1.88,2.33-.75,4.25-1.62,5.75-2.62l14.75,11.5ZM61.25,181.25V35.5c0-2.66-.12-5.29-.38-7.88-.25-2.58-.62-5.04-1.12-7.38h23.5c-.5,3.67-.88,7.5-1.12,11.5s-.38,7.84-.38,11.5v132.75c0,5.67.91,10.17,2.75,13.5,1.83,3.34,5.38,5.71,10.62,7.12,5.25,1.42,12.88,2.12,22.88,2.12s18.83-.29,27.5-.88c8.66-.58,17.16-1.41,25.5-2.5,8.33-1.08,16.58-2.46,24.75-4.12l-.75,21.5c-7.34,1-15.09,1.91-23.25,2.75-8.17.83-16.79,1.46-25.88,1.88-9.09.41-18.88.62-29.38.62-11.5,0-20.92-.75-28.25-2.25-7.34-1.5-12.92-3.79-16.75-6.88-3.84-3.08-6.5-6.91-8-11.5-1.5-4.58-2.25-9.96-2.25-16.12ZM178.75,10c2.16,3,4.5,6.54,7,10.62,2.5,4.09,4.96,8.21,7.38,12.38,2.41,4.17,4.46,7.92,6.12,11.25l-13.5,6c-2.5-5-5.67-10.83-9.5-17.5-3.84-6.66-7.42-12.33-10.75-17l13.25-5.75ZM206.25,0c2.33,3,4.79,6.59,7.38,10.75,2.58,4.17,5.12,8.29,7.62,12.38,2.5,4.09,4.5,7.71,6,10.88l-13.5,6c-2.67-5.5-5.88-11.41-9.62-17.75-3.75-6.33-7.46-11.83-11.12-16.5l13.25-5.75Z" style="fill: #231f20; stroke-width: 0px;"/>
</svg>