<?xml version="1.0" encoding="UTF-8"?>
<svg id="Layer_1" data-name="Layer 1" xmlns="http://www.w3.org/2000/svg" viewBox="0 0 209.75 226">
  <path d="M19.5,39.5c2.83,4,6.16,9.17,10,15.5,3.83,6.34,7.83,13,12,20,4.16,7,8,13.62,11.5,19.88s6.41,11.46,8.75,15.62l-20,11.25c-2.67-5.66-5.84-11.91-9.5-18.75-3.67-6.83-7.5-13.66-11.5-20.5-4-6.83-7.79-13.16-11.38-19-3.59-5.83-6.71-10.5-9.38-14l19.5-10ZM35.25,210c17.16-7.16,31.96-15.5,44.38-25,12.41-9.5,22.96-19.46,31.62-29.88,8.66-10.41,15.71-20.88,21.12-31.38,5.41-10.5,9.62-20.5,12.62-30s5.25-18,6.75-25.5c.83-3.33,1.5-6.96,2-10.88.5-3.91.75-7.04.75-9.38l24.5,4.75c-1.17,3-2.21,6.38-3.12,10.12-.92,3.75-1.62,6.38-2.12,7.88-3,12.67-7.09,25.92-12.25,39.75-5.17,13.84-12.21,27.67-21.12,41.5-8.92,13.84-20.42,27.09-34.5,39.75-14.09,12.67-31.46,24.08-52.12,34.25l-18.5-16ZM157.5,7.25c2,2.67,4.25,6.04,6.75,10.12,2.5,4.09,4.96,8.17,7.38,12.25,2.41,4.09,4.46,7.71,6.12,10.88l-14,6.25c-1.5-3.5-3.42-7.29-5.75-11.38-2.34-4.08-4.75-8.12-7.25-12.12s-4.75-7.41-6.75-10.25l13.5-5.75ZM189.25,0c2,2.84,4.25,6.21,6.75,10.12,2.5,3.92,5,7.92,7.5,12,2.5,4.09,4.58,7.71,6.25,10.88l-14,6c-2.67-5.16-5.88-10.91-9.62-17.25-3.75-6.33-7.29-11.66-10.62-16l13.75-5.75Z" style="fill: #231f20; stroke-width: 0px;"/>
</svg>