<?xml version="1.0" encoding="UTF-8"?>
<svg id="Layer_1" data-name="Layer 1" xmlns="http://www.w3.org/2000/svg" viewBox="0 0 218.5 223.5">
  <path d="M175,49.5c-.84,1-1.88,2.62-3.12,4.88s-2.29,4.21-3.12,5.88c-3.17,8.17-7.34,17.25-12.5,27.25-5.17,10-10.92,19.84-17.25,29.5-6.34,9.67-13,18.34-20,26-9.17,10.34-19.25,20.42-30.25,30.25-11,9.84-22.59,18.92-34.75,27.25-12.17,8.34-24.84,15.58-38,21.75L0,205.5c13.5-5.33,26.46-11.96,38.88-19.88,12.41-7.91,24.08-16.58,35-26,10.91-9.41,20.62-18.88,29.12-28.38,5.66-6.5,11.29-13.83,16.88-22,5.58-8.16,10.58-16.46,15-24.88,4.41-8.41,7.62-16.04,9.62-22.88H47c-2.84,0-6.04.12-9.62.38-3.59.25-6.84.46-9.75.62-2.92.17-4.88.25-5.88.25v-22.5c1.16.17,3.29.34,6.38.5,3.08.17,6.38.38,9.88.62s6.5.38,9,.38h96.5c4.16,0,7.88-.21,11.12-.62,3.25-.41,5.79-.88,7.62-1.38l12.75,9.75ZM122.25,130c6.83,5.67,13.88,11.92,21.12,18.75,7.25,6.84,14.38,13.84,21.38,21,7,7.17,13.5,14.09,19.5,20.75,6,6.67,11.16,12.59,15.5,17.75l-17.5,15.25c-5.84-8-12.84-16.62-21-25.88-8.17-9.25-16.79-18.54-25.88-27.88-9.09-9.33-18.21-17.91-27.38-25.75l14.25-14ZM169.25,8.75c2.16,3,4.5,6.54,7,10.62,2.5,4.09,4.96,8.21,7.38,12.38,2.41,4.17,4.38,7.92,5.88,11.25l-13.5,6c-2.5-5-5.62-10.79-9.38-17.38-3.75-6.58-7.29-12.29-10.62-17.12l13.25-5.75ZM197.5,0c2.33,3,4.79,6.59,7.38,10.75,2.58,4.17,5.12,8.29,7.62,12.38,2.5,4.09,4.5,7.71,6,10.88l-13.5,6c-2.67-5.5-5.88-11.41-9.62-17.75-3.75-6.33-7.38-11.83-10.88-16.5l13-5.75Z" style="fill: #231f20; stroke-width: 0px;"/>
</svg>